<?xml version="1.0" encoding="UTF-8"?>
<svg xmlns="http://www.w3.org/2000/svg" 
     width="500.0" height="500.0" 
     viewBox="0 0 500.0 500.0">
  <rect width="100%" height="100%" fill="#ffffff"/>
  <path d="M 60.8621 164.0166 L 61.2918 163.8962 L 61.7217 163.7762 L 62.1517 163.6568 L 62.5819 163.5378 L 63.0121 163.4194 L 63.4425 163.3014 L 63.8731 163.1839 L 64.3037 163.0668 L 64.7345 162.9502 L 65.1654 162.8340 L 65.5964 162.7182 L 66.0275 162.6028 L 66.4587 162.4878 L 66.8900 162.3732 L 67.3214 162.2590 L 67.7529 162.1451 L 68.1845 162.0316 L 68.6162 161.9184 L 69.0480 161.8056 L 69.4799 161.6931 L 69.9118 161.5810 L 70.3439 161.4691 L 70.7760 161.3576 L 71.2082 161.2463 L 71.6404 161.1353 L 72.0728 161.0246 L 72.5052 160.9142 L 72.9377 160.8041 L 73.3702 160.6942 L 73.8028 160.5845 L 74.2355 160.4751 L 74.6682 160.3659 L 75.1010 160.2570 L 75.5338 160.1483 L 75.9667 160.0398 L 76.3996 159.9315 L 76.8326 159.8234 L 77.2657 159.7155 L 77.6987 159.6077 L 78.1319 159.5002 L 78.5651 159.3929 L 78.9983 159.2857 L 79.4315 159.1787 L 79.8648 159.0718 L 80.2982 158.9651 L 80.7316 158.8586 L 81.1650 158.7522 L 81.5984 158.6459 L 82.0319 158.5398 L 82.4654 158.4337 L 82.8989 158.3279 L 83.3325 158.2221 L 83.7661 158.1165 L 84.1997 158.0109 L 84.6334 157.9055 L 85.0670 157.8001 L 85.5007 157.6949 L 85.9344 157.5898 L 86.3682 157.4847 L 86.8019 157.3797 L 87.2357 157.2748 L 87.6695 157.1700 L 88.1033 157.0652 L 88.5372 156.9606 L 88.9710 156.8559 L 89.4049 156.7514 L 89.8387 156.6469 L 90.2726 156.5424 L 90.7065 156.4380 L 91.1404 156.3336 L 91.5743 156.2293 L 92.0083 156.1250 L 92.1672 156.1634 L 91.8249 156.4497 L 91.4827 156.7362 L 91.1407 157.0229 L 90.7988 157.3097 L 90.4570 157.5966 L 90.1153 157.8838 L 89.7738 158.1711 L 89.4325 158.4585 L 89.0912 158.7462 L 88.7501 159.0340 L 88.4092 159.3219 L 88.0684 159.6100 L 87.7277 159.8983 L 87.3871 160.1867 L 87.0467 160.4753 L 86.7064 160.7641 L 86.3663 161.0530 L 86.0263 161.3420 L 85.6864 161.6313 L 85.3467 161.9207 L 85.0071 162.2102 L 84.6676 162.4999 L 84.3283 162.7898 L 83.9891 163.0798 L 83.6501 163.3700 L 83.3111 163.6604 L 82.9724 163.9509 L 82.6337 164.2416 L 82.2952 164.5324 L 81.9569 164.8234 L 81.6186 165.1145 L 81.2805 165.4059 L 80.9426 165.6973 L 80.6048 165.9889 L 80.2671 166.2807 L 79.9295 166.5727 L 79.5921 166.8648 L 79.2549 167.1570 L 78.9177 167.4494 L 78.5807 167.7420 L 78.2439 168.0348 L 77.9071 168.3276 L 77.5706 168.6207 L 77.2341 168.9139 L 76.8978 169.2073 L 76.5616 169.5008 L 76.2256 169.7945 L 75.8897 170.0883 L 75.5539 170.3823 L 75.2183 170.6764 L 74.8828 170.9707 L 74.5475 171.2652 L 74.2122 171.5598 L 73.8772 171.8546 L 73.5422 172.1495 L 73.2074 172.4446 L 72.8728 172.7398 L 72.5382 173.0352 L 72.2038 173.3308 L 71.8696 173.6265 L 71.5355 173.9223 L 71.2015 174.2183 L 70.8676 174.5145 L 70.5339 174.8108 L 70.2004 175.1073 L 69.8669 175.4039 L 69.5336 175.7007 L 69.2005 175.9977 L 68.8675 176.2947 L 68.5346 176.5920 L 68.2018 176.8894 L 67.8692 177.1869 L 67.5367 177.4847 L 67.2044 177.7825 L 66.8722 178.0805 L 66.5401 178.3787 L 66.2082 178.6770 L 65.8764 178.9755 L 65.5448 179.2741 L 65.2133 179.5729 L 64.8819 179.8718 L 64.5506 180.1709 L 64.2195 180.4701 L 63.8886 180.7695 L 63.5577 181.0690 L 63.2270 181.3687 L 62.8965 181.6685 L 62.5661 181.9685 L 62.2358 182.2686 L 61.9056 182.5689 L 61.5756 182.8693 L 61.2457 183.1699 L 60.9160 183.4706 L 60.5864 183.7715 L 60.2569 184.0726 L 59.9276 184.3737 L 59.5984 184.6751 L 59.2694 184.9765 L 58.9404 185.2782 L 58.6116 185.5799 L 58.2830 185.8818 L 57.9545 186.1839 L 57.6261 186.4861 L 57.2979 186.7885 L 56.9697 187.0910 L 56.6418 187.3937 L 56.3139 187.6965 L 55.9862 187.9994 L 55.6587 188.3025 L 55.3312 188.6058 L 55.0039 188.9091 L 54.6768 189.2127 L 54.3498 189.5164 L 54.0229 189.8202 L 53.6961 190.1241 L 53.3695 190.4283 L 53.0430 190.7325 L 52.7167 191.0369 L 52.3904 191.3415 L 52.0644 191.6462 L 51.7384 191.9510 L 51.4126 192.2560 L 51.0869 192.5611 L 50.7614 192.8664 L 50.4360 193.1718 L 50.1107 193.4773 L 50.0000 193.8276 L 50.2061 194.2235 L 50.4123 194.6192 L 50.6187 195.0149 L 50.8253 195.4105 L 51.0320 195.8060 L 51.2389 196.2014 L 51.4459 196.5968 L 51.6532 196.9920 L 51.8605 197.3872 L 52.0681 197.7823 L 52.2758 198.1773 L 52.4837 198.5722 L 52.6917 198.9670 L 52.9000 199.3617 L 53.1083 199.7564 L 53.3169 200.1510 L 53.5256 200.5454 L 53.7345 200.9398 L 53.9435 201.3341 L 54.1527 201.7283 L 54.3621 202.1224 L 54.5716 202.5165 L 54.7813 202.9104 L 54.9911 203.3043 L 55.2012 203.6981 L 55.4113 204.0918 L 55.6217 204.4853 L 55.8322 204.8789 L 56.0429 205.2723 L 56.2537 205.6656 L 56.4647 206.0589 L 56.6759 206.4520 L 56.8872 206.8451 L 57.0987 207.2381 L 57.3104 207.6310 L 57.5222 208.0238 L 57.7342 208.4165 L 57.9464 208.8091 L 58.1587 209.2017 L 58.3712 209.5941 L 58.5838 209.9865 L 58.7966 210.3787 L 59.0096 210.7709 L 59.2228 211.1630 L 59.4361 211.5550 L 59.6495 211.9470 L 59.8631 212.3388 L 60.0769 212.7305 L 60.2909 213.1222 L 60.5050 213.5137 L 60.7193 213.9052 L 60.9337 214.2966 L 61.1483 214.6879 L 61.3631 215.0791 L 61.5781 215.4702 L 61.7931 215.8612 L 62.0084 216.2522 L 62.2238 216.6430 L 62.4394 217.0338 L 62.6552 217.4244 L 62.8711 217.8150 L 63.0872 218.2055 L 63.3034 218.5959 L 63.5198 218.9862 L 63.7364 219.3764 L 63.9531 219.7665 L 64.1700 220.1565 L 64.3870 220.5465 L 64.6043 220.9363 L 64.8216 221.3261 L 65.0392 221.7158 L 65.2569 222.1053 L 65.4747 222.4948 L 65.6928 222.8842 L 65.9110 223.2735 L 66.1293 223.6628 L 66.3478 224.0519 L 66.5665 224.4409 L 66.7853 224.8299 L 67.0043 225.2187 L 67.2235 225.6075 L 67.4428 225.9961 L 67.6623 226.3847 L 67.8820 226.7732 L 68.1018 227.1616 L 68.3218 227.5499 L 68.5419 227.9381 L 68.7622 228.3262 L 68.9827 228.7142 L 69.2033 229.1022 L 69.4241 229.4900 L 69.6450 229.8778 L 69.8661 230.2654 L 70.0874 230.6530 L 70.3088 231.0405 L 70.5304 231.4278 L 70.7522 231.8151 L 70.9741 232.2023 L 71.1962 232.5894 L 71.4184 232.9764 L 71.6408 233.3634 L 71.8634 233.7502 L 72.0861 234.1369 L 72.3090 234.5236 L 72.5320 234.9101 L 72.7552 235.2966 L 72.9786 235.6829 L 73.2021 236.0692 L 73.4258 236.4554 L 73.6497 236.8414 L 73.8737 237.2274 L 74.0978 237.6133 L 74.3222 237.9991 L 74.5467 238.3848 L 74.7713 238.7704 L 74.9961 239.1559 L 75.2211 239.5414 L 75.4463 239.9267 L 75.6716 240.3119 L 75.8970 240.6971 L 76.1226 241.0821 L 76.3484 241.4671 L 76.5744 241.8519 L 76.8005 242.2367 L 77.0267 242.6214 L 77.2531 243.0060 L 77.4797 243.3904 L 77.7065 243.7748 L 77.9334 244.1591 L 78.1604 244.5433 L 78.3877 244.9274 L 78.6151 245.3114 L 78.8426 245.6953 L 79.0703 246.0792 L 79.2982 246.4629 L 79.5262 246.8465 L 79.7544 247.2301 L 79.9827 247.6135 L 80.2112 247.9968 L 80.4399 248.3801 L 80.6687 248.7632 L 80.8977 249.1463 L 81.1268 249.5293 L 81.3562 249.9121 L 81.5856 250.2949 L 81.8152 250.6776 L 82.0450 251.0601 L 82.2750 251.4426 L 82.5051 251.8250 L 82.7353 252.2073 L 82.9658 252.5895 L 83.1963 252.9716 L 83.4271 253.3536 L 83.6580 253.7355 L 83.8890 254.1173 L 84.1202 254.4990 L 84.3516 254.8807 L 84.5832 255.2622 L 84.8149 255.6436 L 85.0467 256.0249 L 85.2787 256.4062 L 85.5109 256.7873 L 85.7432 257.1683 L 85.9757 257.5493 L 86.2084 257.9301 L 86.4412 258.3109 L 86.6741 258.6915 L 86.9073 259.0720 L 87.1406 259.4525 L 87.3740 259.8329 L 87.6076 260.2131 L 87.8414 260.5933 L 88.0753 260.9733 L 88.3094 261.3533 L 88.5436 261.7332 L 88.7780 262.1129 L 89.0126 262.4926 L 89.2473 262.8722 L 89.4821 263.2517 L 89.7172 263.6311 L 89.9524 264.0103 L 90.1877 264.3895 L 90.4232 264.7686 L 90.6589 265.1476 L 90.8947 265.5265 L 91.1307 265.9053 L 91.3668 266.2840 L 91.6031 266.6625 L 91.8395 267.0410 L 92.0762 267.4194 L 92.3129 267.7977 L 92.5498 268.1759 L 92.7869 268.5540 L 93.0242 268.9320 L 93.2616 269.3099 L 93.4991 269.6877 L 93.7368 270.0654 L 93.9747 270.4430 L 94.2127 270.8205 L 94.4509 271.1979 L 94.6893 271.5752 L 94.9278 271.9524 L 95.1664 272.3295 L 95.4053 272.7066 L 95.6442 273.0835 L 95.8834 273.4603 L 96.1227 273.8370 L 96.3621 274.2136 L 96.6017 274.5901 L 96.8415 274.9665 L 97.1565 275.1403 L 97.5837 275.0115 L 98.0110 274.8824 L 98.4381 274.7531 L 98.8652 274.6237 L 99.2922 274.4940 L 99.7192 274.3642 L 100.1461 274.2342 L 100.5730 274.1040 L 100.9998 273.9736 L 101.4266 273.8430 L 101.8533 273.7123 L 102.2799 273.5813 L 102.7065 273.4502 L 103.1330 273.3188 L 103.5595 273.1873 L 103.9859 273.0556 L 104.4122 272.9237 L 104.8385 272.7916 L 105.2647 272.6593 L 105.6909 272.5269 L 106.1170 272.3942 L 106.5430 272.2613 L 106.9690 272.1283 L 107.3949 271.9951 L 107.8208 271.8616 L 108.2466 271.7280 L 108.6724 271.5942 L 109.0981 271.4602 L 109.5237 271.3260 L 109.9493 271.1916 L 110.3748 271.0570 L 110.8002 270.9222 L 111.2256 270.7873 L 111.6509 270.6521 L 112.0762 270.5168 L 112.5014 270.3812 L 112.9265 270.2455 L 113.3516 270.1096 L 113.7766 269.9734 L 114.2016 269.8371 L 114.6264 269.7006 L 115.0513 269.5639 L 115.4760 269.4270 L 115.9007 269.2899 L 116.3254 269.1526 L 116.7500 269.0152 L 117.1745 268.8775 L 117.5989 268.7396 L 118.0233 268.6015 L 118.4476 268.4633 L 118.8719 268.3248 L 119.2961 268.1862 L 119.7202 268.0473 L 120.1443 267.9083 L 120.5683 267.7691 L 120.9922 267.6296 L 121.4161 267.4900 L 121.8399 267.3502 L 122.2637 267.2102 L 122.6874 267.0700 L 123.1110 266.9296 L 123.5345 266.7890 L 123.9580 266.6482 L 124.3815 266.5072 L 124.8048 266.3660 L 125.2281 266.2246 L 125.6513 266.0830 L 126.0745 265.9413 L 126.4976 265.7993 L 126.9206 265.6571 L 127.3436 265.5147 L 127.7665 265.3722 L 128.1893 265.2294 L 128.6121 265.0865 L 129.0348 264.9433 L 129.4574 264.8000 L 129.8800 264.6564 L 130.3025 264.5127 L 130.7249 264.3687 L 131.1473 264.2246 L 131.5696 264.0802 L 131.9918 263.9357 L 132.4140 263.7910 L 132.8360 263.6461 L 133.2581 263.5009 L 133.6800 263.3556 L 134.1019 263.2101 L 134.5237 263.0644 L 134.9455 262.9185 L 135.3672 262.7723 L 135.7888 262.6260 L 136.2103 262.4795 L 136.6318 262.3328 L 137.0532 262.1859 L 137.4746 262.0388 L 137.8958 261.8915 L 138.3170 261.7440 L 138.7382 261.5963 L 139.1592 261.4484 L 139.5802 261.3003 L 140.0012 261.1520 L 140.4220 261.0036 L 140.8428 260.8549 L 141.2635 260.7060 L 141.6842 260.5569 L 142.1047 260.4076 L 142.5252 260.2581 L 142.9457 260.1085 L 143.3660 259.9586 L 143.7863 259.8085 L 144.2065 259.6582 L 144.6267 259.5078 L 145.0468 259.3571 L 145.4668 259.2062 L 145.8867 259.0552 L 146.3066 258.9039 L 146.7264 258.7524 L 147.1461 258.6008 L 147.5657 258.4489 L 147.9853 258.2968 L 148.4048 258.1446 L 148.8242 257.9921 L 149.2436 257.8395 L 149.6629 257.6866 L 150.0821 257.5336 L 150.5012 257.3803 L 150.5976 257.4458 L 150.2903 257.7694 L 149.9830 258.0930 L 149.6757 258.4166 L 149.3683 258.7402 L 149.0609 259.0637 L 148.7535 259.3872 L 148.4460 259.7107 L 148.1385 260.0341 L 147.8309 260.3575 L 147.5233 260.6808 L 147.2156 261.0041 L 146.9079 261.3273 L 146.6001 261.6505 L 146.2923 261.9736 L 145.9844 262.2966 L 145.6764 262.6196 L 145.3683 262.9425 L 145.0602 263.2654 L 144.7520 263.5881 L 144.4437 263.9108 L 144.1354 264.2335 L 143.8269 264.5560 L 143.5184 264.8784 L 143.2098 265.2008 L 142.9010 265.5230 L 142.5922 265.8452 L 142.2832 266.1673 L 141.9742 266.4892 L 141.6650 266.8110 L 141.3557 267.1328 L 141.0463 267.4544 L 140.7368 267.7759 L 140.4271 268.0972 L 140.1173 268.4185 L 139.8074 268.7396 L 139.4973 269.0605 L 139.1871 269.3813 L 138.8767 269.7020 L 138.5661 270.0225 L 138.2554 270.3429 L 137.9446 270.6631 L 137.6335 270.9831 L 137.3223 271.3029 L 137.0109 271.6226 L 136.6993 271.9421 L 136.3875 272.2614 L 136.0755 272.5805 L 135.7633 272.8994 L 135.4509 273.2181 L 135.1383 273.5366 L 134.8254 273.8549 L 134.5123 274.1729 L 134.1990 274.4907 L 133.8855 274.8083 L 133.5717 275.1256 L 133.2576 275.4427 L 132.9433 275.7595 L 132.6287 276.0761 L 132.3139 276.3924 L 131.9987 276.7084 L 131.6833 277.0241 L 131.3676 277.3395 L 131.0516 277.6546 L 130.7352 277.9694 L 130.4186 278.2839 L 130.1016 278.5980 L 129.7843 278.9118 L 129.4666 279.2253 L 129.1486 279.5384 L 128.8303 279.8512 L 128.5115 280.1635 L 128.1924 280.4755 L 128.3856 280.8082 L 128.6876 281.1368 L 128.9898 281.4652 L 129.2921 281.7935 L 129.5945 282.1216 L 129.8971 282.4497 L 130.1999 282.7776 L 130.5027 283.1054 L 130.8057 283.4330 L 131.1089 283.7605 L 131.4122 284.0879 L 131.7156 284.4152 L 132.0192 284.7423 L 132.3229 285.0693 L 132.6267 285.3962 L 132.9307 285.7229 L 133.2348 286.0495 L 133.5391 286.3760 L 133.8435 286.7024 L 134.1480 287.0286 L 134.4527 287.3547 L 134.7575 287.6806 L 135.0625 288.0065 L 135.3676 288.3322 L 135.6728 288.6577 L 135.9782 288.9832 L 136.2837 289.3085 L 136.5894 289.6337 L 136.8952 289.9587 L 137.2011 290.2836 L 137.5072 290.6084 L 137.8134 290.9331 L 138.1197 291.2576 L 138.4262 291.5820 L 138.7328 291.9063 L 139.0396 292.2304 L 139.3465 292.5544 L 139.6535 292.8783 L 139.9607 293.2020 L 140.2680 293.5257 L 140.5755 293.8491 L 140.8831 294.1725 L 141.1908 294.4957 L 141.4987 294.8188 L 141.8067 295.1417 L 142.1148 295.4646 L 142.4231 295.7873 L 142.7315 296.1098 L 143.0401 296.4322 L 143.3488 296.7545 L 143.6576 297.0767 L 143.9666 297.3987 L 144.2757 297.7206 L 144.5849 298.0424 L 144.8943 298.3640 L 145.2038 298.6855 L 145.5135 299.0069 L 145.8233 299.3281 L 146.1332 299.6492 L 146.4433 299.9702 L 146.7535 300.2911 L 147.0638 300.6118 L 147.3743 300.9323 L 147.6850 301.2528 L 147.9957 301.5731 L 148.3066 301.8933 L 148.6176 302.2133 L 148.9288 302.5332 L 149.2401 302.8530 L 149.5515 303.1726 L 149.8631 303.4921 L 150.1748 303.8115 L 150.4867 304.1307 L 150.7987 304.4499 L 151.1108 304.7688 L 151.4231 305.0877 L 151.7355 305.4064 L 152.0480 305.7249 L 152.3607 306.0434 L 152.6735 306.3617 L 152.9864 306.6799 L 153.2995 306.9979 L 153.6127 307.3158 L 153.9261 307.6336 L 154.2396 307.9512 L 154.5532 308.2687 L 154.8670 308.5861 L 155.1809 308.9033 L 155.4949 309.2204 L 155.8091 309.5373 L 156.1234 309.8542 L 156.4378 310.1709 L 156.7524 310.4874 L 157.0671 310.8038 L 157.3820 311.1201 L 157.6969 311.4363 L 158.0121 311.7523 L 158.3273 312.0682 L 158.6427 312.3839 L 158.9582 312.6995 L 159.2739 313.0150 L 159.5897 313.3303 L 159.9056 313.6455 L 160.2217 313.9606 L 160.5379 314.2755 L 160.8543 314.5903 L 161.1707 314.9050 L 161.4874 315.2195 L 161.8041 315.5339 L 162.1210 315.8481 L 162.4380 316.1623 L 162.7551 316.4762 L 163.0724 316.7901 L 163.3899 317.1038 L 163.7074 317.4173 L 164.0251 317.7308 L 164.3429 318.0441 L 164.6609 318.3572 L 164.9790 318.6702 L 165.2972 318.9831 L 165.6156 319.2959 L 165.9341 319.6085 L 166.2527 319.9210 L 166.5715 320.2333 L 166.8904 320.5455 L 167.2094 320.8576 L 167.5286 321.1695 L 167.8479 321.4813 L 168.1673 321.7929 L 168.4869 322.1044 L 168.8066 322.4158 L 169.1265 322.7270 L 169.4464 323.0381 L 169.7665 323.3491 L 170.0868 323.6599 L 170.4072 323.9706 L 170.7277 324.2812 L 171.0483 324.5916 L 171.3691 324.9018 L 171.6900 325.2120 L 172.0111 325.5220 L 172.3322 325.8318 L 172.6536 326.1415 L 172.9750 326.4511 L 173.2966 326.7605 L 173.6183 327.0698 L 173.9401 327.3790 L 174.2621 327.6880 L 174.5842 327.9969 L 174.9065 328.3057 L 175.2289 328.6143 L 175.5514 328.9227 L 175.8740 329.2311 L 176.1968 329.5392 L 176.5197 329.8473 L 176.8428 330.1552 L 177.1660 330.4630 L 177.4893 330.7706 L 177.8127 331.0781 L 178.1363 331.3854 L 178.4600 331.6927 L 178.7838 331.9997 L 179.1078 332.3067 L 179.4319 332.6134 L 179.7562 332.9201 L 180.0805 333.2266 L 180.4050 333.5330 L 180.7297 333.8392 L 181.0545 334.1453 L 181.3794 334.4512 L 181.7044 334.7570 L 182.0296 335.0627 L 182.3549 335.3682 L 182.6803 335.6736 L 183.0059 335.9789 L 183.3316 336.2840 L 183.6574 336.5889 L 183.9833 336.8938 L 184.3094 337.1984 L 184.6357 337.5030 L 184.9620 337.8074 L 185.2885 338.1116 L 185.6151 338.4158 L 185.9419 338.7197 L 186.2688 339.0236 L 186.5958 339.3273 L 186.9229 339.6308 L 187.2502 339.9342 L 187.5776 340.2375 L 187.9051 340.5406 L 188.2328 340.8436 L 188.5606 341.1464 L 188.8886 341.4491 L 189.2166 341.7517 L 189.5448 342.0541 L 189.8731 342.3564 L 190.2016 342.6585 L 190.5302 342.9605 L 190.8589 343.2623 L 191.1878 343.5640 L 191.5167 343.8656 L 191.9018 343.7158 L 192.2944 343.5037 L 192.6870 343.2914 L 193.0794 343.0790 L 193.4718 342.8663 L 193.8641 342.6535 L 194.2562 342.4404 L 194.6483 342.2272 L 195.0402 342.0138 L 195.4321 341.8003 L 195.8238 341.5865 L 196.2155 341.3725 L 196.6071 341.1584 L 196.9985 340.9441 L 197.3899 340.7296 L 197.7811 340.5149 L 198.1723 340.3001 L 198.5633 340.0850 L 198.9543 339.8698 L 199.3451 339.6544 L 199.7359 339.4388 L 200.1266 339.2230 L 200.5171 339.0071 L 200.9076 338.7910 L 201.2979 338.5746 L 201.6882 338.3581 L 202.0783 338.1414 L 202.4683 337.9246 L 202.8583 337.7075 L 203.2481 337.4903 L 203.6379 337.2729 L 204.0275 337.0553 L 204.4170 336.8375 L 204.8065 336.6196 L 205.1958 336.4014 L 205.5851 336.1831 L 205.9742 335.9646 L 206.3632 335.7459 L 206.7521 335.5270 L 207.1410 335.3080 L 207.5297 335.0888 L 207.9183 334.8693 L 208.3068 334.6498 L 208.6952 334.4300 L 209.0836 334.2100 L 209.4718 333.9899 L 209.8599 333.7696 L 210.2479 333.5491 L 210.6358 333.3284 L 211.0236 333.1075 L 211.4113 332.8865 L 211.7989 332.6653 L 212.1864 332.4439 L 212.5737 332.2223 L 212.9610 332.0005 L 213.3482 331.7786 L 213.7353 331.5565 L 214.1223 331.3342 L 214.5091 331.1117 L 214.8959 330.8891 L 215.2826 330.6662 L 215.6691 330.4432 L 216.0556 330.2200 L 216.4419 329.9966 L 216.8282 329.7731 L 217.2143 329.5493 L 217.6004 329.3254 L 217.9863 329.1013 L 218.3722 328.8770 L 218.7579 328.6526 L 219.1435 328.4280 L 219.5290 328.2031 L 219.9145 327.9782 L 220.2998 327.7530 L 220.6850 327.5276 L 221.0701 327.3021 L 221.4551 327.0764 L 221.8400 326.8505 L 222.2248 326.6245 L 222.6094 326.3982 L 222.9940 326.1718 L 223.3785 325.9452 L 223.7629 325.7184 L 224.1471 325.4915 L 224.5313 325.2644 L 224.9154 325.0370 L 225.2993 324.8096 L 225.6831 324.5819 L 226.0669 324.3541 L 226.4505 324.1260 L 226.8340 323.8978 L 227.2175 323.6695 L 227.6008 323.4409 L 227.9840 323.2122 L 228.3671 322.9833 L 228.7501 322.7542 L 229.1330 322.5249 L 229.5158 322.2955 L 229.8985 322.0659 L 230.2810 321.8361 L 230.6635 321.6061 L 231.0459 321.3760 L 231.4281 321.1457 L 231.8103 320.9152 L 232.1923 320.6845 L 232.5743 320.4537 L 232.9561 320.2226 L 233.3378 319.9914 L 233.7194 319.7601 L 234.1009 319.5285 L 234.4823 319.2968 L 234.8636 319.0649 L 235.2448 318.8328 L 235.6259 318.6005 L 236.0069 318.3681 L 236.3878 318.1355 L 236.7685 317.9027 L 237.1492 317.6698 L 237.5297 317.4366 L 237.9102 317.2033 L 238.2905 316.9698 L 238.6707 316.7362 L 239.0508 316.5024 L 239.4308 316.2683 L 239.8107 316.0342 L 240.1905 315.7998 L 240.5702 315.5653 L 240.9498 315.3306 L 241.3293 315.0957 L 241.7086 314.8606 L 242.0879 314.6254 L 242.4670 314.3900 L 242.8461 314.1544 L 243.2250 313.9187 L 243.6038 313.6827 L 243.9825 313.4466 L 244.3611 313.2104 L 244.7396 312.9739 L 245.1180 312.7373 L 245.4963 312.5005 L 245.8745 312.2635 L 246.2525 312.0264 L 246.6305 311.7891 L 247.0083 311.5516 L 247.3861 311.3139 L 247.7637 311.0761 L 248.1412 310.8381 L 248.5186 310.5999 L 248.8959 310.3615 L 249.2731 310.1230 L 249.6502 309.8843 L 250.0271 309.6454 L 250.4040 309.4064 L 250.7808 309.1672 L 251.1574 308.9278 L 251.5339 308.6882 L 251.9103 308.4485 L 252.2867 308.2085 L 252.6629 307.9685 L 253.0390 307.7282 L 253.4149 307.4878 L 253.7908 307.2472 L 254.1666 307.0064 L 254.5422 306.7655 L 254.9178 306.5244 L 255.2932 306.2831 L 255.6685 306.0416 L 256.0437 305.8000 L 256.4188 305.5582 L 256.7938 305.3162 L 257.1687 305.0741 L 257.5096 304.8443 L 257.0781 304.9582 L 256.6450 305.0660 L 256.2105 305.1676 L 255.7745 305.2627 L 255.3371 305.3514 L 254.8984 305.4334 L 254.4585 305.5087 L 254.0175 305.5772 L 253.5755 305.6388 L 253.1326 305.6934 L 252.6889 305.7408 L 252.2444 305.7812 L 251.7994 305.8143 L 251.3538 305.8401 L 250.9079 305.8586 L 250.4618 305.8699 L 250.0155 305.8737 L 249.5693 305.8702 L 249.1231 305.8593 L 248.6772 305.8412 L 248.2317 305.8157 L 247.7866 305.7829 L 247.3421 305.7429 L 246.8984 305.6958 L 246.4554 305.6416 L 246.0133 305.5803 L 245.5723 305.5121 L 245.1324 305.4372 L 244.6936 305.3554 L 244.2562 305.2671 L 243.8201 305.1722 L 243.3855 305.0710 L 242.9523 304.9635 L 242.5207 304.8499 L 242.8233 305.0625 L 243.1981 305.3047 L 243.5731 305.5467 L 243.9482 305.7885 L 244.3234 306.0301 L 244.6987 306.2716 L 245.0742 306.5129 L 245.4497 306.7540 L 245.8253 306.9949 L 246.2011 307.2357 L 246.5770 307.4763 L 246.9529 307.7168 L 247.3290 307.9570 L 247.7052 308.1971 L 248.0815 308.4370 L 248.4579 308.6768 L 248.8345 308.9163 L 249.2111 309.1557 L 249.5879 309.3950 L 249.9647 309.6340 L 250.3417 309.8729 L 250.7187 310.1116 L 251.0959 310.3502 L 251.4732 310.5885 L 251.8506 310.8267 L 252.2281 311.0647 L 252.6058 311.3026 L 252.9835 311.5402 L 253.3613 311.7777 L 253.7393 312.0151 L 254.1173 312.2522 L 254.4955 312.4892 L 254.8738 312.7260 L 255.2521 312.9626 L 255.6306 313.1991 L 256.0092 313.4354 L 256.3879 313.6715 L 256.7668 313.9074 L 257.1457 314.1432 L 257.5247 314.3788 L 257.9039 314.6142 L 258.2831 314.8494 L 258.6625 315.0845 L 259.0419 315.3194 L 259.4215 315.5541 L 259.8012 315.7886 L 260.1810 316.0230 L 260.5609 316.2572 L 260.9409 316.4912 L 261.3210 316.7250 L 261.7012 316.9587 L 262.0815 317.1922 L 262.4620 317.4255 L 262.8425 317.6587 L 263.2232 317.8916 L 263.6039 318.1244 L 263.9848 318.3570 L 264.3657 318.5895 L 264.7468 318.8217 L 265.1280 319.0538 L 265.5093 319.2857 L 265.8907 319.5175 L 266.2722 319.7490 L 266.6538 319.9804 L 267.0355 320.2116 L 267.4174 320.4427 L 267.7993 320.6735 L 268.1813 320.9042 L 268.5635 321.1347 L 268.9457 321.3650 L 269.3281 321.5952 L 269.7105 321.8252 L 270.0931 322.0550 L 270.4758 322.2846 L 270.8586 322.5140 L 271.2415 322.7433 L 271.6245 322.9724 L 272.0076 323.2013 L 272.3908 323.4300 L 272.7741 323.6586 L 273.1575 323.8870 L 273.5410 324.1152 L 273.9246 324.3432 L 274.3084 324.5710 L 274.6922 324.7987 L 275.0762 325.0262 L 275.4602 325.2535 L 275.8444 325.4807 L 276.2286 325.7076 L 276.6130 325.9344 L 276.9975 326.1610 L 277.3820 326.3874 L 277.7667 326.6137 L 278.1515 326.8398 L 278.5364 327.0656 L 278.9214 327.2914 L 279.3065 327.5169 L 279.6917 327.7422 L 280.0770 327.9674 L 280.4624 328.1924 L 280.8479 328.4172 L 281.2335 328.6419 L 281.6193 328.8663 L 282.0051 329.0906 L 282.3910 329.3147 L 282.7771 329.5387 L 283.1632 329.7624 L 283.5495 329.9860 L 283.9358 330.2094 L 284.3223 330.4326 L 284.7088 330.6556 L 285.0955 330.8784 L 285.4822 331.1011 L 285.8691 331.3236 L 286.2561 331.5459 L 286.6431 331.7680 L 287.0303 331.9900 L 287.4176 332.2117 L 287.8050 332.4333 L 288.1925 332.6547 L 288.5801 332.8760 L 288.9678 333.0970 L 289.3556 333.3179 L 289.7435 333.5386 L 290.1315 333.7591 L 290.5196 333.9794 L 290.9078 334.1995 L 291.2961 334.4195 L 291.6845 334.6393 L 292.0730 334.8589 L 292.4616 335.0783 L 292.8503 335.2975 L 293.2391 335.5166 L 293.6281 335.7355 L 294.0171 335.9542 L 294.4062 336.1727 L 294.7954 336.3910 L 295.1848 336.6092 L 295.5742 336.8271 L 295.9637 337.0449 L 296.3534 337.2625 L 296.7431 337.4799 L 297.1329 337.6972 L 297.5229 337.9142 L 297.9129 338.1311 L 298.3031 338.3478 L 298.6933 338.5643 L 299.0837 338.7806 L 299.4741 338.9968 L 299.8646 339.2128 L 300.2553 339.4285 L 300.6460 339.6441 L 301.0369 339.8596 L 301.4278 340.0748 L 301.8189 340.2898 L 302.2100 340.5047 L 302.6013 340.7194 L 302.9926 340.9339 L 303.3841 341.1482 L 303.7756 341.3623 L 304.1673 341.5763 L 304.5591 341.7901 L 304.9509 342.0037 L 305.3429 342.2171 L 305.7349 342.4303 L 306.1271 342.6433 L 306.5193 342.8562 L 306.9117 343.0688 L 307.3041 343.2813 L 307.6967 343.4936 L 308.0893 343.7057 L 308.4774 343.8800 L 308.8064 343.5784 L 309.1352 343.2767 L 309.4640 342.9749 L 309.7926 342.6729 L 310.1210 342.3708 L 310.4494 342.0685 L 310.7776 341.7661 L 311.1056 341.4636 L 311.4336 341.1609 L 311.7614 340.8580 L 312.0891 340.5551 L 312.4166 340.2519 L 312.7440 339.9487 L 313.0713 339.6453 L 313.3985 339.3417 L 313.7255 339.0380 L 314.0524 338.7342 L 314.3791 338.4303 L 314.7057 338.1261 L 315.0322 337.8219 L 315.3586 337.5175 L 315.6848 337.2130 L 316.0109 336.9083 L 316.3369 336.6035 L 316.6627 336.2985 L 316.9884 335.9934 L 317.3140 335.6882 L 317.6394 335.3828 L 317.9648 335.0773 L 318.2899 334.7716 L 318.6150 334.4658 L 318.9399 334.1599 L 319.2647 333.8538 L 319.5893 333.5476 L 319.9138 333.2412 L 320.2382 332.9347 L 320.5624 332.6281 L 320.8866 332.3213 L 321.2105 332.0144 L 321.5344 331.7073 L 321.8581 331.4001 L 322.1817 331.0927 L 322.5051 330.7853 L 322.8285 330.4776 L 323.1516 330.1699 L 323.4747 329.8620 L 323.7976 329.5539 L 324.1204 329.2457 L 324.4431 328.9374 L 324.7656 328.6290 L 325.0880 328.3204 L 325.4102 328.0116 L 325.7323 327.7028 L 326.0543 327.3937 L 326.3762 327.0846 L 326.6979 326.7753 L 327.0195 326.4659 L 327.3409 326.1563 L 327.6623 325.8466 L 327.9835 325.5367 L 328.3045 325.2267 L 328.6254 324.9166 L 328.9462 324.6064 L 329.2669 324.2960 L 329.5874 323.9854 L 329.9078 323.6747 L 330.2280 323.3639 L 330.5481 323.0530 L 330.8681 322.7419 L 331.1880 322.4306 L 331.5077 322.1193 L 331.8273 321.8078 L 332.1467 321.4961 L 332.4660 321.1843 L 332.7852 320.8724 L 333.1042 320.5604 L 333.4231 320.2482 L 333.7419 319.9359 L 334.0606 319.6234 L 334.3791 319.3108 L 334.6974 318.9980 L 335.0157 318.6852 L 335.3338 318.3721 L 335.6517 318.0590 L 335.9696 317.7457 L 336.2873 317.4323 L 336.6048 317.1187 L 336.9223 316.8050 L 337.2396 316.4912 L 337.5567 316.1772 L 337.8737 315.8631 L 338.1906 315.5489 L 338.5074 315.2345 L 338.8240 314.9200 L 339.1405 314.6053 L 339.4568 314.2905 L 339.7730 313.9756 L 340.0891 313.6605 L 340.4051 313.3454 L 340.7209 313.0300 L 341.0365 312.7146 L 341.3521 312.3990 L 341.6675 312.0832 L 341.9827 311.7673 L 342.2979 311.4513 L 342.6128 311.1352 L 342.9277 310.8189 L 343.2424 310.5025 L 343.5570 310.1860 L 343.8715 309.8693 L 344.1858 309.5524 L 344.4999 309.2355 L 344.8140 308.9184 L 345.1279 308.6012 L 345.4417 308.2838 L 345.7553 307.9663 L 346.0688 307.6487 L 346.3822 307.3309 L 346.6954 307.0131 L 347.0085 306.6950 L 347.3214 306.3769 L 347.6342 306.0586 L 347.9469 305.7401 L 348.2595 305.4216 L 348.5719 305.1029 L 348.8841 304.7840 L 349.1963 304.4651 L 349.5083 304.1460 L 349.8201 303.8267 L 350.1318 303.5074 L 350.4434 303.1879 L 350.7549 302.8682 L 351.0662 302.5484 L 351.3774 302.2285 L 351.6884 301.9085 L 351.9993 301.5883 L 352.3101 301.2680 L 352.6207 300.9476 L 352.9312 300.6270 L 353.2415 300.3063 L 353.5517 299.9855 L 353.8618 299.6645 L 354.1718 299.3434 L 354.4816 299.0222 L 354.7912 298.7009 L 355.1008 298.3794 L 355.4101 298.0577 L 355.7194 297.7360 L 356.0285 297.4141 L 356.3375 297.0920 L 356.6463 296.7699 L 356.9550 296.4476 L 357.2636 296.1252 L 357.5720 295.8026 L 357.8803 295.4799 L 358.1885 295.1571 L 358.4965 294.8342 L 358.8043 294.5111 L 359.1121 294.1879 L 359.4197 293.8646 L 359.7271 293.5411 L 360.0345 293.2175 L 360.3416 292.8937 L 360.6487 292.5699 L 360.9556 292.2459 L 361.2624 291.9217 L 361.5690 291.5975 L 361.8755 291.2731 L 362.1818 290.9486 L 362.4881 290.6239 L 362.7941 290.2991 L 363.1001 289.9742 L 363.4059 289.6492 L 363.7115 289.3240 L 364.0171 288.9987 L 364.3224 288.6733 L 364.6277 288.3477 L 364.9328 288.0220 L 365.2377 287.6962 L 365.5426 287.3702 L 365.8473 287.0441 L 366.1518 286.7179 L 366.4562 286.3916 L 366.7605 286.0651 L 367.0646 285.7385 L 367.3686 285.4117 L 367.6725 285.0849 L 367.9762 284.7579 L 368.2798 284.4308 L 368.5832 284.1035 L 368.8865 283.7761 L 369.1896 283.4486 L 369.4927 283.1210 L 369.7955 282.7932 L 370.0983 282.4653 L 370.4009 282.1373 L 370.7033 281.8091 L 371.0056 281.4808 L 371.3078 281.1524 L 371.6099 280.8239 L 371.8326 280.4904 L 371.5135 280.1784 L 371.1947 279.8661 L 370.8764 279.5533 L 370.5583 279.2402 L 370.2407 278.9268 L 369.9233 278.6130 L 369.6063 278.2989 L 369.2897 277.9844 L 368.9733 277.6696 L 368.6573 277.3545 L 368.3415 277.0391 L 368.0261 276.7234 L 367.7110 276.4074 L 367.3961 276.0912 L 367.0815 275.7746 L 366.7672 275.4578 L 366.4531 275.1407 L 366.1393 274.8234 L 365.8257 274.5059 L 365.5124 274.1881 L 365.1993 273.8700 L 364.8865 273.5518 L 364.5738 273.2333 L 364.2614 272.9146 L 363.9492 272.5957 L 363.6372 272.2766 L 363.3254 271.9573 L 363.0138 271.6379 L 362.7024 271.3182 L 362.3911 270.9983 L 362.0801 270.6783 L 361.7692 270.3581 L 361.4585 270.0378 L 361.1479 269.7173 L 360.8375 269.3966 L 360.5273 269.0758 L 360.2172 268.7549 L 359.9073 268.4338 L 359.5975 268.1126 L 359.2878 267.7912 L 358.9782 267.4697 L 358.6688 267.1481 L 358.3595 266.8264 L 358.0504 266.5045 L 357.7413 266.1826 L 357.4324 265.8605 L 357.1235 265.5384 L 356.8148 265.2161 L 356.5061 264.8938 L 356.1976 264.5714 L 355.8891 264.2488 L 355.5808 263.9262 L 355.2725 263.6035 L 354.9643 263.2808 L 354.6562 262.9579 L 354.3481 262.6350 L 354.0401 262.3120 L 353.7322 261.9890 L 353.4244 261.6659 L 353.1166 261.3427 L 352.8089 261.0195 L 352.5012 260.6962 L 352.1936 260.3729 L 351.8860 260.0495 L 351.5785 259.7261 L 351.2710 259.4026 L 350.9636 259.0792 L 350.6562 258.7556 L 350.3488 258.4321 L 350.0415 258.1085 L 349.7342 257.7848 L 349.4269 257.4612 L 349.4886 257.3730 L 349.9077 257.5263 L 350.3269 257.6793 L 350.7462 257.8322 L 351.1656 257.9849 L 351.5850 258.1373 L 352.0045 258.2896 L 352.4241 258.4417 L 352.8437 258.5935 L 353.2634 258.7452 L 353.6832 258.8967 L 354.1031 259.0480 L 354.5230 259.1990 L 354.9430 259.3499 L 355.3631 259.5006 L 355.7833 259.6511 L 356.2035 259.8013 L 356.6238 259.9514 L 357.0441 260.1013 L 357.4645 260.2510 L 357.8850 260.4005 L 358.3056 260.5498 L 358.7263 260.6989 L 359.1470 260.8478 L 359.5677 260.9965 L 359.9886 261.1450 L 360.4095 261.2933 L 360.8305 261.4414 L 361.2516 261.5893 L 361.6727 261.7370 L 362.0939 261.8845 L 362.5152 262.0318 L 362.9365 262.1789 L 363.3579 262.3258 L 363.7794 262.4725 L 364.2009 262.6191 L 364.6225 262.7654 L 365.0442 262.9115 L 365.4660 263.0574 L 365.8878 263.2031 L 366.3097 263.3487 L 366.7316 263.4940 L 367.1537 263.6391 L 367.5757 263.7841 L 367.9979 263.9288 L 368.4201 264.0734 L 368.8424 264.2177 L 369.2648 264.3619 L 369.6872 264.5058 L 370.1097 264.6496 L 370.5323 264.7931 L 370.9549 264.9365 L 371.3776 265.0796 L 371.8003 265.2226 L 372.2232 265.3654 L 372.6461 265.5079 L 373.0690 265.6503 L 373.4921 265.7925 L 373.9152 265.9345 L 374.3383 266.0763 L 374.7615 266.2179 L 375.1848 266.3593 L 375.6082 266.5005 L 376.0316 266.6415 L 376.4551 266.7823 L 376.8786 266.9229 L 377.3023 267.0633 L 377.7259 267.2035 L 378.1497 267.3435 L 378.5735 267.4834 L 378.9974 267.6230 L 379.4213 267.7624 L 379.8453 267.9017 L 380.2694 268.0407 L 380.6935 268.1796 L 381.1177 268.3182 L 381.5420 268.4567 L 381.9663 268.5950 L 382.3907 268.7330 L 382.8151 268.8709 L 383.2396 269.0086 L 383.6642 269.1461 L 384.0888 269.2834 L 384.5135 269.4205 L 384.9383 269.5574 L 385.3631 269.6941 L 385.7880 269.8306 L 386.2130 269.9669 L 386.6380 270.1031 L 387.0630 270.2390 L 387.4882 270.3748 L 387.9134 270.5103 L 388.3386 270.6457 L 388.7640 270.7808 L 389.1893 270.9158 L 389.6148 271.0506 L 390.0403 271.1852 L 390.4658 271.3196 L 390.8915 271.4538 L 391.3172 271.5878 L 391.7429 271.7216 L 392.1687 271.8553 L 392.5946 271.9887 L 393.0205 272.1219 L 393.4465 272.2550 L 393.8725 272.3879 L 394.2986 272.5205 L 394.7248 272.6530 L 395.1510 272.7853 L 395.5773 272.9174 L 396.0036 273.0493 L 396.4300 273.1811 L 396.8565 273.3126 L 397.2830 273.4439 L 397.7096 273.5751 L 398.1362 273.7060 L 398.5629 273.8368 L 398.9897 273.9674 L 399.4165 274.0978 L 399.8433 274.2280 L 400.2702 274.3580 L 400.6972 274.4879 L 401.1243 274.6175 L 401.5514 274.7470 L 401.9785 274.8762 L 402.4057 275.0053 L 402.8330 275.1342 L 403.1569 274.9844 L 403.3967 274.6080 L 403.6363 274.2315 L 403.8758 273.8549 L 404.1150 273.4782 L 404.3542 273.1014 L 404.5932 272.7245 L 404.8320 272.3475 L 405.0707 271.9704 L 405.3092 271.5932 L 405.5475 271.2159 L 405.7857 270.8385 L 406.0238 270.4610 L 406.2616 270.0834 L 406.4994 269.7057 L 406.7369 269.3279 L 406.9743 268.9500 L 407.2116 268.5720 L 407.4487 268.1939 L 407.6856 267.8158 L 407.9224 267.4375 L 408.1590 267.0591 L 408.3955 266.6806 L 408.6318 266.3020 L 408.8679 265.9233 L 409.1039 265.5445 L 409.3397 265.1656 L 409.5754 264.7867 L 409.8109 264.4076 L 410.0463 264.0284 L 410.2814 263.6491 L 410.5165 263.2698 L 410.7514 262.8903 L 410.9861 262.5107 L 411.2206 262.1310 L 411.4550 261.7513 L 411.6893 261.3714 L 411.9234 260.9915 L 412.1573 260.6114 L 412.3911 260.2312 L 412.6247 259.8510 L 412.8581 259.4706 L 413.0914 259.0902 L 413.3246 258.7096 L 413.5575 258.3290 L 413.7904 257.9483 L 414.0230 257.5674 L 414.2555 257.1865 L 414.4878 256.8054 L 414.7200 256.4243 L 414.9520 256.0431 L 415.1839 255.6618 L 415.4156 255.2804 L 415.6472 254.8988 L 415.8785 254.5172 L 416.1098 254.1355 L 416.3408 253.7537 L 416.5717 253.3718 L 416.8025 252.9898 L 417.0331 252.6077 L 417.2635 252.2255 L 417.4938 251.8432 L 417.7239 251.4609 L 417.9538 251.0784 L 418.1836 250.6958 L 418.4133 250.3131 L 418.6427 249.9304 L 418.8720 249.5475 L 419.1012 249.1646 L 419.3302 248.7815 L 419.5590 248.3984 L 419.7877 248.0151 L 420.0162 247.6318 L 420.2446 247.2483 L 420.4728 246.8648 L 420.7008 246.4812 L 420.9287 246.0975 L 421.1564 245.7136 L 421.3839 245.3297 L 421.6113 244.9457 L 421.8385 244.5616 L 422.0656 244.1774 L 422.2925 243.7931 L 422.5193 243.4088 L 422.7459 243.0243 L 422.9723 242.6397 L 423.1986 242.2550 L 423.4247 241.8703 L 423.6506 241.4854 L 423.8764 241.1005 L 424.1020 240.7154 L 424.3275 240.3303 L 424.5528 239.9451 L 424.7780 239.5597 L 425.0030 239.1743 L 425.2278 238.7888 L 425.4524 238.4032 L 425.6769 238.0175 L 425.9013 237.6317 L 426.1255 237.2458 L 426.3495 236.8598 L 426.5733 236.4738 L 426.7970 236.0876 L 427.0206 235.7013 L 427.2440 235.3150 L 427.4672 234.9285 L 427.6902 234.5420 L 427.9131 234.1553 L 428.1358 233.7686 L 428.3584 233.3818 L 428.5808 232.9949 L 428.8031 232.6079 L 429.0252 232.2208 L 429.2471 231.8336 L 429.4688 231.4463 L 429.6904 231.0589 L 429.9119 230.6715 L 430.1332 230.2839 L 430.3543 229.8962 L 430.5752 229.5085 L 430.7960 229.1207 L 431.0166 228.7327 L 431.2371 228.3447 L 431.4574 227.9566 L 431.6776 227.5684 L 431.8975 227.1801 L 432.1174 226.7917 L 432.3370 226.4032 L 432.5565 226.0147 L 432.7759 225.6260 L 432.9950 225.2372 L 433.2140 224.8484 L 433.4329 224.4595 L 433.6516 224.0704 L 433.8701 223.6813 L 434.0885 223.2921 L 434.3067 222.9028 L 434.5247 222.5134 L 434.7426 222.1239 L 434.9603 221.7343 L 435.1778 221.3447 L 435.3952 220.9549 L 435.6124 220.5651 L 435.8295 220.1751 L 436.0464 219.7851 L 436.2631 219.3950 L 436.4797 219.0048 L 436.6961 218.6145 L 436.9124 218.2241 L 437.1284 217.8336 L 437.3444 217.4430 L 437.5601 217.0524 L 437.7757 216.6616 L 437.9911 216.2708 L 438.2064 215.8799 L 438.4215 215.4888 L 438.6365 215.0977 L 438.8512 214.7065 L 439.0659 214.3152 L 439.2803 213.9239 L 439.4946 213.5324 L 439.7087 213.1408 L 439.9227 212.7492 L 440.1365 212.3575 L 440.3501 211.9656 L 440.5636 211.5737 L 440.7769 211.1817 L 440.9900 210.7896 L 441.2030 210.3974 L 441.4158 210.0052 L 441.6285 209.6128 L 441.8410 209.2204 L 442.0533 208.8278 L 442.2655 208.4352 L 442.4775 208.0425 L 442.6893 207.6497 L 442.9010 207.2568 L 443.1125 206.8638 L 443.3238 206.4708 L 443.5350 206.0776 L 443.7460 205.6844 L 443.9569 205.2910 L 444.1676 204.8976 L 444.3781 204.5041 L 444.5885 204.1105 L 444.7986 203.7168 L 445.0087 203.3231 L 445.2185 202.9292 L 445.4282 202.5353 L 445.6378 202.1412 L 445.8472 201.7471 L 446.0564 201.3529 L 446.2654 200.9586 L 446.4743 200.5642 L 446.6830 200.1698 L 446.8915 199.7752 L 447.0999 199.3806 L 447.3082 198.9858 L 447.5162 198.5910 L 447.7241 198.1961 L 447.9318 197.8011 L 448.1394 197.4060 L 448.3468 197.0109 L 448.5540 196.6156 L 448.7611 196.2203 L 448.9680 195.8249 L 449.1747 195.4294 L 449.3813 195.0338 L 449.5877 194.6381 L 449.7939 194.2423 L 450.0000 193.8465 L 449.9146 193.4919 L 449.5894 193.1863 L 449.2640 192.8809 L 448.9384 192.5757 L 448.6127 192.2705 L 448.2869 191.9655 L 447.9610 191.6607 L 447.6349 191.3560 L 447.3087 191.0514 L 446.9824 190.7470 L 446.6559 190.4428 L 446.3293 190.1386 L 446.0025 189.8347 L 445.6756 189.5308 L 445.3486 189.2271 L 445.0215 188.9236 L 444.6942 188.6202 L 444.3668 188.3170 L 444.0392 188.0139 L 443.7115 187.7109 L 443.3837 187.4081 L 443.0557 187.1054 L 442.7276 186.8029 L 442.3994 186.5005 L 442.0710 186.1983 L 441.7425 185.8962 L 441.4138 185.5943 L 441.0851 185.2925 L 440.7561 184.9909 L 440.4271 184.6894 L 440.0979 184.3881 L 439.7686 184.0869 L 439.4391 183.7859 L 439.1095 183.4850 L 438.7798 183.1842 L 438.4499 182.8837 L 438.1199 182.5832 L 437.7898 182.2829 L 437.4595 181.9828 L 437.1291 181.6828 L 436.7985 181.3830 L 436.4678 181.0833 L 436.1370 180.7837 L 435.8061 180.4844 L 435.4750 180.1851 L 435.1437 179.8860 L 434.8124 179.5871 L 434.4808 179.2883 L 434.1492 178.9897 L 433.8174 178.6912 L 433.4855 178.3929 L 433.1534 178.0947 L 432.8213 177.7967 L 432.4889 177.4988 L 432.1565 177.2011 L 431.8239 176.9036 L 431.4911 176.6062 L 431.1582 176.3089 L 430.8252 176.0118 L 430.4921 175.7149 L 430.1588 175.4181 L 429.8254 175.1214 L 429.4918 174.8250 L 429.1581 174.5286 L 428.8243 174.2324 L 428.4903 173.9364 L 428.1562 173.6406 L 427.8219 173.3449 L 427.4875 173.0493 L 427.1530 172.7539 L 426.8184 172.4586 L 426.4836 172.1636 L 426.1486 171.8686 L 425.8135 171.5738 L 425.4783 171.2792 L 425.1430 170.9848 L 424.8075 170.6904 L 424.4719 170.3963 L 424.1361 170.1023 L 423.8002 169.8085 L 423.4642 169.5148 L 423.1280 169.2212 L 422.7917 168.9279 L 422.4553 168.6347 L 422.1187 168.3416 L 421.7820 168.0487 L 421.4451 167.7560 L 421.1082 167.4634 L 420.7710 167.1710 L 420.4338 166.8787 L 420.0964 166.5866 L 419.7588 166.2946 L 419.4212 166.0028 L 419.0833 165.7112 L 418.7454 165.4197 L 418.4073 165.1284 L 418.0691 164.8373 L 417.7307 164.5463 L 417.3922 164.2554 L 417.0536 163.9647 L 416.7148 163.6742 L 416.3759 163.3839 L 416.0369 163.0937 L 415.6977 162.8036 L 415.3584 162.5137 L 415.0189 162.2240 L 414.6793 161.9345 L 414.3396 161.6451 L 413.9997 161.3558 L 413.6597 161.0667 L 413.3196 160.7778 L 412.9793 160.4891 L 412.6389 160.2005 L 412.2984 159.9120 L 411.9577 159.6237 L 411.6169 159.3356 L 411.2759 159.0477 L 410.9348 158.7599 L 410.5936 158.4723 L 410.2523 158.1848 L 409.9108 157.8975 L 409.5691 157.6103 L 409.2274 157.3233 L 408.8855 157.0365 L 408.5434 156.7499 L 408.2012 156.4634 L 407.8589 156.1770 L 407.9809 156.1200 L 408.4148 156.2243 L 408.8487 156.3286 L 409.2826 156.4330 L 409.7165 156.5374 L 410.1504 156.6419 L 410.5843 156.7464 L 411.0181 156.8509 L 411.4520 156.9556 L 411.8858 157.0603 L 412.3196 157.1650 L 412.7534 157.2698 L 413.1872 157.3747 L 413.6210 157.4797 L 414.0547 157.5847 L 414.4884 157.6899 L 414.9221 157.7951 L 415.3558 157.9005 L 415.7894 158.0059 L 416.2231 158.1114 L 416.6567 158.2171 L 417.0902 158.3228 L 417.5238 158.4287 L 417.9573 158.5347 L 418.3908 158.6408 L 418.8242 158.7471 L 419.2576 158.8535 L 419.6910 158.9600 L 420.1243 159.0667 L 420.5576 159.1736 L 420.9909 159.2806 L 421.4241 159.3877 L 421.8573 159.4951 L 422.2904 159.6026 L 422.7235 159.7103 L 423.1566 159.8182 L 423.5896 159.9263 L 424.0225 160.0346 L 424.4554 160.1431 L 424.8882 160.2518 L 425.3210 160.3607 L 425.7537 160.4699 L 426.1864 160.5793 L 426.6190 160.6889 L 427.0515 160.7988 L 427.4840 160.9090 L 427.9164 161.0194 L 428.3488 161.1301 L 428.7810 161.2410 L 429.2132 161.3523 L 429.6453 161.4638 L 430.0774 161.5756 L 430.5093 161.6878 L 430.9412 161.8003 L 431.3730 161.9131 L 431.8047 162.0262 L 432.2363 162.1397 L 432.6678 162.2535 L 433.0993 162.3677 L 433.5306 162.4823 L 433.9618 162.5973 L 434.3929 162.7127 L 434.8239 162.8284 L 435.2548 162.9446 L 435.6856 163.0612 L 436.1162 163.1783 L 436.5468 163.2958 L 436.9772 163.4137 L 437.4075 163.5322 L 437.8376 163.6511 L 438.2676 163.7705 L 438.6975 163.8904" 
        fill="none" 
        stroke="#1565C0" 
        stroke-width="0.8"
        stroke-linecap="round"
        stroke-linejoin="round"/>
</svg>