<?xml version="1.0" encoding="UTF-8"?>
<svg xmlns="http://www.w3.org/2000/svg" 
     width="500.0" height="500.0" 
     viewBox="0 0 500.0 500.0">
  <rect width="100%" height="100%" fill="#ffffff"/>
  <path d="M 114.0281 158.9912 L 114.0244 158.6451 L 114.0133 158.2993 L 113.9948 157.9537 L 113.9690 157.6087 L 113.9358 157.2642 L 113.8953 156.9206 L 113.8475 156.5778 L 113.7924 156.2362 L 113.7302 155.8958 L 113.6607 155.5568 L 113.5841 155.2194 L 113.5005 154.8836 L 113.4098 154.5496 L 113.3122 154.2176 L 113.2078 153.8877 L 113.0965 153.5601 L 112.9785 153.2348 L 112.8539 152.9120 L 112.7226 152.5918 L 112.5850 152.2743 L 112.4409 151.9597 L 112.2905 151.6480 L 112.1340 151.3394 L 111.9713 151.0340 L 111.8026 150.7318 L 111.6281 150.4331 L 111.4477 150.1377 L 111.2616 149.8460 L 111.0700 149.5578 L 110.8729 149.2734 L 110.6704 148.9928 L 110.4627 148.7160 L 110.2499 148.4432 L 110.0320 148.1744 L 109.8091 147.9096 L 109.5815 147.6490 L 109.3492 147.3926 L 109.1123 147.1403 L 108.8709 146.8924 L 108.6251 146.6488 L 108.3751 146.4095 L 108.1210 146.1746 L 107.8628 145.9442 L 107.6008 145.7182 L 107.3349 145.4968 L 107.0653 145.2799 L 106.7921 145.0675 L 106.5154 144.8596 L 106.2353 144.6564 L 105.9519 144.4578 L 105.6654 144.2638 L 105.3758 144.0744 L 105.0832 143.8896 L 104.7877 143.7095 L 104.4894 143.5341 L 104.1885 143.3633 L 103.8849 143.1971 L 103.5789 143.0357 L 103.2704 142.8788 L 102.9596 142.7266 L 102.6466 142.5791 L 102.3315 142.4362 L 102.0143 142.2979 L 101.6951 142.1642 L 101.3740 142.0352 L 101.0511 141.9107 L 100.7265 141.7909 L 100.4002 141.6756 L 100.0724 141.5648 L 99.7430 141.4587 L 99.4123 141.3570 L 99.0801 141.2598 L 98.7467 141.1671 L 98.4121 141.0789 L 98.0764 140.9951 L 97.7395 140.9158 L 97.4017 140.8409 L 97.0629 140.7703 L 96.7233 140.7042 L 96.3828 140.6423 L 96.0416 140.5848 L 95.6997 140.5316 L 95.3571 140.4826 L 95.0139 140.4379 L 94.6703 140.3974 L 94.3261 140.3611 L 93.9816 140.3289 L 93.6367 140.3010 L 93.2915 140.2771 L 92.9460 140.2573 L 92.6003 140.2416 L 92.2545 140.2299 L 91.9085 140.2222 L 91.5625 140.2185 L 91.2164 140.2188 L 90.8704 140.2230 L 90.5245 140.2311 L 90.1786 140.2431 L 89.8329 140.2589 L 89.4875 140.2786 L 89.1422 140.3020 L 88.7972 140.3292 L 88.4526 140.3602 L 88.1083 140.3948 L 87.7644 140.4331 L 87.4209 140.4751 L 87.0778 140.5208 L 86.7353 140.5700 L 86.3933 140.6228 L 86.0519 140.6791 L 85.7111 140.7389 L 85.3709 140.8023 L 85.0313 140.8691 L 84.6925 140.9393 L 84.3544 141.0130 L 84.0170 141.0900 L 83.6804 141.1704 L 83.3447 141.2541 L 83.0097 141.3411 L 82.6757 141.4313 L 82.3425 141.5249 L 82.0103 141.6216 L 81.6790 141.7215 L 81.3486 141.8246 L 81.0193 141.9309 L 80.6910 142.0402 L 80.3637 142.1527 L 80.0375 142.2682 L 79.7124 142.3867 L 79.3884 142.5083 L 79.0656 142.6328 L 78.7439 142.7603 L 78.4233 142.8907 L 78.1040 143.0241 L 77.7859 143.1603 L 77.4690 143.2994 L 77.1534 143.4413 L 76.8391 143.5860 L 76.5261 143.7335 L 76.2144 143.8838 L 75.9040 144.0368 L 75.5950 144.1925 L 75.2873 144.3509 L 74.9810 144.5120 L 74.6761 144.6757 L 74.3727 144.8420 L 74.0707 145.0109 L 73.7701 145.1824 L 73.4710 145.3564 L 73.1734 145.5330 L 72.8772 145.7120 L 72.5826 145.8935 L 72.2895 146.0775 L 71.9980 146.2639 L 71.7080 146.4527 L 71.4196 146.6439 L 71.1327 146.8375 L 70.8475 147.0334 L 70.5638 147.2316 L 70.2818 147.4321 L 70.0014 147.6349 L 69.7226 147.8399 L 69.4455 148.0472 L 69.1701 148.2566 L 68.8963 148.4683 L 68.6242 148.6821 L 68.3539 148.8981 L 68.0852 149.1162 L 67.8182 149.3364 L 67.5530 149.5587 L 67.2896 149.7830 L 67.0278 150.0094 L 66.7679 150.2378 L 66.5097 150.4682 L 66.2533 150.7006 L 65.9987 150.9350 L 65.7458 151.1712 L 65.4948 151.4094 L 65.2456 151.6495 L 64.9983 151.8915 L 64.7527 152.1353 L 64.5090 152.3810 L 64.2672 152.6285 L 64.0272 152.8778 L 63.7890 153.1289 L 63.5528 153.3817 L 63.3184 153.6363 L 63.0859 153.8926 L 62.8553 154.1506 L 62.6266 154.4103 L 62.3998 154.6717 L 62.1749 154.9347 L 61.9520 155.1994 L 61.7310 155.4656 L 61.5119 155.7335 L 61.2947 156.0029 L 61.0795 156.2739 L 60.8662 156.5464 L 60.6549 156.8205 L 60.4456 157.0960 L 60.2382 157.3730 L 60.0328 157.6515 L 59.8294 157.9315 L 59.6280 158.2129 L 59.4286 158.4957 L 59.2311 158.7799 L 59.0357 159.0654 L 58.8422 159.3524 L 58.6508 159.6406 L 58.4614 159.9302 L 58.2740 160.2211 L 58.0886 160.5133 L 57.9053 160.8068 L 57.7240 161.1016 L 57.5447 161.3976 L 57.3675 161.6948 L 57.1923 161.9932 L 57.0191 162.2928 L 56.8480 162.5936 L 56.6790 162.8955 L 56.5120 163.1986 L 56.3471 163.5029 L 56.1842 163.8082 L 56.0235 164.1146 L 55.8647 164.4221 L 55.7081 164.7307 L 55.5535 165.0403 L 55.4011 165.3509 L 55.2507 165.6626 L 55.1024 165.9752 L 54.9561 166.2889 L 54.8120 166.6035 L 54.6700 166.9190 L 54.5300 167.2355 L 54.3922 167.5529 L 54.2565 167.8712 L 54.1228 168.1904 L 53.9913 168.5105 L 53.8619 168.8314 L 53.7346 169.1532 L 53.6094 169.4758 L 53.4863 169.7992 L 53.3654 170.1235 L 53.2465 170.4485 L 53.1298 170.7742 L 53.0152 171.1007 L 52.9027 171.4280 L 52.7924 171.7560 L 52.6842 172.0847 L 52.5781 172.4140 L 52.4741 172.7441 L 52.3723 173.0748 L 52.2725 173.4062 L 52.1750 173.7382 L 52.0795 174.0708 L 51.9862 174.4041 L 51.8951 174.7379 L 51.8060 175.0723 L 51.7191 175.4072 L 51.6344 175.7427 L 51.5518 176.0788 L 51.4713 176.4153 L 51.3930 176.7524 L 51.3168 177.0899 L 51.2427 177.4280 L 51.1708 177.7665 L 51.1010 178.1054 L 51.0334 178.4448 L 50.9679 178.7846 L 50.9046 179.1248 L 50.8434 179.4654 L 50.7844 179.8063 L 50.7275 180.1477 L 50.6727 180.4894 L 50.6201 180.8314 L 50.5696 181.1737 L 50.5213 181.5164 L 50.4751 181.8593 L 50.4311 182.2026 L 50.3892 182.5461 L 50.3495 182.8898 L 50.3119 183.2338 L 50.2764 183.5780 L 50.2431 183.9225 L 50.2119 184.2671 L 50.1829 184.6119 L 50.1560 184.9569 L 50.1312 185.3021 L 50.1086 185.6474 L 50.0881 185.9928 L 50.0698 186.3384 L 50.0536 186.6841 L 50.0395 187.0298 L 50.0276 187.3757 L 50.0178 187.7216 L 50.0102 188.0675 L 50.0046 188.4135 L 50.0013 188.7596 L 50.0000 189.1056 L 50.0009 189.4516 L 50.0039 189.7977 L 50.0090 190.1437 L 50.0162 190.4897 L 50.0256 190.8356 L 50.0371 191.1814 L 50.0507 191.5272 L 50.0665 191.8729 L 50.0843 192.2185 L 50.1043 192.5639 L 50.1264 192.9093 L 50.1506 193.2545 L 50.1769 193.5995 L 50.2053 193.9444 L 50.2359 194.2891 L 50.2685 194.6336 L 50.3033 194.9779 L 50.3401 195.3220 L 50.3791 195.6658 L 50.4201 196.0094 L 50.4633 196.3528 L 50.5085 196.6958 L 50.5559 197.0386 L 50.6053 197.3811 L 50.6568 197.7233 L 50.7104 198.0652 L 50.7661 198.4067 L 50.8239 198.7479 L 50.8837 199.0887 L 50.9457 199.4292 L 51.0096 199.7693 L 51.0757 200.1090 L 51.1439 200.4482 L 51.2141 200.7871 L 51.2863 201.1255 L 51.3607 201.4635 L 51.4371 201.8010 L 51.5155 202.1380 L 51.5960 202.4745 L 51.6786 202.8106 L 51.7632 203.1461 L 51.8498 203.4812 L 51.9385 203.8157 L 52.0292 204.1496 L 52.1220 204.4830 L 52.2168 204.8158 L 52.3136 205.1480 L 52.4125 205.4796 L 52.5133 205.8107 L 52.6162 206.1411 L 52.7211 206.4708 L 52.8281 206.7999 L 52.9370 207.1284 L 53.0479 207.4562 L 53.1608 207.7833 L 53.2758 208.1097 L 53.3927 208.4354 L 53.5116 208.7603 L 53.6325 209.0846 L 53.7554 209.4080 L 53.8803 209.7308 L 54.0072 210.0527 L 54.1360 210.3739 L 54.2668 210.6943 L 54.3995 211.0138 L 54.5342 211.3326 L 54.6709 211.6505 L 54.8095 211.9676 L 54.9501 212.2838 L 55.0926 212.5991 L 55.2371 212.9136 L 55.3835 213.2271 L 55.5318 213.5398 L 55.6820 213.8515 L 55.8342 214.1623 L 55.9883 214.4721 L 56.1443 214.7810 L 56.3022 215.0890 L 56.4620 215.3959 L 56.6237 215.7018 L 56.7873 216.0068 L 56.9528 216.3107 L 57.1202 216.6135 L 57.2894 216.9154 L 57.4605 217.2161 L 57.6335 217.5158 L 57.8084 217.8145 L 57.9851 218.1120 L 58.1637 218.4084 L 58.3441 218.7037 L 58.5263 218.9978 L 58.7104 219.2909 L 58.8964 219.5827 L 59.0841 219.8734 L 59.2737 220.1629 L 59.4651 220.4512 L 59.6583 220.7383 L 59.8533 221.0242 L 60.0501 221.3088 L 60.2487 221.5922 L 60.4490 221.8743 L 60.6512 222.1552 L 60.8551 222.4347 L 61.0608 222.7130 L 61.2683 222.9900 L 61.4775 223.2656 L 61.6884 223.5399 L 61.9011 223.8129 L 62.1156 224.0845 L 62.3318 224.3547 L 62.5496 224.6235 L 62.7692 224.8910 L 62.9906 225.1570 L 63.2136 225.4216 L 63.4383 225.6847 L 63.6647 225.9464 L 63.8928 226.2067 L 64.1225 226.4655 L 64.3539 226.7227 L 64.5870 226.9785 L 64.8218 227.2328 L 65.0581 227.4855 L 65.2962 227.7367 L 65.5358 227.9863 L 65.7771 228.2344 L 66.0200 228.4809 L 66.2644 228.7258 L 66.5105 228.9690 L 66.7582 229.2107 L 67.0075 229.4507 L 67.2583 229.6891 L 67.5107 229.9259 L 67.7647 230.1609 L 68.0202 230.3943 L 68.2772 230.6260 L 68.5358 230.8559 L 68.7959 231.0842 L 69.0576 231.3106 L 69.3207 231.5354 L 69.5853 231.7584 L 69.8514 231.9796 L 70.1190 232.1990 L 70.3881 232.4166 L 70.6586 232.6324 L 70.9306 232.8463 L 71.2040 233.0584 L 71.4789 233.2687 L 71.7551 233.4771 L 72.0328 233.6835 L 72.3119 233.8881 L 72.5924 234.0908 L 72.8742 234.2916 L 73.1575 234.4904 L 73.4421 234.6872 L 73.7280 234.8821 L 74.0153 235.0750 L 74.3039 235.2660 L 74.5938 235.4549 L 74.8851 235.6417 L 75.1776 235.8266 L 75.4715 236.0094 L 75.7665 236.1901 L 76.0629 236.3688 L 76.3605 236.5453 L 76.6594 236.7198 L 76.9594 236.8921 L 77.2607 237.0623 L 77.5632 237.2304 L 77.8669 237.3963 L 78.1718 237.5600 L 78.4778 237.7215 L 78.7850 237.8809 L 79.0933 238.0380 L 79.4028 238.1928 L 79.7134 238.3455 L 80.0250 238.4958 L 80.3378 238.6439 L 80.6516 238.7897 L 80.9665 238.9332 L 81.2824 239.0744 L 81.5994 239.2133 L 81.9174 239.3497 L 82.2364 239.4839 L 82.5564 239.6156 L 82.8773 239.7450 L 83.1992 239.8720 L 83.5221 239.9965 L 83.8459 240.1186 L 84.1706 240.2383 L 84.4962 240.3555 L 84.8226 240.4702 L 85.1500 240.5825 L 85.4782 240.6922 L 85.8072 240.7994 L 86.1370 240.9041 L 86.4676 241.0062 L 86.7991 241.1057 L 87.1312 241.2027 L 87.4642 241.2971 L 87.7978 241.3888 L 88.1322 241.4780 L 88.4673 241.5645 L 88.8030 241.6483 L 89.1394 241.7295 L 89.4764 241.8079 L 89.8141 241.8837 L 90.1523 241.9568 L 90.4911 242.0271 L 90.8305 242.0947 L 91.1704 242.1596 L 91.5109 242.2216 L 91.8518 242.2809 L 92.1932 242.3373 L 92.5351 242.3910 L 92.8774 242.4418 L 93.2201 242.4897 L 93.5632 242.5348 L 93.9066 242.5770 L 94.2504 242.6163 L 94.5945 242.6527 L 94.9390 242.6862 L 95.2837 242.7168 L 95.6286 242.7443 L 95.9738 242.7689 L 96.3191 242.7906 L 96.6647 242.8092 L 97.0104 242.8248 L 97.3562 242.8373 L 97.7021 242.8469 L 98.0481 242.8533 L 98.3941 242.8567 L 98.7402 242.8570 L 99.0862 242.8542 L 99.4322 242.8483 L 99.7781 242.8392 L 100.1239 242.8270 L 100.4697 242.8116 L 100.8152 242.7931 L 101.1606 242.7713 L 101.5057 242.7464 L 101.8506 242.7182 L 102.1952 242.6868 L 102.5395 242.6521 L 102.8835 242.6142 L 103.2271 242.5730 L 103.5702 242.5285 L 103.9130 242.4807 L 104.2552 242.4296 L 104.5969 242.3751 L 104.9381 242.3173 L 105.2787 242.2561 L 105.6187 242.1916 L 105.9580 242.1237 L 106.2966 242.0523 L 106.6345 241.9776 L 106.9716 241.8994 L 107.3079 241.8178 L 107.6433 241.7328 L 107.9778 241.6443 L 108.3114 241.5523 L 108.6441 241.4569 L 108.9757 241.3579 L 109.3062 241.2554 L 109.6356 241.1495 L 109.9639 241.0400 L 110.2909 240.9269 L 110.6167 240.8103 L 110.9413 240.6902 L 111.2644 240.5665 L 111.5862 240.4392 L 111.9066 240.3084 L 112.2254 240.1739 L 112.5428 240.0359 L 112.8585 239.8943 L 113.1726 239.7490 L 113.4850 239.6001 L 113.7956 239.4477 L 114.1044 239.2916 L 114.4114 239.1318 L 114.7164 238.9684 L 115.0195 238.8014 L 115.3206 238.6308 L 115.6195 238.4565 L 115.9163 238.2786 L 116.2109 238.0970 L 116.5032 237.9118 L 116.7931 237.7229 L 117.0807 237.5304 L 117.3658 237.3343 L 117.6484 237.1345 L 117.9283 236.9312 L 118.2056 236.7242 L 118.4802 236.5135 L 118.7520 236.2993 L 119.0209 236.0815 L 119.2868 235.8601 L 119.5497 235.6351 L 119.8096 235.4066 L 120.0662 235.1745 L 120.3196 234.9388 L 120.5698 234.6997 L 120.8165 234.4571 L 121.0597 234.2109 L 121.2994 233.9614 L 121.5355 233.7083 L 121.7679 233.4519 L 121.9964 233.1921 L 122.2212 232.9290 L 122.4419 232.6625 L 122.6586 232.3927 L 122.8712 232.1197 L 123.0796 231.8434 L 123.2837 231.5640 L 123.4834 231.2814 L 123.6787 230.9957 L 123.8694 230.7069 L 124.0555 230.4152 L 124.2368 230.1205 L 124.4134 229.8228 L 124.5850 229.5224 L 124.7516 229.2191 L 124.9132 228.9131 L 125.0696 228.6044 L 125.2208 228.2931 L 125.3666 227.9793 L 125.5070 227.6630 L 125.6419 227.3444 L 125.7712 227.0234 L 125.8948 226.7002 L 126.0126 226.3748 L 126.1246 226.0474 L 126.2307 225.7180 L 126.3307 225.3867 L 126.4246 225.0537 L 126.5124 224.7190 L 126.5939 224.3827 L 126.6691 224.0449 L 126.7379 223.7057 L 126.8002 223.3654 L 126.8560 223.0239 L 126.9052 222.6813 L 126.9477 222.3379 L 126.9836 221.9937 L 127.0126 221.6489 L 127.0348 221.3036 L 127.0501 220.9579 L 127.0585 220.6119 L 127.0600 220.2659 L 127.0544 219.9199 L 127.0418 219.5741 L 127.0222 219.2286 L 126.9954 218.8836 L 126.9615 218.5392 L 126.9205 218.1956 L 126.8724 217.8530 L 126.8171 217.5114 L 126.7547 217.1710 L 126.6851 216.8320 L 126.6085 216.4946 L 126.5247 216.1589 L 126.4338 215.8250 L 126.3358 215.4931 L 126.2308 215.1634 L 126.1188 214.8359 L 125.9999 214.5110 L 125.8740 214.1886 L 125.7413 213.8691 L 125.6018 213.5524 L 125.4556 213.2388 L 125.3027 212.9283 L 125.1432 212.6213 L 124.9772 212.3176 L 124.8047 212.0176 L 124.6259 211.7213 L 124.4409 211.4289 L 124.2497 211.1405 L 124.0525 210.8562 L 123.8493 210.5761 L 123.6402 210.3003 L 123.4254 210.0290 L 123.2050 209.7623 L 122.9791 209.5002 L 122.7478 209.2428 L 122.5112 208.9903 L 122.2695 208.7426 L 122.0227 208.5000 L 121.7711 208.2625 L 121.5147 208.0301 L 121.2537 207.8029 L 120.9881 207.5811 L 120.7182 207.3645 L 120.4441 207.1534 L 120.1658 206.9477 L 119.8835 206.7475 L 119.5975 206.5528 L 119.3077 206.3637 L 119.0143 206.1802 L 118.7175 206.0023 L 118.4173 205.8301 L 118.1140 205.6635 L 117.8076 205.5027 L 117.4983 205.3475 L 117.1862 205.1981 L 116.8714 205.0544 L 116.5540 204.9164 L 116.2343 204.7842 L 115.9122 204.6577 L 115.5879 204.5369 L 115.2616 204.4218 L 114.9333 204.3124 L 114.6031 204.2087 L 114.2713 204.1107 L 113.9378 204.0183 L 113.6028 203.9315 L 113.2664 203.8504 L 112.9287 203.7748 L 112.5898 203.7049 L 112.2498 203.6404 L 111.9089 203.5814 L 111.5670 203.5279 L 111.2243 203.4799 L 110.8809 203.4373 L 110.5368 203.4000 L 110.1923 203.3680 L 109.8473 203.3414 L 109.5019 203.3200 L 109.1562 203.3038 L 108.8104 203.2929 L 108.4644 203.2870 L 108.1183 203.2862 L 107.7723 203.2905 L 107.4264 203.2998 L 107.0806 203.3141 L 106.7351 203.3333 L 106.3899 203.3574 L 106.0451 203.3863 L 105.7007 203.4200 L 105.3568 203.4584 L 105.0134 203.5015 L 104.6707 203.5493 L 104.3287 203.6017 L 103.9873 203.6586 L 103.6468 203.7201 L 103.3071 203.7860 L 102.9683 203.8564 L 102.6304 203.9311 L 102.2935 204.0102 L 101.9576 204.0935 L 101.6229 204.1811 L 101.2892 204.2728 L 100.9567 204.3688 L 100.6254 204.4688 L 100.2954 204.5728 L 99.9667 204.6809 L 99.6393 204.7929 L 99.3132 204.9089 L 98.9886 205.0287 L 98.6654 205.1524 L 98.3437 205.2798 L 98.0235 205.4110 L 97.7048 205.5458 L 97.3877 205.6844 L 97.0722 205.8265 L 96.7583 205.9722 L 96.4461 206.1214 L 96.1355 206.2741 L 95.8267 206.4303 L 95.5197 206.5898 L 95.2144 206.7527 L 94.9108 206.9189 L 94.6091 207.0884 L 94.3093 207.2611 L 94.0113 207.4370 L 93.7152 207.6161 L 93.4210 207.7983 L 93.1287 207.9835 L 92.8383 208.1718 L 92.5500 208.3631 L 92.2636 208.5573 L 91.9792 208.7544 L 91.6968 208.9545 L 91.4165 209.1574 L 91.1382 209.3630 L 90.8620 209.5715 L 90.5879 209.7827 L 90.3158 209.9966 L 90.0459 210.2131 L 89.7781 210.4323 L 89.5125 210.6541 L 89.2490 210.8784 L 88.9877 211.1052 L 88.7285 211.3345 L 88.4716 211.5663 L 88.2168 211.8005 L 87.9643 212.0371 L 87.7140 212.2760 L 87.4659 212.5173 L 87.2201 212.7608 L 86.9765 213.0066 L 86.7352 213.2547 L 86.4961 213.5049 L 86.2594 213.7572 L 86.0249 214.0117 L 85.7927 214.2683 L 85.5628 214.5270 L 85.3353 214.7877 L 85.1101 215.0504 L 84.8871 215.3151 L 84.6666 215.5817 L 84.4483 215.8503 L 84.2324 216.1207 L 84.0189 216.3930 L 83.8077 216.6672 L 83.5989 216.9431 L 83.3924 217.2208 L 83.1883 217.5003 L 82.9866 217.7814 L 82.7873 218.0643 L 82.5903 218.3488 L 82.3958 218.6350 L 82.2036 218.9228 L 82.0139 219.2122 L 81.8265 219.5031 L 81.6415 219.7955 L 81.4590 220.0895 L 81.2788 220.3850 L 81.1011 220.6819 L 80.9257 220.9802 L 80.7528 221.2800 L 80.5823 221.5811 L 80.4142 221.8836 L 80.2486 222.1874 L 80.0853 222.4925 L 79.9245 222.7989 L 79.7661 223.1066 L 79.6102 223.4155 L 79.4566 223.7256 L 79.3055 224.0369 L 79.1568 224.3494 L 79.0106 224.6630 L 78.8668 224.9778 L 78.7254 225.2936 L 78.5865 225.6105 L 78.4499 225.9285 L 78.3158 226.2475 L 78.1842 226.5675 L 78.0550 226.8885 L 77.9282 227.2105 L 77.8038 227.5334 L 77.6818 227.8573 L 77.5623 228.1821 L 77.4453 228.5077 L 77.3306 228.8342 L 77.2184 229.1615 L 77.1086 229.4897 L 77.0012 229.8187 L 76.8962 230.1484 L 76.7937 230.4789 L 76.6936 230.8102 L 76.5959 231.1421 L 76.5006 231.4748 L 76.4078 231.8081 L 76.3173 232.1422 L 76.2293 232.4768 L 76.1437 232.8121 L 76.0605 233.1480 L 75.9797 233.4845 L 75.9013 233.8215 L 75.8253 234.1591 L 75.7517 234.4972 L 75.6805 234.8359 L 75.6116 235.1750 L 75.5452 235.5146 L 75.4812 235.8547 L 75.4196 236.1952 L 75.3603 236.5362 L 75.3034 236.8775 L 75.2489 237.2192 L 75.1968 237.5613 L 75.1471 237.9038 L 75.0997 238.2466 L 75.0547 238.5897 L 75.0121 238.9331 L 74.9718 239.2768 L 74.9339 239.6207 L 74.8983 239.9649 L 74.8651 240.3094 L 74.8342 240.6540 L 74.8057 240.9989 L 74.7795 241.3440 L 74.7556 241.6892 L 74.7341 242.0346 L 74.7149 242.3801 L 74.6981 242.7257 L 74.6836 243.0715 L 74.6713 243.4173 L 74.6614 243.7632 L 74.6539 244.1092 L 74.6486 244.4552 L 74.6456 244.8012 L 74.6449 245.1472 L 74.6465 245.4933 L 74.6504 245.8393 L 74.6566 246.1853 L 74.6651 246.5312 L 74.6759 246.8771 L 74.6889 247.2229 L 74.7042 247.5686 L 74.7217 247.9142 L 74.7416 248.2597 L 74.7637 248.6050 L 74.7880 248.9502 L 74.8146 249.2952 L 74.8434 249.6401 L 74.8744 249.9847 L 74.9077 250.3292 L 74.9433 250.6734 L 74.9810 251.0174 L 75.0210 251.3611 L 75.0632 251.7046 L 75.1076 252.0477 L 75.1542 252.3906 L 75.2030 252.7332 L 75.2539 253.0755 L 75.3071 253.4174 L 75.3625 253.7590 L 75.4200 254.1002 L 75.4798 254.4411 L 75.5417 254.7816 L 75.6057 255.1216 L 75.6719 255.4613 L 75.7403 255.8005 L 75.8108 256.1393 L 75.8835 256.4776 L 75.9583 256.8155 L 76.0352 257.1529 L 76.1143 257.4898 L 76.1955 257.8261 L 76.2788 258.1620 L 76.3642 258.4974 L 76.4517 258.8322 L 76.5413 259.1664 L 76.6330 259.5001 L 76.7268 259.8332 L 76.8227 260.1656 L 76.9207 260.4975 L 77.0207 260.8288 L 77.1228 261.1595 L 77.2270 261.4894 L 77.3332 261.8188 L 77.4414 262.1475 L 77.5517 262.4755 L 77.6641 262.8028 L 77.7784 263.1294 L 77.8948 263.4552 L 78.0133 263.7804 L 78.1337 264.1048 L 78.2561 264.4285 L 78.3805 264.7514 L 78.5070 265.0735 L 78.6354 265.3948 L 78.7658 265.7154 L 78.8982 266.0351 L 79.0325 266.3540 L 79.1688 266.6721 L 79.3071 266.9893 L 79.4473 267.3057 L 79.5894 267.6212 L 79.7335 267.9358 L 79.8796 268.2495 L 80.0275 268.5623 L 80.1774 268.8742 L 80.3292 269.1852 L 80.4828 269.4953 L 80.6384 269.8044 L 80.7959 270.1125 L 80.9553 270.4197 L 81.1165 270.7259 L 81.2796 271.0310 L 81.4446 271.3352 L 81.6114 271.6384 L 81.7801 271.9406 L 81.9506 272.2417 L 82.1230 272.5417 L 82.2972 272.8407 L 82.4732 273.1387 L 82.6510 273.4355 L 82.8307 273.7313 L 83.0121 274.0260 L 83.1953 274.3195 L 83.3804 274.6119 L 83.5672 274.9032 L 83.7558 275.1934 L 83.9461 275.4824 L 84.1382 275.7702 L 84.3321 276.0568 L 84.5277 276.3423 L 84.7250 276.6266 L 84.9241 276.9096 L 85.1248 277.1915 L 85.3274 277.4721 L 85.5316 277.7514 L 85.7375 278.0295 L 85.9451 278.3064 L 86.1544 278.5820 L 86.3653 278.8563 L 86.5779 279.1293 L 86.7922 279.4010 L 87.0082 279.6714 L 87.2258 279.9405 L 87.4450 280.2082 L 87.6658 280.4746 L 87.8883 280.7397 L 88.1124 281.0034 L 88.3381 281.2657 L 88.5654 281.5266 L 88.7943 281.7862 L 89.0247 282.0443 L 89.2568 282.3010 L 89.4904 282.5563 L 89.7255 282.8102 L 89.9622 283.0626 L 90.2005 283.3136 L 90.4402 283.5631 L 90.6815 283.8111 L 90.9244 284.0577 L 91.1687 284.3028 L 91.4145 284.5463 L 91.6618 284.7884 L 91.9106 285.0289 L 92.1608 285.2679 L 92.4125 285.5054 L 92.6657 285.7413 L 92.9203 285.9756 L 93.1764 286.2084 L 93.4339 286.4396 L 93.6928 286.6692 L 93.9531 286.8972 L 94.2148 287.1236 L 94.4779 287.3484 L 94.7424 287.5715 L 95.0082 287.7930 L 95.2755 288.0129 L 95.5440 288.2311 L 95.8139 288.4476 L 96.0852 288.6625 L 96.3578 288.8757 L 96.6317 289.0872 L 96.9069 289.2970 L 97.1834 289.5050 L 97.4612 289.7114 L 97.7402 289.9160 L 98.0206 290.1189 L 98.3022 290.3200 L 98.5850 290.5194 L 98.8691 290.7170 L 99.1544 290.9128 L 99.4409 291.1068 L 99.7287 291.2991 L 100.0176 291.4895 L 100.3077 291.6781 L 100.5991 291.8649 L 100.8915 292.0498 L 101.1852 292.2329 L 101.4799 292.4142 L 101.7759 292.5936 L 102.0729 292.7711 L 102.3710 292.9467 L 102.6703 293.1205 L 102.9707 293.2924 L 103.2721 293.4623 L 103.5746 293.6303 L 103.8782 293.7964 L 104.1828 293.9606 L 104.4885 294.1228 L 104.7952 294.2831 L 105.1029 294.4414 L 105.4116 294.5978 L 105.7213 294.7521 L 106.0320 294.9045 L 106.3436 295.0549 L 106.6563 295.2033 L 106.9698 295.3496 L 107.2843 295.4940 L 107.5998 295.6363 L 107.9161 295.7765 L 108.2334 295.9147 L 108.5515 296.0509 L 108.8705 296.1850 L 109.1904 296.3170 L 109.5111 296.4469 L 109.8327 296.5747 L 110.1551 296.7004 L 110.4783 296.8240 L 110.8023 296.9455 L 111.1271 297.0649 L 111.4527 297.1821 L 111.7791 297.2972 L 112.1062 297.4101 L 112.4340 297.5208 L 112.7626 297.6294 L 113.0919 297.7358 L 113.4219 297.8400 L 113.7525 297.9420 L 114.0839 298.0418 L 114.4159 298.1394 L 114.7485 298.2348 L 115.0818 298.3279 L 115.4157 298.4188 L 115.7502 298.5075 L 116.0853 298.5938 L 116.4209 298.6780 L 116.7572 298.7598 L 117.0939 298.8394 L 117.4313 298.9166 L 117.7691 298.9916 L 118.1074 299.0642 L 118.4462 299.1346 L 118.7855 299.2026 L 119.1253 299.2683 L 119.4655 299.3316 L 119.8061 299.3926 L 120.1472 299.4513 L 120.4886 299.5075 L 120.8304 299.5614 L 121.1726 299.6129 L 121.5151 299.6621 L 121.8580 299.7088 L 122.2012 299.7531 L 122.5447 299.7950 L 122.8885 299.8345 L 123.2326 299.8715 L 123.5769 299.9062 L 123.9214 299.9383 L 124.2662 299.9680 L 124.6111 299.9953 L 124.9563 300.0201 L 125.3016 300.0424 L 125.6471 300.0622 L 125.9927 300.0795 L 126.3384 300.0943 L 126.6843 300.1067 L 127.0302 300.1165 L 127.3761 300.1237 L 127.7222 300.1285 L 128.0682 300.1307 L 128.4142 300.1304 L 128.7603 300.1275 L 129.1063 300.1220 L 129.4522 300.1140 L 129.7981 300.1034 L 130.1439 300.0903 L 130.4896 300.0745 L 130.8352 300.0561 L 131.1806 300.0352 L 131.5258 300.0116 L 131.8709 299.9854 L 132.2157 299.9566 L 132.5603 299.9252 L 132.9047 299.8911 L 133.2488 299.8543 L 133.5926 299.8150 L 133.9360 299.7729 L 134.2792 299.7282 L 134.6220 299.6809 L 134.9644 299.6308 L 135.3064 299.5781 L 135.6480 299.5227 L 135.9891 299.4645 L 136.3298 299.4037 L 136.6699 299.3402 L 137.0096 299.2739 L 137.3487 299.2050 L 137.6872 299.1333 L 138.0252 299.0589 L 138.3625 298.9817 L 138.6992 298.9018 L 139.0352 298.8192 L 139.3706 298.7338 L 139.7052 298.6456 L 140.0391 298.5547 L 140.3722 298.4610 L 140.7045 298.3645 L 141.0360 298.2653 L 141.3667 298.1633 L 141.6965 298.0585 L 142.0254 297.9509 L 142.3533 297.8405 L 142.6803 297.7273 L 143.0064 297.6113 L 143.3314 297.4925 L 143.6554 297.3709 L 143.9783 297.2465 L 144.3001 297.1192 L 144.6207 296.9892 L 144.9402 296.8563 L 145.2586 296.7206 L 145.5757 296.5820 L 145.8915 296.4406 L 146.2061 296.2964 L 146.5193 296.1494 L 146.8312 295.9995 L 147.1418 295.8468 L 147.4509 295.6912 L 147.7585 295.5329 L 148.0647 295.3716 L 148.3694 295.2075 L 148.6725 295.0406 L 148.9741 294.8708 L 149.2740 294.6982 L 149.5722 294.5228 L 149.8688 294.3445 L 150.1637 294.1634 L 150.4568 293.9794 L 150.7481 293.7926 L 151.0375 293.6029 L 151.3251 293.4105 L 151.6107 293.2152 L 151.8945 293.0170 L 152.1762 292.8161 L 152.4559 292.6123 L 152.7335 292.4057 L 153.0090 292.1963 L 153.2823 291.9841 L 153.5534 291.7691 L 153.8223 291.5513 L 154.0890 291.3307 L 154.3532 291.1073 L 154.6152 290.8812 L 154.8747 290.6523 L 155.1317 290.4206 L 155.3863 290.1862 L 155.6383 289.9490 L 155.8877 289.7091 L 156.1344 289.4665 L 156.3785 289.2212 L 156.6198 288.9732 L 156.8584 288.7225 L 157.0941 288.4692 L 157.3269 288.2132 L 157.5568 287.9545 L 157.7837 287.6932 L 158.0076 287.4294 L 158.2283 287.1629 L 158.4460 286.8939 L 158.6604 286.6223 L 158.8716 286.3482 L 159.0795 286.0715 L 159.2841 285.7924 L 159.4852 285.5108 L 159.6828 285.2268 L 159.8770 284.9403 L 160.0676 284.6515 L 160.2545 284.3603 L 160.4377 284.0667 L 160.6172 283.7709 L 160.7929 283.4727 L 160.9647 283.1723 L 161.1326 282.8697 L 161.2965 282.5650 L 161.4563 282.2581 L 161.6120 281.9490 L 161.7636 281.6380 L 161.9109 281.3249 L 162.0540 281.0098 L 162.1927 280.6927 L 162.3270 280.3738 L 162.4568 280.0530 L 162.5820 279.7304 L 162.7027 279.4061 L 162.8187 279.0801 L 162.9299 278.7524 L 163.0364 278.4232 L 163.1380 278.0924 L 163.2346 277.7601 L 163.3263 277.4264 L 163.4130 277.0914 L 163.4945 276.7551 L 163.5709 276.4176 L 163.6420 276.0790 L 163.7079 275.7392 L 163.7683 275.3985 L 163.8234 275.0569 L 163.8730 274.7144 L 163.9170 274.3712 L 163.9555 274.0273 L 163.9883 273.6828 L 164.0153 273.3378 L 164.0367 272.9924 L 164.0521 272.6467 L 164.0618 272.3008 L 164.0655 271.9548 L 164.0632 271.6088 L 164.0549 271.2628 L 164.0405 270.9171 L 164.0200 270.5717 L 163.9934 270.2266 L 163.9605 269.8822 L 163.9215 269.5383 L 163.8761 269.1953 L 163.8245 268.8531 L 163.7665 268.5120 L 163.7022 268.1719 L 163.6315 267.8332 L 163.5543 267.4959 L 163.4708 267.1601 L 163.3808 266.8259 L 163.2844 266.4936 L 163.1816 266.1632 L 163.0722 265.8349 L 162.9565 265.5088 L 162.8343 265.1850 L 162.7056 264.8638 L 162.5706 264.5452 L 162.4291 264.2294 L 162.2813 263.9165 L 162.1272 263.6067 L 161.9667 263.3001 L 161.7999 262.9969 L 161.6270 262.6972 L 161.4478 262.4011 L 161.2625 262.1089 L 161.0712 261.8206 L 160.8738 261.5363 L 160.6705 261.2563 L 160.4614 260.9806 L 160.2464 260.7094 L 160.0258 260.4428 L 159.7996 260.1810 L 159.5678 259.9240 L 159.3306 259.6721 L 159.0881 259.4252 L 158.8404 259.1836 L 158.5876 258.9473 L 158.3298 258.7165 L 158.0671 258.4913 L 157.7996 258.2717 L 157.5276 258.0578 L 157.2510 257.8498 L 156.9701 257.6478 L 156.6849 257.4518 L 156.3957 257.2618 L 156.1025 257.0781 L 155.8054 256.9005 L 155.5047 256.7293 L 155.2005 256.5644 L 154.8929 256.4060 L 154.5820 256.2540 L 154.2680 256.1085 L 153.9511 255.9695 L 153.6314 255.8371 L 153.3091 255.7113 L 152.9842 255.5921 L 152.6570 255.4796 L 152.3275 255.3737 L 151.9960 255.2744 L 151.6626 255.1818 L 151.3274 255.0959 L 150.9906 255.0166 L 150.6522 254.9440 L 150.3126 254.8780 L 149.9716 254.8186 L 149.6297 254.7658 L 149.2867 254.7195 L 148.9430 254.6798 L 148.5985 254.6466 L 148.2535 254.6199 L 147.9081 254.5996 L 147.5623 254.5857 L 147.2164 254.5782 L 146.8703 254.5769 L 146.5243 254.5819 L 146.1784 254.5931 L 145.8328 254.6105 L 145.4876 254.6339 L 145.1428 254.6634 L 144.7986 254.6989 L 144.4550 254.7403 L 144.1122 254.7876 L 143.7703 254.8407 L 143.4293 254.8995 L 143.0893 254.9640 L 142.7504 255.0341 L 142.4128 255.1097 L 142.0764 255.1908 L 141.7413 255.2774 L 141.4077 255.3693 L 141.0756 255.4664 L 140.7450 255.5688 L 140.4161 255.6763 L 140.0889 255.7888 L 139.7634 255.9064 L 139.4398 256.0289 L 139.1180 256.1562 L 138.7982 256.2884 L 138.4804 256.4252 L 138.1646 256.5668 L 137.8509 256.7129 L 137.5394 256.8635 L 137.2300 257.0185 L 136.9229 257.1780 L 136.6180 257.3417 L 136.3155 257.5097 L 136.0153 257.6819 L 135.7176 257.8582 L 135.4222 258.0385 L 135.1293 258.2228 L 134.8390 258.4110 L 134.5511 258.6031 L 134.2658 258.7989 L 133.9831 258.9985 L 133.7030 259.2017 L 133.4256 259.4086 L 133.1509 259.6189 L 132.8788 259.8328 L 132.6094 260.0500 L 132.3428 260.2706 L 132.0790 260.4945 L 131.8179 260.7216 L 131.5596 260.9519 L 131.3041 261.1853 L 131.0515 261.4218 L 130.8017 261.6613 L 130.5548 261.9037 L 130.3107 262.1490 L 130.0696 262.3972 L 129.8313 262.6482 L 129.5959 262.9018 L 129.3635 263.1582 L 129.1340 263.4172 L 128.9075 263.6788 L 128.6839 263.9429 L 128.4633 264.2095 L 128.2456 264.4785 L 128.0309 264.7499 L 127.8192 265.0236 L 127.6105 265.2996 L 127.4047 265.5779 L 127.2020 265.8583 L 127.0023 266.1409 L 126.8055 266.4256 L 126.6118 266.7123 L 126.4211 267.0010 L 126.2334 267.2918 L 126.0487 267.5844 L 125.8670 267.8789 L 125.6883 268.1753 L 125.5127 268.4734 L 125.3401 268.7733 L 125.1705 269.0750 L 125.0039 269.3783 L 124.8403 269.6832 L 124.6797 269.9897 L 124.5222 270.2978 L 124.3677 270.6075 L 124.2161 270.9186 L 124.0676 271.2311 L 123.9221 271.5451 L 123.7796 271.8604 L 123.6401 272.1771 L 123.5035 272.4951 L 123.3700 272.8143 L 123.2395 273.1348 L 123.1119 273.4565 L 122.9873 273.7793 L 122.8657 274.1033 L 122.7471 274.4284 L 122.6314 274.7545 L 122.5187 275.0817 L 122.4090 275.4098 L 122.3022 275.7390 L 122.1983 276.0691 L 122.0974 276.4001 L 121.9994 276.7320 L 121.9043 277.0647 L 121.8122 277.3983 L 121.7230 277.7326 L 121.6367 278.0677 L 121.5533 278.4036 L 121.4727 278.7401 L 121.3951 279.0773 L 121.3204 279.4152 L 121.2485 279.7537 L 121.1795 280.0928 L 121.1134 280.4325 L 121.0501 280.7727 L 120.9896 281.1134 L 120.9320 281.4546 L 120.8773 281.7963 L 120.8253 282.1384 L 120.7762 282.4810 L 120.7299 282.8239 L 120.6863 283.1672 L 120.6456 283.5108 L 120.6077 283.8548 L 120.5725 284.1990 L 120.5401 284.5436 L 120.5104 284.8883 L 120.4835 285.2333 L 120.4594 285.5785 L 120.4380 285.9239 L 120.4193 286.2695 L 120.4033 286.6151 L 120.3900 286.9609 L 120.3795 287.3068 L 120.3716 287.6528 L 120.3664 287.9988 L 120.3639 288.3448 L 120.3640 288.6909 L 120.3668 289.0369 L 120.3723 289.3829 L 120.3804 289.7288 L 120.3911 290.0747 L 120.4044 290.4205 L 120.4204 290.7662 L 120.4389 291.1117 L 120.4601 291.4571 L 120.4838 291.8024 L 120.5101 292.1474 L 120.5390 292.4922 L 120.5704 292.8369 L 120.6044 293.1812 L 120.6409 293.5253 L 120.6799 293.8692 L 120.7215 294.2127 L 120.7655 294.5559 L 120.8121 294.8988 L 120.8612 295.2414 L 120.9127 295.5836 L 120.9667 295.9254 L 121.0232 296.2668 L 121.0821 296.6078 L 121.1435 296.9483 L 121.2073 297.2885 L 121.2735 297.6281 L 121.3422 297.9673 L 121.4132 298.3059 L 121.4867 298.6441 L 121.5625 298.9817 L 121.6407 299.3188 L 121.7213 299.6554 L 121.8042 299.9913 L 121.8895 300.3267 L 121.9771 300.6615 L 122.0671 300.9956 L 122.1593 301.3291 L 122.2539 301.6620 L 122.3508 301.9942 L 122.4499 302.3257 L 122.5514 302.6566 L 122.6551 302.9867 L 122.7611 303.3161 L 122.8693 303.6448 L 122.9797 303.9728 L 123.0924 304.3000 L 123.2073 304.6264 L 123.3245 304.9520 L 123.4438 305.2768 L 123.5653 305.6008 L 123.6890 305.9240 L 123.8149 306.2463 L 123.9429 306.5678 L 124.0731 306.8885 L 124.2054 307.2082 L 124.3399 307.5271 L 124.4764 307.8450 L 124.6151 308.1620 L 124.7559 308.4782 L 124.8988 308.7933 L 125.0438 309.1075 L 125.1908 309.4208 L 125.3399 309.7331 L 125.4911 310.0444 L 125.6443 310.3546 L 125.7995 310.6639 L 125.9567 310.9722 L 126.1160 311.2794 L 126.2773 311.5856 L 126.4405 311.8907 L 126.6058 312.1947 L 126.7730 312.4977 L 126.9422 312.7996 L 127.1133 313.1003 L 127.2864 313.4000 L 127.4614 313.6985 L 127.6383 313.9959 L 127.8171 314.2922 L 127.9979 314.5872 L 128.1805 314.8812 L 128.3650 315.1739 L 128.5514 315.4655 L 128.7397 315.7558 L 128.9298 316.0450 L 129.1217 316.3329 L 129.3155 316.6196 L 129.5111 316.9051 L 129.7085 317.1893 L 129.9077 317.4723 L 130.1087 317.7539 L 130.3115 318.0344 L 130.5160 318.3135 L 130.7223 318.5913 L 130.9304 318.8678 L 131.1402 319.1430 L 131.3517 319.4169 L 131.5650 319.6894 L 131.7799 319.9606 L 131.9966 320.2304 L 132.2150 320.4988 L 132.4350 320.7659 L 132.6567 321.0316 L 132.8800 321.2959 L 133.1050 321.5588 L 133.3317 321.8203 L 133.5599 322.0804 L 133.7898 322.3391 L 134.0213 322.5963 L 134.2544 322.8521 L 134.4891 323.1064 L 134.7253 323.3592 L 134.9632 323.6106 L 135.2025 323.8605 L 135.4434 324.1089 L 135.6859 324.3558 L 135.9299 324.6012 L 136.1754 324.8451 L 136.4223 325.0875 L 136.6708 325.3283 L 136.9208 325.5676 L 137.1722 325.8054 L 137.4251 326.0416 L 137.6795 326.2762 L 137.9353 326.5093 L 138.1925 326.7408 L 138.4511 326.9707 L 138.7112 327.1990 L 138.9726 327.4257 L 139.2355 327.6507 L 139.4997 327.8742 L 139.7652 328.0961 L 140.0322 328.3163 L 140.3005 328.5349 L 140.5701 328.7518 L 140.8410 328.9671 L 141.1133 329.1807 L 141.3868 329.3926 L 141.6616 329.6029 L 141.9378 329.8114 L 142.2152 330.0183 L 142.4938 330.2235 L 142.7737 330.4270 L 143.0549 330.6287 L 143.3372 330.8288 L 143.6208 331.0271 L 143.9056 331.2237 L 144.1916 331.4185 L 144.4787 331.6116 L 144.7671 331.8029 L 145.0566 331.9925 L 145.3472 332.1803 L 145.6390 332.3663 L 145.9320 332.5506 L 146.2260 332.7330 L 146.5211 332.9137 L 146.8174 333.0925 L 147.1147 333.2696 L 147.4131 333.4448 L 147.7126 333.6182 L 148.0131 333.7898 L 148.3146 333.9595 L 148.6172 334.1274 L 148.9208 334.2935 L 149.2254 334.4577 L 149.5310 334.6200 L 149.8376 334.7805 L 150.1452 334.9391 L 150.4537 335.0958 L 150.7632 335.2506 L 151.0736 335.4036 L 151.3849 335.5546 L 151.6972 335.7037 L 152.0104 335.8510 L 152.3244 335.9963 L 152.6393 336.1397 L 152.9551 336.2812 L 153.2718 336.4207 L 153.5893 336.5583 L 153.9077 336.6940 L 154.2268 336.8277 L 154.5468 336.9594 L 154.8676 337.0892 L 155.1892 337.2171 L 155.5115 337.3429 L 155.8346 337.4668 L 156.1585 337.5887 L 156.4831 337.7086 L 156.8084 337.8265 L 157.1345 337.9424 L 157.4613 338.0563 L 157.7887 338.1682 L 158.1168 338.2781 L 158.4456 338.3860 L 158.7751 338.4918 L 159.1052 338.5956 L 159.4360 338.6974 L 159.7673 338.7971 L 160.0993 338.8948 L 160.4319 338.9904 L 160.7650 339.0840 L 161.0987 339.1755 L 161.4330 339.2650 L 161.7679 339.3524 L 162.1032 339.4377 L 162.4391 339.5209 L 162.7755 339.6020 L 163.1124 339.6811 L 163.4498 339.7581 L 163.7876 339.8329 L 164.1259 339.9057 L 164.4647 339.9763 L 164.8039 340.0448 L 165.1435 340.1113 L 165.4835 340.1756 L 165.8239 340.2377 L 166.1647 340.2978 L 166.5059 340.3557 L 166.8474 340.4114 L 167.1893 340.4650 L 167.5315 340.5165 L 167.8740 340.5658 L 168.2168 340.6130 L 168.5599 340.6580 L 168.9033 340.7008 L 169.2469 340.7415 L 169.5908 340.7800 L 169.9350 340.8163 L 170.2793 340.8505 L 170.6239 340.8824 L 170.9687 340.9122 L 171.3136 340.9398 L 171.6587 340.9652 L 172.0040 340.9884 L 172.3494 341.0093 L 172.6949 341.0281 L 173.0406 341.0447 L 173.3863 341.0590 L 173.7322 341.0712 L 174.0781 341.0811 L 174.4240 341.0888 L 174.7700 341.0942 L 175.1161 341.0974 L 175.4621 341.0984 L 175.8081 341.0972 L 176.1542 341.0937 L 176.5002 341.0880 L 176.8461 341.0800 L 177.1920 341.0698 L 177.5378 341.0573 L 177.8836 341.0426 L 178.2292 341.0256 L 178.5747 341.0063 L 178.9201 340.9848 L 179.2653 340.9610 L 179.6104 340.9349 L 179.9553 340.9066 L 180.2999 340.8760 L 180.6444 340.8431 L 180.9887 340.8079 L 181.3327 340.7705 L 181.6764 340.7307 L 182.0199 340.6887 L 182.3631 340.6444 L 182.7060 340.5978 L 183.0486 340.5489 L 183.3908 340.4977 L 183.7327 340.4442 L 184.0742 340.3884 L 184.4154 340.3303 L 184.7561 340.2698 L 185.0964 340.2071 L 185.4363 340.1421 L 185.7757 340.0748 L 186.1147 340.0051 L 186.4532 339.9331 L 186.7911 339.8588 L 187.1286 339.7822 L 187.4655 339.7033 L 187.8019 339.6221 L 188.1377 339.5385 L 188.4729 339.4526 L 188.8075 339.3644 L 189.1415 339.2739 L 189.4749 339.1811 L 189.8076 339.0859 L 190.1396 338.9884 L 190.4709 338.8885 L 190.8015 338.7863 L 191.1314 338.6818 L 191.4606 338.5750 L 191.7890 338.4659 L 192.1165 338.3544 L 192.4433 338.2405 L 192.7693 338.1244 L 193.0944 338.0059 L 193.4187 337.8851 L 193.7421 337.7619 L 194.0646 337.6365 L 194.3862 337.5086 L 194.7068 337.3785 L 195.0265 337.2460 L 195.3452 337.1112 L 195.6629 336.9741 L 195.9796 336.8346 L 196.2953 336.6928 L 196.6099 336.5487 L 196.9234 336.4023 L 197.2358 336.2535 L 197.5472 336.1024 L 197.8573 335.9490 L 198.1664 335.7933 L 198.4742 335.6352 L 198.7808 335.4748 L 199.0862 335.3121 L 199.3904 335.1471 L 199.6933 334.9798 L 199.9950 334.8102 L 200.2953 334.6383 L 200.5942 334.4640 L 200.8919 334.2875 L 201.1881 334.1087 L 201.4830 333.9275 L 201.7764 333.7441 L 202.0684 333.5584 L 202.3589 333.3704 L 202.6479 333.1801 L 202.9355 332.9875 L 203.2214 332.7927 L 203.5059 332.5956 L 203.7887 332.3962 L 204.0699 332.1946 L 204.3495 331.9907 L 204.6274 331.7845 L 204.9037 331.5761 L 205.1782 331.3655 L 205.4511 331.1526 L 205.7221 330.9375 L 205.9914 330.7201 L 206.2589 330.5006 L 206.5245 330.2788 L 206.7883 330.0548 L 207.0501 329.8286 L 207.3101 329.6002 L 207.5682 329.3696 L 207.8242 329.1369 L 208.0783 328.9019 L 208.3304 328.6648 L 208.5804 328.4256 L 208.8283 328.1842 L 209.0741 327.9406 L 209.3178 327.6950 L 209.5594 327.4472 L 209.7987 327.1972 L 210.0359 326.9452 L 210.2707 326.6911 L 210.5034 326.4349 L 210.7337 326.1766 L 210.9616 325.9163 L 211.1873 325.6539 L 211.4105 325.3895 L 211.6313 325.1230 L 211.8496 324.8546 L 212.0655 324.5841 L 212.2788 324.3116 L 212.4896 324.0372 L 212.6978 323.7608 L 212.9034 323.4824 L 213.1063 323.2022 L 213.3066 322.9200 L 213.5041 322.6358 L 213.6990 322.3499 L 213.8910 322.0620 L 214.0802 321.7723 L 214.2666 321.4807 L 214.4501 321.1873 L 214.6307 320.8922 L 214.8084 320.5952 L 214.9831 320.2965 L 215.1547 319.9960 L 215.3233 319.6938 L 215.4889 319.3899 L 215.6513 319.0844 L 215.8105 318.7771 L 215.9666 318.4683 L 216.1194 318.1578 L 216.2689 317.8458 L 216.4152 317.5321 L 216.5581 317.2170 L 216.6976 316.9003 L 216.8337 316.5822 L 216.9664 316.2625 L 217.0956 315.9415 L 217.2212 315.6191 L 217.3432 315.2953 L 217.4617 314.9701 L 217.5765 314.6437 L 217.6876 314.3160 L 217.7950 313.9870 L 217.8986 313.6568 L 217.9984 313.3255 L 218.0944 312.9930 L 218.1864 312.6595 L 218.2746 312.3248 L 218.3588 311.9892 L 218.4389 311.6526 L 218.5151 311.3150 L 218.5871 310.9765 L 218.6550 310.6372 L 218.7187 310.2971 L 218.7782 309.9562 L 218.8335 309.6146 L 218.8844 309.2723 L 218.9310 308.9294 L 218.9733 308.5860 L 219.0111 308.2420 L 219.0445 307.8976 L 219.0733 307.5527 L 219.0977 307.2075 L 219.1174 306.8621 L 219.1325 306.5163 L 219.1430 306.1705 L 219.1487 305.8245 L 219.1498 305.4784 L 219.1460 305.1324 L 219.1374 304.7865 L 219.1240 304.4407 L 219.1056 304.0951 L 219.0824 303.7499 L 219.0542 303.4050 L 219.0209 303.0605 L 218.9827 302.7166 L 218.9393 302.3733 L 218.8909 302.0307 L 218.8373 301.6888 L 218.7786 301.3478 L 218.7146 301.0077 L 218.6455 300.6686 L 218.5710 300.3307 L 218.4913 299.9939 L 218.4063 299.6585 L 218.3160 299.3245 L 218.2203 298.9919 L 218.1192 298.6610 L 218.0127 298.3317 L 217.9009 298.0042 L 217.7836 297.6787 L 217.6608 297.3551 L 217.5327 297.0337 L 217.3990 296.7145 L 217.2599 296.3977 L 217.1154 296.0833 L 216.9654 295.7714 L 216.8099 295.4623 L 216.6489 295.1559 L 216.4826 294.8525 L 216.3107 294.5522 L 216.1335 294.2550 L 215.9508 293.9611 L 215.7628 293.6706 L 215.5693 293.3836 L 215.3706 293.1004 L 215.1665 292.8209 L 214.9572 292.5454 L 214.7427 292.2738 L 214.5229 292.0065 L 214.2981 291.7435 L 214.0681 291.4849 L 213.8331 291.2309 L 213.5932 290.9816 L 213.3483 290.7371 L 213.0986 290.4975 L 212.8441 290.2630 L 212.5850 290.0337 L 212.3213 289.8097 L 212.0530 289.5911 L 211.7803 289.3780 L 211.5033 289.1707 L 211.2220 288.9691 L 210.9367 288.7734 L 210.6473 288.5836 L 210.3540 288.4000 L 210.0569 288.2226 L 209.7561 288.0514 L 209.4518 287.8867 L 209.1441 287.7284 L 208.8331 287.5767 L 208.5189 287.4316 L 208.2017 287.2933 L 207.8817 287.1617 L 207.5589 287.0370 L 207.2335 286.9193 L 206.9057 286.8085 L 206.5756 286.7047 L 206.2433 286.6080 L 205.9091 286.5184 L 205.5730 286.4360 L 205.2352 286.3607 L 204.8960 286.2927 L 204.5553 286.2319 L 204.2134 286.1783 L 203.8705 286.1320 L 203.5267 286.0929 L 203.1821 286.0611 L 202.8369 286.0365 L 202.4913 286.0192 L 202.1454 286.0090 L 201.7994 286.0061 L 201.4534 286.0103 L 201.1075 286.0216 L 200.7620 286.0400 L 200.4169 286.0655 L 200.0724 286.0980 L 199.7286 286.1375 L 199.3857 286.1838 L 199.0438 286.2370 L 198.7030 286.2970 L 198.3634 286.3637 L 198.0252 286.4370 L 197.6885 286.5170 L 197.3535 286.6034 L 197.0201 286.6963 L 196.6886 286.7955 L 196.3591 286.9011 L 196.0316 287.0128 L 195.7062 287.1306 L 195.3831 287.2545 L 195.0623 287.3843 L 194.7440 287.5199 L 194.4281 287.6613 L 194.1149 287.8084 L 193.8044 287.9611 L 193.4966 288.1192 L 193.1916 288.2828 L 192.8896 288.4516 L 192.5905 288.6257 L 192.2945 288.8049 L 192.0015 288.9891 L 191.7117 289.1782 L 191.4251 289.3721 L 191.1418 289.5708 L 190.8618 289.7741 L 190.5852 289.9820 L 190.3119 290.1944 L 190.0421 290.4111 L 189.7758 290.6320 L 189.5131 290.8572 L 189.2538 291.0864 L 188.9982 291.3197 L 188.7462 291.5568 L 188.4979 291.7978 L 188.2532 292.0425 L 188.0122 292.2909 L 187.7750 292.5428 L 187.5415 292.7982 L 187.3118 293.0570 L 187.0858 293.3191 L 186.8637 293.5844 L 186.6454 293.8529 L 186.4308 294.1244 L 186.2202 294.3989 L 186.0134 294.6763 L 185.8104 294.9566 L 185.6113 295.2396 L 185.4160 295.5253 L 185.2247 295.8136 L 185.0372 296.1045 L 184.8535 296.3978 L 184.6738 296.6935 L 184.4980 296.9915 L 184.3260 297.2918 L 184.1579 297.5943 L 183.9937 297.8989 L 183.8333 298.2055 L 183.6768 298.5142 L 183.5242 298.8247 L 183.3754 299.1372 L 183.2305 299.4514 L 183.0894 299.7674 L 182.9522 300.0851 L 182.8188 300.4044 L 182.6892 300.7252 L 182.5635 301.0476 L 182.4415 301.3715 L 182.3233 301.6967 L 182.2089 302.0233 L 182.0983 302.3512 L 181.9914 302.6803 L 181.8883 303.0106 L 181.7889 303.3421 L 181.6933 303.6746 L 181.6013 304.0082 L 181.5130 304.3428 L 181.4285 304.6784 L 181.3475 305.0148 L 181.2703 305.3521 L 181.1967 305.6903 L 181.1267 306.0292 L 181.0603 306.3688 L 180.9975 306.7091 L 180.9382 307.0500 L 180.8826 307.3915 L 180.8305 307.7336 L 180.7819 308.0763 L 180.7368 308.4194 L 180.6952 308.7629 L 180.6572 309.1068 L 180.6225 309.4511 L 180.5914 309.7958 L 180.5636 310.1407 L 180.5393 310.4859 L 180.5184 310.8313 L 180.5008 311.1769 L 180.4866 311.5227 L 180.4758 311.8685 L 180.4683 312.2145 L 180.4641 312.5605 L 180.4632 312.9066 L 180.4656 313.2526 L 180.4712 313.5986 L 180.4801 313.9445 L 180.4922 314.2904 L 180.5076 314.6361 L 180.5261 314.9816 L 180.5477 315.3270 L 180.5726 315.6721 L 180.6006 316.0170 L 180.6317 316.3617 L 180.6659 316.7060 L 180.7031 317.0501 L 180.7435 317.3938 L 180.7869 317.7371 L 180.8333 318.0800 L 180.8828 318.4225 L 180.9352 318.7645 L 180.9906 319.1061 L 181.0490 319.4472 L 181.1104 319.7878 L 181.1746 320.1278 L 181.2418 320.4672 L 181.3118 320.8061 L 181.3848 321.1444 L 181.4606 321.4820 L 181.5392 321.8190 L 181.6206 322.1554 L 181.7049 322.4910 L 181.7919 322.8259 L 181.8817 323.1601 L 181.9743 323.4935 L 182.0696 323.8262 L 182.1676 324.1581 L 182.2684 324.4891 L 182.3718 324.8194 L 182.4778 325.1487 L 182.5866 325.4773 L 182.6979 325.8049 L 182.8119 326.1316 L 182.9285 326.4575 L 183.0476 326.7823 L 183.1693 327.1063 L 183.2936 327.4292 L 183.4204 327.7512 L 183.5497 328.0722 L 183.6816 328.3921 L 183.8159 328.7111 L 183.9526 329.0289 L 184.0918 329.3457 L 184.2335 329.6615 L 184.3776 329.9761 L 184.5240 330.2896 L 184.6729 330.6020 L 184.8241 330.9133 L 184.9777 331.2234 L 185.1336 331.5323 L 185.2918 331.8400 L 185.4523 332.1466 L 185.6151 332.4519 L 185.7802 332.7561 L 185.9476 333.0590 L 186.1172 333.3606 L 186.2890 333.6610 L 186.4630 333.9601 L 186.6392 334.2579 L 186.8176 334.5545 L 186.9981 334.8497 L 187.1808 335.1436 L 187.3656 335.4361 L 187.5525 335.7273 L 187.7416 336.0172 L 187.9327 336.3057 L 188.1259 336.5928 L 188.3211 336.8785 L 188.5184 337.1628 L 188.7177 337.4457 L 188.9189 337.7272 L 189.1222 338.0072 L 189.3275 338.2858 L 189.5347 338.5629 L 189.7439 338.8386 L 189.9550 339.1128 L 190.1680 339.3855 L 190.3829 339.6567 L 190.5997 339.9265 L 190.8184 340.1947 L 191.0389 340.4613 L 191.2613 340.7265 L 191.4855 340.9901 L 191.7115 341.2521 L 191.9393 341.5126 L 192.1689 341.7715 L 192.4002 342.0289 L 192.6333 342.2846 L 192.8682 342.5388 L 193.1048 342.7913 L 193.3430 343.0422 L 193.5830 343.2916 L 193.8247 343.5393 L 194.0680 343.7853 L 194.3130 344.0297 L 194.5596 344.2725 L 194.8078 344.5136 L 195.0576 344.7530 L 195.3091 344.9907 L 195.5621 345.2268 L 195.8167 345.4612 L 196.0728 345.6939 L 196.3305 345.9248 L 196.5897 346.1541 L 196.8504 346.3817 L 197.1126 346.6075 L 197.3763 346.8316 L 197.6415 347.0539 L 197.9081 347.2745 L 198.1762 347.4933 L 198.4456 347.7104 L 198.7165 347.9257 L 198.9888 348.1393 L 199.2625 348.3511 L 199.5376 348.5610 L 199.8140 348.7692 L 200.0917 348.9756 L 200.3708 349.1802 L 200.6512 349.3830 L 200.9329 349.5840 L 201.2159 349.7831 L 201.5002 349.9804 L 201.7858 350.1759 L 202.0725 350.3696 L 202.3606 350.5614 L 202.6498 350.7513 L 202.9403 350.9394 L 203.2319 351.1257 L 203.5248 351.3101 L 203.8188 351.4926 L 204.1139 351.6732 L 204.4102 351.8520 L 204.7076 352.0288 L 205.0062 352.2038 L 205.3058 352.3769 L 205.6066 352.5481 L 205.9084 352.7174 L 206.2113 352.8847 L 206.5152 353.0502 L 206.8201 353.2137 L 207.1261 353.3754 L 207.4331 353.5350 L 207.7411 353.6928 L 208.0501 353.8486 L 208.3600 354.0025 L 208.6709 354.1545 L 208.9828 354.3045 L 209.2956 354.4525 L 209.6093 354.5986 L 209.9239 354.7427 L 210.2394 354.8849 L 210.5557 355.0251 L 210.8730 355.1633 L 211.1911 355.2996 L 211.5100 355.4338 L 211.8298 355.5661 L 212.1503 355.6964 L 212.4717 355.8247 L 212.7939 355.9511 L 213.1168 356.0754 L 213.4405 356.1977 L 213.7650 356.3180 L 214.0902 356.4363 L 214.4161 356.5526 L 214.7427 356.6669 L 215.0700 356.7792 L 215.3980 356.8895 L 215.7267 356.9977 L 216.0561 357.1039 L 216.3861 357.2081 L 216.7167 357.3103 L 217.0479 357.4104 L 217.3798 357.5085 L 217.7122 357.6045 L 218.0453 357.6985 L 218.3789 357.7905 L 218.7130 357.8804 L 219.0477 357.9682 L 219.3830 358.0540 L 219.7187 358.1378 L 220.0550 358.2195 L 220.3917 358.2991 L 220.7290 358.3767 L 221.0667 358.4522 L 221.4048 358.5257 L 221.7435 358.5971 L 222.0825 358.6664 L 222.4219 358.7336 L 222.7618 358.7988 L 223.1020 358.8619 L 223.4427 358.9229 L 223.7836 358.9818 L 224.1250 359.0387 L 224.4667 359.0935 L 224.8087 359.1461 L 225.1510 359.1967 L 225.4936 359.2453 L 225.8366 359.2917 L 226.1798 359.3360 L 226.5232 359.3782 L 226.8669 359.4184 L 227.2109 359.4564 L 227.5550 359.4924 L 227.8994 359.5262 L 228.2440 359.5580 L 228.5888 359.5876 L 228.9337 359.6152 L 229.2788 359.6406 L 229.6241 359.6639 L 229.9695 359.6852 L 230.3150 359.7043 L 230.6606 359.7213 L 231.0064 359.7362 L 231.3522 359.7490 L 231.6980 359.7597 L 232.0440 359.7683 L 232.3900 359.7747 L 232.7360 359.7791 L 233.0820 359.7813 L 233.4281 359.7815 L 233.7741 359.7795 L 234.1201 359.7754 L 234.4661 359.7691 L 234.8121 359.7608 L 235.1580 359.7503 L 235.5038 359.7378 L 235.8495 359.7231 L 236.1951 359.7063 L 236.5407 359.6874 L 236.8861 359.6663 L 237.2313 359.6432 L 237.5765 359.6179 L 237.9214 359.5905 L 238.2662 359.5610 L 238.6108 359.5293 L 238.9552 359.4956 L 239.2994 359.4597 L 239.6433 359.4217 L 239.9870 359.3816 L 240.3305 359.3394 L 240.6737 359.2951 L 241.0166 359.2486 L 241.3592 359.2000 L 241.7015 359.1494 L 242.0435 359.0966 L 242.3852 359.0416 L 242.7265 358.9846 L 243.0675 358.9255 L 243.4080 358.8642 L 243.7482 358.8008 L 244.0880 358.7354 L 244.4274 358.6678 L 244.7664 358.5981 L 245.1049 358.5263 L 245.4429 358.4524 L 245.7805 358.3763 L 246.1176 358.2982 L 246.4543 358.2180 L 246.7904 358.1357 L 247.1260 358.0512 L 247.4610 357.9647 L 247.7955 357.8761 L 248.1295 357.7853 L 248.4628 357.6925 L 248.7956 357.5976 L 249.1278 357.5006 L 249.4593 357.4015 L 249.7902 357.3003 L 250.1205 357.1970 L 250.4501 357.0916 L 250.7791 356.9842 L 251.1073 356.8747 L 251.4349 356.7631 L 251.7617 356.6494 L 252.0878 356.5336 L 252.4132 356.4158 L 252.7378 356.2959 L 253.0616 356.1739 L 253.3847 356.0498 L 253.7069 355.9237 L 254.0283 355.7956 L 254.3489 355.6653 L 254.6687 355.5330 L 254.9876 355.3987 L 255.3056 355.2623 L 255.6228 355.1239 L 255.9390 354.9834 L 256.2544 354.8408 L 256.5688 354.6963 L 256.8822 354.5497 L 257.1947 354.4010 L 257.5062 354.2503 L 257.8168 354.0976 L 258.1263 353.9429 L 258.4348 353.7862 L 258.7423 353.6274 L 259.0487 353.4666 L 259.3541 353.3039 L 259.6584 353.1391 L 259.9616 352.9723 L 260.2636 352.8035 L 260.5646 352.6327 L 260.8644 352.4599 L 261.1631 352.2851 L 261.4606 352.1084 L 261.7569 351.9297 L 262.0520 351.7490 L 262.3459 351.5663 L 262.6386 351.3817 L 262.9300 351.1951 L 263.2202 351.0065 L 263.5091 350.8160 L 263.7967 350.6236 L 264.0830 350.4292 L 264.3679 350.2328 L 264.6516 350.0346 L 264.9338 349.8344 L 265.2147 349.6323 L 265.4942 349.4283 L 265.7723 349.2223 L 266.0490 349.0145 L 266.3242 348.8048 L 266.5980 348.5931 L 266.8703 348.3796 L 267.1412 348.1642 L 267.4105 347.9470 L 267.6783 347.7278 L 267.9446 347.5068 L 268.2093 347.2839 L 268.4725 347.0592 L 268.7341 346.8327 L 268.9940 346.6043 L 269.2524 346.3741 L 269.5091 346.1420 L 269.7642 345.9082 L 270.0176 345.6725 L 270.2693 345.4350 L 270.5193 345.1958 L 270.7675 344.9547 L 271.0141 344.7119 L 271.2589 344.4673 L 271.5019 344.2209 L 271.7431 343.9728 L 271.9825 343.7230 L 272.2201 343.4714 L 272.4558 343.2180 L 272.6897 342.9630 L 272.9217 342.7062 L 273.1518 342.4478 L 273.3800 342.1876 L 273.6062 341.9258 L 273.8305 341.6623 L 274.0528 341.3971 L 274.2732 341.1303 L 274.4915 340.8618 L 274.7078 340.5917 L 274.9221 340.3199 L 275.1342 340.0466 L 275.3443 339.7716 L 275.5523 339.4950 L 275.7582 339.2169 L 275.9620 338.9372 L 276.1635 338.6559 L 276.3629 338.3731 L 276.5601 338.0887 L 276.7551 337.8029 L 276.9479 337.5155 L 277.1384 337.2266 L 277.3266 336.9362 L 277.5125 336.6443 L 277.6961 336.3510 L 277.8774 336.0562 L 278.0563 335.7600 L 278.2328 335.4624 L 278.4069 335.1634 L 278.5787 334.8629 L 278.7480 334.5611 L 278.9148 334.2579 L 279.0791 333.9534 L 279.2410 333.6476 L 279.4003 333.3404 L 279.5571 333.0319 L 279.7113 332.7221 L 279.8630 332.4111 L 280.0120 332.0987 L 280.1584 331.7852 L 280.3022 331.4704 L 280.4433 331.1545 L 280.5817 330.8373 L 280.7174 330.5190 L 280.8503 330.1995 L 280.9805 329.8789 L 281.1080 329.5572 L 281.2326 329.2343 L 281.3544 328.9104 L 281.4734 328.5855 L 281.5895 328.2595 L 281.7027 327.9325 L 281.8130 327.6045 L 281.9203 327.2755 L 282.0248 326.9456 L 282.1262 326.6148 L 282.2246 326.2830 L 282.3200 325.9504 L 282.4124 325.6169 L 282.5017 325.2826 L 282.5879 324.9474 L 282.6710 324.6115 L 282.7509 324.2748 L 282.8277 323.9374 L 282.9013 323.5993 L 282.9717 323.2605 L 283.0388 322.9210 L 283.1027 322.5809 L 283.1633 322.2402 L 283.2206 321.8989 L 283.2746 321.5571 L 283.3252 321.2148 L 283.3725 320.8720 L 283.4163 320.5288 L 283.4568 320.1851 L 283.4937 319.8410 L 283.5272 319.4966 L 283.5573 319.1519 L 283.5838 318.8068 L 283.6067 318.4615 L 283.6261 318.1160 L 283.6419 317.7704 L 283.6541 317.4245 L 283.6626 317.0786 L 283.6675 316.7326 L 283.6687 316.3865 L 283.6662 316.0405 L 283.6599 315.6945 L 283.6499 315.3486 L 283.6362 315.0028 L 283.6186 314.6573 L 283.5972 314.3119 L 283.5719 313.9667 L 283.5428 313.6219 L 283.5098 313.2775 L 283.4728 312.9334 L 283.4319 312.5898 L 283.3871 312.2467 L 283.3383 311.9041 L 283.2854 311.5621 L 283.2286 311.2207 L 283.1677 310.8801 L 283.1027 310.5402 L 283.0336 310.2011 L 282.9605 309.8629 L 282.8832 309.5256 L 282.8017 309.1893 L 282.7161 308.8540 L 282.6263 308.5198 L 282.5323 308.1868 L 282.4341 307.8550 L 282.3317 307.5244 L 282.2250 307.1952 L 282.1140 306.8675 L 281.9988 306.5412 L 281.8792 306.2164 L 281.7554 305.8933 L 281.6272 305.5719 L 281.4947 305.2522 L 281.3579 304.9344 L 281.2167 304.6185 L 281.0711 304.3045 L 280.9212 303.9926 L 280.7669 303.6829 L 280.6082 303.3754 L 280.4452 303.0702 L 280.2777 302.7673 L 280.1059 302.4670 L 279.9296 302.1692 L 279.7490 301.8740 L 279.5640 301.5816 L 279.3746 301.2920 L 279.1809 301.0052 L 278.9828 300.7215 L 278.7803 300.4409 L 278.5735 300.1635 L 278.3623 299.8893 L 278.1469 299.6185 L 277.9271 299.3512 L 277.7031 299.0875 L 277.4748 298.8274 L 277.2423 298.5711 L 277.0056 298.3187 L 276.7647 298.0703 L 276.5197 297.8259 L 276.2705 297.5858 L 276.0173 297.3499 L 275.7601 297.1184 L 275.4989 296.8914 L 275.2338 296.6690 L 274.9648 296.4513 L 274.6920 296.2385 L 274.4154 296.0306 L 274.1351 295.8277 L 273.8511 295.6299 L 273.5636 295.4374 L 273.2725 295.2502 L 272.9781 295.0684 L 272.6802 294.8923 L 272.3791 294.7217 L 272.0748 294.5570 L 271.7674 294.3981 L 271.4570 294.2451 L 271.1437 294.0983 L 270.8276 293.9575 L 270.5087 293.8230 L 270.1873 293.6949 L 269.8634 293.5731 L 269.5371 293.4579 L 269.2085 293.3492 L 268.8779 293.2473 L 268.5452 293.1521 L 268.2106 293.0636 L 267.8743 292.9821 L 267.5364 292.9076 L 267.1970 292.8400 L 266.8563 292.7795 L 266.5144 292.7262 L 266.1715 292.6800 L 265.8276 292.6410 L 265.4831 292.6093 L 265.1379 292.5849 L 264.7923 292.5678 L 264.4464 292.5580 L 264.1003 292.5556 L 263.7543 292.5605 L 263.4085 292.5729 L 263.0630 292.5926 L 262.7181 292.6197 L 262.3737 292.6541 L 262.0302 292.6959 L 261.6877 292.7450 L 261.3463 292.8014 L 261.0062 292.8651 L 260.6675 292.9360 L 260.3303 293.0142 L 259.9950 293.0994 L 259.6615 293.1918 L 259.3300 293.2911 L 259.0007 293.3975 L 258.6738 293.5107 L 258.3492 293.6308 L 258.0273 293.7577 L 257.7080 293.8912 L 257.3916 294.0313 L 257.0782 294.1779 L 256.7678 294.3310 L 256.4607 294.4904 L 256.1568 294.6560 L 255.8564 294.8277 L 255.5595 295.0055 L 255.2663 295.1891 L 254.9767 295.3786 L 254.6910 295.5738 L 254.4092 295.7746 L 254.1313 295.9809 L 253.8576 296.1926 L 253.5879 296.4095 L 253.3225 296.6315 L 253.0614 296.8586 L 252.8047 297.0906 L 252.5523 297.3274 L 252.3044 297.5688 L 252.0611 297.8148 L 251.8223 298.0652 L 251.5881 298.3200 L 251.3586 298.5790 L 251.1337 298.8420 L 250.9136 299.1090 L 250.6983 299.3799 L 250.4877 299.6545 L 250.2820 299.9328 L 250.0811 300.2145 L 249.8851 300.4997 L 249.6939 300.7881 L 249.5076 301.0798 L 249.3263 301.3745 L 249.1498 301.6721 L 248.9783 301.9727 L 248.8117 302.2760 L 248.6500 302.5819 L 248.4932 302.8904 L 248.3413 303.2013 L 248.1944 303.5147 L 248.0524 303.8302 L 247.9153 304.1479 L 247.7831 304.4677 L 247.6558 304.7895 L 247.5333 305.1131 L 247.4158 305.4386 L 247.3030 305.7658 L 247.1951 306.0946 L 247.0920 306.4249 L 246.9937 306.7567 L 246.9002 307.0898 L 246.8115 307.4243 L 246.7274 307.7600 L 246.6481 308.0968 L 246.5735 308.4347 L 246.5036 308.7736 L 246.4382 309.1135 L 246.3775 309.4541 L 246.3214 309.7956 L 246.2699 310.1378 L 246.2229 310.4806 L 246.1804 310.8240 L 246.1423 311.1680 L 246.1088 311.5124 L 246.0796 311.8572 L 246.0549 312.2024 L 246.0345 312.5478 L 246.0184 312.8935 L 246.0067 313.2393 L 245.9992 313.5853 L 245.9960 313.9313 L 245.9970 314.2774 L 246.0021 314.6234 L 246.0114 314.9693 L 246.0249 315.3151 L 246.0424 315.6607 L 246.0640 316.0060 L 246.0896 316.3511 L 246.1191 316.6959 L 246.1527 317.0403 L 246.1902 317.3843 L 246.2316 317.7279 L 246.2768 318.0710 L 246.3259 318.4135 L 246.3788 318.7555 L 246.4354 319.0969 L 246.4958 319.4376 L 246.5599 319.7777 L 246.6277 320.1170 L 246.6991 320.4556 L 246.7741 320.7934 L 246.8527 321.1304 L 246.9349 321.4666 L 247.0205 321.8018 L 247.1097 322.1362 L 247.2023 322.4696 L 247.2984 322.8020 L 247.3978 323.1335 L 247.5007 323.4639 L 247.6068 323.7933 L 247.7163 324.1216 L 247.8290 324.4487 L 247.9450 324.7748 L 248.0642 325.0996 L 248.1865 325.4233 L 248.3121 325.7458 L 248.4407 326.0670 L 248.5725 326.3870 L 248.7073 326.7057 L 248.8452 327.0231 L 248.9861 327.3392 L 249.1299 327.6539 L 249.2768 327.9672 L 249.4265 328.2792 L 249.5791 328.5898 L 249.7346 328.8989 L 249.8930 329.2066 L 250.0542 329.5128 L 250.2181 329.8175 L 250.3848 330.1208 L 250.5543 330.4225 L 250.7264 330.7227 L 250.9013 331.0213 L 251.0788 331.3184 L 251.2589 331.6138 L 251.4416 331.9077 L 251.6269 332.2000 L 251.8147 332.4906 L 252.0051 332.7796 L 252.1979 333.0669 L 252.3933 333.3526 L 252.5910 333.6365 L 252.7912 333.9188 L 252.9938 334.1993 L 253.1988 334.4781 L 253.4061 334.7552 L 253.6157 335.0305 L 253.8276 335.3041 L 254.0418 335.5759 L 254.2583 335.8459 L 254.4770 336.1141 L 254.6978 336.3804 L 254.9209 336.6450 L 255.1461 336.9077 L 255.3735 337.1686 L 255.6029 337.4277 L 255.8344 337.6848 L 256.0680 337.9401 L 256.3037 338.1936 L 256.5413 338.4451 L 256.7810 338.6947 L 257.0226 338.9425 L 257.2661 339.1883 L 257.5116 339.4321 L 257.7590 339.6741 L 258.0083 339.9141 L 258.2595 340.1522 L 258.5125 340.3883 L 258.7673 340.6224 L 259.0239 340.8546 L 259.2823 341.0848 L 259.5424 341.3130 L 259.8043 341.5392 L 260.0678 341.7634 L 260.3331 341.9856 L 260.6001 342.2058 L 260.8687 342.4240 L 261.1389 342.6401 L 261.4108 342.8542 L 261.6842 343.0663 L 261.9592 343.2763 L 262.2358 343.4843 L 262.5139 343.6903 L 262.7935 343.8942 L 263.0746 344.0960 L 263.3571 344.2957 L 263.6412 344.4934 L 263.9266 344.6890 L 264.2135 344.8825 L 264.5018 345.0740 L 264.7914 345.2633 L 265.0824 345.4505 L 265.3748 345.6357 L 265.6684 345.8187 L 265.9634 345.9997 L 266.2597 346.1785 L 266.5572 346.3552 L 266.8560 346.5298 L 267.1560 346.7023 L 267.4572 346.8726 L 267.7596 347.0409 L 268.0632 347.2069 L 268.3679 347.3709 L 268.6738 347.5327 L 268.9808 347.6924 L 269.2889 347.8499 L 269.5981 348.0053 L 269.9083 348.1586 L 270.2197 348.3097 L 270.5320 348.4586 L 270.8454 348.6054 L 271.1598 348.7500 L 271.4751 348.8925 L 271.7914 349.0328 L 272.1087 349.1709 L 272.4269 349.3069 L 272.7461 349.4407 L 273.0661 349.5724 L 273.3870 349.7018 L 273.7088 349.8291 L 274.0314 349.9542 L 274.3549 350.0772 L 274.6792 350.1980 L 275.0043 350.3166 L 275.3301 350.4330 L 275.6568 350.5472 L 275.9842 350.6593 L 276.3123 350.7692 L 276.6412 350.8768 L 276.9707 350.9824 L 277.3010 351.0857 L 277.6319 351.1868 L 277.9635 351.2858 L 278.2958 351.3825 L 278.6286 351.4771 L 278.9621 351.5695 L 279.2962 351.6597 L 279.6309 351.7477 L 279.9661 351.8336 L 280.3019 351.9172 L 280.6382 351.9986 L 280.9751 352.0779 L 281.3124 352.1550 L 281.6503 352.2299 L 281.9886 352.3026 L 282.3274 352.3731 L 282.6666 352.4414 L 283.0063 352.5075 L 283.3464 352.5715 L 283.6868 352.6332 L 284.0277 352.6928 L 284.3690 352.7502 L 284.7106 352.8054 L 285.0526 352.8584 L 285.3948 352.9092 L 285.7375 352.9578 L 286.0804 353.0043 L 286.4236 353.0486 L 286.7670 353.0907 L 287.1108 353.1306 L 287.4548 353.1683 L 287.7990 353.2039 L 288.1434 353.2372 L 288.4880 353.2685 L 288.8329 353.2975 L 289.1779 353.3243 L 289.5230 353.3490 L 289.8683 353.3715 L 290.2138 353.3918 L 290.5594 353.4100 L 290.9050 353.4260 L 291.2508 353.4398 L 291.5967 353.4515 L 291.9426 353.4610 L 292.2885 353.4684 L 292.6345 353.4735 L 292.9806 353.4766 L 293.3266 353.4774 L 293.6727 353.4761 L 294.0187 353.4727 L 294.3647 353.4671 L 294.7107 353.4594 L 295.0566 353.4495 L 295.4024 353.4375 L 295.7481 353.4233 L 296.0938 353.4070 L 296.4394 353.3885 L 296.7848 353.3679 L 297.1301 353.3452 L 297.4752 353.3204 L 297.8202 353.2934 L 298.1651 353.2643 L 298.5097 353.2330 L 298.8541 353.1997 L 299.1983 353.1642 L 299.5423 353.1266 L 299.8861 353.0869 L 300.2296 353.0451 L 300.5728 353.0011 L 300.9158 352.9551 L 301.2585 352.9069 L 301.6009 352.8567 L 301.9429 352.8043 L 302.2847 352.7499 L 302.6261 352.6934 L 302.9671 352.6348 L 303.3078 352.5740 L 303.6481 352.5113 L 303.9880 352.4464 L 304.3275 352.3794 L 304.6666 352.3104 L 305.0053 352.2393 L 305.3435 352.1661 L 305.6813 352.0909 L 306.0186 352.0136 L 306.3554 351.9343 L 306.6917 351.8529 L 307.0276 351.7694 L 307.3629 351.6839 L 307.6977 351.5964 L 308.0319 351.5068 L 308.3656 351.4152 L 308.6987 351.3215 L 309.0313 351.2258 L 309.3633 351.1281 L 309.6946 351.0284 L 310.0254 350.9266 L 310.3555 350.8229 L 310.6850 350.7171 L 311.0138 350.6093 L 311.3420 350.4995 L 311.6695 350.3877 L 311.9963 350.2740 L 312.3224 350.1582 L 312.6478 350.0404 L 312.9724 349.9207 L 313.2964 349.7990 L 313.6196 349.6753 L 313.9420 349.5497 L 314.2636 349.4220 L 314.5845 349.2925 L 314.9046 349.1609 L 315.2238 349.0274 L 315.5423 348.8920 L 315.8599 348.7546 L 316.1766 348.6153 L 316.4926 348.4741 L 316.8076 348.3309 L 317.1217 348.1858 L 317.4350 348.0388 L 317.7474 347.8898 L 318.0588 347.7390 L 318.3693 347.5863 L 318.6789 347.4316 L 318.9875 347.2751 L 319.2952 347.1167 L 319.6018 346.9563 L 319.9075 346.7942 L 320.2122 346.6301 L 320.5159 346.4642 L 320.8185 346.2964 L 321.1201 346.1267 L 321.4207 345.9553 L 321.7202 345.7819 L 322.0186 345.6067 L 322.3160 345.4297 L 322.6122 345.2509 L 322.9073 345.0702 L 323.2014 344.8877 L 323.4942 344.7034 L 323.7860 344.5173 L 324.0766 344.3294 L 324.3660 344.1397 L 324.6542 343.9482 L 324.9413 343.7549 L 325.2271 343.5599 L 325.5117 343.3631 L 325.7951 343.1645 L 326.0773 342.9641 L 326.3582 342.7621 L 326.6378 342.5582 L 326.9162 342.3527 L 327.1933 342.1453 L 327.4690 341.9363 L 327.7435 341.7256 L 328.0166 341.5131 L 328.2884 341.2989 L 328.5589 341.0831 L 328.8280 340.8655 L 329.0957 340.6463 L 329.3621 340.4254 L 329.6270 340.2028 L 329.8906 339.9785 L 330.1527 339.7526 L 330.4134 339.5250 L 330.6727 339.2958 L 330.9305 339.0650 L 331.1868 338.8325 L 331.4417 338.5984 L 331.6950 338.3627 L 331.9469 338.1254 L 332.1972 337.8865 L 332.4461 337.6461 L 332.6934 337.4040 L 332.9391 337.1603 L 333.1833 336.9151 L 333.4258 336.6684 L 333.6669 336.4200 L 333.9063 336.1702 L 334.1441 335.9188 L 334.3802 335.6659 L 334.6148 335.4114 L 334.8477 335.1555 L 335.0789 334.8981 L 335.3085 334.6391 L 335.5364 334.3787 L 335.7626 334.1168 L 335.9870 333.8534 L 336.2098 333.5886 L 336.4308 333.3224 L 336.6501 333.0547 L 336.8676 332.7856 L 337.0834 332.5150 L 337.2974 332.2431 L 337.5096 331.9697 L 337.7199 331.6949 L 337.9285 331.4188 L 338.1352 331.1413 L 338.3401 330.8624 L 338.5432 330.5822 L 338.7443 330.3007 L 338.9436 330.0178 L 339.1411 329.7336 L 339.3366 329.4480 L 339.5301 329.1612 L 339.7218 328.8731 L 339.9115 328.5837 L 340.0993 328.2930 L 340.2851 328.0011 L 340.4689 327.7079 L 340.6508 327.4135 L 340.8306 327.1178 L 341.0084 326.8210 L 341.1842 326.5229 L 341.3580 326.2237 L 341.5297 325.9232 L 341.6993 325.6216 L 341.8669 325.3188 L 342.0324 325.0149 L 342.1957 324.7099 L 342.3570 324.4037 L 342.5161 324.0964 L 342.6731 323.7880 L 342.8280 323.4786 L 342.9807 323.1680 L 343.1312 322.8564 L 343.2795 322.5438 L 343.4256 322.2301 L 343.5695 321.9154 L 343.7112 321.5997 L 343.8506 321.2829 L 343.9878 320.9653 L 344.1227 320.6466 L 344.2553 320.3270 L 344.3857 320.0064 L 344.5137 319.6849 L 344.6394 319.3625 L 344.7628 319.0392 L 344.8839 318.7151 L 345.0026 318.3900 L 345.1189 318.0641 L 345.2329 317.7374 L 345.3445 317.4098 L 345.4536 317.0814 L 345.5603 316.7522 L 345.6647 316.4223 L 345.7665 316.0916 L 345.8659 315.7601 L 345.9629 315.4279 L 346.0573 315.0950 L 346.1493 314.7614 L 346.2387 314.4271 L 346.3257 314.0922 L 346.4101 313.7566 L 346.4919 313.4204 L 346.5712 313.0835 L 346.6479 312.7461 L 346.7221 312.4081 L 346.7936 312.0695 L 346.8625 311.7304 L 346.9288 311.3908 L 346.9925 311.0506 L 347.0535 310.7100 L 347.1118 310.3689 L 347.1675 310.0274 L 347.2205 309.6854 L 347.2708 309.3430 L 347.3183 309.0003 L 347.3632 308.6572 L 347.4053 308.3137 L 347.4446 307.9699 L 347.4812 307.6258 L 347.5150 307.2814 L 347.5460 306.9367 L 347.5742 306.5918 L 347.5996 306.2467 L 347.6221 305.9014 L 347.6418 305.5559 L 347.6587 305.2103 L 347.6727 304.8645 L 347.6838 304.5187 L 347.6920 304.1727 L 347.6973 303.8267 L 347.6997 303.4807 L 347.6991 303.1346 L 347.6956 302.7886 L 347.6892 302.4426 L 347.6798 302.0967 L 347.6674 301.7509 L 347.6520 301.4052 L 347.6336 301.0596 L 347.6121 300.7142 L 347.5877 300.3691 L 347.5602 300.0241 L 347.5296 299.6794 L 347.4960 299.3350 L 347.4593 298.9909 L 347.4196 298.6472 L 347.3767 298.3038 L 347.3307 297.9608 L 347.2816 297.6183 L 347.2293 297.2762 L 347.1739 296.9346 L 347.1153 296.5936 L 347.0536 296.2531 L 346.9887 295.9132 L 346.9206 295.5739 L 346.8492 295.2353 L 346.7747 294.8974 L 346.6970 294.5602 L 346.6160 294.2237 L 346.5317 293.8881 L 346.4443 293.5533 L 346.3535 293.2194 L 346.2595 292.8863 L 346.1622 292.5542 L 346.0616 292.2231 L 345.9577 291.8931 L 345.8505 291.5640 L 345.7400 291.2361 L 345.6261 290.9094 L 345.5089 290.5838 L 345.3884 290.2594 L 345.2645 289.9363 L 345.1373 289.6145 L 345.0067 289.2940 L 344.8727 288.9749 L 344.7354 288.6573 L 344.5947 288.3412 L 344.4505 288.0266 L 344.3030 287.7135 L 344.1521 287.4021 L 343.9978 287.0924 L 343.8401 286.7844 L 343.6790 286.4781 L 343.5145 286.1737 L 343.3466 285.8711 L 343.1752 285.5705 L 343.0004 285.2718 L 342.8222 284.9752 L 342.6406 284.6806 L 342.4556 284.3882 L 342.2672 284.0980 L 342.0753 283.8100 L 341.8800 283.5243 L 341.6814 283.2410 L 341.4793 282.9601 L 341.2738 282.6816 L 341.0649 282.4058 L 340.8526 282.1325 L 340.6370 281.8618 L 340.4180 281.5939 L 340.1956 281.3288 L 339.9698 281.0665 L 339.7408 280.8072 L 339.5083 280.5508 L 339.2726 280.2975 L 339.0336 280.0472 L 338.7912 279.8002 L 338.5456 279.5564 L 338.2968 279.3160 L 338.0447 279.0789 L 337.7894 278.8453 L 337.5309 278.6153 L 337.2692 278.3888 L 337.0044 278.1661 L 336.7365 277.9471 L 336.4655 277.7319 L 336.1914 277.5206 L 335.9143 277.3134 L 335.6342 277.1102 L 335.3512 276.9111 L 335.0652 276.7163 L 334.7763 276.5257 L 334.4846 276.3396 L 334.1901 276.1579 L 333.8929 275.9807 L 333.5929 275.8082 L 333.2903 275.6403 L 332.9851 275.4773 L 332.6773 275.3191 L 332.3670 275.1659 L 332.0544 275.0176 L 331.7393 274.8745 L 331.4219 274.7366 L 331.1023 274.6040 L 330.7805 274.4767 L 330.4566 274.3549 L 330.1307 274.2386 L 329.8029 274.1278 L 329.4732 274.0228 L 329.1417 273.9235 L 328.8085 273.8300 L 328.4737 273.7424 L 328.1374 273.6608 L 327.7997 273.5853 L 327.4607 273.5159 L 327.1205 273.4527 L 326.7792 273.3958 L 326.4369 273.3452 L 326.0937 273.3009 L 325.7497 273.2632 L 325.4051 273.2319 L 325.0599 273.2073 L 324.7143 273.1893 L 324.3685 273.1779 L 324.0225 273.1733 L 323.6764 273.1754 L 323.3305 273.1844 L 322.9848 273.2003 L 322.6395 273.2230 L 322.2948 273.2526 L 321.9507 273.2892 L 321.6074 273.3327 L 321.2650 273.3833 L 320.9238 273.4408 L 320.5839 273.5053 L 320.2453 273.5769 L 319.9083 273.6554 L 319.5730 273.7409 L 319.2395 273.8335 L 318.9081 273.9330 L 318.5789 274.0394 L 318.2519 274.1528 L 317.9274 274.2730 L 317.6056 274.4002 L 317.2865 274.5341 L 316.9704 274.6747 L 316.6573 274.8221 L 316.3474 274.9761 L 316.0409 275.1367 L 315.7379 275.3038 L 315.4385 275.4774 L 315.1429 275.6573 L 314.8512 275.8434 L 314.5635 276.0358 L 314.2800 276.2342 L 314.0009 276.4386 L 313.7261 276.6490 L 313.4558 276.8651 L 313.1902 277.0869 L 312.9293 277.3142 L 312.6733 277.5470 L 312.4222 277.7852 L 312.1762 278.0285 L 311.9353 278.2769 L 311.6996 278.5303 L 311.4693 278.7885 L 311.2443 279.0514 L 311.0247 279.3189 L 310.8107 279.5908 L 310.6023 279.8670 L 310.3995 280.1474 L 310.2023 280.4318 L 310.0109 280.7201 L 309.8253 281.0122 L 309.6456 281.3078 L 309.4716 281.6070 L 309.3036 281.9095 L 309.1414 282.2152 L 308.9852 282.5240 L 308.8350 282.8357 L 308.6907 283.1502 L 308.5524 283.4674 L 308.4200 283.7871 L 308.2937 284.1093 L 308.1733 284.4337 L 308.0589 284.7603 L 307.9505 285.0889 L 307.8480 285.4194 L 307.7515 285.7517 L 307.6609 286.0857 L 307.5762 286.4212 L 307.4974 286.7582 L 307.4245 287.0964 L 307.3574 287.4359 L 307.2961 287.7765 L 307.2407 288.1181 L 307.1909 288.4605 L 307.1469 288.8037 L 307.1086 289.1477 L 307.0759 289.4922 L 307.0488 289.8371 L 307.0273 290.1825 L 307.0113 290.5282 L 307.0008 290.8741 L 306.9957 291.2201 L 306.9960 291.5661 L 307.0017 291.9121 L 307.0126 292.2580 L 307.0288 292.6036 L 307.0503 292.9490 L 307.0769 293.2940 L 307.1085 293.6386 L 307.1453 293.9827 L 307.1871 294.3262 L 307.2338 294.6691 L 307.2854 295.0113 L 307.3419 295.3527 L 307.4032 295.6932 L 307.4692 296.0329 L 307.5400 296.3717 L 307.6154 296.7094 L 307.6954 297.0461 L 307.7799 297.3816 L 307.8690 297.7160 L 307.9625 298.0492 L 308.0603 298.3811 L 308.1626 298.7117 L 308.2691 299.0409 L 308.3798 299.3688 L 308.4948 299.6952 L 308.6138 300.0201 L 308.7370 300.3435 L 308.8642 300.6653 L 308.9954 300.9855 L 309.1305 301.3041 L 309.2695 301.6209 L 309.4124 301.9361 L 309.5590 302.2496 L 309.7094 302.5612 L 309.8635 302.8711 L 310.0212 303.1791 L 310.1825 303.4852 L 310.3474 303.7895 L 310.5158 304.0918 L 310.6876 304.3922 L 310.8628 304.6906 L 311.0414 304.9870 L 311.2233 305.2813 L 311.4085 305.5737 L 311.5969 305.8639 L 311.7885 306.1521 L 311.9833 306.4381 L 312.1811 306.7220 L 312.3820 307.0038 L 312.5859 307.2834 L 312.7928 307.5608 L 313.0026 307.8359 L 313.2153 308.1089 L 313.4308 308.3796 L 313.6492 308.6481 L 313.8703 308.9143 L 314.0941 309.1782 L 314.3206 309.4398 L 314.5498 309.6991 L 314.7815 309.9561 L 315.0158 310.2107 L 315.2527 310.4630 L 315.4920 310.7129 L 315.7338 310.9605 L 315.9780 311.2057 L 316.2246 311.4484 L 316.4736 311.6888 L 316.7248 311.9268 L 316.9783 312.1623 L 317.2341 312.3954 L 317.4920 312.6261 L 317.7521 312.8543 L 318.0144 313.0801 L 318.2787 313.3034 L 318.5451 313.5242 L 318.8136 313.7426 L 319.0840 313.9585 L 319.3564 314.1719 L 319.6308 314.3828 L 319.9070 314.5913 L 320.1851 314.7972 L 320.4650 315.0006 L 320.7468 315.2015 L 321.0303 315.3999 L 321.3156 315.5958 L 321.6026 315.7891 L 321.8913 315.9799 L 322.1816 316.1683 L 322.4735 316.3540 L 322.7671 316.5373 L 323.0622 316.7180 L 323.3589 316.8961 L 323.6570 317.0718 L 323.9567 317.2448 L 324.2578 317.4154 L 324.5603 317.5834 L 324.8642 317.7488 L 325.1695 317.9117 L 325.4762 318.0721 L 325.7841 318.2299 L 326.0934 318.3852 L 326.4039 318.5379 L 326.7157 318.6880 L 327.0287 318.8356 L 327.3429 318.9807 L 327.6582 319.1232 L 327.9747 319.2632 L 328.2923 319.4006 L 328.6109 319.5354 L 328.9307 319.6678 L 329.2515 319.7975 L 329.5733 319.9248 L 329.8961 320.0495 L 330.2199 320.1716 L 330.5446 320.2912 L 330.8702 320.4083 L 331.1968 320.5228 L 331.5242 320.6348 L 331.8525 320.7442 L 332.1816 320.8512 L 332.5115 320.9556 L 332.8422 321.0574 L 333.1737 321.1568 L 333.5059 321.2536 L 333.8389 321.3479 L 334.1725 321.4397 L 334.5069 321.5289 L 334.8418 321.6157 L 335.1775 321.6999 L 335.5137 321.7817 L 335.8506 321.8609 L 336.1880 321.9376 L 336.5260 322.0119 L 336.8645 322.0836 L 337.2036 322.1529 L 337.5431 322.2196 L 337.8831 322.2839 L 338.2236 322.3457 L 338.5645 322.4050 L 338.9059 322.4619 L 339.2476 322.5162 L 339.5898 322.5682 L 339.9323 322.6176 L 340.2751 322.6646 L 340.6183 322.7092 L 340.9617 322.7513 L 341.3055 322.7909 L 341.6495 322.8281 L 341.9938 322.8629 L 342.3384 322.8952 L 342.6831 322.9251 L 343.0281 322.9526 L 343.3732 322.9777 L 343.7185 323.0003 L 344.0640 323.0206 L 344.4095 323.0384 L 344.7552 323.0539 L 345.1010 323.0669 L 345.4469 323.0775 L 345.7929 323.0858 L 346.1389 323.0917 L 346.4849 323.0952 L 346.8309 323.0963 L 347.1770 323.0951 L 347.5230 323.0915 L 347.8690 323.0855 L 348.2149 323.0772 L 348.5608 323.0666 L 348.9066 323.0536 L 349.2523 323.0383 L 349.5979 323.0206 L 349.9434 323.0007 L 350.2887 322.9784 L 350.6339 322.9537 L 350.9789 322.9268 L 351.3237 322.8976 L 351.6683 322.8661 L 352.0127 322.8323 L 352.3569 322.7962 L 352.7008 322.7578 L 353.0444 322.7171 L 353.3878 322.6742 L 353.7309 322.6290 L 354.0736 322.5816 L 354.4161 322.5319 L 354.7582 322.4799 L 355.1000 322.4257 L 355.4414 322.3693 L 355.7825 322.3107 L 356.1231 322.2498 L 356.4634 322.1867 L 356.8032 322.1214 L 357.1426 322.0539 L 357.4815 321.9842 L 357.8200 321.9123 L 358.1581 321.8382 L 358.4956 321.7620 L 358.8326 321.6836 L 359.1692 321.6030 L 359.5052 321.5202 L 359.8406 321.4353 L 360.1755 321.3482 L 360.5099 321.2590 L 360.8437 321.1677 L 361.1769 321.0742 L 361.5094 320.9786 L 361.8414 320.8809 L 362.1727 320.7811 L 362.5034 320.6792 L 362.8335 320.5752 L 363.1629 320.4691 L 363.4916 320.3609 L 363.8196 320.2507 L 364.1469 320.1384 L 364.4735 320.0240 L 364.7993 319.9075 L 365.1245 319.7890 L 365.4488 319.6685 L 365.7724 319.5459 L 366.0953 319.4213 L 366.4173 319.2947 L 366.7386 319.1661 L 367.0590 319.0354 L 367.3786 318.9028 L 367.6974 318.7681 L 368.0153 318.6315 L 368.3324 318.4929 L 368.6486 318.3523 L 368.9639 318.2098 L 369.2784 318.0653 L 369.5919 317.9188 L 369.9045 317.7704 L 370.2162 317.6201 L 370.5269 317.4678 L 370.8367 317.3136 L 371.1456 317.1575 L 371.4534 316.9995 L 371.7603 316.8396 L 372.0662 316.6778 L 372.3711 316.5141 L 372.6750 316.3486 L 372.9778 316.1811 L 373.2796 316.0118 L 373.5803 315.8407 L 373.8800 315.6677 L 374.1787 315.4928 L 374.4762 315.3161 L 374.7727 315.1376 L 375.0680 314.9573 L 375.3623 314.7752 L 375.6554 314.5913 L 375.9474 314.4055 L 376.2382 314.2180 L 376.5279 314.0287 L 376.8164 313.8377 L 377.1037 313.6448 L 377.3899 313.4503 L 377.6749 313.2539 L 377.9586 313.0559 L 378.2411 312.8561 L 378.5225 312.6546 L 378.8025 312.4513 L 379.0814 312.2464 L 379.3589 312.0397 L 379.6352 311.8314 L 379.9103 311.6214 L 380.1840 311.4097 L 380.4564 311.1963 L 380.7276 310.9813 L 380.9974 310.7646 L 381.2659 310.5463 L 381.5331 310.3264 L 381.7989 310.1048 L 382.0633 309.8816 L 382.3264 309.6568 L 382.5881 309.4304 L 382.8484 309.2025 L 383.1074 308.9729 L 383.3649 308.7417 L 383.6210 308.5090 L 383.8757 308.2748 L 384.1290 308.0390 L 384.3808 307.8016 L 384.6312 307.5627 L 384.8801 307.3223 L 385.1275 307.0804 L 385.3735 306.8370 L 385.6179 306.5921 L 385.8609 306.3457 L 386.1023 306.0978 L 386.3423 305.8484 L 386.5807 305.5976 L 386.8176 305.3454 L 387.0529 305.0917 L 387.2867 304.8365 L 387.5189 304.5800 L 387.7496 304.3220 L 387.9786 304.0626 L 388.2061 303.8019 L 388.4320 303.5397 L 388.6562 303.2762 L 388.8789 303.0113 L 389.0999 302.7450 L 389.3193 302.4774 L 389.5370 302.2084 L 389.7531 301.9381 L 389.9676 301.6665 L 390.1803 301.3936 L 390.3914 301.1194 L 390.6008 300.8439 L 390.8085 300.5671 L 391.0145 300.2891 L 391.2188 300.0098 L 391.4213 299.7292 L 391.6222 299.4474 L 391.8213 299.1644 L 392.0186 298.8801 L 392.2142 298.5946 L 392.4080 298.3079 L 392.6000 298.0201 L 392.7903 297.7310 L 392.9787 297.4408 L 393.1654 297.1494 L 393.3503 296.8569 L 393.5333 296.5632 L 393.7145 296.2684 L 393.8939 295.9725 L 394.0714 295.6755 L 394.2471 295.3773 L 394.4210 295.0781 L 394.5929 294.7778 L 394.7630 294.4765 L 394.9312 294.1741 L 395.0976 293.8706 L 395.2620 293.5661 L 395.4245 293.2606 L 395.5851 292.9541 L 395.7437 292.6465 L 395.9005 292.3380 L 396.0553 292.0285 L 396.2081 291.7181 L 396.3590 291.4067 L 396.5079 291.0943 L 396.6549 290.7810 L 396.7999 290.4668 L 396.9429 290.1517 L 397.0838 289.8357 L 397.2228 289.5188 L 397.3598 289.2010 L 397.4948 288.8823 L 397.6277 288.5628 L 397.7586 288.2425 L 397.8874 287.9213 L 398.0142 287.5994 L 398.1390 287.2766 L 398.2616 286.9530 L 398.3822 286.6286 L 398.5007 286.3035 L 398.6172 285.9777 L 398.7315 285.6510 L 398.8437 285.3237 L 398.9538 284.9956 L 399.0618 284.6669 L 399.1677 284.3374 L 399.2714 284.0073 L 399.3730 283.6765 L 399.4724 283.3450 L 399.5697 283.0129 L 399.6648 282.6802 L 399.7577 282.3469 L 399.8485 282.0130 L 399.9370 281.6784 L 400.0234 281.3433 L 400.1076 281.0077 L 400.1895 280.6715 L 400.2693 280.3348 L 400.3468 279.9975 L 400.4221 279.6597 L 400.4951 279.3215 L 400.5659 278.9828 L 400.6345 278.6436 L 400.7008 278.3040 L 400.7648 277.9639 L 400.8265 277.6234 L 400.8860 277.2825 L 400.9432 276.9412 L 400.9980 276.5995 L 401.0506 276.2575 L 401.1009 275.9151 L 401.1488 275.5724 L 401.1945 275.2294 L 401.2378 274.8861 L 401.2787 274.5425 L 401.3174 274.1986 L 401.3536 273.8544 L 401.3876 273.5101 L 401.4191 273.1655 L 401.4483 272.8206 L 401.4751 272.4756 L 401.4995 272.1305 L 401.5215 271.7851 L 401.5412 271.4396 L 401.5584 271.0940 L 401.5732 270.7483 L 401.5856 270.4025 L 401.5956 270.0566 L 401.6032 269.7106 L 401.6083 269.3646 L 401.6110 269.0186 L 401.6112 268.6725 L 401.6090 268.3265 L 401.6043 267.9805 L 401.5972 267.6345 L 401.5876 267.2886 L 401.5755 266.9427 L 401.5609 266.5970 L 401.5439 266.2514 L 401.5243 265.9059 L 401.5022 265.5605 L 401.4777 265.2154 L 401.4506 264.8704 L 401.4210 264.5256 L 401.3889 264.1811 L 401.3543 263.8368 L 401.3171 263.4927 L 401.2774 263.1490 L 401.2351 262.8055 L 401.1903 262.4624 L 401.1429 262.1196 L 401.0930 261.7772 L 401.0405 261.4351 L 400.9855 261.0935 L 400.9278 260.7523 L 400.8676 260.4115 L 400.8048 260.0712 L 400.7394 259.7314 L 400.6714 259.3921 L 400.6009 259.0533 L 400.5277 258.7151 L 400.4519 258.3775 L 400.3735 258.0404 L 400.2925 257.7040 L 400.2088 257.3682 L 400.1226 257.0331 L 400.0337 256.6986 L 399.9421 256.3649 L 399.8480 256.0319 L 399.7512 255.6997 L 399.6518 255.3683 L 399.5497 255.0376 L 399.4449 254.7078 L 399.3376 254.3788 L 399.2275 254.0507 L 399.1148 253.7236 L 398.9995 253.3973 L 398.8814 253.0720 L 398.7607 252.7477 L 398.6374 252.4244 L 398.5114 252.1021 L 398.3826 251.7809 L 398.2513 251.4608 L 398.1172 251.1417 L 397.9805 250.8239 L 397.8411 250.5071 L 397.6990 250.1916 L 397.5542 249.8773 L 397.4067 249.5643 L 397.2566 249.2525 L 397.1037 248.9420 L 396.9482 248.6329 L 396.7900 248.3251 L 396.6291 248.0188 L 396.4655 247.7138 L 396.2992 247.4104 L 396.1303 247.1084 L 395.9587 246.8079 L 395.7843 246.5089 L 395.6073 246.2116 L 395.4276 245.9159 L 395.2453 245.6218 L 395.0602 245.3294 L 394.8725 245.0387 L 394.6821 244.7497 L 394.4890 244.4625 L 394.2933 244.1772 L 394.0949 243.8936 L 393.8938 243.6120 L 393.6901 243.3323 L 393.4838 243.0545 L 393.2747 242.7787 L 393.0631 242.5049 L 392.8488 242.2332 L 392.6319 241.9636 L 392.4123 241.6962 L 392.1901 241.4309 L 391.9653 241.1678 L 391.7379 240.9069 L 391.5080 240.6484 L 391.2754 240.3921 L 391.0402 240.1383 L 390.8025 239.8868 L 390.5622 239.6378 L 390.3193 239.3913 L 390.0739 239.1473 L 389.8260 238.9059 L 389.5756 238.6671 L 389.3226 238.4309 L 389.0672 238.1975 L 388.8093 237.9668 L 388.5489 237.7389 L 388.2860 237.5138 L 388.0207 237.2916 L 387.7530 237.0724 L 387.4829 236.8561 L 387.2104 236.6428 L 386.9355 236.4326 L 386.6583 236.2255 L 386.3787 236.0215 L 386.0969 235.8208 L 385.8127 235.6233 L 385.5263 235.4291 L 385.2376 235.2383 L 384.9467 235.0509 L 384.6536 234.8669 L 384.3583 234.6865 L 384.0609 234.5096 L 383.7614 234.3363 L 383.4598 234.1667 L 383.1561 234.0008 L 382.8504 233.8387 L 382.5427 233.6804 L 382.2330 233.5259 L 381.9214 233.3754 L 381.6079 233.2289 L 381.2925 233.0864 L 380.9754 232.9481 L 380.6564 232.8138 L 380.3357 232.6838 L 380.0133 232.5581 L 379.6893 232.4366 L 379.3637 232.3196 L 379.0365 232.2070 L 378.7077 232.0988 L 378.3776 231.9952 L 378.0460 231.8963 L 377.7130 231.8019 L 377.3788 231.7124 L 377.0433 231.6275 L 376.7066 231.5476 L 376.3688 231.4725 L 376.0300 231.4023 L 375.6901 231.3372 L 375.3493 231.2771 L 375.0077 231.2222 L 374.6652 231.1724 L 374.3221 231.1278 L 373.9783 231.0886 L 373.6339 231.0547 L 373.2890 231.0261 L 372.9438 231.0030 L 372.5982 230.9855 L 372.2523 230.9734 L 371.9064 230.9670 L 371.5603 230.9662 L 371.2143 230.9711 L 370.8684 230.9818 L 370.5228 230.9982 L 370.1775 231.0205 L 369.8326 231.0486 L 369.4882 231.0827 L 369.1445 231.1227 L 368.8015 231.1687 L 368.4594 231.2208 L 368.1183 231.2788 L 367.7782 231.3430 L 367.4394 231.4133 L 367.1019 231.4897 L 366.7659 231.5723 L 366.4314 231.6611 L 366.0986 231.7561 L 365.7677 231.8572 L 365.4388 231.9646 L 365.1119 232.0782 L 364.7873 232.1980 L 364.4650 232.3241 L 364.1452 232.4564 L 363.8281 232.5948 L 363.5138 232.7395 L 363.2023 232.8904 L 362.8940 233.0474 L 362.5888 233.2105 L 362.2870 233.3797 L 361.9886 233.5550 L 361.6939 233.7363 L 361.4029 233.9236 L 361.1158 234.1168 L 360.8328 234.3159 L 360.5539 234.5208 L 360.2794 234.7314 L 360.0093 234.9477 L 359.7438 235.1697 L 359.4830 235.3971 L 359.2270 235.6300 L 358.9760 235.8682 L 358.7302 236.1117 L 358.4895 236.3603 L 358.2542 236.6140 L 358.0243 236.8727 L 357.8000 237.1362 L 357.5813 237.4044 L 357.3685 237.6772 L 357.1615 237.9545 L 356.9605 238.2362 L 356.7655 238.5221 L 356.5767 238.8121 L 356.3942 239.1061 L 356.2179 239.4038 L 356.0480 239.7053 L 355.8846 240.0103 L 355.7277 240.3187 L 355.5773 240.6304 L 355.4335 240.9452 L 355.2965 241.2629 L 355.1661 241.5834 L 355.0424 241.9066 L 354.9256 242.2323 L 354.8155 242.5604 L 354.7122 242.8907 L 354.6158 243.2230 L 354.5261 243.5572 L 354.4434 243.8932 L 354.3675 244.2308 L 354.2984 244.5699 L 354.2362 244.9103 L 354.1807 245.2519 L 354.1321 245.5945 L 354.0903 245.9380 L 354.0552 246.2822 L 354.0268 246.6271 L 354.0052 246.9725 L 353.9902 247.3182 L 353.9818 247.6641 L 353.9800 248.0102 L 353.9847 248.3562 L 353.9959 248.7020 L 354.0135 249.0476 L 354.0375 249.3928 L 354.0678 249.7376 L 354.1044 250.0817 L 354.1472 250.4250 L 354.1961 250.7676 L 354.2511 251.1093 L 354.3121 251.4499 L 354.3790 251.7894 L 354.4518 252.1277 L 354.5305 252.4647 L 354.6148 252.8003 L 354.7048 253.1344 L 354.8004 253.4670 L 354.9016 253.7979 L 355.0082 254.1271 L 355.1201 254.4546 L 355.2373 254.7801 L 355.3598 255.1038 L 355.4874 255.4254 L 355.6201 255.7450 L 355.7577 256.0625 L 355.9003 256.3778 L 356.0477 256.6909 L 356.1999 257.0017 L 356.3568 257.3101 L 356.5183 257.6161 L 356.6844 257.9197 L 356.8549 258.2209 L 357.0298 258.5194 L 357.2090 258.8154 L 357.3925 259.1088 L 357.5802 259.3996 L 357.7719 259.6877 L 357.9677 259.9730 L 358.1674 260.2556 L 358.3711 260.5353 L 358.5785 260.8123 L 358.7897 261.0864 L 359.0046 261.3577 L 359.2231 261.6260 L 359.4451 261.8914 L 359.6706 262.1539 L 359.8995 262.4134 L 360.1318 262.6699 L 360.3674 262.9234 L 360.6061 263.1739 L 360.8481 263.4213 L 361.0931 263.6657 L 361.3411 263.9069 L 361.5922 264.1451 L 361.8461 264.3802 L 362.1029 264.6122 L 362.3625 264.8410 L 362.6248 265.0667 L 362.8897 265.2893 L 363.1573 265.5087 L 363.4275 265.7249 L 363.7002 265.9380 L 363.9753 266.1478 L 364.2529 266.3545 L 364.5327 266.5580 L 364.8149 266.7584 L 365.0993 266.9555 L 365.3859 267.1494 L 365.6747 267.3401 L 365.9655 267.5276 L 366.2584 267.7119 L 366.5533 267.8930 L 366.8501 268.0709 L 367.1488 268.2455 L 367.4494 268.4170 L 367.7518 268.5853 L 368.0559 268.7503 L 368.3618 268.9122 L 368.6693 269.0708 L 368.9785 269.2262 L 369.2893 269.3785 L 369.6016 269.5275 L 369.9154 269.6734 L 370.2306 269.8161 L 370.5473 269.9555 L 370.8654 270.0918 L 371.1848 270.2250 L 371.5055 270.3550 L 371.8275 270.4818 L 372.1507 270.6054 L 372.4751 270.7259 L 372.8006 270.8432 L 373.1273 270.9574 L 373.4550 271.0685 L 373.7838 271.1765 L 374.1136 271.2813 L 374.4443 271.3830 L 374.7760 271.4816 L 375.1086 271.5771 L 375.4421 271.6695 L 375.7764 271.7589 L 376.1115 271.8451 L 376.4474 271.9283 L 376.7841 272.0084 L 377.1214 272.0855 L 377.4594 272.1596 L 377.7981 272.2306 L 378.1374 272.2986 L 378.4773 272.3635 L 378.8178 272.4255 L 379.1588 272.4845 L 379.5002 272.5404 L 379.8422 272.5934 L 380.1846 272.6434 L 380.5274 272.6905 L 380.8707 272.7346 L 381.2143 272.7758 L 381.5582 272.8140 L 381.9024 272.8494 L 382.2469 272.8818 L 382.5917 272.9113 L 382.9367 272.9379 L 383.2820 272.9616 L 383.6274 272.9825 L 383.9730 273.0005 L 384.3187 273.0156 L 384.6645 273.0279 L 385.0104 273.0374 L 385.3564 273.0441 L 385.7024 273.0479 L 386.0485 273.0490 L 386.3945 273.0472 L 386.7405 273.0427 L 387.0865 273.0354 L 387.4324 273.0254 L 387.7782 273.0126 L 388.1239 272.9970 L 388.4695 272.9788 L 388.8149 272.9578 L 389.1601 272.9342 L 389.5051 272.9078 L 389.8500 272.8788 L 390.1946 272.8471 L 390.5389 272.8127 L 390.8830 272.7757 L 391.2267 272.7360 L 391.5702 272.6937 L 391.9133 272.6488 L 392.2561 272.6013 L 392.5985 272.5512 L 392.9405 272.4986 L 393.2821 272.4433 L 393.6233 272.3855 L 393.9640 272.3251 L 394.3043 272.2622 L 394.6441 272.1968 L 394.9834 272.1289 L 395.3222 272.0584 L 395.6605 271.9855 L 395.9982 271.9101 L 396.3354 271.8322 L 396.6719 271.7518 L 397.0079 271.6690 L 397.3433 271.5838 L 397.6781 271.4961 L 398.0122 271.4060 L 398.3456 271.3135 L 398.6784 271.2187 L 399.0105 271.1214 L 399.3419 271.0218 L 399.6726 270.9198 L 400.0025 270.8154 L 400.3317 270.7087 L 400.6601 270.5997 L 400.9878 270.4884 L 401.3147 270.3748 L 401.6407 270.2589 L 401.9659 270.1407 L 402.2903 270.0202 L 402.6139 269.8975 L 402.9366 269.7725 L 403.2584 269.6453 L 403.5793 269.5158 L 403.8993 269.3842 L 404.2184 269.2503 L 404.5366 269.1143 L 404.8539 268.9761 L 405.1701 268.8357 L 405.4855 268.6931 L 405.7998 268.5484 L 406.1131 268.4016 L 406.4255 268.2526 L 406.7368 268.1015 L 407.0471 267.9483 L 407.3564 267.7931 L 407.6646 267.6357 L 407.9717 267.4763 L 408.2778 267.3148 L 408.5827 267.1513 L 408.8866 266.9857 L 409.1894 266.8182 L 409.4910 266.6486 L 409.7915 266.4770 L 410.0909 266.3034 L 410.3891 266.1278 L 410.6861 265.9503 L 410.9819 265.7708 L 411.2766 265.5893 L 411.5701 265.4060 L 411.8623 265.2207 L 412.1533 265.0334 L 412.4431 264.8443 L 412.7317 264.6533 L 413.0190 264.4604 L 413.3050 264.2657 L 413.5898 264.0691 L 413.8733 263.8706 L 414.1555 263.6703 L 414.4364 263.4682 L 414.7159 263.2643 L 414.9942 263.0586 L 415.2711 262.8511 L 415.5467 262.6418 L 415.8209 262.4307 L 416.0938 262.2179 L 416.3653 262.0033 L 416.6354 261.7870 L 416.9041 261.5690 L 417.1714 261.3492 L 417.4374 261.1278 L 417.7019 260.9047 L 417.9649 260.6799 L 418.2266 260.4534 L 418.4868 260.2253 L 418.7455 259.9955 L 419.0028 259.7641 L 419.2586 259.5310 L 419.5130 259.2964 L 419.7658 259.0601 L 420.0172 258.8223 L 420.2670 258.5829 L 420.5154 258.3419 L 420.7622 258.0994 L 421.0075 257.8553 L 421.2512 257.6096 L 421.4935 257.3625 L 421.7341 257.1138 L 421.9732 256.8637 L 422.2107 256.6120 L 422.4467 256.3589 L 422.6811 256.1043 L 422.9139 255.8483 L 423.1450 255.5908 L 423.3746 255.3319 L 423.6026 255.0715 L 423.8289 254.8098 L 424.0536 254.5466 L 424.2767 254.2820 L 424.4981 254.0161 L 424.7179 253.7488 L 424.9360 253.4802 L 425.1525 253.2102 L 425.3672 252.9389 L 425.5803 252.6662 L 425.7918 252.3923 L 426.0015 252.1170 L 426.2095 251.8405 L 426.4158 251.5626 L 426.6204 251.2836 L 426.8233 251.0032 L 427.0244 250.7216 L 427.2238 250.4388 L 427.4215 250.1548 L 427.6174 249.8696 L 427.8116 249.5831 L 428.0040 249.2955 L 428.1946 249.0067 L 428.3835 248.7167 L 428.5706 248.4256 L 428.7559 248.1334 L 428.9394 247.8400 L 429.1211 247.5455 L 429.3010 247.2499 L 429.4791 246.9532 L 429.6553 246.6554 L 429.8298 246.3565 L 430.0024 246.0566 L 430.1732 245.7556 L 430.3421 245.4536 L 430.5092 245.1506 L 430.6745 244.8466 L 430.8378 244.5415 L 430.9994 244.2355 L 431.1590 243.9285 L 431.3168 243.6205 L 431.4727 243.3115 L 431.6267 243.0016 L 431.7788 242.6908 L 431.9290 242.3791 L 432.0773 242.0664 L 432.2237 241.7529 L 432.3682 241.4384 L 432.5108 241.1231 L 432.6514 240.8069 L 432.7901 240.4899 L 432.9269 240.1721 L 433.0617 239.8534 L 433.1946 239.5339 L 433.3256 239.2135 L 433.4545 238.8924 L 433.5816 238.5705 L 433.7066 238.2479 L 433.8297 237.9245 L 433.9508 237.6003 L 434.0700 237.2754 L 434.1871 236.9498 L 434.3023 236.6235 L 434.4154 236.2965 L 434.5266 235.9688 L 434.6358 235.6404 L 434.7429 235.3113 L 434.8481 234.9817 L 434.9512 234.6513 L 435.0523 234.3204 L 435.1514 233.9888 L 435.2484 233.6567 L 435.3434 233.3239 L 435.4364 232.9906 L 435.5273 232.6567 L 435.6162 232.3223 L 435.7030 231.9873 L 435.7878 231.6518 L 435.8705 231.3158 L 435.9512 230.9793 L 436.0298 230.6423 L 436.1063 230.3048 L 436.1807 229.9668 L 436.2530 229.6285 L 436.3233 229.2896 L 436.3915 228.9504 L 436.4576 228.6107 L 436.5216 228.2706 L 436.5835 227.9301 L 436.6433 227.5893 L 436.7009 227.2481 L 436.7565 226.9065 L 436.8100 226.5646 L 436.8613 226.2224 L 436.9105 225.8799 L 436.9576 225.5371 L 437.0026 225.1940 L 437.0454 224.8506 L 437.0861 224.5069 L 437.1247 224.1631 L 437.1611 223.8189 L 437.1954 223.4746 L 437.2275 223.1300 L 437.2575 222.7853 L 437.2854 222.4404 L 437.3110 222.0953 L 437.3345 221.7500 L 437.3559 221.4046 L 437.3751 221.0591 L 437.3921 220.7135 L 437.4069 220.3678 L 437.4196 220.0220 L 437.4301 219.6761 L 437.4384 219.3301 L 437.4446 218.9841 L 437.4485 218.6381 L 437.4503 218.2921 L 437.4498 217.9460 L 437.4472 217.6000 L 437.4424 217.2540 L 437.4354 216.9080 L 437.4262 216.5621 L 437.4148 216.2162 L 437.4011 215.8705 L 437.3853 215.5248 L 437.3673 215.1792 L 437.3470 214.8337 L 437.3246 214.4884 L 437.2999 214.1433 L 437.2730 213.7983 L 437.2439 213.4534 L 437.2126 213.1088 L 437.1790 212.7644 L 437.1433 212.4202 L 437.1053 212.0763 L 437.0650 211.7326 L 437.0226 211.3891 L 436.9779 211.0460 L 436.9310 210.7031 L 436.8818 210.3606 L 436.8305 210.0184 L 436.7768 209.6765 L 436.7210 209.3350 L 436.6629 208.9939 L 436.6025 208.6531 L 436.5400 208.3128 L 436.4751 207.9729 L 436.4081 207.6334 L 436.3387 207.2944 L 436.2672 206.9558 L 436.1934 206.6177 L 436.1173 206.2801 L 436.0390 205.9431 L 435.9585 205.6065 L 435.8757 205.2705 L 435.7907 204.9351 L 435.7034 204.6002 L 435.6138 204.2660 L 435.5220 203.9323 L 435.4280 203.5993 L 435.3317 203.2669 L 435.2332 202.9352 L 435.1324 202.6042 L 435.0293 202.2738 L 434.9240 201.9442 L 434.8165 201.6153 L 434.7067 201.2871 L 434.5946 200.9597 L 434.4803 200.6331 L 434.3638 200.3073 L 434.2450 199.9823 L 434.1239 199.6581 L 434.0006 199.3347 L 433.8751 199.0123 L 433.7473 198.6907 L 433.6172 198.3700 L 433.4850 198.0502 L 433.3504 197.7314 L 433.2137 197.4135 L 433.0747 197.0966 L 432.9334 196.7807 L 432.7900 196.4658 L 432.6442 196.1520 L 432.4963 195.8391 L 432.3461 195.5274 L 432.1937 195.2167 L 432.0391 194.9071 L 431.8822 194.5987 L 431.7231 194.2914 L 431.5618 193.9852 L 431.3982 193.6803 L 431.2325 193.3765 L 431.0645 193.0740 L 430.8943 192.7726 L 430.7220 192.4726 L 430.5474 192.1738 L 430.3706 191.8764 L 430.1916 191.5802 L 430.0104 191.2854 L 429.8270 190.9919 L 429.6414 190.6999 L 429.4536 190.4092 L 429.2637 190.1199 L 429.0716 189.8321 L 428.8773 189.5458 L 428.6808 189.2609 L 428.4822 188.9775 L 428.2814 188.6957 L 428.0784 188.4154 L 427.8733 188.1367 L 427.6661 187.8596 L 427.4567 187.5841 L 427.2452 187.3102 L 427.0315 187.0380 L 426.8157 186.7675 L 426.5978 186.4987 L 426.3778 186.2316 L 426.1557 185.9662 L 425.9315 185.7026 L 425.7052 185.4409 L 425.4768 185.1809 L 425.2463 184.9228 L 425.0137 184.6665 L 424.7791 184.4122 L 424.5424 184.1597 L 424.3037 183.9092 L 424.0629 183.6607 L 423.8201 183.4141 L 423.5753 183.1696 L 423.3284 182.9271 L 423.0795 182.6866 L 422.8287 182.4483 L 422.5758 182.2120 L 422.3210 181.9779 L 422.0642 181.7460 L 421.8054 181.5162 L 421.5447 181.2887 L 421.2820 181.0634 L 421.0174 180.8404 L 420.7509 180.6196 L 420.4825 180.4012 L 420.2122 180.1852 L 419.9400 179.9715 L 419.6660 179.7602 L 419.3901 179.5514 L 419.1123 179.3450 L 418.8327 179.1411 L 418.5513 178.9397 L 418.2681 178.7409 L 417.9831 178.5446 L 417.6963 178.3509 L 417.4078 178.1599 L 417.1175 177.9715 L 416.8255 177.7858 L 416.5317 177.6029 L 416.2363 177.4227 L 415.9392 177.2452 L 415.6405 177.0706 L 415.3401 176.8988 L 415.0381 176.7299 L 414.7344 176.5639 L 414.4292 176.4008 L 414.1225 176.2407 L 413.8141 176.0836 L 413.5043 175.9295 L 413.1929 175.7785 L 412.8801 175.6306 L 412.5658 175.4858 L 412.2501 175.3441 L 411.9330 175.2056 L 411.6144 175.0704 L 411.2946 174.9384 L 410.9733 174.8097 L 410.6508 174.6843 L 410.3270 174.5623 L 410.0019 174.4437 L 409.6756 174.3285 L 409.3481 174.2167 L 409.0194 174.1085 L 408.6896 174.0038 L 408.3587 173.9026 L 408.0267 173.8050 L 407.6936 173.7111 L 407.3596 173.6208 L 407.0245 173.5343 L 406.6885 173.4515 L 406.3516 173.3724 L 406.0139 173.2972 L 405.6753 173.2258 L 405.3359 173.1583 L 404.9957 173.0947 L 404.6548 173.0351 L 404.3133 172.9794 L 403.9711 172.9278 L 403.6284 172.8803 L 403.2851 172.8368 L 402.9413 172.7975 L 402.5970 172.7624 L 402.2524 172.7314 L 401.9073 172.7047 L 401.5620 172.6823 L 401.2165 172.6642 L 400.8707 172.6505 L 400.5248 172.6411 L 400.1788 172.6362 L 399.8327 172.6357 L 399.4867 172.6397 L 399.1408 172.6483 L 398.7950 172.6614 L 398.4494 172.6791 L 398.1040 172.7014 L 397.7591 172.7284 L 397.4145 172.7601 L 397.0703 172.7965 L 396.7268 172.8377 L 396.3838 172.8836 L 396.0415 172.9344 L 395.6999 172.9901 L 395.3592 173.0506 L 395.0194 173.1160 L 394.6806 173.1864 L 394.3429 173.2617 L 394.0063 173.3420 L 393.6709 173.4273 L 393.3369 173.5177 L 393.0043 173.6131 L 392.6731 173.7136 L 392.3436 173.8192 L 392.0157 173.9299 L 391.6896 174.0457 L 391.3654 174.1667 L 391.0432 174.2928 L 390.7230 174.4241 L 390.4051 174.5606 L 390.0893 174.7023 L 389.7760 174.8491 L 389.4652 175.0012 L 389.1569 175.1584 L 388.8514 175.3209 L 388.5487 175.4885 L 388.2489 175.6613 L 387.9521 175.8393 L 387.6585 176.0225 L 387.3682 176.2108 L 387.0813 176.4042 L 386.7979 176.6028 L 386.5181 176.8064 L 386.2420 177.0151 L 385.9699 177.2288 L 385.7017 177.4475 L 385.4377 177.6712 L 385.1779 177.8998 L 384.9224 178.1332 L 384.6714 178.3714 L 384.4251 178.6144 L 384.1835 178.8622 L 383.9467 179.1145 L 383.7149 179.3714 L 383.4882 179.6329 L 383.2667 179.8988 L 383.0506 180.1690 L 382.8399 180.4435 L 382.6347 180.7222 L 382.4353 181.0049 L 382.2416 181.2917 L 382.0538 181.5824 L 381.8721 181.8768 L 381.6964 182.1750 L 381.5270 182.4767 L 381.3638 182.7819 L 381.2071 183.0904 L 381.0569 183.4021 L 380.9132 183.7169 L 380.7762 184.0347 L 380.6460 184.3553 L 380.5226 184.6785 L 380.4060 185.0044 L 380.2964 185.3326 L 380.1939 185.6631 L 380.0984 185.9957 L 380.0100 186.3303 L 379.9288 186.6666 L 379.8548 187.0047 L 379.7880 187.3442 L 379.7285 187.6851 L 379.6763 188.0272 L 379.6313 188.3703 L 379.5938 188.7143 L 379.5635 189.0590 L 379.5406 189.4043 L 379.5250 189.7499 L 379.5167 190.0959 L 379.5157 190.4419 L 379.5220 190.7879 L 379.5355 191.1337 L 379.5563 191.4791 L 379.5843 191.8240 L 379.6194 192.1682 L 379.6616 192.5117 L 379.7109 192.8542 L 379.7672 193.1956 L 379.8305 193.5359 L 379.9006 193.8747 L 379.9776 194.2121 L 380.0613 194.5478 L 380.1517 194.8819 L 380.2487 195.2140 L 380.3523 195.5442 L 380.4623 195.8723 L 380.5787 196.1982 L 380.7013 196.5218 L 380.8302 196.8429 L 380.9651 197.1616 L 381.1061 197.4776 L 381.2530 197.7909 L 381.4057 198.1014 L 381.5642 198.4090 L 381.7283 198.7137 L 381.8980 199.0153 L 382.0730 199.3138 L 382.2535 199.6090 L 382.4391 199.9010 L 382.6300 200.1897 L 382.8258 200.4750 L 383.0266 200.7568 L 383.2323 201.0351 L 383.4426 201.3099 L 383.6577 201.5810 L 383.8772 201.8485 L 384.1012 202.1122 L 384.3296 202.3722 L 384.5622 202.6284 L 384.7989 202.8808 L 385.0397 203.1293 L 385.2845 203.3740 L 385.5331 203.6147 L 385.7855 203.8514 L 386.0415 204.0842 L 386.3011 204.3130 L 386.5642 204.5377 L 386.8308 204.7585 L 387.1006 204.9751 L 387.3736 205.1877 L 387.6498 205.3963 L 387.9290 205.6007 L 388.2111 205.8010 L 388.4961 205.9973 L 388.7840 206.1894 L 389.0745 206.3773 L 389.3677 206.5612 L 389.6634 206.7409 L 389.9615 206.9165 L 390.2621 207.0880 L 390.5650 207.2553 L 390.8701 207.4185 L 391.1774 207.5776 L 391.4868 207.7326 L 391.7983 207.8835 L 392.1117 208.0302 L 392.4269 208.1729 L 392.7440 208.3115 L 393.0629 208.4459 L 393.3834 208.5763 L 393.7055 208.7027 L 394.0293 208.8250 L 394.3545 208.9432 L 394.6811 209.0575 L 395.0091 209.1677 L 395.3385 209.2739 L 395.6691 209.3761 L 396.0009 209.4743 L 396.3338 209.5686 L 396.6679 209.6590 L 397.0030 209.7454 L 397.3390 209.8279 L 397.6760 209.9065 L 398.0139 209.9812 L 398.3526 210.0520 L 398.6921 210.1190 L 399.0324 210.1822 L 399.3733 210.2416 L 399.7148 210.2972 L 400.0570 210.3490 L 400.3997 210.3970 L 400.7428 210.4414 L 401.0865 210.4820 L 401.4306 210.5189 L 401.7750 210.5521 L 402.1198 210.5816 L 402.4649 210.6076 L 402.8102 210.6299 L 403.1557 210.6486 L 403.5014 210.6637 L 403.8473 210.6752 L 404.1932 210.6833 L 404.5393 210.6878 L 404.8853 210.6888 L 405.2313 210.6863 L 405.5773 210.6804 L 405.9233 210.6710 L 406.2691 210.6582 L 406.6147 210.6420 L 406.9602 210.6224 L 407.3055 210.5995 L 407.6505 210.5732 L 407.9953 210.5437 L 408.3398 210.5108 L 408.6840 210.4747 L 409.0278 210.4353 L 409.3712 210.3926 L 409.7142 210.3468 L 410.0567 210.2977 L 410.3988 210.2455 L 410.7404 210.1902 L 411.0814 210.1317 L 411.4220 210.0701 L 411.7619 210.0054 L 412.1012 209.9376 L 412.4400 209.8668 L 412.7780 209.7930 L 413.1154 209.7161 L 413.4522 209.6363 L 413.7881 209.5535 L 414.1234 209.4677 L 414.4579 209.3790 L 414.7916 209.2874 L 415.1245 209.1929 L 415.4566 209.0956 L 415.7878 208.9954 L 416.1181 208.8924 L 416.4476 208.7865 L 416.7761 208.6779 L 417.1038 208.5665 L 417.4304 208.4523 L 417.7561 208.3355 L 418.0809 208.2159 L 418.4046 208.0936 L 418.7273 207.9686 L 419.0489 207.8410 L 419.3695 207.7108 L 419.6891 207.5779 L 420.0075 207.4424 L 420.3248 207.3044 L 420.6410 207.1638 L 420.9561 207.0207 L 421.2699 206.8750 L 421.5827 206.7268 L 421.8942 206.5762 L 422.2045 206.4231 L 422.5136 206.2675 L 422.8215 206.1095 L 423.1281 205.9491 L 423.4335 205.7863 L 423.7376 205.6212 L 424.0404 205.4536 L 424.3419 205.2838 L 424.6420 205.1116 L 424.9409 204.9371 L 425.2383 204.7603 L 425.5345 204.5813 L 425.8292 204.4000 L 426.1226 204.2165 L 426.4146 204.0308 L 426.7052 203.8428 L 426.9943 203.6527 L 427.2820 203.4605 L 427.5683 203.2661 L 427.8531 203.0695 L 428.1365 202.8709 L 428.4183 202.6701 L 428.6987 202.4673 L 428.9776 202.2625 L 429.2550 202.0555 L 429.5308 201.8466 L 429.8051 201.6357 L 430.0779 201.4227 L 430.3491 201.2078 L 430.6188 200.9910 L 430.8869 200.7722 L 431.1534 200.5514 L 431.4183 200.3288 L 431.6816 200.1043 L 431.9433 199.8779 L 432.2034 199.6496 L 432.4619 199.4195 L 432.7187 199.1876 L 432.9739 198.9538 L 433.2274 198.7183 L 433.4793 198.4810 L 433.7295 198.2419 L 433.9780 198.0011 L 434.2248 197.7586 L 434.4699 197.5143 L 434.7133 197.2684 L 434.9550 197.0207 L 435.1950 196.7714 L 435.4333 196.5205 L 435.6698 196.2679 L 435.9046 196.0137 L 436.1376 195.7578 L 436.3689 195.5004 L 436.5984 195.2415 L 436.8262 194.9809 L 437.0521 194.7188 L 437.2763 194.4552 L 437.4987 194.1901 L 437.7193 193.9235 L 437.9381 193.6554 L 438.1551 193.3858 L 438.3702 193.1148 L 438.5836 192.8424 L 438.7951 192.5685 L 439.0048 192.2932 L 439.2126 192.0165 L 439.4186 191.7385 L 439.6227 191.4591 L 439.8250 191.1783 L 440.0254 190.8962 L 440.2240 190.6128 L 440.4207 190.3280 L 440.6155 190.0420 L 440.8084 189.7548 L 440.9994 189.4662 L 441.1885 189.1764 L 441.3757 188.8854 L 441.5611 188.5931 L 441.7445 188.2997 L 441.9260 188.0051 L 442.1055 187.7093 L 442.2832 187.4123 L 442.4589 187.1142 L 442.6327 186.8149 L 442.8045 186.5146 L 442.9744 186.2131 L 443.1424 185.9106 L 443.3084 185.6069 L 443.4724 185.3023 L 443.6345 184.9965 L 443.7947 184.6898 L 443.9528 184.3820 L 444.1090 184.0732 L 444.2632 183.7634 L 444.4155 183.4526 L 444.5657 183.1409 L 444.7140 182.8282 L 444.8603 182.5146 L 445.0045 182.2001 L 445.1468 181.8847 L 445.2871 181.5683 L 445.4254 181.2511 L 445.5617 180.9330 L 445.6959 180.6141 L 445.8282 180.2943 L 445.9584 179.9737 L 446.0866 179.6523 L 446.2128 179.3301 L 446.3370 179.0071 L 446.4591 178.6833 L 446.5792 178.3588 L 446.6973 178.0335 L 446.8133 177.7075 L 446.9273 177.3807 L 447.0393 177.0533 L 447.1492 176.7252 L 447.2571 176.3964 L 447.3629 176.0669 L 447.4667 175.7368 L 447.5684 175.4060 L 447.6680 175.0746 L 447.7656 174.7426 L 447.8611 174.4100 L 447.9546 174.0769 L 448.0460 173.7431 L 448.1354 173.4088 L 448.2226 173.0739 L 448.3078 172.7385 L 448.3910 172.4026 L 448.4720 172.0662 L 448.5510 171.7293 L 448.6279 171.3919 L 448.7027 171.0540 L 448.7754 170.7157 L 448.8461 170.3770 L 448.9146 170.0378 L 448.9811 169.6982 L 449.0455 169.3582 L 449.1078 169.0178 L 449.1680 168.6770 L 449.2262 168.3359 L 449.2822 167.9944 L 449.3361 167.6526 L 449.3880 167.3105 L 449.4377 166.9680 L 449.4853 166.6253 L 449.5309 166.2822 L 449.5743 165.9389 L 449.6157 165.5954 L 449.6549 165.2515 L 449.6921 164.9075 L 449.7271 164.5632 L 449.7601 164.2188 L 449.7909 163.8741 L 449.8196 163.5292 L 449.8462 163.1842 L 449.8708 162.8390 L 449.8932 162.4937 L 449.9135 162.1483 L 449.9317 161.8027 L 449.9478 161.4570 L 449.9617 161.1113 L 449.9736 160.7654 L 449.9834 160.4195 L 449.9910 160.0736 L 449.9966 159.7276 L 450.0000 159.3815" 
        fill="none" 
        stroke="#1565C0" 
        stroke-width="0.5"
        stroke-linecap="round"
        stroke-linejoin="round"/>
</svg>