<?xml version="1.0" encoding="UTF-8"?>
<svg xmlns="http://www.w3.org/2000/svg" 
     width="500.0" height="500.0" 
     viewBox="0 0 500.0 500.0">
  <rect width="100%" height="100%" fill="#ffffff"/>
  <path d="M 86.5807 198.9378 L 86.2838 199.0997 L 85.9856 199.2593 L 85.6863 199.4167 L 85.3857 199.5717 L 85.0839 199.7243 L 84.7810 199.8746 L 84.4768 200.0224 L 84.1714 200.1677 L 83.8649 200.3105 L 83.5571 200.4508 L 83.2482 200.5884 L 82.9381 200.7234 L 82.6269 200.8557 L 82.3145 200.9853 L 82.0010 201.1121 L 81.6864 201.2361 L 81.3706 201.3572 L 81.0538 201.4754 L 80.7358 201.5906 L 80.4168 201.7029 L 80.0968 201.8121 L 79.7756 201.9182 L 79.4535 202.0211 L 79.1304 202.1209 L 78.8062 202.2173 L 78.4811 202.3105 L 78.1551 202.4004 L 77.8282 202.4868 L 77.5003 202.5698 L 77.1716 202.6492 L 76.8420 202.7251 L 76.5117 202.7974 L 76.1805 202.8660 L 75.8486 202.9308 L 75.5160 202.9919 L 75.1827 203.0491 L 74.8487 203.1025 L 74.5142 203.1519 L 74.1790 203.1973 L 73.8434 203.2386 L 73.5072 203.2758 L 73.1707 203.3088 L 72.8337 203.3376 L 72.4964 203.3622 L 72.1589 203.3824 L 71.8210 203.3982 L 71.4831 203.4096 L 71.1449 203.4164 L 70.8068 203.4188 L 70.4686 203.4165 L 70.1305 203.4096 L 69.7925 203.3981 L 69.4547 203.3817 L 69.1172 203.3606 L 68.7800 203.3347 L 68.4432 203.3039 L 68.1069 203.2682 L 67.7712 203.2276 L 67.4361 203.1820 L 67.1017 203.1313 L 66.7682 203.0756 L 66.4355 203.0149 L 66.1038 202.9490 L 65.7731 202.8780 L 65.4436 202.8019 L 65.1154 202.7206 L 64.7884 202.6341 L 64.4629 202.5423 L 64.1389 202.4454 L 63.8165 202.3433 L 63.4958 202.2359 L 63.1770 202.1233 L 62.8600 202.0055 L 62.5449 201.8825 L 62.2320 201.7542 L 61.9213 201.6208 L 61.6128 201.4822 L 61.3067 201.3384 L 61.0031 201.1894 L 60.7021 201.0354 L 60.4037 200.8763 L 60.1080 200.7120 L 59.8152 200.5428 L 59.5254 200.3686 L 59.2385 200.1895 L 58.9548 200.0054 L 58.6743 199.8165 L 58.3971 199.6228 L 58.1233 199.4243 L 57.8530 199.2211 L 57.5861 199.0133 L 57.3230 198.8010 L 57.0635 198.5841 L 56.8078 198.3627 L 56.5560 198.1370 L 56.3081 197.9069 L 56.0642 197.6727 L 55.8244 197.4342 L 55.5888 197.1917 L 55.3573 196.9451 L 55.1301 196.6946 L 54.9073 196.4402 L 54.6888 196.1821 L 54.4748 195.9202 L 54.2653 195.6548 L 54.0603 195.3858 L 53.8600 195.1133 L 53.6643 194.8375 L 53.4733 194.5584 L 53.2870 194.2761 L 53.1056 193.9908 L 52.9290 193.7024 L 52.7572 193.4110 L 52.5904 193.1169 L 52.4285 192.8199 L 52.2716 192.5204 L 52.1197 192.2182 L 51.9729 191.9136 L 51.8312 191.6065 L 51.6945 191.2972 L 51.5630 190.9856 L 51.4367 190.6719 L 51.3155 190.3562 L 51.1996 190.0385 L 51.0889 189.7189 L 50.9834 189.3976 L 50.8832 189.0746 L 50.7883 188.7500 L 50.6988 188.4239 L 50.6145 188.0964 L 50.5356 187.7675 L 50.4621 187.4374 L 50.3940 187.1062 L 50.3312 186.7739 L 50.2739 186.4406 L 50.2219 186.1064 L 50.1754 185.7715 L 50.1344 185.4358 L 50.0988 185.0995 L 50.0686 184.7626 L 50.0439 184.4254 L 50.0247 184.0877 L 50.0110 183.7498 L 50.0027 183.4117 L 50.0000 183.0736 L 50.0027 182.7354 L 50.0110 182.3973 L 50.0248 182.0594 L 50.0440 181.7218 L 50.0688 181.3845 L 50.0990 181.0477 L 50.1348 180.7114 L 50.1761 180.3757 L 50.2229 180.0408 L 50.2752 179.7067 L 50.3329 179.3735 L 50.3962 179.0413 L 50.4649 178.7101 L 50.5391 178.3802 L 50.6188 178.0515 L 50.7039 177.7242 L 50.7944 177.3984 L 50.8904 177.0741 L 50.9917 176.7515 L 51.0985 176.4306 L 51.2106 176.1115 L 51.3281 175.7944 L 51.4509 175.4793 L 51.5790 175.1663 L 51.7124 174.8556 L 51.8510 174.5471 L 51.9949 174.2411 L 52.1439 173.9375 L 52.2981 173.6365 L 52.4574 173.3382 L 52.6218 173.0427 L 52.7913 172.7500 L 52.9657 172.4603 L 53.1451 172.1736 L 53.3294 171.8900 L 53.5185 171.6097 L 53.7125 171.3327 L 53.9112 171.0590 L 54.1146 170.7888 L 54.3226 170.5222 L 54.5352 170.2592 L 54.7524 169.9999 L 54.9739 169.7445 L 55.1999 169.4928 L 55.4301 169.2451 L 55.6646 169.0015 L 55.9033 168.7619 L 56.1460 168.5264 L 56.3928 168.2951 L 56.6435 168.0681 L 56.8980 167.8455 L 57.1563 167.6272 L 57.4182 167.4133 L 57.6838 167.2039 L 57.9529 166.9991 L 58.2254 166.7988 L 58.5012 166.6031 L 58.7802 166.4120 L 59.0624 166.2256 L 59.3477 166.0440 L 59.6359 165.8670 L 59.9269 165.6949 L 60.2208 165.5275 L 60.5173 165.3649 L 60.8164 165.2071 L 61.1180 165.0541 L 61.4220 164.9059 L 61.7283 164.7626 L 62.0369 164.6241 L 62.3475 164.4904 L 62.6602 164.3616 L 62.9748 164.2376 L 63.2913 164.1184 L 63.6095 164.0039 L 63.9294 163.8943 L 64.2509 163.7894 L 64.5739 163.6892 L 64.8984 163.5938 L 65.2241 163.5030 L 65.5512 163.4169 L 65.8794 163.3355 L 66.2087 163.2586 L 66.5391 163.1863 L 66.8704 163.1186 L 67.2027 163.0554 L 67.5357 162.9966 L 67.8695 162.9422 L 68.2040 162.8923 L 68.5391 162.8466 L 68.8747 162.8053 L 69.2108 162.7682 L 69.5474 162.7354 L 69.8844 162.7067 L 70.2217 162.6822 L 70.5593 162.6617 L 70.8970 162.6453 L 71.2350 162.6328 L 71.5731 162.6243 L 71.9112 162.6197 L 72.2494 162.6189 L 72.5876 162.6220 L 72.9257 162.6288 L 73.2637 162.6392 L 73.6016 162.6534 L 73.9393 162.6712 L 74.2768 162.6925 L 74.6141 162.7173 L 74.9511 162.7456 L 75.2878 162.7774 L 75.6242 162.8125 L 75.9601 162.8509 L 76.2957 162.8926 L 76.6309 162.9376 L 76.9657 162.9858 L 77.2999 163.0371 L 77.6337 163.0915 L 77.9670 163.1490 L 78.2997 163.2095 L 78.6319 163.2730 L 78.9635 163.3394 L 79.2945 163.4088 L 79.6249 163.4809 L 79.9546 163.5559 L 80.2837 163.6337 L 80.6122 163.7142 L 80.9400 163.7975 L 81.2671 163.8833 L 81.5935 163.9719 L 81.9192 164.0629 L 82.2441 164.1566 L 82.5684 164.2528 L 82.8918 164.3514 L 83.2146 164.4525 L 83.5365 164.5560 L 83.8577 164.6620 L 84.1781 164.7702 L 84.4977 164.8808 L 84.8165 164.9936 L 85.1345 165.1088 L 85.4516 165.2261 L 85.7680 165.3457 L 86.0835 165.4674 L 86.3982 165.5913 L 86.7120 165.7172 L 87.0250 165.8453 L 87.3372 165.9754 L 87.6485 166.1076 L 87.9589 166.2417 L 88.2685 166.3779 L 88.5772 166.5160 L 88.8850 166.6561 L 89.1919 166.7980 L 89.4980 166.9419 L 89.8032 167.0876 L 90.1075 167.2351 L 90.4109 167.3845 L 90.7134 167.5357 L 91.0150 167.6887 L 91.3157 167.8434 L 91.6155 167.9999 L 91.9145 168.1580 L 92.2125 168.3179 L 92.5095 168.4795 L 92.8057 168.6428 L 93.1010 168.8077 L 93.3953 168.9742 L 93.6888 169.1423 L 93.9813 169.3121 L 94.2728 169.4834 L 94.5635 169.6563 L 94.8532 169.8307 L 95.1420 170.0067 L 95.4299 170.1842 L 95.7168 170.3632 L 96.0028 170.5437 L 96.2878 170.7257 L 96.5719 170.9091 L 96.8551 171.0941 L 97.1373 171.2804 L 97.4186 171.4682 L 97.6989 171.6574 L 97.9782 171.8480 L 98.2566 172.0400 L 98.5340 172.2334 L 98.8105 172.4281 L 99.0860 172.6243 L 99.3606 172.8217 L 99.6341 173.0206 L 99.9067 173.2207 L 100.1783 173.4222 L 100.4490 173.6250 L 100.7186 173.8291 L 100.9873 174.0345 L 101.2549 174.2412 L 101.5216 174.4492 L 101.7873 174.6585 L 102.0520 174.8690 L 102.3156 175.0808 L 102.5783 175.2938 L 102.8399 175.5081 L 103.1005 175.7236 L 103.3601 175.9404 L 103.6187 176.1584 L 103.8762 176.3776 L 104.1327 176.5980 L 104.3881 176.8196 L 104.6425 177.0425 L 104.8958 177.2665 L 105.1481 177.4917 L 105.3993 177.7182 L 105.6494 177.9458 L 105.8985 178.1746 L 106.1464 178.4045 L 106.3933 178.6357 L 106.6391 178.8680 L 106.8837 179.1014 L 107.1273 179.3360 L 107.3697 179.5718 L 107.6111 179.8088 L 107.8512 180.0468 L 108.0903 180.2861 L 108.3282 180.5265 L 108.5649 180.7680 L 108.8004 181.0106 L 109.0348 181.2544 L 109.2680 181.4993 L 109.5001 181.7454 L 109.7309 181.9925 L 109.9605 182.2408 L 110.1889 182.4902 L 110.4160 182.7408 L 110.6420 182.9924 L 110.8666 183.2452 L 111.0900 183.4991 L 111.3122 183.7541 L 111.5331 184.0102 L 111.7527 184.2674 L 111.9709 184.5257 L 112.1879 184.7851 L 112.4036 185.0456 L 112.6179 185.3072 L 112.8309 185.5699 L 113.0425 185.8337 L 113.2527 186.0986 L 113.4616 186.3645 L 113.6691 186.6316 L 113.8752 186.8998 L 114.0798 187.1690 L 114.2830 187.4393 L 114.4848 187.7107 L 114.6852 187.9831 L 114.8840 188.2567 L 115.0814 188.5313 L 115.2773 188.8069 L 115.4717 189.0837 L 115.6646 189.3615 L 115.8559 189.6403 L 116.0457 189.9203 L 116.2339 190.2012 L 116.4206 190.4832 L 116.6056 190.7663 L 116.7891 191.0504 L 116.9709 191.3355 L 117.1511 191.6217 L 117.3297 191.9089 L 117.5066 192.1971 L 117.6818 192.4864 L 117.8553 192.7767 L 118.0272 193.0679 L 118.1973 193.3602 L 118.3657 193.6535 L 118.5323 193.9478 L 118.6972 194.2430 L 118.8603 194.5393 L 119.0217 194.8365 L 119.1812 195.1347 L 119.3389 195.4339 L 119.4948 195.7340 L 119.6489 196.0350 L 119.8011 196.3370 L 119.9514 196.6400 L 120.0999 196.9438 L 120.2464 197.2486 L 120.3911 197.5543 L 120.5338 197.8609 L 120.6747 198.1683 L 120.8135 198.4767 L 120.9505 198.7859 L 121.0854 199.0960 L 121.2184 199.4069 L 121.3494 199.7187 L 121.4784 200.0313 L 121.6054 200.3448 L 121.7304 200.6590 L 121.8534 200.9740 L 121.9743 201.2899 L 122.0932 201.6065 L 122.2100 201.9238 L 122.3248 202.2419 L 122.4375 202.5608 L 122.5482 202.8804 L 122.6568 203.2006 L 122.7632 203.5216 L 122.8676 203.8433 L 122.9699 204.1657 L 123.0701 204.4887 L 123.1682 204.8123 L 123.2642 205.1366 L 123.3580 205.4615 L 123.4497 205.7870 L 123.5394 206.1131 L 123.6269 206.4398 L 123.7122 206.7670 L 123.7955 207.0948 L 123.8766 207.4231 L 123.9556 207.7519 L 124.0324 208.0813 L 124.1072 208.4111 L 124.1798 208.7414 L 124.2503 209.0721 L 124.3186 209.4033 L 124.3848 209.7350 L 124.4490 210.0670 L 124.5109 210.3995 L 124.5708 210.7323 L 124.6286 211.0655 L 124.6843 211.3991 L 124.7378 211.7330 L 124.7893 212.0673 L 124.8387 212.4018 L 124.8859 212.7367 L 124.9312 213.0719 L 124.9743 213.4073 L 125.0153 213.7430 L 125.0543 214.0789 L 125.0913 214.4151 L 125.1262 214.7514 L 125.1590 215.0880 L 125.1898 215.4248 L 125.2186 215.7618 L 125.2454 216.0989 L 125.2701 216.4362 L 125.2929 216.7736 L 125.3137 217.1111 L 125.3324 217.4488 L 125.3492 217.7866 L 125.3641 218.1244 L 125.3770 218.4624 L 125.3879 218.8004 L 125.3969 219.1384 L 125.4039 219.4766 L 125.4091 219.8147 L 125.4123 220.1529 L 125.4136 220.4911 L 125.4131 220.8292 L 125.4106 221.1674 L 125.4063 221.5056 L 125.4001 221.8437 L 125.3921 222.1818 L 125.3822 222.5198 L 125.3705 222.8578 L 125.3570 223.1957 L 125.3416 223.5336 L 125.3245 223.8713 L 125.3055 224.2090 L 125.2848 224.5465 L 125.2622 224.8840 L 125.2379 225.2213 L 125.2119 225.5584 L 125.1841 225.8955 L 125.1545 226.2324 L 125.1233 226.5691 L 125.0903 226.9057 L 125.0555 227.2421 L 125.0191 227.5783 L 124.9810 227.9143 L 124.9412 228.2502 L 124.8996 228.5858 L 124.8565 228.9212 L 124.8116 229.2564 L 124.7651 229.5914 L 124.7169 229.9261 L 124.6671 230.2606 L 124.6156 230.5949 L 124.5625 230.9289 L 124.5078 231.2626 L 124.4514 231.5960 L 124.3935 231.9292 L 124.3339 232.2621 L 124.2727 232.5947 L 124.2099 232.9270 L 124.1455 233.2590 L 124.0795 233.5907 L 124.0120 233.9221 L 123.9428 234.2531 L 123.8721 234.5838 L 123.7998 234.9142 L 123.7260 235.2442 L 123.6505 235.5739 L 123.5735 235.9032 L 123.4950 236.2321 L 123.4149 236.5607 L 123.3332 236.8889 L 123.2500 237.2167 L 123.1653 237.5441 L 123.0790 237.8710 L 122.9911 238.1976 L 122.9018 238.5238 L 122.8108 238.8495 L 122.7184 239.1748 L 122.6244 239.4997 L 122.5288 239.8241 L 122.4317 240.1480 L 122.3331 240.4715 L 122.2330 240.7945 L 122.1313 241.1171 L 122.0280 241.4391 L 121.9233 241.7607 L 121.8170 242.0817 L 121.7091 242.4022 L 121.5997 242.7222 L 121.4888 243.0417 L 121.3763 243.3606 L 121.2623 243.6790 L 121.1467 243.9968 L 121.0296 244.3141 L 120.9109 244.6308 L 120.7906 244.9469 L 120.6688 245.2624 L 120.5454 245.5772 L 120.4205 245.8915 L 120.2940 246.2051 L 120.1659 246.5181 L 120.0362 246.8305 L 119.9050 247.1421 L 119.7721 247.4531 L 119.6377 247.7635 L 119.5017 248.0731 L 119.3640 248.3820 L 119.2248 248.6902 L 119.0839 248.9976 L 118.9414 249.3043 L 118.7973 249.6103 L 118.6515 249.9154 L 118.5041 250.2198 L 118.3551 250.5234 L 118.2044 250.8261 L 118.0520 251.1280 L 117.8980 251.4291 L 117.7423 251.7293 L 117.5849 252.0286 L 117.4258 252.3271 L 117.2650 252.6246 L 117.1025 252.9212 L 116.9383 253.2168 L 116.7724 253.5115 L 116.6047 253.8052 L 116.4352 254.0979 L 116.2641 254.3895 L 116.0911 254.6801 L 115.9164 254.9697 L 115.7399 255.2582 L 115.5616 255.5455 L 115.3815 255.8318 L 115.1996 256.1169 L 115.0159 256.4008 L 114.8303 256.6835 L 114.6429 256.9650 L 114.4537 257.2453 L 114.2625 257.5243 L 114.0695 257.8020 L 113.8747 258.0784 L 113.6779 258.3535 L 113.4792 258.6271 L 113.2786 258.8994 L 113.0761 259.1702 L 112.8716 259.4396 L 112.6652 259.7075 L 112.4568 259.9738 L 112.2465 260.2387 L 112.0341 260.5019 L 111.8198 260.7635 L 111.6035 261.0234 L 111.3852 261.2817 L 111.1648 261.5382 L 110.9424 261.7930 L 110.7180 262.0460 L 110.4915 262.2971 L 110.2630 262.5464 L 110.0324 262.7938 L 109.7997 263.0392 L 109.5649 263.2826 L 109.3280 263.5239 L 109.0890 263.7632 L 108.8479 264.0004 L 108.6047 264.2354 L 108.3594 264.4681 L 108.1119 264.6986 L 107.8623 264.9268 L 107.6105 265.1526 L 107.3567 265.3760 L 107.1006 265.5970 L 106.8424 265.8154 L 106.5821 266.0312 L 106.3196 266.2444 L 106.0549 266.4550 L 105.7881 266.6628 L 105.5191 266.8678 L 105.2480 267.0699 L 104.9748 267.2692 L 104.6994 267.4654 L 104.4218 267.6587 L 104.1421 267.8488 L 103.8604 268.0358 L 103.5765 268.2196 L 103.2905 268.4000 L 103.0024 268.5771 L 102.7122 268.7509 L 102.4200 268.9211 L 102.1257 269.0878 L 101.8294 269.2508 L 101.5312 269.4102 L 101.2309 269.5658 L 100.9287 269.7176 L 100.6246 269.8655 L 100.3186 270.0094 L 100.0107 270.1493 L 99.7010 270.2851 L 99.3894 270.4168 L 99.0762 270.5442 L 98.7612 270.6672 L 98.4445 270.7859 L 98.1262 270.9002 L 97.8063 271.0099 L 97.4849 271.1151 L 97.1620 271.2156 L 96.8377 271.3114 L 96.5119 271.4023 L 96.1849 271.4885 L 95.8566 271.5697 L 95.5272 271.6460 L 95.1966 271.7173 L 94.8649 271.7834 L 94.5323 271.8444 L 94.1988 271.9002 L 93.8644 271.9508 L 93.5292 271.9960 L 93.1934 272.0360 L 92.8570 272.0705 L 92.5201 272.0996 L 92.1827 272.1232 L 91.8450 272.1413 L 91.5071 272.1538 L 91.1689 272.1607 L 90.8308 272.1621 L 90.4926 272.1578 L 90.1546 272.1478 L 89.8168 272.1322 L 89.4792 272.1109 L 89.1421 272.0838 L 88.8056 272.0511 L 88.4696 272.0126 L 88.1343 271.9684 L 87.7998 271.9184 L 87.4663 271.8627 L 87.1337 271.8013 L 86.8022 271.7342 L 86.4720 271.6614 L 86.1430 271.5829 L 85.8155 271.4987 L 85.4895 271.4089 L 85.1650 271.3135 L 84.8423 271.2125 L 84.5213 271.1059 L 84.2023 270.9938 L 83.8852 270.8762 L 83.5702 270.7532 L 83.2574 270.6247 L 82.9468 270.4909 L 82.6386 270.3517 L 82.3328 270.2073 L 82.0295 270.0576 L 81.7288 269.9028 L 81.4309 269.7429 L 81.1357 269.5779 L 80.8433 269.4078 L 80.5539 269.2329 L 80.2676 269.0530 L 79.9843 268.8683 L 79.7041 268.6788 L 79.4272 268.4847 L 79.1537 268.2859 L 78.8835 268.0825 L 78.6167 267.8746 L 78.3535 267.6623 L 78.0938 267.4457 L 77.8378 267.2247 L 77.5856 266.9995 L 77.3370 266.7701 L 77.0924 266.5366 L 76.8516 266.2992 L 76.6148 266.0578 L 76.3819 265.8125 L 76.1532 265.5634 L 75.9286 265.3106 L 75.7081 265.0541 L 75.4919 264.7941 L 75.2800 264.5306 L 75.0724 264.2636 L 74.8691 263.9933 L 74.6704 263.7197 L 74.4760 263.4429 L 74.2863 263.1630 L 74.1011 262.8800 L 73.9205 262.5941 L 73.7445 262.3053 L 73.5733 262.0137 L 73.4069 261.7193 L 73.2452 261.4222 L 73.0884 261.1226 L 72.9365 260.8205 L 72.7894 260.5159 L 72.6474 260.2090 L 72.5103 259.8999 L 72.3783 259.5885 L 72.2514 259.2751 L 72.1295 258.9596 L 72.0129 258.6422 L 71.9014 258.3229 L 71.7951 258.0018 L 71.6941 257.6791 L 71.5984 257.3547 L 71.5080 257.0288 L 71.4230 256.7015 L 71.3434 256.3729 L 71.2691 256.0429 L 71.2004 255.7118 L 71.1371 255.3796 L 71.0793 255.0464 L 71.0270 254.7123 L 70.9803 254.3773 L 70.9392 254.0416 L 70.9037 253.7053 L 70.8738 253.3685 L 70.8496 253.0312 L 70.8310 252.6935 L 70.8181 252.3556 L 70.8109 252.0175 L 70.8094 251.6793 L 70.8136 251.3411 L 70.8236 251.0031 L 70.8393 250.6653 L 70.8608 250.3278 L 70.8880 249.9907 L 70.9209 249.6541 L 70.9596 249.3181 L 71.0041 248.9829 L 71.0543 248.6485 L 71.1102 248.3149 L 71.1719 247.9824 L 71.2393 247.6510 L 71.3124 247.3208 L 71.3912 246.9920 L 71.4757 246.6645 L 71.5657 246.3385 L 71.6615 246.0142 L 71.7628 245.6915 L 71.8696 245.3707 L 71.9820 245.0517 L 72.0999 244.7347 L 72.2232 244.4198 L 72.3519 244.1071 L 72.4860 243.7967 L 72.6254 243.4885 L 72.7701 243.1829 L 72.9199 242.8797 L 73.0749 242.5791 L 73.2351 242.2813 L 73.4002 241.9862 L 73.5703 241.6939 L 73.7454 241.4045 L 73.9252 241.1181 L 74.1099 240.8348 L 74.2992 240.5546 L 74.4931 240.2775 L 74.6916 240.0037 L 74.8946 239.7332 L 75.1020 239.4661 L 75.3136 239.2023 L 75.5295 238.9420 L 75.7496 238.6852 L 75.9737 238.4320 L 76.2018 238.1823 L 76.4338 237.9362 L 76.6696 237.6938 L 76.9091 237.4551 L 77.1523 237.2200 L 77.3990 236.9887 L 77.6491 236.7612 L 77.9027 236.5374 L 78.1595 236.3174 L 78.4196 236.1012 L 78.6828 235.8888 L 78.9490 235.6803 L 79.2181 235.4755 L 79.4902 235.2746 L 79.7650 235.0775 L 80.0425 234.8843 L 80.3227 234.6948 L 80.6054 234.5092 L 80.8905 234.3274 L 81.1781 234.1494 L 81.4679 233.9752 L 81.7600 233.8048 L 82.0543 233.6381 L 82.3506 233.4752 L 82.6490 233.3160 L 82.9493 233.1605 L 83.2515 233.0086 L 83.5555 232.8605 L 83.8613 232.7160 L 84.1687 232.5751 L 84.4778 232.4379 L 84.7884 232.3041 L 85.1006 232.1740 L 85.4141 232.0473 L 85.7291 231.9241 L 86.0454 231.8044 L 86.3629 231.6882 L 86.6817 231.5753 L 87.0017 231.4658 L 87.3228 231.3596 L 87.6449 231.2568 L 87.9681 231.1572 L 88.2923 231.0609 L 88.6174 230.9678 L 88.9434 230.8778 L 89.2703 230.7911 L 89.5980 230.7074 L 89.9264 230.6269 L 90.2556 230.5494 L 90.5855 230.4749 L 90.9161 230.4035 L 91.2472 230.3350 L 91.5790 230.2694 L 91.9113 230.2068 L 92.2442 230.1470 L 92.5776 230.0900 L 92.9114 230.0359 L 93.2456 229.9846 L 93.5803 229.9360 L 93.9154 229.8901 L 94.2508 229.8469 L 94.5865 229.8064 L 94.9226 229.7686 L 95.2589 229.7333 L 95.5956 229.7006 L 95.9324 229.6705 L 96.2694 229.6429 L 96.6067 229.6178 L 96.9441 229.5952 L 97.2817 229.5750 L 97.6194 229.5572 L 97.9573 229.5419 L 98.2952 229.5289 L 98.6332 229.5182 L 98.9713 229.5099 L 99.3094 229.5039 L 99.6476 229.5002 L 99.9858 229.4987 L 100.3240 229.4994 L 100.6621 229.5023 L 101.0003 229.5075 L 101.3384 229.5148 L 101.6764 229.5242 L 102.0144 229.5358 L 102.3523 229.5494 L 102.6902 229.5652 L 103.0279 229.5830 L 103.3655 229.6028 L 103.7030 229.6247 L 104.0403 229.6486 L 104.3775 229.6744 L 104.7145 229.7023 L 105.0514 229.7321 L 105.3881 229.7638 L 105.7246 229.7975 L 106.0609 229.8330 L 106.3970 229.8705 L 106.7329 229.9098 L 107.0686 229.9510 L 107.4040 229.9940 L 107.7392 230.0389 L 108.0742 230.0856 L 108.4089 230.1340 L 108.7433 230.1843 L 109.0774 230.2364 L 109.4113 230.2902 L 109.7449 230.3457 L 110.0782 230.4030 L 110.4112 230.4620 L 110.7439 230.5228 L 111.0763 230.5852 L 111.4083 230.6494 L 111.7400 230.7152 L 112.0714 230.7827 L 112.4024 230.8519 L 112.7331 230.9227 L 113.0635 230.9952 L 113.3934 231.0693 L 113.7230 231.1450 L 114.0522 231.2224 L 114.3811 231.3014 L 114.7095 231.3820 L 115.0376 231.4642 L 115.3652 231.5479 L 115.6924 231.6333 L 116.0193 231.7202 L 116.3457 231.8088 L 116.6716 231.8988 L 116.9972 231.9905 L 117.3222 232.0837 L 117.6469 232.1784 L 117.9711 232.2747 L 118.2948 232.3725 L 118.6181 232.4719 L 118.9408 232.5728 L 119.2632 232.6752 L 119.5850 232.7792 L 119.9063 232.8846 L 120.2271 232.9916 L 120.5474 233.1001 L 120.8672 233.2102 L 121.1865 233.3217 L 121.5052 233.4347 L 121.8234 233.5493 L 122.1410 233.6653 L 122.4581 233.7829 L 122.7747 233.9019 L 123.0907 234.0224 L 123.4061 234.1445 L 123.7209 234.2680 L 124.0351 234.3931 L 124.3487 234.5196 L 124.6617 234.6476 L 124.9741 234.7772 L 125.2859 234.9082 L 125.5970 235.0407 L 125.9075 235.1747 L 126.2174 235.3102 L 126.5266 235.4472 L 126.8351 235.5857 L 127.1429 235.7257 L 127.4501 235.8673 L 127.7566 236.0103 L 128.0623 236.1548 L 128.3674 236.3008 L 128.6717 236.4483 L 128.9752 236.5974 L 129.2781 236.7479 L 129.5801 236.9000 L 129.8814 237.0535 L 130.1820 237.2086 L 130.4817 237.3652 L 130.7807 237.5234 L 131.0788 237.6830 L 131.3761 237.8442 L 131.6726 238.0069 L 131.9682 238.1711 L 132.2629 238.3369 L 132.5568 238.5042 L 132.8499 238.6731 L 133.1420 238.8435 L 133.4332 239.0154 L 133.7235 239.1889 L 134.0129 239.3639 L 134.3013 239.5405 L 134.5887 239.7187 L 134.8752 239.8984 L 135.1607 240.0796 L 135.4452 240.2625 L 135.7287 240.4469 L 136.0112 240.6328 L 136.2926 240.8204 L 136.5730 241.0095 L 136.8523 241.2001 L 137.1305 241.3924 L 137.4077 241.5862 L 137.6837 241.7816 L 137.9586 241.9786 L 138.2323 242.1772 L 138.5049 242.3773 L 138.7764 242.5791 L 139.0466 242.7824 L 139.3156 242.9873 L 139.5835 243.1938 L 139.8501 243.4019 L 140.1154 243.6115 L 140.3795 243.8228 L 140.6423 244.0356 L 140.9038 244.2500 L 141.1640 244.4660 L 141.4229 244.6836 L 141.6805 244.9028 L 141.9367 245.1236 L 142.1915 245.3459 L 142.4450 245.5698 L 142.6970 245.7952 L 142.9477 246.0223 L 143.1969 246.2509 L 143.4447 246.4810 L 143.6910 246.7127 L 143.9359 246.9460 L 144.1793 247.1808 L 144.4211 247.4172 L 144.6615 247.6551 L 144.9003 247.8945 L 145.1376 248.1355 L 145.3734 248.3779 L 145.6076 248.6219 L 145.8402 248.8674 L 146.0712 249.1144 L 146.3006 249.3628 L 146.5284 249.6128 L 146.7546 249.8642 L 146.9791 250.1171 L 147.2020 250.3715 L 147.4233 250.6272 L 147.6428 250.8845 L 147.8607 251.1431 L 148.0769 251.4032 L 148.2914 251.6646 L 148.5042 251.9275 L 148.7152 252.1917 L 148.9246 252.4573 L 149.1322 252.7243 L 149.3381 252.9926 L 149.5422 253.2622 L 149.7445 253.5332 L 149.9452 253.8054 L 150.1440 254.0790 L 150.3411 254.3538 L 150.5363 254.6299 L 150.7298 254.9073 L 150.9216 255.1859 L 151.1115 255.4657 L 151.2996 255.7467 L 151.4859 256.0289 L 151.6705 256.3124 L 151.8532 256.5969 L 152.0341 256.8827 L 152.2132 257.1695 L 152.3905 257.4575 L 152.5660 257.7466 L 152.7396 258.0368 L 152.9115 258.3281 L 153.0815 258.6204 L 153.2498 258.9138 L 153.4162 259.2082 L 153.5808 259.5036 L 153.7436 259.8000 L 153.9046 260.0974 L 154.0638 260.3958 L 154.2211 260.6951 L 154.3767 260.9954 L 154.5305 261.2966 L 154.6824 261.5987 L 154.8326 261.9018 L 154.9810 262.2057 L 155.1276 262.5104 L 155.2724 262.8160 L 155.4154 263.1225 L 155.5567 263.4298 L 155.6961 263.7378 L 155.8338 264.0467 L 155.9698 264.3564 L 156.1039 264.6668 L 156.2364 264.9780 L 156.3670 265.2899 L 156.4960 265.6026 L 156.6231 265.9159 L 156.7486 266.2300 L 156.8723 266.5447 L 156.9943 266.8602 L 157.1145 267.1762 L 157.2331 267.4930 L 157.3499 267.8103 L 157.4650 268.1283 L 157.5784 268.4469 L 157.6902 268.7661 L 157.8002 269.0859 L 157.9085 269.4063 L 158.0152 269.7272 L 158.1202 270.0487 L 158.2235 270.3707 L 158.3252 270.6932 L 158.4251 271.0163 L 158.5235 271.3399 L 158.6202 271.6639 L 158.7152 271.9885 L 158.8086 272.3135 L 158.9003 272.6390 L 158.9904 272.9650 L 159.0789 273.2914 L 159.1658 273.6183 L 159.2510 273.9455 L 159.3346 274.2732 L 159.4166 274.6013 L 159.4970 274.9298 L 159.5757 275.2587 L 159.6529 275.5879 L 159.7285 275.9176 L 159.8024 276.2476 L 159.8748 276.5779 L 159.9456 276.9086 L 160.0148 277.2397 L 160.0824 277.5710 L 160.1484 277.9027 L 160.2128 278.2347 L 160.2756 278.5670 L 160.3368 278.8996 L 160.3965 279.2325 L 160.4546 279.5656 L 160.5111 279.8991 L 160.5660 280.2328 L 160.6193 280.5667 L 160.6711 280.9009 L 160.7212 281.2354 L 160.7698 281.5701 L 160.8168 281.9050 L 160.8623 282.2401 L 160.9061 282.5754 L 160.9484 282.9109 L 160.9890 283.2467 L 161.0281 283.5826 L 161.0656 283.9187 L 161.1015 284.2550 L 161.1358 284.5914 L 161.1685 284.9280 L 161.1996 285.2648 L 161.2291 285.6017 L 161.2570 285.9387 L 161.2833 286.2759 L 161.3079 286.6132 L 161.3310 286.9506 L 161.3524 287.2881 L 161.3722 287.6257 L 161.3903 287.9634 L 161.4068 288.3011 L 161.4217 288.6390 L 161.4349 288.9769 L 161.4465 289.3149 L 161.4563 289.6530 L 161.4646 289.9910 L 161.4711 290.3292 L 161.4760 290.6673 L 161.4791 291.0055 L 161.4806 291.3437 L 161.4803 291.6819 L 161.4784 292.0200 L 161.4747 292.3582 L 161.4693 292.6963 L 161.4621 293.0345 L 161.4532 293.3725 L 161.4425 293.7105 L 161.4300 294.0485 L 161.4158 294.3864 L 161.3997 294.7242 L 161.3819 295.0619 L 161.3622 295.3995 L 161.3407 295.7370 L 161.3173 296.0744 L 161.2921 296.4116 L 161.2651 296.7487 L 161.2361 297.0857 L 161.2053 297.4225 L 161.1725 297.7591 L 161.1379 298.0955 L 161.1012 298.4317 L 161.0627 298.7676 L 161.0222 299.1034 L 160.9797 299.4389 L 160.9352 299.7741 L 160.8887 300.1091 L 160.8401 300.4438 L 160.7895 300.7782 L 160.7369 301.1122 L 160.6822 301.4460 L 160.6254 301.7793 L 160.5664 302.1124 L 160.5054 302.4450 L 160.4422 302.7772 L 160.3768 303.1090 L 160.3092 303.4404 L 160.2394 303.7713 L 160.1674 304.1017 L 160.0932 304.4317 L 160.0167 304.7611 L 159.9379 305.0900 L 159.8568 305.4183 L 159.7733 305.7460 L 159.6875 306.0731 L 159.5994 306.3996 L 159.5088 306.7255 L 159.4159 307.0506 L 159.3205 307.3751 L 159.2226 307.6988 L 159.1223 308.0217 L 159.0194 308.3439 L 158.9140 308.6653 L 158.8061 308.9858 L 158.6956 309.3054 L 158.5825 309.6241 L 158.4668 309.9419 L 158.3484 310.2587 L 158.2274 310.5744 L 158.1037 310.8892 L 157.9772 311.2028 L 157.8480 311.5154 L 157.7161 311.8268 L 157.5813 312.1369 L 157.4438 312.4459 L 157.3034 312.7536 L 157.1602 313.0599 L 157.0140 313.3649 L 156.8650 313.6685 L 156.7130 313.9706 L 156.5581 314.2712 L 156.4002 314.5703 L 156.2394 314.8677 L 156.0755 315.1635 L 155.9085 315.4577 L 155.7385 315.7500 L 155.5654 316.0405 L 155.3893 316.3292 L 155.2100 316.6160 L 155.0275 316.9007 L 154.8420 317.1834 L 154.6532 317.4641 L 154.4613 317.7425 L 154.2662 318.0187 L 154.0678 318.2926 L 153.8663 318.5642 L 153.6615 318.8333 L 153.4535 319.1000 L 153.2422 319.3640 L 153.0276 319.6254 L 152.8098 319.8841 L 152.5888 320.1401 L 152.3644 320.3931 L 152.1368 320.6433 L 151.9060 320.8904 L 151.6718 321.1344 L 151.4344 321.3753 L 151.1938 321.6129 L 150.9499 321.8472 L 150.7028 322.0781 L 150.4525 322.3055 L 150.1990 322.5293 L 149.9424 322.7495 L 149.6825 322.9660 L 149.4196 323.1787 L 149.1535 323.3874 L 148.8844 323.5922 L 148.6122 323.7930 L 148.3371 323.9896 L 148.0590 324.1820 L 147.7779 324.3700 L 147.4940 324.5538 L 147.2072 324.7330 L 146.9177 324.9078 L 146.6254 325.0779 L 146.3305 325.2433 L 146.0329 325.4040 L 145.7328 325.5599 L 145.4302 325.7109 L 145.1251 325.8569 L 144.8177 325.9979 L 144.5080 326.1337 L 144.1961 326.2645 L 143.8821 326.3900 L 143.5660 326.5102 L 143.2480 326.6251 L 142.9280 326.7346 L 142.6062 326.8387 L 142.2828 326.9373 L 141.9576 327.0304 L 141.6310 327.1180 L 141.3029 327.1999 L 140.9734 327.2762 L 140.6427 327.3468 L 140.3108 327.4117 L 139.9778 327.4709 L 139.6439 327.5243 L 139.3091 327.5720 L 138.9735 327.6139 L 138.6373 327.6499 L 138.3004 327.6802 L 137.9631 327.7046 L 137.6255 327.7232 L 137.2875 327.7360 L 136.9494 327.7429 L 136.6112 327.7441 L 136.2731 327.7393 L 135.9351 327.7288 L 135.5973 327.7125 L 135.2598 327.6903 L 134.9228 327.6624 L 134.5863 327.6288 L 134.2504 327.5894 L 133.9152 327.5442 L 133.5809 327.4934 L 133.2475 327.4369 L 132.9151 327.3748 L 132.5837 327.3070 L 132.2536 327.2336 L 131.9248 327.1547 L 131.5973 327.0703 L 131.2713 326.9804 L 130.9468 326.8851 L 130.6240 326.7843 L 130.3029 326.6782 L 129.9836 326.5668 L 129.6662 326.4500 L 129.3508 326.3281 L 129.0374 326.2009 L 128.7262 326.0685 L 128.4172 325.9311 L 128.1105 325.7886 L 127.8062 325.6410 L 127.5044 325.4885 L 127.2051 325.3311 L 126.9084 325.1688 L 126.6144 325.0017 L 126.3232 324.8298 L 126.0348 324.6531 L 125.7493 324.4718 L 125.4668 324.2859 L 125.1874 324.0954 L 124.9111 323.9004 L 124.6380 323.7010 L 124.3681 323.4971 L 124.1016 323.2889 L 123.8386 323.0764 L 123.5790 322.8596 L 123.3229 322.6387 L 123.0705 322.4137 L 122.8218 322.1845 L 122.5768 321.9514 L 122.3356 321.7143 L 122.0983 321.4734 L 121.8650 321.2286 L 121.6357 320.9800 L 121.4104 320.7278 L 121.1894 320.4718 L 120.9725 320.2124 L 120.7599 319.9494 L 120.5516 319.6829 L 120.3477 319.4131 L 120.1483 319.1400 L 119.9534 318.8636 L 119.7631 318.5840 L 119.5774 318.3014 L 119.3965 318.0157 L 119.2203 317.7270 L 119.0489 317.4355 L 118.8824 317.1412 L 118.7208 316.8441 L 118.5642 316.5443 L 118.4127 316.2420 L 118.2662 315.9372 L 118.1249 315.6299 L 117.9888 315.3203 L 117.8579 315.0085 L 117.7324 314.6945 L 117.6121 314.3784 L 117.4973 314.0603 L 117.3879 313.7403 L 117.2840 313.4185 L 117.1855 313.0950 L 117.0927 312.7698 L 117.0054 312.4431 L 116.9237 312.1149 L 116.8477 311.7854 L 116.7773 311.4546 L 116.7127 311.1226 L 116.6538 310.7896 L 116.6007 310.4557 L 116.5533 310.1208 L 116.5117 309.7852 L 116.4759 309.4489 L 116.4460 309.1121 L 116.4218 308.7747 L 116.4035 308.4370 L 116.3910 308.0991 L 116.3844 307.7610 L 116.3836 307.4228 L 116.3885 307.0847 L 116.3993 306.7466 L 116.4159 306.4089 L 116.4383 306.0714 L 116.4664 305.7344 L 116.5003 305.3979 L 116.5399 305.0621 L 116.5851 304.7269 L 116.6360 304.3926 L 116.6925 304.0592 L 116.7546 303.7267 L 116.8222 303.3954 L 116.8953 303.0652 L 116.9738 302.7363 L 117.0578 302.4087 L 117.1470 302.0825 L 117.2416 301.7578 L 117.3414 301.4347 L 117.4463 301.1132 L 117.5564 300.7934 L 117.6715 300.4754 L 117.7916 300.1593 L 117.9166 299.8450 L 118.0465 299.5328 L 118.1811 299.2226 L 118.3205 298.9144 L 118.4645 298.6084 L 118.6130 298.3046 L 118.7661 298.0030 L 118.9235 297.7038 L 119.0853 297.4068 L 119.2514 297.1122 L 119.4217 296.8200 L 119.5961 296.5303 L 119.7745 296.2430 L 119.9569 295.9582 L 120.1432 295.6759 L 120.3333 295.3962 L 120.5271 295.1191 L 120.7246 294.8446 L 120.9257 294.5727 L 121.1303 294.3034 L 121.3383 294.0368 L 121.5497 293.7728 L 121.7644 293.5115 L 121.9823 293.2529 L 122.2033 292.9969 L 122.4275 292.7437 L 122.6546 292.4932 L 122.8847 292.2453 L 123.1177 292.0002 L 123.3535 291.7577 L 123.5920 291.5180 L 123.8332 291.2809 L 124.0770 291.0466 L 124.3234 290.8149 L 124.5722 290.5859 L 124.8235 290.3596 L 125.0772 290.1360 L 125.3332 289.9150 L 125.5915 289.6966 L 125.8519 289.4809 L 126.1145 289.2678 L 126.3792 289.0574 L 126.6460 288.8495 L 126.9147 288.6442 L 127.1854 288.4415 L 127.4580 288.2414 L 127.7325 288.0438 L 128.0087 287.8487 L 128.2868 287.6561 L 128.5665 287.4661 L 128.8479 287.2785 L 129.1309 287.0934 L 129.4156 286.9108 L 129.7017 286.7306 L 129.9894 286.5528 L 130.2786 286.3774 L 130.5691 286.2044 L 130.8611 286.0338 L 131.1545 285.8655 L 131.4492 285.6996 L 131.7451 285.5359 L 132.0424 285.3746 L 132.3408 285.2156 L 132.6405 285.0588 L 132.9413 284.9043 L 133.2433 284.7520 L 133.5463 284.6020 L 133.8505 284.4541 L 134.1557 284.3084 L 134.4619 284.1649 L 134.7691 284.0236 L 135.0773 283.8844 L 135.3865 283.7473 L 135.6966 283.6123 L 136.0075 283.4794 L 136.3194 283.3486 L 136.6321 283.2198 L 136.9457 283.0931 L 137.2600 282.9684 L 137.5752 282.8457 L 137.8911 282.7250 L 138.2078 282.6063 L 138.5252 282.4896 L 138.8433 282.3749 L 139.1621 282.2620 L 139.4816 282.1512 L 139.8017 282.0422 L 140.1225 281.9351 L 140.4440 281.8300 L 140.7660 281.7267 L 141.0886 281.6253 L 141.4118 281.5257 L 141.7356 281.4280 L 142.0599 281.3322 L 142.3847 281.2381 L 142.7101 281.1459 L 143.0360 281.0555 L 143.3623 280.9668 L 143.6892 280.8800 L 144.0165 280.7949 L 144.3442 280.7116 L 144.6724 280.6300 L 145.0011 280.5502 L 145.3301 280.4721 L 145.6596 280.3958 L 145.9894 280.3211 L 146.3197 280.2482 L 146.6503 280.1770 L 146.9812 280.1075 L 147.3125 280.0396 L 147.6442 279.9735 L 147.9762 279.9090 L 148.3085 279.8462 L 148.6411 279.7851 L 148.9740 279.7256 L 149.3072 279.6678 L 149.6407 279.6116 L 149.9745 279.5571 L 150.3085 279.5042 L 150.6428 279.4529 L 150.9773 279.4033 L 151.3121 279.3553 L 151.6470 279.3089 L 151.9822 279.2641 L 152.3177 279.2210 L 152.6533 279.1794 L 152.9891 279.1395 L 153.3251 279.1012 L 153.6613 279.0645 L 153.9977 279.0293 L 154.3342 278.9958 L 154.6709 278.9639 L 155.0077 278.9336 L 155.3446 278.9048 L 155.6817 278.8777 L 156.0190 278.8522 L 156.3563 278.8282 L 156.6937 278.8059 L 157.0313 278.7851 L 157.3689 278.7659 L 157.7067 278.7484 L 158.0445 278.7324 L 158.3824 278.7180 L 158.7203 278.7053 L 159.0583 278.6941 L 159.3964 278.6845 L 159.7344 278.6766 L 160.0726 278.6702 L 160.4107 278.6655 L 160.7489 278.6623 L 161.0871 278.6608 L 161.4253 278.6609 L 161.7634 278.6626 L 162.1016 278.6659 L 162.4398 278.6709 L 162.7779 278.6775 L 163.1160 278.6857 L 163.4540 278.6956 L 163.7920 278.7071 L 164.1299 278.7203 L 164.4678 278.7351 L 164.8056 278.7516 L 165.1433 278.7698 L 165.4809 278.7896 L 165.8184 278.8111 L 166.1558 278.8343 L 166.4930 278.8591 L 166.8302 278.8857 L 167.1672 278.9139 L 167.5040 278.9439 L 167.8407 278.9756 L 168.1773 279.0090 L 168.5136 279.0441 L 168.8498 279.0809 L 169.1858 279.1195 L 169.5216 279.1598 L 169.8571 279.2019 L 170.1924 279.2458 L 170.5275 279.2914 L 170.8624 279.3388 L 171.1970 279.3879 L 171.5313 279.4389 L 171.8654 279.4916 L 172.1991 279.5462 L 172.5326 279.6025 L 172.8657 279.6607 L 173.1985 279.7207 L 173.5310 279.7826 L 173.8631 279.8463 L 174.1949 279.9118 L 174.5263 279.9792 L 174.8573 280.0484 L 175.1880 280.1196 L 175.5182 280.1925 L 175.8480 280.2674 L 176.1773 280.3442 L 176.5062 280.4229 L 176.8347 280.5034 L 177.1627 280.5859 L 177.4901 280.6703 L 177.8171 280.7567 L 178.1436 280.8449 L 178.4695 280.9351 L 178.7949 281.0273 L 179.1198 281.1213 L 179.4440 281.2174 L 179.7677 281.3154 L 180.0908 281.4153 L 180.4132 281.5172 L 180.7351 281.6211 L 181.0562 281.7270 L 181.3768 281.8349 L 181.6966 281.9447 L 182.0158 282.0565 L 182.3343 282.1703 L 182.6520 282.2861 L 182.9690 282.4039 L 183.2853 282.5237 L 183.6008 282.6455 L 183.9155 282.7693 L 184.2294 282.8950 L 184.5425 283.0228 L 184.8548 283.1526 L 185.1663 283.2844 L 185.4769 283.4181 L 185.7866 283.5539 L 186.0955 283.6916 L 186.4034 283.8314 L 186.7105 283.9731 L 187.0166 284.1169 L 187.3218 284.2626 L 187.6260 284.4102 L 187.9293 284.5599 L 188.2316 284.7115 L 188.5329 284.8651 L 188.8332 285.0207 L 189.1325 285.1782 L 189.4307 285.3376 L 189.7279 285.4990 L 190.0240 285.6623 L 190.3191 285.8276 L 190.6131 285.9947 L 190.9059 286.1638 L 191.1977 286.3348 L 191.4884 286.5077 L 191.7779 286.6824 L 192.0663 286.8590 L 192.3536 287.0375 L 192.6397 287.2178 L 192.9246 287.4000 L 193.2084 287.5840 L 193.4909 287.7698 L 193.7723 287.9574 L 194.0525 288.1468 L 194.3314 288.3380 L 194.6091 288.5310 L 194.8856 288.7257 L 195.1609 288.9222 L 195.4349 289.1204 L 195.7077 289.3203 L 195.9792 289.5219 L 196.2495 289.7252 L 196.5185 289.9302 L 196.7862 290.1368 L 197.0526 290.3451 L 197.3177 290.5551 L 197.5816 290.7666 L 197.8442 290.9797 L 198.1054 291.1945 L 198.3654 291.4108 L 198.6240 291.6286 L 198.8814 291.8481 L 199.1374 292.0690 L 199.3921 292.2915 L 199.6455 292.5154 L 199.8976 292.7409 L 200.1484 292.9678 L 200.3978 293.1962 L 200.6459 293.4260 L 200.8927 293.6572 L 201.1381 293.8899 L 201.3822 294.1239 L 201.6250 294.3594 L 201.8665 294.5962 L 202.1066 294.8343 L 202.3453 295.0738 L 202.5828 295.3146 L 202.8189 295.5568 L 203.0536 295.8002 L 203.2870 296.0449 L 203.5191 296.2909 L 203.7499 296.5381 L 203.9793 296.7866 L 204.2073 297.0363 L 204.4341 297.2872 L 204.6595 297.5394 L 204.8835 297.7927 L 205.1062 298.0472 L 205.3276 298.3029 L 205.5476 298.5597 L 205.7663 298.8176 L 205.9837 299.0767 L 206.1997 299.3369 L 206.4144 299.5982 L 206.6278 299.8606 L 206.8398 300.1241 L 207.0505 300.3886 L 207.2598 300.6542 L 207.4678 300.9209 L 207.6745 301.1885 L 207.8798 301.4573 L 208.0838 301.7270 L 208.2865 301.9977 L 208.4878 302.2694 L 208.6878 302.5422 L 208.8865 302.8159 L 209.0838 303.0905 L 209.2798 303.3661 L 209.4744 303.6427 L 209.6677 303.9202 L 209.8596 304.1986 L 210.0503 304.4780 L 210.2395 304.7582 L 210.4274 305.0394 L 210.6140 305.3215 L 210.7992 305.6044 L 210.9831 305.8882 L 211.1657 306.1729 L 211.3468 306.4585 L 211.5266 306.7449 L 211.7051 307.0322 L 211.8822 307.3203 L 212.0579 307.6093 L 212.2323 307.8990 L 212.4052 308.1896 L 212.5768 308.4810 L 212.7471 308.7733 L 212.9159 309.0663 L 213.0834 309.3601 L 213.2495 309.6547 L 213.4141 309.9501 L 213.5774 310.2462 L 213.7393 310.5432 L 213.8997 310.8409 L 214.0588 311.1393 L 214.2164 311.4385 L 214.3726 311.7385 L 214.5274 312.0392 L 214.6807 312.3406 L 214.8326 312.6428 L 214.9830 312.9457 L 215.1320 313.2493 L 215.2794 313.5536 L 215.4255 313.8586 L 215.5700 314.1644 L 215.7131 314.4708 L 215.8546 314.7780 L 215.9946 315.0858 L 216.1332 315.3943 L 216.2702 315.7035 L 216.4056 316.0134 L 216.5395 316.3239 L 216.6719 316.6351 L 216.8027 316.9470 L 216.9319 317.2595 L 217.0595 317.5727 L 217.1855 317.8865 L 217.3099 318.2010 L 217.4327 318.5161 L 217.5539 318.8318 L 217.6734 319.1482 L 217.7912 319.4652 L 217.9074 319.7828 L 218.0218 320.1010 L 218.1346 320.4199 L 218.2456 320.7393 L 218.3550 321.0593 L 218.4625 321.3800 L 218.5683 321.7012 L 218.6723 322.0230 L 218.7746 322.3453 L 218.8750 322.6683 L 218.9735 322.9918 L 219.0703 323.3158 L 219.1651 323.6404 L 219.2581 323.9656 L 219.3492 324.2913 L 219.4383 324.6175 L 219.5255 324.9443 L 219.6108 325.2715 L 219.6940 325.5993 L 219.7753 325.9276 L 219.8545 326.2563 L 219.9317 326.5856 L 220.0068 326.9153 L 220.0799 327.2456 L 220.1508 327.5762 L 220.2195 327.9073 L 220.2861 328.2389 L 220.3505 328.5709 L 220.4127 328.9033 L 220.4727 329.2361 L 220.5304 329.5694 L 220.5858 329.9030 L 220.6389 330.2370 L 220.6896 330.5713 L 220.7380 330.9060 L 220.7839 331.2411 L 220.8275 331.5765 L 220.8686 331.9121 L 220.9071 332.2481 L 220.9432 332.5844 L 220.9767 332.9209 L 221.0076 333.2577 L 221.0359 333.5947 L 221.0616 333.9319 L 221.0845 334.2693 L 221.1048 334.6069 L 221.1223 334.9446 L 221.1370 335.2825 L 221.1490 335.6204 L 221.1580 335.9585 L 221.1642 336.2966 L 221.1674 336.6348 L 221.1677 336.9730 L 221.1650 337.3112 L 221.1593 337.6493 L 221.1505 337.9874 L 221.1386 338.3253 L 221.1235 338.6632 L 221.1053 339.0009 L 221.0838 339.3384 L 221.0590 339.6757 L 221.0310 340.0127 L 220.9996 340.3494 L 220.9649 340.6858 L 220.9267 341.0218 L 220.8851 341.3574 L 220.8399 341.6926 L 220.7913 342.0273 L 220.7390 342.3614 L 220.6831 342.6949 L 220.6236 343.0278 L 220.5604 343.3601 L 220.4935 343.6915 L 220.4228 344.0223 L 220.3482 344.3521 L 220.2699 344.6811 L 220.1876 345.0091 L 220.1015 345.3362 L 220.0114 345.6621 L 219.9173 345.9870 L 219.8192 346.3106 L 219.7170 346.6330 L 219.6108 346.9540 L 219.5004 347.2737 L 219.3859 347.5919 L 219.2672 347.9086 L 219.1444 348.2237 L 219.0173 348.5371 L 218.8859 348.8487 L 218.7504 349.1585 L 218.6105 349.4664 L 218.4663 349.7723 L 218.3178 350.0762 L 218.1650 350.3779 L 218.0079 350.6773 L 217.8464 350.9744 L 217.6805 351.2692 L 217.5103 351.5614 L 217.3357 351.8510 L 217.1568 352.1380 L 216.9735 352.4222 L 216.7859 352.7036 L 216.5940 352.9820 L 216.3977 353.2574 L 216.1971 353.5297 L 215.9923 353.7988 L 215.7831 354.0645 L 215.5698 354.3269 L 215.3522 354.5858 L 215.1304 354.8412 L 214.9046 355.0928 L 214.6746 355.3408 L 214.4405 355.5849 L 214.2024 355.8251 L 213.9604 356.0612 L 213.7144 356.2933 L 213.4646 356.5213 L 213.2110 356.7450 L 212.9536 356.9643 L 212.6925 357.1793 L 212.4278 357.3898 L 212.1596 357.5957 L 211.8878 357.7970 L 211.6127 357.9936 L 211.3342 358.1855 L 211.0524 358.3725 L 210.7675 358.5547 L 210.4795 358.7319 L 210.1884 358.9041 L 209.8945 359.0713 L 209.5977 359.2334 L 209.2981 359.3903 L 208.9958 359.5420 L 208.6910 359.6885 L 208.3837 359.8297 L 208.0741 359.9656 L 207.7621 360.0961 L 207.4479 360.2212 L 207.1316 360.3409 L 206.8133 360.4552 L 206.4931 360.5639 L 206.1711 360.6672 L 205.8473 360.7649 L 205.5219 360.8571 L 205.1950 360.9438 L 204.8667 361.0248 L 204.5371 361.1003 L 204.2062 361.1702 L 203.8742 361.2344 L 203.5411 361.2931 L 203.2071 361.3461 L 202.8723 361.3935 L 202.5367 361.4353 L 202.2004 361.4715 L 201.8636 361.5020 L 201.5264 361.5269 L 201.1887 361.5462 L 200.8508 361.5599 L 200.5127 361.5680 L 200.1746 361.5705 L 199.8364 361.5674 L 199.4983 361.5587 L 199.1604 361.5445 L 198.8228 361.5247 L 198.4856 361.4994 L 198.1488 361.4685 L 197.8126 361.4322 L 197.4770 361.3904 L 197.1422 361.3431 L 196.8081 361.2903 L 196.4750 361.2321 L 196.1428 361.1686 L 195.8117 361.0996 L 195.4818 361.0252 L 195.1532 360.9455 L 194.8259 360.8605 L 194.5000 360.7702 L 194.1756 360.6746 L 193.8528 360.5738 L 193.5316 360.4677 L 193.2123 360.3565 L 192.8948 360.2400 L 192.5792 360.1185 L 192.2656 359.9918 L 191.9542 359.8601 L 191.6449 359.7233 L 191.3379 359.5814 L 191.0332 359.4346 L 190.7310 359.2829 L 190.4313 359.1262 L 190.1342 358.9647 L 189.8398 358.7983 L 189.5481 358.6271 L 189.2593 358.4511 L 188.9735 358.2704 L 188.6906 358.0850 L 188.4109 357.8950 L 188.1343 357.7004 L 187.8610 357.5012 L 187.5911 357.2975 L 187.3246 357.0893 L 187.0616 356.8767 L 186.8021 356.6598 L 186.5464 356.4385 L 186.2944 356.2130 L 186.0462 355.9833 L 185.8019 355.7494 L 185.5616 355.5114 L 185.3254 355.2694 L 185.0933 355.0235 L 184.8654 354.7736 L 184.6418 354.5199 L 184.4226 354.2624 L 184.2078 354.0012 L 183.9975 353.7364 L 183.7917 353.4680 L 183.5906 353.1961 L 183.3942 352.9208 L 183.2026 352.6421 L 183.0158 352.3602 L 182.8339 352.0751 L 182.6569 351.7869 L 182.4849 351.4958 L 182.3180 351.2016 L 182.1562 350.9047 L 181.9995 350.6050 L 181.8481 350.3026 L 181.7019 349.9977 L 181.5609 349.6902 L 181.4253 349.3804 L 181.2951 349.0683 L 181.1702 348.7541 L 181.0508 348.4377 L 180.9368 348.1193 L 180.8282 347.7990 L 180.7252 347.4769 L 180.6276 347.1531 L 180.5356 346.8277 L 180.4490 346.5008 L 180.3681 346.1724 L 180.2926 345.8428 L 180.2226 345.5119 L 180.1582 345.1799 L 180.0993 344.8469 L 180.0459 344.5129 L 179.9980 344.1782 L 179.9556 343.8427 L 179.9187 343.5065 L 179.8871 343.1698 L 179.8610 342.8326 L 179.8402 342.4951 L 179.8248 342.1572 L 179.8147 341.8192 L 179.8099 341.4811 L 179.8103 341.1429 L 179.8159 340.8047 L 179.8267 340.4667 L 179.8425 340.1289 L 179.8635 339.7914 L 179.8894 339.4542 L 179.9203 339.1174 L 179.9560 338.7811 L 179.9967 338.4454 L 180.0421 338.1103 L 180.0923 337.7759 L 180.1471 337.4421 L 180.2066 337.1092 L 180.2706 336.7772 L 180.3391 336.4460 L 180.4121 336.1158 L 180.4895 335.7866 L 180.5711 335.4584 L 180.6570 335.1313 L 180.7471 334.8053 L 180.8414 334.4805 L 180.9397 334.1570 L 181.0420 333.8346 L 181.1482 333.5136 L 181.2583 333.1938 L 181.3722 332.8754 L 181.4899 332.5583 L 181.6113 332.2427 L 181.7363 331.9284 L 181.8649 331.6157 L 181.9969 331.3043 L 182.1325 330.9945 L 182.2714 330.6862 L 182.4136 330.3793 L 182.5592 330.0741 L 182.7079 329.7703 L 182.8598 329.4682 L 183.0148 329.1676 L 183.1728 328.8686 L 183.3339 328.5712 L 183.4978 328.2755 L 183.6647 327.9813 L 183.8344 327.6888 L 184.0069 327.3979 L 184.1821 327.1087 L 184.3600 326.8211 L 184.5406 326.5351 L 184.7237 326.2508 L 184.9094 325.9681 L 185.0975 325.6871 L 185.2882 325.4078 L 185.4812 325.1301 L 185.6766 324.8541 L 185.8743 324.5797 L 186.0743 324.3070 L 186.2765 324.0359 L 186.4810 323.7665 L 186.6876 323.4988 L 186.8963 323.2327 L 187.1071 322.9682 L 187.3199 322.7054 L 187.5348 322.4443 L 187.7516 322.1848 L 187.9704 321.9269 L 188.1910 321.6706 L 188.4136 321.4160 L 188.6380 321.1629 L 188.8642 320.9115 L 189.0922 320.6617 L 189.3219 320.4136 L 189.5533 320.1670 L 189.7865 319.9220 L 190.0213 319.6786 L 190.2577 319.4368 L 190.4957 319.1966 L 190.7353 318.9579 L 190.9765 318.7208 L 191.2192 318.4853 L 191.4634 318.2513 L 191.7090 318.0189 L 191.9562 317.7881 L 192.2047 317.5587 L 192.4547 317.3310 L 192.7061 317.1047 L 192.9588 316.8800 L 193.2128 316.6568 L 193.4682 316.4351 L 193.7249 316.2149 L 193.9829 315.9962 L 194.2421 315.7791 L 194.5026 315.5634 L 194.7643 315.3492 L 195.0273 315.1365 L 195.2914 314.9253 L 195.5567 314.7155 L 195.8231 314.5073 L 196.0907 314.3005 L 196.3594 314.0951 L 196.6292 313.8912 L 196.9001 313.6888 L 197.1721 313.4878 L 197.4452 313.2883 L 197.7193 313.0902 L 197.9944 312.8936 L 198.2706 312.6984 L 198.5478 312.5046 L 198.8259 312.3123 L 199.1051 312.1214 L 199.3852 311.9319 L 199.6663 311.7439 L 199.9483 311.5573 L 200.2313 311.3721 L 200.5152 311.1883 L 200.8000 311.0059 L 201.0857 310.8250 L 201.3723 310.6454 L 201.6598 310.4673 L 201.9481 310.2906 L 202.2373 310.1153 L 202.5274 309.9414 L 202.8183 309.7689 L 203.1100 309.5979 L 203.4025 309.4282 L 203.6959 309.2599 L 203.9901 309.0931 L 204.2850 308.9277 L 204.5808 308.7637 L 204.8773 308.6011 L 205.1746 308.4399 L 205.4727 308.2801 L 205.7715 308.1218 L 206.0711 307.9648 L 206.3714 307.8093 L 206.6724 307.6552 L 206.9742 307.5026 L 207.2767 307.3513 L 207.5799 307.2015 L 207.8838 307.0532 L 208.1884 306.9062 L 208.4937 306.7607 L 208.7997 306.6167 L 209.1063 306.4741 L 209.4136 306.3329 L 209.7216 306.1933 L 210.0303 306.0550 L 210.3396 305.9183 L 210.6495 305.7830 L 210.9601 305.6492 L 211.2713 305.5168 L 211.5832 305.3860 L 211.8956 305.2566 L 212.2087 305.1288 L 212.5224 305.0024 L 212.8367 304.8776 L 213.1516 304.7543 L 213.4671 304.6325 L 213.7832 304.5122 L 214.0999 304.3935 L 214.4171 304.2764 L 214.7349 304.1607 L 215.0533 304.0467 L 215.3722 303.9342 L 215.6917 303.8233 L 216.0117 303.7140 L 216.3323 303.6063 L 216.6534 303.5001 L 216.9750 303.3956 L 217.2972 303.2927 L 217.6199 303.1915 L 217.9430 303.0919 L 218.2667 302.9939 L 218.5909 302.8976 L 218.9156 302.8030 L 219.2408 302.7100 L 219.5664 302.6188 L 219.8925 302.5292 L 220.2191 302.4414 L 220.5461 302.3553 L 220.8736 302.2709 L 221.2015 302.1882 L 221.5299 302.1074 L 221.8587 302.0282 L 222.1879 301.9509 L 222.5176 301.8753 L 222.8476 301.8016 L 223.1781 301.7296 L 223.5089 301.6595 L 223.8401 301.5912 L 224.1717 301.5248 L 224.5037 301.4602 L 224.8360 301.3974 L 225.1687 301.3366 L 225.5017 301.2776 L 225.8350 301.2206 L 226.1687 301.1655 L 226.5026 301.1122 L 226.8369 301.0610 L 227.1715 301.0116 L 227.5063 300.9643 L 227.8415 300.9189 L 228.1768 300.8755 L 228.5125 300.8340 L 228.8484 300.7946 L 229.1845 300.7572 L 229.5208 300.7218 L 229.8573 300.6884 L 230.1941 300.6571 L 230.5310 300.6279 L 230.8681 300.6007 L 231.2053 300.5755 L 231.5427 300.5525 L 231.8803 300.5315 L 232.2179 300.5127 L 232.5557 300.4959 L 232.8936 300.4813 L 233.2315 300.4688 L 233.5695 300.4584 L 233.9076 300.4501 L 234.2458 300.4440 L 234.5839 300.4401 L 234.9221 300.4382 L 235.2603 300.4386 L 235.5985 300.4411 L 235.9366 300.4458 L 236.2747 300.4527 L 236.6128 300.4617 L 236.9508 300.4730 L 237.2887 300.4864 L 237.6265 300.5020 L 237.9643 300.5198 L 238.3019 300.5398 L 238.6393 300.5620 L 238.9766 300.5863 L 239.3138 300.6129 L 239.6507 300.6417 L 239.9875 300.6726 L 240.3240 300.7058 L 240.6604 300.7411 L 240.9965 300.7787 L 241.3323 300.8184 L 241.6679 300.8603 L 242.0032 300.9044 L 242.3382 300.9506 L 242.6729 300.9991 L 243.0073 301.0497 L 243.3413 301.1025 L 243.6750 301.1574 L 244.0083 301.2145 L 244.3413 301.2737 L 244.6739 301.3351 L 245.0060 301.3986 L 245.3378 301.4643 L 245.6691 301.5320 L 246.0000 301.6019 L 246.3304 301.6738 L 246.6604 301.7479 L 246.9899 301.8240 L 247.3189 301.9023 L 247.6475 301.9825 L 247.9755 302.0649 L 248.3030 302.1493 L 248.6299 302.2357 L 248.9563 302.3241 L 249.2822 302.4146 L 249.6075 302.5070 L 249.9322 302.6014 L 250.2564 302.6979 L 250.5799 302.7962 L 250.9029 302.8966 L 251.2253 302.9989 L 251.5470 303.1031 L 251.8681 303.2092 L 252.1886 303.3172 L 252.5084 303.4271 L 252.8276 303.5389 L 253.1461 303.6526 L 253.4639 303.7681 L 253.7811 303.8854 L 254.0976 304.0046 L 254.4134 304.1256 L 254.7285 304.2484 L 255.0429 304.3730 L 255.3566 304.4993 L 255.6696 304.6275 L 255.9818 304.7573 L 256.2933 304.8889 L 256.6041 305.0223 L 256.9142 305.1573 L 257.2235 305.2940 L 257.5321 305.4325 L 257.8399 305.5726 L 258.1469 305.7143 L 258.4532 305.8577 L 258.7587 306.0028 L 259.0634 306.1494 L 259.3674 306.2977 L 259.6705 306.4476 L 259.9729 306.5990 L 260.2745 306.7521 L 260.5753 306.9067 L 260.8752 307.0628 L 261.1744 307.2205 L 261.4727 307.3798 L 261.7703 307.5405 L 262.0670 307.7028 L 262.3629 307.8665 L 262.6580 308.0318 L 262.9522 308.1985 L 263.2456 308.3667 L 263.5381 308.5364 L 263.8298 308.7075 L 264.1207 308.8800 L 264.4107 309.0540 L 264.6998 309.2294 L 264.9881 309.4062 L 265.2755 309.5845 L 265.5621 309.7641 L 265.8477 309.9451 L 266.1325 310.1275 L 266.4164 310.3112 L 266.6994 310.4964 L 266.9816 310.6828 L 267.2628 310.8707 L 267.5431 311.0599 L 267.8225 311.2504 L 268.1010 311.4422 L 268.3786 311.6354 L 268.6553 311.8298 L 268.9311 312.0256 L 269.2059 312.2227 L 269.4797 312.4211 L 269.7527 312.6208 L 270.0247 312.8218 L 270.2957 313.0240 L 270.5658 313.2276 L 270.8349 313.4324 L 271.1030 313.6385 L 271.3702 313.8458 L 271.6364 314.0544 L 271.9016 314.2643 L 272.1658 314.4754 L 272.4290 314.6878 L 272.6911 314.9014 L 272.9523 315.1162 L 273.2125 315.3323 L 273.4716 315.5497 L 273.7296 315.7682 L 273.9866 315.9880 L 274.2426 316.2091 L 274.4975 316.4313 L 274.7513 316.6548 L 275.0041 316.8795 L 275.2557 317.1054 L 275.5063 317.3326 L 275.7557 317.5609 L 276.0040 317.7905 L 276.2512 318.0213 L 276.4973 318.2533 L 276.7422 318.4865 L 276.9860 318.7209 L 277.2285 318.9566 L 277.4699 319.1934 L 277.7101 319.4315 L 277.9491 319.6708 L 278.1869 319.9113 L 278.4234 320.1530 L 278.6587 320.3959 L 278.8928 320.6400 L 279.1255 320.8853 L 279.3570 321.1319 L 279.5872 321.3796 L 279.8161 321.6286 L 280.0436 321.8788 L 280.2699 322.1301 L 280.4947 322.3828 L 280.7182 322.6366 L 280.9403 322.8916 L 281.1610 323.1479 L 281.3802 323.4053 L 281.5981 323.6640 L 281.8144 323.9240 L 282.0293 324.1851 L 282.2427 324.4474 L 282.4546 324.7110 L 282.6649 324.9758 L 282.8737 325.2419 L 283.0810 325.5091 L 283.2866 325.7776 L 283.4906 326.0473 L 283.6930 326.3183 L 283.8937 326.5904 L 284.0928 326.8639 L 284.2901 327.1385 L 284.4857 327.4144 L 284.6795 327.6915 L 284.8716 327.9698 L 285.0619 328.2494 L 285.2503 328.5302 L 285.4369 328.8123 L 285.6216 329.0956 L 285.8044 329.3801 L 285.9853 329.6659 L 286.1641 329.9529 L 286.3410 330.2411 L 286.5159 330.5306 L 286.6887 330.8213 L 286.8594 331.1132 L 287.0280 331.4064 L 287.1944 331.7008 L 287.3586 331.9964 L 287.5207 332.2933 L 287.6804 332.5914 L 287.8379 332.8906 L 287.9930 333.1911 L 288.1458 333.4928 L 288.2962 333.7958 L 288.4441 334.0999 L 288.5896 334.4052 L 288.7325 334.7117 L 288.8729 335.0193 L 289.0107 335.3282 L 289.1458 335.6382 L 289.2783 335.9494 L 289.4080 336.2617 L 289.5350 336.5751 L 289.6591 336.8897 L 289.7804 337.2054 L 289.8987 337.5222 L 290.0141 337.8401 L 290.1265 338.1590 L 290.2359 338.4791 L 290.3422 338.8001 L 290.4453 339.1222 L 290.5452 339.4453 L 290.6419 339.7694 L 290.7352 340.0944 L 290.8252 340.4204 L 290.9118 340.7473 L 290.9950 341.0751 L 291.0746 341.4038 L 291.1507 341.7333 L 291.2232 342.0636 L 291.2920 342.3947 L 291.3570 342.7266 L 291.4183 343.0592 L 291.4757 343.3925 L 291.5293 343.7264 L 291.5789 344.0609 L 291.6245 344.3960 L 291.6660 344.7316 L 291.7035 345.0677 L 291.7367 345.4043 L 291.7658 345.7412 L 291.7905 346.0785 L 291.8110 346.4160 L 291.8270 346.7538 L 291.8386 347.0918 L 291.8457 347.4299 L 291.8483 347.7681 L 291.8463 348.1063 L 291.8397 348.4444 L 291.8283 348.7824 L 291.8123 349.1202 L 291.7914 349.4577 L 291.7658 349.7950 L 291.7352 350.1318 L 291.6998 350.4681 L 291.6594 350.8038 L 291.6141 351.1390 L 291.5637 351.4734 L 291.5083 351.8070 L 291.4478 352.1397 L 291.3822 352.4715 L 291.3115 352.8022 L 291.2356 353.1317 L 291.1545 353.4601 L 291.0683 353.7871 L 290.9769 354.1127 L 290.8802 354.4367 L 290.7784 354.7592 L 290.6713 355.0800 L 290.5590 355.3990 L 290.4414 355.7161 L 290.3187 356.0312 L 290.1907 356.3442 L 290.0575 356.6551 L 289.9192 356.9637 L 289.7757 357.2699 L 289.6270 357.5737 L 289.4732 357.8749 L 289.3144 358.1734 L 289.1504 358.4692 L 288.9815 358.7621 L 288.8075 359.0522 L 288.6286 359.3391 L 288.4448 359.6230 L 288.2562 359.9037 L 288.0627 360.1811 L 287.8645 360.4551 L 287.6616 360.7256 L 287.4540 360.9926 L 287.2419 361.2560 L 287.0252 361.5156 L 286.8041 361.7715 L 286.5786 362.0236 L 286.3488 362.2717 L 286.1147 362.5158 L 285.8765 362.7558 L 285.6342 362.9917 L 285.3878 363.2233 L 285.1375 363.4508 L 284.8834 363.6738 L 284.6254 363.8925 L 284.3637 364.1068 L 284.0985 364.3165 L 283.8297 364.5217 L 283.5574 364.7223 L 283.2818 364.9183 L 283.0028 365.1095 L 282.7207 365.2960 L 282.4355 365.4777 L 282.1473 365.6546 L 281.8561 365.8266 L 281.5621 365.9937 L 281.2653 366.1558 L 280.9659 366.3130 L 280.6638 366.4651 L 280.3593 366.6122 L 280.0524 366.7543 L 279.7432 366.8912 L 279.4317 367.0230 L 279.1181 367.1496 L 278.8025 367.2710 L 278.4849 367.3872 L 278.1655 367.4982 L 277.8443 367.6040 L 277.5213 367.7044 L 277.1968 367.7996 L 276.8708 367.8894 L 276.5433 367.9740 L 276.2146 368.0531 L 275.8845 368.1269 L 275.5533 368.1954 L 275.2211 368.2584 L 274.8879 368.3160 L 274.5537 368.3683 L 274.2188 368.4151 L 273.8831 368.4564 L 273.5469 368.4923 L 273.2101 368.5227 L 272.8728 368.5477 L 272.5352 368.5672 L 272.1973 368.5812 L 271.8592 368.5898 L 271.5211 368.5928 L 271.1829 368.5904 L 270.8448 368.5824 L 270.5069 368.5689 L 270.1692 368.5500 L 269.8319 368.5255 L 269.4951 368.4955 L 269.1588 368.4600 L 268.8231 368.4191 L 268.4881 368.3726 L 268.1539 368.3206 L 267.8207 368.2631 L 267.4884 368.2001 L 267.1572 368.1317 L 266.8272 368.0578 L 266.4985 367.9784 L 266.1711 367.8936 L 265.8452 367.8034 L 265.5208 367.7077 L 265.1981 367.6066 L 264.8771 367.5001 L 264.5580 367.3883 L 264.2407 367.2711 L 263.9255 367.1486 L 263.6124 367.0207 L 263.3016 366.8876 L 262.9930 366.7493 L 262.6868 366.6057 L 262.3831 366.4569 L 262.0820 366.3030 L 261.7835 366.1440 L 261.4878 365.9798 L 261.1950 365.8107 L 260.9051 365.6365 L 260.6183 365.4574 L 260.3345 365.2733 L 260.0540 365.0844 L 259.7768 364.8907 L 259.5030 364.6923 L 259.2326 364.4891 L 258.9658 364.2813 L 258.7026 364.0690 L 258.4431 363.8521 L 258.1875 363.6308 L 257.9356 363.4050 L 257.6877 363.1750 L 257.4438 362.9407 L 257.2040 362.7023 L 256.9683 362.4598 L 256.7368 362.2132 L 256.5096 361.9628 L 256.2867 361.7084 L 256.0682 361.4503 L 255.8541 361.1886 L 255.6445 360.9232 L 255.4393 360.6543 L 255.2388 360.3820 L 255.0429 360.1064 L 254.8516 359.8275 L 254.6650 359.5454 L 254.4830 359.2604 L 254.3059 358.9723 L 254.1334 358.6814 L 253.9658 358.3877 L 253.8029 358.0913 L 253.6449 357.7923 L 253.4916 357.4909 L 253.3432 357.1870 L 253.1996 356.8808 L 253.0609 356.5724 L 252.9270 356.2618 L 252.7979 355.9493 L 252.6736 355.6348 L 252.5541 355.3184 L 252.4394 355.0002 L 252.3295 354.6804 L 252.2244 354.3590 L 252.1240 354.0361 L 252.0283 353.7117 L 251.9373 353.3860 L 251.8509 353.0590 L 251.7692 352.7308 L 251.6921 352.4016 L 251.6196 352.0713 L 251.5516 351.7400 L 251.4881 351.4078 L 251.4291 351.0748 L 251.3745 350.7411 L 251.3243 350.4066 L 251.2785 350.0716 L 251.2369 349.7359 L 251.1996 349.3998 L 251.1666 349.0633 L 251.1377 348.7263 L 251.1129 348.3890 L 251.0922 348.0515 L 251.0756 347.7137 L 251.0629 347.3758 L 251.0542 347.0377 L 251.0494 346.6995 L 251.0484 346.3614 L 251.0512 346.0232 L 251.0578 345.6851 L 251.0681 345.3470 L 251.0821 345.0091 L 251.0997 344.6714 L 251.1208 344.3339 L 251.1455 343.9966 L 251.1736 343.6596 L 251.2051 343.3229 L 251.2401 342.9865 L 251.2783 342.6505 L 251.3199 342.3149 L 251.3647 341.9797 L 251.4127 341.6449 L 251.4638 341.3106 L 251.5181 340.9768 L 251.5754 340.6435 L 251.6358 340.3108 L 251.6991 339.9786 L 251.7654 339.6469 L 251.8345 339.3159 L 251.9066 338.9855 L 251.9814 338.6557 L 252.0591 338.3265 L 252.1394 337.9980 L 252.2225 337.6702 L 252.3083 337.3431 L 252.3966 337.0166 L 252.4876 336.6909 L 252.5811 336.3659 L 252.6771 336.0416 L 252.7757 335.7181 L 252.8766 335.3954 L 252.9800 335.0734 L 253.0858 334.7522 L 253.1939 334.4317 L 253.3044 334.1121 L 253.4171 333.7932 L 253.5322 333.4752 L 253.6494 333.1580 L 253.7688 332.8416 L 253.8904 332.5260 L 254.0142 332.2113 L 254.1400 331.8974 L 254.2680 331.5844 L 254.3980 331.2722 L 254.5301 330.9608 L 254.6641 330.6504 L 254.8002 330.3408 L 254.9382 330.0320 L 255.0781 329.7241 L 255.2200 329.4171 L 255.3637 329.1110 L 255.5093 328.8058 L 255.6568 328.5015 L 255.8061 328.1980 L 255.9572 327.8954 L 256.1100 327.5938 L 256.2647 327.2930 L 256.4211 326.9932 L 256.5792 326.6942 L 256.7390 326.3962 L 256.9004 326.0990 L 257.0636 325.8028 L 257.2284 325.5075 L 257.3948 325.2131 L 257.5629 324.9196 L 257.7326 324.6271 L 257.9038 324.3354 L 258.0766 324.0447 L 258.2510 323.7550 L 258.4269 323.4661 L 258.6043 323.1782 L 258.7832 322.8912 L 258.9636 322.6052 L 259.1455 322.3201 L 259.3289 322.0359 L 259.5137 321.7527 L 259.7000 321.4705 L 259.8877 321.1892 L 260.0768 320.9088 L 260.2674 320.6294 L 260.4593 320.3510 L 260.6526 320.0735 L 260.8473 319.7969 L 261.0434 319.5214 L 261.2408 319.2468 L 261.4395 318.9732 L 261.6396 318.7005 L 261.8410 318.4289 L 262.0438 318.1582 L 262.2478 317.8885 L 262.4531 317.6198 L 262.6598 317.3521 L 262.8677 317.0853 L 263.0769 316.8196 L 263.2873 316.5549 L 263.4990 316.2912 L 263.7120 316.0285 L 263.9262 315.7668 L 264.1417 315.5061 L 264.3584 315.2465 L 264.5763 314.9879 L 264.7955 314.7303 L 265.0158 314.4737 L 265.2374 314.2183 L 265.4602 313.9638 L 265.6841 313.7104 L 265.9093 313.4581 L 266.1357 313.2068 L 266.3632 312.9566 L 266.5919 312.7075 L 266.8218 312.4595 L 267.0529 312.2126 L 267.2851 311.9668 L 267.5185 311.7220 L 267.7531 311.4784 L 267.9888 311.2359 L 268.2257 310.9945 L 268.4637 310.7543 L 268.7029 310.5152 L 268.9432 310.2773 L 269.1847 310.0405 L 269.4273 309.8048 L 269.6710 309.5704 L 269.9158 309.3371 L 270.1618 309.1050 L 270.4089 308.8742 L 270.6572 308.6445 L 270.9065 308.4160 L 271.1570 308.1888 L 271.4086 307.9628 L 271.6613 307.7381 L 271.9151 307.5146 L 272.1701 307.2924 L 272.4261 307.0714 L 272.6832 306.8518 L 272.9415 306.6334 L 273.2008 306.4164 L 273.4613 306.2007 L 273.7228 305.9863 L 273.9855 305.7732 L 274.2492 305.5615 L 274.5140 305.3512 L 274.7799 305.1423 L 275.0470 304.9347 L 275.3150 304.7286 L 275.5842 304.5238 L 275.8545 304.3205 L 276.1258 304.1187 L 276.3982 303.9182 L 276.6717 303.7193 L 276.9462 303.5218 L 277.2218 303.3259 L 277.4985 303.1314 L 277.7763 302.9384 L 278.0551 302.7470 L 278.3349 302.5572 L 278.6158 302.3689 L 278.8978 302.1821 L 279.1808 301.9970 L 279.4648 301.8134 L 279.7499 301.6315 L 280.0360 301.4512 L 280.3232 301.2726 L 280.6114 301.0956 L 280.9006 300.9203 L 281.1908 300.7466 L 281.4820 300.5747 L 281.7742 300.4045 L 282.0675 300.2360 L 282.3617 300.0693 L 282.6569 299.9043 L 282.9531 299.7411 L 283.2503 299.5797 L 283.5484 299.4200 L 283.8475 299.2622 L 284.1476 299.1062 L 284.4486 298.9521 L 284.7505 298.7998 L 285.0534 298.6493 L 285.3572 298.5008 L 285.6619 298.3541 L 285.9676 298.2093 L 286.2741 298.0665 L 286.5815 297.9256 L 286.8898 297.7866 L 287.1990 297.6496 L 287.5091 297.5145 L 287.8200 297.3814 L 288.1317 297.2503 L 288.4443 297.1212 L 288.7577 296.9941 L 289.0719 296.8690 L 289.3869 296.7459 L 289.7026 296.6249 L 290.0192 296.5059 L 290.3365 296.3889 L 290.6546 296.2740 L 290.9734 296.1612 L 291.2929 296.0504 L 291.6132 295.9418 L 291.9341 295.8352 L 292.2558 295.7307 L 292.5781 295.6283 L 292.9010 295.5280 L 293.2247 295.4298 L 293.5489 295.3337 L 293.8738 295.2397 L 294.1993 295.1479 L 294.5253 295.0582 L 294.8520 294.9705 L 295.1792 294.8851 L 295.5069 294.8017 L 295.8352 294.7205 L 296.1640 294.6414 L 296.4933 294.5644 L 296.8231 294.4896 L 297.1534 294.4168 L 297.4841 294.3463 L 297.8153 294.2778 L 298.1469 294.2114 L 298.4789 294.1472 L 298.8114 294.0851 L 299.1442 294.0251 L 299.4774 293.9672 L 299.8110 293.9115 L 300.1449 293.8578 L 300.4791 293.8062 L 300.8136 293.7567 L 301.1485 293.7093 L 301.4836 293.6640 L 301.8190 293.6208 L 302.1547 293.5796 L 302.4906 293.5405 L 302.8268 293.5035 L 303.1631 293.4685 L 303.4997 293.4355 L 303.8365 293.4046 L 304.1734 293.3757 L 304.5105 293.3488 L 304.8478 293.3239 L 305.1852 293.3011 L 305.5228 293.2802 L 305.8604 293.2613 L 306.1982 293.2444 L 306.5360 293.2295 L 306.8740 293.2165 L 307.2120 293.2055 L 307.5500 293.1964 L 307.8882 293.1892 L 308.2263 293.1840 L 308.5645 293.1806 L 308.9027 293.1792 L 309.2408 293.1797 L 309.5790 293.1820 L 309.9172 293.1862 L 310.2553 293.1923 L 310.5934 293.2002 L 310.9314 293.2100 L 311.2694 293.2216 L 311.6073 293.2351 L 311.9452 293.2503 L 312.2829 293.2674 L 312.6206 293.2863 L 312.9582 293.3069 L 313.2956 293.3293 L 313.6329 293.3535 L 313.9701 293.3795 L 314.3072 293.4072 L 314.6441 293.4367 L 314.9808 293.4678 L 315.3174 293.5008 L 315.6538 293.5354 L 315.9900 293.5717 L 316.3261 293.6098 L 316.6619 293.6495 L 316.9975 293.6909 L 317.3330 293.7340 L 317.6682 293.7788 L 318.0032 293.8252 L 318.3379 293.8733 L 318.6724 293.9231 L 319.0067 293.9744 L 319.3407 294.0274 L 319.6744 294.0821 L 320.0079 294.1384 L 320.3411 294.1962 L 320.6740 294.2557 L 321.0066 294.3169 L 321.3389 294.3796 L 321.6710 294.4439 L 322.0027 294.5097 L 322.3340 294.5772 L 322.6651 294.6463 L 322.9958 294.7169 L 323.3262 294.7891 L 323.6563 294.8629 L 323.9859 294.9382 L 324.3153 295.0151 L 324.6442 295.0936 L 324.9728 295.1736 L 325.3010 295.2552 L 325.6288 295.3383 L 325.9562 295.4230 L 326.2833 295.5092 L 326.6099 295.5970 L 326.9360 295.6863 L 327.2618 295.7771 L 327.5871 295.8695 L 327.9120 295.9634 L 328.2364 296.0589 L 328.5604 296.1559 L 328.8839 296.2544 L 329.2070 296.3545 L 329.5295 296.4561 L 329.8516 296.5593 L 330.1732 296.6640 L 330.4942 296.7702 L 330.8148 296.8780 L 331.1348 296.9873 L 331.4543 297.0981 L 331.7733 297.2105 L 332.0917 297.3245 L 332.4095 297.4400 L 332.7268 297.5570 L 333.0435 297.6756 L 333.3597 297.7958 L 333.6752 297.9175 L 333.9901 298.0408 L 334.3044 298.1656 L 334.6180 298.2921 L 334.9311 298.4201 L 335.2434 298.5497 L 335.5552 298.6808 L 335.8662 298.8136 L 336.1765 298.9479 L 336.4862 299.0839 L 336.7951 299.2214 L 337.1034 299.3606 L 337.4109 299.5014 L 337.7176 299.6438 L 338.0236 299.7878 L 338.3288 299.9335 L 338.6332 300.0808 L 338.9368 300.2298 L 339.2396 300.3804 L 339.5416 300.5326 L 339.8427 300.6866 L 340.1430 300.8422 L 340.4423 300.9995 L 340.7408 301.1585 L 341.0384 301.3192 L 341.3350 301.4816 L 341.6307 301.6458 L 341.9254 301.8116 L 342.2192 301.9792 L 342.5119 302.1485 L 342.8036 302.3196 L 343.0943 302.4925 L 343.3839 302.6671 L 343.6724 302.8435 L 343.9599 303.0217 L 344.2462 303.2017 L 344.5313 303.3835 L 344.8153 303.5671 L 345.0981 303.7526 L 345.3797 303.9399 L 345.6600 304.1291 L 345.9391 304.3201 L 346.2169 304.5130 L 346.4933 304.7078 L 346.7684 304.9044 L 347.0422 305.1030 L 347.3145 305.3035 L 347.5854 305.5060 L 347.8549 305.7103 L 348.1228 305.9166 L 348.3893 306.1249 L 348.6542 306.3351 L 348.9175 306.5474 L 349.1792 306.7616 L 349.4392 306.9778 L 349.6976 307.1960 L 349.9542 307.4163 L 350.2091 307.6385 L 350.4622 307.8629 L 350.7134 308.0892 L 350.9628 308.3177 L 351.2102 308.5482 L 351.4557 308.7808 L 351.6993 309.0154 L 351.9407 309.2522 L 352.1801 309.4911 L 352.4174 309.7321 L 352.6525 309.9752 L 352.8854 310.2204 L 353.1160 310.4677 L 353.3443 310.7172 L 353.5702 310.9689 L 353.7938 311.2226 L 354.0148 311.4786 L 354.2334 311.7366 L 354.4494 311.9969 L 354.6627 312.2593 L 354.8734 312.5238 L 355.0814 312.7905 L 355.2865 313.0593 L 355.4888 313.3304 L 355.6882 313.6035 L 355.8846 313.8788 L 356.0780 314.1562 L 356.2683 314.4358 L 356.4555 314.7175 L 356.6394 315.0012 L 356.8201 315.2871 L 356.9974 315.5751 L 357.1713 315.8652 L 357.3417 316.1573 L 357.5085 316.4514 L 357.6718 316.7476 L 357.8314 317.0458 L 357.9872 317.3459 L 358.1392 317.6480 L 358.2873 317.9521 L 358.4314 318.2580 L 358.5716 318.5658 L 358.7076 318.8754 L 358.8394 319.1868 L 358.9671 319.5000 L 359.0904 319.8149 L 359.2093 320.1315 L 359.3238 320.4497 L 359.4338 320.7695 L 359.5392 321.0908 L 359.6399 321.4137 L 359.7359 321.7379 L 359.8272 322.0636 L 359.9136 322.3905 L 359.9951 322.7187 L 360.0716 323.0481 L 360.1431 323.3787 L 360.2096 323.7103 L 360.2708 324.0428 L 360.3269 324.3763 L 360.3778 324.7107 L 360.4233 325.0458 L 360.4635 325.3816 L 360.4983 325.7180 L 360.5277 326.0549 L 360.5516 326.3922 L 360.5700 326.7299 L 360.5828 327.0678 L 360.5901 327.4059 L 360.5917 327.7441 L 360.5877 328.0823 L 360.5780 328.4203 L 360.5627 328.7581 L 360.5417 329.0957 L 360.5150 329.4328 L 360.4825 329.7694 L 360.4443 330.1054 L 360.4004 330.4408 L 360.3507 330.7753 L 360.2954 331.1089 L 360.2343 331.4415 L 360.1675 331.7730 L 360.0949 332.1033 L 360.0168 332.4324 L 359.9329 332.7600 L 359.8434 333.0861 L 359.7483 333.4106 L 359.6475 333.7335 L 359.5412 334.0545 L 359.4294 334.3737 L 359.3121 334.6909 L 359.1894 335.0060 L 359.0612 335.3189 L 358.9277 335.6296 L 358.7888 335.9380 L 358.6446 336.2439 L 358.4953 336.5473 L 358.3407 336.8481 L 358.1810 337.1462 L 358.0163 337.4415 L 357.8465 337.7340 L 357.6718 338.0236 L 357.4922 338.3101 L 357.3078 338.5936 L 357.1186 338.8739 L 356.9246 339.1510 L 356.7261 339.4247 L 356.5230 339.6951 L 356.3153 339.9620 L 356.1032 340.2255 L 355.8868 340.4853 L 355.6660 340.7415 L 355.4411 340.9940 L 355.2119 341.2427 L 354.9787 341.4876 L 354.7414 341.7286 L 354.5002 341.9656 L 354.2551 342.1986 L 354.0062 342.4276 L 353.7536 342.6524 L 353.4974 342.8731 L 353.2375 343.0895 L 352.9742 343.3017 L 352.7074 343.5095 L 352.4373 343.7130 L 352.1638 343.9120 L 351.8872 344.1066 L 351.6075 344.2966 L 351.3247 344.4820 L 351.0389 344.6629 L 350.7502 344.8391 L 350.4587 345.0105 L 350.1645 345.1772 L 349.8676 345.3391 L 349.5681 345.4962 L 349.2661 345.6484 L 348.9617 345.7957 L 348.6549 345.9380 L 348.3459 346.0754 L 348.0346 346.2076 L 347.7213 346.3349 L 347.4059 346.4570 L 347.0886 346.5739 L 346.7694 346.6857 L 346.4485 346.7922 L 346.1258 346.8935 L 345.8015 346.9895 L 345.4757 347.0801 L 345.1485 347.1654 L 344.8199 347.2454 L 344.4900 347.3199 L 344.1589 347.3889 L 343.8268 347.4525 L 343.4936 347.5106 L 343.1596 347.5631 L 342.8247 347.6101 L 342.4890 347.6515 L 342.1527 347.6874 L 341.8159 347.7175 L 341.4786 347.7421 L 341.1410 347.7610 L 340.8030 347.7742 L 340.4649 347.7817 L 340.1268 347.7835 L 339.7886 347.7795 L 339.4506 347.7699 L 339.1127 347.7545 L 338.7752 347.7333 L 338.4381 347.7064 L 338.1015 347.6738 L 337.7655 347.6354 L 337.4302 347.5912 L 337.0957 347.5413 L 336.7622 347.4857 L 336.4296 347.4243 L 336.0981 347.3572 L 335.7679 347.2844 L 335.4389 347.2059 L 335.1114 347.1218 L 334.7853 347.0320 L 334.4609 346.9366 L 334.1381 346.8356 L 333.8172 346.7290 L 333.4981 346.6169 L 333.1810 346.4993 L 332.8660 346.3763 L 332.5532 346.2479 L 332.2426 346.1141 L 331.9344 345.9750 L 331.6286 345.8306 L 331.3253 345.6810 L 331.0246 345.5262 L 330.7265 345.3664 L 330.4313 345.2015 L 330.1389 345.0316 L 329.8493 344.8569 L 329.5628 344.6772 L 329.2793 344.4929 L 328.9989 344.3038 L 328.7217 344.1101 L 328.4477 343.9118 L 328.1771 343.7091 L 327.9097 343.5020 L 327.6458 343.2905 L 327.3853 343.0748 L 327.1283 342.8550 L 326.8749 342.6311 L 326.6250 342.4032 L 326.3787 342.1714 L 326.1361 341.9358 L 325.8972 341.6965 L 325.6620 341.4535 L 325.4304 341.2070 L 325.2027 340.9570 L 324.9787 340.7037 L 324.7585 340.4470 L 324.5421 340.1871 L 324.3295 339.9241 L 324.1208 339.6580 L 323.9158 339.3890 L 323.7147 339.1171 L 323.5174 338.8425 L 323.3240 338.5651 L 323.1343 338.2851 L 322.9485 338.0025 L 322.7665 337.7175 L 322.5883 337.4301 L 322.4139 337.1403 L 322.2432 336.8483 L 322.0764 336.5542 L 321.9132 336.2580 L 321.7538 335.9597 L 321.5982 335.6595 L 321.4462 335.3574 L 321.2978 335.0535 L 321.1531 334.7478 L 321.0121 334.4404 L 320.8746 334.1315 L 320.7407 333.8209 L 320.6103 333.5089 L 320.4835 333.1954 L 320.3601 332.8805 L 320.2402 332.5643 L 320.1238 332.2468 L 320.0107 331.9280 L 319.9011 331.6081 L 319.7947 331.2871 L 319.6917 330.9650 L 319.5919 330.6418 L 319.4954 330.3177 L 319.4022 329.9927 L 319.3121 329.6667 L 319.2251 329.3399 L 319.1413 329.0122 L 319.0606 328.6838 L 318.9830 328.3547 L 318.9084 328.0248 L 318.8367 327.6943 L 318.7681 327.3632 L 318.7024 327.0314 L 318.6396 326.6991 L 318.5796 326.3663 L 318.5225 326.0330 L 318.4682 325.6992 L 318.4168 325.3649 L 318.3680 325.0303 L 318.3220 324.6952 L 318.2787 324.3598 L 318.2381 324.0241 L 318.2000 323.6880 L 318.1646 323.3517 L 318.1318 323.0151 L 318.1016 322.6783 L 318.0738 322.3413 L 318.0486 322.0040 L 318.0259 321.6666 L 318.0055 321.3290 L 317.9877 320.9913 L 317.9722 320.6535 L 317.9591 320.3155 L 317.9483 319.9775 L 317.9399 319.6395 L 317.9337 319.3013 L 317.9298 318.9632 L 317.9282 318.6250 L 317.9288 318.2868 L 317.9317 317.9486 L 317.9367 317.6105 L 317.9439 317.2724 L 317.9532 316.9343 L 317.9646 316.5963 L 317.9782 316.2584 L 317.9938 315.9206 L 318.0115 315.5829 L 318.0313 315.2452 L 318.0530 314.9078 L 318.0768 314.5704 L 318.1026 314.2332 L 318.1303 313.8962 L 318.1600 313.5593 L 318.1916 313.2226 L 318.2252 312.8861 L 318.2607 312.5497 L 318.2980 312.2136 L 318.3372 311.8777 L 318.3783 311.5420 L 318.4212 311.2066 L 318.4660 310.8714 L 318.5126 310.5364 L 318.5610 310.2017 L 318.6111 309.8673 L 318.6631 309.5331 L 318.7168 309.1992 L 318.7723 308.8656 L 318.8295 308.5323 L 318.8884 308.1993 L 318.9491 307.8666 L 319.0114 307.5342 L 319.0755 307.2021 L 319.1412 306.8704 L 319.2086 306.5390 L 319.2777 306.2079 L 319.3485 305.8772 L 319.4208 305.5469 L 319.4949 305.2169 L 319.5705 304.8873 L 319.6478 304.5580 L 319.7267 304.2292 L 319.8072 303.9007 L 319.8893 303.5727 L 319.9730 303.2450 L 320.0583 302.9177 L 320.1451 302.5909 L 320.2336 302.2645 L 320.3236 301.9385 L 320.4151 301.6129 L 320.5082 301.2878 L 320.6029 300.9631 L 320.6991 300.6389 L 320.7968 300.3152 L 320.8961 299.9919 L 320.9969 299.6691 L 321.0993 299.3468 L 321.2032 299.0249 L 321.3086 298.7036 L 321.4155 298.3827 L 321.5239 298.0624 L 321.6338 297.7426 L 321.7453 297.4233 L 321.8582 297.1045 L 321.9727 296.7863 L 322.0887 296.4686 L 322.2061 296.1515 L 322.3251 295.8349 L 322.4456 295.5189 L 322.5675 295.2035 L 322.6910 294.8886 L 322.8159 294.5744 L 322.9424 294.2607 L 323.0703 293.9477 L 323.1998 293.6352 L 323.3307 293.3234 L 323.4632 293.0123 L 323.5971 292.7017 L 323.7325 292.3918 L 323.8695 292.0826 L 324.0079 291.7741 L 324.1478 291.4662 L 324.2892 291.1590 L 324.4322 290.8525 L 324.5766 290.5467 L 324.7226 290.2416 L 324.8700 289.9373 L 325.0190 289.6337 L 325.1694 289.3308 L 325.3214 289.0287 L 325.4749 288.7273 L 325.6299 288.4268 L 325.7864 288.1270 L 325.9445 287.8280 L 326.1041 287.5298 L 326.2652 287.2325 L 326.4278 286.9360 L 326.5919 286.6403 L 326.7576 286.3455 L 326.9249 286.0515 L 327.0936 285.7585 L 327.2639 285.4663 L 327.4358 285.1750 L 327.6092 284.8847 L 327.7842 284.5953 L 327.9607 284.3068 L 328.1387 284.0193 L 328.3184 283.7328 L 328.4995 283.4472 L 328.6823 283.1626 L 328.8666 282.8791 L 329.0525 282.5966 L 329.2399 282.3151 L 329.4289 282.0346 L 329.6195 281.7553 L 329.8117 281.4770 L 330.0054 281.1998 L 330.2007 280.9237 L 330.3977 280.6488 L 330.5961 280.3750 L 330.7962 280.1023 L 330.9979 279.8308 L 331.2011 279.5605 L 331.4059 279.2914 L 331.6123 279.0235 L 331.8203 278.7569 L 332.0299 278.4915 L 332.2411 278.2273 L 332.4538 277.9644 L 332.6682 277.7028 L 332.8841 277.4426 L 333.1016 277.1836 L 333.3207 276.9260 L 333.5413 276.6697 L 333.7636 276.4148 L 333.9874 276.1612 L 334.2128 275.9091 L 334.4397 275.6584 L 334.6682 275.4091 L 334.8983 275.1612 L 335.1300 274.9148 L 335.3631 274.6699 L 335.5979 274.4264 L 335.8342 274.1845 L 336.0720 273.9440 L 336.3113 273.7051 L 336.5522 273.4677 L 336.7946 273.2319 L 337.0385 272.9976 L 337.2839 272.7649 L 337.5308 272.5338 L 337.7792 272.3043 L 338.0290 272.0764 L 338.2804 271.8502 L 338.5332 271.6256 L 338.7875 271.4026 L 339.0432 271.1813 L 339.3003 270.9616 L 339.5589 270.7436 L 339.8189 270.5274 L 340.0803 270.3128 L 340.3430 270.0999 L 340.6072 269.8887 L 340.8727 269.6793 L 341.1396 269.4716 L 341.4078 269.2656 L 341.6774 269.0614 L 341.9483 268.8590 L 342.2205 268.6583 L 342.4940 268.4593 L 342.7687 268.2622 L 343.0448 268.0668 L 343.3221 267.8732 L 343.6006 267.6814 L 343.8804 267.4914 L 344.1613 267.3031 L 344.4435 267.1167 L 344.7268 266.9321 L 345.0113 266.7493 L 345.2970 266.5683 L 345.5838 266.3891 L 345.8717 266.2117 L 346.1608 266.0361 L 346.4509 265.8623 L 346.7421 265.6904 L 347.0344 265.5203 L 347.3277 265.3519 L 347.6221 265.1854 L 347.9174 265.0207 L 348.2138 264.8578 L 348.5112 264.6967 L 348.8095 264.5375 L 349.1088 264.3800 L 349.4090 264.2243 L 349.7102 264.0705 L 350.0122 263.9184 L 350.3152 263.7681 L 350.6191 263.6197 L 350.9238 263.4730 L 351.2293 263.3281 L 351.5357 263.1850 L 351.8430 263.0436 L 352.1510 262.9040 L 352.4599 262.7662 L 352.7695 262.6302 L 353.0799 262.4960 L 353.3910 262.3634 L 353.7029 262.2327 L 354.0155 262.1037 L 354.3288 261.9764 L 354.6429 261.8509 L 354.9576 261.7271 L 355.2730 261.6050 L 355.5890 261.4846 L 355.9057 261.3660 L 356.2230 261.2491 L 356.5410 261.1339 L 356.8595 261.0204 L 357.1787 260.9085 L 357.4985 260.7984 L 357.8188 260.6900 L 358.1397 260.5832 L 358.4611 260.4782 L 358.7831 260.3747 L 359.1056 260.2730 L 359.4287 260.1729 L 359.7522 260.0745 L 360.0763 259.9778 L 360.4008 259.8826 L 360.7258 259.7892 L 361.0513 259.6973 L 361.3772 259.6071 L 361.7036 259.5186 L 362.0304 259.4316 L 362.3577 259.3463 L 362.6854 259.2626 L 363.0134 259.1805 L 363.3419 259.1001 L 363.6708 259.0212 L 364.0000 258.9440 L 364.3296 258.8683 L 364.6596 258.7943 L 364.9899 258.7218 L 365.3206 258.6509 L 365.6516 258.5817 L 365.9830 258.5140 L 366.3147 258.4479 L 366.6466 258.3834 L 366.9789 258.3205 L 367.3115 258.2592 L 367.6444 258.1995 L 367.9775 258.1413 L 368.3109 258.0847 L 368.6446 258.0297 L 368.9785 257.9763 L 369.3127 257.9245 L 369.6472 257.8742 L 369.9818 257.8255 L 370.3167 257.7784 L 370.6518 257.7329 L 370.9872 257.6890 L 371.3227 257.6467 L 371.6584 257.6059 L 371.9943 257.5667 L 372.3304 257.5292 L 372.6667 257.4932 L 373.0031 257.4588 L 373.3397 257.4260 L 373.6764 257.3948 L 374.0133 257.3653 L 374.3504 257.3373 L 374.6875 257.3109 L 375.0248 257.2862 L 375.3622 257.2630 L 375.6997 257.2415 L 376.0373 257.2217 L 376.3750 257.2034 L 376.7128 257.1868 L 377.0506 257.1719 L 377.3885 257.1586 L 377.7265 257.1469 L 378.0646 257.1370 L 378.4026 257.1286 L 378.7408 257.1220 L 379.0789 257.1171 L 379.4171 257.1138 L 379.7553 257.1123 L 380.0935 257.1124 L 380.4316 257.1143 L 380.7698 257.1179 L 381.1079 257.1232 L 381.4461 257.1303 L 381.7841 257.1391 L 382.1222 257.1497 L 382.4601 257.1621 L 382.7980 257.1763 L 383.1358 257.1922 L 383.4735 257.2100 L 383.8111 257.2295 L 384.1487 257.2509 L 384.4860 257.2742 L 384.8233 257.2993 L 385.1604 257.3263 L 385.4974 257.3551 L 385.8341 257.3859 L 386.1707 257.4185 L 386.5072 257.4531 L 386.8434 257.4896 L 387.1794 257.5280 L 387.5151 257.5684 L 387.8506 257.6108 L 388.1859 257.6552 L 388.5209 257.7016 L 388.8556 257.7501 L 389.1900 257.8005 L 389.5241 257.8531 L 389.8578 257.9077 L 390.1912 257.9644 L 390.5242 258.0232 L 390.8569 258.0842 L 391.1891 258.1473 L 391.5210 258.2125 L 391.8524 258.2800 L 392.1833 258.3496 L 392.5137 258.4215 L 392.8437 258.4956 L 393.1732 258.5720 L 393.5021 258.6507 L 393.8304 258.7317 L 394.1582 258.8150 L 394.4853 258.9007 L 394.8119 258.9887 L 395.1377 259.0791 L 395.4629 259.1720 L 395.7874 259.2672 L 396.1112 259.3650 L 396.4342 259.4652 L 396.7564 259.5679 L 397.0778 259.6731 L 397.3983 259.7809 L 397.7180 259.8913 L 398.0367 260.0042 L 398.3546 260.1198 L 398.6714 260.2380 L 398.9873 260.3589 L 399.3020 260.4825 L 399.6158 260.6088 L 399.9284 260.7379 L 400.2398 260.8697 L 400.5501 261.0043 L 400.8591 261.1417 L 401.1668 261.2819 L 401.4732 261.4250 L 401.7783 261.5710 L 402.0819 261.7198 L 402.3841 261.8716 L 402.6848 262.0264 L 402.9840 262.1841 L 403.2815 262.3449 L 403.5774 262.5086 L 403.8716 262.6754 L 404.1641 262.8452 L 404.4547 263.0181 L 404.7435 263.1941 L 405.0303 263.3733 L 405.3152 263.5555 L 405.5980 263.7409 L 405.8788 263.9295 L 406.1573 264.1213 L 406.4337 264.3162 L 406.7077 264.5144 L 406.9794 264.7158 L 407.2486 264.9204 L 407.5154 265.1282 L 407.7796 265.3394 L 408.0412 265.5537 L 408.3000 265.7713 L 408.5561 265.9922 L 408.8093 266.2164 L 409.0596 266.4438 L 409.3069 266.6745 L 409.5511 266.9085 L 409.7921 267.1457 L 410.0299 267.3862 L 410.2644 267.6299 L 410.4955 267.8768 L 410.7231 268.1269 L 410.9471 268.3803 L 411.1675 268.6368 L 411.3842 268.8964 L 411.5970 269.1592 L 411.8060 269.4251 L 412.0110 269.6941 L 412.2120 269.9661 L 412.4088 270.2411 L 412.6014 270.5190 L 412.7897 270.7999 L 412.9737 271.0837 L 413.1532 271.3703 L 413.3281 271.6597 L 413.4985 271.9518 L 413.6642 272.2467 L 413.8252 272.5441 L 413.9813 272.8441 L 414.1325 273.1465 L 414.2788 273.4515 L 414.4201 273.7587 L 414.5562 274.0683 L 414.6872 274.3801 L 414.8130 274.6940 L 414.9335 275.0100 L 415.0487 275.3279 L 415.1585 275.6478 L 415.2629 275.9695 L 415.3618 276.2929 L 415.4552 276.6179 L 415.5430 276.9445 L 415.6252 277.2725 L 415.7018 277.6019 L 415.7727 277.9326 L 415.8379 278.2644 L 415.8974 278.5973 L 415.9512 278.9312 L 415.9991 279.2660 L 416.0413 279.6015 L 416.0777 279.9377 L 416.1083 280.2745 L 416.1330 280.6118 L 416.1519 280.9494 L 416.1650 281.2874 L 416.1723 281.6255 L 416.1737 281.9636 L 416.1693 282.3018 L 416.1591 282.6398 L 416.1430 282.9776 L 416.1212 283.3151 L 416.0936 283.6522 L 416.0602 283.9887 L 416.0211 284.3246 L 415.9763 284.6598 L 415.9258 284.9942 L 415.8696 285.3277 L 415.8077 285.6601 L 415.7403 285.9915 L 415.6672 286.3217 L 415.5886 286.6507 L 415.5045 286.9782 L 415.4149 287.3043 L 415.3198 287.6288 L 415.2194 287.9518 L 415.1135 288.2730 L 415.0024 288.5923 L 414.8859 288.9098 L 414.7642 289.2254 L 414.6373 289.5388 L 414.5052 289.8502 L 414.3680 290.1593 L 414.2258 290.4661 L 414.0785 290.7705 L 413.9263 291.0725 L 413.7691 291.3719 L 413.6071 291.6688 L 413.4402 291.9629 L 413.2685 292.2543 L 413.0922 292.5428 L 412.9111 292.8285 L 412.7254 293.1111 L 412.5352 293.3907 L 412.3404 293.6672 L 412.1412 293.9405 L 411.9376 294.2105 L 411.7296 294.4771 L 411.5173 294.7404 L 411.3008 295.0002 L 411.0801 295.2564 L 410.8552 295.5090 L 410.6263 295.7580 L 410.3934 296.0031 L 410.1566 296.2445 L 409.9158 296.4820 L 409.6712 296.7155 L 409.4228 296.9451 L 409.1708 297.1705 L 408.9151 297.3918 L 408.6558 297.6089 L 408.3930 297.8218 L 408.1267 298.0303 L 407.8571 298.2344 L 407.5841 298.4340 L 407.3079 298.6292 L 407.0285 298.8197 L 406.7460 299.0056 L 406.4605 299.1868 L 406.1720 299.3633 L 405.8806 299.5349 L 405.5864 299.7017 L 405.2894 299.8636 L 404.9898 300.0204 L 404.6876 300.1722 L 404.3829 300.3190 L 404.0758 300.4605 L 403.7664 300.5969 L 403.4547 300.7281 L 403.1408 300.8539 L 402.8248 300.9744 L 402.5068 301.0896 L 402.1869 301.1993 L 401.8652 301.3035 L 401.5417 301.4022 L 401.2166 301.4954 L 400.8900 301.5830 L 400.5619 301.6649 L 400.2324 301.7413 L 399.9017 301.8119 L 399.5698 301.8768 L 399.2369 301.9360 L 398.9029 301.9895 L 398.5681 302.0372 L 398.2326 302.0791 L 397.8963 302.1151 L 397.5595 302.1454 L 397.2222 302.1699 L 396.8845 302.1885 L 396.5466 302.2013 L 396.2085 302.2082 L 395.8703 302.2094 L 395.5321 302.2047 L 395.1941 302.1942 L 394.8563 302.1779 L 394.5189 302.1558 L 394.1818 302.1280 L 393.8453 302.0945 L 393.5094 302.0552 L 393.1742 302.0102 L 392.8399 301.9596 L 392.5064 301.9034 L 392.1739 301.8417 L 391.8425 301.7743 L 391.5122 301.7015 L 391.1832 301.6233 L 390.8555 301.5396 L 390.5293 301.4506 L 390.2045 301.3564 L 389.8813 301.2569 L 389.5597 301.1522 L 389.2399 301.0424 L 388.9218 300.9275 L 388.6055 300.8077 L 388.2912 300.6829 L 387.9788 300.5533 L 387.6685 300.4189 L 387.3603 300.2798 L 387.0541 300.1361 L 386.7502 299.9878 L 386.4485 299.8350 L 386.1491 299.6777 L 385.8520 299.5162 L 385.5573 299.3503 L 385.2650 299.1803 L 384.9751 299.0061 L 384.6877 298.8279 L 384.4028 298.6457 L 384.1204 298.4596 L 383.8406 298.2697 L 383.5633 298.0761 L 383.2886 297.8788 L 383.0166 297.6779 L 382.7472 297.4735 L 382.4804 297.2656 L 382.2163 297.0544 L 381.9548 296.8399 L 381.6961 296.6222 L 381.4400 296.4013 L 381.1866 296.1773 L 380.9359 295.9503 L 380.6879 295.7204 L 380.4427 295.4876 L 380.2001 295.2519 L 379.9602 295.0136 L 379.7230 294.7725 L 379.4885 294.5288 L 379.2567 294.2826 L 379.0276 294.0338 L 378.8011 293.7827 L 378.5773 293.5291 L 378.3562 293.2733 L 378.1377 293.0151 L 377.9218 292.7548 L 377.7086 292.4923 L 377.4980 292.2277 L 377.2900 291.9610 L 377.0846 291.6924 L 376.8817 291.4218 L 376.6815 291.1493 L 376.4837 290.8749 L 376.2885 290.5988 L 376.0958 290.3208 L 375.9057 290.0412 L 375.7180 289.7599 L 375.5327 289.4769 L 375.3499 289.1924 L 375.1696 288.9063 L 374.9917 288.6187 L 374.8162 288.3296 L 374.6431 288.0391 L 374.4723 287.7472 L 374.3039 287.4539 L 374.1378 287.1593 L 373.9741 286.8634 L 373.8127 286.5663 L 373.6535 286.2679 L 373.4966 285.9683 L 373.3420 285.6675 L 373.1896 285.3656 L 373.0394 285.0626 L 372.8914 284.7585 L 372.7456 284.4534 L 372.6020 284.1472 L 372.4606 283.8400 L 372.3212 283.5319 L 372.1840 283.2228 L 372.0489 282.9127 L 371.9159 282.6018 L 371.7850 282.2900 L 371.6561 281.9773 L 371.5293 281.6638 L 371.4045 281.3495 L 371.2817 281.0344 L 371.1609 280.7185 L 371.0421 280.4019 L 370.9253 280.0845 L 370.8104 279.7664 L 370.6975 279.4477 L 370.5865 279.1282 L 370.4775 278.8081 L 370.3703 278.4873 L 370.2651 278.1659 L 370.1617 277.8439 L 370.0602 277.5213 L 369.9605 277.1982 L 369.8627 276.8744 L 369.7667 276.5502 L 369.6726 276.2253 L 369.5803 275.9000 L 369.4898 275.5742 L 369.4010 275.2478 L 369.3141 274.9210 L 369.2289 274.5937 L 369.1455 274.2660 L 369.0638 273.9378 L 368.9839 273.6092 L 368.9057 273.2802 L 368.8293 272.9507 L 368.7546 272.6209 L 368.6816 272.2907 L 368.6103 271.9601 L 368.5407 271.6292 L 368.4727 271.2979 L 368.4065 270.9662 L 368.3419 270.6343 L 368.2791 270.3020 L 368.2178 269.9694 L 368.1583 269.6365 L 368.1004 269.3033 L 368.0441 268.9698 L 367.9895 268.6361 L 367.9365 268.3021 L 367.8852 267.9678 L 367.8354 267.6333 L 367.7873 267.2985 L 367.7409 266.9636 L 367.6960 266.6284 L 367.6528 266.2929 L 367.6111 265.9573 L 367.5711 265.6215 L 367.5327 265.2855 L 367.4959 264.9494 L 367.4607 264.6130 L 367.4271 264.2765 L 367.3951 263.9398 L 367.3647 263.6030 L 367.3359 263.2661 L 367.3086 262.9290 L 367.2830 262.5917 L 367.2590 262.2544 L 367.2366 261.9170 L 367.2157 261.5794 L 367.1965 261.2418 L 367.1788 260.9041 L 367.1628 260.5663 L 367.1483 260.2284 L 367.1354 259.8904 L 367.1242 259.5525 L 367.1145 259.2144 L 367.1065 258.8763 L 367.1000 258.5382 L 367.0952 258.2000 L 367.0920 257.8619 L 367.0904 257.5237 L 367.0904 257.1855 L 367.0920 256.8473 L 367.0953 256.5091 L 367.1001 256.1710 L 367.1067 255.8329 L 367.1148 255.4948 L 367.1246 255.1567 L 367.1360 254.8187 L 367.1491 254.4808 L 367.1639 254.1430 L 367.1803 253.8052 L 367.1983 253.4675 L 367.2180 253.1299 L 367.2394 252.7923 L 367.2625 252.4549 L 367.2873 252.1177 L 367.3138 251.7805 L 367.3419 251.4435 L 367.3718 251.1066 L 367.4034 250.7699 L 367.4367 250.4334 L 367.4717 250.0970 L 367.5085 249.7608 L 367.5470 249.4249 L 367.5872 249.0891 L 367.6292 248.7535 L 367.6729 248.4182 L 367.7185 248.0831 L 367.7657 247.7482 L 367.8148 247.4136 L 367.8657 247.0792 L 367.9183 246.7452 L 367.9728 246.4114 L 368.0291 246.0779 L 368.0871 245.7448 L 368.1471 245.4119 L 368.2088 245.0794 L 368.2724 244.7473 L 368.3378 244.4155 L 368.4051 244.0841 L 368.4742 243.7530 L 368.5453 243.4224 L 368.6182 243.0921 L 368.6929 242.7623 L 368.7696 242.4330 L 368.8482 242.1040 L 368.9287 241.7755 L 369.0110 241.4475 L 369.0953 241.1200 L 369.1816 240.7930 L 369.2697 240.4665 L 369.3598 240.1406 L 369.4519 239.8151 L 369.5458 239.4903 L 369.6418 239.1660 L 369.7397 238.8423 L 369.8395 238.5192 L 369.9413 238.1967 L 370.0451 237.8748 L 370.1509 237.5536 L 370.2586 237.2330 L 370.3684 236.9131 L 370.4801 236.5939 L 370.5938 236.2754 L 370.7095 235.9577 L 370.8272 235.6406 L 370.9468 235.3243 L 371.0685 235.0088 L 371.1922 234.6940 L 371.3179 234.3800 L 371.4455 234.0669 L 371.5752 233.7545 L 371.7069 233.4430 L 371.8405 233.1324 L 371.9762 232.8226 L 372.1138 232.5137 L 372.2535 232.2057 L 372.3951 231.8986 L 372.5387 231.5924 L 372.6843 231.2872 L 372.8319 230.9829 L 372.9815 230.6796 L 373.1330 230.3772 L 373.2865 230.0759 L 373.4419 229.7755 L 373.5993 229.4762 L 373.7587 229.1779 L 373.9199 228.8807 L 374.0832 228.5845 L 374.2483 228.2894 L 374.4154 227.9953 L 374.5843 227.7024 L 374.7552 227.4105 L 374.9280 227.1198 L 375.1026 226.8302 L 375.2791 226.5417 L 375.4575 226.2544 L 375.6378 225.9683 L 375.8198 225.6833 L 376.0037 225.3995 L 376.1894 225.1168 L 376.3770 224.8354 L 376.5663 224.5552 L 376.7574 224.2762 L 376.9503 223.9984 L 377.1449 223.7218 L 377.3413 223.4465 L 377.5394 223.1724 L 377.7392 222.8995 L 377.9407 222.6280 L 378.1439 222.3576 L 378.3488 222.0886 L 378.5554 221.8208 L 378.7636 221.5543 L 378.9734 221.2891 L 379.1849 221.0252 L 379.3979 220.7625 L 379.6126 220.5012 L 379.8288 220.2412 L 380.0466 219.9825 L 380.2659 219.7250 L 380.4868 219.4689 L 380.7092 219.2141 L 380.9330 218.9607 L 381.1584 218.7085 L 381.3853 218.4577 L 381.6135 218.2082 L 381.8433 217.9600 L 382.0745 217.7132 L 382.3070 217.4677 L 382.5410 217.2235 L 382.7764 216.9806 L 383.0131 216.7391 L 383.2512 216.4990 L 383.4906 216.2601 L 383.7314 216.0226 L 383.9734 215.7864 L 384.2168 215.5516 L 384.4614 215.3181 L 384.7073 215.0860 L 384.9545 214.8552 L 385.2029 214.6257 L 385.4526 214.3975 L 385.7034 214.1707 L 385.9555 213.9453 L 386.2088 213.7212 L 386.4632 213.4984 L 386.7188 213.2769 L 386.9756 213.0568 L 387.2334 212.8381 L 387.4925 212.6206 L 387.7526 212.4045 L 388.0138 212.1898 L 388.2762 211.9763 L 388.5396 211.7643 L 388.8041 211.5535 L 389.0696 211.3441 L 389.3362 211.1360 L 389.6039 210.9293 L 389.8725 210.7239 L 390.1422 210.5198 L 390.4129 210.3170 L 390.6845 210.1156 L 390.9572 209.9156 L 391.2308 209.7169 L 391.5055 209.5195 L 391.7810 209.3234 L 392.0575 209.1287 L 392.3350 208.9354 L 392.6134 208.7433 L 392.8927 208.5526 L 393.1729 208.3633 L 393.4540 208.1753 L 393.7360 207.9887 L 394.0189 207.8034 L 394.3027 207.6194 L 394.5874 207.4368 L 394.8729 207.2556 L 395.1592 207.0757 L 395.4465 206.8972 L 395.7345 206.7200 L 396.0234 206.5442 L 396.3132 206.3698 L 396.6037 206.1967 L 396.8951 206.0250 L 397.1873 205.8547 L 397.4802 205.6858 L 397.7740 205.5183 L 398.0686 205.3521 L 398.3639 205.1874 L 398.6600 205.0240 L 398.9569 204.8621 L 399.2546 204.7016 L 399.5530 204.5424 L 399.8522 204.3847 L 400.1521 204.2285 L 400.4527 204.0736 L 400.7541 203.9202 L 401.0563 203.7683 L 401.3591 203.6178 L 401.6627 203.4687 L 401.9670 203.3212 L 402.2720 203.1751 L 402.5777 203.0304 L 402.8841 202.8873 L 403.1912 202.7457 L 403.4990 202.6056 L 403.8075 202.4670 L 404.1166 202.3299 L 404.4264 202.1944 L 404.7370 202.0604 L 405.0481 201.9279 L 405.3600 201.7970 L 405.6725 201.6678 L 405.9856 201.5400 L 406.2994 201.4139 L 406.6138 201.2894 L 406.9289 201.1666 L 407.2446 201.0453 L 407.5610 200.9258 L 407.8779 200.8078 L 408.1955 200.6916 L 408.5137 200.5770 L 408.8325 200.4642 L 409.1519 200.3530 L 409.4719 200.2436 L 409.7925 200.1360 L 410.1137 200.0301 L 410.4354 199.9260 L 410.7578 199.8236 L 411.0807 199.7231 L 411.4041 199.6245 L 411.7282 199.5276 L 412.0527 199.4327 L 412.3779 199.3396 L 412.7035 199.2484 L 413.0297 199.1592 L 413.3564 199.0719 L 413.6837 198.9865 L 414.0114 198.9031 L 414.3397 198.8218 L 414.6684 198.7424 L 414.9977 198.6651 L 415.3274 198.5899 L 415.6576 198.5168 L 415.9882 198.4458 L 416.3193 198.3769 L 416.6508 198.3102 L 416.9828 198.2456 L 417.3152 198.1833 L 417.6480 198.1232 L 417.9812 198.0654 L 418.3148 198.0099 L 418.6488 197.9567 L 418.9831 197.9058 L 419.3178 197.8573 L 419.6529 197.8112 L 419.9882 197.7676 L 420.3239 197.7264 L 420.6598 197.6877 L 420.9961 197.6515 L 421.3326 197.6178 L 421.6693 197.5868 L 422.0063 197.5583 L 422.3435 197.5325 L 422.6809 197.5094 L 423.0185 197.4890 L 423.3562 197.4714 L 423.6941 197.4565 L 424.0320 197.4444 L 424.3701 197.4352 L 424.7082 197.4289 L 425.0464 197.4255 L 425.3846 197.4250 L 425.7228 197.4276 L 426.0609 197.4331 L 426.3990 197.4418 L 426.7370 197.4535 L 427.0748 197.4684 L 427.4125 197.4865 L 427.7500 197.5078 L 428.0873 197.5324 L 428.4243 197.5602 L 428.7611 197.5914 L 429.0975 197.6260 L 429.4335 197.6640 L 429.7692 197.7055 L 430.1044 197.7504 L 430.4391 197.7989 L 430.7732 197.8510 L 431.1068 197.9066 L 431.4397 197.9659 L 431.7720 198.0290 L 432.1035 198.0957 L 432.4343 198.1662 L 432.7642 198.2405 L 433.0932 198.3187 L 433.4213 198.4007 L 433.7484 198.4867 L 434.0744 198.5766 L 434.3993 198.6704 L 434.7230 198.7683 L 435.0454 198.8703 L 435.3666 198.9763 L 435.6863 199.0865 L 436.0046 199.2007 L 436.3214 199.3192 L 436.6365 199.4418 L 436.9500 199.5687 L 437.2618 199.6998 L 437.5717 199.8352 L 437.8797 199.9748 L 438.1857 200.1187 L 438.4897 200.2670 L 438.7915 200.4196 L 439.0910 200.5765 L 439.3883 200.7378 L 439.6831 200.9034 L 439.9755 201.0734 L 440.2653 201.2477 L 440.5524 201.4264 L 440.8368 201.6094 L 441.1183 201.7968 L 441.3969 201.9886 L 441.6724 202.1846 L 441.9449 202.3850 L 442.2141 202.5896 L 442.4801 202.7985 L 442.7426 203.0116 L 443.0017 203.2290 L 443.2572 203.4505 L 443.5091 203.6762 L 443.7573 203.9059 L 444.0016 204.1398 L 444.2420 204.3776 L 444.4783 204.6195 L 444.7107 204.8652 L 444.9388 205.1149 L 445.1627 205.3683 L 445.3823 205.6255 L 445.5975 205.8864 L 445.8082 206.1509 L 446.0144 206.4189 L 446.2160 206.6905 L 446.4128 206.9655 L 446.6050 207.2438 L 446.7923 207.5254 L 446.9747 207.8101 L 447.1522 208.0980 L 447.3247 208.3889 L 447.4921 208.6827 L 447.6545 208.9793 L 447.8117 209.2788 L 447.9637 209.5809 L 448.1104 209.8855 L 448.2519 210.1927 L 448.3880 210.5023 L 448.5188 210.8141 L 448.6443 211.1282 L 448.7642 211.4444 L 448.8788 211.7626 L 448.9878 212.0827 L 449.0914 212.4046 L 449.1894 212.7283 L 449.2819 213.0536 L 449.3689 213.3804 L 449.4502 213.7087 L 449.5260 214.0382 L 449.5961 214.3691 L 449.6607 214.7010 L 449.7197 215.0340 L 449.7730 215.3680 L 449.8207 215.7028 L 449.8628 216.0383 L 449.8992 216.3745 L 449.9300 216.7113 L 449.9553 217.0486 L 449.9749 217.3862 L 449.9888 217.7241 L 449.9972 218.0621 L 450.0000 218.4003 L 449.9972 218.7385 L 449.9888 219.0766 L 449.9749 219.4145 L 449.9554 219.7521 L 449.9304 220.0893 L 449.8998 220.4261 L 449.8638 220.7624 L 449.8223 221.0980 L 449.7752 221.4329 L 449.7228 221.7670 L 449.6649 222.1002 L 449.6016 222.4324 L 449.5329 222.7635 L 449.4588 223.0935 L 449.3794 223.4222 L 449.2947 223.7496 L 449.2047 224.0756 L 449.1094 224.4001 L 449.0088 224.7230 L 448.9030 225.0442 L 448.7920 225.3636 L 448.6759 225.6812 L 448.5546 225.9969 L 448.4282 226.3106 L 448.2967 226.6222 L 448.1602 226.9316 L 448.0186 227.2387 L 447.8721 227.5435 L 447.7206 227.8458 L 447.5642 228.1457 L 447.4029 228.4429 L 447.2368 228.7375 L 447.0658 229.0293 L 446.8901 229.3182 L 446.7097 229.6042 L 446.5245 229.8872 L 446.3347 230.1672 L 446.1403 230.4439 L 445.9414 230.7174 L 445.7379 230.9875 L 445.5300 231.2542 L 445.3177 231.5174 L 445.1009 231.7770 L 444.8799 232.0330 L 444.6546 232.2852 L 444.4251 232.5336 L 444.1915 232.7780 L 443.9537 233.0185 L 443.7119 233.2550 L 443.4662 233.4873 L 443.2165 233.7154 L 442.9630 233.9392 L 442.7057 234.1587 L 442.4447 234.3738 L 442.1800 234.5843 L 441.9118 234.7903 L 441.6401 234.9916 L 441.3650 235.1883 L 441.0865 235.3802 L 440.8048 235.5672 L 440.5199 235.7494 L 440.2319 235.9267 L 439.9408 236.0989 L 439.6469 236.2661 L 439.3500 236.4282 L 439.0505 236.5851 L 438.7483 236.7368 L 438.4434 236.8833 L 438.1362 237.0245 L 437.8265 237.1604 L 437.5145 237.2910 L 437.2003 237.4161 L 436.8841 237.5359 L 436.5658 237.6501 L 436.2456 237.7590 L 435.9236 237.8623 L 435.5999 237.9602 L 435.2745 238.0525 L 434.9477 238.1393 L 434.6194 238.2206 L 434.2898 238.2964 L 433.9590 238.3666 L 433.6271 238.4313 L 433.2941 238.4905 L 432.9602 238.5442 L 432.6255 238.5924 L 432.2900 238.6351 L 431.9539 238.6723 L 431.6172 238.7042 L 431.2801 238.7306 L 430.9425 238.7516 L 430.6047 238.7673 L 430.2667 238.7777 L 429.9285 238.7828 L 429.5904 238.7827 L 429.2522 238.7773 L 428.9142 238.7668 L 428.5764 238.7513 L 428.2388 238.7306 L 427.9016 238.7049 L 427.5648 238.6743 L 427.2285 238.6388 L 426.8927 238.5984 L 426.5576 238.5532 L 426.2231 238.5033 L 425.8894 238.4487 L 425.5564 238.3895 L 425.2243 238.3257 L 424.8931 238.2574 L 424.5628 238.1847 L 424.2335 238.1076 L 423.9053 238.0261 L 423.5782 237.9405 L 423.2521 237.8506 L 422.9273 237.7566 L 422.6036 237.6585 L 422.2812 237.5564 L 421.9601 237.4504 L 421.6403 237.3404 L 421.3218 237.2267 L 421.0047 237.1092 L 420.6889 236.9881 L 420.3746 236.8632 L 420.0618 236.7349 L 419.7504 236.6030 L 419.4404 236.4676 L 419.1320 236.3289 L 418.8251 236.1868 L 418.5198 236.0415 L 418.2160 235.8929 L 417.9137 235.7412 L 417.6131 235.5863 L 417.3140 235.4285 L 417.0165 235.2676 L 416.7207 235.1038 L 416.4264 234.9370 L 416.1338 234.7675 L 415.8428 234.5952 L 415.5535 234.4201 L 415.2658 234.2423 L 414.9798 234.0619 L 414.6954 233.8789 L 414.4126 233.6934 L 414.1315 233.5053 L 413.8521 233.3148 L 413.5743 233.1219 L 413.2982 232.9267 L 413.0238 232.7291 L 412.7510 232.5292 L 412.4798 232.3271 L 412.2103 232.1228 L 411.9425 231.9163 L 411.6763 231.7077 L 411.4118 231.4970 L 411.1489 231.2843 L 410.8876 231.0695 L 410.6280 230.8528 L 410.3700 230.6341 L 410.1137 230.4135 L 409.8590 230.1911 L 409.6059 229.9668 L 409.3544 229.7407 L 409.1045 229.5128 L 408.8562 229.2832 L 408.6096 229.0518 L 408.3645 228.8188 L 408.1210 228.5841 L 407.8791 228.3477 L 407.6388 228.1098 L 407.4001 227.8702 L 407.1629 227.6292 L 406.9273 227.3866 L 406.6932 227.1424 L 406.4608 226.8968 L 406.2298 226.6498 L 406.0004 226.4013 L 405.7725 226.1514 L 405.5462 225.9001 L 405.3214 225.6475 L 405.0981 225.3935 L 404.8764 225.1382 L 404.6561 224.8815 L 404.4373 224.6236 L 404.2201 224.3645 L 404.0043 224.1040 L 403.7901 223.8424 L 403.5773 223.5795 L 403.3660 223.3155 L 403.1562 223.0503 L 402.9478 222.7839 L 402.7409 222.5163 L 402.5355 222.2477 L 402.3316 221.9779 L 402.1291 221.7071 L 401.9280 221.4351 L 401.7284 221.1621 L 401.5303 220.8881 L 401.3335 220.6130 L 401.1383 220.3369 L 400.9444 220.0598 L 400.7520 219.7817 L 400.5611 219.5025 L 400.3715 219.2225 L 400.1834 218.9414 L 399.9967 218.6595 L 399.8114 218.3765 L 399.6275 218.0927 L 399.4451 217.8080 L 399.2641 217.5223 L 399.0845 217.2358 L 398.9063 216.9483 L 398.7295 216.6600 L 398.5541 216.3709 L 398.3801 216.0809 L 398.2076 215.7900 L 398.0364 215.4983 L 397.8667 215.2058 L 397.6984 214.9125 L 397.5315 214.6184 L 397.3660 214.3234 L 397.2019 214.0277 L 397.0392 213.7312 L 396.8779 213.4340 L 396.7181 213.1360 L 396.5597 212.8372 L 396.4027 212.5376 L 396.2471 212.2374 L 396.0929 211.9364 L 395.9402 211.6346 L 395.7889 211.3322 L 395.6390 211.0290 L 395.4905 210.7252 L 395.3435 210.4206 L 395.1980 210.1154 L 395.0538 209.8094 L 394.9112 209.5028 L 394.7699 209.1955 L 394.6302 208.8876 L 394.4919 208.5789 L 394.3550 208.2697 L 394.2197 207.9598 L 394.0858 207.6492 L 393.9534 207.3380 L 393.8224 207.0262 L 393.6930 206.7138 L 393.5651 206.4007 L 393.4387 206.0871 L 393.3137 205.7728 L 393.1903 205.4579 L 393.0685 205.1425 L 392.9481 204.8264 L 392.8293 204.5098 L 392.7121 204.1926 L 392.5964 203.8748 L 392.4822 203.5564 L 392.3697 203.2375 L 392.2587 202.9181 L 392.1493 202.5981 L 392.0415 202.2775 L 391.9353 201.9565 L 391.8307 201.6349 L 391.7277 201.3127 L 391.6264 200.9901 L 391.5267 200.6669 L 391.4286 200.3433 L 391.3322 200.0191 L 391.2375 199.6945 L 391.1445 199.3693 L 391.0531 199.0437 L 390.9635 198.7176 L 390.8756 198.3911 L 390.7893 198.0641 L 390.7049 197.7366 L 390.6221 197.4087 L 390.5411 197.0803 L 390.4619 196.7516 L 390.3845 196.4224 L 390.3088 196.0927 L 390.2350 195.7627 L 390.1629 195.4323 L 390.0927 195.1015 L 390.0243 194.7703 L 389.9578 194.4387 L 389.8931 194.1068 L 389.8303 193.7745 L 389.7693 193.4418 L 389.7103 193.1088 L 389.6531 192.7755 L 389.5979 192.4419 L 389.5446 192.1079 L 389.4932 191.7736 L 389.4438 191.4391 L 389.3963 191.1043 L 389.3508 190.7691 L 389.3073 190.4338 L 389.2657 190.0981 L 389.2262 189.7623 L 389.1887 189.4262 L 389.1532 189.0899 L 389.1197 188.7533 L 389.0883 188.4166 L 389.0589 188.0797 L 389.0316 187.7426 L 389.0064 187.4054 L 388.9832 187.0680 L 388.9621 186.7305 L 388.9432 186.3928 L 388.9263 186.0550 L 388.9115 185.7172 L 388.8989 185.3792 L 388.8884 185.0412 L 388.8800 184.7031 L 388.8738 184.3650 L 388.8698 184.0268 L 388.8678 183.6887 L 388.8681 183.3505 L 388.8705 183.0123 L 388.8751 182.6741 L 388.8818 182.3360 L 388.8907 181.9980 L 388.9019 181.6600 L 388.9152 181.3220 L 388.9306 180.9842 L 388.9483 180.6465 L 388.9682 180.3089 L 388.9903 179.9714 L 389.0145 179.6341 L 389.0410 179.2969 L 389.0696 178.9600 L 389.1005 178.6232 L 389.1335 178.2866 L 389.1687 177.9503 L 389.2061 177.6142 L 389.2458 177.2783 L 389.2875 176.9427 L 389.3315 176.6074 L 389.3777 176.2724 L 389.4260 175.9377 L 389.4765 175.6033 L 389.5292 175.2692 L 389.5840 174.9355 L 389.6410 174.6022 L 389.7001 174.2692 L 389.7613 173.9366 L 389.8247 173.6044 L 389.8903 173.2726 L 389.9579 172.9413 L 390.0277 172.6104 L 390.0995 172.2799 L 390.1735 171.9499 L 390.2495 171.6204 L 390.3276 171.2913 L 390.4078 170.9628 L 390.4900 170.6347 L 390.5743 170.3072 L 390.6606 169.9802 L 390.7489 169.6538 L 390.8393 169.3279 L 390.9316 169.0026 L 391.0259 168.6778 L 391.1222 168.3536 L 391.2205 168.0300 L 391.3207 167.7070 L 391.4229 167.3846 L 391.5270 167.0629 L 391.6330 166.7417 L 391.7410 166.4212 L 391.8508 166.1014 L 391.9625 165.7822 L 392.0760 165.4636 L 392.1915 165.1457 L 392.3087 164.8285 L 392.4278 164.5120 L 392.5487 164.1962 L 392.6714 163.8810 L 392.7959 163.5666 L 392.9221 163.2529 L 393.0502 162.9398 L 393.1799 162.6276 L 393.3115 162.3160 L 393.4447 162.0052 L 393.5796 161.6951 L 393.7163 161.3857 L 393.8546 161.0771 L 393.9946 160.7693 L 394.1363 160.4622 L 394.2796 160.1559 L 394.4246 159.8503 L 394.5711 159.5455 L 394.7193 159.2416 L 394.8691 158.9384 L 395.0205 158.6359 L 395.1735 158.3343 L 395.3280 158.0335 L 395.4841 157.7335 L 395.6417 157.4343 L 395.8008 157.1359 L 395.9615 156.8383 L 396.1237 156.5415 L 396.2874 156.2456 L 396.4525 155.9505 L 396.6192 155.6562 L 396.7873 155.3628 L 396.9569 155.0702 L 397.1279 154.7784 L 397.3004 154.4875 L 397.4743 154.1975 L 397.6496 153.9083 L 397.8264 153.6200 L 398.0045 153.3325 L 398.1841 153.0459 L 398.3650 152.7602 L 398.5473 152.4754 L 398.7310 152.1914 L 398.9160 151.9084 L 399.1025 151.6262 L 399.2902 151.3449 L 399.4793 151.0646 L 399.6698 150.7851 L 399.8615 150.5065 L 400.0546 150.2289 L 400.2490 149.9522 L 400.4448 149.6764 L 400.6418 149.4015 L 400.8401 149.1276 L 401.0397 148.8546 L 401.2406 148.5826 L 401.4428 148.3115 L 401.6463 148.0413 L 401.8510 147.7722 L 402.0571 147.5040 L 402.2643 147.2368 L 402.4729 146.9705 L 402.6827 146.7053 L 402.8937 146.4410 L 403.1060 146.1778 L 403.3196 145.9156 L 403.5344 145.6543 L 403.7504 145.3941 L 403.9677 145.1350 L 404.1862 144.8769 L 404.4059 144.6198 L 404.6268 144.3638 L 404.8490 144.1088 L 405.0725 143.8549 L 405.2971 143.6021 L 405.5229 143.3504 L 405.7500 143.0998 L 405.9783 142.8503 L 406.2078 142.6019 L 406.4386 142.3547 L 406.6705 142.1085 L 406.9036 141.8636 L 407.1380 141.6198 L 407.3736 141.3771 L 407.6104 141.1357 L 407.8484 140.8954 L 408.0876 140.6564 L 408.3280 140.4185 L 408.5696 140.1819 L 408.8125 139.9466 L 409.0565 139.7124 L 409.3018 139.4796 L 409.5483 139.2480 L 409.7960 139.0178 L 410.0449 138.7888 L 410.2950 138.5612 L 410.5463 138.3349 L 410.7989 138.1100 L 411.0526 137.8865 L 411.3076 137.6643 L 411.5638 137.4435 L 411.8212 137.2242 L 412.0798 137.0063 L 412.3397 136.7898 L 412.6007 136.5749 L 412.8630 136.3614 L 413.1265 136.1494 L 413.3913 135.9390 L 413.6573 135.7301 L 413.9245 135.5228 L 414.1929 135.3171 L 414.4625 135.1130 L 414.7334 134.9105 L 415.0055 134.7097 L 415.2789 134.5106 L 415.5534 134.3132 L 415.8292 134.1175 L 416.1063 133.9235 L 416.3846 133.7313 L 416.6641 133.5410 L 416.9449 133.3524 L 417.2268 133.1658 L 417.5101 132.9810 L 417.7945 132.7981 L 418.0802 132.6171 L 418.3672 132.4381 L 418.6553 132.2611 L 418.9448 132.0862 L 419.2354 131.9133 L 419.5273 131.7424 L 419.8204 131.5737 L 420.1147 131.4072" 
        fill="none" 
        stroke="#D32F2F" 
        stroke-width="0.5"
        stroke-linecap="round"
        stroke-linejoin="round"/>
</svg>