<?xml version="1.0" encoding="UTF-8"?>
<svg xmlns="http://www.w3.org/2000/svg" 
     width="500.0" height="500.0" 
     viewBox="0 0 500.0 500.0">
  <rect width="100%" height="100%" fill="#ffffff"/>
  <path d="M 90.1188 146.0822 L 89.8312 146.4224 L 89.5446 146.7636 L 89.2591 147.1056 L 88.9746 147.4484 L 88.6911 147.7921 L 88.4086 148.1367 L 88.1271 148.4820 L 87.8467 148.8283 L 87.5673 149.1753 L 87.2890 149.5232 L 87.0117 149.8719 L 86.7354 150.2214 L 86.4602 150.5718 L 86.1859 150.9229 L 85.9128 151.2749 L 85.6406 151.6277 L 85.3695 151.9812 L 85.0995 152.3356 L 84.8304 152.6907 L 84.5624 153.0467 L 84.2955 153.4034 L 84.0296 153.7608 L 83.7647 154.1191 L 83.5009 154.4781 L 83.2381 154.8379 L 82.9764 155.1985 L 82.7157 155.5598 L 82.4560 155.9218 L 82.1974 156.2846 L 81.9398 156.6481 L 81.6833 157.0124 L 81.4278 157.3774 L 81.1734 157.7432 L 80.9200 158.1096 L 80.6677 158.4768 L 80.4164 158.8447 L 80.1661 159.2134 L 79.9169 159.5827 L 79.6688 159.9527 L 79.4217 160.3235 L 79.1756 160.6949 L 78.9306 161.0670 L 78.6867 161.4398 L 78.4438 161.8133 L 78.2019 162.1875 L 77.9611 162.5624 L 77.7214 162.9379 L 77.4827 163.3141 L 77.2451 163.6910 L 77.0085 164.0685 L 76.7729 164.4467 L 76.5384 164.8255 L 76.3050 165.2050 L 76.0726 165.5851 L 75.8413 165.9659 L 75.6110 166.3473 L 75.3818 166.7294 L 75.1536 167.1120 L 74.9265 167.4953 L 74.7004 167.8793 L 74.4754 168.2638 L 74.2515 168.6490 L 74.0286 169.0347 L 73.8067 169.4211 L 73.5859 169.8081 L 73.3662 170.1957 L 73.1475 170.5838 L 72.9299 170.9726 L 72.7133 171.3620 L 72.4978 171.7519 L 72.2833 172.1424 L 72.0699 172.5335 L 71.8575 172.9252 L 71.6462 173.3174 L 71.4360 173.7102 L 71.2268 174.1036 L 71.0186 174.4975 L 70.8116 174.8920 L 70.6055 175.2871 L 70.4006 175.6826 L 70.1966 176.0788 L 69.9938 176.4754 L 69.7920 176.8726 L 69.5912 177.2704 L 69.3915 177.6687 L 69.1928 178.0675 L 68.9952 178.4668 L 68.7987 178.8666 L 68.6032 179.2670 L 68.4088 179.6678 L 68.2154 180.0692 L 68.0231 180.4711 L 67.8318 180.8735 L 67.6416 181.2764 L 67.4524 181.6798 L 67.2643 182.0836 L 67.0772 182.4880 L 66.8912 182.8929 L 66.7062 183.2982 L 66.5223 183.7040 L 66.3395 184.1103 L 66.1576 184.5170 L 65.9769 184.9242 L 65.7972 185.3319 L 65.6185 185.7401 L 65.4409 186.1487 L 65.2644 186.5577 L 65.0889 186.9673 L 64.9144 187.3772 L 64.7410 187.7876 L 64.5686 188.1985 L 64.3973 188.6098 L 64.2271 189.0215 L 64.0579 189.4336 L 63.8897 189.8462 L 63.7226 190.2592 L 63.5565 190.6726 L 63.3915 191.0865 L 63.2275 191.5007 L 63.0646 191.9154 L 62.9027 192.3305 L 62.7418 192.7460 L 62.5820 193.1619 L 62.4233 193.5782 L 62.2656 193.9949 L 62.1089 194.4120 L 61.9533 194.8294 L 61.7987 195.2473 L 61.6452 195.6655 L 61.4927 196.0842 L 61.3412 196.5032 L 61.1908 196.9225 L 61.0415 197.3423 L 60.8931 197.7624 L 60.7458 198.1829 L 60.5996 198.6037 L 60.4544 199.0250 L 60.3102 199.4465 L 60.1671 199.8684 L 60.0250 200.2907 L 59.8839 200.7133 L 59.7439 201.1363 L 59.6049 201.5596 L 59.4669 201.9832 L 59.3300 202.4072 L 59.1941 202.8315 L 59.0593 203.2561 L 58.9255 203.6811 L 58.7927 204.1064 L 58.6609 204.5320 L 58.5302 204.9579 L 58.4005 205.3842 L 58.2719 205.8107 L 58.1442 206.2376 L 58.0176 206.6648 L 57.8921 207.0923 L 57.7675 207.5200 L 57.6440 207.9481 L 57.5216 208.3765 L 57.4001 208.8051 L 57.2797 209.2341 L 57.1603 209.6633 L 57.0419 210.0928 L 56.9245 210.5227 L 56.8082 210.9527 L 56.6929 211.3831 L 56.5786 211.8137 L 56.4654 212.2446 L 56.3531 212.6758 L 56.2419 213.1072 L 56.1317 213.5389 L 56.0225 213.9709 L 55.9144 214.4031 L 55.8072 214.8355 L 55.7011 215.2682 L 55.5960 215.7012 L 55.4919 216.1344 L 55.3888 216.5679 L 55.2868 217.0015 L 55.1857 217.4355 L 55.0857 217.8696 L 54.9556 217.8896 L 54.8021 217.4713 L 54.6495 217.0527 L 54.4978 216.6338 L 54.3470 216.2146 L 54.1971 215.7950 L 54.0482 215.3751 L 53.9001 214.9549 L 53.7529 214.5344 L 53.6066 214.1136 L 53.4612 213.6924 L 53.3167 213.2709 L 53.1731 212.8492 L 53.0305 212.4271 L 52.8887 212.0047 L 52.7478 211.5820 L 52.6079 211.1591 L 52.4688 210.7358 L 52.3307 210.3122 L 52.1934 209.8883 L 52.0571 209.4642 L 51.9217 209.0397 L 51.7872 208.6150 L 51.6536 208.1899 L 51.5209 207.7646 L 51.3891 207.3390 L 51.2583 206.9131 L 51.1283 206.4870 L 50.9993 206.0605 L 50.8712 205.6338 L 50.7440 205.2068 L 50.6177 204.7795 L 50.4923 204.3520 L 50.3679 203.9242 L 50.2443 203.4961 L 50.1217 203.0678 L 50.0000 202.6392 L 50.1056 202.5609 L 50.4417 202.8533 L 50.7784 203.1450 L 51.1159 203.4359 L 51.4541 203.7260 L 51.7929 204.0153 L 52.1324 204.3038 L 52.4726 204.5915 L 52.8134 204.8785 L 53.1550 205.1646 L 53.4972 205.4499 L 53.8400 205.7344 L 54.1836 206.0180 L 54.5278 206.3009 L 54.8727 206.5830 L 55.2183 206.8642 L 55.5645 207.1446 L 55.9114 207.4242 L 56.2589 207.7030 L 56.6072 207.9809 L 56.9560 208.2580 L 57.3056 208.5342 L 57.6558 208.8097 L 58.0066 209.0843 L 58.3582 209.3580 L 58.7103 209.6309 L 59.0632 209.9029 L 59.4167 210.1741 L 59.7708 210.4445 L 60.1256 210.7140 L 60.4810 210.9826 L 60.8371 211.2504 L 61.1939 211.5173 L 61.5513 211.7833 L 61.9093 212.0485 L 62.2680 212.3128 L 62.6273 212.5762 L 62.9872 212.8388 L 63.3478 213.1004 L 63.7091 213.3612 L 64.0710 213.6211 L 64.4335 213.8801 L 64.7966 214.1383 L 65.1604 214.3955 L 65.5248 214.6518 L 65.8899 214.9073 L 66.2555 215.1618 L 66.6218 215.4154 L 66.9888 215.6681 L 67.3563 215.9199 L 67.7245 216.1708 L 68.0933 216.4208 L 68.4627 216.6699 L 68.8327 216.9180 L 69.2034 217.1653 L 69.5747 217.4115 L 69.9465 217.6569 L 70.3190 217.9013 L 70.6921 218.1448 L 71.0659 218.3874 L 71.4402 218.6290 L 71.8151 218.8697 L 72.1907 219.1094 L 72.5668 219.3482 L 72.9436 219.5861 L 73.3209 219.8229 L 73.6988 220.0589 L 74.0774 220.2938 L 74.4565 220.5278 L 74.8363 220.7609 L 75.2166 220.9929 L 75.5975 221.2240 L 75.9790 221.4541 L 76.3611 221.6833 L 76.7438 221.9115 L 77.1270 222.1386 L 77.5109 222.3648 L 77.8953 222.5901 L 78.2803 222.8143 L 78.6659 223.0375 L 79.0520 223.2597 L 79.4388 223.4810 L 79.8261 223.7012 L 80.2139 223.9204 L 80.6024 224.1386 L 80.9914 224.3559 L 81.3809 224.5720 L 81.7711 224.7872 L 82.1618 225.0014 L 82.5530 225.2145 L 82.9448 225.4266 L 83.3372 225.6377 L 83.7301 225.8478 L 84.1236 226.0568 L 84.5176 226.2647 L 84.9121 226.4717 L 85.3072 226.6776 L 85.7029 226.8824 L 86.0991 227.0862 L 86.4958 227.2890 L 86.8931 227.4907 L 87.2909 227.6913 L 87.6892 227.8909 L 88.0881 228.0894 L 88.4875 228.2869 L 88.8874 228.4833 L 89.2878 228.6786 L 89.6888 228.8728 L 90.0903 229.0659 L 90.4923 229.2580 L 90.8948 229.4490 L 91.2979 229.6389 L 91.7014 229.8277 L 92.1055 230.0155 L 92.5100 230.2021 L 92.9151 230.3876 L 93.3207 230.5720 L 93.7268 230.7554 L 94.1333 230.9376 L 94.5404 231.1187 L 94.9480 231.2987 L 95.3560 231.4775 L 95.7646 231.6553 L 96.1736 231.8319 L 96.5831 232.0074 L 96.9931 232.1818 L 97.4036 232.3550 L 97.8145 232.5271 L 98.2259 232.6981 L 98.6378 232.8679 L 99.0502 233.0366 L 99.4630 233.2042 L 99.8763 233.3705 L 100.2901 233.5358 L 100.7043 233.6999 L 101.1190 233.8628 L 101.5341 234.0245 L 101.9497 234.1851 L 102.3658 234.3446 L 102.7823 234.5028 L 103.1992 234.6599 L 103.6165 234.8158 L 104.0344 234.9705 L 104.4526 235.1240 L 104.8713 235.2764 L 105.2904 235.4275 L 105.7099 235.5775 L 106.1299 235.7263 L 106.5503 235.8739 L 106.9711 236.0202 L 107.3923 236.1654 L 107.8139 236.3094 L 108.2360 236.4521 L 108.6585 236.5936 L 109.0813 236.7339 L 109.5046 236.8730 L 109.9283 237.0109 L 110.3523 237.1476 L 110.7768 237.2830 L 111.2016 237.4171 L 111.6269 237.5501 L 112.0525 237.6818 L 112.4785 237.8123 L 112.9049 237.9415 L 113.3316 238.0694 L 113.7588 238.1962 L 114.1863 238.3216 L 114.6142 238.4458 L 115.0424 238.5688 L 115.4710 238.6905 L 115.9000 238.8109 L 116.3293 238.9300 L 116.7589 239.0479 L 117.1889 239.1645 L 117.6193 239.2798 L 118.0500 239.3938 L 118.4810 239.5066 L 118.9124 239.6180 L 119.3441 239.7282 L 119.7761 239.8370 L 120.2085 239.9446 L 120.6412 240.0509 L 120.6201 240.4867 L 120.5887 240.9312 L 120.5587 241.3757 L 120.5300 241.8203 L 120.5026 242.2650 L 120.4766 242.7098 L 120.4519 243.1546 L 120.4285 243.5995 L 120.4064 244.0445 L 120.3857 244.4896 L 120.3663 244.9347 L 120.3482 245.3799 L 120.3314 245.8251 L 120.3159 246.2704 L 120.3018 246.7157 L 120.2889 247.1610 L 120.2774 247.6064 L 120.2671 248.0518 L 120.2582 248.4973 L 120.2506 248.9427 L 120.2442 249.3882 L 120.2392 249.8337 L 120.2355 250.2793 L 120.2330 250.7248 L 120.2319 251.1703 L 120.2320 251.6159 L 120.2334 252.0614 L 120.2361 252.5069 L 120.2401 252.9524 L 120.2454 253.3979 L 120.2520 253.8434 L 120.2598 254.2889 L 120.2689 254.7343 L 120.2793 255.1798 L 120.2909 255.6251 L 120.3038 256.0705 L 120.3180 256.5158 L 120.3335 256.9611 L 120.3502 257.4063 L 120.3682 257.8515 L 120.3874 258.2966 L 120.4079 258.7416 L 120.4296 259.1867 L 120.4526 259.6316 L 120.4769 260.0765 L 120.5024 260.5213 L 120.5291 260.9660 L 120.5571 261.4107 L 120.5863 261.8552 L 120.6168 262.2997 L 120.6485 262.7441 L 120.6814 263.1885 L 120.7156 263.6327 L 120.7510 264.0768 L 120.7876 264.5208 L 120.8255 264.9648 L 120.8646 265.4086 L 120.9049 265.8523 L 120.9464 266.2959 L 120.9892 266.7394 L 121.0331 267.1827 L 121.0783 267.6260 L 121.1247 268.0691 L 121.1723 268.5121 L 121.2211 268.9549 L 121.2711 269.3976 L 121.3223 269.8402 L 121.3747 270.2827 L 121.4283 270.7250 L 121.4831 271.1671 L 121.5391 271.6091 L 121.5963 272.0510 L 121.6547 272.4927 L 121.7143 272.9342 L 121.7751 273.3756 L 121.8370 273.8168 L 121.9001 274.2578 L 121.9645 274.6987 L 122.0299 275.1394 L 122.0966 275.5799 L 122.1644 276.0203 L 122.2334 276.4604 L 122.3036 276.9004 L 122.3749 277.3402 L 122.4475 277.7798 L 122.5211 278.2192 L 122.5959 278.6584 L 122.6719 279.0974 L 122.7491 279.5362 L 122.8274 279.9748 L 122.9068 280.4132 L 122.9874 280.8514 L 123.0692 281.2894 L 123.1520 281.7271 L 123.2361 282.1647 L 123.3212 282.6020 L 123.4076 283.0391 L 123.4950 283.4759 L 123.5836 283.9126 L 123.6733 284.3490 L 123.7641 284.7852 L 123.8561 285.2211 L 123.9492 285.6568 L 124.0434 286.0923 L 124.1388 286.5275 L 124.2352 286.9625 L 124.3328 287.3972 L 124.4315 287.8316 L 124.5313 288.2659 L 124.6322 288.6998 L 124.7342 289.1335 L 124.8374 289.5669 L 124.9416 290.0001 L 125.0469 290.4330 L 125.1533 290.8657 L 125.2609 291.2980 L 125.3695 291.7301 L 125.4792 292.1619 L 125.5900 292.5935 L 125.7019 293.0247 L 125.8149 293.4557 L 125.9290 293.8864 L 126.0441 294.3168 L 126.1604 294.7469 L 126.2777 295.1767 L 126.3961 295.6062 L 126.5155 296.0354 L 126.6360 296.4644 L 126.7576 296.8930 L 126.8803 297.3213 L 127.0040 297.7493 L 127.1288 298.1770 L 127.2547 298.6044 L 127.3816 299.0315 L 127.5096 299.4583 L 127.6386 299.8847 L 127.7687 300.3108 L 127.8998 300.7366 L 128.0319 301.1621 L 128.1652 301.5873 L 128.2994 302.0121 L 128.4347 302.4366 L 128.5711 302.8607 L 128.7084 303.2846 L 128.8469 303.7081 L 128.9863 304.1312 L 129.1268 304.5540 L 129.2683 304.9765 L 129.4108 305.3986 L 129.5544 305.8204 L 129.6989 306.2418 L 129.8445 306.6629 L 129.9911 307.0836 L 130.1388 307.5040 L 130.2874 307.9240 L 130.4371 308.3436 L 130.5877 308.7629 L 130.7394 309.1819 L 130.8921 309.6004 L 131.0458 310.0186 L 131.2004 310.4364 L 131.3561 310.8539 L 131.5128 311.2710 L 131.6704 311.6877 L 131.8291 312.1040 L 131.9888 312.5200 L 132.1494 312.9355 L 132.3110 313.3507 L 132.4736 313.7655 L 132.6372 314.1799 L 132.8018 314.5940 L 132.9673 315.0076 L 133.1338 315.4209 L 133.3013 315.8337 L 133.4698 316.2462 L 133.6392 316.6582 L 133.8096 317.0699 L 133.9810 317.4812 L 134.1533 317.8920 L 134.3266 318.3025 L 134.5008 318.7125 L 134.4209 318.8215 L 134.0509 318.5734 L 133.6814 318.3245 L 133.3124 318.0747 L 132.9440 317.8242 L 132.5761 317.5729 L 132.2087 317.3208 L 131.8419 317.0679 L 131.4756 316.8142 L 131.1099 316.5598 L 130.7447 316.3045 L 130.3801 316.0485 L 130.0160 315.7917 L 129.6525 315.5341 L 129.2895 315.2758 L 128.9271 315.0166 L 128.5652 314.7567 L 128.2039 314.4960 L 127.8432 314.2346 L 127.4830 313.9723 L 127.1234 313.7093 L 126.7643 313.4455 L 126.4058 313.1810 L 126.0479 312.9157 L 125.6905 312.6496 L 125.3338 312.3828 L 124.9775 312.1151 L 124.6219 311.8468 L 124.2668 311.5776 L 123.9124 311.3077 L 123.5585 311.0371 L 123.2051 310.7657 L 122.8524 310.4935 L 122.5002 310.2206 L 122.1487 309.9469 L 121.7977 309.6724 L 121.4473 309.3973 L 121.4668 309.2640 L 121.9106 309.3030 L 122.3545 309.3411 L 122.7985 309.3781 L 123.2426 309.4141 L 123.6868 309.4490 L 124.1310 309.4829 L 124.5754 309.5157 L 125.0198 309.5475 L 125.4642 309.5782 L 125.9088 309.6079 L 126.3534 309.6366 L 126.7981 309.6642 L 127.2428 309.6907 L 127.6876 309.7162 L 128.1325 309.7406 L 128.5774 309.7640 L 129.0224 309.7863 L 129.4674 309.8076 L 129.9125 309.8278 L 130.3576 309.8469 L 130.8028 309.8650 L 131.2480 309.8820 L 131.6933 309.8980 L 132.1385 309.9128 L 132.5839 309.9266 L 133.0292 309.9394 L 133.4746 309.9510 L 133.9200 309.9616 L 134.3654 309.9711 L 134.8109 309.9795 L 135.2564 309.9869 L 135.7019 309.9932 L 136.1474 309.9984 L 136.5929 310.0025 L 137.0384 310.0055 L 137.4840 310.0074 L 137.9295 310.0083 L 138.3750 310.0080 L 138.8206 310.0067 L 139.2661 310.0043 L 139.7116 310.0008 L 140.1571 309.9962 L 140.6026 309.9905 L 141.0481 309.9837 L 141.4936 309.9758 L 141.9390 309.9668 L 142.3844 309.9567 L 142.8298 309.9456 L 143.2752 309.9333 L 143.7205 309.9199 L 144.1658 309.9054 L 144.6111 309.8897 L 145.0563 309.8730 L 145.5015 309.8552 L 145.9466 309.8362 L 146.3917 309.8162 L 146.8367 309.7950 L 147.2817 309.7727 L 147.7266 309.7493 L 148.1715 309.7248 L 148.6163 309.6992 L 149.0610 309.6724 L 149.5057 309.6445 L 149.9503 309.6155 L 150.3948 309.5854 L 150.8392 309.5541 L 151.2836 309.5217 L 151.7279 309.4882 L 152.1721 309.4536 L 152.6162 309.4178 L 153.0602 309.3809 L 153.5041 309.3429 L 153.9479 309.3037 L 154.3916 309.2634 L 154.8352 309.2219 L 155.2787 309.1793 L 155.7221 309.1356 L 156.1653 309.0907 L 156.6085 309.0447 L 157.0515 308.9976 L 157.4944 308.9493 L 157.9372 308.8998 L 158.3799 308.8492 L 158.8224 308.7975 L 159.2648 308.7446 L 159.7070 308.6905 L 160.1491 308.6353 L 160.5911 308.5790 L 161.0329 308.5214 L 161.4746 308.4628 L 161.9161 308.4030 L 162.3574 308.3420 L 162.7986 308.2798 L 163.2396 308.2165 L 163.6804 308.1520 L 164.1211 308.0864 L 164.5616 308.0196 L 165.0019 307.9516 L 165.4421 307.8825 L 165.8820 307.8122 L 166.3218 307.7407 L 166.7614 307.6681 L 167.2008 307.5943 L 167.6399 307.5193 L 168.0789 307.4431 L 168.5177 307.3658 L 168.9562 307.2873 L 169.3946 307.2076 L 169.8327 307.1267 L 170.2706 307.0447 L 170.7083 306.9614 L 171.1458 306.8770 L 171.5830 306.7914 L 172.0200 306.7046 L 172.4568 306.6166 L 172.8933 306.5275 L 173.3296 306.4371 L 173.7656 306.3456 L 174.2014 306.2529 L 174.6369 306.1590 L 175.0722 306.0639 L 175.5072 305.9676 L 175.9420 305.8701 L 176.3764 305.7714 L 176.8106 305.6715 L 177.2445 305.5704 L 177.6782 305.4681 L 178.1115 305.3646 L 178.5446 305.2600 L 178.9774 305.1541 L 179.4098 305.0470 L 179.8420 304.9387 L 180.2739 304.8292 L 180.7054 304.7185 L 181.1367 304.6066 L 181.5676 304.4935 L 181.9983 304.3791 L 182.4285 304.2636 L 182.8585 304.1469 L 183.2882 304.0289 L 183.7175 303.9097 L 184.1464 303.7894 L 184.5750 303.6678 L 185.0033 303.5450 L 185.4312 303.4209 L 185.8588 303.2957 L 186.2860 303.1692 L 186.7129 303.0416 L 187.1394 302.9127 L 187.5655 302.7825 L 187.9912 302.6512 L 188.4166 302.5186 L 188.8415 302.3849 L 189.2661 302.2499 L 189.6903 302.1136 L 190.1141 301.9762 L 190.5375 301.8375 L 190.9605 301.6976 L 191.3831 301.5564 L 191.8053 301.4141 L 192.2271 301.2705 L 192.6484 301.1257 L 193.0693 300.9796 L 193.4898 300.8323 L 193.9099 300.6838 L 194.3295 300.5341 L 194.7487 300.3831 L 195.1674 300.2309 L 195.5857 300.0774 L 196.0035 299.9227 L 196.4208 299.7668 L 196.8377 299.6096 L 197.2542 299.4512 L 197.6701 299.2916 L 198.0856 299.1307 L 198.5006 298.9686 L 198.9151 298.8053 L 199.3291 298.6407 L 199.7426 298.4748 L 200.1557 298.3077 L 200.5682 298.1394 L 200.8118 298.4908 L 201.0476 298.8688 L 201.2845 299.2461 L 201.5226 299.6227 L 201.7619 299.9985 L 202.0022 300.3737 L 202.2436 300.7481 L 202.4862 301.1218 L 202.7299 301.4948 L 202.9747 301.8671 L 203.2206 302.2386 L 203.4676 302.6094 L 203.7157 302.9795 L 203.9648 303.3488 L 204.2151 303.7175 L 204.4664 304.0853 L 204.7189 304.4524 L 204.9724 304.8188 L 205.2270 305.1845 L 205.4826 305.5494 L 205.7393 305.9135 L 205.9971 306.2769 L 206.2559 306.6396 L 206.5158 307.0015 L 206.7767 307.3626 L 207.0386 307.7230 L 207.3016 308.0826 L 207.5657 308.4415 L 207.8308 308.7996 L 208.0969 309.1569 L 208.3640 309.5135 L 208.6321 309.8693 L 208.9013 310.2243 L 209.1715 310.5786 L 209.4427 310.9321 L 209.7149 311.2848 L 209.9881 311.6368 L 210.2623 311.9879 L 210.5375 312.3383 L 210.8136 312.6879 L 211.0908 313.0368 L 211.3690 313.3848 L 211.6481 313.7321 L 211.9282 314.0785 L 212.2093 314.4242 L 212.4914 314.7691 L 212.7744 315.1132 L 213.0583 315.4565 L 213.3433 315.7990 L 213.6292 316.1407 L 213.9160 316.4816 L 214.2038 316.8218 L 214.4925 317.1611 L 214.7822 317.4996 L 215.0728 317.8373 L 215.3643 318.1742 L 215.6568 318.5103 L 215.9502 318.8456 L 216.2445 319.1801 L 216.5397 319.5138 L 216.8359 319.8467 L 217.1329 320.1787 L 217.4309 320.5100 L 217.7298 320.8404 L 218.0295 321.1700 L 218.3302 321.4988 L 218.6317 321.8268 L 218.9342 322.1539 L 219.2375 322.4803 L 219.5417 322.8058 L 219.8468 323.1305 L 220.1528 323.4543 L 220.4596 323.7774 L 220.7673 324.0996 L 221.0759 324.4210 L 221.3853 324.7415 L 221.6956 325.0612 L 222.0067 325.3801 L 222.3187 325.6982 L 222.6316 326.0154 L 222.9453 326.3318 L 223.2598 326.6474 L 223.5751 326.9621 L 223.8913 327.2760 L 224.2084 327.5890 L 224.5262 327.9012 L 224.8449 328.2126 L 225.1644 328.5231 L 225.4847 328.8328 L 225.8058 329.1416 L 226.1278 329.4496 L 226.4505 329.7568 L 226.7741 330.0631 L 227.0984 330.3685 L 227.4235 330.6731 L 227.7495 330.9769 L 228.0762 331.2798 L 228.4037 331.5819 L 228.7320 331.8831 L 229.0611 332.1834 L 229.3909 332.4829 L 229.7216 332.7816 L 230.0530 333.0794 L 230.3851 333.3763 L 230.7180 333.6724 L 231.0517 333.9676 L 231.3862 334.2620 L 231.7214 334.5555 L 232.0573 334.8481 L 232.3940 335.1399 L 232.7315 335.4308 L 233.0696 335.7209 L 233.4086 336.0101 L 233.7482 336.2984 L 234.0886 336.5859 L 234.4297 336.8725 L 234.7715 337.1582 L 235.1141 337.4431 L 235.4574 337.7271 L 235.8014 338.0103 L 236.1461 338.2925 L 236.4915 338.5739 L 236.8376 338.8545 L 237.1844 339.1341 L 237.5320 339.4129 L 237.8802 339.6909 L 238.2291 339.9679 L 238.5787 340.2441 L 238.9290 340.5194 L 239.2800 340.7939 L 239.6317 341.0674 L 239.9840 341.3401 L 240.3370 341.6119 L 240.6907 341.8829 L 241.0451 342.1529 L 241.4001 342.4221 L 241.7558 342.6904 L 242.1121 342.9579 L 242.4691 343.2244 L 242.8268 343.4901 L 243.1851 343.7549 L 243.5440 344.0188 L 243.9036 344.2818 L 244.2639 344.5440 L 244.6248 344.8053 L 244.9863 345.0657 L 245.3484 345.3252 L 245.7112 345.5838 L 246.0746 345.8416 L 246.4387 346.0984 L 246.8033 346.3544 L 247.1686 346.6095 L 247.5345 346.8637 L 247.9010 347.1171 L 248.2681 347.3695 L 248.6358 347.6211 L 249.0042 347.8717 L 249.3731 348.1215 L 249.7426 348.3704 L 250.1127 348.6185 L 250.4834 348.8656 L 250.8547 349.1118 L 251.2266 349.3572 L 251.5991 349.6017 L 251.9722 349.8452 L 252.3458 350.0879 L 252.7200 350.3297 L 253.0948 350.5707 L 253.4701 350.8107 L 253.8461 351.0498 L 254.2225 351.2881 L 254.5996 351.5254 L 254.9772 351.7619 L 255.3553 351.9975 L 255.7341 352.2322 L 256.1133 352.4660 L 256.4931 352.6989 L 256.8735 352.9309 L 257.2544 353.1620 L 257.6358 353.3923 L 258.0178 353.6216 L 258.0379 353.7621 L 257.5927 353.7788 L 257.1474 353.7947 L 256.7021 353.8095 L 256.2568 353.8234 L 255.8115 353.8364 L 255.3661 353.8484 L 254.9207 353.8594 L 254.4753 353.8695 L 254.0298 353.8786 L 253.5844 353.8868 L 253.1389 353.8940 L 252.6934 353.9003 L 252.2479 353.9056 L 251.8024 353.9100 L 251.3568 353.9134 L 250.9113 353.9158 L 250.4658 353.9173 L 250.0202 353.9178 L 249.5747 353.9174 L 249.1292 353.9161 L 248.6836 353.9137 L 248.2381 353.9104 L 247.7926 353.9062 L 247.3471 353.9010 L 246.9016 353.8949 L 246.4561 353.8878 L 246.0107 353.8797 L 245.5652 353.8707 L 245.1198 353.8607 L 244.6744 353.8498 L 244.2290 353.8379 L 243.7837 353.8251 L 243.3383 353.8113 L 242.8931 353.7966 L 242.4478 353.7809 L 242.0026 353.7642 L 241.9193 353.6502 L 242.3014 353.4210 L 242.6829 353.1908 L 243.0639 352.9598 L 243.4443 352.7279 L 243.8242 352.4951 L 244.2035 352.2614 L 244.5823 352.0268 L 244.9605 351.7914 L 245.3382 351.5550 L 245.7153 351.3178 L 246.0918 351.0796 L 246.4678 350.8406 L 246.8432 350.6007 L 247.2181 350.3599 L 247.5924 350.1182 L 247.9661 349.8756 L 248.3392 349.6321 L 248.7118 349.3878 L 249.0837 349.1425 L 249.4551 348.8964 L 249.8259 348.6494 L 250.1961 348.4015 L 250.5657 348.1527 L 250.9347 347.9030 L 251.3031 347.6524 L 251.6709 347.4010 L 252.0381 347.1486 L 252.4046 346.8954 L 252.7706 346.6413 L 253.1360 346.3863 L 253.5007 346.1304 L 253.8648 345.8737 L 254.2283 345.6160 L 254.5912 345.3575 L 254.9534 345.0981 L 255.3150 344.8378 L 255.6760 344.5767 L 256.0363 344.3146 L 256.3960 344.0517 L 256.7550 343.7879 L 257.1134 343.5232 L 257.4711 343.2576 L 257.8282 342.9912 L 258.1846 342.7239 L 258.5404 342.4557 L 258.8955 342.1866 L 259.2500 341.9166 L 259.6037 341.6458 L 259.9568 341.3741 L 260.3093 341.1015 L 260.6610 340.8281 L 261.0121 340.5537 L 261.3624 340.2785 L 261.7121 340.0025 L 262.0611 339.7255 L 262.4095 339.4477 L 262.7571 339.1690 L 263.1040 338.8894 L 263.4502 338.6090 L 263.7957 338.3277 L 264.1405 338.0456 L 264.4846 337.7625 L 264.8279 337.4786 L 265.1706 337.1938 L 265.5125 336.9082 L 265.8537 336.6217 L 266.1942 336.3343 L 266.5339 336.0461 L 266.8730 335.7570 L 267.2112 335.4671 L 267.5488 335.1763 L 267.8856 334.8846 L 268.2216 334.5920 L 268.5569 334.2986 L 268.8914 334.0044 L 269.2252 333.7093 L 269.5582 333.4133 L 269.8905 333.1165 L 270.2220 332.8188 L 270.5527 332.5203 L 270.8826 332.2209 L 271.2118 331.9206 L 271.5402 331.6195 L 271.8678 331.3176 L 272.1946 331.0148 L 272.5207 330.7111 L 272.8459 330.4066 L 273.1704 330.1013 L 273.4940 329.7951 L 273.8169 329.4880 L 274.1389 329.1801 L 274.4601 328.8714 L 274.7805 328.5618 L 275.1001 328.2514 L 275.4189 327.9401 L 275.7369 327.6280 L 276.0540 327.3151 L 276.3703 327.0013 L 276.6858 326.6867 L 277.0004 326.3713 L 277.3142 326.0550 L 277.6271 325.7378 L 277.9392 325.4199 L 278.2505 325.1011 L 278.5609 324.7815 L 278.8704 324.4610 L 279.1791 324.1397 L 279.4869 323.8176 L 279.7938 323.4947 L 280.0999 323.1709 L 280.4051 322.8464 L 280.7094 322.5209 L 281.0129 322.1947 L 281.3154 321.8677 L 281.6171 321.5398 L 281.9178 321.2111 L 282.2177 320.8816 L 282.5167 320.5513 L 282.8148 320.2201 L 283.1119 319.8882 L 283.4082 319.5554 L 283.7035 319.2218 L 283.9980 318.8874 L 284.2915 318.5522 L 284.5841 318.2162 L 284.8757 317.8794 L 285.1664 317.5418 L 285.4562 317.2034 L 285.7451 316.8642 L 286.0330 316.5242 L 286.3199 316.1833 L 286.6059 315.8417 L 286.8910 315.4993 L 287.1751 315.1561 L 287.4582 314.8121 L 287.7404 314.4673 L 288.0216 314.1217 L 288.3018 313.7754 L 288.5811 313.4282 L 288.8594 313.0803 L 289.1367 312.7315 L 289.4130 312.3820 L 289.6883 312.0317 L 289.9626 311.6807 L 290.2359 311.3288 L 290.5083 310.9762 L 290.7796 310.6228 L 291.0499 310.2686 L 291.3192 309.9137 L 291.5875 309.5580 L 291.8547 309.2015 L 292.1209 308.8443 L 292.3861 308.4862 L 292.6503 308.1275 L 292.9135 307.7679 L 293.1755 307.4077 L 293.4366 307.0466 L 293.6966 306.6848 L 293.9556 306.3222 L 294.2134 305.9589 L 294.4703 305.5949 L 294.7261 305.2301 L 294.9808 304.8645 L 295.2344 304.4982 L 295.4870 304.1312 L 295.7384 303.7634 L 295.9888 303.3949 L 296.2382 303.0257 L 296.4864 302.6557 L 296.7335 302.2850 L 296.9795 301.9135 L 297.2245 301.5413 L 297.4683 301.1684 L 297.7110 300.7948 L 297.9526 300.4205 L 298.1931 300.0454 L 298.4324 299.6696 L 298.6707 299.2931 L 298.9078 298.9159 L 299.1437 298.5380 L 299.3785 298.1594 L 299.7777 298.2868 L 300.1906 298.4540 L 300.6041 298.6200 L 301.0180 298.7848 L 301.4325 298.9483 L 301.8474 299.1106 L 302.2628 299.2716 L 302.6787 299.4314 L 303.0951 299.5899 L 303.5120 299.7472 L 303.9293 299.9033 L 304.3470 300.0582 L 304.7652 300.2118 L 305.1839 300.3641 L 305.6030 300.5153 L 306.0226 300.6652 L 306.4426 300.8138 L 306.8630 300.9613 L 307.2839 301.1075 L 307.7052 301.2525 L 308.1269 301.3962 L 308.5490 301.5387 L 308.9715 301.6800 L 309.3945 301.8201 L 309.8178 301.9589 L 310.2416 302.0965 L 310.6657 302.2329 L 311.0903 302.3681 L 311.5152 302.5020 L 311.9405 302.6347 L 312.3662 302.7662 L 312.7923 302.8965 L 313.2187 303.0255 L 313.6455 303.1534 L 314.0727 303.2800 L 314.5002 303.4054 L 314.9281 303.5295 L 315.3563 303.6525 L 315.7849 303.7742 L 316.2138 303.8948 L 316.6431 304.0141 L 317.0727 304.1322 L 317.5026 304.2491 L 317.9329 304.3648 L 318.3635 304.4793 L 318.7944 304.5925 L 319.2256 304.7046 L 319.6571 304.8154 L 320.0889 304.9251 L 320.5211 305.0335 L 320.9535 305.1408 L 321.3862 305.2468 L 321.8193 305.3516 L 322.2526 305.4553 L 322.6862 305.5577 L 323.1201 305.6589 L 323.5542 305.7590 L 323.9887 305.8578 L 324.4234 305.9555 L 324.8583 306.0519 L 325.2936 306.1472 L 325.7291 306.2412 L 326.1648 306.3341 L 326.6008 306.4258 L 327.0371 306.5163 L 327.4735 306.6056 L 327.9103 306.6937 L 328.3473 306.7806 L 328.7845 306.8664 L 329.2219 306.9509 L 329.6596 307.0343 L 330.0975 307.1165 L 330.5356 307.1975 L 330.9739 307.2774 L 331.4124 307.3560 L 331.8512 307.4335 L 332.2901 307.5098 L 332.7293 307.5850 L 333.1686 307.6589 L 333.6082 307.7317 L 334.0479 307.8033 L 334.4878 307.8738 L 334.9280 307.9431 L 335.3683 308.0112 L 335.8087 308.0781 L 336.2494 308.1439 L 336.6902 308.2085 L 337.1312 308.2720 L 337.5724 308.3343 L 338.0137 308.3954 L 338.4552 308.4554 L 338.8968 308.5142 L 339.3386 308.5718 L 339.7805 308.6283 L 340.2226 308.6837 L 340.6649 308.7379 L 341.1072 308.7909 L 341.5497 308.8428 L 341.9924 308.8936 L 342.4351 308.9432 L 342.8780 308.9916 L 343.3210 309.0389 L 343.7642 309.0851 L 344.2074 309.1301 L 344.6508 309.1739 L 345.0943 309.2167 L 345.5379 309.2583 L 345.9816 309.2987 L 346.4254 309.3380 L 346.8693 309.3762 L 347.3133 309.4133 L 347.7574 309.4492 L 348.2015 309.4840 L 348.6458 309.5176 L 349.0901 309.5502 L 349.5346 309.5816 L 349.9791 309.6118 L 350.4237 309.6410 L 350.8683 309.6690 L 351.3130 309.6959 L 351.7578 309.7217 L 352.2027 309.7463 L 352.6476 309.7699 L 353.0926 309.7923 L 353.5376 309.8136 L 353.9827 309.8338 L 354.4278 309.8529 L 354.8730 309.8709 L 355.3182 309.8877 L 355.7634 309.9035 L 356.2087 309.9181 L 356.6541 309.9316 L 357.0994 309.9441 L 357.5448 309.9554 L 357.9902 309.9656 L 358.4357 309.9748 L 358.8811 309.9828 L 359.3266 309.9897 L 359.7721 309.9955 L 360.2176 310.0003 L 360.6632 310.0039 L 361.1087 310.0065 L 361.5542 310.0079 L 361.9998 310.0083 L 362.4453 310.0076 L 362.8908 310.0058 L 363.3363 310.0029 L 363.7819 309.9989 L 364.2274 309.9939 L 364.6729 309.9877 L 365.1183 309.9805 L 365.5638 309.9722 L 366.0092 309.9628 L 366.4547 309.9524 L 366.9000 309.9409 L 367.3454 309.9283 L 367.7907 309.9146 L 368.2360 309.8999 L 368.6813 309.8841 L 369.1265 309.8672 L 369.5717 309.8493 L 370.0168 309.8303 L 370.4619 309.8102 L 370.9069 309.7891 L 371.3519 309.7669 L 371.7968 309.7436 L 372.2417 309.7193 L 372.6865 309.6940 L 373.1313 309.6676 L 373.5760 309.6401 L 374.0206 309.6116 L 374.4651 309.5820 L 374.9096 309.5514 L 375.3540 309.5197 L 375.7984 309.4870 L 376.2426 309.4533 L 376.6868 309.4185 L 377.1309 309.3826 L 377.5749 309.3458 L 378.0188 309.3078 L 378.4626 309.2689 L 378.5813 309.3629 L 378.2310 309.6381 L 377.8800 309.9127 L 377.5285 310.1864 L 377.1765 310.4595 L 376.8238 310.7317 L 376.4706 311.0032 L 376.1167 311.2740 L 375.7623 311.5440 L 375.4073 311.8132 L 375.0518 312.0817 L 374.6956 312.3494 L 374.3389 312.6163 L 373.9816 312.8825 L 373.6238 313.1479 L 373.2653 313.4126 L 372.9064 313.6764 L 372.5468 313.9395 L 372.1867 314.2019 L 371.8260 314.4634 L 371.4648 314.7242 L 371.1030 314.9842 L 370.7406 315.2435 L 370.3777 315.5019 L 370.0143 315.7596 L 369.6502 316.0165 L 369.2857 316.2726 L 368.9206 316.5280 L 368.5549 316.7825 L 368.1887 317.0363 L 367.8220 317.2893 L 367.4547 317.5415 L 367.0869 317.7929 L 366.7185 318.0435 L 366.3496 318.2933 L 365.9802 318.5424 L 365.6102 318.7906 L 365.4622 318.7637 L 365.6366 318.3537 L 365.8100 317.9433 L 365.9824 317.5325 L 366.1539 317.1213 L 366.3244 316.7097 L 366.4940 316.2976 L 366.6626 315.8852 L 366.8302 315.4724 L 366.9968 315.0592 L 367.1625 314.6456 L 367.3272 314.2317 L 367.4909 313.8173 L 367.6536 313.4025 L 367.8154 312.9874 L 367.9761 312.5719 L 368.1359 312.1560 L 368.2947 311.7397 L 368.4525 311.3230 L 368.6093 310.9060 L 368.7651 310.4886 L 368.9199 310.0708 L 369.0737 309.6527 L 369.2265 309.2341 L 369.3783 308.8153 L 369.5290 308.3960 L 369.6788 307.9764 L 369.8276 307.5564 L 369.9753 307.1361 L 370.1221 306.7154 L 370.2678 306.2944 L 370.4125 305.8730 L 370.5562 305.4513 L 370.6988 305.0292 L 370.8405 304.6068 L 370.9811 304.1840 L 371.1207 303.7609 L 371.2592 303.3375 L 371.3967 302.9137 L 371.5332 302.4896 L 371.6686 302.0651 L 371.8030 301.6403 L 371.9363 301.2152 L 372.0686 300.7898 L 372.1999 300.3640 L 372.3301 299.9379 L 372.4593 299.5115 L 372.5874 299.0848 L 372.7144 298.6578 L 372.8404 298.2304 L 372.9653 297.8027 L 373.0892 297.3748 L 373.2120 296.9465 L 373.3337 296.5179 L 373.4544 296.0890 L 373.5740 295.6598 L 373.6925 295.2304 L 373.8099 294.8006 L 373.9263 294.3705 L 374.0416 293.9401 L 374.1558 293.5095 L 374.2689 293.0786 L 374.3809 292.6473 L 374.4919 292.2158 L 374.6017 291.7840 L 374.7105 291.3520 L 374.8182 290.9197 L 374.9247 290.4871 L 375.0302 290.0542 L 375.1346 289.6210 L 375.2378 289.1876 L 375.3400 288.7540 L 375.4410 288.3201 L 375.5410 287.8859 L 375.6398 287.4514 L 375.7375 287.0167 L 375.8341 286.5818 L 375.9296 286.1466 L 376.0240 285.7112 L 376.1172 285.2755 L 376.2093 284.8396 L 376.3003 284.4035 L 376.3901 283.9671 L 376.4789 283.5305 L 376.5665 283.0936 L 376.6529 282.6566 L 376.7382 282.2193 L 376.8224 281.7818 L 376.9054 281.3440 L 376.9873 280.9061 L 377.0681 280.4679 L 377.1476 280.0296 L 377.2261 279.5910 L 377.3034 279.1522 L 377.3795 278.7132 L 377.4545 278.2740 L 377.5283 277.8346 L 377.6009 277.3951 L 377.6724 276.9553 L 377.7427 276.5154 L 377.8119 276.0752 L 377.8799 275.6349 L 377.9467 275.1944 L 378.0123 274.7537 L 378.0768 274.3129 L 378.1400 273.8719 L 378.2021 273.4307 L 378.2630 272.9893 L 378.3228 272.5478 L 378.3813 272.1061 L 378.4386 271.6643 L 378.4948 271.2223 L 378.5498 270.7802 L 378.6035 270.3379 L 378.6561 269.8955 L 378.7074 269.4529 L 378.7576 269.0102 L 378.8066 268.5674 L 378.8543 268.1244 L 378.9008 267.6813 L 378.9462 267.2381 L 378.9903 266.7947 L 379.0332 266.3513 L 379.0749 265.9077 L 379.1153 265.4640 L 379.1546 265.0202 L 379.1926 264.5763 L 379.2294 264.1323 L 379.2649 263.6881 L 379.2992 263.2439 L 379.3323 262.7996 L 379.3642 262.3552 L 379.3948 261.9107 L 379.4242 261.4662 L 379.4523 261.0215 L 379.4792 260.5768 L 379.5049 260.1320 L 379.5293 259.6871 L 379.5524 259.2422 L 379.5743 258.7972 L 379.5950 258.3522 L 379.6144 257.9070 L 379.6325 257.4619 L 379.6494 257.0167 L 379.6650 256.5714 L 379.6793 256.1261 L 379.6924 255.6807 L 379.7042 255.2354 L 379.7147 254.7900 L 379.7240 254.3445 L 379.7320 253.8991 L 379.7387 253.4536 L 379.7442 253.0081 L 379.7483 252.5625 L 379.7512 252.1170 L 379.7528 251.6715 L 379.7531 251.2260 L 379.7521 250.7804 L 379.7498 250.3349 L 379.7462 249.8894 L 379.7413 249.4439 L 379.7352 248.9984 L 379.7277 248.5529 L 379.7189 248.1074 L 379.7089 247.6620 L 379.6975 247.2166 L 379.6848 246.7713 L 379.6708 246.3260 L 379.6555 245.8807 L 379.6389 245.4355 L 379.6209 244.9903 L 379.6017 244.5452 L 379.5811 244.1001 L 379.5592 243.6551 L 379.5360 243.2102 L 379.5114 242.7653 L 379.4856 242.3205 L 379.4584 241.8758 L 379.4298 241.4312 L 379.4000 240.9867 L 379.3688 240.5422 L 379.3362 240.0979 L 379.7224 239.9579 L 380.1548 239.8505 L 380.5868 239.7418 L 381.0186 239.6318 L 381.4500 239.5205 L 381.8811 239.4080 L 382.3118 239.2941 L 382.7422 239.1789 L 383.1723 239.0625 L 383.6020 238.9448 L 384.0313 238.8258 L 384.4603 238.7056 L 384.8890 238.5840 L 385.3173 238.4612 L 385.7452 238.3372 L 386.1727 238.2119 L 386.5999 238.0853 L 387.0267 237.9575 L 387.4532 237.8285 L 387.8792 237.6982 L 388.3049 237.5666 L 388.7302 237.4338 L 389.1551 237.2998 L 389.5796 237.1645 L 390.0037 237.0280 L 390.4274 236.8903 L 390.8507 236.7514 L 391.2736 236.6112 L 391.6961 236.4698 L 392.1182 236.3272 L 392.5399 236.1834 L 392.9612 236.0384 L 393.3821 235.8922 L 393.8025 235.7448 L 394.2225 235.5962 L 394.6421 235.4463 L 395.0613 235.2953 L 395.4800 235.1431 L 395.8983 234.9897 L 396.3162 234.8352 L 396.7336 234.6794 L 397.1506 234.5225 L 397.5671 234.3644 L 397.9832 234.2051 L 398.3989 234.0446 L 398.8141 233.8830 L 399.2288 233.7203 L 399.6431 233.5563 L 400.0569 233.3912 L 400.4702 233.2250 L 400.8831 233.0576 L 401.2956 232.8891 L 401.7075 232.7194 L 402.1190 232.5485 L 402.5300 232.3766 L 402.9406 232.2035 L 403.3506 232.0292 L 403.7602 231.8539 L 404.1693 231.6774 L 404.5779 231.4998 L 404.9860 231.3210 L 405.3936 231.1412 L 405.8007 230.9602 L 406.2074 230.7782 L 406.6135 230.5950 L 407.0191 230.4107 L 407.4243 230.2253 L 407.8289 230.0388 L 408.2330 229.8512 L 408.6366 229.6626 L 409.0397 229.4728 L 409.4423 229.2819 L 409.8444 229.0900 L 410.2460 228.8970 L 410.6470 228.7029 L 411.0475 228.5077 L 411.4475 228.3114 L 411.8470 228.1141 L 412.2459 227.9157 L 412.6443 227.7163 L 413.0422 227.5158 L 413.4395 227.3142 L 413.8363 227.1116 L 414.2325 226.9079 L 414.6283 226.7032 L 415.0234 226.4975 L 415.4181 226.2906 L 415.8121 226.0828 L 416.2057 225.8739 L 416.5987 225.6640 L 416.9911 225.4530 L 417.3830 225.2411 L 417.7743 225.0280 L 418.1650 224.8140 L 418.5552 224.5990 L 418.9449 224.3829 L 419.3340 224.1658 L 419.7225 223.9477 L 420.1104 223.7286 L 420.4978 223.5085 L 420.8846 223.2874 L 421.2708 223.0653 L 421.6565 222.8422 L 422.0415 222.6181 L 422.4260 222.3930 L 422.8099 222.1669 L 423.1933 221.9399 L 423.5760 221.7118 L 423.9582 221.4828 L 424.3398 221.2528 L 424.7208 221.0218 L 425.1012 220.7899 L 425.4810 220.5570 L 425.8602 220.3231 L 426.2388 220.0883 L 426.6168 219.8524 L 426.9942 219.6157 L 427.3711 219.3780 L 427.7473 219.1393 L 428.1229 218.8997 L 428.4979 218.6591 L 428.8723 218.4176 L 429.2461 218.1752 L 429.6193 217.9318 L 429.9919 217.6875 L 430.3638 217.4422 L 430.7352 217.1961 L 431.1059 216.9489 L 431.4760 216.7009 L 431.8455 216.4520 L 432.2144 216.2021 L 432.5826 215.9513 L 432.9503 215.6996 L 433.3173 215.4470 L 433.6836 215.1935 L 434.0494 214.9391 L 434.4145 214.6838 L 434.7790 214.4275 L 435.1429 214.1704 L 435.5061 213.9124 L 435.8687 213.6535 L 436.2306 213.3937 L 436.5920 213.1331 L 436.9526 212.8715 L 437.3127 212.6091 L 437.6721 212.3457 L 438.0308 212.0816 L 438.3889 211.8165 L 438.7464 211.5506 L 439.1032 211.2838 L 439.4594 211.0161 L 439.8149 210.7476 L 440.1698 210.4782 L 440.5240 210.2079 L 440.8776 209.9369 L 441.2305 209.6649 L 441.5828 209.3921 L 441.9344 209.1185 L 442.2853 208.8440 L 442.6356 208.5687 L 442.9852 208.2925 L 443.3342 208.0155 L 443.6825 207.7377 L 444.0301 207.4590 L 444.3771 207.1796 L 444.7234 206.8993 L 445.0691 206.6181 L 445.4140 206.3362 L 445.7583 206.0534 L 446.1020 205.7698 L 446.4449 205.4854 L 446.7872 205.2002 L 447.1288 204.9142 L 447.4698 204.6274 L 447.8100 204.3398 L 448.1496 204.0514 L 448.4885 203.7622 L 448.8268 203.4722 L 449.1643 203.1814 L 449.5012 202.8898 L 449.8374 202.5974 L 450.0000 202.5857 L 449.8784 203.0143 L 449.7559 203.4427 L 449.6325 203.8708 L 449.5081 204.2986 L 449.3829 204.7262 L 449.2567 205.1535 L 449.1296 205.5805 L 449.0016 206.0072 L 448.8727 206.4337 L 448.7429 206.8599 L 448.6121 207.2858 L 448.4805 207.7115 L 448.3479 208.1368 L 448.2144 208.5619 L 448.0800 208.9867 L 447.9447 209.4112 L 447.8085 209.8354 L 447.6714 210.2593 L 447.5334 210.6829 L 447.3944 211.1062 L 447.2546 211.5293 L 447.1138 211.9520 L 446.9722 212.3744 L 446.8296 212.7965 L 446.6861 213.2183 L 446.5418 213.6398 L 446.3965 214.0610 L 446.2503 214.4819 L 446.1032 214.9024 L 445.9553 215.3227 L 445.8064 215.7426 L 445.6566 216.1622 L 445.5059 216.5815 L 445.3543 217.0004 L 445.2019 217.4191 L 445.0485 217.8374 L 444.9116 217.9239 L 444.8117 217.4897 L 444.7108 217.0557 L 444.6088 216.6220 L 444.5059 216.1885 L 444.4019 215.7553 L 444.2970 215.3223 L 444.1910 214.8895 L 444.0839 214.4571 L 443.9759 214.0248 L 443.8669 213.5928 L 443.7568 213.1611 L 443.6457 212.7296 L 443.5336 212.2984 L 443.4205 211.8675 L 443.3063 211.4368 L 443.1911 211.0065 L 443.0749 210.5763 L 442.9577 210.1465 L 442.8394 209.7169 L 442.7202 209.2877 L 442.5999 208.8587 L 442.4785 208.4300 L 442.3562 208.0016 L 442.2328 207.5735 L 442.1084 207.1457 L 441.9830 206.7181 L 441.8565 206.2909 L 441.7290 205.8640 L 441.6005 205.4374 L 441.4709 205.0111 L 441.3403 204.5852 L 441.2087 204.1595 L 441.0760 203.7342 L 440.9424 203.3092 L 440.8076 202.8845 L 440.6719 202.4602 L 440.5351 202.0361 L 440.3973 201.6125 L 440.2584 201.1891 L 440.1185 200.7661 L 439.9776 200.3435 L 439.8356 199.9211 L 439.6926 199.4992 L 439.5486 199.0776 L 439.4035 198.6563 L 439.2574 198.2354 L 439.1102 197.8149 L 438.9620 197.3947 L 438.8128 196.9749 L 438.6625 196.5555 L 438.5112 196.1365 L 438.3588 195.7178 L 438.2054 195.2995 L 438.0509 194.8816 L 437.8954 194.4641 L 437.7389 194.0469 L 437.5813 193.6302 L 437.4227 193.2138 L 437.2630 192.7979 L 437.1023 192.3824 L 436.9406 191.9672 L 436.7778 191.5525 L 436.6139 191.1382 L 436.4490 190.7243 L 436.2831 190.3108 L 436.1161 189.8977 L 435.9481 189.4851 L 435.7790 189.0729 L 435.6089 188.6611 L 435.4377 188.2498 L 435.2654 187.8389 L 435.0922 187.4284 L 434.9178 187.0184 L 434.7425 186.6088 L 434.5660 186.1997 L 434.3886 185.7911 L 434.2100 185.3829 L 434.0305 184.9751 L 433.8498 184.5678 L 433.6682 184.1610 L 433.4854 183.7547 L 433.3017 183.3488 L 433.1168 182.9434 L 432.9310 182.5385 L 432.7440 182.1341 L 432.5560 181.7302 L 432.3670 181.3267 L 432.1769 180.9238 L 431.9858 180.5213 L 431.7936 180.1194 L 431.6003 179.7179 L 431.4060 179.3170 L 431.2106 178.9166 L 431.0142 178.5167 L 430.8168 178.1173 L 430.6182 177.7184 L 430.4187 177.3201 L 430.2180 176.9223 L 430.0164 176.5250 L 429.8136 176.1283 L 429.6098 175.7321 L 429.4050 175.3364 L 429.1991 174.9413 L 428.9921 174.5468 L 428.7841 174.1528 L 428.5751 173.7593 L 428.3650 173.3664 L 428.1538 172.9741 L 427.9416 172.5824 L 427.7283 172.1912 L 427.5139 171.8006 L 427.2985 171.4106 L 427.0821 171.0212 L 426.8646 170.6323 L 426.6460 170.2441 L 426.4264 169.8564 L 426.2058 169.4694 L 425.9841 169.0829 L 425.7613 168.6971 L 425.5375 168.3119 L 425.3126 167.9272 L 425.0867 167.5432 L 424.8597 167.1599 L 424.6316 166.7771 L 424.4025 166.3950 L 424.1724 166.0135 L 423.9412 165.6326 L 423.7089 165.2524 L 423.4756 164.8729 L 423.2413 164.4939 L 423.0059 164.1157 L 422.7694 163.7381 L 422.5319 163.3611 L 422.2933 162.9848 L 422.0537 162.6092 L 421.8130 162.2343 L 421.5713 161.8600 L 421.3286 161.4864 L 421.0847 161.1135 L 420.8399 160.7413 L 420.5940 160.3698 L 420.3470 159.9990 L 420.0990 159.6289 L 419.8499 159.2594 L 419.5998 158.8907 L 419.3486 158.5227 L 419.0964 158.1555 L 418.8432 157.7889 L 418.5889 157.4231 L 418.3335 157.0580 L 418.0771 156.6936 L 417.8197 156.3300 L 417.5612 155.9671 L 417.3017 155.6049 L 417.0411 155.2435 L 416.7795 154.8829 L 416.5169 154.5230 L 416.2532 154.1639 L 415.9884 153.8055 L 415.7226 153.4480 L 415.4558 153.0912 L 415.1880 152.7351 L 414.9191 152.3799 L 414.6491 152.0254 L 414.3782 151.6718 L 414.1061 151.3189 L 413.8331 150.9668 L 413.5590 150.6156 L 413.2839 150.2651 L 413.0077 149.9155 L 412.7306 149.5667 L 412.4523 149.2187 L 412.1731 148.8716 L 411.8928 148.5252 L 411.6115 148.1797 L 411.3291 147.8351 L 411.0458 147.4913 L 410.7614 147.1483 L 410.4759 146.8062 L 410.1895 146.4650" 
        fill="none" 
        stroke="#D32F2F" 
        stroke-width="0.8"
        stroke-linecap="round"
        stroke-linejoin="round"/>
</svg>