<?xml version="1.0" encoding="UTF-8"?>
<svg xmlns="http://www.w3.org/2000/svg" 
     width="400.0" height="400.0" 
     viewBox="0 0 400.0 400.0">
  <rect width="100%" height="100%" fill="#ffffff"/>
  <path d="M 360.0000 200.0000 L 359.9968 198.9948 L 359.9874 197.9896 L 359.9716 196.9846 L 359.9495 195.9796 L 359.9211 194.9748 L 359.8863 193.9702 L 359.8453 192.9658 L 359.7980 191.9617 L 359.7443 190.9579 L 359.6843 189.9545 L 359.6181 188.9515 L 359.5455 187.9489 L 359.4667 186.9468 L 359.3815 185.9452 L 359.2901 184.9442 L 359.1923 183.9437 L 359.0883 182.9439 L 358.9780 181.9448 L 358.8614 180.9464 L 358.7386 179.9487 L 358.6095 178.9518 L 358.4741 177.9558 L 358.3325 176.9606 L 358.1846 175.9663 L 358.0305 174.9730 L 357.8702 173.9806 L 357.7036 172.9893 L 357.5308 171.9991 L 357.3518 171.0100 L 357.1665 170.0220 L 356.9751 169.0351 L 356.7774 168.0496 L 356.5736 167.0652 L 356.3636 166.0822 L 356.1474 165.1005 L 355.9251 164.1202 L 355.6966 163.1413 L 355.4620 162.1639 L 355.2212 161.1879 L 354.9743 160.2135 L 354.7213 159.2407 L 354.4622 158.2694 L 354.1969 157.2999 L 353.9256 156.3320 L 353.6483 155.3658 L 353.3648 154.4014 L 353.0753 153.4387 L 352.7798 152.4780 L 352.4782 151.5191 L 352.1706 150.5621 L 351.8570 149.6070 L 351.5374 148.6540 L 351.2118 147.7030 L 350.8803 146.7540 L 350.5428 145.8071 L 350.1994 144.8624 L 349.8500 143.9199 L 349.4947 142.9796 L 349.1335 142.0415 L 348.7665 141.1057 L 348.3935 140.1722 L 348.0147 139.2411 L 347.6301 138.3124 L 347.2396 137.3861 L 346.8433 136.4623 L 346.4413 135.5410 L 346.0334 134.6223 L 345.6198 133.7061 L 345.2004 132.7926 L 344.7753 131.8817 L 344.3445 130.9735 L 343.9080 130.0680 L 343.4658 129.1653 L 343.0180 128.2653 L 342.5645 127.3682 L 342.1053 126.4740 L 341.6406 125.5827 L 341.1703 124.6943 L 340.6944 123.8089 L 340.2129 122.9265 L 339.7260 122.0471 L 339.2335 121.1708 L 338.7355 120.2976 L 338.2320 119.4276 L 337.7231 118.5607 L 337.2087 117.6971 L 336.6889 116.8367 L 336.1638 115.9796 L 335.6332 115.1258 L 335.0973 114.2754 L 334.5561 113.4283 L 334.0095 112.5847 L 333.4577 111.7445 L 332.9006 110.9078 L 332.3383 110.0746 L 331.7707 109.2449 L 331.1979 108.4189 L 330.6200 107.5964 L 330.0369 106.7776 L 329.4486 105.9625 L 328.8553 105.1511 L 328.2568 104.3434 L 327.6533 103.5395 L 327.0448 102.7395 L 326.4313 101.9432 L 325.8127 101.1508 L 325.1892 100.3624 L 324.5608 99.5778 L 323.9274 98.7973 L 323.2892 98.0207 L 322.6460 97.2481 L 321.9981 96.4796 L 321.3453 95.7152 L 320.6877 94.9549 L 320.0254 94.1988 L 319.3583 93.4468 L 318.6866 92.6990 L 318.0101 91.9555 L 317.3290 91.2162 L 316.6432 90.4813 L 315.9529 89.7506 L 315.2579 89.0243 L 314.5585 88.3024 L 313.8545 87.5849 L 313.1460 86.8718 L 312.4330 86.1632 L 311.7156 85.4591 L 310.9938 84.7595 L 310.2676 84.0644 L 309.5371 83.3740 L 308.8022 82.6881 L 308.0630 82.0069 L 307.3196 81.3303 L 306.5719 80.6584 L 305.8201 79.9912 L 305.0640 79.3288 L 304.3038 78.6711 L 303.5395 78.0182 L 302.7711 77.3701 L 301.9987 76.7269 L 301.2222 76.0885 L 300.4417 75.4550 L 299.6573 74.8264 L 298.8689 74.2028 L 298.0766 73.5841 L 297.2805 72.9705 L 296.4805 72.3618 L 295.6767 71.7582 L 294.8691 71.1596 L 294.0578 70.5661 L 293.2428 69.9778 L 292.4241 69.3946 L 291.6017 68.8165 L 290.7758 68.2436 L 289.9462 67.6759 L 289.1131 67.1134 L 288.2765 66.5562 L 287.4364 66.0042 L 286.5928 65.4575 L 285.7459 64.9162 L 284.8955 64.3801 L 284.0418 63.8494 L 283.1848 63.3241 L 282.3245 62.8042 L 281.4609 62.2897 L 280.5941 61.7807 L 279.7242 61.2771 L 278.8511 60.7789 L 277.9748 60.2863 L 277.0956 59.7992 L 276.2132 59.3176 L 275.3279 58.8415 L 274.4396 58.3711 L 273.5483 57.9062 L 272.6541 57.4469 L 271.7571 56.9933 L 270.8573 56.5453 L 269.9546 56.1030 L 269.0492 55.6663 L 268.1411 55.2354 L 267.2302 54.8101 L 266.3167 54.3906 L 265.4006 53.9769 L 264.4820 53.5689 L 263.5607 53.1667 L 262.6370 52.7702 L 261.7108 52.3796 L 260.7821 51.9948 L 259.8511 51.6159 L 258.9177 51.2428 L 257.9819 50.8756 L 257.0439 50.5143 L 256.1037 50.1588 L 255.1612 49.8093 L 254.2165 49.4657 L 253.2697 49.1281 L 252.3208 48.7964 L 251.3698 48.4707 L 250.4168 48.1509 L 249.4618 47.8372 L 248.5049 47.5294 L 247.5460 47.2277 L 246.5853 46.9320 L 245.6227 46.6424 L 244.6584 46.3588 L 243.6922 46.0812 L 242.7244 45.8098 L 241.7548 45.5444 L 240.7836 45.2851 L 239.8108 45.0320 L 238.8364 44.7849 L 237.8605 44.5440 L 236.8831 44.3092 L 235.9043 44.0805 L 234.9240 43.8580 L 233.9424 43.6417 L 232.9594 43.4316 L 231.9751 43.2276 L 230.9895 43.0298 L 230.0027 42.8382 L 229.0148 42.6528 L 228.0257 42.4736 L 227.0354 42.3007 L 226.0442 42.1339 L 225.0518 41.9734 L 224.0585 41.8191 L 223.0643 41.6711 L 222.0691 41.5293 L 221.0731 41.3938 L 220.0762 41.2646 L 219.0786 41.1416 L 218.0802 41.0248 L 217.0811 40.9144 L 216.0813 40.8102 L 215.0808 40.7123 L 214.0798 40.6207 L 213.0782 40.5354 L 212.0761 40.4564 L 211.0736 40.3837 L 210.0706 40.3172 L 209.0671 40.2571 L 208.0634 40.2033 L 207.0593 40.1558 L 206.0549 40.1146 L 205.0503 40.0797 L 204.0455 40.0512 L 203.0406 40.0289 L 202.0355 40.0130 L 201.0303 40.0033 L 200.0251 40.0000 L 199.0199 40.0030 L 198.0148 40.0123 L 197.0097 40.0280 L 196.0047 40.0499 L 194.9999 40.0782 L 193.9953 40.1127 L 192.9909 40.1536 L 191.9868 40.2008 L 190.9830 40.2543 L 189.9796 40.3141 L 188.9766 40.3802 L 187.9740 40.4526 L 186.9718 40.5313 L 185.9702 40.6163 L 184.9692 40.7076 L 183.9687 40.8052 L 182.9689 40.9090 L 181.9697 41.0192 L 180.9713 41.1356 L 179.9736 41.2583 L 178.9767 41.3872 L 177.9806 41.5224 L 176.9854 41.6639 L 175.9911 41.8116 L 174.9978 41.9655 L 174.0054 42.1257 L 173.0141 42.2922 L 172.0238 42.4648 L 171.0347 42.6437 L 170.0466 42.8288 L 169.0598 43.0201 L 168.0742 43.2175 L 167.0898 43.4212 L 166.1068 43.6311 L 165.1250 43.8471 L 164.1447 44.0693 L 163.1658 44.2976 L 162.1883 44.5321 L 161.2123 44.7727 L 160.2378 45.0195 L 159.2650 45.2723 L 158.2937 45.5313 L 157.3241 45.7964 L 156.3561 46.0675 L 155.3899 46.3447 L 154.4254 46.6280 L 153.4628 46.9174 L 152.5019 47.2128 L 151.5430 47.5142 L 150.5860 47.8216 L 149.6309 48.1351 L 148.6778 48.4545 L 147.7267 48.7800 L 146.7777 49.1114 L 145.8308 49.4487 L 144.8860 49.7920 L 143.9434 50.1412 L 143.0030 50.4963 L 142.0649 50.8574 L 141.1290 51.2243 L 140.1955 51.5971 L 139.2644 51.9757 L 138.3356 52.3602 L 137.4093 52.7506 L 136.4854 53.1467 L 135.5640 53.5486 L 134.6452 53.9563 L 133.7290 54.3698 L 132.8154 54.7890 L 131.9044 55.2140 L 130.9961 55.6447 L 130.0906 56.0810 L 129.1878 56.5231 L 128.2878 56.9708 L 127.3906 57.4241 L 126.4963 57.8831 L 125.6049 58.3477 L 124.7165 58.8179 L 123.8310 59.2936 L 122.9485 59.7750 L 122.0690 60.2618 L 121.1927 60.7542 L 120.3194 61.2520 L 119.4493 61.7554 L 118.5824 62.2641 L 117.7186 62.7784 L 116.8582 63.2980 L 116.0010 63.8230 L 115.1471 64.3535 L 114.2966 64.8892 L 113.4494 65.4303 L 112.6057 65.9767 L 111.7654 66.5284 L 110.9286 67.0854 L 110.0953 67.6476 L 109.2656 68.2151 L 108.4395 68.7877 L 107.6169 69.3655 L 106.7980 69.9485 L 105.9828 70.5366 L 105.1713 71.1298 L 104.3636 71.7281 L 103.5596 72.3315 L 102.7594 72.9399 L 101.9631 73.5533 L 101.1706 74.1717 L 100.3820 74.7951 L 99.5974 75.4235 L 98.8167 76.0567 L 98.0400 76.6948 L 97.2674 77.3378 L 96.4988 77.9857 L 95.7343 78.6383 L 94.9739 79.2958 L 94.2176 79.9580 L 93.4655 80.6249 L 92.7177 81.2966 L 91.9740 81.9729 L 91.2347 82.6539 L 90.4996 83.3396 L 89.7688 84.0298 L 89.0424 84.7246 L 88.3204 85.4240 L 87.6028 86.1279 L 86.8896 86.8363 L 86.1808 87.5491 L 85.4766 88.2664 L 84.7769 88.9881 L 84.0818 89.7142 L 83.3912 90.4446 L 82.7052 91.1794 L 82.0238 91.9184 L 81.3471 92.6618 L 80.6751 93.4093 L 80.0078 94.1611 L 79.3453 94.9170 L 78.6874 95.6771 L 78.0344 96.4413 L 77.3862 97.2096 L 76.7429 97.9820 L 76.1044 98.7583 L 75.4708 99.5387 L 74.8421 100.3231 L 74.2183 101.1113 L 73.5995 101.9035 L 72.9857 102.6996 L 72.3769 103.4994 L 71.7732 104.3031 L 71.1745 105.1106 L 70.5809 105.9218 L 69.9924 106.7368 L 69.4091 107.5554 L 68.8309 108.3777 L 68.2578 109.2035 L 67.6900 110.0330 L 67.1274 110.8660 L 66.5700 111.7025 L 66.0179 112.5426 L 65.4711 113.3860 L 64.9296 114.2329 L 64.3934 115.0832 L 63.8626 115.9368 L 63.3372 116.7938 L 62.8171 117.6540 L 62.3025 118.5175 L 61.7933 119.3842 L 61.2896 120.2540 L 60.7913 121.1271 L 60.2985 122.0032 L 59.8113 122.8824 L 59.3295 123.7647 L 58.8534 124.6500 L 58.3828 125.5382 L 57.9178 126.4294 L 57.4584 127.3235 L 57.0046 128.2204 L 56.5564 129.1202 L 56.1140 130.0228 L 55.6772 130.9281 L 55.2461 131.8362 L 54.8207 132.7470 L 54.4010 133.6604 L 53.9871 134.5764 L 53.5790 135.4950 L 53.1766 136.4162 L 52.7801 137.3399 L 52.3893 138.2660 L 52.0044 139.1946 L 51.6253 140.1256 L 51.2520 141.0590 L 50.8847 141.9946 L 50.5232 142.9326 L 50.1676 143.8728 L 49.8180 144.8152 L 49.4742 145.7599 L 49.1364 146.7066 L 48.8046 147.6555 L 48.4787 148.6064 L 48.1588 149.5593 L 47.8449 150.5143 L 47.5370 151.4712 L 47.2352 152.4300 L 46.9393 153.3907 L 46.6495 154.3532 L 46.3658 155.3175 L 46.0881 156.2836 L 45.8165 157.2514 L 45.5509 158.2209 L 45.2915 159.1921 L 45.0382 160.1648 L 44.7910 161.1392 L 44.5499 162.1150 L 44.3150 163.0924 L 44.0862 164.0712 L 43.8635 165.0515 L 43.6470 166.0331 L 43.4367 167.0160 L 43.2326 168.0003 L 43.0346 168.9858 L 42.8429 169.9726 L 42.6573 170.9605 L 42.4780 171.9496 L 42.3049 172.9398 L 42.1380 173.9310 L 41.9773 174.9233 L 41.8229 175.9166 L 41.6747 176.9108 L 41.5328 177.9060 L 41.3971 178.9020 L 41.2677 179.8988 L 41.1445 180.8965 L 41.0277 181.8948 L 40.9170 182.8939 L 40.8127 183.8937 L 40.7147 184.8941 L 40.6229 185.8951 L 40.5374 186.8967 L 40.4583 187.8988 L 40.3854 188.9014 L 40.3188 189.9044 L 40.2585 190.9078 L 40.2046 191.9115 L 40.1569 192.9156 L 40.1156 193.9200 L 40.0805 194.9245 L 40.0518 195.9293 L 40.0294 196.9343 L 40.0133 197.9394 L 40.0035 198.9445 L 40.0000 199.9497 L 40.0028 200.9549 L 40.0120 201.9601 L 40.0275 202.9652 L 40.0493 203.9702 L 40.0774 204.9750 L 40.1118 205.9796 L 40.1525 206.9840 L 40.1995 207.9881 L 40.2529 208.9919 L 40.3125 209.9953 L 40.3785 210.9984 L 40.4507 212.0010 L 40.5292 213.0031 L 40.6141 214.0047 L 40.7052 215.0058 L 40.8026 216.0063 L 40.9063 217.0061 L 41.0163 218.0053 L 41.1326 219.0037 L 41.2551 220.0015 L 41.3839 220.9984 L 41.5189 221.9945 L 41.6602 222.9897 L 41.8078 223.9840 L 41.9616 224.9774 L 42.1216 225.9698 L 42.2879 226.9611 L 42.4604 227.9514 L 42.6391 228.9406 L 42.8241 229.9287 L 43.0152 230.9155 L 43.2125 231.9012 L 43.4160 232.8856 L 43.6257 233.8687 L 43.8416 234.8504 L 44.0636 235.8308 L 44.2918 236.8098 L 44.5261 237.7873 L 44.7666 238.7633 L 45.0132 239.7378 L 45.2659 240.7107 L 45.5247 241.6820 L 45.7896 242.6517 L 46.0606 243.6197 L 46.3377 244.5860 L 46.6209 245.5505 L 46.9101 246.5132 L 47.2053 247.4741 L 47.5066 248.4331 L 47.8139 249.3901 L 48.1272 250.3453 L 48.4465 251.2984 L 48.7717 252.2496 L 49.1030 253.1986 L 49.4402 254.1456 L 49.7833 255.0904 L 50.1324 256.0331 L 50.4874 256.9735 L 50.8483 257.9117 L 51.2150 258.8476 L 51.5877 259.7812 L 51.9662 260.7124 L 52.3505 261.6412 L 52.7407 262.5676 L 53.1367 263.4915 L 53.5385 264.4130 L 53.9461 265.3318 L 54.3594 266.2481 L 54.7785 267.1618 L 55.2033 268.0728 L 55.6338 268.9812 L 56.0700 269.8868 L 56.5119 270.7897 L 56.9595 271.6897 L 57.4127 272.5870 L 57.8716 273.4814 L 58.3360 274.3728 L 58.8061 275.2614 L 59.2817 276.1469 L 59.7628 277.0295 L 60.2495 277.9090 L 60.7418 278.7855 L 61.2395 279.6588 L 61.7427 280.5290 L 62.2513 281.3960 L 62.7654 282.2598 L 63.2849 283.1204 L 63.8098 283.9776 L 64.3401 284.8316 L 64.8758 285.6822 L 65.4167 286.5294 L 65.9630 287.3733 L 66.5146 288.2136 L 67.0714 289.0505 L 67.6335 289.8839 L 68.2008 290.7137 L 68.7733 291.5399 L 69.3510 292.3626 L 69.9338 293.1815 L 70.5218 293.9968 L 71.1149 294.8084 L 71.7131 295.6163 L 72.3163 296.4204 L 72.9246 297.2206 L 73.5379 298.0171 L 74.1562 298.8096 L 74.7795 299.5983 L 75.4077 300.3830 L 76.0408 301.1638 L 76.6788 301.9406 L 77.3217 302.7133 L 77.9694 303.4820 L 78.6219 304.2467 L 79.2793 305.0072 L 79.9413 305.7635 L 80.6082 306.5157 L 81.2797 307.2637 L 81.9559 308.0074 L 82.6368 308.7469 L 83.3224 309.4821 L 84.0125 310.2130 L 84.7072 310.9395 L 85.4064 311.6616 L 86.1102 312.3794 L 86.8185 313.0927 L 87.5312 313.8015 L 88.2484 314.5058 L 88.9700 315.2057 L 89.6960 315.9009 L 90.4263 316.5916 L 91.1609 317.2777 L 91.8999 317.9592 L 92.6431 318.6360 L 93.3906 319.3081 L 94.1422 319.9756 L 94.8981 320.6382 L 95.6580 321.2962 L 96.4221 321.9493 L 97.1903 322.5976 L 97.9626 323.2411 L 98.7389 323.8797 L 99.5191 324.5135 L 100.3034 325.1423 L 101.0916 325.7661 L 101.8836 326.3851 L 102.6796 326.9990 L 103.4794 327.6079 L 104.2830 328.2118 L 105.0904 328.8106 L 105.9015 329.4043 L 106.7163 329.9929 L 107.5349 330.5764 L 108.3570 331.1548 L 109.1828 331.7279 L 110.0122 332.2959 L 110.8451 332.8586 L 111.6816 333.4161 L 112.5215 333.9683 L 113.3649 334.5153 L 114.2117 335.0569 L 115.0619 335.5932 L 115.9154 336.1242 L 116.7723 336.6497 L 117.6324 337.1699 L 118.4958 337.6847 L 119.3624 338.1940 L 120.2322 338.6979 L 121.1052 339.1963 L 121.9812 339.6892 L 122.8604 340.1766 L 123.7426 340.6585 L 124.6278 341.1348 L 125.5159 341.6055 L 126.4070 342.0707 L 127.3011 342.5302 L 128.1979 342.9842 L 129.0977 343.4324 L 130.0002 343.8750 L 130.9055 344.3120 L 131.8135 344.7432 L 132.7242 345.1687 L 133.6375 345.5885 L 134.5535 346.0026 L 135.4720 346.4109 L 136.3931 346.8134 L 137.3167 347.2101 L 138.2428 347.6010 L 139.1714 347.9861 L 140.1023 348.3653 L 141.0356 348.7387 L 141.9712 349.1062 L 142.9091 349.4678 L 143.8493 349.8236 L 144.7916 350.1734 L 145.7362 350.5173 L 146.6829 350.8552 L 147.6317 351.1872 L 148.5826 351.5132 L 149.5355 351.8332 L 150.4903 352.1473 L 151.4472 352.4553 L 152.4060 352.7574 L 153.3666 353.0534 L 154.3291 353.3433 L 155.2934 353.6272 L 156.2594 353.9050 L 157.2272 354.1768 L 158.1966 354.4425 L 159.1678 354.7021 L 160.1405 354.9555 L 161.1148 355.2029 L 162.0906 355.4441 L 163.0679 355.6792 L 164.0467 355.9082 L 165.0269 356.1310 L 166.0085 356.3476 L 166.9914 356.5581 L 167.9757 356.7624 L 168.9612 356.9605 L 169.9479 357.1524 L 170.9358 357.3381 L 171.9248 357.5176 L 172.9150 357.6909 L 173.9062 357.8579 L 174.8985 358.0187 L 175.8917 358.1733 L 176.8859 358.3216 L 177.8811 358.4637 L 178.8770 358.5996 L 179.8739 358.7291 L 180.8715 358.8525 L 181.8699 358.9695 L 182.8689 359.0803 L 183.8687 359.1847 L 184.8691 359.2830 L 185.8701 359.3749 L 186.8717 359.4605 L 187.8737 359.5398 L 188.8763 359.6129 L 189.8793 359.6796 L 190.8827 359.7400 L 191.8864 359.7942 L 192.8905 359.8420 L 193.8948 359.8835 L 194.8994 359.9187 L 195.9042 359.9476 L 196.9092 359.9702 L 197.9142 359.9864 L 198.9194 359.9964 L 199.9246 360.0000 L 200.9298 359.9973 L 201.9350 359.9883 L 202.9401 359.9730 L 203.9450 359.9514 L 204.9498 359.9234 L 205.9545 359.8892 L 206.9589 359.8486 L 207.9630 359.8017 L 208.9668 359.7486 L 209.9702 359.6891 L 210.9733 359.6233 L 211.9759 359.5512 L 212.9780 359.4728 L 213.9797 359.3881 L 214.9808 359.2971 L 215.9812 359.1999 L 216.9811 359.0963 L 217.9803 358.9865 L 218.9788 358.8704 L 219.9765 358.7480 L 220.9735 358.6194 L 221.9696 358.4845 L 222.9648 358.3434 L 223.9592 358.1960 L 224.9526 358.0423 L 225.9450 357.8824 L 226.9363 357.7163 L 227.9267 357.5440 L 228.9159 357.3654 L 229.9040 357.1806 L 230.8909 356.9897 L 231.8766 356.7925 L 232.8610 356.5891 L 233.8441 356.3796 L 234.8259 356.1639 L 235.8063 355.9420 L 236.7853 355.7140 L 237.7629 355.4798 L 238.7389 355.2395 L 239.7134 354.9930 L 240.6864 354.7405 L 241.6578 354.4818 L 242.6275 354.2171 L 243.5955 353.9462 L 244.5618 353.6693 L 245.5264 353.3863 L 246.4891 353.0972 L 247.4500 352.8021 L 248.4091 352.5010 L 249.3662 352.1939 L 250.3214 351.8807 L 251.2746 351.5616 L 252.2258 351.2365 L 253.1749 350.9054 L 254.1219 350.5683 L 255.0668 350.2253 L 256.0095 349.8764 L 256.9500 349.5216 L 257.8882 349.1608 L 258.8242 348.7942 L 259.7578 348.4217 L 260.6891 348.0433 L 261.6180 347.6591 L 262.5445 347.2691 L 263.4685 346.8733 L 264.3899 346.4716 L 265.3089 346.0642 L 266.2252 345.6510 L 267.1390 345.2321 L 268.0501 344.8074 L 268.9585 344.3770 L 269.8642 343.9410 L 270.7671 343.4992 L 271.6673 343.0518 L 272.5646 342.5987 L 273.4590 342.1400 L 274.3506 341.6757 L 275.2392 341.2058 L 276.1248 340.7303 L 277.0075 340.2493 L 277.8870 339.7627 L 278.7636 339.2706 L 279.6370 338.7730 L 280.5073 338.2700 L 281.3744 337.7614 L 282.2382 337.2475 L 283.0989 336.7281 L 283.9562 336.2034 L 284.8103 335.6732 L 285.6610 335.1377 L 286.5083 334.5969 L 287.3522 334.0507 L 288.1926 333.4993 L 289.0296 332.9426 L 289.8631 332.3806 L 290.6930 331.8135 L 291.5193 331.2411 L 292.3420 330.6635 L 293.1611 330.0808 L 293.9765 329.4929 L 294.7882 328.9000 L 295.5961 328.3019 L 296.4003 327.6988 L 297.2007 327.0906 L 297.9972 326.4775 L 298.7899 325.8593 L 299.5786 325.2362 L 300.3635 324.6081 L 301.1443 323.9751 L 301.9212 323.3372 L 302.6941 322.6945 L 303.4629 322.0469 L 304.2276 321.3945 L 304.9882 320.7372 L 305.7446 320.0753 L 306.4969 319.4086 L 307.2450 318.7371 L 307.9889 318.0610 L 308.7285 317.3803 L 309.4638 316.6948 L 310.1947 316.0048 L 310.9214 315.3102 L 311.6436 314.6111 L 312.3615 313.9074 L 313.0749 313.1993 L 313.7838 312.4867 L 314.4883 311.7696 L 315.1882 311.0481 L 315.8836 310.3222 L 316.5744 309.5920 L 317.2606 308.8575 L 317.9422 308.1186 L 318.6191 307.3755 L 319.2914 306.6282 L 319.9589 305.8766 L 320.6217 305.1209 L 321.2798 304.3610 L 321.9330 303.5970 L 322.5815 302.8289 L 323.2251 302.0568 L 323.8638 301.2806 L 324.4977 300.5004 L 325.1266 299.7163 L 325.7506 298.9282 L 326.3696 298.1362 L 326.9837 297.3404 L 327.5927 296.5407 L 328.1967 295.7372 L 328.7957 294.9299 L 329.3895 294.1188 L 329.9783 293.3041 L 330.5619 292.4857 L 331.1403 291.6636 L 331.7136 290.8379 L 332.2817 290.0086 L 332.8446 289.1757 L 333.4022 288.3394 L 333.9546 287.4995 L 334.5017 286.6562 L 335.0434 285.8095 L 335.5799 284.9594 L 336.1109 284.1060 L 336.6367 283.2492 L 337.1570 282.3891 L 337.6719 281.5258 L 338.1813 280.6593 L 338.6854 279.7895 L 339.1839 278.9167 L 339.6770 278.0407 L 340.1645 277.1616 L 340.6465 276.2795 L 341.1229 275.3944 L 341.5938 274.5063 L 342.0591 273.6153 L 342.5188 272.7213 L 342.9729 271.8245 L 343.4213 270.9249 L 343.8640 270.0224 L 344.3011 269.1172 L 344.7325 268.2093 L 345.1582 267.2987 L 345.5781 266.3854 L 345.9923 265.4695 L 346.4007 264.5510 L 346.8034 263.6299 L 347.2002 262.7064 L 347.5913 261.7804 L 347.9765 260.8519 L 348.3559 259.9210 L 348.7294 258.9878 L 349.0971 258.0522 L 349.4589 257.1144 L 349.8147 256.1743 L 350.1647 255.2320 L 350.5087 254.2875 L 350.8468 253.3408 L 351.1789 252.3921 L 351.5051 251.4412 L 351.8253 250.4884 L 352.1395 249.5336 L 352.4477 248.5768 L 352.7499 247.6180 L 353.0460 246.6574 L 353.3361 245.6950 L 353.6202 244.7308 L 353.8982 243.7648 L 354.1701 242.7970 L 354.4359 241.8276 L 354.6956 240.8565 L 354.9493 239.8839 L 355.1968 238.9096 L 355.4382 237.9338 L 355.6734 236.9565 L 355.9025 235.9778 L 356.1255 234.9976 L 356.3423 234.0160 L 356.5529 233.0332 L 356.7573 232.0490 L 356.9556 231.0635 L 357.1477 230.0768 L 357.3335 229.0889 L 357.5132 228.0999 L 357.6866 227.1098 L 357.8538 226.1186 L 358.0148 225.1263 L 358.1695 224.1331 L 358.3180 223.1389 L 358.4603 222.1438 L 358.5962 221.1479 L 358.7260 220.1511 L 358.8494 219.1535 L 358.9666 218.1551 L 359.0776 217.1560 L 359.1822 216.1563 L 359.2806 215.1559 L 359.3726 214.1549 L 359.4584 213.1534 L 359.5379 212.1513 L 359.6111 211.1488 L 359.6780 210.1458 L 359.7386 209.1424 L 359.7929 208.1387 L 359.8408 207.1346 L 359.8825 206.1303 L 359.9179 205.1257 L 359.9469 204.1209 L 359.9697 203.1160 L 359.9861 202.1109 L 359.9962 201.1057" 
        fill="none" 
        stroke="#2196F3" 
        stroke-width="1.0"
        stroke-linecap="round"
        stroke-linejoin="round"/>
</svg>