<?xml version="1.0" encoding="UTF-8"?>
<svg xmlns="http://www.w3.org/2000/svg" 
     width="400.0" height="400.0" 
     viewBox="0 0 400.0 400.0">
  <rect width="100%" height="100%" fill="#ffffff"/>
  <path d="M 206.2066 195.1942 L 206.4085 194.3334 L 206.5398 193.4590 L 206.6012 192.5769 L 206.5937 191.6928 L 206.5187 190.8118 L 206.3779 189.9389 L 206.1732 189.0786 L 205.9069 188.2355 L 205.5814 187.4134 L 205.1992 186.6160 L 204.7631 185.8468 L 204.2759 185.1089 L 203.7405 184.4051 L 203.1601 183.7380 L 202.5377 183.1099 L 201.8764 182.5228 L 201.1795 181.9786 L 200.4500 181.4788 L 199.6912 181.0247 L 198.9063 180.6175 L 198.0984 180.2580 L 197.2706 179.9470 L 196.4260 179.6849 L 195.5677 179.4721 L 194.6987 179.3087 L 193.8218 179.1948 L 192.9398 179.1301 L 192.0557 179.1143 L 191.1720 179.1470 L 190.2914 179.2277 L 189.4163 179.3555 L 188.5494 179.5297 L 187.6928 179.7493 L 186.8488 180.0134 L 186.0196 180.3208 L 185.2073 180.6703 L 184.4138 181.0606 L 183.6410 181.4904 L 182.8906 181.9583 L 182.1642 182.4628 L 181.4636 183.0023 L 180.7900 183.5754 L 180.1450 184.1803 L 179.5297 184.8154 L 178.9453 185.4792 L 178.3929 186.1697 L 177.8735 186.8854 L 177.3879 187.6245 L 176.9370 188.3853 L 176.5214 189.1659 L 176.1418 189.9646 L 175.7987 190.7796 L 175.4925 191.6093 L 175.2236 192.4517 L 174.9922 193.3053 L 174.7987 194.1682 L 174.6430 195.0387 L 174.5253 195.9152 L 174.4455 196.7959 L 174.4035 197.6793 L 174.3992 198.5636 L 174.4324 199.4473 L 174.5027 200.3289 L 174.6098 201.2067 L 174.7533 202.0793 L 174.9328 202.9452 L 175.1477 203.8031 L 175.3975 204.6514 L 175.6816 205.4889 L 175.9993 206.3142 L 176.3498 207.1261 L 176.7326 207.9234 L 177.1467 208.7048 L 177.5914 209.4692 L 178.0658 210.2155 L 178.5690 210.9427 L 179.1002 211.6498 L 179.6583 212.3358 L 180.2424 212.9998 L 180.8516 213.6409 L 181.4847 214.2583 L 182.1408 214.8513 L 182.8188 215.4191 L 183.5177 215.9610 L 184.2364 216.4764 L 184.9737 216.9647 L 185.7286 217.4253 L 186.5000 217.8578 L 187.2867 218.2617 L 188.0877 218.6367 L 188.9017 218.9822 L 189.7278 219.2981 L 190.5646 219.5839 L 191.4112 219.8396 L 192.2664 220.0649 L 193.1291 220.2596 L 193.9981 220.4237 L 194.8724 220.5570 L 195.7508 220.6596 L 196.6322 220.7314 L 197.5156 220.7724 L 198.3999 220.7828 L 199.2841 220.7627 L 200.1670 220.7122 L 201.0477 220.6314 L 201.9251 220.5207 L 202.7982 220.3802 L 203.6661 220.2103 L 204.5278 220.0112 L 205.3822 219.7833 L 206.2286 219.5269 L 207.0660 219.2425 L 207.8935 218.9304 L 208.7102 218.5912 L 209.5153 218.2252 L 210.3079 217.8330 L 211.0873 217.4150 L 211.8527 216.9719 L 212.6033 216.5042 L 213.3383 216.0125 L 214.0571 215.4973 L 214.7590 214.9593 L 215.4434 214.3991 L 216.1095 213.8174 L 216.7568 213.2148 L 217.3847 212.5920 L 217.9926 211.9497 L 218.5800 211.2886 L 219.1464 210.6094 L 219.6913 209.9128 L 220.2142 209.1996 L 220.7148 208.4705 L 221.1925 207.7263 L 221.6471 206.9677 L 222.0782 206.1955 L 222.4854 205.4105 L 222.8684 204.6133 L 223.2271 203.8049 L 223.5610 202.9860 L 223.8700 202.1574 L 224.1539 201.3198 L 224.4124 200.4741 L 224.6455 199.6210 L 224.8531 198.7613 L 225.0349 197.8958 L 225.1910 197.0253 L 225.3212 196.1506 L 225.4256 195.2724 L 225.5040 194.3915 L 225.5567 193.5087 L 225.5834 192.6247 L 225.5844 191.7403 L 225.5596 190.8563 L 225.5093 189.9734 L 225.4334 189.0922 L 225.3322 188.2137 L 225.2057 187.3384 L 225.0542 186.4671 L 224.8779 185.6005 L 224.6769 184.7392 L 224.4516 183.8840 L 224.2021 183.0356 L 223.9287 182.1945 L 223.6317 181.3615 L 223.3114 180.5371 L 222.9681 179.7221 L 222.6022 178.9170 L 222.2139 178.1224 L 221.8037 177.3389 L 221.3720 176.5670 L 220.9190 175.8075 L 220.4453 175.0607 L 219.9512 174.3272 L 219.4371 173.6076 L 218.9036 172.9023 L 218.3509 172.2118 L 217.7797 171.5366 L 217.1904 170.8773 L 216.5833 170.2341 L 215.9592 169.6076 L 215.3183 168.9981 L 214.6613 168.4061 L 213.9887 167.8319 L 213.3009 167.2759 L 212.5985 166.7385 L 211.8821 166.2200 L 211.1522 165.7207 L 210.4092 165.2409 L 209.6539 164.7809 L 208.8867 164.3410 L 208.1081 163.9215 L 207.3188 163.5225 L 206.5194 163.1443 L 205.7103 162.7872 L 204.8922 162.4513 L 204.0657 162.1367 L 203.2312 161.8437 L 202.3895 161.5724 L 201.5410 161.3229 L 200.6864 161.0954 L 199.8262 160.8899 L 198.9611 160.7065 L 198.0915 160.5453 L 197.2181 160.4064 L 196.3414 160.2898 L 195.4621 160.1955 L 194.5806 160.1236 L 193.6976 160.0739 L 192.8137 160.0466 L 191.9293 160.0415 L 191.0451 160.0587 L 190.1616 160.0981 L 189.2793 160.1596 L 188.3989 160.2430 L 187.5208 160.3484 L 186.6456 160.4757 L 185.7738 160.6245 L 184.9060 160.7950 L 184.0427 160.9868 L 183.1844 161.1998 L 182.3315 161.4340 L 181.4847 161.6890 L 180.6444 161.9646 L 179.8110 162.2607 L 178.9852 162.5771 L 178.1673 162.9135 L 177.3578 163.2697 L 176.5572 163.6454 L 175.7659 164.0404 L 174.9844 164.4544 L 174.2131 164.8871 L 173.4524 165.3383 L 172.7028 165.8076 L 171.9647 166.2947 L 171.2384 166.7993 L 170.5243 167.3211 L 169.8229 167.8598 L 169.1346 168.4151 L 168.4595 168.9864 L 167.7982 169.5737 L 167.1510 170.1764 L 166.5182 170.7942 L 165.9001 171.4267 L 165.2971 172.0736 L 164.7093 172.7345 L 164.1373 173.4089 L 163.5811 174.0965 L 163.0411 174.7970 L 162.5176 175.5098 L 162.0108 176.2345 L 161.5210 176.9709 L 161.0483 177.7184 L 160.5930 178.4766 L 160.1554 179.2451 L 159.7356 180.0235 L 159.3337 180.8113 L 158.9501 181.6081 L 158.5848 182.4135 L 158.2380 183.2271 L 157.9098 184.0484 L 157.6005 184.8769 L 157.3101 185.7122 L 157.0387 186.5540 L 156.7864 187.4016 L 156.5534 188.2548 L 156.3397 189.1129 L 156.1455 189.9757 L 155.9706 190.8427 L 155.8153 191.7133 L 155.6796 192.5872 L 155.5634 193.4640 L 155.4669 194.3431 L 155.3900 195.2241 L 155.3327 196.1066 L 155.2951 196.9902 L 155.2771 197.8744 L 155.2786 198.7588 L 155.2998 199.6430 L 155.3404 200.5264 L 155.4005 201.4088 L 155.4801 202.2896 L 155.5789 203.1684 L 155.6970 204.0449 L 155.8343 204.9186 L 155.9906 205.7890 L 156.1659 206.6559 L 156.3600 207.5187 L 156.5729 208.3771 L 156.8043 209.2307 L 157.0542 210.0790 L 157.3224 210.9218 L 157.6088 211.7585 L 157.9132 212.5889 L 158.2353 213.4125 L 158.5751 214.2290 L 158.9324 215.0380 L 159.3069 215.8392 L 159.6985 216.6322 L 160.1070 217.4166 L 160.5320 218.1921 L 160.9736 218.9584 L 161.4313 219.7152 L 161.9050 220.4620 L 162.3944 221.1986 L 162.8993 221.9247 L 163.4195 222.6400 L 163.9546 223.3441 L 164.5044 224.0368 L 165.0687 224.7178 L 165.6472 225.3867 L 166.2396 226.0434 L 166.8456 226.6875 L 167.4650 227.3189 L 168.0974 227.9371 L 168.7425 228.5420 L 169.4002 229.1333 L 170.0699 229.7109 L 170.7516 230.2744 L 171.4447 230.8237 L 172.1491 231.3585 L 172.8643 231.8786 L 173.5902 232.3839 L 174.3263 232.8741 L 175.0724 233.3490 L 175.8280 233.8085 L 176.5929 234.2524 L 177.3668 234.6806 L 178.1492 235.0928 L 178.9399 235.4890 L 179.7385 235.8689 L 180.5447 236.2325 L 181.3581 236.5797 L 182.1784 236.9102 L 183.0053 237.2240 L 183.8383 237.5210 L 184.6772 237.8012 L 185.5215 238.0643 L 186.3710 238.3103 L 187.2253 238.5392 L 188.0840 238.7508 L 188.9468 238.9452 L 189.8133 239.1222 L 190.6831 239.2818 L 191.5560 239.4240 L 192.4316 239.5487 L 193.3094 239.6559 L 194.1893 239.7457 L 195.0707 239.8179 L 195.9534 239.8726 L 196.8370 239.9097 L 197.7212 239.9294 L 198.6056 239.9316 L 199.4899 239.9162 L 200.3737 239.8835 L 201.2566 239.8333 L 202.1384 239.7658 L 203.0188 239.6810 L 203.8972 239.5788 L 204.7736 239.4596 L 205.6474 239.3231 L 206.5183 239.1696 L 207.3861 238.9992 L 208.2505 238.8118 L 209.1110 238.6077 L 209.9674 238.3869 L 210.8193 238.1495 L 211.6665 237.8956 L 212.5086 237.6253 L 213.3453 237.3388 L 214.1763 237.0362 L 215.0013 236.7176 L 215.8200 236.3832 L 216.6322 236.0331 L 217.4374 235.6674 L 218.2355 235.2863 L 219.0262 234.8901 L 219.8091 234.4787 L 220.5840 234.0525 L 221.3506 233.6115 L 222.1087 233.1560 L 222.8579 232.6861 L 223.5981 232.2021 L 224.3289 231.7040 L 225.0502 231.1922 L 225.7616 230.6669 L 226.4630 230.1281 L 227.1540 229.5762 L 227.8345 229.0113 L 228.5042 228.4337 L 229.1629 227.8436 L 229.8104 227.2411 L 230.4465 226.6267 L 231.0709 226.0004 L 231.6835 225.3625 L 232.2840 224.7132 L 232.8723 224.0528 L 233.4481 223.3816 L 234.0113 222.6997 L 234.5617 222.0074 L 235.0991 221.3050 L 235.6233 220.5928 L 236.1343 219.8709 L 236.6318 219.1397 L 237.1156 218.3994 L 237.5857 217.6502 L 238.0418 216.8925 L 238.4839 216.1266 L 238.9118 215.3526 L 239.3253 214.5708 L 239.7244 213.7816 L 240.1089 212.9852 L 240.4788 212.1818 L 240.8338 211.3718 L 241.1740 210.5554 L 241.4992 209.7330 L 241.8093 208.9048 L 242.1042 208.0710 L 242.3839 207.2320 L 242.6483 206.3880 L 242.8973 205.5394 L 243.1309 204.6864 L 243.3489 203.8293 L 243.5513 202.9684 L 243.7382 202.1040 L 243.9094 201.2363 L 244.0648 200.3657 L 244.2046 199.4924 L 244.3286 198.6167 L 244.4368 197.7390 L 244.5292 196.8594 L 244.6058 195.9783 L 244.6666 195.0960 L 244.7116 194.2128 L 244.7407 193.3288 L 244.7541 192.4446 L 244.7516 191.5602 L 244.7334 190.6759 L 244.6994 189.7922 L 244.6497 188.9092 L 244.5843 188.0272 L 244.5032 187.1466 L 244.4065 186.2675 L 244.2943 185.3902 L 244.1666 184.5151 L 244.0233 183.6424 L 243.8647 182.7723 L 243.6908 181.9052 L 243.5016 181.0412 L 243.2972 180.1808 L 243.0778 179.3241 L 242.8433 178.4713 L 242.5938 177.6228 L 242.3295 176.7788 L 242.0505 175.9396 L 241.7569 175.1054 L 241.4487 174.2764 L 241.1261 173.4530 L 240.7891 172.6353 L 240.4380 171.8235 L 240.0728 171.0181 L 239.6936 170.2191 L 239.3007 169.4268 L 238.8940 168.6414 L 238.4738 167.8632 L 238.0401 167.0924 L 237.5933 166.3293 L 237.1332 165.5739 L 236.6603 164.8266 L 236.1745 164.0876 L 235.6760 163.3570 L 235.1650 162.6352 L 234.6417 161.9222 L 234.1063 161.2183 L 233.5588 160.5237 L 232.9995 159.8386 L 232.4286 159.1632 L 231.8462 158.4976 L 231.2525 157.8421 L 230.6478 157.1968 L 230.0321 156.5620 L 229.4056 155.9377 L 228.7687 155.3241 L 228.1214 154.7215 L 227.4639 154.1299 L 226.7965 153.5496 L 226.1194 152.9807 L 225.4327 152.4233 L 224.7368 151.8777 L 224.0316 151.3438 L 223.3176 150.8220 L 222.5949 150.3123 L 221.8637 149.8148 L 221.1242 149.3297 L 220.3766 148.8571 L 219.6213 148.3971 L 218.8583 147.9499 L 218.0879 147.5155 L 217.3104 147.0941 L 216.5259 146.6858 L 215.7346 146.2906 L 214.9370 145.9087 L 214.1330 145.5402 L 213.3230 145.1852 L 212.5072 144.8436 L 211.6858 144.5157 L 210.8591 144.2015 L 210.0273 143.9011 L 209.1906 143.6145 L 208.3493 143.3418 L 207.5036 143.0831 L 206.6537 142.8384 L 205.7999 142.6078 L 204.9424 142.3914 L 204.0815 142.1891 L 203.2173 142.0010 L 202.3502 141.8272 L 201.4803 141.6676 L 200.6079 141.5224 L 199.7332 141.3916 L 198.8565 141.2751 L 197.9780 141.1729 L 197.0980 141.0852 L 196.2166 141.0119 L 195.3342 140.9530 L 194.4509 140.9086 L 193.5670 140.8785 L 192.6828 140.8629 L 191.7984 140.8616 L 190.9141 140.8748 L 190.0301 140.9023 L 189.1467 140.9442 L 188.2641 141.0004 L 187.3825 141.0709 L 186.5022 141.1557 L 185.6233 141.2547 L 184.7462 141.3679 L 183.8710 141.4952 L 182.9980 141.6367 L 182.1274 141.7922 L 181.2594 141.9617 L 180.3942 142.1452 L 179.5321 142.3426 L 178.6733 142.5538 L 177.8180 142.7787 L 176.9664 143.0173 L 176.1187 143.2696 L 175.2752 143.5354 L 174.4361 143.8146 L 173.6015 144.1072 L 172.7717 144.4131 L 171.9468 144.7322 L 171.1272 145.0645 L 170.3130 145.4097 L 169.5043 145.7678 L 168.7015 146.1388 L 167.9046 146.5224 L 167.1139 146.9186 L 166.3297 147.3274 L 165.5519 147.7485 L 164.7810 148.1818 L 164.0170 148.6273 L 163.2601 149.0849 L 162.5106 149.5543 L 161.7685 150.0354 L 161.0342 150.5282 L 160.3076 151.0325 L 159.5891 151.5482 L 158.8788 152.0751 L 158.1769 152.6131 L 157.4835 153.1621 L 156.7987 153.7218 L 156.1229 154.2922 L 155.4560 154.8731 L 154.7983 155.4644 L 154.1500 156.0659 L 153.5111 156.6774 L 152.8818 157.2989 L 152.2623 157.9300 L 151.6526 158.5707 L 151.0531 159.2209 L 150.4637 159.8803 L 149.8846 160.5487 L 149.3160 161.2261 L 148.7579 161.9122 L 148.2105 162.6068 L 147.6740 163.3099 L 147.1484 164.0212 L 146.6339 164.7405 L 146.1305 165.4677 L 145.6384 166.2025 L 145.1577 166.9449 L 144.6885 167.6946 L 144.2309 168.4514 L 143.7850 169.2151 L 143.3509 169.9856 L 142.9286 170.7627 L 142.5184 171.5462 L 142.1202 172.3359 L 141.7341 173.1316 L 141.3603 173.9331 L 140.9987 174.7402 L 140.6496 175.5528 L 140.3129 176.3706 L 139.9887 177.1934 L 139.6771 178.0211 L 139.3781 178.8535 L 139.0918 179.6903 L 138.8183 180.5313 L 138.5577 181.3764 L 138.3098 182.2254 L 138.0749 183.0780 L 137.8529 183.9341 L 137.6440 184.7935 L 137.4480 185.6559 L 137.2652 186.5212 L 137.0954 187.3891 L 136.9387 188.2595 L 136.7952 189.1322 L 136.6649 190.0070 L 136.5478 190.8836 L 136.4438 191.7619 L 136.3531 192.6416 L 136.2757 193.5226 L 136.2114 194.4047 L 136.1605 195.2876 L 136.1227 196.1712 L 136.0982 197.0553 L 136.0869 197.9396 L 136.0889 198.8240 L 136.1041 199.7083 L 136.1325 200.5922 L 136.1741 201.4756 L 136.2288 202.3583 L 136.2967 203.2401 L 136.3778 204.1208 L 136.4719 205.0002 L 136.5791 205.8781 L 136.6993 206.7543 L 136.8325 207.6286 L 136.9787 208.5008 L 137.1377 209.3708 L 137.3097 210.2383 L 137.4944 211.1032 L 137.6920 211.9653 L 137.9022 212.8243 L 138.1251 213.6801 L 138.3607 214.5326 L 138.6087 215.3815 L 138.8693 216.2267 L 139.1422 217.0679 L 139.4275 217.9050 L 139.7251 218.7378 L 140.0349 219.5662 L 140.3568 220.3900 L 140.6908 221.2089 L 141.0367 222.0228 L 141.3945 222.8316 L 141.7641 223.6351 L 142.1454 224.4331 L 142.5383 225.2254 L 142.9428 226.0119 L 143.3587 226.7924 L 143.7859 227.5668 L 144.2244 228.3348 L 144.6740 229.0964 L 145.1346 229.8514 L 145.6062 230.5996 L 146.0886 231.3408 L 146.5817 232.0750 L 147.0854 232.8020 L 147.5996 233.5215 L 148.1241 234.2336 L 148.6589 234.9380 L 149.2038 235.6345 L 149.7588 236.3232 L 150.3236 237.0037 L 150.8982 237.6760 L 151.4825 238.3400 L 152.0762 238.9954 L 152.6793 239.6423 L 153.2917 240.2804 L 153.9132 240.9096 L 154.5436 241.5298 L 155.1829 242.1410 L 155.8309 242.7428 L 156.4875 243.3353 L 157.1525 243.9184 L 157.8258 244.4919 L 158.5072 245.0556 L 159.1966 245.6096 L 159.8939 246.1537 L 160.5988 246.6877 L 161.3113 247.2117 L 162.0312 247.7254 L 162.7584 248.2288 L 163.4926 248.7218 L 164.2338 249.2043 L 164.9818 249.6762 L 165.7364 250.1375 L 166.4974 250.5880 L 167.2648 251.0276 L 168.0384 251.4563 L 168.8179 251.8740 L 169.6033 252.2806 L 170.3943 252.6761 L 171.1909 253.0604 L 171.9928 253.4333 L 172.7999 253.7949 L 173.6121 254.1451 L 174.4291 254.4837 L 175.2507 254.8109 L 176.0769 255.1264 L 176.9075 255.4303 L 177.7423 255.7224 L 178.5810 256.0028 L 179.4237 256.2714 L 180.2700 256.5281 L 181.1198 256.7730 L 181.9730 257.0059 L 182.8294 257.2268 L 183.6887 257.4357 L 184.5509 257.6326 L 185.4158 257.8174 L 186.2832 257.9901 L 187.1529 258.1507 L 188.0248 258.2991 L 188.8986 258.4354 L 189.7743 258.5595 L 190.6516 258.6714 L 191.5303 258.7710 L 192.4104 258.8585 L 193.2916 258.9337 L 194.1737 258.9966 L 195.0567 259.0474 L 195.9403 259.0858 L 196.8243 259.1120 L 197.7086 259.1260 L 198.5930 259.1278 L 199.4773 259.1173 L 200.3614 259.0945 L 201.2451 259.0596 L 202.1283 259.0125 L 203.0107 258.9532 L 203.8922 258.8818 L 204.7726 258.7982 L 205.6519 258.7025 L 206.5297 258.5947 L 207.4059 258.4748 L 208.2804 258.3430 L 209.1531 258.1991 L 210.0236 258.0433 L 210.8920 257.8755 L 211.7579 257.6959 L 212.6214 257.5044 L 213.4821 257.3012 L 214.3400 257.0861 L 215.1948 256.8594 L 216.0465 256.6210 L 216.8948 256.3711 L 217.7397 256.1095 L 218.5809 255.8365 L 219.4183 255.5520 L 220.2517 255.2562 L 221.0811 254.9490 L 221.9062 254.6306 L 222.7269 254.3011 L 223.5430 253.9604 L 224.3545 253.6086 L 225.1611 253.2459 L 225.9627 252.8723 L 226.7592 252.4878 L 227.5504 252.0927 L 228.3361 251.6868 L 229.1164 251.2704 L 229.8909 250.8434 L 230.6596 250.4061 L 231.4223 249.9584 L 232.1789 249.5004 L 232.9293 249.0323 L 233.6733 248.5542 L 234.4108 248.0660 L 235.1416 247.5680 L 235.8657 247.0602 L 236.5829 246.5427 L 237.2931 246.0157 L 237.9962 245.4791 L 238.6920 244.9332 L 239.3804 244.3780 L 240.0613 243.8137 L 240.7346 243.2402 L 241.4002 242.6578 L 242.0579 242.0666 L 242.7077 241.4666 L 243.3494 240.8581 L 243.9830 240.2410 L 244.6082 239.6155 L 245.2250 238.9817 L 245.8334 238.3398 L 246.4332 237.6898 L 247.0242 237.0319 L 247.6065 236.3662 L 248.1798 235.6928 L 248.7442 235.0119 L 249.2995 234.3236 L 249.8456 233.6279 L 250.3824 232.9251 L 250.9099 232.2152 L 251.4279 231.4984 L 251.9364 230.7748 L 252.4353 230.0445 L 252.9245 229.3077 L 253.4039 228.5645 L 253.8735 227.8151 L 254.3332 227.0595 L 254.7828 226.2980 L 255.2224 225.5305 L 255.6518 224.7574 L 256.0710 223.9786 L 256.4800 223.1945 L 256.8786 222.4050 L 257.2668 221.6103 L 257.6445 220.8106 L 258.0117 220.0061 L 258.3683 219.1968 L 258.7143 218.3828 L 259.0496 217.5645 L 259.3742 216.7418 L 259.6879 215.9149 L 259.9909 215.0840 L 260.2829 214.2492 L 260.5640 213.4107 L 260.8342 212.5685 L 261.0933 211.7230 L 261.3415 210.8741 L 261.5785 210.0220 L 261.8044 209.1670 L 262.0192 208.3090 L 262.2228 207.4484 L 262.4152 206.5852 L 262.5963 205.7195 L 262.7662 204.8516 L 262.9248 203.9815 L 263.0722 203.1095 L 263.2082 202.2356 L 263.3329 201.3600 L 263.4463 200.4829 L 263.5483 199.6044 L 263.6389 198.7247 L 263.7181 197.8438 L 263.7860 196.9620 L 263.8425 196.0794 L 263.8876 195.1962 L 263.9213 194.3124 L 263.9436 193.4283 L 263.9545 192.5439 L 263.9541 191.6595 L 263.9422 190.7752 L 263.9190 189.8911 L 263.8845 189.0074 L 263.8386 188.1242 L 263.7814 187.2416 L 263.7128 186.3599 L 263.6330 185.4791 L 263.5419 184.5994 L 263.4395 183.7209 L 263.3259 182.8439 L 263.2011 181.9683 L 263.0651 181.0944 L 262.9179 180.2223 L 262.7596 179.3522 L 262.5903 178.4842 L 262.4099 177.6184 L 262.2184 176.7549 L 262.0160 175.8940 L 261.8026 175.0357 L 261.5784 174.1802 L 261.3432 173.3277 L 261.0973 172.4782 L 260.8405 171.6318 L 260.5731 170.7888 L 260.2950 169.9493 L 260.0062 169.1134 L 259.7069 168.2812 L 259.3971 167.4528 L 259.0768 166.6284 L 258.7461 165.8082 L 258.4050 164.9922 L 258.0536 164.1806 L 257.6921 163.3735 L 257.3203 162.5710 L 256.9385 161.7732 L 256.5467 160.9804 L 256.1448 160.1925 L 255.7331 159.4098 L 255.3116 158.6323 L 254.8803 157.8602 L 254.4393 157.0936 L 253.9887 156.3326 L 253.5286 155.5773 L 253.0591 154.8278 L 252.5802 154.0843 L 252.0920 153.3468 L 251.5946 152.6156 L 251.0880 151.8906 L 250.5725 151.1720 L 250.0479 150.4599 L 249.5145 149.7545 L 248.9724 149.0558 L 248.4215 148.3639 L 247.8620 147.6789 L 247.2941 147.0010 L 246.7177 146.3302 L 246.1330 145.6666 L 245.5401 145.0104 L 244.9390 144.3617 L 244.3299 143.7204 L 243.7129 143.0868 L 243.0881 142.4609 L 242.4555 141.8428 L 241.8153 141.2327 L 241.1676 140.6305 L 240.5124 140.0364 L 239.8499 139.4505 L 239.1803 138.8728 L 238.5035 138.3035 L 237.8197 137.7426 L 237.1290 137.1902 L 236.4315 136.6464 L 235.7274 136.1113 L 235.0167 135.5849 L 234.2996 135.0673 L 233.5761 134.5586 L 232.8464 134.0589 L 232.1106 133.5682 L 231.3689 133.0866 L 230.6212 132.6142 L 229.8678 132.1510 L 229.1087 131.6972 L 228.3441 131.2527 L 227.5741 130.8176 L 226.7988 130.3920 L 226.0184 129.9760 L 225.2329 129.5696 L 224.4425 129.1729 L 223.6473 128.7859 L 222.8473 128.4086 L 222.0429 128.0412 L 221.2340 127.6836 L 220.4207 127.3360 L 219.6033 126.9984 L 218.7819 126.6707 L 217.9564 126.3531 L 217.1272 126.0457 L 216.2943 125.7483 L 215.4578 125.4612 L 214.6179 125.1843 L 213.7746 124.9176 L 212.9282 124.6612 L 212.0787 124.4151 L 211.2263 124.1794 L 210.3711 123.9541 L 209.5132 123.7391 L 208.6527 123.5347 L 207.7899 123.3406 L 206.9247 123.1571 L 206.0574 122.9841 L 205.1881 122.8216 L 204.3168 122.6696 L 203.4438 122.5282 L 202.5691 122.3974 L 201.6929 122.2771 L 200.8154 122.1675 L 199.9365 122.0685 L 199.0565 121.9801 L 198.1756 121.9023 L 197.2937 121.8352 L 196.4111 121.7787 L 195.5279 121.7329 L 194.6442 121.6977 L 193.7601 121.6732 L 192.8758 121.6593 L 191.9914 121.6560 L 191.1070 121.6634 L 190.2228 121.6814 L 189.3389 121.7100 L 188.4554 121.7492 L 187.5724 121.7990 L 186.6900 121.8595 L 185.8085 121.9305 L 184.9278 122.0120 L 184.0482 122.1041 L 183.1698 122.2067 L 182.2927 122.3198 L 181.4169 122.4434 L 180.5428 122.5775 L 179.6702 122.7220 L 178.7995 122.8769 L 177.9307 123.0422 L 177.0639 123.2179 L 176.1993 123.4038 L 175.3369 123.6001 L 174.4769 123.8066 L 173.6195 124.0233 L 172.7647 124.2503 L 171.9127 124.4873 L 171.0635 124.7345 L 170.2174 124.9918 L 169.3743 125.2591 L 168.5345 125.5364 L 167.6981 125.8236 L 166.8651 126.1208 L 166.0356 126.4278 L 165.2099 126.7445 L 164.3880 127.0711 L 163.5700 127.4073 L 162.7561 127.7533 L 161.9463 128.1088 L 161.1407 128.4738 L 160.3395 128.8484 L 159.5429 129.2324 L 158.7507 129.6257 L 157.9633 130.0284 L 157.1807 130.4404 L 156.4030 130.8615 L 155.6303 131.2918 L 154.8628 131.7311 L 154.1004 132.1794 L 153.3434 132.6367 L 152.5918 133.1028 L 151.8458 133.5778 L 151.1053 134.0615 L 150.3706 134.5538 L 149.6418 135.0547 L 148.9188 135.5641 L 148.2019 136.0820 L 147.4911 136.6083 L 146.7865 137.1428 L 146.0882 137.6855 L 145.3963 138.2364 L 144.7109 138.7953 L 144.0321 139.3623 L 143.3600 139.9371 L 142.6946 140.5197 L 142.0361 141.1100 L 141.3845 141.7080 L 140.7399 142.3135 L 140.1024 142.9266 L 139.4721 143.5470 L 138.8491 144.1747 L 138.2334 144.8096 L 137.6252 145.4516 L 137.0244 146.1007 L 136.4313 146.7567 L 135.8458 147.4195 L 135.2680 148.0891 L 134.6981 148.7654 L 134.1360 149.4482 L 133.5819 150.1376 L 133.0359 150.8332 L 132.4979 151.5352 L 131.9681 152.2434 L 131.4465 152.9576 L 130.9333 153.6778 L 130.4283 154.4039 L 129.9319 155.1358 L 129.4439 155.8734 L 128.9644 156.6166 L 128.4936 157.3653 L 128.0315 158.1193 L 127.5780 158.8786 L 127.1334 159.6431 L 126.6976 160.4127 L 126.2707 161.1873 L 125.8527 161.9667 L 125.4437 162.7508 L 125.0438 163.5397 L 124.6530 164.3330 L 124.2713 165.1308 L 123.8988 165.9330 L 123.5355 166.7393 L 123.1816 167.5498 L 122.8369 168.3643 L 122.5016 169.1826 L 122.1757 170.0048 L 121.8592 170.8307 L 121.5522 171.6601 L 121.2548 172.4930 L 120.9668 173.3292 L 120.6885 174.1686 L 120.4198 175.0112 L 120.1607 175.8568 L 119.9113 176.7053 L 119.6715 177.5566 L 119.4416 178.4106 L 119.2213 179.2672 L 119.0109 180.1262 L 118.8102 180.9875 L 118.6194 181.8511 L 118.4384 182.7168 L 118.2672 183.5844 L 118.1060 184.4540 L 117.9546 185.3254 L 117.8132 186.1984 L 117.6817 187.0730 L 117.5601 187.9490 L 117.4484 188.8263 L 117.3468 189.7049 L 117.2551 190.5845 L 117.1733 191.4651 L 117.1016 192.3466 L 117.0398 193.2288 L 116.9880 194.1117 L 116.9462 194.9951 L 116.9144 195.8790 L 116.8926 196.7631 L 116.8808 197.6474 L 116.8790 198.5318 L 116.8871 199.4162 L 116.9052 200.3004 L 116.9333 201.1844 L 116.9714 202.0680 L 117.0194 202.9511 L 117.0774 203.8336 L 117.1453 204.7154 L 117.2231 205.5964 L 117.3108 206.4764 L 117.4084 207.3554 L 117.5159 208.2333 L 117.6332 209.1098 L 117.7603 209.9851 L 117.8973 210.8588 L 118.0441 211.7309 L 118.2006 212.6014 L 118.3669 213.4700 L 118.5429 214.3367 L 118.7286 215.2014 L 118.9240 216.0640 L 119.1290 216.9243 L 119.3436 217.7822 L 119.5678 218.6378 L 119.8016 219.4907 L 120.0448 220.3410 L 120.2976 221.1885 L 120.5597 222.0332 L 120.8313 222.8749 L 121.1123 223.7135 L 121.4025 224.5489 L 121.7021 225.3810 L 122.0109 226.2097 L 122.3290 227.0350 L 122.6562 227.8566 L 122.9925 228.6746 L 123.3378 229.4888 L 123.6922 230.2991 L 124.0556 231.1054 L 124.4279 231.9076 L 124.8091 232.7056 L 125.1992 233.4994 L 125.5980 234.2888 L 126.0055 235.0737 L 126.4217 235.8540 L 126.8465 236.6297 L 127.2799 237.4007 L 127.7218 238.1668 L 128.1721 238.9280 L 128.6308 239.6841 L 129.0978 240.4351 L 129.5731 241.1810 L 130.0567 241.9215 L 130.5483 242.6566 L 131.0481 243.3863 L 131.5558 244.1104 L 132.0715 244.8289 L 132.5951 245.5417 L 133.1266 246.2486 L 133.6657 246.9497 L 134.2126 247.6447 L 134.7670 248.3338 L 135.3290 249.0166 L 135.8985 249.6933 L 136.4754 250.3637 L 137.0596 251.0277 L 137.6510 251.6852 L 138.2497 252.3362 L 138.8554 252.9806 L 139.4682 253.6183 L 140.0879 254.2493 L 140.7145 254.8734 L 141.3479 255.4907 L 141.9880 256.1009 L 142.6347 256.7042 L 143.2881 257.3003 L 143.9478 257.8892 L 144.6140 258.4709 L 145.2865 259.0453 L 145.9652 259.6123 L 146.6501 260.1719 L 147.3411 260.7240 L 148.0380 261.2685 L 148.7408 261.8053 L 149.4494 262.3345 L 150.1638 262.8559 L 150.8837 263.3696 L 151.6093 263.8753 L 152.3402 264.3731 L 153.0766 264.8630 L 153.8182 265.3448 L 154.5650 265.8186 L 155.3170 266.2842 L 156.0739 266.7416 L 156.8358 267.1907 L 157.6024 267.6316 L 158.3739 268.0642 L 159.1499 268.4883 L 159.9305 268.9040 L 160.7156 269.3113 L 161.5050 269.7100 L 162.2987 270.1001 L 163.0966 270.4817 L 163.8985 270.8546 L 164.7045 271.2188 L 165.5143 271.5743 L 166.3279 271.9210 L 167.1452 272.2589 L 167.9661 272.5880 L 168.7905 272.9082 L 169.6183 273.2195 L 170.4494 273.5218 L 171.2838 273.8152 L 172.1212 274.0996 L 172.9617 274.3749 L 173.8050 274.6412 L 174.6512 274.8984 L 175.5001 275.1465 L 176.3516 275.3855 L 177.2056 275.6152 L 178.0621 275.8359 L 178.9209 276.0473 L 179.7818 276.2494 L 180.6449 276.4424 L 181.5101 276.6260 L 182.3771 276.8004 L 183.2460 276.9655 L 184.1166 277.1213 L 184.9888 277.2677 L 185.8625 277.4048 L 186.7376 277.5325 L 187.6140 277.6509 L 188.4917 277.7599 L 189.3705 277.8596 L 190.2503 277.9498 L 191.1310 278.0306 L 192.0125 278.1021 L 192.8947 278.1641 L 193.7776 278.2167 L 194.6609 278.2600 L 195.5447 278.2937 L 196.4287 278.3181 L 197.3130 278.3331 L 198.1974 278.3387 L 199.0818 278.3348 L 199.9661 278.3216 L 200.8502 278.2989 L 201.7340 278.2669 L 202.6175 278.2254 L 203.5004 278.1746 L 204.3828 278.1145 L 205.2645 278.0449 L 206.1453 277.9661 L 207.0253 277.8778 L 207.9043 277.7803 L 208.7823 277.6735 L 209.6590 277.5574 L 210.5345 277.4320 L 211.4086 277.2973 L 212.2812 277.1534 L 213.1523 277.0003 L 214.0216 276.8380 L 214.8893 276.6666 L 215.7550 276.4859 L 216.6188 276.2962 L 217.4806 276.0973 L 218.3402 275.8894 L 219.1976 275.6724 L 220.0526 275.4464 L 220.9052 275.2114 L 221.7553 274.9675 L 222.6028 274.7146 L 223.4476 274.4528 L 224.2895 274.1821 L 225.1286 273.9026 L 225.9647 273.6142 L 226.7977 273.3172 L 227.6276 273.0113 L 228.4542 272.6968 L 229.2774 272.3737 L 230.0972 272.0419 L 230.9135 271.7015 L 231.7262 271.3526 L 232.5352 270.9952 L 233.3403 270.6293 L 234.1416 270.2551 L 234.9390 269.8724 L 235.7323 269.4815 L 236.5215 269.0822 L 237.3064 268.6748 L 238.0871 268.2591 L 238.8633 267.8354 L 239.6351 267.4035 L 240.4024 266.9636 L 241.1650 266.5157 L 241.9229 266.0599 L 242.6760 265.5963 L 243.4243 265.1248 L 244.1675 264.6455 L 244.9058 264.1585 L 245.6389 263.6638 L 246.3669 263.1616 L 247.0896 262.6518 L 247.8069 262.1345 L 248.5188 261.6098 L 249.2253 261.0777 L 249.9261 260.5383 L 250.6214 259.9916 L 251.3109 259.4378 L 251.9946 258.8768 L 252.6725 258.3088 L 253.3445 257.7338 L 254.0104 257.1518 L 254.6703 256.5630 L 255.3241 255.9674 L 255.9716 255.3650 L 256.6129 254.7560 L 257.2479 254.1404 L 257.8764 253.5182 L 258.4985 252.8896 L 259.1141 252.2545 L 259.7231 251.6132 L 260.3254 250.9656 L 260.9210 250.3118 L 261.5098 249.6519 L 262.0917 248.9859 L 262.6668 248.3140 L 263.2349 247.6362 L 263.7961 246.9526 L 264.3501 246.2632 L 264.8970 245.5682 L 265.4367 244.8676 L 265.9692 244.1615 L 266.4944 243.4499 L 267.0123 242.7329 L 267.5227 242.0107 L 268.0257 241.2833 L 268.5213 240.5507 L 269.0092 239.8131 L 269.4896 239.0706 L 269.9623 238.3231 L 270.4274 237.5708 L 270.8847 236.8138 L 271.3342 236.0522 L 271.7759 235.2860 L 272.2097 234.5153 L 272.6356 233.7402 L 273.0536 232.9608 L 273.4635 232.1771 L 273.8655 231.3893 L 274.2593 230.5975 L 274.6451 229.8016 L 275.0227 229.0019 L 275.3921 228.1983 L 275.7533 227.3910 L 276.1062 226.5801 L 276.4509 225.7656 L 276.7872 224.9476 L 277.1152 224.1263 L 277.4347 223.3016 L 277.7459 222.4738 L 278.0486 221.6428 L 278.3429 220.8088 L 278.6286 219.9718 L 278.9058 219.1320 L 279.1745 218.2894 L 279.4346 217.4441 L 279.6861 216.5962 L 279.9290 215.7458 L 280.1632 214.8929 L 280.3887 214.0378 L 280.6056 213.1804 L 280.8138 212.3208 L 281.0132 211.4592 L 281.2039 210.5956 L 281.3858 209.7301 L 281.5590 208.8628 L 281.7233 207.9938 L 281.8789 207.1232 L 282.0257 206.2510 L 282.1636 205.3775 L 282.2927 204.5025 L 282.4129 203.6263 L 282.5243 202.7490 L 282.6268 201.8705 L 282.7205 200.9911 L 282.8052 200.1108 L 282.8811 199.2296 L 282.9481 198.3477 L 283.0062 197.4652 L 283.0554 196.5822 L 283.0957 195.6987 L 283.1271 194.8149 L 283.1496 193.9308 L 283.1632 193.0465 L 283.1679 192.1621 L 283.1637 191.2777 L 283.1507 190.3934 L 283.1287 189.5092 L 283.0979 188.6254 L 283.0581 187.7418 L 283.0096 186.8588 L 282.9521 185.9762 L 282.8858 185.0943 L 282.8107 184.2131 L 282.7267 183.3327 L 282.6340 182.4532 L 282.5324 181.5746 L 282.4220 180.6971 L 282.3028 179.8208 L 282.1749 178.9457 L 282.0383 178.0719 L 281.8929 177.1995 L 281.7387 176.3286 L 281.5759 175.4594 L 281.4044 174.5917 L 281.2243 173.7259 L 281.0355 172.8618 L 280.8381 171.9997 L 280.6322 171.1397 L 280.4176 170.2817 L 280.1945 169.4259 L 279.9629 168.5723 L 279.7228 167.7211 L 279.4743 166.8724 L 279.2173 166.0261 L 278.9519 165.1825 L 278.6781 164.3415 L 278.3959 163.5033 L 278.1055 162.6680 L 277.8067 161.8356 L 277.4997 161.0061 L 277.1845 160.1798 L 276.8611 159.3567 L 276.5295 158.5368 L 276.1898 157.7202 L 275.8421 156.9070 L 275.4863 156.0974 L 275.1224 155.2913 L 274.7507 154.4888 L 274.3709 153.6901 L 273.9833 152.8951 L 273.5879 152.1040 L 273.1846 151.3169 L 272.7736 150.5338 L 272.3548 149.7549 L 271.9284 148.9800 L 271.4943 148.2095 L 271.0527 147.4433 L 270.6035 146.6814 L 270.1467 145.9241 L 269.6826 145.1712 L 269.2110 144.4230 L 268.7321 143.6795 L 268.2459 142.9408 L 267.7524 142.2068 L 267.2517 141.4778 L 266.7439 140.7537 L 266.2290 140.0347 L 265.7070 139.3208 L 265.1780 138.6120 L 264.6420 137.9085 L 264.0992 137.2103 L 263.5496 136.5174 L 262.9931 135.8300 L 262.4299 135.1481 L 261.8601 134.4717 L 261.2837 133.8010 L 260.7007 133.1359 L 260.1112 132.4766 L 259.5152 131.8232 L 258.9129 131.1756 L 258.3043 130.5339 L 257.6894 129.8982 L 257.0683 129.2686 L 256.4411 128.6450 L 255.8078 128.0277 L 255.1685 127.4166 L 254.5233 126.8117 L 253.8722 126.2132 L 253.2152 125.6211 L 252.5525 125.0354 L 251.8842 124.4562 L 251.2101 123.8836 L 250.5306 123.3176 L 249.8455 122.7583 L 249.1551 122.2056 L 248.4592 121.6597 L 247.7581 121.1206 L 247.0518 120.5884 L 246.3403 120.0631 L 245.6237 119.5447 L 244.9021 119.0334 L 244.1756 118.5290 L 243.4442 118.0318 L 242.7080 117.5417 L 241.9671 117.0588 L 241.2215 116.5831 L 240.4713 116.1147 L 239.7166 115.6536 L 238.9575 115.1998 L 238.1940 114.7535 L 237.4262 114.3145 L 236.6542 113.8830 L 235.8781 113.4591 L 235.0978 113.0426 L 234.3136 112.6338 L 233.5254 112.2326 L 232.7334 111.8390 L 231.9377 111.4531 L 231.1382 111.0749 L 230.3351 110.7045 L 229.5285 110.3419 L 228.7184 109.9870 L 227.9049 109.6401 L 227.0880 109.3010 L 226.2680 108.9698 L 225.4448 108.6465 L 224.6185 108.3312 L 223.7892 108.0239 L 222.9570 107.7246 L 222.1219 107.4333 L 221.2841 107.1501 L 220.4435 106.8750 L 219.6004 106.6080 L 218.7547 106.3492 L 217.9066 106.0984 L 217.0561 105.8559 L 216.2033 105.6216 L 215.3483 105.3954 L 214.4911 105.1775 L 213.6319 104.9679 L 212.7708 104.7665 L 211.9077 104.5734 L 211.0428 104.3886 L 210.1762 104.2121 L 209.3079 104.0439 L 208.4381 103.8841 L 207.5667 103.7326 L 206.6940 103.5895 L 205.8199 103.4548 L 204.9446 103.3284 L 204.0681 103.2104 L 203.1905 103.1009 L 202.3119 102.9997 L 201.4324 102.9070 L 200.5520 102.8226 L 199.6708 102.7467 L 198.7890 102.6792 L 197.9066 102.6202 L 197.0236 102.5695 L 196.1402 102.5274 L 195.2565 102.4936 L 194.3724 102.4683 L 193.4882 102.4514 L 192.6038 102.4430 L 191.7194 102.4430 L 190.8350 102.4514 L 189.9508 102.4683 L 189.0667 102.4935 L 188.1830 102.5272 L 187.2996 102.5694 L 186.4166 102.6199 L 185.5342 102.6788 L 184.6523 102.7461 L 183.7712 102.8218 L 182.8908 102.9059 L 182.0112 102.9983 L 181.1326 103.0991 L 180.2549 103.2082 L 179.3783 103.3257 L 178.5029 103.4514 L 177.6287 103.5855 L 176.7559 103.7278 L 175.8844 103.8785 L 175.0144 104.0373 L 174.1459 104.2045 L 173.2790 104.3798 L 172.4139 104.5633 L 171.5505 104.7551 L 170.6890 104.9550 L 169.8294 105.1630 L 168.9718 105.3791 L 168.1163 105.6034 L 167.2630 105.8357 L 166.4118 106.0761 L 165.5630 106.3245 L 164.7166 106.5809 L 163.8727 106.8454 L 163.0312 107.1177 L 162.1924 107.3980 L 161.3563 107.6862 L 160.5229 107.9822 L 159.6924 108.2861 L 158.8647 108.5978 L 158.0400 108.9173 L 157.2184 109.2446 L 156.3999 109.5796 L 155.5845 109.9222 L 154.7725 110.2726 L 153.9637 110.6305 L 153.1584 110.9960 L 152.3566 111.3691 L 151.5582 111.7497 L 150.7635 112.1378 L 149.9725 112.5334 L 149.1852 112.9363 L 148.4018 113.3466 L 147.6222 113.7643 L 146.8466 114.1892 L 146.0750 114.6215 L 145.3074 115.0609 L 144.5441 115.5075 L 143.7849 115.9612 L 143.0301 116.4220 L 142.2796 116.8899 L 141.5335 117.3648 L 140.7918 117.8466 L 140.0547 118.3354 L 139.3223 118.8310 L 138.5945 119.3335 L 137.8714 119.8427 L 137.1531 120.3587 L 136.4396 120.8813 L 135.7311 121.4106 L 135.0275 121.9465 L 134.3290 122.4889 L 133.6356 123.0379 L 132.9473 123.5932 L 132.2642 124.1550 L 131.5864 124.7231 L 130.9139 125.2975 L 130.2468 125.8782 L 129.5851 126.4650 L 128.9290 127.0580 L 128.2783 127.6570 L 127.6333 128.2621 L 126.9939 128.8731 L 126.3603 129.4901 L 125.7324 130.1129 L 125.1103 130.7416 L 124.4941 131.3760 L 123.8838 132.0161 L 123.2795 132.6618 L 122.6812 133.3131 L 122.0889 133.9699 L 121.5028 134.6322 L 120.9229 135.3000 L 120.3492 135.9730 L 119.7817 136.6514 L 119.2205 137.3349 L 118.6657 138.0237 L 118.1173 138.7175 L 117.5754 139.4164 L 117.0399 140.1203 L 116.5110 140.8292 L 115.9887 141.5428 L 115.4729 142.2613 L 114.9639 142.9845 L 114.4615 143.7124 L 113.9659 144.4449 L 113.4771 145.1819 L 112.9951 145.9235 L 112.5200 146.6694 L 112.0518 147.4197 L 111.5905 148.1743 L 111.1362 148.9331 L 110.6889 149.6961 L 110.2487 150.4631 L 109.8155 151.2342 L 109.3895 152.0092 L 108.9706 152.7881 L 108.5589 153.5709 L 108.1545 154.3574 L 107.7573 155.1476 L 107.3674 155.9414 L 106.9848 156.7388 L 106.6095 157.5396 L 106.2416 158.3439 L 105.8811 159.1515 L 105.5281 159.9624 L 105.1825 160.7765 L 104.8444 161.5937 L 104.5138 162.4140 L 104.1908 163.2373 L 103.8753 164.0635 L 103.5674 164.8926 L 103.2672 165.7245 L 102.9745 166.5591 L 102.6895 167.3963 L 102.4122 168.2361 L 102.1426 169.0784 L 101.8807 169.9232 L 101.6266 170.7703 L 101.3802 171.6197 L 101.1416 172.4713 L 100.9108 173.3250 L 100.6878 174.1809 L 100.4727 175.0387 L 100.2654 175.8985 L 100.0659 176.7601 L 99.8743 177.6235 L 99.6906 178.4886 L 99.5148 179.3554 L 99.3469 180.2237 L 99.1870 181.0935 L 99.0349 181.9648 L 98.8909 182.8373 L 98.7548 183.7112 L 98.6266 184.5863 L 98.5064 185.4625 L 98.3942 186.3397 L 98.2900 187.2180 L 98.1938 188.0972 L 98.1056 188.9771 L 98.0254 189.8579 L 97.9532 190.7394 L 97.8890 191.6214 L 97.8328 192.5041 L 97.7847 193.3872 L 97.7445 194.2707 L 97.7124 195.1545 L 97.6883 196.0386 L 97.6722 196.9228 L 97.6642 197.8072 L 97.6642 198.6916 L 97.6722 199.5760 L 97.6882 200.4602 L 97.7122 201.3443 L 97.7442 202.2281 L 97.7842 203.1116 L 97.8322 203.9947 L 97.8882 204.8774 L 97.9522 205.7595 L 98.0241 206.6409 L 98.1041 207.5217 L 98.1920 208.4017 L 98.2878 209.2809 L 98.3916 210.1592 L 98.5032 211.0366 L 98.6229 211.9129 L 98.7504 212.7880 L 98.8858 213.6620 L 99.0291 214.5347 L 99.1802 215.4061 L 99.3392 216.2761 L 99.5061 217.1446 L 99.6807 218.0116 L 99.8632 218.8770 L 100.0534 219.7407 L 100.2514 220.6027 L 100.4572 221.4628 L 100.6707 222.3211 L 100.8919 223.1774 L 101.1208 224.0316 L 101.3573 224.8838 L 101.6016 225.7338 L 101.8534 226.5816 L 102.1129 227.4271 L 102.3799 228.2702 L 102.6545 229.1109 L 102.9366 229.9491 L 103.2262 230.7848 L 103.5234 231.6178 L 103.8279 232.4481 L 104.1400 233.2756 L 104.4594 234.1003 L 104.7862 234.9222 L 105.1203 235.7410 L 105.4618 236.5568 L 105.8105 237.3696 L 106.1665 238.1792 L 106.5298 238.9855 L 106.9002 239.7886 L 107.2778 240.5884 L 107.6626 241.3847 L 108.0544 242.1776 L 108.4533 242.9669 L 108.8593 243.7526 L 109.2722 244.5347 L 109.6921 245.3131 L 110.1190 246.0877 L 110.5527 246.8584 L 110.9933 247.6252 L 111.4407 248.3881 L 111.8950 249.1470 L 112.3559 249.9018 L 112.8236 250.6524 L 113.2979 251.3989 L 113.7788 252.1411 L 114.2664 252.8789 L 114.7605 253.6125 L 115.2611 254.3415 L 115.7682 255.0662 L 116.2817 255.7862 L 116.8015 256.5017 L 117.3278 257.2125 L 117.8603 257.9186 L 118.3990 258.6200 L 118.9440 259.3165 L 119.4951 260.0082 L 120.0524 260.6950 L 120.6157 261.3768 L 121.1851 262.0535 L 121.7604 262.7252 L 122.3417 263.3918 L 122.9288 264.0532 L 123.5218 264.7093 L 124.1206 265.3602 L 124.7251 266.0057 L 125.3354 266.6459 L 125.9512 267.2806 L 126.5727 267.9099 L 127.1997 268.5336 L 127.8322 269.1518 L 128.4701 269.7644 L 129.1134 270.3713 L 129.7621 270.9724 L 130.4160 271.5678 L 131.0752 272.1575 L 131.7396 272.7412 L 132.4091 273.3191 L 133.0836 273.8911 L 133.7632 274.4571 L 134.4478 275.0170 L 135.1372 275.5709 L 135.8316 276.1187 L 136.5307 276.6604 L 137.2346 277.1959 L 137.9431 277.7251 L 138.6563 278.2481 L 139.3741 278.7648 L 140.0964 279.2752 L 140.8232 279.7792 L 141.5543 280.2767 L 142.2898 280.7679 L 143.0296 281.2525 L 143.7737 281.7306 L 144.5219 282.2021 L 145.2742 282.6671 L 146.0306 283.1254 L 146.7910 283.5771 L 147.5553 284.0221 L 148.3235 284.4603 L 149.0955 284.8918 L 149.8712 285.3165 L 150.6507 285.7344 L 151.4337 286.1455 L 152.2204 286.5496 L 153.0106 286.9469 L 153.8042 287.3372 L 154.6012 287.7205 L 155.4015 288.0969 L 156.2051 288.4662 L 157.0119 288.8285 L 157.8219 289.1837 L 158.6349 289.5318 L 159.4509 289.8728 L 160.2699 290.2067 L 161.0918 290.5333 L 161.9165 290.8528 L 162.7439 291.1651 L 163.5740 291.4701 L 164.4068 291.7679 L 165.2421 292.0584 L 166.0800 292.3415 L 166.9203 292.6174 L 167.7629 292.8859 L 168.6079 293.1471 L 169.4551 293.4009 L 170.3045 293.6473 L 171.1560 293.8863 L 172.0096 294.1178 L 172.8651 294.3420 L 173.7225 294.5586 L 174.5819 294.7678 L 175.4430 294.9696 L 176.3058 295.1638 L 177.1702 295.3505 L 178.0363 295.5296 L 178.9039 295.7013 L 179.7730 295.8654 L 180.6434 296.0219 L 181.5152 296.1709 L 182.3882 296.3123 L 183.2624 296.4461 L 184.1378 296.5724 L 185.0142 296.6910 L 185.8916 296.8020 L 186.7699 296.9054 L 187.6491 297.0012 L 188.5291 297.0894 L 189.4099 297.1699 L 190.2913 297.2428 L 191.1733 297.3081 L 192.0558 297.3657 L 192.9388 297.4157 L 193.8222 297.4581 L 194.7059 297.4928 L 195.5899 297.5199 L 196.4741 297.5393 L 197.3584 297.5510 L 198.2428 297.5552 L 199.1272 297.5516 L 200.0116 297.5405 L 200.8958 297.5217 L 201.7798 297.4953 L 202.6635 297.4612 L 203.5469 297.4196 L 204.4300 297.3703 L 205.3126 297.3134 L 206.1946 297.2489 L 207.0761 297.1767 L 207.9569 297.0970 L 208.8370 297.0097 L 209.7163 296.9148 L 210.5947 296.8124 L 211.4723 296.7024 L 212.3488 296.5849 L 213.2243 296.4598 L 214.0987 296.3272 L 214.9720 296.1870 L 215.8440 296.0394 L 216.7147 295.8843 L 217.5840 295.7217 L 218.4519 295.5516 L 219.3183 295.3741 L 220.1832 295.1892 L 221.0464 294.9968 L 221.9080 294.7970 L 222.7678 294.5899 L 223.6258 294.3754 L 224.4819 294.1535 L 225.3361 293.9243 L 226.1883 293.6878 L 227.0384 293.4440 L 227.8864 293.1929 L 228.7323 292.9346 L 229.5759 292.6690 L 230.4171 292.3962 L 231.2561 292.1162 L 232.0926 291.8291 L 232.9266 291.5348 L 233.7580 291.2334 L 234.5869 290.9249 L 235.4131 290.6093 L 236.2365 290.2867 L 237.0572 289.9570 L 237.8750 289.6204 L 238.6900 289.2768 L 239.5019 288.9262 L 240.3109 288.5687 L 241.1167 288.2043 L 241.9194 287.8331 L 242.7190 287.4550 L 243.5152 287.0702 L 244.3082 286.6785 L 245.0978 286.2802 L 245.8840 285.8750 L 246.6667 285.4633 L 247.4458 285.0448 L 248.2214 284.6198 L 248.9933 284.1882 L 249.7616 283.7500 L 250.5260 283.3053 L 251.2867 282.8541 L 252.0435 282.3964 L 252.7963 281.9324 L 253.5453 281.4619 L 254.2901 280.9851 L 255.0309 280.5020 L 255.7676 280.0127 L 256.5001 279.5170 L 257.2284 279.0152 L 257.9523 278.5073 L 258.6720 277.9932 L 259.3872 277.4730 L 260.0981 276.9468 L 260.8044 276.4145 L 261.5062 275.8763 L 262.2034 275.3322 L 262.8960 274.7822 L 263.5839 274.2263 L 264.2670 273.6647 L 264.9454 273.0972 L 265.6190 272.5241 L 266.2876 271.9453 L 266.9514 271.3608 L 267.6102 270.7707 L 268.2640 270.1751 L 268.9127 269.5740 L 269.5563 268.9675 L 270.1948 268.3555 L 270.8281 267.7381 L 271.4561 267.1154 L 272.0789 266.4875 L 272.6964 265.8543 L 273.3084 265.2159 L 273.9151 264.5724 L 274.5163 263.9238 L 275.1121 263.2701 L 275.7023 262.6115 L 276.2869 261.9478 L 276.8660 261.2793 L 277.4393 260.6060 L 278.0070 259.9278 L 278.5690 259.2449 L 279.1251 258.5572 L 279.6755 257.8650 L 280.2200 257.1681 L 280.7587 256.4666 L 281.2914 255.7607 L 281.8182 255.0503 L 282.3390 254.3354 L 282.8538 253.6163 L 283.3625 252.8928 L 283.8651 252.1651 L 284.3616 251.4332 L 284.8519 250.6972 L 285.3360 249.9570 L 285.8139 249.2129 L 286.2856 248.4647 L 286.7509 247.7127 L 287.2100 246.9567 L 287.6626 246.1969 L 288.1089 245.4334 L 288.5488 244.6661 L 288.9823 243.8952 L 289.4092 243.1207 L 289.8297 242.3426 L 290.2436 241.5611 L 290.6510 240.7761 L 291.0519 239.9877 L 291.4460 239.1960 L 291.8336 238.4011 L 292.2145 237.6029 L 292.5887 236.8016 L 292.9563 235.9971 L 293.3170 235.1897 L 293.6711 234.3792 L 294.0183 233.5658 L 294.3587 232.7495 L 294.6924 231.9305 L 295.0191 231.1087 L 295.3390 230.2841 L 295.6521 229.4570 L 295.9582 228.6272 L 296.2574 227.7950 L 296.5496 226.9602 L 296.8349 226.1231 L 297.1132 225.2836 L 297.3844 224.4418 L 297.6487 223.5978 L 297.9060 222.7517 L 298.1561 221.9034 L 298.3993 221.0531 L 298.6353 220.2007 L 298.8642 219.3465 L 299.0861 218.4903 L 299.3008 217.6324 L 299.5084 216.7727 L 299.7088 215.9113 L 299.9020 215.0483 L 300.0881 214.1836 L 300.2670 213.3175 L 300.4387 212.4499 L 300.6032 211.5810 L 300.7605 210.7107 L 300.9106 209.8391 L 301.0534 208.9663 L 301.1890 208.0923 L 301.3174 207.2173 L 301.4385 206.3412 L 301.5523 205.4642 L 301.6589 204.5862 L 301.7581 203.7074 L 301.8502 202.8278 L 301.9349 201.9474 L 302.0123 201.0664 L 302.0825 200.1848 L 302.1453 199.3026 L 302.2009 198.4200 L 302.2491 197.5369 L 302.2901 196.6534 L 302.3237 195.7697 L 302.3501 194.8856 L 302.3692 194.0014 L 302.3809 193.1171 L 302.3854 192.2327 L 302.3825 191.3483 L 302.3724 190.4640 L 302.3550 189.5797 L 302.3302 188.6957 L 302.2982 187.8118 L 302.2589 186.9283 L 302.2123 186.0451 L 302.1585 185.1624 L 302.0973 184.2801 L 302.0289 183.3983 L 301.9533 182.5171 L 301.8704 181.6366 L 301.7803 180.7568 L 301.6829 179.8778 L 301.5783 178.9996 L 301.4664 178.1223 L 301.3474 177.2459 L 301.2212 176.3706 L 301.0878 175.4963 L 300.9472 174.6231 L 300.7994 173.7512 L 300.6445 172.8804 L 300.4824 172.0110 L 300.3132 171.1429 L 300.1369 170.2763 L 299.9535 169.4111 L 299.7629 168.5474 L 299.5653 167.6854 L 299.3607 166.8250 L 299.1490 165.9663 L 298.9303 165.1094 L 298.7045 164.2542 L 298.4718 163.4010 L 298.2321 162.5497 L 297.9854 161.7004 L 297.7318 160.8531 L 297.4712 160.0080 L 297.2038 159.1650 L 296.9294 158.3242 L 296.6482 157.4857 L 296.3602 156.6495 L 296.0653 155.8157 L 295.7636 154.9844 L 295.4551 154.1555 L 295.1399 153.3292 L 294.8179 152.5054 L 294.4893 151.6844 L 294.1539 150.8660 L 293.8119 150.0504 L 293.4632 149.2377 L 293.1079 148.4278 L 292.7460 147.6208 L 292.3775 146.8168 L 292.0025 146.0158 L 291.6210 145.2179 L 291.2330 144.4232 L 290.8385 143.6316 L 290.4376 142.8433 L 290.0303 142.0583 L 289.6166 141.2766 L 289.1966 140.4983 L 288.7702 139.7234 L 288.3376 138.9521 L 287.8987 138.1842 L 287.4536 137.4200 L 287.0022 136.6594 L 286.5448 135.9026 L 286.0811 135.1494 L 285.6114 134.4001 L 285.1356 133.6545 L 284.6538 132.9129 L 284.1659 132.1752 L 283.6721 131.4415 L 283.1723 130.7119 L 282.6667 129.9863 L 282.1552 129.2648 L 281.6378 128.5475 L 281.1146 127.8344 L 280.5857 127.1256 L 280.0511 126.4211 L 279.5107 125.7209 L 278.9647 125.0252 L 278.4131 124.3339 L 277.8560 123.6471 L 277.2932 122.9648 L 276.7250 122.2871 L 276.1513 121.6140 L 275.5722 120.9455 L 274.9877 120.2818 L 274.3978 119.6228 L 273.8027 118.9686 L 273.2023 118.3193 L 272.5966 117.6748 L 271.9858 117.0352 L 271.3698 116.4006 L 270.7487 115.7710 L 270.1225 115.1464 L 269.4914 114.5269 L 268.8552 113.9125 L 268.2141 113.3032 L 267.5681 112.6992 L 266.9173 112.1003 L 266.2617 111.5068 L 265.6013 110.9185 L 264.9362 110.3356 L 264.2664 109.7581 L 263.5920 109.1859 L 262.9130 108.6192 L 262.2294 108.0580 L 261.5414 107.5024 L 260.8489 106.9522 L 260.1520 106.4077 L 259.4507 105.8688 L 258.7452 105.3355 L 258.0354 104.8080 L 257.3213 104.2861 L 256.6031 103.7700 L 255.8808 103.2597 L 255.1544 102.7553 L 254.4239 102.2566 L 253.6895 101.7639 L 252.9511 101.2770 L 252.2089 100.7961 L 251.4628 100.3212 L 250.7130 99.8523 L 249.9594 99.3894 L 249.2021 98.9325 L 248.4412 98.4818 L 247.6767 98.0371 L 246.9086 97.5986 L 246.1371 97.1663 L 245.3621 96.7402 L 244.5838 96.3202 L 243.8021 95.9066 L 243.0171 95.4992 L 242.2289 95.0981 L 241.4375 94.7033 L 240.6430 94.3148 L 239.8453 93.9327 L 239.0447 93.5570 L 238.2411 93.1878 L 237.4345 92.8249 L 236.6251 92.4685 L 235.8129 92.1186 L 234.9979 91.7752 L 234.1801 91.4383 L 233.3597 91.1079 L 232.5367 90.7841 L 231.7112 90.4669 L 230.8831 90.1562 L 230.0526 89.8522 L 229.2197 89.5548 L 228.3845 89.2641 L 227.5469 88.9801 L 226.7071 88.7027 L 225.8652 88.4320 L 225.0211 88.1680 L 224.1749 87.9108 L 223.3267 87.6603 L 222.4765 87.4165 L 221.6245 87.1796 L 220.7705 86.9494 L 219.9148 86.7260 L 219.0573 86.5095 L 218.1981 86.2997 L 217.3373 86.0968 L 216.4749 85.9008 L 215.6110 85.7116 L 214.7456 85.5293 L 213.8787 85.3538 L 213.0105 85.1853 L 212.1410 85.0236 L 211.2703 84.8689 L 210.3983 84.7210 L 209.5252 84.5801 L 208.6510 84.4462 L 207.7758 84.3191 L 206.8996 84.1990 L 206.0224 84.0859 L 205.1444 83.9797 L 204.2656 83.8804 L 203.3860 83.7882 L 202.5057 83.7029 L 201.6248 83.6245 L 200.7433 83.5532 L 199.8612 83.4888 L 198.9787 83.4314 L 198.0957 83.3810 L 197.2123 83.3376 L 196.3287 83.3012 L 195.4448 83.2717 L 194.5606 83.2493 L 193.6764 83.2338 L 192.7920 83.2253 L 191.9076 83.2238 L 191.0232 83.2293 L 190.1389 83.2418 L 189.2547 83.2613 L 188.3707 83.2877 L 187.4869 83.3211 L 186.6034 83.3615 L 185.7203 83.4088 L 184.8375 83.4631 L 183.9553 83.5244 L 183.0735 83.5926 L 182.1923 83.6678 L 181.3117 83.7499 L 180.4318 83.8390 L 179.5526 83.9349 L 178.6742 84.0378 L 177.7966 84.1476 L 176.9200 84.2643 L 176.0442 84.3879 L 175.1695 84.5184 L 174.2958 84.6558 L 173.4233 84.8000 L 172.5519 84.9511 L 171.6817 85.1090 L 170.8127 85.2738 L 169.9451 85.4454 L 169.0789 85.6238 L 168.2141 85.8090 L 167.3508 86.0010 L 166.4890 86.1997 L 165.6288 86.4053 L 164.7703 86.6175 L 163.9134 86.8365 L 163.0583 87.0622 L 162.2049 87.2946 L 161.3535 87.5337 L 160.5039 87.7794 L 159.6563 88.0318 L 158.8106 88.2909 L 157.9671 88.5565 L 157.1256 88.8288 L 156.2863 89.1076 L 155.4492 89.3930 L 154.6144 89.6849 L 153.7818 89.9834 L 152.9517 90.2884 L 152.1239 90.5998 L 151.2986 90.9177 L 150.4759 91.2421 L 149.6556 91.5729 L 148.8380 91.9101 L 148.0231 92.2536 L 147.2108 92.6035 L 146.4014 92.9598 L 145.5947 93.3224 L 144.7909 93.6912 L 143.9899 94.0663 L 143.1920 94.4477 L 142.3970 94.8352 L 141.6051 95.2290 L 140.8163 95.6289 L 140.0306 96.0350 L 139.2481 96.4471 L 138.4689 96.8654 L 137.6929 97.2897 L 136.9202 97.7201 L 136.1510 98.1564 L 135.3851 98.5988 L 134.6228 99.0470 L 133.8639 99.5013 L 133.1086 99.9614 L 132.3569 100.4273 L 131.6088 100.8991 L 130.8645 101.3767 L 130.1238 101.8601 L 129.3870 102.3492 L 128.6540 102.8440 L 127.9248 103.3445 L 127.1996 103.8507 L 126.4783 104.3625 L 125.7610 104.8799 L 125.0477 105.4028 L 124.3386 105.9312 L 123.6335 106.4651 L 122.9326 107.0045 L 122.2360 107.5493 L 121.5435 108.0995 L 120.8554 108.6551 L 120.1716 109.2160 L 119.4921 109.7821 L 118.8171 110.3535 L 118.1465 110.9301 L 117.4804 111.5119 L 116.8188 112.0989 L 116.1618 112.6909 L 115.5094 113.2880 L 114.8616 113.8902 L 114.2186 114.4973 L 113.5802 115.1094 L 112.9466 115.7264 L 112.3178 116.3483 L 111.6938 116.9751 L 111.0746 117.6066 L 110.4604 118.2429 L 109.8511 118.8840 L 109.2468 119.5297 L 108.6475 120.1801 L 108.0532 120.8351 L 107.4640 121.4946 L 106.8799 122.1587 L 106.3009 122.8273 L 105.7272 123.5003 L 105.1586 124.1777 L 104.5953 124.8595 L 104.0372 125.5457 L 103.4845 126.2361 L 102.9371 126.9307 L 102.3951 127.6296 L 101.8585 128.3326 L 101.3273 129.0397 L 100.8015 129.7509 L 100.2813 130.4661 L 99.7666 131.1853 L 99.2574 131.9084 L 98.7538 132.6354 L 98.2558 133.3663 L 97.7635 134.1010 L 97.2768 134.8395 L 96.7959 135.5817 L 96.3206 136.3275 L 95.8511 137.0770 L 95.3873 137.8301 L 94.9294 138.5867 L 94.4773 139.3468 L 94.0310 140.1104 L 93.5907 140.8773 L 93.1562 141.6477 L 92.7276 142.4213 L 92.3050 143.1982 L 91.8884 143.9783 L 91.4777 144.7616 L 91.0731 145.5481 L 90.6745 146.3376 L 90.2820 147.1301 L 89.8956 147.9256 L 89.5153 148.7241 L 89.1411 149.5254 L 88.7731 150.3296 L 88.4112 151.1366 L 88.0555 151.9463 L 87.7061 152.7588 L 87.3628 153.5739 L 87.0258 154.3916 L 86.6951 155.2118 L 86.3707 156.0345 L 86.0525 156.8597 L 85.7407 157.6874 L 85.4352 158.5173 L 85.1361 159.3496 L 84.8433 160.1842 L 84.5570 161.0209 L 84.2770 161.8599 L 84.0034 162.7009 L 83.7363 163.5440 L 83.4756 164.3891 L 83.2214 165.2362 L 82.9736 166.0852 L 82.7323 166.9360 L 82.4976 167.7887 L 82.2693 168.6432 L 82.0476 169.4993 L 81.8323 170.3571 L 81.6237 171.2166 L 81.4216 172.0776 L 81.2260 172.9401 L 81.0370 173.8041 L 80.8547 174.6695 L 80.6789 175.5362 L 80.5097 176.4043 L 80.3471 177.2736 L 80.1912 178.1442 L 80.0418 179.0159 L 79.8991 179.8887 L 79.7631 180.7626 L 79.6337 181.6375 L 79.5109 182.5133 L 79.3948 183.3901 L 79.2854 184.2677 L 79.1827 185.1461 L 79.0866 186.0253 L 78.9972 186.9052 L 78.9145 187.7857 L 78.8385 188.6668 L 78.7691 189.5485 L 78.7065 190.4307 L 78.6505 191.3134 L 78.6013 192.1964 L 78.5587 193.0798 L 78.5229 193.9635 L 78.4937 194.8474 L 78.4713 195.7315 L 78.4555 196.6158 L 78.4465 197.5001 L 78.4441 198.3845 L 78.4485 199.2689 L 78.4595 200.1533 L 78.4772 201.0375 L 78.5017 201.9216 L 78.5328 202.8054 L 78.5706 203.6890 L 78.6151 204.5723 L 78.6662 205.4552 L 78.7241 206.3378 L 78.7886 207.2198 L 78.8597 208.1014 L 78.9376 208.9823 L 79.0220 209.8627 L 79.1132 210.7424 L 79.2110 211.6214 L 79.3154 212.4996 L 79.4264 213.3770 L 79.5441 214.2536 L 79.6683 215.1292 L 79.7992 216.0039 L 79.9367 216.8775 L 80.0807 217.7501 L 80.2313 218.6216 L 80.3885 219.4919 L 80.5523 220.3611 L 80.7226 221.2289 L 80.8994 222.0955 L 81.0828 222.9607 L 81.2726 223.8244 L 81.4690 224.6868 L 81.6718 225.5476 L 81.8811 226.4069 L 82.0969 227.2646 L 82.3191 228.1206 L 82.5478 228.9749 L 82.7829 229.8275 L 83.0244 230.6783 L 83.2722 231.5273 L 83.5265 232.3744 L 83.7871 233.2195 L 84.0540 234.0627 L 84.3273 234.9038 L 84.6069 235.7428 L 84.8928 236.5798 L 85.1850 237.4145 L 85.4834 238.2471 L 85.7880 239.0773 L 86.0989 239.9053 L 86.4160 240.7309 L 86.7392 241.5541 L 87.0687 242.3749 L 87.4042 243.1932 L 87.7459 244.0089 L 88.0937 244.8221 L 88.4476 245.6326 L 88.8076 246.4404 L 89.1735 247.2456 L 89.5455 248.0479 L 89.9235 248.8475 L 90.3075 249.6442 L 90.6975 250.4380 L 91.0933 251.2289 L 91.4951 252.0167 L 91.9027 252.8016 L 92.3162 253.5834 L 92.7356 254.3621 L 93.1607 255.1376 L 93.5917 255.9099 L 94.0284 256.6790 L 94.4708 257.4447 L 94.9189 258.2072 L 95.3728 258.9663 L 95.8322 259.7220 L 96.2973 260.4742 L 96.7680 261.2230 L 97.2443 261.9682 L 97.7262 262.7098 L 98.2135 263.4478 L 98.7063 264.1822 L 99.2046 264.9128 L 99.7084 265.6398 L 100.2175 266.3629 L 100.7320 267.0823 L 101.2519 267.7978 L 101.7771 268.5094 L 102.3075 269.2170 L 102.8433 269.9207 L 103.3842 270.6204 L 103.9303 271.3160 L 104.4816 272.0076 L 105.0381 272.6950 L 105.5996 273.3783 L 106.1662 274.0574 L 106.7378 274.7322 L 107.3145 275.4028 L 107.8961 276.0690 L 108.4826 276.7310 L 109.0740 277.3885 L 109.6704 278.0417 L 110.2715 278.6903 L 110.8775 279.3346 L 111.4882 279.9742 L 112.1036 280.6094 L 112.7238 281.2399 L 113.3486 281.8658 L 113.9780 282.4871 L 114.6121 283.1037 L 115.2506 283.7156 L 115.8937 284.3227 L 116.5413 284.9250 L 117.1934 285.5226 L 117.8498 286.1152 L 118.5106 286.7030 L 119.1758 287.2859 L 119.8453 287.8638 L 120.5190 288.4368 L 121.1969 289.0047 L 121.8791 289.5676 L 122.5653 290.1255 L 123.2557 290.6783 L 123.9502 291.2259 L 124.6487 291.7684 L 125.3512 292.3057 L 126.0576 292.8378 L 126.7679 293.3646 L 127.4822 293.8862 L 128.2002 294.4025 L 128.9221 294.9135 L 129.6477 295.4191 L 130.3770 295.9193 L 131.1100 296.4142 L 131.8467 296.9036 L 132.5869 297.3876 L 133.3307 297.8661 L 134.0780 298.3391 L 134.8288 298.8066 L 135.5830 299.2685 L 136.3405 299.7249 L 137.1015 300.1756 L 137.8657 300.6207 L 138.6332 301.0602 L 139.4039 301.4940 L 140.1778 301.9221 L 140.9548 302.3445 L 141.7349 302.7612 L 142.5180 303.1721 L 143.3042 303.5773 L 144.0933 303.9766 L 144.8853 304.3701 L 145.6802 304.7578 L 146.4780 305.1396 L 147.2785 305.5156 L 148.0818 305.8856 L 148.8877 306.2498 L 149.6964 306.6080 L 150.5076 306.9602 L 151.3214 307.3065 L 152.1377 307.6467 L 152.9565 307.9810 L 153.7778 308.3093 L 154.6014 308.6315 L 155.4274 308.9476 L 156.2556 309.2577 L 157.0861 309.5617 L 157.9189 309.8596 L 158.7538 310.1514 L 159.5908 310.4370 L 160.4299 310.7165 L 161.2710 310.9899 L 162.1141 311.2570 L 162.9591 311.5180 L 163.8060 311.7728 L 164.6548 312.0213 L 165.5053 312.2637 L 166.3576 312.4998 L 167.2116 312.7296 L 168.0673 312.9532 L 168.9246 313.1705 L 169.7835 313.3816 L 170.6438 313.5863 L 171.5057 313.7848 L 172.3690 313.9769 L 173.2337 314.1628 L 174.0997 314.3423 L 174.9669 314.5154 L 175.8355 314.6822 L 176.7052 314.8427 L 177.5761 314.9968 L 178.4481 315.1445 L 179.3211 315.2859 L 180.1951 315.4209 L 181.0702 315.5495 L 181.9461 315.6717 L 182.8229 315.7875 L 183.7005 315.8969 L 184.5789 315.9999 L 185.4580 316.0965 L 186.3378 316.1867 L 187.2182 316.2704 L 188.0992 316.3478 L 188.9808 316.4187 L 189.8629 316.4832 L 190.7454 316.5412 L 191.6283 316.5929 L 192.5115 316.6381 L 193.3951 316.6768 L 194.2789 316.7092 L 195.1629 316.7350 L 196.0471 316.7545 L 196.9314 316.7675 L 197.8158 316.7741 L 198.7002 316.7743 L 199.5846 316.7680 L 200.4689 316.7553 L 201.3531 316.7361 L 202.2371 316.7106 L 203.1210 316.6786 L 204.0046 316.6401 L 204.8878 316.5953 L 205.7707 316.5441 L 206.6533 316.4864 L 207.5354 316.4223 L 208.4169 316.3518 L 209.2980 316.2750 L 210.1785 316.1917 L 211.0583 316.1021 L 211.9375 316.0060 L 212.8160 315.9036 L 213.6937 315.7949 L 214.5706 315.6797 L 215.4466 315.5583 L 216.3217 315.4304 L 217.1959 315.2962 L 218.0690 315.1557 L 218.9412 315.0089 L 219.8122 314.8558 L 220.6821 314.6963 L 221.5509 314.5306 L 222.4184 314.3586 L 223.2847 314.1803 L 224.1496 313.9957 L 225.0132 313.8049 L 225.8753 313.6079 L 226.7361 313.4046 L 227.5953 313.1951 L 228.4530 312.9794 L 229.3091 312.7575 L 230.1636 312.5294 L 231.0164 312.2951 L 231.8675 312.0547 L 232.7169 311.8082 L 233.5644 311.5555 L 234.4101 311.2967 L 235.2539 311.0318 L 236.0958 310.7608 L 236.9357 310.4838 L 237.7736 310.2007 L 238.6094 309.9115 L 239.4431 309.6164 L 240.2746 309.3152 L 241.1040 309.0081 L 241.9311 308.6949 L 242.7560 308.3759 L 243.5785 308.0509 L 244.3986 307.7199 L 245.2164 307.3831 L 246.0317 307.0404 L 246.8445 306.6918 L 247.6548 306.3374 L 248.4625 305.9772 L 249.2676 305.6111 L 250.0701 305.2393 L 250.8698 304.8617 L 251.6668 304.4784 L 252.4611 304.0893 L 253.2525 303.6945 L 254.0411 303.2941 L 254.8267 302.8880 L 255.6094 302.4763 L 256.3892 302.0589 L 257.1659 301.6360 L 257.9396 301.2075 L 258.7101 300.7734 L 259.4776 300.3338 L 260.2418 299.8888 L 261.0029 299.4382 L 261.7606 298.9822 L 262.5151 298.5208 L 263.2663 298.0540 L 264.0141 297.5818 L 264.7585 297.1042 L 265.4995 296.6213 L 266.2369 296.1331 L 266.9709 295.6397 L 267.7013 295.1410 L 268.4281 294.6371 L 269.1512 294.1280 L 269.8708 293.6137 L 270.5866 293.0943 L 271.2986 292.5697 L 272.0069 292.0401 L 272.7114 291.5054 L 273.4120 290.9657 L 274.1088 290.4210 L 274.8017 289.8714 L 275.4906 289.3167 L 276.1755 288.7572 L 276.8564 288.1928 L 277.5332 287.6235 L 278.2060 287.0495 L 278.8746 286.4706 L 279.5391 285.8869 L 280.1994 285.2986 L 280.8554 284.7055 L 281.5073 284.1077 L 282.1548 283.5054 L 282.7980 282.8984 L 283.4369 282.2868 L 284.0714 281.6707 L 284.7015 281.0500 L 285.3271 280.4249 L 285.9483 279.7954 L 286.5649 279.1614 L 287.1771 278.5231 L 287.7846 277.8804 L 288.3876 277.2334 L 288.9859 276.5821 L 289.5796 275.9266 L 290.1686 275.2668 L 290.7529 274.6029 L 291.3324 273.9348 L 291.9072 273.2627 L 292.4771 272.5864 L 293.0423 271.9061 L 293.6026 271.2218 L 294.1580 270.5335 L 294.7084 269.8413 L 295.2540 269.1452 L 295.7946 268.4453 L 296.3302 267.7415 L 296.8608 267.0339 L 297.3863 266.3226 L 297.9068 265.6076 L 298.4221 264.8888 L 298.9324 264.1665 L 299.4375 263.4405 L 299.9374 262.7109 L 300.4322 261.9779 L 300.9217 261.2413 L 301.4060 260.5013 L 301.8851 259.7578 L 302.3588 259.0110 L 302.8272 258.2608 L 303.2903 257.5074 L 303.7481 256.7506 L 304.2005 255.9907 L 304.6474 255.2275 L 305.0890 254.4612 L 305.5251 253.6918 L 305.9557 252.9194 L 306.3809 252.1439 L 306.8006 251.3654 L 307.2147 250.5839 L 307.6233 249.7995 L 308.0263 249.0123 L 308.4238 248.2222 L 308.8156 247.4294 L 309.2018 246.6337 L 309.5824 245.8354 L 309.9573 245.0344 L 310.3266 244.2308 L 310.6902 243.4245 L 311.0480 242.6158 L 311.4002 241.8045 L 311.7465 240.9907 L 312.0872 240.1746 L 312.4220 239.3560 L 312.7511 238.5351 L 313.0744 237.7119 L 313.3918 236.8864 L 313.7034 236.0587 L 314.0092 235.2288 L 314.3091 234.3968 L 314.6031 233.5627 L 314.8912 232.7265 L 315.1734 231.8884 L 315.4497 231.0482 L 315.7201 230.2062 L 315.9845 229.3622 L 316.2430 228.5164 L 316.4955 227.6688 L 316.7420 226.8195 L 316.9825 225.9684 L 317.2170 225.1156 L 317.4456 224.2613 L 317.6680 223.4053 L 317.8845 222.5478 L 318.0949 221.6888 L 318.2993 220.8283 L 318.4976 219.9664 L 318.6899 219.1032 L 318.8760 218.2386 L 319.0561 217.3727 L 319.2301 216.5056 L 319.3980 215.6372 L 319.5598 214.7678 L 319.7154 213.8972 L 319.8650 213.0255 L 320.0084 212.1528 L 320.1457 211.2791 L 320.2768 210.4045 L 320.4018 209.5289 L 320.5206 208.6525 L 320.6333 207.7754 L 320.7399 206.8974 L 320.8402 206.0187 L 320.9344 205.1393 L 321.0225 204.2593 L 321.1043 203.3787 L 321.1800 202.4975 L 321.2495 201.6158 L 321.3128 200.7337 L 321.3699 199.8511 L 321.4209 198.9682 L 321.4656 198.0849 L 321.5042 197.2014 L 321.5366 196.3175 L 321.5628 195.4335 L 321.5828 194.5493 L 321.5966 193.6650 L 321.6042 192.7807 L 321.6056 191.8963 L 321.6008 191.0119 L 321.5899 190.1275 L 321.5727 189.2433 L 321.5494 188.3592 L 321.5199 187.4753 L 321.4842 186.5916 L 321.4424 185.7082 L 321.3943 184.8251 L 321.3401 183.9423 L 321.2798 183.0600 L 321.2132 182.1781 L 321.1406 181.2967 L 321.0617 180.4158 L 320.9767 179.5355 L 320.8856 178.6558 L 320.7883 177.7767 L 320.6849 176.8984 L 320.5754 176.0208 L 320.4598 175.1440 L 320.3380 174.2680 L 320.2101 173.3929 L 320.0762 172.5187 L 319.9361 171.6454 L 319.7900 170.7732 L 319.6377 169.9019 L 319.4795 169.0318 L 319.3151 168.1628 L 319.1447 167.2950 L 318.9683 166.4283 L 318.7859 165.5630 L 318.5974 164.6989 L 318.4029 163.8361 L 318.2024 162.9747 L 317.9959 162.1148 L 317.7835 161.2562 L 317.5650 160.3992 L 317.3407 159.5438 L 317.1103 158.6899 L 316.8741 157.8376 L 316.6319 156.9870 L 316.3838 156.1381 L 316.1299 155.2909 L 315.8700 154.4456 L 315.6043 153.6020 L 315.3327 152.7603 L 315.0553 151.9206 L 314.7721 151.0827 L 314.4830 150.2469 L 314.1882 149.4131 L 313.8876 148.5813 L 313.5812 147.7517 L 313.2691 146.9242 L 312.9512 146.0989 L 312.6277 145.2758 L 312.2984 144.4550 L 311.9634 143.6364 L 311.6228 142.8203 L 311.2765 142.0065 L 310.9246 141.1951 L 310.5671 140.3861 L 310.2040 139.5797 L 309.8353 138.7758 L 309.4610 137.9745 L 309.0812 137.1758 L 308.6959 136.3797 L 308.3051 135.5864 L 307.9088 134.7957 L 307.5071 134.0078 L 307.0999 133.2227 L 306.6873 132.4404 L 306.2693 131.6611 L 305.8459 130.8846 L 305.4171 130.1111 L 304.9830 129.3405 L 304.5436 128.5730 L 304.0989 127.8085 L 303.6490 127.0471 L 303.1938 126.2889 L 302.7333 125.5338 L 302.2677 124.7819 L 301.7969 124.0332 L 301.3209 123.2878 L 300.8398 122.5457 L 300.3535 121.8069 L 299.8622 121.0716 L 299.3659 120.3396 L 298.8644 119.6110 L 298.3580 118.8860 L 297.8466 118.1644 L 297.3302 117.4464 L 296.8089 116.7320 L 296.2827 116.0212 L 295.7516 115.3140 L 295.2156 114.6105 L 294.6748 113.9107 L 294.1292 113.2146 L 293.5789 112.5223 L 293.0237 111.8339 L 292.4639 111.1492 L 291.8993 110.4685 L 291.3300 109.7916 L 290.7562 109.1187 L 290.1777 108.4497 L 289.5946 107.7847 L 289.0070 107.1238 L 288.4148 106.4669 L 287.8181 105.8141 L 287.2170 105.1654 L 286.6114 104.5208 L 286.0014 103.8805 L 285.3870 103.2443 L 284.7682 102.6124 L 284.1451 101.9847 L 283.5178 101.3614 L 282.8861 100.7423 L 282.2503 100.1276 L 281.6102 99.5173 L 280.9659 98.9114 L 280.3176 98.3099 L 279.6651 97.7129 L 279.0085 97.1204 L 278.3479 96.5324 L 277.6832 95.9489 L 277.0146 95.3700 L 276.3420 94.7958 L 275.6655 94.2261 L 274.9851 93.6611 L 274.3009 93.1007 L 273.6128 92.5451 L 272.9209 91.9942 L 272.2253 91.4480 L 271.5260 90.9066 L 270.8230 90.3700 L 270.1163 89.8382 L 269.4060 89.3113 L 268.6921 88.7893 L 267.9746 88.2721 L 267.2537 87.7599 L 266.5292 87.2526 L 265.8013 86.7503 L 265.0700 86.2530 L 264.3353 85.7606 L 263.5972 85.2733 L 262.8558 84.7911 L 262.1112 84.3140 L 261.3633 83.8419 L 260.6122 83.3749 L 259.8579 82.9131 L 259.1005 82.4565 L 258.3400 82.0051 L 257.5765 81.5588 L 256.8099 81.1178 L 256.0403 80.6820 L 255.2677 80.2515 L 254.4923 79.8262 L 253.7139 79.4062 L 252.9327 78.9916 L 252.1487 78.5823 L 251.3620 78.1784 L 250.5725 77.7798 L 249.7803 77.3866 L 248.9854 76.9988 L 248.1879 76.6165 L 247.3878 76.2396 L 246.5852 75.8681 L 245.7801 75.5022 L 244.9725 75.1417 L 244.1624 74.7867 L 243.3500 74.4372 L 242.5352 74.0933 L 241.7181 73.7549 L 240.8987 73.4221 L 240.0770 73.0949 L 239.2532 72.7733 L 238.4272 72.4573 L 237.5990 72.1469 L 236.7688 71.8421 L 235.9365 71.5430 L 235.1022 71.2496 L 234.2659 70.9618 L 233.4277 70.6797 L 232.5876 70.4033 L 231.7456 70.1327 L 230.9018 69.8677 L 230.0562 69.6085 L 229.2089 69.3550 L 228.3599 69.1073 L 227.5092 68.8654 L 226.6569 68.6292 L 225.8031 68.3988 L 224.9477 68.1742 L 224.0907 67.9555 L 223.2323 67.7425 L 222.3725 67.5354 L 221.5113 67.3341 L 220.6488 67.1386 L 219.7850 66.9490 L 218.9199 66.7652 L 218.0535 66.5873 L 217.1860 66.4153 L 216.3173 66.2492 L 215.4476 66.0889 L 214.5767 65.9345 L 213.7049 65.7861 L 212.8321 65.6435 L 211.9583 65.5068 L 211.0836 65.3761 L 210.2080 65.2513 L 209.3316 65.1324 L 208.4545 65.0194 L 207.5766 64.9124 L 206.6980 64.8113 L 205.8187 64.7161 L 204.9388 64.6269 L 204.0583 64.5436 L 203.1773 64.4663 L 202.2958 64.3950 L 201.4138 64.3296 L 200.5314 64.2701 L 199.6486 64.2166 L 198.7654 64.1691 L 197.8820 64.1275 L 196.9983 64.0919 L 196.1144 64.0622 L 195.2303 64.0386 L 194.3461 64.0208 L 193.4618 64.0091 L 192.5774 64.0033 L 191.6930 64.0035 L 190.8086 64.0096 L 189.9243 64.0217 L 189.0400 64.0397 L 188.1560 64.0637 L 187.2721 64.0937 L 186.3884 64.1296 L 185.5050 64.1715 L 184.6218 64.2193 L 183.7391 64.2731 L 182.8567 64.3328 L 181.9747 64.3984 L 181.0932 64.4700 L 180.2122 64.5475 L 179.3317 64.6309 L 178.4518 64.7202 L 177.5726 64.8155 L 176.6940 64.9167 L 175.8161 65.0237 L 174.9389 65.1367 L 174.0625 65.2556 L 173.1870 65.3803 L 172.3123 65.5110 L 171.4384 65.6474 L 170.5656 65.7898 L 169.6937 65.9381 L 168.8228 66.0921 L 167.9530 66.2521 L 167.0842 66.4178 L 166.2166 66.5894 L 165.3502 66.7668 L 164.4850 66.9500 L 163.6210 67.1390 L 162.7583 67.3338 L 161.8969 67.5344 L 161.0369 67.7407 L 160.1783 67.9529 L 159.3212 68.1707 L 158.4655 68.3943 L 157.6114 68.6237 L 156.7588 68.8587 L 155.9078 69.0995 L 155.0584 69.3459 L 154.2107 69.5981 L 153.3647 69.8559 L 152.5204 70.1193 L 151.6779 70.3884 L 150.8373 70.6632 L 149.9985 70.9435 L 149.1616 71.2295 L 148.3266 71.5210 L 147.4936 71.8182 L 146.6626 72.1209 L 145.8337 72.4291 L 145.0068 72.7429 L 144.1821 73.0622 L 143.3594 73.3870 L 142.5390 73.7173 L 141.7208 74.0531 L 140.9049 74.3943 L 140.0913 74.7410 L 139.2800 75.0931 L 138.4710 75.4506 L 137.6645 75.8135 L 136.8604 76.1817 L 136.0588 76.5554 L 135.2597 76.9343 L 134.4632 77.3186 L 133.6692 77.7082 L 132.8779 78.1031 L 132.0892 78.5033 L 131.3031 78.9087 L 130.5198 79.3193 L 129.7393 79.7352 L 128.9615 80.1562 L 128.1866 80.5824 L 127.4145 81.0138 L 126.6453 81.4503 L 125.8791 81.8919 L 125.1158 82.3386 L 124.3555 82.7904 L 123.5982 83.2472 L 122.8440 83.7091 L 122.0928 84.1760 L 121.3448 84.6478 L 120.6000 85.1247 L 119.8583 85.6064 L 119.1198 86.0931 L 118.3846 86.5847 L 117.6527 87.0812 L 116.9241 87.5825 L 116.1989 88.0887 L 115.4770 88.5997 L 114.7586 89.1154 L 114.0436 89.6360 L 113.3320 90.1612 L 112.6240 90.6912 L 111.9195 91.2258 L 111.2186 91.7652 L 110.5213 92.3091 L 109.8275 92.8577 L 109.1375 93.4109 L 108.4511 93.9687 L 107.7685 94.5309 L 107.0896 95.0977 L 106.4144 95.6690 L 105.7431 96.2448 L 105.0756 96.8250 L 104.4120 97.4096 L 103.7523 97.9986 L 103.0964 98.5920 L 102.4446 99.1897 L 101.7967 99.7917 L 101.1528 100.3979 L 100.5129 101.0085 L 99.8771 101.6232 L 99.2454 102.2422 L 98.6177 102.8653 L 97.9943 103.4925 L 97.3750 104.1239 L 96.7598 104.7594 L 96.1489 105.3989 L 95.5423 106.0424 L 94.9399 106.6900 L 94.3418 107.3415 L 93.7480 107.9969 L 93.1586 108.6563 L 92.5736 109.3196 L 91.9929 109.9867 L 91.4167 110.6576 L 90.8449 111.3323 L 90.2776 112.0108 L 89.7148 112.6930 L 89.1565 113.3789 L 88.6027 114.0685 L 88.0535 114.7617 L 87.5089 115.4586 L 86.9689 116.1590 L 86.4336 116.8630 L 85.9029 117.5704 L 85.3769 118.2814 L 84.8555 118.9958 L 84.3390 119.7137 L 83.8271 120.4349 L 83.3200 121.1595 L 82.8177 121.8875 L 82.3202 122.6187 L 81.8276 123.3532 L 81.3398 124.0909 L 80.8569 124.8318 L 80.3788 125.5759 L 79.9057 126.3231 L 79.4375 127.0734 L 78.9743 127.8268 L 78.5160 128.5832 L 78.0627 129.3426 L 77.6144 130.1050 L 77.1712 130.8703 L 76.7330 131.6385 L 76.2998 132.4096 L 75.8718 133.1835 L 75.4488 133.9602 L 75.0310 134.7397 L 74.6183 135.5219 L 74.2107 136.3068 L 73.8083 137.0944 L 73.4111 137.8846 L 73.0191 138.6774 L 72.6324 139.4727 L 72.2508 140.2706 L 71.8745 141.0710 L 71.5035 141.8738 L 71.1377 142.6790 L 70.7772 143.4866 L 70.4221 144.2966 L 70.0723 145.1089 L 69.7278 145.9234 L 69.3886 146.7402 L 69.0549 147.5592 L 68.7265 148.3804 L 68.4035 149.2037 L 68.0859 150.0292 L 67.7737 150.8566 L 67.4670 151.6862 L 67.1657 152.5176 L 66.8698 153.3511 L 66.5794 154.1865 L 66.2946 155.0238 L 66.0152 155.8629 L 65.7413 156.7038 L 65.4729 157.5465 L 65.2100 158.3909 L 64.9527 159.2371 L 64.7009 160.0849 L 64.4547 160.9343 L 64.2140 161.7854 L 63.9789 162.6380 L 63.7494 163.4921 L 63.5255 164.3477 L 63.3072 165.2047 L 63.0944 166.0631 L 62.8874 166.9230 L 62.6859 167.7841 L 62.4901 168.6466 L 62.2999 169.5103 L 62.1153 170.3752 L 61.9364 171.2414 L 61.7632 172.1086 L 61.5956 172.9770 L 61.4338 173.8465 L 61.2775 174.7170 L 61.1270 175.5885 L 60.9822 176.4610 L 60.8431 177.3344 L 60.7097 178.2087 L 60.5819 179.0838 L 60.4599 179.9597 L 60.3437 180.8365 L 60.2331 181.7139 L 60.1282 182.5921 L 60.0291 183.4709 L 59.9357 184.3504 L 59.8481 185.2305 L 59.7662 186.1111 L 59.6900 186.9922 L 59.6196 187.8738 L 59.5549 188.7558 L 59.4959 189.6383 L 59.4428 190.5211 L 59.3953 191.4042 L 59.3536 192.2876 L 59.3177 193.1713 L 59.2875 194.0552 L 59.2631 194.9393 L 59.2444 195.8235 L 59.2314 196.7078 L 59.2243 197.5922 L 59.2228 198.4766 L 59.2272 199.3610 L 59.2372 200.2453 L 59.2531 201.1296 L 59.2746 202.0138 L 59.3020 202.8977 L 59.3350 203.7815 L 59.3738 204.6651 L 59.4184 205.5484 L 59.4687 206.4314 L 59.5247 207.3140 L 59.5864 208.1962 L 59.6539 209.0781 L 59.7271 209.9594 L 59.8060 210.8403 L 59.8906 211.7207 L 59.9809 212.6005 L 60.0770 213.4796 L 60.1787 214.3582 L 60.2862 215.2360 L 60.3993 216.1132 L 60.5181 216.9896 L 60.6426 217.8652 L 60.7728 218.7399 L 60.9086 219.6139 L 61.0501 220.4869 L 61.1972 221.3590 L 61.3500 222.2301 L 61.5085 223.1002 L 61.6725 223.9692 L 61.8422 224.8372 L 62.0175 225.7041 L 62.1985 226.5698 L 62.3850 227.4343 L 62.5771 228.2976 L 62.7748 229.1596 L 62.9780 230.0203 L 63.1868 230.8797 L 63.4012 231.7378 L 63.6211 232.5944 L 63.8466 233.4496 L 64.0776 234.3033 L 64.3141 235.1555 L 64.5561 236.0062 L 64.8036 236.8552 L 65.0565 237.7027 L 65.3150 238.5485 L 65.5789 239.3926 L 65.8482 240.2350 L 66.1230 241.0757 L 66.4032 241.9145 L 66.6888 242.7515 L 66.9798 243.5867 L 67.2762 244.4199 L 67.5779 245.2513 L 67.8851 246.0807 L 68.1975 246.9080 L 68.5153 247.7334 L 68.8384 248.5566 L 69.1668 249.3778 L 69.5005 250.1968 L 69.8395 251.0137 L 70.1837 251.8284 L 70.5332 252.6408 L 70.8879 253.4510 L 71.2478 254.2588 L 71.6130 255.0644 L 71.9832 255.8675 L 72.3587 256.6683 L 72.7393 257.4666 L 73.1250 258.2625 L 73.5159 259.0558 L 73.9118 259.8466 L 74.3129 260.6349 L 74.7190 261.4206 L 75.1301 262.2036 L 75.5463 262.9840 L 75.9675 263.7616 L 76.3936 264.5366 L 76.8248 265.3088 L 77.2609 266.0782 L 77.7019 266.8448 L 78.1479 267.6085 L 78.5987 268.3694 L 79.0545 269.1273 L 79.5151 269.8823 L 79.9805 270.6344 L 80.4508 271.3834 L 80.9258 272.1294 L 81.4057 272.8723 L 81.8902 273.6121 L 82.3796 274.3488 L 82.8736 275.0824 L 83.3724 275.8127 L 83.8758 276.5399 L 84.3839 277.2638 L 84.8966 277.9844 L 85.4139 278.7017 L 85.9358 279.4157 L 86.4623 280.1264 L 86.9934 280.8336 L 87.5289 281.5374 L 88.0690 282.2378 L 88.6135 282.9347 L 89.1625 283.6281 L 89.7159 284.3180 L 90.2737 285.0043 L 90.8359 285.6870 L 91.4024 286.3661 L 91.9733 287.0416 L 92.5486 287.7134 L 93.1280 288.3815 L 93.7118 289.0458 L 94.2998 289.7065 L 94.8920 290.3633 L 95.4884 291.0164 L 96.0890 291.6656 L 96.6937 292.3110 L 97.3025 292.9525 L 97.9154 293.5901 L 98.5324 294.2237 L 99.1534 294.8534 L 99.7785 295.4791 L 100.4075 296.1008 L 101.0404 296.7185 L 101.6773 297.3321 L 102.3182 297.9417 L 102.9628 298.5471 L 103.6114 299.1484 L 104.2638 299.7456 L 104.9199 300.3386 L 105.5798 300.9274 L 106.2435 301.5119 L 106.9109 302.0922 L 107.5820 302.6683 L 108.2568 303.2400 L 108.9351 303.8074 L 109.6171 304.3705 L 110.3027 304.9292 L 110.9918 305.4836 L 111.6844 306.0336 L 112.3806 306.5791 L 113.0801 307.1201 L 113.7832 307.6568 L 114.4896 308.1889 L 115.1994 308.7165 L 115.9125 309.2395 L 116.6290 309.7581 L 117.3487 310.2720 L 118.0717 310.7814 L 118.7980 311.2861 L 119.5274 311.7862 L 120.2600 312.2817 L 120.9957 312.7725 L 121.7346 313.2586 L 122.4765 313.7400 L 123.2214 314.2166 L 123.9694 314.6885 L 124.7204 315.1557 L 125.4743 315.6180 L 126.2312 316.0756 L 126.9909 316.5283 L 127.7535 316.9762 L 128.5189 317.4193 L 129.2872 317.8575 L 130.0582 318.2907 L 130.8319 318.7191 L 131.6083 319.1426 L 132.3875 319.5611 L 133.1692 319.9747 L 133.9536 320.3833 L 134.7405 320.7869 L 135.5300 321.1855 L 136.3220 321.5791 L 137.1165 321.9676 L 137.9134 322.3511 L 138.7128 322.7296 L 139.5145 323.1030 L 140.3186 323.4712 L 141.1250 323.8344 L 141.9337 324.1925 L 142.7446 324.5454 L 143.5578 324.8932 L 144.3731 325.2358 L 145.1906 325.5732 L 146.0102 325.9055 L 146.8320 326.2325 L 147.6557 326.5544 L 148.4815 326.8710 L 149.3093 327.1824 L 150.1390 327.4886 L 150.9707 327.7895 L 151.8042 328.0851 L 152.6396 328.3754 L 153.4768 328.6605 L 154.3158 328.9402 L 155.1566 329.2146 L 155.9990 329.4838 L 156.8432 329.7476 L 157.6890 330.0060 L 158.5364 330.2591 L 159.3854 330.5068 L 160.2360 330.7491 L 161.0880 330.9861 L 161.9416 331.2177 L 162.7966 331.4439 L 163.6530 331.6647 L 164.5108 331.8801 L 165.3699 332.0900 L 166.2303 332.2945 L 167.0920 332.4936 L 167.9550 332.6873 L 168.8191 332.8755 L 169.6845 333.0582 L 170.5509 333.2355 L 171.4185 333.4073 L 172.2871 333.5736 L 173.1568 333.7345 L 174.0274 333.8898 L 174.8990 334.0397 L 175.7716 334.1841 L 176.6450 334.3229 L 177.5193 334.4563 L 178.3944 334.5842 L 179.2703 334.7065 L 180.1470 334.8233 L 181.0244 334.9346 L 181.9024 335.0403 L 182.7812 335.1406 L 183.6605 335.2353 L 184.5404 335.3244 L 185.4208 335.4080 L 186.3018 335.4861 L 187.1832 335.5586 L 188.0651 335.6256 L 188.9474 335.6871 L 189.8300 335.7429 L 190.7130 335.7933 L 191.5962 335.8380 L 192.4798 335.8773 L 193.3635 335.9109 L 194.2475 335.9390 L 195.1316 335.9616 L 196.0159 335.9786 L 196.9002 335.9900 L 197.7846 335.9959 L 198.6690 335.9962 L 199.5534 335.9910 L 200.4377 335.9802 L 201.3220 335.9639 L 202.2061 335.9420 L 203.0901 335.9146 L 203.9739 335.8816 L 204.8575 335.8431 L 205.7408 335.7990 L 206.6238 335.7494 L 207.5065 335.6942 L 208.3888 335.6335 L 209.2707 335.5673 L 210.1522 335.4956 L 211.0333 335.4183 L 211.9138 335.3355 L 212.7938 335.2472 L 213.6732 335.1534 L 214.5520 335.0540 L 215.4302 334.9492 L 216.3077 334.8389 L 217.1845 334.7230 L 218.0605 334.6017 L 218.9358 334.4749 L 219.8102 334.3426 L 220.6839 334.2049 L 221.5566 334.0617 L 222.4284 333.9130 L 223.2993 333.7589 L 224.1692 333.5993 L 225.0381 333.4343 L 225.9059 333.2638 L 226.7726 333.0879 L 227.6383 332.9067 L 228.5027 332.7200 L 229.3660 332.5279 L 230.2281 332.3304 L 231.0889 332.1275 L 231.9485 331.9192 L 232.8067 331.7056 L 233.6636 331.4867 L 234.5191 331.2623 L 235.3731 331.0327 L 236.2257 330.7977 L 237.0769 330.5574 L 237.9265 330.3118 L 238.7746 330.0608 L 239.6210 329.8046 L 240.4659 329.5431 L 241.3091 329.2764 L 242.1507 329.0044 L 242.9905 328.7271 L 243.8286 328.4446 L 244.6649 328.1569 L 245.4994 327.8640 L 246.3320 327.5659 L 247.1628 327.2626 L 247.9917 326.9541 L 248.8186 326.6405 L 249.6436 326.3217 L 250.4665 325.9978 L 251.2874 325.6688 L 252.1063 325.3346 L 252.9231 324.9954 L 253.7377 324.6511 L 254.5502 324.3017 L 255.3604 323.9473 L 256.1685 323.5878 L 256.9743 323.2233 L 257.7778 322.8538 L 258.5790 322.4793 L 259.3779 322.0999 L 260.1744 321.7154 L 260.9685 321.3260 L 261.7601 320.9317 L 262.5493 320.5325 L 263.3360 320.1284 L 264.1201 319.7194 L 264.9017 319.3055 L 265.6807 318.8868 L 266.4571 318.4632 L 267.2309 318.0349 L 268.0019 317.6017 L 268.7703 317.1637 L 269.5359 316.7210 L 270.2988 316.2736 L 271.0588 315.8214 L 271.8161 315.3645 L 272.5705 314.9029 L 273.3220 314.4366 L 274.0706 313.9657 L 274.8163 313.4902 L 275.5590 313.0100 L 276.2987 312.5252 L 277.0354 312.0359 L 277.7690 311.5420 L 278.4996 311.0435 L 279.2271 310.5406 L 279.9514 310.0331 L 280.6726 309.5212 L 281.3906 309.0047 L 282.1053 308.4839 L 282.8169 307.9586 L 283.5251 307.4290 L 284.2301 306.8949 L 284.9317 306.3565 L 285.6300 305.8138 L 286.3250 305.2668 L 287.0165 304.7154 L 287.7046 304.1598 L 288.3892 303.6000 L 289.0704 303.0359 L 289.7481 302.4676 L 290.4222 301.8951 L 291.0928 301.3185 L 291.7598 300.7377 L 292.4232 300.1529 L 293.0830 299.5639 L 293.7391 298.9709 L 294.3915 298.3738 L 295.0402 297.7727 L 295.6852 297.1676 L 296.3265 296.5585 L 296.9640 295.9455 L 297.5977 295.3285 L 298.2275 294.7077 L 298.8535 294.0830 L 299.4757 293.4544 L 300.0939 292.8219 L 300.7082 292.1857 L 301.3186 291.5457 L 301.9251 290.9020 L 302.5275 290.2545 L 303.1260 289.6033 L 303.7204 288.9484 L 304.3107 288.2899 L 304.8970 287.6277 L 305.4792 286.9620 L 306.0573 286.2927 L 306.6312 285.6198 L 307.2010 284.9434 L 307.7666 284.2634 L 308.3280 283.5801 L 308.8851 282.8932 L 309.4381 282.2030 L 309.9867 281.5093 L 310.5311 280.8123 L 311.0712 280.1120 L 311.6070 279.4083 L 312.1384 278.7014 L 312.6654 277.9911 L 313.1881 277.2777 L 313.7064 276.5611 L 314.2202 275.8412 L 314.7296 275.1183 L 315.2346 274.3922 L 315.7350 273.6630 L 316.2310 272.9308 L 316.7225 272.1955 L 317.2094 271.4572 L 317.6918 270.7159 L 318.1696 269.9717 L 318.6429 269.2246 L 319.1115 268.4745 L 319.5755 267.7216 L 320.0349 266.9659 L 320.4896 266.2073 L 320.9397 265.4460 L 321.3851 264.6819 L 321.8257 263.9151 L 322.2617 263.1456 L 322.6929 262.3735 L 323.1194 261.5987 L 323.5411 260.8213 L 323.9580 260.0413 L 324.3702 259.2588 L 324.7775 258.4738 L 325.1800 257.6863 L 325.5777 256.8963 L 325.9705 256.1039 L 326.3584 255.3092 L 326.7415 254.5120 L 327.1197 253.7125 L 327.4929 252.9108 L 327.8613 252.1067 L 328.2247 251.3004 L 328.5832 250.4919 L 328.9367 249.6812 L 329.2852 248.8684 L 329.6287 248.0534 L 329.9673 247.2364 L 330.3008 246.4173 L 330.6293 245.5961 L 330.9528 244.7730 L 331.2712 243.9479 L 331.5846 243.1209 L 331.8929 242.2919 L 332.1961 241.4612 L 332.4943 240.6285 L 332.7873 239.7941 L 333.0753 238.9578 L 333.3581 238.1199 L 333.6357 237.2802 L 333.9083 236.4388 L 334.1757 235.5958 L 334.4379 234.7512 L 334.6950 233.9049 L 334.9469 233.0572 L 335.1936 232.2079 L 335.4351 231.3571 L 335.6714 230.5048 L 335.9025 229.6511 L 336.1284 228.7961 L 336.3491 227.9396 L 336.5645 227.0818 L 336.7747 226.2228 L 336.9796 225.3624 L 337.1793 224.5009 L 337.3737 223.6381 L 337.5629 222.7741 L 337.7467 221.9091 L 337.9253 221.0429 L 338.0986 220.1756 L 338.2667 219.3073 L 338.4294 218.4380 L 338.5868 217.5677 L 338.7389 216.6965 L 338.8857 215.8243 L 339.0272 214.9513 L 339.1633 214.0775 L 339.2942 213.2028 L 339.4196 212.3273 L 339.5398 211.4511 L 339.6546 210.5742 L 339.7641 209.6966 L 339.8682 208.8183 L 339.9670 207.9395 L 340.0604 207.0600 L 340.1485 206.1800 L 340.2312 205.2995 L 340.3086 204.4184 L 340.3806 203.5370 L 340.4472 202.6551 L 340.5085 201.7728 L 340.5644 200.8901 L 340.6149 200.0072 L 340.6601 199.1239 L 340.6999 198.2404 L 340.7343 197.3567 L 340.7633 196.4727 L 340.7870 195.5886 L 340.8053 194.7044 L 340.8182 193.8201 L 340.8258 192.9357 L 340.8279 192.0513 L 340.8247 191.1669 L 340.8162 190.2826 L 340.8022 189.3983 L 340.7829 188.5141 L 340.7583 187.6300 L 340.7282 186.7461 L 340.6928 185.8624 L 340.6521 184.9789 L 340.6060 184.0957 L 340.5545 183.2128 L 340.4977 182.3302 L 340.4355 181.4480 L 340.3679 180.5662 L 340.2951 179.6848 L 340.2168 178.8039 L 340.1333 177.9234 L 340.0444 177.0435 L 339.9501 176.1641 L 339.8506 175.2853 L 339.7457 174.4071 L 339.6355 173.5296 L 339.5200 172.6528 L 339.3992 171.7767 L 339.2731 170.9013 L 339.1416 170.0267 L 339.0049 169.1529 L 338.8629 168.2800 L 338.7156 167.4079 L 338.5631 166.5368 L 338.4053 165.6666 L 338.2422 164.7973 L 338.0738 163.9291 L 337.9002 163.0619 L 337.7214 162.1958 L 337.5373 161.3307 L 337.3480 160.4668 L 337.1535 159.6041 L 336.9538 158.7425 L 336.7488 157.8822 L 336.5387 157.0231 L 336.3234 156.1653 L 336.1029 155.3088 L 335.8772 154.4537 L 335.6464 153.5999 L 335.4104 152.7476 L 335.1693 151.8967 L 334.9230 151.0472 L 334.6717 150.1993 L 334.4152 149.3529 L 334.1536 148.5081 L 333.8869 147.6648 L 333.6151 146.8232 L 333.3382 145.9833 L 333.0563 145.1450 L 332.7694 144.3084 L 332.4774 143.4736 L 332.1803 142.6406 L 331.8783 141.8093 L 331.5712 140.9800 L 331.2592 140.1524 L 330.9421 139.3268 L 330.6201 138.5031 L 330.2932 137.6813 L 329.9612 136.8616 L 329.6244 136.0438 L 329.2826 135.2281 L 328.9360 134.4145 L 328.5844 133.6030 L 328.2280 132.7936 L 327.8666 131.9863 L 327.5005 131.1813 L 327.1295 130.3784 L 326.7536 129.5779 L 326.3730 128.7796 L 325.9876 127.9836 L 325.5974 127.1899 L 325.2024 126.3986 L 324.8026 125.6097 L 324.3982 124.8232 L 323.9890 124.0391 L 323.5751 123.2575 L 323.1565 122.4785 L 322.7332 121.7019 L 322.3053 120.9279 L 321.8727 120.1565 L 321.4355 119.3878 L 320.9937 118.6216 L 320.5473 117.8581 L 320.0963 117.0974 L 319.6407 116.3393 L 319.1806 115.5840 L 318.7160 114.8315 L 318.2469 114.0817 L 317.7732 113.3348 L 317.2951 112.5908 L 316.8126 111.8496 L 316.3256 111.1114 L 315.8342 110.3760 L 315.3384 109.6437 L 314.8382 108.9143 L 314.3336 108.1880 L 313.8247 107.4647 L 313.3115 106.7444 L 312.7939 106.0272 L 312.2721 105.3132 L 311.7460 104.6023 L 311.2156 103.8945 L 310.6810 103.1900 L 310.1422 102.4887 L 309.5992 101.7906 L 309.0521 101.0957 L 308.5007 100.4042 L 307.9453 99.7160 L 307.3857 99.0311 L 306.8221 98.3496 L 306.2544 97.6714 L 305.6826 96.9967 L 305.1068 96.3254 L 304.5270 95.6576 L 303.9432 94.9932 L 303.3554 94.3324 L 302.7637 93.6751 L 302.1681 93.0213 L 301.5686 92.3711 L 300.9652 91.7245 L 300.3579 91.0815 L 299.7468 90.4422 L 299.1319 89.8065 L 298.5133 89.1745 L 297.8908 88.5462 L 297.2646 87.9217 L 296.6347 87.3009 L 296.0011 86.6839 L 295.3638 86.0706 L 294.7229 85.4612 L 294.0783 84.8557 L 293.4301 84.2540 L 292.7784 83.6561 L 292.1231 83.0622 L 291.4642 82.4722 L 290.8019 81.8861 L 290.1361 81.3040 L 289.4668 80.7259 L 288.7940 80.1518 L 288.1179 79.5817 L 287.4383 79.0156 L 286.7555 78.4537 L 286.0692 77.8958 L 285.3797 77.3420 L 284.6868 76.7923 L 283.9907 76.2467 L 283.2914 75.7054 L 282.5888 75.1681 L 281.8831 74.6351 L 281.1742 74.1063 L 280.4621 73.5818 L 279.7469 73.0615 L 279.0287 72.5454 L 278.3074 72.0337 L 277.5831 71.5262 L 276.8557 71.0231 L 276.1254 70.5243 L 275.3921 70.0298 L 274.6559 69.5398 L 273.9168 69.0541 L 273.1748 68.5728 L 272.4299 68.0960 L 271.6823 67.6236 L 270.9318 67.1556 L 270.1786 66.6921 L 269.4226 66.2331 L 268.6639 65.7786 L 267.9025 65.3287 L 267.1385 64.8832 L 266.3718 64.4423 L 265.6025 64.0060 L 264.8306 63.5743 L 264.0562 63.1471 L 263.2793 62.7245 L 262.4999 62.3066 L 261.7180 61.8933 L 260.9336 61.4847 L 260.1469 61.0807 L 259.3577 60.6814 L 258.5662 60.2868 L 257.7724 59.8969 L 256.9763 59.5117 L 256.1779 59.1313 L 255.3773 58.7556 L 254.5744 58.3846 L 253.7694 58.0184 L 252.9622 57.6570 L 252.1528 57.3004 L 251.3414 56.9486 L 250.5279 56.6016 L 249.7124 56.2595 L 248.8948 55.9221 L 248.0753 55.5897 L 247.2538 55.2621 L 246.4304 54.9393 L 245.6051 54.6215 L 244.7779 54.3085 L 243.9488 54.0005 L 243.1180 53.6973 L 242.2854 53.3991 L 241.4510 53.1059 L 240.6149 52.8175 L 239.7771 52.5342 L 238.9377 52.2557 L 238.0966 51.9823 L 237.2540 51.7138 L 236.4097 51.4504 L 235.5639 51.1919 L 234.7166 50.9385 L 233.8678 50.6900 L 233.0175 50.4466 L 232.1659 50.2082 L 231.3128 49.9748 L 230.4584 49.7465 L 229.6026 49.5233 L 228.7455 49.3051 L 227.8872 49.0920 L 227.0276 48.8840 L 226.1668 48.6810 L 225.3048 48.4831 L 224.4417 48.2903 L 223.5774 48.1027 L 222.7120 47.9201 L 221.8456 47.7426 L 220.9781 47.5703 L 220.1097 47.4031 L 219.2403 47.2410 L 218.3699 47.0841 L 217.4986 46.9322 L 216.6265 46.7856 L 215.7534 46.6440 L 214.8796 46.5077 L 214.0050 46.3765 L 213.1296 46.2504 L 212.2535 46.1295 L 211.3767 46.0138 L 210.4992 45.9032 L 209.6211 45.7979 L 208.7424 45.6977 L 207.8631 45.6027 L 206.9833 45.5128 L 206.1029 45.4282 L 205.2221 45.3487 L 204.3408 45.2744 L 203.4591 45.2053 L 202.5770 45.1415 L 201.6946 45.0828 L 200.8118 45.0293 L 199.9287 44.9810 L 199.0453 44.9379 L 198.1617 44.8999 L 197.2779 44.8673 L 196.3939 44.8398 L 195.5098 44.8175 L 194.6256 44.8004 L 193.7412 44.7885 L 192.8569 44.7818 L 191.9724 44.7803 L 191.0880 44.7840 L 190.2037 44.7929 L 189.3194 44.8070 L 188.4352 44.8263 L 187.5511 44.8508 L 186.6672 44.8805 L 185.7835 44.9153 L 184.9000 44.9554 L 184.0167 45.0007 L 183.1338 45.0511 L 182.2511 45.1068 L 181.3688 45.1676 L 180.4869 45.2336 L 179.6053 45.3047 L 178.7242 45.3811 L 177.8436 45.4626 L 176.9634 45.5493 L 176.0838 45.6411 L 175.2047 45.7381 L 174.3262 45.8403 L 173.4484 45.9476 L 172.5711 46.0601 L 171.6946 46.1777 L 170.8187 46.3004 L 169.9436 46.4283 L 169.0693 46.5613 L 168.1957 46.6994 L 167.3230 46.8426 L 166.4511 46.9910 L 165.5801 47.1444 L 164.7100 47.3030 L 163.8409 47.4666 L 162.9727 47.6354 L 162.1056 47.8092 L 161.2394 47.9881 L 160.3744 48.1720 L 159.5104 48.3611 L 158.6475 48.5551 L 157.7858 48.7543 L 156.9253 48.9584 L 156.0660 49.1676 L 155.2079 49.3818 L 154.3511 49.6011 L 153.4956 49.8253 L 152.6414 50.0546 L 151.7886 50.2888 L 150.9372 50.5280 L 150.0871 50.7722 L 149.2386 51.0214 L 148.3914 51.2755 L 147.5458 51.5346 L 146.7017 51.7986 L 145.8592 52.0675 L 145.0183 52.3413 L 144.1789 52.6201 L 143.3413 52.9037 L 142.5052 53.1923 L 141.6709 53.4857 L 140.8383 53.7840 L 140.0075 54.0871 L 139.1785 54.3951 L 138.3512 54.7079 L 137.5258 55.0256 L 136.7023 55.3480 L 135.8807 55.6753 L 135.0609 56.0073 L 134.2432 56.3441 L 133.4274 56.6857 L 132.6136 57.0321 L 131.8019 57.3831 L 130.9922 57.7389 L 130.1846 58.0995 L 129.3791 58.4647 L 128.5758 58.8346 L 127.7746 59.2092 L 126.9757 59.5884 L 126.1789 59.9723 L 125.3844 60.3608 L 124.5922 60.7540 L 123.8023 61.1518 L 123.0147 61.5541 L 122.2295 61.9610 L 121.4466 62.3725 L 120.6662 62.7886 L 119.8882 63.2092 L 119.1127 63.6343 L 118.3396 64.0639 L 117.5691 64.4980 L 116.8011 64.9366 L 116.0356 65.3796 L 115.2728 65.8271 L 114.5125 66.2790 L 113.7550 66.7354 L 113.0000 67.1961 L 112.2478 67.6612 L 111.4983 68.1307 L 110.7515 68.6045 L 110.0075 69.0827 L 109.2663 69.5651 L 108.5279 70.0519 L 107.7924 70.5430 L 107.0597 71.0383 L 106.3299 71.5379 L 105.6030 72.0417 L 104.8790 72.5497 L 104.1580 73.0619 L 103.4401 73.5783 L 102.7251 74.0988 L 102.0131 74.6235 L 101.3042 75.1523 L 100.5984 75.6852 L 99.8957 76.2222 L 99.1961 76.7633 L 98.4997 77.3084 L 97.8064 77.8576 L 97.1163 78.4108 L 96.4295 78.9679 L 95.7459 79.5290 L 95.0656 80.0941 L 94.3885 80.6632 L 93.7148 81.2361 L 93.0444 81.8129 L 92.3773 82.3936 L 91.7136 82.9782 L 91.0534 83.5666 L 90.3965 84.1588 L 89.7431 84.7548 L 89.0931 85.3546 L 88.4467 85.9581 L 87.8037 86.5654 L 87.1643 87.1764 L 86.5284 87.7911 L 85.8961 88.4094 L 85.2674 89.0314 L 84.6422 89.6570 L 84.0208 90.2863 L 83.4029 90.9191 L 82.7888 91.5555 L 82.1783 92.1954 L 81.5715 92.8389 L 80.9685 93.4858 L 80.3692 94.1362 L 79.7737 94.7901 L 79.1820 95.4474 L 78.5941 96.1081 L 78.0100 96.7722 L 77.4298 97.4397 L 76.8534 98.1105 L 76.2810 98.7846 L 75.7124 99.4621 L 75.1477 100.1428 L 74.5870 100.8267 L 74.0303 101.5139 L 73.4775 102.2043 L 72.9288 102.8978 L 72.3840 103.5945 L 71.8433 104.2944 L 71.3066 104.9974 L 70.7740 105.7034 L 70.2454 106.4125 L 69.7210 107.1247 L 69.2007 107.8398 L 68.6845 108.5580 L 68.1725 109.2791 L 67.6646 110.0031 L 67.1610 110.7301 L 66.6615 111.4600 L 66.1662 112.1927 L 65.6752 112.9283 L 65.1884 113.6667 L 64.7059 114.4079 L 64.2277 115.1518 L 63.7537 115.8985 L 63.2841 116.6479 L 62.8188 117.4001 L 62.3578 118.1548 L 61.9012 118.9122 L 61.4490 119.6723 L 61.0011 120.4349 L 60.5577 121.2001 L 60.1186 121.9678 L 59.6840 122.7381 L 59.2538 123.5108 L 58.8281 124.2860 L 58.4069 125.0637 L 57.9901 125.8437 L 57.5778 126.6262 L 57.1700 127.4110 L 56.7668 128.1981 L 56.3681 128.9875 L 55.9739 129.7792 L 55.5843 130.5732 L 55.1992 131.3694 L 54.8188 132.1678 L 54.4429 132.9683 L 54.0717 133.7711 L 53.7050 134.5759 L 53.3430 135.3828 L 52.9857 136.1918 L 52.6330 137.0028 L 52.2849 137.8159 L 51.9415 138.6309 L 51.6028 139.4479 L 51.2689 140.2668 L 50.9396 141.0876 L 50.6150 141.9103 L 50.2952 142.7349 L 49.9801 143.5613 L 49.6697 144.3894 L 49.3641 145.2194 L 49.0633 146.0510 L 48.7672 146.8844 L 48.4760 147.7195 L 48.1895 148.5562 L 47.9078 149.3946 L 47.6310 150.2345 L 47.3589 151.0761 L 47.0917 151.9191 L 46.8293 152.7637 L 46.5718 153.6098 L 46.3192 154.4574 L 46.0713 155.3063 L 45.8284 156.1567 L 45.5903 157.0085 L 45.3571 157.8616 L 45.1288 158.7160 L 44.9055 159.5718 L 44.6870 160.4288 L 44.4734 161.2870 L 44.2647 162.1464 L 44.0610 163.0071 L 43.8621 163.8688 L 43.6683 164.7317 L 43.4793 165.5957 L 43.2953 166.4608 L 43.1163 167.3269 L 42.9422 168.1940 L 42.7731 169.0621 L 42.6089 169.9311 L 42.4498 170.8011 L 42.2955 171.6719 L 42.1463 172.5437 L 42.0021 173.4162 L 41.8628 174.2896 L 41.7286 175.1638 L 41.5993 176.0387 L 41.4751 176.9143 L 41.3558 177.7907 L 41.2416 178.6677 L 41.1324 179.5453 L 41.0281 180.4235 L 40.9290 181.3024 L 40.8348 182.1817 L 40.7456 183.0616 L 40.6615 183.9420 L 40.5824 184.8229 L 40.5083 185.7042 L 40.4393 186.5859 L 40.3752 187.4680 L 40.3163 188.3504 L 40.2623 189.2332 L 40.2134 190.1163 L 40.1695 190.9996 L 40.1307 191.8831 L 40.0969 192.7669 L 40.0682 193.6508 L 40.0444 194.5349 L 40.0258 195.4191 L 40.0121 196.3034 L 40.0035 197.1878 L 40.0000 198.0722 L 40.0015 198.9566 L 40.0080 199.8410 L 40.0196 200.7253 L 40.0362 201.6096 L 40.0578 202.4937 L 40.0845 203.3777 L 40.1162 204.2616 L 40.1529 205.1452 L 40.1947 206.0287 L 40.2415 206.9118 L 40.2933 207.7947 L 40.3501 208.6773 L 40.4120 209.5595 L 40.4789 210.4414 L 40.5508 211.3229 L 40.6277 212.2039 L 40.7096 213.0846 L 40.7965 213.9647 L 40.8884 214.8443 L 40.9854 215.7234 L 41.0873 216.6019 L 41.1942 217.4798 L 41.3061 218.3571 L 41.4230 219.2338 L 41.5449 220.1097 L 41.6717 220.9850 L 41.8036 221.8595 L 41.9403 222.7333 L 42.0821 223.6063 L 42.2288 224.4784 L 42.3804 225.3497 L 42.5370 226.2202 L 42.6985 227.0897 L 42.8650 227.9583 L 43.0364 228.8260 L 43.2127 229.6926 L 43.3940 230.5582 L 43.5801 231.4228 L 43.7711 232.2864 L 43.9671 233.1488 L 44.1679 234.0101 L 44.3736 234.8703 L 44.5842 235.7292 L 44.7997 236.5870 L 45.0200 237.4435 L 45.2451 238.2988 L 45.4751 239.1528 L 45.7100 240.0054 L 45.9497 240.8567 L 46.1942 241.7067 L 46.4435 242.5552 L 46.6976 243.4023 L 46.9565 244.2480 L 47.2202 245.0922 L 47.4886 245.9349 L 47.7619 246.7760 L 48.0399 247.6156 L 48.3226 248.4536 L 48.6101 249.2900 L 48.9023 250.1247 L 49.1992 250.9578 L 49.5009 251.7891 L 49.8072 252.6188 L 50.1183 253.4467 L 50.4340 254.2729 L 50.7543 255.0972 L 51.0794 255.9197 L 51.4091 256.7404 L 51.7434 257.5592 L 52.0823 258.3760 L 52.4259 259.1910 L 52.7740 260.0040 L 53.1268 260.8150 L 53.4841 261.6240 L 53.8460 262.4310 L 54.2124 263.2359 L 54.5834 264.0388 L 54.9590 264.8395 L 55.3390 265.6381 L 55.7235 266.4345 L 56.1125 267.2288 L 56.5060 268.0208 L 56.9040 268.8106 L 57.3064 269.5982 L 57.7133 270.3834 L 58.1246 271.1664 L 58.5403 271.9470 L 58.9604 272.7253 L 59.3849 273.5012 L 59.8138 274.2746 L 60.2470 275.0457 L 60.6845 275.8143 L 61.1264 276.5804 L 61.5726 277.3440 L 62.0231 278.1050 L 62.4779 278.8636 L 62.9369 279.6195 L 63.4002 280.3728 L 63.8678 281.1236 L 64.3395 281.8717 L 64.8155 282.6171 L 65.2957 283.3598 L 65.7800 284.0998 L 66.2685 284.8370 L 66.7611 285.5715 L 67.2579 286.3032 L 67.7588 287.0321 L 68.2638 287.7582 L 68.7729 288.4814 L 69.2860 289.2017 L 69.8032 289.9192 L 70.3243 290.6337 L 70.8496 291.3452 L 71.3788 292.0538 L 71.9120 292.7595 L 72.4491 293.4620 L 72.9902 294.1616 L 73.5352 294.8581 L 74.0842 295.5516 L 74.6370 296.2419 L 75.1937 296.9291 L 75.7542 297.6132 L 76.3186 298.2941 L 76.8868 298.9719 L 77.4588 299.6464 L 78.0346 300.3177 L 78.6141 300.9858 L 79.1974 301.6506 L 79.7844 302.3121 L 80.3752 302.9703 L 80.9696 303.6251 L 81.5676 304.2767 L 82.1694 304.9248 L 82.7747 305.5696 L 83.3837 306.2109 L 83.9963 306.8489 L 84.6124 307.4833 L 85.2321 308.1144 L 85.8553 308.7419 L 86.4820 309.3659 L 87.1122 309.9864 L 87.7459 310.6033 L 88.3830 311.2167 L 89.0236 311.8265 L 89.6676 312.4327 L 90.3149 313.0353 L 90.9657 313.6342 L 91.6197 314.2295 L 92.2771 314.8211 L 92.9379 315.4090 L 93.6018 315.9932 L 94.2691 316.5737 L 94.9396 317.1504 L 95.6133 317.7234 L 96.2902 318.2926 L 96.9703 318.8579 L 97.6536 319.4195 L 98.3400 319.9772 L 99.0295 320.5311 L 99.7221 321.0811 L 100.4177 321.6272 L 101.1164 322.1694 L 101.8182 322.7077 L 102.5229 323.2420 L 103.2306 323.7724 L 103.9413 324.2989 L 104.6549 324.8213 L 105.3714 325.3398 L 106.0908 325.8542 L 106.8130 326.3646 L 107.5381 326.8710 L 108.2661 327.3733 L 108.9968 327.8715 L 109.7303 328.3656 L 110.4665 328.8556 L 111.2055 329.3415 L 111.9472 329.8233 L 112.6916 330.3009 L 113.4386 330.7743 L 114.1882 331.2436 L 114.9405 331.7086 L 115.6953 332.1695 L 116.4527 332.6261 L 117.2127 333.0785 L 117.9751 333.5267 L 118.7401 333.9705 L 119.5075 334.4102 L 120.2774 334.8454 L 121.0496 335.2765 L 121.8243 335.7031 L 122.6014 336.1255 L 123.3807 336.5435 L 124.1624 336.9572 L 124.9464 337.3665 L 125.7327 337.7714 L 126.5212 338.1720 L 127.3120 338.5681 L 128.1049 338.9598 L 128.9000 339.3471 L 129.6972 339.7299 L 130.4966 340.1083 L 131.2981 340.4822 L 132.1016 340.8517 L 132.9072 341.2167 L 133.7148 341.5772 L 134.5244 341.9331 L 135.3360 342.2846 L 136.1495 342.6315 L 136.9649 342.9740 L 137.7823 343.3118 L 138.6015 343.6451 L 139.4225 343.9738 L 140.2454 344.2980 L 141.0700 344.6176 L 141.8965 344.9325 L 142.7246 345.2429 L 143.5545 345.5487 L 144.3861 345.8498 L 145.2193 346.1463 L 146.0541 346.4382 L 146.8906 346.7254 L 147.7287 347.0080 L 148.5683 347.2859 L 149.4094 347.5591 L 150.2521 347.8276 L 151.0962 348.0915 L 151.9418 348.3507 L 152.7888 348.6051 L 153.6372 348.8549 L 154.4870 349.0999 L 155.3381 349.3402 L 156.1906 349.5758 L 157.0444 349.8066 L 157.8994 350.0327 L 158.7556 350.2540 L 159.6131 350.4706 L 160.4718 350.6824 L 161.3316 350.8894 L 162.1926 351.0917 L 163.0547 351.2892 L 163.9178 351.4819 L 164.7821 351.6698 L 165.6473 351.8529 L 166.5136 352.0312 L 167.3808 352.2047 L 168.2490 352.3733 L 169.1181 352.5372 L 169.9880 352.6962 L 170.8589 352.8504 L 171.7306 352.9998 L 172.6031 353.1444 L 173.4764 353.2840 L 174.3505 353.4189 L 175.2253 353.5489 L 176.1008 353.6741 L 176.9770 353.7944 L 177.8538 353.9099 L 178.7313 354.0204 L 179.6094 354.1262 L 180.4880 354.2270 L 181.3672 354.3230 L 182.2469 354.4142 L 183.1271 354.5004 L 184.0077 354.5818 L 184.8888 354.6583 L 185.7703 354.7299 L 186.6522 354.7967 L 187.5345 354.8585 L 188.4170 354.9155 L 189.2999 354.9676 L 190.1831 355.0148 L 191.0665 355.0571 L 191.9501 355.0946 L 192.8339 355.1271 L 193.7179 355.1548 L 194.6020 355.1775 L 195.4862 355.1954 L 196.3705 355.2084 L 197.2549 355.2165 L 198.1393 355.2197 L 199.0237 355.2181 L 199.9081 355.2115 L 200.7924 355.2001 L 201.6767 355.1837 L 202.5608 355.1625 L 203.4448 355.1364 L 204.3287 355.1055 L 205.2124 355.0696 L 206.0959 355.0289 L 206.9791 354.9832 L 207.8621 354.9327 L 208.7447 354.8774 L 209.6271 354.8171 L 210.5091 354.7520 L 211.3907 354.6821 L 212.2720 354.6072 L 213.1528 354.5275 L 214.0331 354.4429 L 214.9130 354.3536 L 215.7924 354.2593 L 216.6712 354.1602 L 217.5495 354.0562 L 218.4272 353.9474 L 219.3043 353.8338 L 220.1807 353.7153 L 221.0565 353.5920 L 221.9316 353.4639 L 222.8059 353.3309 L 223.6795 353.1932 L 224.5524 353.0506 L 225.4244 352.9032 L 226.2956 352.7511 L 227.1660 352.5941 L 228.0355 352.4323 L 228.9041 352.2657 L 229.7717 352.0944 L 230.6384 351.9183 L 231.5041 351.7374 L 232.3688 351.5518 L 233.2325 351.3614 L 234.0951 351.1662 L 234.9566 350.9664 L 235.8171 350.7617 L 236.6763 350.5524 L 237.5344 350.3383 L 238.3914 350.1195 L 239.2471 349.8960 L 240.1015 349.6678 L 240.9547 349.4349 L 241.8066 349.1973 L 242.6572 348.9550 L 243.5064 348.7081 L 244.3543 348.4565 L 245.2007 348.2002 L 246.0458 347.9393 L 246.8894 347.6737 L 247.7315 347.4035 L 248.5721 347.1287 L 249.4112 346.8493 L 250.2488 346.5653 L 251.0848 346.2767 L 251.9192 345.9834 L 252.7520 345.6857 L 253.5831 345.3833 L 254.4125 345.0764 L 255.2403 344.7649 L 256.0663 344.4489 L 256.8906 344.1284 L 257.7131 343.8034 L 258.5338 343.4738 L 259.3527 343.1398 L 260.1698 342.8012 L 260.9849 342.4582 L 261.7982 342.1107 L 262.6096 341.7588 L 263.4190 341.4024 L 264.2265 341.0416 L 265.0320 340.6764 L 265.8354 340.3067 L 266.6368 339.9327 L 267.4362 339.5543 L 268.2335 339.1715 L 269.0286 338.7843 L 269.8217 338.3928 L 270.6125 337.9969 L 271.4012 337.5968 L 272.1877 337.1923 L 272.9720 336.7835 L 273.7540 336.3704 L 274.5337 335.9530 L 275.3111 335.5314 L 276.0863 335.1055 L 276.8590 334.6754 L 277.6295 334.2411 L 278.3975 333.8025 L 279.1631 333.3598 L 279.9263 332.9129 L 280.6870 332.4618 L 281.4452 332.0066 L 282.2010 331.5472 L 282.9542 331.0837 L 283.7049 330.6160 L 284.4530 330.1443 L 285.1985 329.6685 L 285.9414 329.1886 L 286.6817 328.7047 L 287.4193 328.2167 L 288.1542 327.7248 L 288.8864 327.2288 L 289.6159 326.7288 L 290.3427 326.2248 L 291.0667 325.7169 L 291.7879 325.2050 L 292.5063 324.6892 L 293.2219 324.1694 L 293.9347 323.6458 L 294.6445 323.1183 L 295.3515 322.5869 L 296.0556 322.0517 L 296.7567 321.5126 L 297.4549 320.9697 L 298.1501 320.4231 L 298.8423 319.8726 L 299.5315 319.3183 L 300.2177 318.7604 L 300.9008 318.1986 L 301.5808 317.6332 L 302.2578 317.0640 L 302.9316 316.4912 L 303.6023 315.9147 L 304.2698 315.3346 L 304.9342 314.7508 L 305.5954 314.1634 L 306.2533 313.5724 L 306.9081 312.9779 L 307.5596 312.3798 L 308.2078 311.7781 L 308.8527 311.1729 L 309.4943 310.5642 L 310.1326 309.9520 L 310.7676 309.3364 L 311.3992 308.7173 L 312.0274 308.0948 L 312.6522 307.4689 L 313.2736 306.8395 L 313.8916 306.2069 L 314.5061 305.5708 L 315.1171 304.9314 L 315.7246 304.2887 L 316.3287 303.6427 L 316.9292 302.9934 L 317.5262 302.3409 L 318.1196 301.6851 L 318.7094 301.0261 L 319.2957 300.3640 L 319.8783 299.6986 L 320.4573 299.0301 L 321.0327 298.3584 L 321.6044 297.6836 L 322.1724 297.0057 L 322.7368 296.3248 L 323.2974 295.6408 L 323.8543 294.9537 L 324.4074 294.2636 L 324.9568 293.5706 L 325.5025 292.8746 L 326.0443 292.1756 L 326.5824 291.4736 L 327.1166 290.7688 L 327.6469 290.0611 L 328.1735 289.3505 L 328.6961 288.6370 L 329.2149 287.9208 L 329.7298 287.2017 L 330.2408 286.4798 L 330.7478 285.7552 L 331.2509 285.0278 L 331.7501 284.2978 L 332.2453 283.5650 L 332.7365 282.8295 L 333.2237 282.0914 L 333.7069 281.3507 L 334.1861 280.6073 L 334.6612 279.8614 L 335.1323 279.1129 L 335.5993 278.3618 L 336.0622 277.6083 L 336.5211 276.8522 L 336.9758 276.0937 L 337.4265 275.3326 L 337.8730 274.5692 L 338.3153 273.8034 L 338.7535 273.0352 L 339.1875 272.2646 L 339.6174 271.4917 L 340.0430 270.7164 L 340.4645 269.9389 L 340.8817 269.1591 L 341.2947 268.3770 L 341.7035 267.5928 L 342.1080 266.8063 L 342.5083 266.0176 L 342.9042 265.2268 L 343.2959 264.4339 L 343.6833 263.6388 L 344.0664 262.8417 L 344.4452 262.0425 L 344.8196 261.2413 L 345.1897 260.4380 L 345.5555 259.6328 L 345.9169 258.8256 L 346.2739 258.0164 L 346.6265 257.2054 L 346.9748 256.3924 L 347.3186 255.5776 L 347.6581 254.7609 L 347.9931 253.9424 L 348.3237 253.1221 L 348.6498 252.3000 L 348.9715 251.4762 L 349.2888 250.6507 L 349.6016 249.8234 L 349.9099 248.9945 L 350.2137 248.1639 L 350.5131 247.3317 L 350.8079 246.4979 L 351.0983 245.6625 L 351.3841 244.8256 L 351.6654 243.9871 L 351.9422 243.1471 L 352.2144 242.3056 L 352.4821 241.4627 L 352.7452 240.6183 L 353.0038 239.7726 L 353.2578 238.9254 L 353.5073 238.0769 L 353.7521 237.2271 L 353.9924 236.3759 L 354.2281 235.5235 L 354.4592 234.6698 L 354.6856 233.8149 L 354.9075 232.9588 L 355.1247 232.1015 L 355.3373 231.2430 L 355.5453 230.3834 L 355.7487 229.5227 L 355.9474 228.6609 L 356.1415 227.7980 L 356.3309 226.9341 L 356.5156 226.0692 L 356.6957 225.2034 L 356.8712 224.3365 L 357.0419 223.4688 L 357.2080 222.6001 L 357.3694 221.7305 L 357.5261 220.8601 L 357.6782 219.9889 L 357.8255 219.1168 L 357.9682 218.2440 L 358.1061 217.3704 L 358.2393 216.4961 L 358.3679 215.6211 L 358.4917 214.7454 L 358.6108 213.8690 L 358.7252 212.9921 L 358.8349 212.1145 L 358.9399 211.2363 L 359.0401 210.3576 L 359.1356 209.4784 L 359.2264 208.5986 L 359.3125 207.7184 L 359.3938 206.8378 L 359.4704 205.9567 L 359.5422 205.0752 L 359.6094 204.1933 L 359.6717 203.3111 L 359.7294 202.4286 L 359.7823 201.5458 L 359.8304 200.6627 L 359.8738 199.7793 L 359.9125 198.8958 L 359.9464 198.0120 L 359.9756 197.1281 L 360.0000 196.2440" 
        fill="none" 
        stroke="#4CAF50" 
        stroke-width="0.5"
        stroke-linecap="round"
        stroke-linejoin="round"/>
</svg>