<?xml version="1.0" encoding="UTF-8"?>
<svg xmlns="http://www.w3.org/2000/svg" 
     width="500.0" height="300.0" 
     viewBox="0 0 500.0 300.0">
  <rect width="100%" height="100%" fill="#ffffff"/>
  <path d="M 425.0000 150.0000 L 424.9902 149.1764 L 424.9608 148.3532 L 424.9118 147.5309 L 424.8434 146.7101 L 424.7556 145.8910 L 424.6487 145.0743 L 424.5228 144.2603 L 424.3782 143.4494 L 424.2151 142.6419 L 424.0338 141.8384 L 423.8347 141.0392 L 423.6180 140.2445 L 423.3840 139.4547 L 423.1333 138.6701 L 422.8661 137.8909 L 422.5828 137.1174 L 422.2838 136.3499 L 421.9696 135.5885 L 421.6406 134.8333 L 421.2970 134.0847 L 420.9395 133.3426 L 420.5683 132.6072 L 420.1839 131.8787 L 419.7867 131.1571 L 419.3771 130.4425 L 418.9555 129.7348 L 418.5222 129.0343 L 418.0776 128.3408 L 417.6221 127.6545 L 417.1561 126.9753 L 416.6799 126.3031 L 416.1939 125.6381 L 415.6983 124.9802 L 415.1935 124.3293 L 414.6797 123.6854 L 414.1574 123.0484 L 413.6268 122.4184 L 413.0881 121.7952 L 412.5416 121.1788 L 411.9877 120.5692 L 411.4265 119.9663 L 410.8582 119.3700 L 410.2832 118.7802 L 409.7015 118.1969 L 409.1136 117.6200 L 408.5195 117.0494 L 407.9194 116.4851 L 407.3136 115.9269 L 406.7022 115.3749 L 406.0854 114.8289 L 405.4634 114.2889 L 404.8364 113.7548 L 404.2044 113.2264 L 403.5677 112.7038 L 402.9264 112.1869 L 402.2806 111.6755 L 401.6305 111.1697 L 400.9761 110.6693 L 400.3178 110.1743 L 399.6554 109.6846 L 398.9892 109.2001 L 398.3193 108.7208 L 397.6458 108.2465 L 396.9688 107.7774 L 396.2883 107.3131 L 395.6045 106.8538 L 394.9175 106.3993 L 394.2274 105.9496 L 393.5342 105.5046 L 392.8381 105.0643 L 392.1390 104.6286 L 391.4372 104.1974 L 390.7326 103.7706 L 390.0253 103.3484 L 389.3155 102.9304 L 388.6031 102.5168 L 387.8883 102.1075 L 387.1711 101.7024 L 386.4515 101.3014 L 385.7297 100.9046 L 385.0057 100.5118 L 384.2794 100.1231 L 383.5511 99.7383 L 382.8207 99.3574 L 382.0883 98.9804 L 381.3540 98.6073 L 380.6177 98.2379 L 379.8795 97.8723 L 379.1396 97.5104 L 378.3978 97.1522 L 377.6543 96.7976 L 376.9091 96.4466 L 376.1623 96.0992 L 375.4138 95.7552 L 374.6637 95.4148 L 373.9121 95.0777 L 373.1589 94.7441 L 372.4043 94.4139 L 371.6482 94.0870 L 370.8907 93.7634 L 370.1318 93.4431 L 369.3716 93.1260 L 368.6100 92.8121 L 367.8471 92.5014 L 367.0829 92.1939 L 366.3175 91.8895 L 365.5509 91.5881 L 364.7831 91.2898 L 364.0141 90.9946 L 363.2439 90.7024 L 362.4727 90.4131 L 361.7003 90.1268 L 360.9268 89.8434 L 360.1523 89.5630 L 359.3768 89.2854 L 358.6002 89.0106 L 357.8227 88.7387 L 357.0441 88.4696 L 356.2647 88.2033 L 355.4842 87.9398 L 354.7029 87.6790 L 353.9206 87.4209 L 353.1375 87.1655 L 352.3535 86.9127 L 351.5687 86.6627 L 350.7830 86.4152 L 349.9965 86.1704 L 349.2092 85.9282 L 348.4211 85.6886 L 347.6322 85.4515 L 346.8426 85.2170 L 346.0522 84.9849 L 345.2611 84.7554 L 344.4692 84.5284 L 343.6767 84.3038 L 342.8835 84.0818 L 342.0896 83.8621 L 341.2950 83.6449 L 340.4998 83.4300 L 339.7040 83.2176 L 338.9075 83.0075 L 338.1104 82.7998 L 337.3126 82.5945 L 336.5143 82.3914 L 335.7154 82.1907 L 334.9159 81.9923 L 334.1159 81.7962 L 333.3153 81.6024 L 332.5142 81.4108 L 331.7125 81.2215 L 330.9103 81.0344 L 330.1076 80.8496 L 329.3043 80.6669 L 328.5006 80.4865 L 327.6964 80.3082 L 326.8917 80.1322 L 326.0866 79.9583 L 325.2809 79.7865 L 324.4749 79.6169 L 323.6683 79.4495 L 322.8614 79.2841 L 322.0540 79.1209 L 321.2462 78.9598 L 320.4379 78.8008 L 319.6293 78.6438 L 318.8203 78.4889 L 318.0108 78.3361 L 317.2010 78.1854 L 316.3908 78.0367 L 315.5803 77.8900 L 314.7693 77.7454 L 313.9580 77.6028 L 313.1464 77.4622 L 312.3344 77.3236 L 311.5221 77.1870 L 310.7095 77.0524 L 309.8965 76.9197 L 309.0832 76.7891 L 308.2696 76.6604 L 307.4556 76.5337 L 306.6414 76.4089 L 305.8269 76.2860 L 305.0121 76.1651 L 304.1970 76.0462 L 303.3816 75.9291 L 302.5660 75.8140 L 301.7501 75.7007 L 300.9339 75.5894 L 300.1175 75.4800 L 299.3008 75.3725 L 298.4839 75.2668 L 297.6667 75.1630 L 296.8493 75.0612 L 296.0317 74.9611 L 295.2138 74.8630 L 294.3958 74.7667 L 293.5775 74.6722 L 292.7590 74.5796 L 291.9403 74.4889 L 291.1213 74.4000 L 290.3022 74.3129 L 289.4829 74.2276 L 288.6634 74.1442 L 287.8438 74.0626 L 287.0239 73.9828 L 286.2039 73.9048 L 285.3837 73.8287 L 284.5633 73.7543 L 283.7428 73.6817 L 282.9221 73.6110 L 282.1013 73.5420 L 281.2803 73.4748 L 280.4592 73.4094 L 279.6379 73.3458 L 278.8165 73.2839 L 277.9950 73.2239 L 277.1733 73.1656 L 276.3515 73.1091 L 275.5296 73.0543 L 274.7076 73.0013 L 273.8855 72.9501 L 273.0632 72.9006 L 272.2409 72.8529 L 271.4184 72.8070 L 270.5959 72.7628 L 269.7733 72.7203 L 268.9506 72.6796 L 268.1278 72.6406 L 267.3049 72.6034 L 266.4819 72.5679 L 265.6589 72.5342 L 264.8358 72.5022 L 264.0126 72.4720 L 263.1894 72.4434 L 262.3661 72.4167 L 261.5427 72.3916 L 260.7193 72.3683 L 259.8959 72.3467 L 259.0724 72.3268 L 258.2489 72.3087 L 257.4253 72.2923 L 256.6017 72.2776 L 255.7781 72.2646 L 254.9544 72.2534 L 254.1308 72.2439 L 253.3071 72.2361 L 252.4834 72.2301 L 251.6597 72.2257 L 250.8359 72.2231 L 250.0122 72.2222 L 249.1885 72.2231 L 248.3648 72.2256 L 247.5410 72.2299 L 246.7173 72.2359 L 245.8936 72.2436 L 245.0700 72.2531 L 244.2463 72.2643 L 243.4227 72.2772 L 242.5991 72.2918 L 241.7755 72.3082 L 240.9520 72.3262 L 240.1285 72.3461 L 239.3051 72.3676 L 238.4817 72.3909 L 237.6583 72.4159 L 236.8350 72.4426 L 236.0118 72.4711 L 235.1886 72.5013 L 234.3655 72.5332 L 233.5425 72.5669 L 232.7195 72.6023 L 231.8966 72.6395 L 231.0738 72.6784 L 230.2511 72.7191 L 229.4285 72.7615 L 228.6059 72.8056 L 227.7835 72.8515 L 226.9611 72.8992 L 226.1389 72.9486 L 225.3168 72.9998 L 224.4947 73.0527 L 223.6728 73.1074 L 222.8510 73.1639 L 222.0294 73.2221 L 221.2078 73.2821 L 220.3864 73.3439 L 219.5652 73.4075 L 218.7440 73.4728 L 217.9230 73.5400 L 217.1022 73.6089 L 216.2815 73.6796 L 215.4610 73.7521 L 214.6406 73.8264 L 213.8204 73.9025 L 213.0004 73.9805 L 212.1805 74.0602 L 211.3609 74.1418 L 210.5414 74.2251 L 209.7220 74.3103 L 208.9029 74.3974 L 208.0840 74.4862 L 207.2653 74.5769 L 206.4468 74.6695 L 205.6285 74.7639 L 204.8104 74.8601 L 203.9925 74.9582 L 203.1749 75.0582 L 202.3575 75.1600 L 201.5403 75.2637 L 200.7234 75.3693 L 199.9067 75.4768 L 199.0903 75.5861 L 198.2741 75.6974 L 197.4582 75.8106 L 196.6425 75.9257 L 195.8271 76.0426 L 195.0121 76.1616 L 194.1972 76.2824 L 193.3827 76.4052 L 192.5685 76.5299 L 191.7546 76.6566 L 190.9409 76.7852 L 190.1276 76.9158 L 189.3146 77.0484 L 188.5020 77.1830 L 187.6896 77.3195 L 186.8777 77.4580 L 186.0660 77.5986 L 185.2547 77.7411 L 184.4438 77.8857 L 183.6332 78.0323 L 182.8230 78.1810 L 182.0132 78.3316 L 181.2037 78.4844 L 180.3947 78.6392 L 179.5860 78.7961 L 178.7778 78.9550 L 177.9700 79.1161 L 177.1625 79.2793 L 176.3556 79.4445 L 175.5490 79.6119 L 174.7429 79.7815 L 173.9373 79.9531 L 173.1321 80.1270 L 172.3274 80.3030 L 171.5232 80.4812 L 170.7195 80.6615 L 169.9162 80.8441 L 169.1135 81.0289 L 168.3113 81.2159 L 167.5096 81.4052 L 166.7084 81.5967 L 165.9078 81.7904 L 165.1078 81.9865 L 164.3083 82.1848 L 163.5094 82.3855 L 162.7110 82.5884 L 161.9133 82.7937 L 161.1162 83.0013 L 160.3196 83.2113 L 159.5238 83.4237 L 158.7285 83.6384 L 157.9339 83.8556 L 157.1400 84.0752 L 156.3468 84.2972 L 155.5542 84.5217 L 154.7624 84.7487 L 153.9713 84.9781 L 153.1809 85.2100 L 152.3912 85.4445 L 151.6023 85.6815 L 150.8142 85.9211 L 150.0269 86.1632 L 149.2403 86.4079 L 148.4546 86.6553 L 147.6697 86.9053 L 146.8857 87.1579 L 146.1026 87.4133 L 145.3203 87.6713 L 144.5389 87.9320 L 143.7585 88.1955 L 142.9789 88.4617 L 142.2004 88.7307 L 141.4228 89.0025 L 140.6462 89.2772 L 139.8706 89.5547 L 139.0961 89.8351 L 138.3226 90.1184 L 137.5502 90.4046 L 136.7789 90.6937 L 136.0087 90.9859 L 135.2397 91.2810 L 134.4718 91.5792 L 133.7052 91.8805 L 132.9397 92.1848 L 132.1755 92.4923 L 131.4126 92.8029 L 130.6510 93.1166 L 129.8907 93.4336 L 129.1318 93.7539 L 128.3742 94.0773 L 127.6181 94.4042 L 126.8634 94.7343 L 126.1102 95.0678 L 125.3586 95.4047 L 124.6084 95.7451 L 123.8599 96.0889 L 123.1130 96.4363 L 122.3677 96.7872 L 121.6242 97.1416 L 120.8824 97.4998 L 120.1424 97.8615 L 119.4042 98.2270 L 118.6678 98.5963 L 117.9334 98.9693 L 117.2010 99.3462 L 116.4705 99.7269 L 115.7421 100.1116 L 115.0158 100.5002 L 114.2917 100.8929 L 113.5698 101.2896 L 112.8502 101.6904 L 112.1329 102.0954 L 111.4180 102.5046 L 110.7056 102.9181 L 109.9957 103.3359 L 109.2883 103.7581 L 108.5837 104.1846 L 107.8817 104.6157 L 107.1826 105.0513 L 106.4864 105.4915 L 105.7931 105.9364 L 105.1029 106.3859 L 104.4158 106.8403 L 103.7319 107.2994 L 103.0514 107.7635 L 102.3742 108.2326 L 101.7006 108.7066 L 101.0306 109.1858 L 100.3643 109.6701 L 99.7018 110.1597 L 99.0433 110.6545 L 98.3889 111.1548 L 97.7386 111.6604 L 97.0927 112.1716 L 96.4513 112.6884 L 95.8144 113.2108 L 95.1823 113.7390 L 94.5551 114.2730 L 93.9329 114.8128 L 93.3160 115.3586 L 92.7044 115.9105 L 92.0985 116.4684 L 91.4982 117.0326 L 90.9039 117.6029 L 90.3158 118.1797 L 89.7340 118.7628 L 89.1587 119.3524 L 88.5903 119.9485 L 88.0288 120.5512 L 87.4747 121.1607 L 86.9280 121.7768 L 86.3891 122.3998 L 85.8582 123.0296 L 85.3356 123.6664 L 84.8216 124.3101 L 84.3166 124.9608 L 83.8207 125.6185 L 83.3343 126.2833 L 82.8578 126.9552 L 82.3915 127.6342 L 81.9357 128.3204 L 81.4908 129.0136 L 81.0572 129.7139 L 80.6352 130.4214 L 80.2252 131.1358 L 79.8277 131.8572 L 79.4429 132.5855 L 79.0713 133.3207 L 78.7133 134.0626 L 78.3694 134.8110 L 78.0399 135.5660 L 77.7252 136.3272 L 77.4258 137.0946 L 77.1421 137.8679 L 76.8744 138.6469 L 76.6231 139.4313 L 76.3887 140.2210 L 76.1715 141.0155 L 75.9718 141.8147 L 75.7900 142.6181 L 75.6263 143.4253 L 75.4812 144.2362 L 75.3547 145.0501 L 75.2473 145.8668 L 75.1589 146.6857 L 75.0899 147.5065 L 75.0404 148.3288 L 75.0104 149.1519 L 75.0000 149.9756 L 75.0092 150.7992 L 75.0381 151.6224 L 75.0865 152.4447 L 75.1543 153.2656 L 75.2415 154.0847 L 75.3478 154.9015 L 75.4732 155.7156 L 75.6172 156.5266 L 75.7798 157.3342 L 75.9605 158.1378 L 76.1591 158.9372 L 76.3753 159.7320 L 76.6087 160.5220 L 76.8590 161.3067 L 77.1257 162.0861 L 77.4086 162.8597 L 77.7070 163.6274 L 78.0208 164.3891 L 78.3495 165.1444 L 78.6925 165.8932 L 79.0497 166.6355 L 79.4205 167.3710 L 79.8045 168.0998 L 80.2013 168.8216 L 80.6106 169.5365 L 81.0318 170.2443 L 81.4648 170.9450 L 81.9090 171.6387 L 82.3642 172.3253 L 82.8299 173.0047 L 83.3058 173.6770 L 83.7916 174.3423 L 84.2869 175.0004 L 84.7914 175.6515 L 85.3049 176.2956 L 85.8269 176.9328 L 86.3573 177.5630 L 86.8958 178.1864 L 87.4420 178.8030 L 87.9958 179.4128 L 88.5568 180.0159 L 89.1248 180.6125 L 89.6997 181.2024 L 90.2811 181.7859 L 90.8689 182.3630 L 91.4628 182.9338 L 92.0627 183.4983 L 92.6683 184.0566 L 93.2795 184.6088 L 93.8962 185.1550 L 94.5180 185.6952 L 95.1449 186.2295 L 95.7768 186.7580 L 96.4133 187.2808 L 97.0545 187.7979 L 97.7002 188.3094 L 98.3502 188.8154 L 99.0044 189.3159 L 99.6626 189.8111 L 100.3249 190.3010 L 100.9909 190.7856 L 101.6607 191.2651 L 102.3342 191.7395 L 103.0111 192.2088 L 103.6914 192.6732 L 104.3751 193.1326 L 105.0620 193.5873 L 105.7521 194.0371 L 106.4452 194.4822 L 107.1412 194.9227 L 107.8402 195.3586 L 108.5420 195.7899 L 109.2465 196.2168 L 109.9536 196.6392 L 110.6634 197.0572 L 111.3757 197.4710 L 112.0904 197.8804 L 112.8076 198.2857 L 113.5271 198.6867 L 114.2488 199.0837 L 114.9728 199.4766 L 115.6990 199.8655 L 116.4272 200.2504 L 117.1576 200.6314 L 117.8899 201.0084 L 118.6242 201.3817 L 119.3604 201.7512 L 120.0985 202.1169 L 120.8384 202.4789 L 121.5801 202.8372 L 122.3236 203.1919 L 123.0687 203.5430 L 123.8155 203.8906 L 124.5640 204.2346 L 125.3140 204.5752 L 126.0656 204.9123 L 126.8187 205.2460 L 127.5733 205.5764 L 128.3293 205.9034 L 129.0868 206.2271 L 129.8456 206.5475 L 130.6058 206.8647 L 131.3674 207.1786 L 132.1302 207.4894 L 132.8944 207.7970 L 133.6597 208.1016 L 134.4263 208.4030 L 135.1941 208.7014 L 135.9631 208.9967 L 136.7332 209.2890 L 137.5044 209.5784 L 138.2768 209.8647 L 139.0502 210.1482 L 139.8247 210.4288 L 140.6002 210.7064 L 141.3767 210.9812 L 142.1542 211.2532 L 142.9327 211.5224 L 143.7122 211.7888 L 144.4926 212.0525 L 145.2739 212.3133 L 146.0561 212.5715 L 146.8392 212.8270 L 147.6232 213.0798 L 148.4080 213.3299 L 149.1937 213.5775 L 149.9802 213.8223 L 150.7675 214.0646 L 151.5555 214.3044 L 152.3444 214.5415 L 153.1340 214.7761 L 153.9243 215.0082 L 154.7154 215.2378 L 155.5072 215.4649 L 156.2997 215.6895 L 157.0929 215.9117 L 157.8868 216.1314 L 158.6814 216.3487 L 159.4766 216.5636 L 160.2724 216.7762 L 161.0689 216.9863 L 161.8660 217.1941 L 162.6637 217.3995 L 163.4620 217.6026 L 164.2609 217.8034 L 165.0603 218.0018 L 165.8603 218.1980 L 166.6609 218.3919 L 167.4620 218.5835 L 168.2637 218.7729 L 169.0659 218.9601 L 169.8686 219.1450 L 170.6718 219.3277 L 171.4755 219.5082 L 172.2797 219.6865 L 173.0844 219.8626 L 173.8895 220.0366 L 174.6951 220.2084 L 175.5012 220.3781 L 176.3077 220.5456 L 177.1147 220.7110 L 177.9220 220.8743 L 178.7298 221.0355 L 179.5381 221.1946 L 180.3467 221.3516 L 181.1557 221.5065 L 181.9651 221.6594 L 182.7749 221.8102 L 183.5851 221.9589 L 184.3957 222.1056 L 185.2066 222.2503 L 186.0179 222.3930 L 186.8295 222.5337 L 187.6415 222.6723 L 188.4538 222.8090 L 189.2664 222.9437 L 190.0794 223.0763 L 190.8927 223.2071 L 191.7063 223.3358 L 192.5202 223.4626 L 193.3344 223.5875 L 194.1489 223.7104 L 194.9637 223.8313 L 195.7788 223.9503 L 196.5941 224.0675 L 197.4098 224.1827 L 198.2257 224.2959 L 199.0418 224.4073 L 199.8583 224.5168 L 200.6749 224.6244 L 201.4918 224.7301 L 202.3090 224.8339 L 203.1264 224.9358 L 203.9440 225.0359 L 204.7619 225.1341 L 205.5799 225.2305 L 206.3982 225.3250 L 207.2167 225.4176 L 208.0354 225.5085 L 208.8543 225.5974 L 209.6734 225.6846 L 210.4927 225.7699 L 211.3122 225.8533 L 212.1319 225.9350 L 212.9517 226.0149 L 213.7718 226.0929 L 214.5920 226.1691 L 215.4123 226.2435 L 216.2328 226.3161 L 217.0535 226.3870 L 217.8743 226.4560 L 218.6953 226.5232 L 219.5164 226.5887 L 220.3377 226.6524 L 221.1591 226.7143 L 221.9806 226.7744 L 222.8023 226.8327 L 223.6241 226.8893 L 224.4460 226.9441 L 225.2680 226.9971 L 226.0901 227.0484 L 226.9124 227.0979 L 227.7347 227.1457 L 228.5571 227.1917 L 229.3797 227.2360 L 230.2023 227.2785 L 231.0250 227.3192 L 231.8478 227.3582 L 232.6707 227.3955 L 233.4937 227.4310 L 234.3167 227.4648 L 235.1398 227.4969 L 235.9630 227.5272 L 236.7862 227.5557 L 237.6095 227.5826 L 238.4328 227.6077 L 239.2562 227.6311 L 240.0797 227.6527 L 240.9032 227.6726 L 241.7267 227.6908 L 242.5502 227.7073 L 243.3738 227.7220 L 244.1975 227.7350 L 245.0211 227.7463 L 245.8448 227.7559 L 246.6685 227.7637 L 247.4922 227.7698 L 248.3159 227.7742 L 249.1396 227.7768 L 249.9633 227.7778 L 250.7871 227.7770 L 251.6108 227.7745 L 252.4345 227.7703 L 253.2582 227.7643 L 254.0819 227.7566 L 254.9056 227.7472 L 255.7292 227.7361 L 256.5529 227.7232 L 257.3764 227.7087 L 258.2000 227.6923 L 259.0235 227.6743 L 259.8470 227.6546 L 260.6705 227.6331 L 261.4939 227.6098 L 262.3172 227.5849 L 263.1405 227.5582 L 263.9638 227.5298 L 264.7869 227.4996 L 265.6100 227.4677 L 266.4331 227.4341 L 267.2560 227.3987 L 268.0789 227.3616 L 268.9017 227.3228 L 269.7245 227.2822 L 270.5471 227.2398 L 271.3697 227.1957 L 272.1921 227.1499 L 273.0145 227.1023 L 273.8367 227.0529 L 274.6588 227.0018 L 275.4809 226.9489 L 276.3028 226.8942 L 277.1246 226.8378 L 277.9462 226.7796 L 278.7678 226.7197 L 279.5892 226.6579 L 280.4105 226.5944 L 281.2316 226.5291 L 282.0526 226.4621 L 282.8734 226.3932 L 283.6941 226.3225 L 284.5147 226.2501 L 285.3350 226.1758 L 286.1552 226.0997 L 286.9753 226.0219 L 287.7951 225.9422 L 288.6148 225.8607 L 289.4343 225.7774 L 290.2536 225.6922 L 291.0728 225.6053 L 291.8917 225.5164 L 292.7104 225.4258 L 293.5289 225.3333 L 294.3472 225.2390 L 295.1653 225.1428 L 295.9832 225.0447 L 296.8008 224.9448 L 297.6183 224.8430 L 298.4354 224.7394 L 299.2524 224.6339 L 300.0691 224.5264 L 300.8855 224.4171 L 301.7017 224.3059 L 302.5176 224.1928 L 303.3333 224.0778 L 304.1487 223.9608 L 304.9638 223.8420 L 305.7786 223.7212 L 306.5931 223.5985 L 307.4073 223.4738 L 308.2213 223.3472 L 309.0349 223.2186 L 309.8482 223.0881 L 310.6612 222.9555 L 311.4739 222.8211 L 312.2862 222.6846 L 313.0982 222.5461 L 313.9099 222.4056 L 314.7212 222.2631 L 315.5322 222.1186 L 316.3428 221.9721 L 317.1530 221.8235 L 317.9628 221.6729 L 318.7723 221.5202 L 319.5813 221.3654 L 320.3900 221.2086 L 321.1982 221.0497 L 322.0061 220.8887 L 322.8135 220.7256 L 323.6205 220.5604 L 324.4270 220.3931 L 325.2331 220.2236 L 326.0388 220.0520 L 326.8440 219.8782 L 327.6487 219.7023 L 328.4529 219.5242 L 329.2567 219.3438 L 330.0599 219.1613 L 330.8627 218.9766 L 331.6649 218.7897 L 332.4666 218.6005 L 333.2678 218.4090 L 334.0684 218.2153 L 334.8685 218.0194 L 335.6680 217.8211 L 336.4669 217.6205 L 337.2653 217.4177 L 338.0630 217.2124 L 338.8602 217.0049 L 339.6567 216.7949 L 340.4526 216.5826 L 341.2479 216.3680 L 342.0425 216.1509 L 342.8364 215.9314 L 343.6297 215.7094 L 344.4222 215.4850 L 345.2141 215.2581 L 346.0053 215.0288 L 346.7957 214.7969 L 347.5854 214.5625 L 348.3743 214.3256 L 349.1624 214.0861 L 349.9498 213.8440 L 350.7363 213.5994 L 351.5221 213.3521 L 352.3070 213.1022 L 353.0910 212.8496 L 353.8742 212.5944 L 354.6565 212.3364 L 355.4379 212.0758 L 356.2184 211.8124 L 356.9979 211.5462 L 357.7765 211.2773 L 358.5541 211.0056 L 359.3307 210.7310 L 360.1064 210.4536 L 360.8809 210.1733 L 361.6544 209.8901 L 362.4269 209.6040 L 363.1982 209.3149 L 363.9684 209.0228 L 364.7375 208.7278 L 365.5054 208.4297 L 366.2721 208.1285 L 367.0376 207.8243 L 367.8018 207.5169 L 368.5648 207.2064 L 369.3264 206.8927 L 370.0868 206.5758 L 370.8457 206.2557 L 371.6033 205.9323 L 372.3595 205.6056 L 373.1142 205.2756 L 373.8674 204.9421 L 374.6191 204.6053 L 375.3693 204.2651 L 376.1179 203.9213 L 376.8649 203.5741 L 377.6102 203.2233 L 378.3538 202.8689 L 379.0956 202.5109 L 379.8357 202.1492 L 380.5739 201.7839 L 381.3103 201.4147 L 382.0448 201.0418 L 382.7773 200.6651 L 383.5078 200.2844 L 384.2363 199.8999 L 384.9626 199.5114 L 385.6868 199.1188 L 386.4088 198.7222 L 387.1285 198.3215 L 387.8458 197.9166 L 388.5608 197.5076 L 389.2733 197.0942 L 389.9833 196.6766 L 390.6907 196.2545 L 391.3954 195.8281 L 392.0975 195.3972 L 392.7967 194.9617 L 393.4930 194.5216 L 394.1864 194.0769 L 394.8767 193.6275 L 395.5639 193.1733 L 396.2478 192.7143 L 396.9285 192.2503 L 397.6057 191.7814 L 398.2795 191.3075 L 398.9496 190.8285 L 399.6160 190.3443 L 400.2786 189.8549 L 400.9372 189.3602 L 401.5918 188.8601 L 402.2421 188.3546 L 402.8882 187.8436 L 403.5298 187.3270 L 404.1668 186.8047 L 404.7990 186.2768 L 405.4264 185.7430 L 406.0487 185.2033 L 406.6658 184.6576 L 407.2775 184.1060 L 407.8836 183.5482 L 408.4840 182.9843 L 409.0785 182.4141 L 409.6668 181.8375 L 410.2488 181.2546 L 410.8243 180.6652 L 411.3929 180.0693 L 411.9546 179.4667 L 412.5090 178.8575 L 413.0559 178.2415 L 413.5950 177.6188 L 414.1262 176.9892 L 414.6490 176.3526 L 415.1632 175.7091 L 415.6686 175.0586 L 416.1647 174.4011 L 416.6514 173.7365 L 417.1282 173.0648 L 417.5948 172.3860 L 418.0509 171.7001 L 418.4961 171.0071 L 418.9301 170.3069 L 419.3524 169.5997 L 419.7628 168.8855 L 420.1607 168.1643 L 420.5459 167.4362 L 420.9178 166.7012 L 421.2762 165.9596 L 421.6206 165.2113 L 421.9505 164.4565 L 422.2656 163.6955 L 422.5655 162.9283 L 422.8497 162.1552 L 423.1179 161.3763 L 423.3696 160.5920 L 423.6046 159.8025 L 423.8223 159.0081 L 424.0225 158.2091 L 424.2049 157.4058 L 424.3691 156.5987 L 424.5148 155.7879 L 424.6418 154.9741 L 424.7498 154.1575 L 424.8387 153.3386 L 424.9083 152.5178 L 424.9584 151.6956 L 424.9890 150.8725" 
        fill="none" 
        stroke="#00BCD4" 
        stroke-width="1.0"
        stroke-linecap="round"
        stroke-linejoin="round"/>
</svg>