<?xml version="1.0" encoding="UTF-8"?>
<svg xmlns="http://www.w3.org/2000/svg" 
     width="500.0" height="500.0" 
     viewBox="0 0 500.0 500.0">
  <rect width="100%" height="100%" fill="#ffffff"/>
  <path d="M 250.5824 250.0402 L 252.9415 250.0256 L 255.3003 249.9821 L 257.6583 249.9095 L 260.0153 249.8079 L 262.3708 249.6773 L 264.7246 249.5177 L 267.0762 249.3292 L 269.4253 249.1118 L 271.7716 248.8656 L 274.1147 248.5906 L 276.4542 248.2869 L 278.7899 247.9546 L 281.1213 247.5936 L 283.4481 247.2042 L 285.7699 246.7864 L 288.0865 246.3403 L 290.3975 245.8659 L 292.7026 245.3634 L 295.0013 244.8330 L 297.2934 244.2746 L 299.5786 243.6885 L 301.8566 243.0748 L 304.1269 242.4336 L 306.3894 241.7650 L 308.6436 241.0692 L 310.8893 240.3463 L 313.1261 239.5965 L 315.3538 238.8200 L 317.5721 238.0168 L 319.7806 237.1873 L 321.9790 236.3315 L 324.1672 235.4496 L 326.3447 234.5419 L 328.5113 233.6084 L 330.6668 232.6494 L 332.8108 231.6652 L 334.9432 230.6558 L 337.0635 229.6215 L 339.1716 228.5624 L 341.2672 227.4789 L 343.3501 226.3711 L 345.4200 225.2392 L 347.4767 224.0835 L 349.5199 222.9041 L 351.5494 221.7013 L 353.5650 220.4753 L 355.5665 219.2264 L 357.5536 217.9548 L 359.5261 216.6606 L 361.4839 215.3443 L 363.4267 214.0059 L 365.3543 212.6457 L 367.2665 211.2640 L 369.1632 209.8611 L 371.0441 208.4371 L 372.9091 206.9923 L 374.7580 205.5269 L 376.5906 204.0413 L 378.4068 202.5356 L 380.2064 201.0101 L 381.9893 199.4651 L 383.7553 197.9008 L 385.5042 196.3175 L 387.2359 194.7154 L 388.9503 193.0947 L 390.6473 191.4558 L 392.3267 189.7989 L 393.9883 188.1242 L 395.6322 186.4321 L 397.2581 184.7227 L 398.8659 182.9962 L 400.4556 181.2531 L 402.0270 179.4935 L 403.5801 177.7176 L 405.1148 175.9258 L 406.6308 174.1183 L 408.1283 172.2953 L 409.6070 170.4571 L 411.0670 168.6040 L 412.5081 166.7361 L 413.9303 164.8538 L 415.3334 162.9573 L 416.7176 161.0468 L 418.0825 159.1226 L 419.4284 157.1850 L 420.7550 155.2341 L 422.0623 153.2703 L 423.3502 151.2937 L 423.8251 150.0668 L 421.7818 151.2459 L 419.7384 152.4251 L 417.6951 153.6043 L 415.6517 154.7834 L 413.6084 155.9626 L 411.5650 157.1417 L 409.5217 158.3209 L 407.4783 159.5001 L 405.4350 160.6792 L 403.3916 161.8584 L 401.3482 163.0375 L 399.3049 164.2167 L 397.2615 165.3959 L 395.2182 166.5750 L 393.1748 167.7542 L 391.1315 168.9334 L 389.0881 170.1125 L 387.0448 171.2917 L 385.0014 172.4708 L 382.9580 173.6500 L 380.9147 174.8292 L 378.8713 176.0083 L 376.8280 177.1875 L 374.7846 178.3666 L 372.7413 179.5458 L 370.6979 180.7250 L 368.6546 181.9041 L 366.6112 183.0833 L 364.5679 184.2624 L 362.5245 185.4416 L 360.4811 186.6208 L 358.4378 187.7999 L 356.3944 188.9791 L 354.3511 190.1582 L 352.3077 191.3374 L 350.2644 192.5166 L 348.2210 193.6957 L 346.1777 194.8749 L 344.1343 196.0541 L 342.0909 197.2332 L 340.0476 198.4124 L 338.0042 199.5915 L 335.9609 200.7707 L 333.9175 201.9499 L 331.8742 203.1290 L 329.8308 204.3082 L 327.7875 205.4873 L 325.7441 206.6665 L 323.7008 207.8457 L 321.6574 209.0248 L 319.6140 210.2040 L 317.5707 211.3831 L 315.5273 212.5623 L 313.4840 213.7415 L 311.4406 214.9206 L 309.3973 216.0998 L 307.3539 217.2789 L 305.3106 218.4581 L 303.2672 219.6373 L 301.2238 220.8164 L 299.1805 221.9956 L 297.1371 223.1748 L 295.0938 224.3539 L 293.0504 225.5331 L 291.0071 226.7122 L 288.9637 227.8914 L 286.9204 229.0706 L 284.8770 230.2497 L 282.8336 231.4289 L 280.7903 232.6080 L 278.7469 233.7872 L 276.7036 234.9664 L 274.6602 236.1455 L 272.6169 237.3247 L 270.5735 238.5038 L 268.5302 239.6830 L 266.4868 240.8622 L 264.4435 242.0413 L 262.4001 243.2205 L 260.3567 244.3996 L 258.3134 245.5788 L 256.2700 246.7580 L 254.2267 247.9371 L 252.1833 249.1163 L 251.0938 249.7438 L 253.1259 248.5454 L 255.1431 247.3221 L 257.1451 246.0740 L 259.1316 244.8014 L 261.1023 243.5044 L 263.0568 242.1833 L 264.9950 240.8383 L 266.9165 239.4696 L 268.8211 238.0774 L 270.7084 236.6619 L 272.5783 235.2233 L 274.4303 233.7620 L 276.2644 232.2781 L 278.0801 230.7719 L 279.8773 229.2436 L 281.6558 227.6935 L 283.4152 226.1218 L 285.1553 224.5288 L 286.8760 222.9148 L 288.5769 221.2800 L 290.2578 219.6247 L 291.9187 217.9492 L 293.5591 216.2538 L 295.1790 214.5386 L 296.7780 212.8041 L 298.3561 211.0505 L 299.9131 209.2780 L 301.4487 207.4870 L 302.9628 205.6779 L 304.4552 203.8507 L 305.9257 202.0060 L 307.3743 200.1438 L 308.8006 198.2647 L 310.2046 196.3688 L 311.5862 194.4565 L 312.9452 192.5281 L 314.2814 190.5838 L 315.5948 188.6240 L 316.8852 186.6491 L 318.1525 184.6592 L 319.3966 182.6547 L 320.6174 180.6360 L 321.8147 178.6033 L 322.9886 176.5569 L 324.1390 174.4972 L 325.2656 172.4244 L 326.3685 170.3389 L 327.4476 168.2410 L 328.5028 166.1310 L 329.5341 164.0092 L 330.5414 161.8759 L 331.5246 159.7314 L 332.4838 157.5760 L 333.4188 155.4100 L 334.3297 153.2338 L 335.2163 151.0476 L 336.0788 148.8517 L 336.9170 146.6465 L 337.7310 144.4322 L 338.5207 142.2091 L 339.2861 139.9776 L 340.0272 137.7378 L 340.7441 135.4902 L 341.4367 133.2350 L 342.1050 130.9725 L 342.7491 128.7029 L 343.3689 126.4267 L 343.9646 124.1439 L 344.5361 121.8550 L 345.0834 119.5602 L 345.6066 117.2598 L 346.1057 114.9540 L 346.5808 112.6432 L 347.0318 110.3276 L 347.4589 108.0074 L 347.8622 105.6829 L 348.2415 103.3545 L 348.5971 101.0222 L 348.9290 98.6865 L 349.2371 96.3476 L 349.5217 94.0056 L 349.7827 91.6610 L 350.0203 89.3138 L 350.2345 86.9643 L 350.4253 84.6129 L 350.5929 82.2597 L 350.7374 79.9050 L 350.8588 77.5489 L 350.3573 77.2667 L 349.1775 79.3097 L 347.9977 81.3527 L 346.8179 83.3956 L 345.6381 85.4386 L 344.4583 87.4816 L 343.2785 89.5246 L 342.0987 91.5676 L 340.9189 93.6106 L 339.7391 95.6535 L 338.5593 97.6965 L 337.3795 99.7395 L 336.1997 101.7825 L 335.0199 103.8255 L 333.8401 105.8685 L 332.6603 107.9114 L 331.4805 109.9544 L 330.3007 111.9974 L 329.1209 114.0404 L 327.9411 116.0834 L 326.7613 118.1264 L 325.5815 120.1694 L 324.4017 122.2123 L 323.2219 124.2553 L 322.0421 126.2983 L 320.8623 128.3413 L 319.6824 130.3843 L 318.5026 132.4273 L 317.3228 134.4702 L 316.1430 136.5132 L 314.9632 138.5562 L 313.7834 140.5992 L 312.6036 142.6422 L 311.4238 144.6852 L 310.2440 146.7282 L 309.0642 148.7711 L 307.8844 150.8141 L 306.7046 152.8571 L 305.5248 154.9001 L 304.3450 156.9431 L 303.1652 158.9861 L 301.9854 161.0290 L 300.8056 163.0720 L 299.6258 165.1150 L 298.4460 167.1580 L 297.2662 169.2010 L 296.0864 171.2440 L 294.9066 173.2869 L 293.7268 175.3299 L 292.5470 177.3729 L 291.3672 179.4159 L 290.1874 181.4589 L 289.0076 183.5019 L 287.8278 185.5449 L 286.6480 187.5878 L 285.4682 189.6308 L 284.2884 191.6738 L 283.1086 193.7168 L 281.9287 195.7598 L 280.7489 197.8028 L 279.5691 199.8457 L 278.3893 201.8887 L 277.2095 203.9317 L 276.0297 205.9747 L 274.8499 208.0177 L 273.6701 210.0607 L 272.4903 212.1036 L 271.3105 214.1466 L 270.1307 216.1896 L 268.9509 218.2326 L 267.7711 220.2756 L 266.5913 222.3186 L 265.4115 224.3616 L 264.2317 226.4045 L 263.0519 228.4475 L 261.8721 230.4905 L 260.6923 232.5335 L 259.5125 234.5765 L 258.3327 236.6195 L 257.1529 238.6624 L 255.9731 240.7054 L 254.7933 242.7484 L 253.6135 244.7914 L 252.4337 246.8344 L 251.2539 248.8774 L 251.1677 249.0191 L 252.3221 246.9616 L 253.4511 244.8901 L 254.5544 242.8049 L 255.6321 240.7062 L 256.6838 238.5945 L 257.7095 236.4699 L 258.7090 234.3330 L 259.6821 232.1839 L 260.6288 230.0230 L 261.5489 227.8506 L 262.4423 225.6672 L 263.3090 223.4730 L 264.1486 221.2683 L 264.9613 219.0535 L 265.7468 216.8290 L 266.5052 214.5950 L 267.2363 212.3520 L 267.9400 210.1002 L 268.6163 207.8401 L 269.2651 205.5719 L 269.8864 203.2960 L 270.4800 201.0128 L 271.0461 198.7225 L 271.5845 196.4256 L 272.0952 194.1224 L 272.5782 191.8132 L 273.0334 189.4984 L 273.4609 187.1783 L 273.8607 184.8532 L 274.2327 182.5236 L 274.5769 180.1896 L 274.8935 177.8518 L 275.1823 175.5104 L 275.4434 173.1657 L 275.6768 170.8181 L 275.8826 168.4680 L 276.0609 166.1155 L 276.2116 163.7612 L 276.3348 161.4052 L 276.4306 159.0480 L 276.4989 156.6899 L 276.5400 154.3310 L 276.5539 151.9719 L 276.5406 149.6128 L 276.5002 147.2540 L 276.4328 144.8958 L 276.3386 142.5385 L 276.2175 140.1824 L 276.0697 137.8279 L 275.8953 135.4752 L 275.6944 133.1246 L 275.4671 130.7764 L 275.2136 128.4309 L 274.9339 126.0884 L 274.6281 123.7491 L 274.2965 121.4134 L 273.9391 119.0814 L 273.5560 116.7536 L 273.1474 114.4301 L 272.7135 112.1111 L 272.2544 109.7971 L 271.7701 107.4882 L 271.2610 105.1846 L 270.7270 102.8866 L 270.1685 100.5945 L 269.5854 98.3086 L 268.9781 96.0289 L 268.3466 93.7558 L 267.6911 91.4896 L 267.0118 89.2303 L 266.3088 86.9783 L 265.5823 84.7338 L 264.8326 82.4969 L 264.0596 80.2680 L 263.2638 78.0471 L 262.4451 75.8345 L 261.6038 73.6305 L 260.7401 71.4351 L 259.8541 69.2486 L 258.9460 67.0712 L 258.0161 64.9031 L 257.0645 62.7443 L 256.0913 60.5953 L 255.0968 58.4559 L 254.0811 56.3266 L 253.0445 54.2074 L 251.9870 52.0985 L 250.9090 50.0000 L 250.5824 51.0269 L 250.5824 53.3861 L 250.5824 55.7453 L 250.5824 58.1045 L 250.5824 60.4637 L 250.5824 62.8228 L 250.5824 65.1820 L 250.5824 67.5412 L 250.5824 69.9004 L 250.5824 72.2595 L 250.5824 74.6187 L 250.5824 76.9779 L 250.5824 79.3371 L 250.5824 81.6963 L 250.5824 84.0554 L 250.5824 86.4146 L 250.5824 88.7738 L 250.5824 91.1330 L 250.5824 93.4921 L 250.5824 95.8513 L 250.5824 98.2105 L 250.5824 100.5697 L 250.5824 102.9289 L 250.5824 105.2880 L 250.5824 107.6472 L 250.5824 110.0064 L 250.5824 112.3656 L 250.5824 114.7247 L 250.5824 117.0839 L 250.5824 119.4431 L 250.5824 121.8023 L 250.5824 124.1615 L 250.5824 126.5206 L 250.5824 128.8798 L 250.5824 131.2390 L 250.5824 133.5982 L 250.5824 135.9573 L 250.5824 138.3165 L 250.5824 140.6757 L 250.5824 143.0349 L 250.5824 145.3941 L 250.5824 147.7532 L 250.5824 150.1124 L 250.5824 152.4716 L 250.5824 154.8308 L 250.5824 157.1899 L 250.5824 159.5491 L 250.5824 161.9083 L 250.5824 164.2675 L 250.5824 166.6267 L 250.5824 168.9858 L 250.5824 171.3450 L 250.5824 173.7042 L 250.5824 176.0634 L 250.5824 178.4225 L 250.5824 180.7817 L 250.5824 183.1409 L 250.5824 185.5001 L 250.5824 187.8593 L 250.5824 190.2184 L 250.5824 192.5776 L 250.5824 194.9368 L 250.5824 197.2960 L 250.5824 199.6551 L 250.5824 202.0143 L 250.5824 204.3735 L 250.5824 206.7327 L 250.5824 209.0919 L 250.5824 211.4510 L 250.5824 213.8102 L 250.5824 216.1694 L 250.5824 218.5286 L 250.5824 220.8878 L 250.5824 223.2469 L 250.5824 225.6061 L 250.5824 227.9653 L 250.5824 230.3245 L 250.5824 232.6836 L 250.5824 235.0428 L 250.5824 237.4020 L 250.5824 239.7612 L 250.5824 242.1204 L 250.5824 244.4795 L 250.5824 246.8387 L 250.5824 249.1979 L 250.5743 248.2825 L 250.5382 245.9236 L 250.4730 243.5653 L 250.3788 241.2080 L 250.2555 238.8521 L 250.1034 236.4978 L 249.9222 234.1456 L 249.7122 231.7959 L 249.4734 229.4488 L 249.2057 227.1049 L 248.9093 224.7644 L 248.5843 222.4277 L 248.2306 220.0952 L 247.8485 217.7672 L 247.4379 215.4441 L 246.9989 213.1261 L 246.5318 210.8137 L 246.0365 208.5071 L 245.5131 206.2067 L 244.9619 203.9128 L 244.3828 201.6258 L 243.7761 199.3460 L 243.1419 197.0737 L 242.4803 194.8092 L 241.7914 192.5529 L 241.0754 190.3050 L 240.3325 188.0659 L 239.5627 185.8358 L 238.7663 183.6151 L 237.9435 181.4041 L 237.0944 179.2030 L 236.2192 177.0122 L 235.3180 174.8320 L 234.3911 172.6625 L 233.4386 170.5042 L 232.4607 168.3572 L 231.4577 166.2219 L 230.4297 164.0985 L 229.3770 161.9872 L 228.2997 159.8884 L 227.1981 157.8022 L 226.0723 155.7290 L 224.9226 153.6689 L 223.7492 151.6223 L 222.5524 149.5892 L 221.3323 147.5701 L 220.0892 145.5650 L 218.8234 143.5742 L 217.5349 141.5979 L 216.2242 139.6364 L 214.8914 137.6898 L 213.5368 135.7583 L 212.1606 133.8421 L 210.7630 131.9415 L 209.3443 130.0565 L 207.9048 128.1874 L 206.4447 126.3344 L 204.9642 124.4976 L 203.4636 122.6772 L 201.9432 120.8733 L 200.4031 119.0862 L 198.8437 117.3159 L 197.2652 115.5626 L 195.6678 113.8265 L 194.0519 112.1077 L 192.4176 110.4062 L 190.7653 108.7224 L 189.0951 107.0562 L 187.4074 105.4078 L 185.7023 103.7773 L 183.9802 102.1648 L 182.2413 100.5705 L 180.4859 98.9944 L 178.7142 97.4366 L 176.9264 95.8973 L 175.1228 94.3765 L 173.3038 92.8743 L 171.4694 91.3907 L 169.6201 89.9260 L 167.7559 88.4801 L 165.8773 87.0531 L 163.9844 85.6450 L 162.0774 84.2561 L 160.1567 82.8862 L 158.2225 81.5355 L 156.2750 80.2040 L 154.3144 78.8918 L 152.3411 77.5988 L 150.3552 76.3253 L 151.4876 78.3198 L 152.6667 80.3632 L 153.8459 82.4065 L 155.0250 84.4499 L 156.2042 86.4932 L 157.3834 88.5366 L 158.5625 90.5799 L 159.7417 92.6233 L 160.9208 94.6666 L 162.1000 96.7100 L 163.2792 98.7534 L 164.4583 100.7967 L 165.6375 102.8401 L 166.8166 104.8834 L 167.9958 106.9268 L 169.1750 108.9701 L 170.3541 111.0135 L 171.5333 113.0568 L 172.7124 115.1002 L 173.8916 117.1436 L 175.0708 119.1869 L 176.2499 121.2303 L 177.4291 123.2736 L 178.6083 125.3170 L 179.7874 127.3603 L 180.9666 129.4037 L 182.1457 131.4470 L 183.3249 133.4904 L 184.5041 135.5337 L 185.6832 137.5771 L 186.8624 139.6205 L 188.0415 141.6638 L 189.2207 143.7072 L 190.3999 145.7505 L 191.5790 147.7939 L 192.7582 149.8372 L 193.9373 151.8806 L 195.1165 153.9239 L 196.2957 155.9673 L 197.4748 158.0107 L 198.6540 160.0540 L 199.8331 162.0974 L 201.0123 164.1407 L 202.1915 166.1841 L 203.3706 168.2274 L 204.5498 170.2708 L 205.7290 172.3141 L 206.9081 174.3575 L 208.0873 176.4008 L 209.2664 178.4442 L 210.4456 180.4876 L 211.6248 182.5309 L 212.8039 184.5743 L 213.9831 186.6176 L 215.1622 188.6610 L 216.3414 190.7043 L 217.5206 192.7477 L 218.6997 194.7910 L 219.8789 196.8344 L 221.0580 198.8778 L 222.2372 200.9211 L 223.4164 202.9645 L 224.5955 205.0078 L 225.7747 207.0512 L 226.9539 209.0945 L 228.1330 211.1379 L 229.3122 213.1812 L 230.4913 215.2246 L 231.6705 217.2679 L 232.8497 219.3113 L 234.0288 221.3547 L 235.2080 223.3980 L 236.3871 225.4414 L 237.5663 227.4847 L 238.7455 229.5281 L 239.9246 231.5714 L 241.1038 233.6148 L 242.2829 235.6581 L 243.4621 237.7015 L 244.6413 239.7449 L 245.8204 241.7882 L 246.9996 243.8316 L 248.1787 245.8749 L 249.3579 247.9183 L 250.5371 249.9616 L 249.3956 248.0133 L 248.1786 245.9923 L 246.9368 243.9864 L 245.6704 241.9959 L 244.3796 240.0212 L 243.0647 238.0625 L 241.7257 236.1201 L 240.3630 234.1943 L 238.9768 232.2854 L 237.5672 230.3936 L 236.1345 228.5193 L 234.6790 226.6627 L 233.2008 224.8240 L 231.7002 223.0036 L 230.1776 221.2016 L 228.6330 219.4184 L 227.0668 217.6541 L 225.4792 215.9090 L 223.8705 214.1834 L 222.2410 212.4774 L 220.5909 210.7914 L 218.9205 209.1254 L 217.2301 207.4797 L 215.5200 205.8546 L 213.7904 204.2502 L 212.0416 202.6667 L 210.2739 201.1044 L 208.4876 199.5633 L 206.6831 198.0437 L 204.8605 196.5458 L 203.0202 195.0696 L 201.1625 193.6155 L 199.2876 192.1835 L 197.3960 190.7737 L 195.4878 189.3864 L 193.5635 188.0217 L 191.6232 186.6797 L 189.6674 185.3604 L 187.6963 184.0642 L 185.7101 182.7910 L 183.7094 181.5410 L 181.6942 180.3142 L 179.6651 179.1108 L 177.6221 177.9310 L 175.5658 176.7746 L 173.4963 175.6419 L 171.4141 174.5330 L 169.3193 173.4478 L 167.2123 172.3865 L 165.0935 171.3491 L 162.9631 170.3357 L 160.8214 169.3463 L 158.6688 168.3810 L 156.5055 167.4398 L 154.3318 166.5228 L 152.1481 165.6300 L 149.9547 164.7613 L 147.7518 163.9169 L 145.5398 163.0968 L 143.3189 162.3009 L 141.0895 161.5293 L 138.8519 160.7820 L 136.6062 160.0589 L 134.3529 159.3602 L 132.0922 158.6856 L 129.8245 158.0354 L 127.5499 157.4093 L 125.2688 156.8075 L 122.9814 156.2299 L 120.6881 155.6764 L 118.3891 155.1471 L 116.0846 154.6418 L 113.7751 154.1606 L 111.4606 153.7034 L 109.1416 153.2702 L 106.8182 152.8609 L 104.4907 152.4755 L 102.1594 152.1138 L 99.8246 151.7759 L 97.4864 151.4617 L 95.1452 151.1712 L 92.8012 150.9041 L 90.4547 150.6606 L 88.1058 150.4405 L 85.7548 150.2437 L 83.4020 150.0701 L 81.0477 149.9198 L 78.6919 149.7925 L 77.2881 149.9644 L 79.3311 151.1442 L 81.3740 152.3240 L 83.4170 153.5038 L 85.4600 154.6836 L 87.5030 155.8634 L 89.5460 157.0432 L 91.5890 158.2231 L 93.6319 159.4029 L 95.6749 160.5827 L 97.7179 161.7625 L 99.7609 162.9423 L 101.8039 164.1221 L 103.8469 165.3019 L 105.8899 166.4817 L 107.9328 167.6615 L 109.9758 168.8413 L 112.0188 170.0211 L 114.0618 171.2009 L 116.1048 172.3807 L 118.1478 173.5605 L 120.1907 174.7403 L 122.2337 175.9201 L 124.2767 177.0999 L 126.3197 178.2797 L 128.3627 179.4595 L 130.4057 180.6393 L 132.4486 181.8191 L 134.4916 182.9989 L 136.5346 184.1787 L 138.5776 185.3585 L 140.6206 186.5383 L 142.6636 187.7181 L 144.7066 188.8979 L 146.7495 190.0777 L 148.7925 191.2575 L 150.8355 192.4373 L 152.8785 193.6171 L 154.9215 194.7970 L 156.9645 195.9768 L 159.0074 197.1566 L 161.0504 198.3364 L 163.0934 199.5162 L 165.1364 200.6960 L 167.1794 201.8758 L 169.2224 203.0556 L 171.2653 204.2354 L 173.3083 205.4152 L 175.3513 206.5950 L 177.3943 207.7748 L 179.4373 208.9546 L 181.4803 210.1344 L 183.5233 211.3142 L 185.5662 212.4940 L 187.6092 213.6738 L 189.6522 214.8536 L 191.6952 216.0334 L 193.7382 217.2132 L 195.7812 218.3930 L 197.8241 219.5728 L 199.8671 220.7526 L 201.9101 221.9324 L 203.9531 223.1122 L 205.9961 224.2920 L 208.0391 225.4718 L 210.0820 226.6516 L 212.1250 227.8314 L 214.1680 229.0112 L 216.2110 230.1910 L 218.2540 231.3708 L 220.2970 232.5507 L 222.3400 233.7305 L 224.3829 234.9103 L 226.4259 236.0901 L 228.4689 237.2699 L 230.5119 238.4497 L 232.5549 239.6295 L 234.5979 240.8093 L 236.6408 241.9891 L 238.6838 243.1689 L 240.7268 244.3487 L 242.7698 245.5285 L 244.8128 246.7083 L 246.8558 247.8881 L 248.8988 249.0679 L 250.0836 249.7532 L 248.0297 248.5923 L 245.9618 247.4569 L 243.8800 246.3470 L 241.7848 245.2628 L 239.6763 244.2044 L 237.5550 243.1721 L 235.4212 242.1659 L 233.2751 241.1860 L 231.1172 240.2326 L 228.9478 239.3057 L 226.7671 238.4054 L 224.5756 237.5320 L 222.3736 236.6854 L 220.1613 235.8659 L 217.9393 235.0734 L 215.7077 234.3081 L 213.4669 233.5701 L 211.2174 232.8594 L 208.9593 232.1761 L 206.6931 231.5203 L 204.4192 230.8920 L 202.1378 230.2912 L 199.8493 229.7181 L 197.5540 229.1727 L 195.2524 228.6549 L 192.9447 228.1649 L 190.6313 227.7025 L 188.3125 227.2680 L 185.9887 226.8611 L 183.6602 226.4821 L 181.3273 226.1307 L 178.9904 225.8072 L 176.6499 225.5113 L 174.3060 225.2431 L 171.9591 225.0026 L 169.6096 224.7898 L 167.2577 224.6045 L 164.9038 224.4468 L 162.5483 224.3166 L 160.1913 224.2138 L 157.8334 224.1384 L 155.4747 224.0904 L 153.1156 224.0696 L 150.7565 224.0760 L 148.3975 224.1095 L 146.0392 224.1700 L 143.6816 224.2574 L 141.3252 224.3717 L 138.9703 224.5126 L 136.6171 224.6803 L 134.2659 224.8744 L 131.9171 225.0950 L 129.5709 225.3418 L 127.2275 225.6149 L 124.8874 225.9140 L 122.5508 226.2391 L 120.2178 226.5899 L 117.8889 226.9664 L 115.5643 227.3685 L 113.2441 227.7960 L 110.9288 228.2487 L 108.6186 228.7266 L 106.3136 229.2294 L 104.0142 229.7571 L 101.7206 230.3094 L 99.4330 230.8862 L 97.1517 231.4873 L 94.8770 232.1127 L 92.6089 232.7621 L 90.3479 233.4354 L 88.0940 234.1323 L 85.8475 234.8528 L 83.6087 235.5966 L 81.3777 236.3637 L 79.1548 237.1537 L 76.9401 237.9666 L 74.7338 238.8021 L 72.5362 239.6601 L 70.3474 240.5405 L 68.1677 241.4429 L 65.9972 242.3673 L 63.8360 243.3134 L 61.6845 244.2811 L 59.5427 245.2702 L 57.4108 246.2805 L 55.2890 247.3118 L 53.1774 248.3640 L 51.0762 249.4367 L 50.9677 250.0402 L 53.3269 250.0402 L 55.6861 250.0402 L 58.0452 250.0402 L 60.4044 250.0402 L 62.7636 250.0402 L 65.1228 250.0402 L 67.4820 250.0402 L 69.8411 250.0402 L 72.2003 250.0402 L 74.5595 250.0402 L 76.9187 250.0402 L 79.2778 250.0402 L 81.6370 250.0402 L 83.9962 250.0402 L 86.3554 250.0402 L 88.7146 250.0402 L 91.0737 250.0402 L 93.4329 250.0402 L 95.7921 250.0402 L 98.1513 250.0402 L 100.5104 250.0402 L 102.8696 250.0402 L 105.2288 250.0402 L 107.5880 250.0402 L 109.9472 250.0402 L 112.3063 250.0402 L 114.6655 250.0402 L 117.0247 250.0402 L 119.3839 250.0402 L 121.7431 250.0402 L 124.1022 250.0402 L 126.4614 250.0402 L 128.8206 250.0402 L 131.1798 250.0402 L 133.5389 250.0402 L 135.8981 250.0402 L 138.2573 250.0402 L 140.6165 250.0402 L 142.9757 250.0402 L 145.3348 250.0402 L 147.6940 250.0402 L 150.0532 250.0402 L 152.4124 250.0402 L 154.7715 250.0402 L 157.1307 250.0402 L 159.4899 250.0402 L 161.8491 250.0402 L 164.2083 250.0402 L 166.5674 250.0402 L 168.9266 250.0402 L 171.2858 250.0402 L 173.6450 250.0402 L 176.0041 250.0402 L 178.3633 250.0402 L 180.7225 250.0402 L 183.0817 250.0402 L 185.4409 250.0402 L 187.8000 250.0402 L 190.1592 250.0402 L 192.5184 250.0402 L 194.8776 250.0402 L 197.2367 250.0402 L 199.5959 250.0402 L 201.9551 250.0402 L 204.3143 250.0402 L 206.6735 250.0402 L 209.0326 250.0402 L 211.3918 250.0402 L 213.7510 250.0402 L 216.1102 250.0402 L 218.4693 250.0402 L 220.8285 250.0402 L 223.1877 250.0402 L 225.5469 250.0402 L 227.9061 250.0402 L 230.2652 250.0402 L 232.6244 250.0402 L 234.9836 250.0402 L 237.3428 250.0402 L 239.7019 250.0402 L 242.0611 250.0402 L 244.4203 250.0402 L 246.7795 250.0402 L 249.1387 250.0402 L 249.4262 250.0437 L 247.0672 250.0724 L 244.7087 250.1302 L 242.3512 250.2170 L 239.9948 250.3328 L 237.6401 250.4776 L 235.2874 250.6514 L 232.9369 250.8540 L 230.5891 251.0856 L 228.2444 251.3459 L 225.9030 251.6349 L 223.5653 251.9527 L 221.2317 252.2991 L 218.9026 252.6740 L 216.5781 253.0773 L 214.2588 253.5090 L 211.9449 253.9690 L 209.6368 254.4572 L 207.3348 254.9734 L 205.0393 255.5175 L 202.7505 256.0895 L 200.4688 256.6891 L 198.1945 257.3164 L 195.9280 257.9710 L 193.6696 258.6530 L 191.4195 259.3621 L 189.1781 260.0981 L 186.9457 260.8611 L 184.7226 261.6506 L 182.5091 262.4667 L 180.3055 263.3092 L 178.1120 264.1778 L 175.9291 265.0724 L 173.7568 265.9927 L 171.5956 266.9387 L 169.4457 267.9101 L 167.3074 268.9067 L 165.1809 269.9284 L 163.0666 270.9748 L 160.9645 272.0459 L 158.8751 273.1413 L 156.7986 274.2610 L 154.7351 275.4046 L 152.6850 276.5719 L 150.6485 277.7628 L 148.6258 278.9770 L 146.6171 280.2142 L 144.6226 281.4743 L 142.6426 282.7570 L 140.6773 284.0621 L 138.7269 285.3893 L 136.7915 286.7383 L 134.8714 288.1091 L 132.9668 289.5012 L 131.0778 290.9145 L 129.2047 292.3488 L 127.3475 293.8037 L 125.5066 295.2790 L 123.6820 296.7745 L 121.8739 298.2899 L 120.0825 299.8250 L 118.3079 301.3795 L 116.5502 302.9531 L 114.8097 304.5457 L 113.0865 306.1569 L 111.3806 307.7865 L 109.6922 309.4343 L 108.0215 311.0999 L 106.3686 312.7832 L 104.7335 314.4839 L 103.1164 316.2017 L 101.5175 317.9363 L 99.9367 319.6876 L 98.3743 321.4552 L 96.8302 323.2389 L 95.3047 325.0384 L 93.7977 326.8535 L 92.3094 328.6840 L 90.8399 330.5296 L 89.3891 332.3900 L 87.9573 334.2649 L 86.5444 336.1543 L 85.1506 338.0576 L 83.7759 339.9749 L 82.4203 341.9057 L 81.0839 343.8498 L 79.7667 345.8071 L 78.4689 347.7772 L 77.1904 349.7599 L 78.3411 349.4356 L 80.3845 348.2565 L 82.4278 347.0773 L 84.4712 345.8981 L 86.5145 344.7190 L 88.5579 343.5398 L 90.6012 342.3607 L 92.6446 341.1815 L 94.6879 340.0023 L 96.7313 338.8232 L 98.7746 337.6440 L 100.8180 336.4649 L 102.8614 335.2857 L 104.9047 334.1065 L 106.9481 332.9274 L 108.9914 331.7482 L 111.0348 330.5690 L 113.0781 329.3899 L 115.1215 328.2107 L 117.1648 327.0316 L 119.2082 325.8524 L 121.2516 324.6732 L 123.2949 323.4941 L 125.3383 322.3149 L 127.3816 321.1358 L 129.4250 319.9566 L 131.4683 318.7774 L 133.5117 317.5983 L 135.5550 316.4191 L 137.5984 315.2400 L 139.6417 314.0608 L 141.6851 312.8816 L 143.7285 311.7025 L 145.7718 310.5233 L 147.8152 309.3442 L 149.8585 308.1650 L 151.9019 306.9858 L 153.9452 305.8067 L 155.9886 304.6275 L 158.0319 303.4483 L 160.0753 302.2692 L 162.1187 301.0900 L 164.1620 299.9109 L 166.2054 298.7317 L 168.2487 297.5525 L 170.2921 296.3734 L 172.3354 295.1942 L 174.3788 294.0151 L 176.4221 292.8359 L 178.4655 291.6567 L 180.5088 290.4776 L 182.5522 289.2984 L 184.5956 288.1193 L 186.6389 286.9401 L 188.6823 285.7609 L 190.7256 284.5818 L 192.7690 283.4026 L 194.8123 282.2235 L 196.8557 281.0443 L 198.8990 279.8651 L 200.9424 278.6860 L 202.9858 277.5068 L 205.0291 276.3276 L 207.0725 275.1485 L 209.1158 273.9693 L 211.1592 272.7902 L 213.2025 271.6110 L 215.2459 270.4318 L 217.2892 269.2527 L 219.3326 268.0735 L 221.3760 266.8944 L 223.4193 265.7152 L 225.4627 264.5360 L 227.5060 263.3569 L 229.5494 262.1777 L 231.5927 260.9986 L 233.6361 259.8194 L 235.6794 258.6402 L 237.7228 257.4611 L 239.7661 256.2819 L 241.8095 255.1028 L 243.8529 253.9236 L 245.8962 252.7444 L 247.9396 251.5653 L 249.9829 250.3861 L 249.0732 250.9207 L 247.0484 252.1313 L 245.0386 253.3668 L 243.0441 254.6270 L 241.0654 255.9115 L 239.1026 257.2203 L 237.1560 258.5532 L 235.2259 259.9099 L 233.3127 261.2901 L 231.4165 262.6938 L 229.5377 264.1206 L 227.6766 265.5704 L 225.8333 267.0428 L 224.0082 268.5376 L 222.2015 270.0547 L 220.4135 271.5937 L 218.6443 273.1544 L 216.8943 274.7366 L 215.1637 276.3399 L 213.4527 277.9641 L 211.7616 279.6090 L 210.0904 281.2742 L 208.4396 282.9596 L 206.8092 284.6647 L 205.1995 286.3894 L 203.6107 288.1333 L 202.0429 289.8962 L 200.4964 291.6778 L 198.9713 293.4777 L 197.4678 295.2957 L 195.9861 297.1315 L 194.5264 298.9848 L 193.0887 300.8553 L 191.6733 302.7427 L 190.2802 304.6467 L 188.9097 306.5669 L 187.5619 308.5032 L 186.2368 310.4551 L 184.9347 312.4223 L 183.6556 314.4046 L 182.3997 316.4017 L 181.1670 318.4132 L 179.9577 320.4388 L 178.7718 322.4783 L 177.6094 324.5312 L 176.4707 326.5974 L 175.3557 328.6764 L 174.2644 330.7680 L 173.1970 332.8719 L 172.1535 334.9878 L 171.1340 337.1152 L 170.1385 339.2541 L 169.1671 341.4040 L 168.2197 343.5646 L 167.2966 345.7356 L 166.3975 347.9167 L 165.5227 350.1077 L 164.6721 352.3082 L 163.8458 354.5179 L 163.0438 356.7366 L 162.2660 358.9638 L 161.5125 361.1994 L 160.7832 363.4431 L 160.0782 365.6944 L 159.3975 367.9533 L 158.7411 370.2193 L 158.1089 372.4921 L 157.5009 374.7716 L 156.9171 377.0574 L 156.3575 379.3492 L 155.8220 381.6468 L 155.3106 383.9499 L 154.8233 386.2582 L 154.3600 388.5714 L 153.9206 390.8893 L 153.5052 393.2116 L 153.1137 395.5381 L 152.7460 397.8684 L 152.4021 400.2024 L 152.0818 402.5397 L 151.7852 404.8802 L 151.5122 407.2235 L 151.2627 409.5694 L 151.0366 411.9177 L 150.8339 414.2682 L 150.6544 416.6205 L 150.4982 418.9745 L 150.3650 421.3299 L 150.2549 423.6865 L 151.3857 421.8124 L 152.5655 419.7694 L 153.7453 417.7264 L 154.9251 415.6834 L 156.1049 413.6404 L 157.2847 411.5974 L 158.4645 409.5544 L 159.6443 407.5115 L 160.8241 405.4685 L 162.0039 403.4255 L 163.1837 401.3825 L 164.3635 399.3395 L 165.5433 397.2965 L 166.7231 395.2536 L 167.9029 393.2106 L 169.0827 391.1676 L 170.2625 389.1246 L 171.4423 387.0816 L 172.6221 385.0386 L 173.8019 382.9957 L 174.9817 380.9527 L 176.1616 378.9097 L 177.3414 376.8667 L 178.5212 374.8237 L 179.7010 372.7807 L 180.8808 370.7377 L 182.0606 368.6948 L 183.2404 366.6518 L 184.4202 364.6088 L 185.6000 362.5658 L 186.7798 360.5228 L 187.9596 358.4798 L 189.1394 356.4369 L 190.3192 354.3939 L 191.4990 352.3509 L 192.6788 350.3079 L 193.8586 348.2649 L 195.0384 346.2219 L 196.2182 344.1789 L 197.3980 342.1360 L 198.5778 340.0930 L 199.7576 338.0500 L 200.9374 336.0070 L 202.1172 333.9640 L 203.2970 331.9210 L 204.4768 329.8781 L 205.6566 327.8351 L 206.8364 325.7921 L 208.0162 323.7491 L 209.1960 321.7061 L 210.3758 319.6631 L 211.5556 317.6202 L 212.7354 315.5772 L 213.9153 313.5342 L 215.0951 311.4912 L 216.2749 309.4482 L 217.4547 307.4052 L 218.6345 305.3622 L 219.8143 303.3193 L 220.9941 301.2763 L 222.1739 299.2333 L 223.3537 297.1903 L 224.5335 295.1473 L 225.7133 293.1043 L 226.8931 291.0614 L 228.0729 289.0184 L 229.2527 286.9754 L 230.4325 284.9324 L 231.6123 282.8894 L 232.7921 280.8464 L 233.9719 278.8035 L 235.1517 276.7605 L 236.3315 274.7175 L 237.5113 272.6745 L 238.6911 270.6315 L 239.8709 268.5885 L 241.0507 266.5455 L 242.2305 264.5026 L 243.4103 262.4596 L 244.5901 260.4166 L 245.7699 258.3736 L 246.9497 256.3306 L 248.1295 254.2876 L 249.3093 252.2447 L 250.4892 250.2017 L 249.4281 252.0678 L 248.2862 254.1322 L 247.1698 256.2105 L 246.0790 258.3023 L 245.0140 260.4075 L 243.9751 262.5255 L 242.9622 264.6562 L 241.9756 266.7991 L 241.0154 268.9541 L 240.0817 271.1206 L 239.1747 273.2984 L 238.2944 275.4872 L 237.4409 277.6866 L 236.6145 279.8962 L 235.8151 282.1159 L 235.0429 284.3450 L 234.2979 286.5835 L 233.5802 288.8308 L 232.8899 291.0868 L 232.2271 293.3509 L 231.5918 295.6229 L 230.9840 297.9024 L 230.4039 300.1892 L 229.8514 302.4827 L 229.3265 304.7828 L 228.8294 307.0890 L 228.3600 309.4009 L 227.9184 311.7184 L 227.5045 314.0410 L 227.1183 316.3683 L 226.7599 318.7001 L 226.4293 321.0360 L 226.1263 323.3756 L 225.8511 325.7187 L 225.6036 328.0648 L 225.3836 330.4137 L 225.1913 332.7650 L 225.0266 335.1184 L 224.8894 337.4736 L 224.7797 339.8302 L 224.6973 342.1879 L 224.6423 344.5465 L 224.6146 346.9055 L 224.6140 349.2646 L 224.6406 351.6236 L 224.6942 353.9822 L 224.7748 356.3400 L 224.8822 358.6967 L 225.0164 361.0520 L 225.1773 363.4057 L 225.3646 365.7574 L 225.5785 368.1069 L 225.8187 370.4538 L 226.0850 372.7979 L 226.3775 375.1388 L 226.6960 377.4764 L 227.0403 379.8103 L 227.4103 382.1403 L 227.8058 384.4661 L 228.2269 386.7873 L 228.6732 389.1039 L 229.1446 391.4155 L 229.6411 393.7218 L 230.1624 396.0227 L 230.7085 398.3178 L 231.2790 400.6069 L 231.8740 402.8898 L 232.4932 405.1663 L 233.1365 407.4360 L 233.8037 409.6989 L 234.4946 411.9546 L 235.2091 414.2030 L 235.9470 416.4438 L 236.7082 418.6768 L 237.4924 420.9018 L 238.2994 423.1186 L 239.1292 425.3271 L 239.9815 427.5269 L 240.8562 429.7179 L 241.7530 431.9000 L 242.6718 434.0729 L 243.6124 436.2364 L 244.5746 438.3905 L 245.5583 440.5348 L 246.5632 442.6692 L 247.5892 444.7936 L 248.6360 446.9078 L 249.7035 449.0116 L 250.5196 450.0000 L 250.5203 447.6408 L 250.5211 445.2816 L 250.5218 442.9225 L 250.5225 440.5633 L 250.5233 438.2041 L 250.5240 435.8449 L 250.5248 433.4858 L 250.5255 431.1266 L 250.5262 428.7674 L 250.5270 426.4082 L 250.5277 424.0490 L 250.5285 421.6899 L 250.5292 419.3307 L 250.5300 416.9715 L 250.5307 414.6123 L 250.5314 412.2532 L 250.5322 409.8940 L 250.5329 407.5348 L 250.5337 405.1756 L 250.5344 402.8164 L 250.5351 400.4573 L 250.5359 398.0981 L 250.5366 395.7389 L 250.5374 393.3797 L 250.5381 391.0206 L 250.5388 388.6614 L 250.5396 386.3022 L 250.5403 383.9430 L 250.5411 381.5838 L 250.5418 379.2247 L 250.5426 376.8655 L 250.5433 374.5063 L 250.5440 372.1471 L 250.5448 369.7880 L 250.5455 367.4288 L 250.5463 365.0696 L 250.5470 362.7104 L 250.5477 360.3512 L 250.5485 357.9921 L 250.5492 355.6329 L 250.5500 353.2737 L 250.5507 350.9145 L 250.5514 348.5554 L 250.5522 346.1962 L 250.5529 343.8370 L 250.5537 341.4778 L 250.5544 339.1186 L 250.5552 336.7595 L 250.5559 334.4003 L 250.5566 332.0411 L 250.5574 329.6819 L 250.5581 327.3228 L 250.5589 324.9636 L 250.5596 322.6044 L 250.5603 320.2452 L 250.5611 317.8860 L 250.5618 315.5269 L 250.5626 313.1677 L 250.5633 310.8085 L 250.5640 308.4493 L 250.5648 306.0902 L 250.5655 303.7310 L 250.5663 301.3718 L 250.5670 299.0126 L 250.5678 296.6534 L 250.5685 294.2943 L 250.5692 291.9351 L 250.5700 289.5759 L 250.5707 287.2167 L 250.5715 284.8576 L 250.5722 282.4984 L 250.5729 280.1392 L 250.5737 277.7800 L 250.5744 275.4208 L 250.5752 273.0617 L 250.5759 270.7025 L 250.5766 268.3433 L 250.5774 265.9841 L 250.5781 263.6250 L 250.5789 261.2658 L 250.5796 258.9066 L 250.5804 256.5474 L 250.5811 254.1882 L 250.5818 251.8291 L 250.5833 250.6104 L 250.6048 252.9695 L 250.6554 255.3281 L 250.7350 257.6859 L 250.8436 260.0426 L 250.9812 262.3977 L 251.1478 264.7510 L 251.3432 267.1021 L 251.5676 269.4505 L 251.8208 271.7961 L 252.1027 274.1383 L 252.4133 276.4769 L 252.7526 278.8116 L 253.1204 281.1419 L 253.5167 283.4675 L 253.9414 285.7882 L 254.3944 288.1034 L 254.8755 290.4130 L 255.3848 292.7166 L 255.9220 295.0137 L 256.4871 297.3042 L 257.0798 299.5877 L 257.7002 301.8638 L 258.3481 304.1323 L 259.0233 306.3928 L 259.7256 308.6450 L 260.4550 310.8885 L 261.2113 313.1232 L 261.9943 315.3486 L 262.8038 317.5646 L 263.6397 319.7707 L 264.5018 321.9667 L 265.3900 324.1523 L 266.3040 326.3272 L 267.2436 328.4912 L 268.2087 330.6439 L 269.1991 332.7851 L 270.2145 334.9146 L 271.2548 337.0320 L 272.3198 339.1371 L 273.4092 341.2296 L 274.5229 343.3094 L 275.6605 345.3761 L 276.8220 347.4296 L 278.0071 349.4695 L 279.2155 351.4957 L 280.4470 353.5079 L 281.7015 355.5059 L 282.9786 357.4895 L 284.2781 359.4585 L 285.5998 361.4126 L 286.9435 363.3518 L 288.3088 365.2757 L 289.6957 367.1842 L 291.1038 369.0770 L 292.5328 370.9541 L 293.9826 372.8152 L 295.4529 374.6602 L 296.9434 376.4889 L 298.4539 378.3011 L 299.9841 380.0967 L 301.5338 381.8755 L 303.1027 383.6373 L 304.6906 385.3821 L 306.2972 387.1097 L 307.9223 388.8199 L 309.5656 390.5126 L 311.2268 392.1877 L 312.9057 393.8451 L 314.6021 395.4846 L 316.3157 397.1061 L 318.0461 398.7096 L 319.7933 400.2949 L 321.5568 401.8619 L 323.3366 403.4105 L 325.1322 404.9407 L 326.9435 406.4523 L 328.7702 407.9452 L 330.6120 409.4194 L 332.4688 410.8748 L 334.3401 412.3114 L 336.2259 413.7290 L 338.1258 415.1275 L 340.0396 416.5070 L 341.9671 417.8674 L 343.9080 419.2085 L 345.8620 420.5305 L 347.8289 421.8331 L 349.8085 423.1164 L 350.2707 422.7890 L 349.0916 420.7456 L 347.9124 418.7023 L 346.7333 416.6589 L 345.5541 414.6156 L 344.3749 412.5722 L 343.1958 410.5289 L 342.0166 408.4855 L 340.8375 406.4421 L 339.6583 404.3988 L 338.4791 402.3554 L 337.3000 400.3121 L 336.1208 398.2687 L 334.9417 396.2254 L 333.7625 394.1820 L 332.5833 392.1387 L 331.4042 390.0953 L 330.2250 388.0519 L 329.0458 386.0086 L 327.8667 383.9652 L 326.6875 381.9219 L 325.5084 379.8785 L 324.3292 377.8352 L 323.1500 375.7918 L 321.9709 373.7485 L 320.7917 371.7051 L 319.6126 369.6618 L 318.4334 367.6184 L 317.2542 365.5750 L 316.0751 363.5317 L 314.8959 361.4883 L 313.7168 359.4450 L 312.5376 357.4016 L 311.3584 355.3583 L 310.1793 353.3149 L 309.0001 351.2716 L 307.8210 349.2282 L 306.6418 347.1848 L 305.4626 345.1415 L 304.2835 343.0981 L 303.1043 341.0548 L 301.9251 339.0114 L 300.7460 336.9681 L 299.5668 334.9247 L 298.3877 332.8814 L 297.2085 330.8380 L 296.0293 328.7947 L 294.8502 326.7513 L 293.6710 324.7079 L 292.4919 322.6646 L 291.3127 320.6212 L 290.1335 318.5779 L 288.9544 316.5345 L 287.7752 314.4912 L 286.5961 312.4478 L 285.4169 310.4045 L 284.2377 308.3611 L 283.0586 306.3177 L 281.8794 304.2744 L 280.7003 302.2310 L 279.5211 300.1877 L 278.3419 298.1443 L 277.1628 296.1010 L 275.9836 294.0576 L 274.8044 292.0143 L 273.6253 289.9709 L 272.4461 287.9275 L 271.2670 285.8842 L 270.0878 283.8408 L 268.9086 281.7975 L 267.7295 279.7541 L 266.5503 277.7108 L 265.3712 275.6674 L 264.1920 273.6241 L 263.0128 271.5807 L 261.8337 269.5374 L 260.6545 267.4940 L 259.4754 265.4506 L 258.2962 263.4073 L 257.1170 261.3639 L 255.9379 259.3206 L 254.7587 257.2772 L 253.5796 255.2339 L 252.4004 253.1905 L 251.2212 251.1472 L 251.1661 251.0441 L 252.3706 253.0727 L 253.5999 255.0862 L 254.8539 257.0845 L 256.1324 259.0672 L 257.4352 261.0340 L 258.7621 262.9846 L 260.1129 264.9188 L 261.4874 266.8362 L 262.8852 268.7367 L 264.3063 270.6198 L 265.7504 272.4853 L 267.2172 274.3331 L 268.7065 276.1627 L 270.2181 277.9740 L 271.7517 279.7667 L 273.3070 281.5406 L 274.8839 283.2953 L 276.4819 285.0308 L 278.1010 286.7467 L 279.7408 288.4428 L 281.4010 290.1189 L 283.0813 291.7748 L 284.7816 293.4103 L 286.5014 295.0252 L 288.2406 296.6192 L 289.9988 298.1922 L 291.7758 299.7440 L 293.5712 301.2744 L 295.3847 302.7833 L 297.2161 304.2704 L 299.0651 305.7357 L 300.9314 307.1788 L 302.8146 308.5998 L 304.7145 309.9984 L 306.6307 311.3745 L 308.5630 312.7280 L 310.5110 314.0587 L 312.4745 315.3666 L 314.4531 316.6514 L 316.4466 317.9131 L 318.4545 319.1516 L 320.4766 320.3667 L 322.5127 321.5584 L 324.5623 322.7266 L 326.6252 323.8712 L 328.7011 324.9921 L 330.7896 326.0893 L 332.8905 327.1626 L 335.0034 328.2120 L 337.1280 329.2375 L 339.2640 330.2390 L 341.4112 331.2164 L 343.5692 332.1698 L 345.7376 333.0990 L 347.9163 334.0040 L 350.1049 334.8848 L 352.3030 335.7414 L 354.5105 336.5737 L 356.7269 337.3818 L 358.9521 338.1657 L 361.1856 338.9252 L 363.4273 339.6605 L 365.6768 340.3715 L 367.9338 341.0582 L 370.1980 341.7207 L 372.4692 342.3589 L 374.7471 342.9729 L 377.0313 343.5627 L 379.3217 344.1283 L 381.6179 344.6698 L 383.9196 345.1872 L 386.2266 345.6805 L 388.5387 346.1497 L 390.8554 346.5950 L 393.1767 347.0164 L 395.5021 347.4138 L 397.8315 347.7874 L 400.1646 348.1373 L 402.5011 348.4634 L 404.8408 348.7658 L 407.1834 349.0447 L 409.5287 349.3001 L 411.8765 349.5320 L 414.2264 349.7405 L 416.5783 349.9257 L 418.9319 350.0877 L 421.2870 350.2266 L 423.6433 350.3424 L 422.8620 349.5299 L 420.8190 348.3501 L 418.7761 347.1703 L 416.7331 345.9905 L 414.6901 344.8107 L 412.6471 343.6309 L 410.6041 342.4511 L 408.5611 341.2713 L 406.5182 340.0915 L 404.4752 338.9117 L 402.4322 337.7319 L 400.3892 336.5521 L 398.3462 335.3723 L 396.3032 334.1925 L 394.2603 333.0127 L 392.2173 331.8329 L 390.1743 330.6531 L 388.1313 329.4733 L 386.0883 328.2934 L 384.0453 327.1136 L 382.0023 325.9338 L 379.9594 324.7540 L 377.9164 323.5742 L 375.8734 322.3944 L 373.8304 321.2146 L 371.7874 320.0348 L 369.7444 318.8550 L 367.7015 317.6752 L 365.6585 316.4954 L 363.6155 315.3156 L 361.5725 314.1358 L 359.5295 312.9560 L 357.4865 311.7762 L 355.4435 310.5964 L 353.4006 309.4166 L 351.3576 308.2368 L 349.3146 307.0570 L 347.2716 305.8772 L 345.2286 304.6974 L 343.1856 303.5176 L 341.1427 302.3378 L 339.0997 301.1580 L 337.0567 299.9782 L 335.0137 298.7984 L 332.9707 297.6186 L 330.9277 296.4388 L 328.8848 295.2590 L 326.8418 294.0792 L 324.7988 292.8994 L 322.7558 291.7195 L 320.7128 290.5397 L 318.6698 289.3599 L 316.6268 288.1801 L 314.5839 287.0003 L 312.5409 285.8205 L 310.4979 284.6407 L 308.4549 283.4609 L 306.4119 282.2811 L 304.3689 281.1013 L 302.3260 279.9215 L 300.2830 278.7417 L 298.2400 277.5619 L 296.1970 276.3821 L 294.1540 275.2023 L 292.1110 274.0225 L 290.0681 272.8427 L 288.0251 271.6629 L 285.9821 270.4831 L 283.9391 269.3033 L 281.8961 268.1235 L 279.8531 266.9437 L 277.8101 265.7639 L 275.7672 264.5841 L 273.7242 263.4043 L 271.6812 262.2245 L 269.6382 261.0447 L 267.5952 259.8649 L 265.5522 258.6851 L 263.5093 257.5053 L 261.4663 256.3255 L 259.4233 255.1457 L 257.3803 253.9658 L 255.3373 252.7860 L 253.2943 251.6062 L 251.2513 250.4264 L 252.0995 250.9069 L 254.1604 252.0551 L 256.2352 253.1779 L 258.3238 254.2750 L 260.4256 255.3464 L 262.5405 256.3919 L 264.6680 257.4112 L 266.8080 258.4044 L 268.9600 259.3711 L 271.1236 260.3114 L 273.2987 261.2251 L 275.4848 262.1120 L 277.6816 262.9721 L 279.8887 263.8053 L 282.1059 264.6114 L 284.3327 265.3904 L 286.5689 266.1422 L 288.8141 266.8666 L 291.0679 267.5637 L 293.3300 268.2334 L 295.6001 268.8755 L 297.8778 269.4902 L 300.1628 270.0772 L 302.4547 270.6365 L 304.7531 271.1682 L 307.0578 271.6723 L 309.3684 272.1485 L 311.6845 272.5971 L 314.0059 273.0179 L 316.3321 273.4109 L 318.6628 273.7762 L 320.9977 274.1137 L 323.3364 274.4236 L 325.6786 274.7057 L 328.0240 274.9601 L 330.3723 275.1869 L 332.7230 275.3860 L 335.0759 275.5576 L 337.4307 275.7016 L 339.7870 275.8182 L 342.1445 275.9073 L 344.5028 275.9691 L 346.8617 276.0036 L 349.2209 276.0109 L 351.5800 275.9911 L 353.9387 275.9442 L 356.2967 275.8703 L 358.6537 275.7695 L 361.0094 275.6420 L 363.3635 275.4877 L 365.7158 275.3069 L 368.0658 275.0996 L 370.4134 274.8660 L 372.7582 274.6061 L 375.0999 274.3201 L 377.4384 274.0081 L 379.7732 273.6702 L 382.1042 273.3066 L 384.4310 272.9173 L 386.7535 272.5026 L 389.0712 272.0626 L 391.3841 271.5974 L 393.6917 271.1071 L 395.9940 270.5919 L 398.2905 270.0520 L 400.5811 269.4875 L 402.8656 268.8986 L 405.1437 268.2854 L 407.4152 267.6481 L 409.6797 266.9868 L 411.9373 266.3017 L 414.1875 265.5931 L 416.4302 264.8610 L 418.6651 264.1056 L 420.8922 263.3271 L 423.1110 262.5257 L 425.3216 261.7016 L 427.5236 260.8548 L 429.7168 259.9857 L 431.9011 259.0944 L 434.0763 258.1810 L 436.2422 257.2458 L 438.3986 256.2889 L 440.5453 255.3106 L 442.6822 254.3109 L 444.8091 253.2902 L 446.9259 252.2485 L 449.0323 251.1861" 
        fill="none" 
        stroke="#1565C0" 
        stroke-width="0.8"
        stroke-linecap="round"
        stroke-linejoin="round"/>
</svg>