<?xml version="1.0" encoding="UTF-8"?>
<svg xmlns="http://www.w3.org/2000/svg" 
     width="500.0" height="500.0" 
     viewBox="0 0 500.0 500.0">
  <rect width="100%" height="100%" fill="#ffffff"/>
  <path d="M 250.2605 250.0605 L 251.0775 249.6331 L 251.8944 249.2055 L 252.7111 248.7775 L 253.5276 248.3493 L 254.3439 247.9207 L 255.1601 247.4918 L 255.9762 247.0626 L 256.7920 246.6330 L 257.6077 246.2032 L 258.4233 245.7730 L 259.2386 245.3426 L 260.0538 244.9118 L 260.8689 244.4807 L 261.6837 244.0493 L 262.4985 243.6176 L 263.3130 243.1855 L 264.1274 242.7532 L 264.9416 242.3205 L 265.7556 241.8875 L 266.5695 241.4543 L 267.3832 241.0207 L 268.1967 240.5868 L 269.0101 240.1525 L 269.8233 239.7180 L 270.6364 239.2831 L 271.4492 238.8480 L 272.2619 238.4125 L 273.0745 237.9767 L 273.8868 237.5406 L 274.6990 237.1042 L 275.5111 236.6675 L 276.3229 236.2304 L 277.1346 235.7931 L 277.9462 235.3554 L 278.7575 234.9174 L 279.5687 234.4791 L 280.3798 234.0405 L 281.1906 233.6016 L 282.0013 233.1624 L 282.8118 232.7229 L 283.6222 232.2830 L 284.4323 231.8429 L 285.2424 231.4024 L 286.0522 230.9616 L 286.8619 230.5205 L 287.6714 230.0791 L 288.4807 229.6374 L 289.2899 229.1954 L 290.0988 228.7530 L 290.9077 228.3104 L 291.7163 227.8674 L 292.5248 227.4241 L 293.3331 226.9805 L 294.1412 226.5367 L 294.9492 226.0924 L 295.7570 225.6479 L 296.5646 225.2031 L 297.3721 224.7580 L 298.1794 224.3125 L 298.9865 223.8668 L 299.7934 223.4207 L 300.6002 222.9743 L 301.4068 222.5276 L 302.2132 222.0806 L 303.0195 221.6333 L 303.8255 221.1857 L 304.6315 220.7378 L 305.4372 220.2895 L 306.2428 219.8410 L 307.0481 219.3921 L 307.8534 218.9430 L 308.6584 218.4935 L 309.4633 218.0437 L 310.2680 217.5936 L 311.0725 217.1432 L 311.8769 216.6925 L 312.6811 216.2414 L 313.4851 215.7901 L 314.2889 215.3385 L 315.0925 214.8865 L 315.8960 214.4342 L 316.6993 213.9817 L 317.5025 213.5288 L 318.3055 213.0756 L 319.1082 212.6221 L 319.9109 212.1683 L 320.7133 211.7142 L 321.5156 211.2598 L 322.3176 210.8050 L 323.1196 210.3500 L 323.9213 209.8946 L 324.7229 209.4390 L 325.5243 208.9830 L 326.3255 208.5267 L 327.1265 208.0702 L 327.9274 207.6133 L 328.7281 207.1561 L 329.5286 206.6986 L 330.3289 206.2408 L 331.1291 205.7826 L 331.9291 205.3242 L 332.7289 204.8655 L 333.5285 204.4064 L 334.3279 203.9471 L 335.1272 203.4874 L 335.9263 203.0275 L 336.7252 202.5672 L 337.5240 202.1066 L 338.3226 201.6457 L 339.1210 201.1845 L 339.9192 200.7230 L 340.7172 200.2612 L 341.5151 199.7991 L 342.3127 199.3367 L 343.1102 198.8739 L 343.9076 198.4109 L 344.7047 197.9476 L 345.5017 197.4839 L 346.2985 197.0200 L 347.0951 196.5557 L 347.8915 196.0911 L 348.6878 195.6263 L 349.4839 195.1611 L 350.2798 194.6956 L 351.0755 194.2298 L 351.8710 193.7637 L 352.6664 193.2973 L 353.4616 192.8306 L 354.2566 192.3636 L 355.0514 191.8963 L 355.8460 191.4286 L 356.6405 190.9607 L 357.4348 190.4925 L 358.2289 190.0239 L 359.0228 189.5551 L 359.8165 189.0859 L 360.6101 188.6165 L 361.4035 188.1467 L 362.1967 187.6767 L 362.9897 187.2063 L 363.7826 186.7356 L 364.5752 186.2646 L 365.3677 185.7933 L 366.1600 185.3217 L 366.9521 184.8499 L 367.7440 184.3777 L 368.5358 183.9051 L 369.3273 183.4323 L 370.1187 182.9592 L 370.9099 182.4858 L 371.7010 182.0121 L 372.4918 181.5381 L 373.2825 181.0637 L 374.0730 180.5891 L 374.8632 180.1142 L 375.6534 179.6389 L 376.4433 179.1634 L 377.2330 178.6875 L 378.0226 178.2114 L 378.8120 177.7349 L 379.6012 177.2582 L 380.3902 176.7811 L 381.1790 176.3038 L 381.9677 175.8261 L 382.7561 175.3481 L 383.5444 174.8698 L 384.3325 174.3913 L 385.1204 173.9124 L 385.9081 173.4332 L 386.6957 172.9537 L 387.4831 172.4740 L 388.2702 171.9939 L 389.0572 171.5135 L 389.8440 171.0328 L 390.6306 170.5518 L 391.4171 170.0705 L 392.2033 169.5889 L 392.9894 169.1070 L 393.7753 168.6248 L 394.5610 168.1423 L 395.3465 167.6595 L 396.1318 167.1764 L 396.9169 166.6929 L 397.7019 166.2092 L 398.4867 165.7252 L 399.2713 165.2409 L 400.0556 164.7563 L 400.8399 164.2714 L 401.6239 163.7861 L 402.4077 163.3006 L 403.1914 162.8148 L 403.9748 162.3287 L 404.7581 161.8422 L 405.5412 161.3555 L 406.3241 160.8685 L 407.1068 160.3812 L 407.8893 159.8935 L 408.6717 159.4056 L 409.4538 158.9174 L 410.2358 158.4289 L 411.0176 157.9400 L 411.7992 157.4509 L 412.5806 156.9615 L 413.3618 156.4717 L 414.1428 155.9817 L 414.9236 155.4914 L 415.7043 155.0008 L 416.4847 154.5098 L 417.2650 154.0186 L 418.0451 153.5271 L 418.8250 153.0352 L 419.6047 152.5431 L 420.3842 152.0507 L 421.1636 151.5580 L 421.9427 151.0649 L 422.7216 150.5716 L 423.5004 150.0780 L 423.3518 150.1455 L 422.5533 150.6064 L 421.7548 151.0674 L 420.9562 151.5283 L 420.1577 151.9893 L 419.3591 152.4502 L 418.5606 152.9111 L 417.7621 153.3721 L 416.9635 153.8330 L 416.1650 154.2940 L 415.3665 154.7549 L 414.5679 155.2159 L 413.7694 155.6768 L 412.9709 156.1378 L 412.1723 156.5987 L 411.3738 157.0597 L 410.5753 157.5206 L 409.7767 157.9815 L 408.9782 158.4425 L 408.1796 158.9034 L 407.3811 159.3644 L 406.5826 159.8253 L 405.7840 160.2863 L 404.9855 160.7472 L 404.1870 161.2082 L 403.3884 161.6691 L 402.5899 162.1301 L 401.7914 162.5910 L 400.9928 163.0519 L 400.1943 163.5129 L 399.3958 163.9738 L 398.5972 164.4348 L 397.7987 164.8957 L 397.0001 165.3567 L 396.2016 165.8176 L 395.4031 166.2786 L 394.6045 166.7395 L 393.8060 167.2005 L 393.0075 167.6614 L 392.2089 168.1224 L 391.4104 168.5833 L 390.6119 169.0442 L 389.8133 169.5052 L 389.0148 169.9661 L 388.2163 170.4271 L 387.4177 170.8880 L 386.6192 171.3490 L 385.8206 171.8099 L 385.0221 172.2709 L 384.2236 172.7318 L 383.4250 173.1928 L 382.6265 173.6537 L 381.8280 174.1146 L 381.0294 174.5756 L 380.2309 175.0365 L 379.4324 175.4975 L 378.6338 175.9584 L 377.8353 176.4194 L 377.0368 176.8803 L 376.2382 177.3413 L 375.4397 177.8022 L 374.6411 178.2632 L 373.8426 178.7241 L 373.0441 179.1850 L 372.2455 179.6460 L 371.4470 180.1069 L 370.6485 180.5679 L 369.8499 181.0288 L 369.0514 181.4898 L 368.2529 181.9507 L 367.4543 182.4117 L 366.6558 182.8726 L 365.8573 183.3336 L 365.0587 183.7945 L 364.2602 184.2554 L 363.4616 184.7164 L 362.6631 185.1773 L 361.8646 185.6383 L 361.0660 186.0992 L 360.2675 186.5602 L 359.4690 187.0211 L 358.6704 187.4821 L 357.8719 187.9430 L 357.0734 188.4040 L 356.2748 188.8649 L 355.4763 189.3258 L 354.6778 189.7868 L 353.8792 190.2477 L 353.0807 190.7087 L 352.2821 191.1696 L 351.4836 191.6306 L 350.6851 192.0915 L 349.8865 192.5525 L 349.0880 193.0134 L 348.2895 193.4744 L 347.4909 193.9353 L 346.6924 194.3963 L 345.8939 194.8572 L 345.0953 195.3181 L 344.2968 195.7791 L 343.4983 196.2400 L 342.6997 196.7010 L 341.9012 197.1619 L 341.1026 197.6229 L 340.3041 198.0838 L 339.5056 198.5448 L 338.7070 199.0057 L 337.9085 199.4667 L 337.1100 199.9276 L 336.3114 200.3885 L 335.5129 200.8495 L 334.7144 201.3104 L 333.9158 201.7714 L 333.1173 202.2323 L 332.3188 202.6933 L 331.5202 203.1542 L 330.7217 203.6152 L 329.9231 204.0761 L 329.1246 204.5371 L 328.3261 204.9980 L 327.5275 205.4589 L 326.7290 205.9199 L 325.9305 206.3808 L 325.1319 206.8418 L 324.3334 207.3027 L 323.5349 207.7637 L 322.7363 208.2246 L 321.9378 208.6856 L 321.1393 209.1465 L 320.3407 209.6075 L 319.5422 210.0684 L 318.7436 210.5293 L 317.9451 210.9903 L 317.1466 211.4512 L 316.3480 211.9122 L 315.5495 212.3731 L 314.7510 212.8341 L 313.9524 213.2950 L 313.1539 213.7560 L 312.3554 214.2169 L 311.5568 214.6779 L 310.7583 215.1388 L 309.9598 215.5997 L 309.1612 216.0607 L 308.3627 216.5216 L 307.5641 216.9826 L 306.7656 217.4435 L 305.9671 217.9045 L 305.1685 218.3654 L 304.3700 218.8264 L 303.5715 219.2873 L 302.7729 219.7483 L 301.9744 220.2092 L 301.1759 220.6702 L 300.3773 221.1311 L 299.5788 221.5920 L 298.7803 222.0530 L 297.9817 222.5139 L 297.1832 222.9749 L 296.3846 223.4358 L 295.5861 223.8968 L 294.7876 224.3577 L 293.9890 224.8187 L 293.1905 225.2796 L 292.3920 225.7406 L 291.5934 226.2015 L 290.7949 226.6624 L 289.9964 227.1234 L 289.1978 227.5843 L 288.3993 228.0453 L 287.6008 228.5062 L 286.8022 228.9672 L 286.0037 229.4281 L 285.2051 229.8891 L 284.4066 230.3500 L 283.6081 230.8110 L 282.8095 231.2719 L 282.0110 231.7328 L 281.2125 232.1938 L 280.4139 232.6547 L 279.6154 233.1157 L 278.8169 233.5766 L 278.0183 234.0376 L 277.2198 234.4985 L 276.4213 234.9595 L 275.6227 235.4204 L 274.8242 235.8814 L 274.0256 236.3423 L 273.2271 236.8032 L 272.4286 237.2642 L 271.6300 237.7251 L 270.8315 238.1861 L 270.0330 238.6470 L 269.2344 239.1080 L 268.4359 239.5689 L 267.6374 240.0299 L 266.8388 240.4908 L 266.0403 240.9518 L 265.2418 241.4127 L 264.4432 241.8736 L 263.6447 242.3346 L 262.8461 242.7955 L 262.0476 243.2565 L 261.2491 243.7174 L 260.4505 244.1784 L 259.6520 244.6393 L 258.8535 245.1003 L 258.0549 245.5612 L 257.2564 246.0222 L 256.4579 246.4831 L 255.6593 246.9441 L 254.8608 247.4050 L 254.0623 247.8659 L 253.2637 248.3269 L 252.4652 248.7878 L 251.6666 249.2488 L 250.8681 249.7097 L 250.3786 249.8743 L 250.8724 249.0957 L 251.3659 248.3169 L 251.8592 247.5379 L 252.3521 246.7587 L 252.8447 245.9793 L 253.3370 245.1997 L 253.8291 244.4199 L 254.3208 243.6400 L 254.8122 242.8598 L 255.3033 242.0795 L 255.7942 241.2990 L 256.2847 240.5182 L 256.7749 239.7373 L 257.2648 238.9562 L 257.7545 238.1750 L 258.2438 237.3935 L 258.7328 236.6118 L 259.2215 235.8300 L 259.7099 235.0480 L 260.1981 234.2658 L 260.6859 233.4833 L 261.1734 232.7007 L 261.6606 231.9180 L 262.1476 231.1350 L 262.6342 230.3518 L 263.1205 229.5685 L 263.6065 228.7850 L 264.0922 228.0012 L 264.5776 227.2173 L 265.0627 226.4332 L 265.5475 225.6490 L 266.0320 224.8645 L 266.5162 224.0798 L 267.0001 223.2950 L 267.4837 222.5100 L 267.9670 221.7248 L 268.4500 220.9394 L 268.9327 220.1538 L 269.4151 219.3680 L 269.8972 218.5821 L 270.3790 217.7959 L 270.8605 217.0096 L 271.3416 216.2231 L 271.8225 215.4364 L 272.3031 214.6495 L 272.7834 213.8625 L 273.2633 213.0752 L 273.7430 212.2878 L 274.2224 211.5002 L 274.7014 210.7124 L 275.1802 209.9244 L 275.6587 209.1362 L 276.1368 208.3479 L 276.6147 207.5593 L 277.0922 206.7706 L 277.5694 205.9817 L 278.0464 205.1926 L 278.5230 204.4033 L 278.9993 203.6139 L 279.4754 202.8243 L 279.9511 202.0344 L 280.4265 201.2444 L 280.9016 200.4542 L 281.3764 199.6639 L 281.8510 198.8733 L 282.3252 198.0826 L 282.7991 197.2917 L 283.2726 196.5006 L 283.7460 195.7093 L 284.2189 194.9178 L 284.6916 194.1262 L 285.1640 193.3344 L 285.6361 192.5424 L 286.1078 191.7502 L 286.5793 190.9578 L 287.0505 190.1652 L 287.5213 189.3725 L 287.9919 188.5796 L 288.4621 187.7865 L 288.9320 186.9932 L 289.4017 186.1998 L 289.8710 185.4061 L 290.3400 184.6123 L 290.8088 183.8183 L 291.2772 183.0241 L 291.7453 182.2298 L 292.2131 181.4352 L 292.6806 180.6405 L 293.1478 179.8456 L 293.6147 179.0505 L 294.0812 178.2553 L 294.5475 177.4599 L 295.0135 176.6642 L 295.4791 175.8684 L 295.9445 175.0725 L 296.4095 174.2763 L 296.8743 173.4800 L 297.3387 172.6835 L 297.8029 171.8868 L 298.2667 171.0899 L 298.7302 170.2929 L 299.1934 169.4956 L 299.6563 168.6983 L 300.1189 167.9007 L 300.5812 167.1029 L 301.0432 166.3050 L 301.5049 165.5069 L 301.9662 164.7086 L 302.4273 163.9101 L 302.8881 163.1115 L 303.3485 162.3126 L 303.8087 161.5136 L 304.2685 160.7145 L 304.7280 159.9151 L 305.1872 159.1156 L 305.6462 158.3159 L 306.1048 157.5160 L 306.5631 156.7160 L 307.0210 155.9157 L 307.4787 155.1153 L 307.9361 154.3147 L 308.3932 153.5140 L 308.8499 152.7130 L 309.3064 151.9119 L 309.7625 151.1106 L 310.2184 150.3092 L 310.6739 149.5075 L 311.1291 148.7057 L 311.5840 147.9037 L 312.0386 147.1015 L 312.4929 146.2992 L 312.9469 145.4967 L 313.4006 144.6940 L 313.8540 143.8911 L 314.3070 143.0881 L 314.7598 142.2849 L 315.2122 141.4815 L 315.6643 140.6780 L 316.1162 139.8742 L 316.5677 139.0703 L 317.0189 138.2662 L 317.4698 137.4620 L 317.9204 136.6576 L 318.3707 135.8530 L 318.8206 135.0482 L 319.2703 134.2433 L 319.7196 133.4381 L 320.1687 132.6328 L 320.6174 131.8274 L 321.0658 131.0218 L 321.5139 130.2159 L 321.9618 129.4100 L 322.4092 128.6038 L 322.8564 127.7975 L 323.3033 126.9910 L 323.7499 126.1843 L 324.1961 125.3775 L 324.6421 124.5705 L 325.0877 123.7633 L 325.5330 122.9559 L 325.9780 122.1484 L 326.4227 121.3407 L 326.8671 120.5329 L 327.3112 119.7248 L 327.7550 118.9166 L 328.1984 118.1082 L 328.6416 117.2997 L 329.0844 116.4910 L 329.5270 115.6821 L 329.9692 114.8730 L 330.4111 114.0638 L 330.8527 113.2544 L 331.2940 112.4448 L 331.7349 111.6351 L 332.1756 110.8252 L 332.6159 110.0151 L 333.0560 109.2049 L 333.4957 108.3945 L 333.9351 107.5839 L 334.3742 106.7731 L 334.8130 105.9622 L 335.2515 105.1511 L 335.6897 104.3399 L 336.1275 103.5284 L 336.5651 102.7168 L 337.0023 101.9051 L 337.4392 101.0932 L 337.8759 100.2811 L 338.3121 99.4688 L 338.7481 98.6564 L 339.1838 97.8438 L 339.6192 97.0310 L 340.0542 96.2181 L 340.4890 95.4050 L 340.9234 94.5917 L 341.3575 93.7783 L 341.7913 92.9647 L 342.2248 92.1509 L 342.6580 91.3370 L 343.0908 90.5229 L 343.5234 89.7086 L 343.9556 88.8942 L 344.3875 88.0796 L 344.8191 87.2648 L 345.2505 86.4499 L 345.6814 85.6348 L 346.1121 84.8195 L 346.5425 84.0041 L 346.9725 83.1885 L 347.4022 82.3727 L 347.8317 81.5568 L 348.2608 80.7407 L 348.6896 79.9245 L 349.1180 79.1081 L 349.5462 78.2915 L 349.9741 77.4747 L 350.4016 76.6578 L 350.2879 76.8246 L 349.8269 77.6231 L 349.3658 78.4216 L 348.9048 79.2201 L 348.4437 80.0186 L 347.9827 80.8170 L 347.5216 81.6155 L 347.0606 82.4140 L 346.5995 83.2125 L 346.1385 84.0109 L 345.6775 84.8094 L 345.2164 85.6079 L 344.7554 86.4064 L 344.2943 87.2049 L 343.8333 88.0033 L 343.3722 88.8018 L 342.9112 89.6003 L 342.4501 90.3988 L 341.9891 91.1972 L 341.5280 91.9957 L 341.0670 92.7942 L 340.6059 93.5927 L 340.1449 94.3912 L 339.6839 95.1896 L 339.2228 95.9881 L 338.7618 96.7866 L 338.3007 97.5851 L 337.8397 98.3835 L 337.3786 99.1820 L 336.9176 99.9805 L 336.4565 100.7790 L 335.9955 101.5775 L 335.5344 102.3759 L 335.0734 103.1744 L 334.6123 103.9729 L 334.1513 104.7714 L 333.6903 105.5698 L 333.2292 106.3683 L 332.7682 107.1668 L 332.3071 107.9653 L 331.8461 108.7638 L 331.3850 109.5622 L 330.9240 110.3607 L 330.4629 111.1592 L 330.0019 111.9577 L 329.5408 112.7561 L 329.0798 113.5546 L 328.6188 114.3531 L 328.1577 115.1516 L 327.6967 115.9501 L 327.2356 116.7485 L 326.7746 117.5470 L 326.3135 118.3455 L 325.8525 119.1440 L 325.3914 119.9424 L 324.9304 120.7409 L 324.4693 121.5394 L 324.0083 122.3379 L 323.5472 123.1364 L 323.0862 123.9348 L 322.6252 124.7333 L 322.1641 125.5318 L 321.7031 126.3303 L 321.2420 127.1287 L 320.7810 127.9272 L 320.3199 128.7257 L 319.8589 129.5242 L 319.3978 130.3227 L 318.9368 131.1211 L 318.4757 131.9196 L 318.0147 132.7181 L 317.5536 133.5166 L 317.0926 134.3150 L 316.6316 135.1135 L 316.1705 135.9120 L 315.7095 136.7105 L 315.2484 137.5090 L 314.7874 138.3074 L 314.3263 139.1059 L 313.8653 139.9044 L 313.4042 140.7029 L 312.9432 141.5013 L 312.4821 142.2998 L 312.0211 143.0983 L 311.5601 143.8968 L 311.0990 144.6953 L 310.6380 145.4937 L 310.1769 146.2922 L 309.7159 147.0907 L 309.2548 147.8892 L 308.7938 148.6876 L 308.3327 149.4861 L 307.8717 150.2846 L 307.4106 151.0831 L 306.9496 151.8816 L 306.4885 152.6800 L 306.0275 153.4785 L 305.5665 154.2770 L 305.1054 155.0755 L 304.6444 155.8739 L 304.1833 156.6724 L 303.7223 157.4709 L 303.2612 158.2694 L 302.8002 159.0679 L 302.3391 159.8663 L 301.8781 160.6648 L 301.4170 161.4633 L 300.9560 162.2618 L 300.4949 163.0602 L 300.0339 163.8587 L 299.5729 164.6572 L 299.1118 165.4557 L 298.6508 166.2542 L 298.1897 167.0526 L 297.7287 167.8511 L 297.2676 168.6496 L 296.8066 169.4481 L 296.3455 170.2465 L 295.8845 171.0450 L 295.4234 171.8435 L 294.9624 172.6420 L 294.5013 173.4405 L 294.0403 174.2389 L 293.5793 175.0374 L 293.1182 175.8359 L 292.6572 176.6344 L 292.1961 177.4328 L 291.7351 178.2313 L 291.2740 179.0298 L 290.8130 179.8283 L 290.3519 180.6268 L 289.8909 181.4252 L 289.4298 182.2237 L 288.9688 183.0222 L 288.5078 183.8207 L 288.0467 184.6191 L 287.5857 185.4176 L 287.1246 186.2161 L 286.6636 187.0146 L 286.2025 187.8131 L 285.7415 188.6115 L 285.2804 189.4100 L 284.8194 190.2085 L 284.3583 191.0070 L 283.8973 191.8054 L 283.4362 192.6039 L 282.9752 193.4024 L 282.5142 194.2009 L 282.0531 194.9994 L 281.5921 195.7978 L 281.1310 196.5963 L 280.6700 197.3948 L 280.2089 198.1933 L 279.7479 198.9917 L 279.2868 199.7902 L 278.8258 200.5887 L 278.3647 201.3872 L 277.9037 202.1857 L 277.4426 202.9841 L 276.9816 203.7826 L 276.5206 204.5811 L 276.0595 205.3796 L 275.5985 206.1780 L 275.1374 206.9765 L 274.6764 207.7750 L 274.2153 208.5735 L 273.7543 209.3720 L 273.2932 210.1704 L 272.8322 210.9689 L 272.3711 211.7674 L 271.9101 212.5659 L 271.4491 213.3643 L 270.9880 214.1628 L 270.5270 214.9613 L 270.0659 215.7598 L 269.6049 216.5583 L 269.1438 217.3567 L 268.6828 218.1552 L 268.2217 218.9537 L 267.7607 219.7522 L 267.2996 220.5506 L 266.8386 221.3491 L 266.3775 222.1476 L 265.9165 222.9461 L 265.4555 223.7446 L 264.9944 224.5430 L 264.5334 225.3415 L 264.0723 226.1400 L 263.6113 226.9385 L 263.1502 227.7369 L 262.6892 228.5354 L 262.2281 229.3339 L 261.7671 230.1324 L 261.3060 230.9309 L 260.8450 231.7293 L 260.3839 232.5278 L 259.9229 233.3263 L 259.4619 234.1248 L 259.0008 234.9232 L 258.5398 235.7217 L 258.0787 236.5202 L 257.6177 237.3187 L 257.1566 238.1172 L 256.6956 238.9156 L 256.2345 239.7141 L 255.7735 240.5126 L 255.3124 241.3111 L 254.8514 242.1095 L 254.3904 242.9080 L 253.9293 243.7065 L 253.4683 244.5050 L 253.0072 245.3035 L 252.5462 246.1019 L 252.0851 246.9004 L 251.6241 247.6989 L 251.1630 248.4974 L 250.7020 249.2958 L 250.2621 250.0214 L 250.3005 249.1002 L 250.3386 248.1789 L 250.3763 247.2577 L 250.4137 246.3364 L 250.4507 245.4151 L 250.4873 244.4938 L 250.5236 243.5725 L 250.5595 242.6512 L 250.5951 241.7299 L 250.6304 240.8085 L 250.6652 239.8872 L 250.6997 238.9658 L 250.7339 238.0444 L 250.7677 237.1230 L 250.8012 236.2016 L 250.8343 235.2801 L 250.8670 234.3587 L 250.8994 233.4372 L 250.9315 232.5158 L 250.9631 231.5943 L 250.9945 230.6728 L 251.0254 229.7513 L 251.0561 228.8298 L 251.0863 227.9082 L 251.1163 226.9867 L 251.1458 226.0651 L 251.1750 225.1436 L 251.2038 224.2220 L 251.2323 223.3004 L 251.2605 222.3788 L 251.2883 221.4572 L 251.3157 220.5356 L 251.3428 219.6140 L 251.3695 218.6923 L 251.3959 217.7707 L 251.4219 216.8490 L 251.4475 215.9274 L 251.4728 215.0057 L 251.4978 214.0840 L 251.5224 213.1623 L 251.5466 212.2406 L 251.5705 211.3189 L 251.5940 210.3972 L 251.6172 209.4754 L 251.6400 208.5537 L 251.6625 207.6319 L 251.6846 206.7102 L 251.7064 205.7884 L 251.7278 204.8666 L 251.7488 203.9448 L 251.7695 203.0231 L 251.7899 202.1012 L 251.8098 201.1794 L 251.8295 200.2576 L 251.8488 199.3358 L 251.8677 198.4140 L 251.8862 197.4921 L 251.9044 196.5703 L 251.9223 195.6484 L 251.9398 194.7266 L 251.9570 193.8047 L 251.9737 192.8828 L 251.9902 191.9610 L 252.0063 191.0391 L 252.0220 190.1172 L 252.0374 189.1953 L 252.0524 188.2734 L 252.0671 187.3515 L 252.0814 186.4296 L 252.0953 185.5076 L 252.1089 184.5857 L 252.1222 183.6638 L 252.1351 182.7419 L 252.1476 181.8199 L 252.1598 180.8980 L 252.1716 179.9760 L 252.1831 179.0541 L 252.1942 178.1321 L 252.2050 177.2101 L 252.2154 176.2882 L 252.2255 175.3662 L 252.2352 174.4442 L 252.2445 173.5223 L 252.2535 172.6003 L 252.2622 171.6783 L 252.2704 170.7563 L 252.2784 169.8343 L 252.2859 168.9123 L 252.2932 167.9903 L 252.3000 167.0683 L 252.3066 166.1463 L 252.3127 165.2243 L 252.3185 164.3023 L 252.3239 163.3803 L 252.3290 162.4583 L 252.3338 161.5363 L 252.3382 160.6143 L 252.3422 159.6922 L 252.3459 158.7702 L 252.3492 157.8482 L 252.3522 156.9262 L 252.3548 156.0042 L 252.3570 155.0821 L 252.3589 154.1601 L 252.3605 153.2381 L 252.3617 152.3161 L 252.3625 151.3941 L 252.3630 150.4720 L 252.3631 149.5500 L 252.3629 148.6280 L 252.3623 147.7060 L 252.3614 146.7839 L 252.3601 145.8619 L 252.3584 144.9399 L 252.3564 144.0179 L 252.3541 143.0958 L 252.3514 142.1738 L 252.3483 141.2518 L 252.3449 140.3298 L 252.3411 139.4078 L 252.3370 138.4857 L 252.3325 137.5637 L 252.3277 136.6417 L 252.3225 135.7197 L 252.3170 134.7977 L 252.3111 133.8757 L 252.3048 132.9537 L 252.2982 132.0317 L 252.2913 131.1097 L 252.2839 130.1877 L 252.2763 129.2657 L 252.2683 128.3437 L 252.2599 127.4217 L 252.2511 126.4997 L 252.2421 125.5778 L 252.2326 124.6558 L 252.2228 123.7338 L 252.2127 122.8118 L 252.2022 121.8899 L 252.1913 120.9679 L 252.1801 120.0460 L 252.1685 119.1240 L 252.1566 118.2021 L 252.1443 117.2801 L 252.1317 116.3582 L 252.1187 115.4362 L 252.1054 114.5143 L 252.0917 113.5924 L 252.0776 112.6705 L 252.0632 111.7486 L 252.0485 110.8266 L 252.0334 109.9047 L 252.0179 108.9829 L 252.0021 108.0610 L 251.9859 107.1391 L 251.9694 106.2172 L 251.9525 105.2953 L 251.9352 104.3735 L 251.9177 103.4516 L 251.8997 102.5298 L 251.8814 101.6079 L 251.8628 100.6861 L 251.8438 99.7643 L 251.8244 98.8424 L 251.8047 97.9206 L 251.7846 96.9988 L 251.7642 96.0770 L 251.7434 95.1552 L 251.7223 94.2334 L 251.7008 93.3117 L 251.6789 92.3899 L 251.6567 91.4681 L 251.6342 90.5464 L 251.6113 89.6247 L 251.5880 88.7029 L 251.5644 87.7812 L 251.5404 86.8595 L 251.5161 85.9378 L 251.4914 85.0161 L 251.4664 84.0944 L 251.4410 83.1727 L 251.4153 82.2511 L 251.3892 81.3294 L 251.3628 80.4078 L 251.3360 79.4861 L 251.3088 78.5645 L 251.2813 77.6429 L 251.2534 76.7213 L 251.2252 75.7997 L 251.1966 74.8781 L 251.1677 73.9565 L 251.1384 73.0350 L 251.1088 72.1134 L 251.0788 71.1919 L 251.0485 70.2704 L 251.0178 69.3488 L 250.9867 68.4273 L 250.9553 67.5059 L 250.9236 66.5844 L 250.8915 65.6629 L 250.8590 64.7415 L 250.8262 63.8200 L 250.7930 62.8986 L 250.7595 61.9772 L 250.7256 61.0558 L 250.6914 60.1344 L 250.6568 59.2130 L 250.6219 58.2916 L 250.5865 57.3703 L 250.5509 56.4490 L 250.5149 55.5276 L 250.4785 54.6063 L 250.4418 53.6850 L 250.4048 52.7638 L 250.3673 51.8425 L 250.3296 50.9212 L 250.2914 50.0000 L 250.2855 50.6424 L 250.2854 51.5644 L 250.2853 52.4864 L 250.2852 53.4084 L 250.2851 54.3305 L 250.2850 55.2525 L 250.2849 56.1745 L 250.2847 57.0965 L 250.2846 58.0186 L 250.2845 58.9406 L 250.2844 59.8626 L 250.2843 60.7846 L 250.2842 61.7067 L 250.2840 62.6287 L 250.2839 63.5507 L 250.2838 64.4727 L 250.2837 65.3948 L 250.2836 66.3168 L 250.2835 67.2388 L 250.2833 68.1608 L 250.2832 69.0829 L 250.2831 70.0049 L 250.2830 70.9269 L 250.2829 71.8489 L 250.2828 72.7710 L 250.2826 73.6930 L 250.2825 74.6150 L 250.2824 75.5370 L 250.2823 76.4591 L 250.2822 77.3811 L 250.2821 78.3031 L 250.2820 79.2251 L 250.2818 80.1472 L 250.2817 81.0692 L 250.2816 81.9912 L 250.2815 82.9132 L 250.2814 83.8353 L 250.2813 84.7573 L 250.2811 85.6793 L 250.2810 86.6013 L 250.2809 87.5234 L 250.2808 88.4454 L 250.2807 89.3674 L 250.2806 90.2894 L 250.2804 91.2115 L 250.2803 92.1335 L 250.2802 93.0555 L 250.2801 93.9775 L 250.2800 94.8996 L 250.2799 95.8216 L 250.2798 96.7436 L 250.2796 97.6656 L 250.2795 98.5877 L 250.2794 99.5097 L 250.2793 100.4317 L 250.2792 101.3537 L 250.2791 102.2758 L 250.2789 103.1978 L 250.2788 104.1198 L 250.2787 105.0418 L 250.2786 105.9639 L 250.2785 106.8859 L 250.2784 107.8079 L 250.2782 108.7299 L 250.2781 109.6520 L 250.2780 110.5740 L 250.2779 111.4960 L 250.2778 112.4180 L 250.2777 113.3401 L 250.2776 114.2621 L 250.2774 115.1841 L 250.2773 116.1061 L 250.2772 117.0282 L 250.2771 117.9502 L 250.2770 118.8722 L 250.2769 119.7942 L 250.2767 120.7163 L 250.2766 121.6383 L 250.2765 122.5603 L 250.2764 123.4823 L 250.2763 124.4044 L 250.2762 125.3264 L 250.2760 126.2484 L 250.2759 127.1704 L 250.2758 128.0925 L 250.2757 129.0145 L 250.2756 129.9365 L 250.2755 130.8585 L 250.2754 131.7806 L 250.2752 132.7026 L 250.2751 133.6246 L 250.2750 134.5466 L 250.2749 135.4687 L 250.2748 136.3907 L 250.2747 137.3127 L 250.2745 138.2347 L 250.2744 139.1568 L 250.2743 140.0788 L 250.2742 141.0008 L 250.2741 141.9228 L 250.2740 142.8449 L 250.2738 143.7669 L 250.2737 144.6889 L 250.2736 145.6109 L 250.2735 146.5330 L 250.2734 147.4550 L 250.2733 148.3770 L 250.2731 149.2990 L 250.2730 150.2211 L 250.2729 151.1431 L 250.2728 152.0651 L 250.2727 152.9871 L 250.2726 153.9092 L 250.2725 154.8312 L 250.2723 155.7532 L 250.2722 156.6752 L 250.2721 157.5973 L 250.2720 158.5193 L 250.2719 159.4413 L 250.2718 160.3633 L 250.2716 161.2854 L 250.2715 162.2074 L 250.2714 163.1294 L 250.2713 164.0514 L 250.2712 164.9735 L 250.2711 165.8955 L 250.2709 166.8175 L 250.2708 167.7395 L 250.2707 168.6616 L 250.2706 169.5836 L 250.2705 170.5056 L 250.2704 171.4276 L 250.2703 172.3497 L 250.2701 173.2717 L 250.2700 174.1937 L 250.2699 175.1157 L 250.2698 176.0378 L 250.2697 176.9598 L 250.2696 177.8818 L 250.2694 178.8038 L 250.2693 179.7259 L 250.2692 180.6479 L 250.2691 181.5699 L 250.2690 182.4919 L 250.2689 183.4140 L 250.2687 184.3360 L 250.2686 185.2580 L 250.2685 186.1800 L 250.2684 187.1021 L 250.2683 188.0241 L 250.2682 188.9461 L 250.2681 189.8681 L 250.2679 190.7902 L 250.2678 191.7122 L 250.2677 192.6342 L 250.2676 193.5562 L 250.2675 194.4783 L 250.2674 195.4003 L 250.2672 196.3223 L 250.2671 197.2443 L 250.2670 198.1664 L 250.2669 199.0884 L 250.2668 200.0104 L 250.2667 200.9324 L 250.2665 201.8545 L 250.2664 202.7765 L 250.2663 203.6985 L 250.2662 204.6205 L 250.2661 205.5426 L 250.2660 206.4646 L 250.2658 207.3866 L 250.2657 208.3086 L 250.2656 209.2307 L 250.2655 210.1527 L 250.2654 211.0747 L 250.2653 211.9967 L 250.2652 212.9188 L 250.2650 213.8408 L 250.2649 214.7628 L 250.2648 215.6848 L 250.2647 216.6069 L 250.2646 217.5289 L 250.2645 218.4509 L 250.2643 219.3729 L 250.2642 220.2950 L 250.2641 221.2170 L 250.2640 222.1390 L 250.2639 223.0610 L 250.2638 223.9831 L 250.2636 224.9051 L 250.2635 225.8271 L 250.2634 226.7491 L 250.2633 227.6712 L 250.2632 228.5932 L 250.2631 229.5152 L 250.2630 230.4372 L 250.2628 231.3593 L 250.2627 232.2813 L 250.2626 233.2033 L 250.2625 234.1253 L 250.2624 235.0474 L 250.2623 235.9694 L 250.2621 236.8914 L 250.2620 237.8134 L 250.2619 238.7355 L 250.2618 239.6575 L 250.2617 240.5795 L 250.2616 241.5015 L 250.2614 242.4236 L 250.2613 243.3456 L 250.2612 244.2676 L 250.2611 245.1896 L 250.2610 246.1117 L 250.2609 247.0337 L 250.2608 247.9557 L 250.2606 248.8777 L 250.2605 249.7998 L 249.9540 249.4745 L 249.5265 248.6575 L 249.0986 247.8408 L 248.6704 247.0242 L 248.2419 246.2078 L 247.8131 245.3916 L 247.3840 244.5755 L 246.9545 243.7596 L 246.5248 242.9439 L 246.0947 242.1283 L 245.6643 241.3129 L 245.2337 240.4976 L 244.8026 239.6825 L 244.3713 238.8676 L 243.9397 238.0528 L 243.5077 237.2383 L 243.0755 236.4238 L 242.6429 235.6096 L 242.2100 234.7955 L 241.7768 233.9816 L 241.3433 233.1678 L 240.9095 232.3542 L 240.4754 231.5408 L 240.0409 230.7276 L 239.6061 229.9145 L 239.1711 229.1015 L 238.7357 228.2888 L 238.3000 227.4762 L 237.8640 226.6638 L 237.4276 225.8515 L 236.9910 225.0395 L 236.5540 224.2275 L 236.1168 223.4158 L 235.6792 222.6042 L 235.2413 221.7928 L 234.8031 220.9816 L 234.3646 220.1705 L 233.9258 219.3596 L 233.4866 218.5489 L 233.0472 217.7383 L 232.6074 216.9279 L 232.1674 216.1177 L 231.7270 215.3076 L 231.2863 214.4977 L 230.8453 213.6880 L 230.4040 212.8785 L 229.9623 212.0691 L 229.5204 211.2599 L 229.0781 210.4508 L 228.6356 209.6420 L 228.1927 208.8333 L 227.7495 208.0247 L 227.3060 207.2164 L 226.8622 206.4082 L 226.4181 205.6002 L 225.9737 204.7923 L 225.5289 203.9847 L 225.0839 203.1772 L 224.6385 202.3698 L 224.1929 201.5627 L 223.7469 200.7557 L 223.3006 199.9489 L 222.8540 199.1422 L 222.4071 198.3357 L 221.9598 197.5294 L 221.5123 196.7233 L 221.0645 195.9174 L 220.6163 195.1116 L 220.1679 194.3060 L 219.7191 193.5005 L 219.2700 192.6953 L 218.8206 191.8902 L 218.3709 191.0852 L 217.9209 190.2805 L 217.4706 189.4759 L 217.0200 188.6715 L 216.5690 187.8673 L 216.1178 187.0632 L 215.6662 186.2593 L 215.2144 185.4556 L 214.7622 184.6521 L 214.3097 183.8487 L 213.8569 183.0455 L 213.4038 182.2425 L 212.9504 181.4397 L 212.4967 180.6370 L 212.0427 179.8345 L 211.5883 179.0322 L 211.1337 178.2301 L 210.6787 177.4281 L 210.2234 176.6263 L 209.7679 175.8247 L 209.3120 175.0233 L 208.8558 174.2220 L 208.3993 173.4209 L 207.9425 172.6200 L 207.4854 171.8193 L 207.0280 171.0187 L 206.5703 170.2183 L 206.1122 169.4181 L 205.6539 168.6181 L 205.1952 167.8182 L 204.7363 167.0186 L 204.2770 166.2190 L 203.8174 165.4197 L 203.3576 164.6206 L 202.8974 163.8216 L 202.4369 163.0228 L 201.9761 162.2242 L 201.5150 161.4257 L 201.0536 160.6275 L 200.5918 159.8294 L 200.1298 159.0315 L 199.6675 158.2337 L 199.2048 157.4362 L 198.7419 156.6388 L 198.2786 155.8416 L 197.8151 155.0446 L 197.3512 154.2477 L 196.8870 153.4511 L 196.4226 152.6546 L 195.9578 151.8583 L 195.4927 151.0622 L 195.0273 150.2662 L 194.5616 149.4704 L 194.0956 148.6749 L 193.6292 147.8794 L 193.1626 147.0842 L 192.6957 146.2892 L 192.2285 145.4943 L 191.7609 144.6996 L 191.2931 143.9051 L 190.8249 143.1108 L 190.3565 142.3166 L 189.8877 141.5226 L 189.4187 140.7288 L 188.9493 139.9352 L 188.4796 139.1418 L 188.0096 138.3485 L 187.5393 137.5555 L 187.0687 136.7626 L 186.5979 135.9699 L 186.1266 135.1773 L 185.6551 134.3850 L 185.1833 133.5928 L 184.7112 132.8008 L 184.2388 132.0090 L 183.7661 131.2174 L 183.2931 130.4260 L 182.8197 129.6347 L 182.3461 128.8436 L 181.8722 128.0527 L 181.3979 127.2620 L 180.9234 126.4715 L 180.4485 125.6812 L 179.9734 124.8910 L 179.4979 124.1010 L 179.0221 123.3112 L 178.5461 122.5216 L 178.0697 121.7322 L 177.5930 120.9429 L 177.1161 120.1538 L 176.6388 119.3650 L 176.1612 118.5763 L 175.6833 117.7878 L 175.2051 116.9994 L 174.7266 116.2113 L 174.2479 115.4233 L 173.7688 114.6355 L 173.2894 113.8479 L 172.8097 113.0605 L 172.3297 112.2733 L 171.8493 111.4863 L 171.3687 110.6994 L 170.8878 109.9127 L 170.4066 109.1262 L 169.9251 108.3399 L 169.4433 107.5538 L 168.9612 106.7679 L 168.4787 105.9821 L 167.9960 105.1966 L 167.5130 104.4112 L 167.0297 103.6260 L 166.5460 102.8410 L 166.0621 102.0562 L 165.5779 101.2715 L 165.0934 100.4871 L 164.6085 99.7028 L 164.1234 98.9187 L 163.6379 98.1349 L 163.1522 97.3512 L 162.6662 96.5676 L 162.1798 95.7843 L 161.6932 95.0012 L 161.2063 94.2182 L 160.7190 93.4354 L 160.2315 92.6529 L 159.7436 91.8705 L 159.2555 91.0883 L 158.7670 90.3062 L 158.2783 89.5244 L 157.7893 88.7428 L 157.2999 87.9613 L 156.8103 87.1800 L 156.3203 86.3990 L 155.8301 85.6181 L 155.3395 84.8374 L 154.8487 84.0569 L 154.3575 83.2765 L 153.8661 82.4964 L 153.3744 81.7165 L 152.8823 80.9367 L 152.3900 80.1571 L 151.8973 79.3777 L 151.4044 78.5986 L 150.9111 77.8196 L 150.4176 77.0407 L 150.2152 76.7433 L 150.6761 77.5419 L 151.1370 78.3404 L 151.5980 79.1389 L 152.0589 79.9375 L 152.5199 80.7360 L 152.9808 81.5346 L 153.4418 82.3331 L 153.9027 83.1316 L 154.3637 83.9302 L 154.8246 84.7287 L 155.2856 85.5272 L 155.7465 86.3258 L 156.2074 87.1243 L 156.6684 87.9228 L 157.1293 88.7214 L 157.5903 89.5199 L 158.0512 90.3184 L 158.5122 91.1170 L 158.9731 91.9155 L 159.4341 92.7141 L 159.8950 93.5126 L 160.3560 94.3111 L 160.8169 95.1097 L 161.2779 95.9082 L 161.7388 96.7067 L 162.1997 97.5053 L 162.6607 98.3038 L 163.1216 99.1023 L 163.5826 99.9009 L 164.0435 100.6994 L 164.5045 101.4979 L 164.9654 102.2965 L 165.4264 103.0950 L 165.8873 103.8936 L 166.3483 104.6921 L 166.8092 105.4906 L 167.2701 106.2892 L 167.7311 107.0877 L 168.1920 107.8862 L 168.6530 108.6848 L 169.1139 109.4833 L 169.5749 110.2818 L 170.0358 111.0804 L 170.4968 111.8789 L 170.9577 112.6774 L 171.4187 113.4760 L 171.8796 114.2745 L 172.3405 115.0731 L 172.8015 115.8716 L 173.2624 116.6701 L 173.7234 117.4687 L 174.1843 118.2672 L 174.6453 119.0657 L 175.1062 119.8643 L 175.5672 120.6628 L 176.0281 121.4613 L 176.4891 122.2599 L 176.9500 123.0584 L 177.4109 123.8569 L 177.8719 124.6555 L 178.3328 125.4540 L 178.7938 126.2526 L 179.2547 127.0511 L 179.7157 127.8496 L 180.1766 128.6482 L 180.6376 129.4467 L 181.0985 130.2452 L 181.5595 131.0438 L 182.0204 131.8423 L 182.4813 132.6408 L 182.9423 133.4394 L 183.4032 134.2379 L 183.8642 135.0364 L 184.3251 135.8350 L 184.7861 136.6335 L 185.2470 137.4321 L 185.7080 138.2306 L 186.1689 139.0291 L 186.6299 139.8277 L 187.0908 140.6262 L 187.5518 141.4247 L 188.0127 142.2233 L 188.4736 143.0218 L 188.9346 143.8203 L 189.3955 144.6189 L 189.8565 145.4174 L 190.3174 146.2159 L 190.7784 147.0145 L 191.2393 147.8130 L 191.7003 148.6116 L 192.1612 149.4101 L 192.6222 150.2086 L 193.0831 151.0072 L 193.5440 151.8057 L 194.0050 152.6042 L 194.4659 153.4028 L 194.9269 154.2013 L 195.3878 154.9998 L 195.8488 155.7984 L 196.3097 156.5969 L 196.7707 157.3954 L 197.2316 158.1940 L 197.6926 158.9925 L 198.1535 159.7911 L 198.6144 160.5896 L 199.0754 161.3881 L 199.5363 162.1867 L 199.9973 162.9852 L 200.4582 163.7837 L 200.9192 164.5823 L 201.3801 165.3808 L 201.8411 166.1793 L 202.3020 166.9779 L 202.7630 167.7764 L 203.2239 168.5749 L 203.6848 169.3735 L 204.1458 170.1720 L 204.6067 170.9706 L 205.0677 171.7691 L 205.5286 172.5676 L 205.9896 173.3662 L 206.4505 174.1647 L 206.9115 174.9632 L 207.3724 175.7618 L 207.8334 176.5603 L 208.2943 177.3588 L 208.7552 178.1574 L 209.2162 178.9559 L 209.6771 179.7544 L 210.1381 180.5530 L 210.5990 181.3515 L 211.0600 182.1501 L 211.5209 182.9486 L 211.9819 183.7471 L 212.4428 184.5457 L 212.9038 185.3442 L 213.3647 186.1427 L 213.8257 186.9413 L 214.2866 187.7398 L 214.7475 188.5383 L 215.2085 189.3369 L 215.6694 190.1354 L 216.1304 190.9339 L 216.5913 191.7325 L 217.0523 192.5310 L 217.5132 193.3296 L 217.9742 194.1281 L 218.4351 194.9266 L 218.8961 195.7252 L 219.3570 196.5237 L 219.8179 197.3222 L 220.2789 198.1208 L 220.7398 198.9193 L 221.2008 199.7178 L 221.6617 200.5164 L 222.1227 201.3149 L 222.5836 202.1134 L 223.0446 202.9120 L 223.5055 203.7105 L 223.9665 204.5091 L 224.4274 205.3076 L 224.8883 206.1061 L 225.3493 206.9047 L 225.8102 207.7032 L 226.2712 208.5017 L 226.7321 209.3003 L 227.1931 210.0988 L 227.6540 210.8973 L 228.1150 211.6959 L 228.5759 212.4944 L 229.0369 213.2929 L 229.4978 214.0915 L 229.9587 214.8900 L 230.4197 215.6886 L 230.8806 216.4871 L 231.3416 217.2856 L 231.8025 218.0842 L 232.2635 218.8827 L 232.7244 219.6812 L 233.1854 220.4798 L 233.6463 221.2783 L 234.1073 222.0768 L 234.5682 222.8754 L 235.0291 223.6739 L 235.4901 224.4724 L 235.9510 225.2710 L 236.4120 226.0695 L 236.8729 226.8681 L 237.3339 227.6666 L 237.7948 228.4651 L 238.2558 229.2637 L 238.7167 230.0622 L 239.1777 230.8607 L 239.6386 231.6593 L 240.0996 232.4578 L 240.5605 233.2563 L 241.0214 234.0549 L 241.4824 234.8534 L 241.9433 235.6519 L 242.4043 236.4505 L 242.8652 237.2490 L 243.3262 238.0476 L 243.7871 238.8461 L 244.2481 239.6446 L 244.7090 240.4432 L 245.1700 241.2417 L 245.6309 242.0402 L 246.0918 242.8388 L 246.5528 243.6373 L 247.0137 244.4358 L 247.4747 245.2344 L 247.9356 246.0329 L 248.3966 246.8314 L 248.8575 247.6300 L 249.3185 248.4285 L 249.7794 249.2271 L 250.2404 250.0256 L 249.5159 249.5882 L 248.7371 249.0945 L 247.9582 248.6012 L 247.1790 248.1082 L 246.3997 247.6155 L 245.6202 247.1231 L 244.8404 246.6310 L 244.0605 246.1392 L 243.2804 245.6477 L 242.5002 245.1565 L 241.7197 244.6655 L 240.9390 244.1749 L 240.1582 243.6846 L 239.3771 243.1946 L 238.5959 242.7049 L 237.8145 242.2155 L 237.0329 241.7264 L 236.2511 241.2376 L 235.4691 240.7491 L 234.6870 240.2609 L 233.9046 239.7730 L 233.1221 239.2854 L 232.3393 238.7981 L 231.5564 238.3111 L 230.7733 237.8244 L 229.9900 237.3380 L 229.2065 236.8519 L 228.4229 236.3661 L 227.6390 235.8806 L 226.8550 235.3954 L 226.0708 234.9105 L 225.2863 234.4259 L 224.5017 233.9416 L 223.7170 233.4576 L 222.9320 232.9739 L 222.1468 232.4905 L 221.3615 232.0075 L 220.5760 231.5247 L 219.7902 231.0422 L 219.0043 230.5600 L 218.2183 230.0782 L 217.4320 229.5966 L 216.6455 229.1153 L 215.8589 228.6344 L 215.0721 228.1537 L 214.2851 227.6734 L 213.4979 227.1933 L 212.7105 226.7136 L 211.9229 226.2341 L 211.1352 225.7550 L 210.3472 225.2761 L 209.5591 224.7976 L 208.7708 224.3193 L 207.9823 223.8414 L 207.1937 223.3638 L 206.4048 222.8864 L 205.6158 222.4094 L 204.8266 221.9327 L 204.0372 221.4563 L 203.2476 220.9802 L 202.4578 220.5043 L 201.6678 220.0288 L 200.8777 219.5536 L 200.0874 219.0787 L 199.2969 218.6041 L 198.5062 218.1298 L 197.7153 217.6559 L 196.9243 217.1822 L 196.1331 216.7088 L 195.3417 216.2357 L 194.5501 215.7630 L 193.7583 215.2905 L 192.9663 214.8183 L 192.1742 214.3465 L 191.3819 213.8749 L 190.5894 213.4037 L 189.7967 212.9327 L 189.0038 212.4621 L 188.2108 211.9918 L 187.4176 211.5218 L 186.6242 211.0520 L 185.8306 210.5826 L 185.0368 210.1135 L 184.2429 209.6447 L 183.4487 209.1762 L 182.6544 208.7080 L 181.8599 208.2401 L 181.0653 207.7725 L 180.2704 207.3053 L 179.4754 206.8383 L 178.6802 206.3716 L 177.8848 205.9053 L 177.0892 205.4392 L 176.2935 204.9735 L 175.4976 204.5080 L 174.7015 204.0429 L 173.9052 203.5780 L 173.1087 203.1135 L 172.3121 202.6493 L 171.5153 202.1854 L 170.7183 201.7218 L 169.9211 201.2585 L 169.1238 200.7955 L 168.3262 200.3328 L 167.5285 199.8704 L 166.7306 199.4084 L 165.9326 198.9466 L 165.1343 198.4851 L 164.3359 198.0240 L 163.5373 197.5631 L 162.7386 197.1026 L 161.9396 196.6424 L 161.1405 196.1824 L 160.3412 195.7228 L 159.5417 195.2635 L 158.7420 194.8045 L 157.9422 194.3458 L 157.1422 193.8875 L 156.3420 193.4294 L 155.5417 192.9716 L 154.7411 192.5141 L 153.9404 192.0570 L 153.1395 191.6001 L 152.3385 191.1436 L 151.5372 190.6874 L 150.7358 190.2314 L 149.9342 189.7758 L 149.1325 189.3205 L 148.3305 188.8655 L 147.5284 188.4108 L 146.7261 187.9565 L 145.9237 187.5024 L 145.1210 187.0486 L 144.3182 186.5951 L 143.5152 186.1420 L 142.7121 185.6892 L 141.9087 185.2366 L 141.1052 184.7844 L 140.3015 184.3325 L 139.4977 183.8809 L 138.6936 183.4296 L 137.8894 182.9786 L 137.0851 182.5280 L 136.2805 182.0776 L 135.4758 181.6275 L 134.6709 181.1778 L 133.8658 180.7283 L 133.0606 180.2792 L 132.2552 179.8304 L 131.4496 179.3819 L 130.6438 178.9337 L 129.8379 178.4858 L 129.0318 178.0382 L 128.2255 177.5909 L 127.4191 177.1440 L 126.6125 176.6973 L 125.8057 176.2510 L 124.9987 175.8050 L 124.1916 175.3592 L 123.3843 174.9138 L 122.5768 174.4687 L 121.7691 174.0239 L 120.9613 173.5795 L 120.1533 173.1353 L 119.3452 172.6914 L 118.5369 172.2479 L 117.7284 171.8046 L 116.9197 171.3617 L 116.1108 170.9191 L 115.3018 170.4768 L 114.4927 170.0348 L 113.6833 169.5931 L 112.8738 169.1518 L 112.0641 168.7107 L 111.2542 168.2699 L 110.4442 167.8295 L 109.6340 167.3894 L 108.8236 166.9496 L 108.0131 166.5100 L 107.2024 166.0709 L 106.3915 165.6320 L 105.5805 165.1934 L 104.7693 164.7551 L 103.9579 164.3172 L 103.1464 163.8796 L 102.3347 163.4422 L 101.5228 163.0052 L 100.7107 162.5685 L 99.8985 162.1321 L 99.0861 161.6961 L 98.2736 161.2603 L 97.4609 160.8249 L 96.6480 160.3897 L 95.8349 159.9549 L 95.0217 159.5204 L 94.2083 159.0862 L 93.3947 158.6523 L 92.5810 158.2187 L 91.7671 157.7855 L 90.9531 157.3525 L 90.1389 156.9199 L 89.3245 156.4875 L 88.5099 156.0555 L 87.6952 155.6238 L 86.8803 155.1924 L 86.0653 154.7614 L 85.2501 154.3306 L 84.4347 153.9001 L 83.6191 153.4700 L 82.8034 153.0402 L 81.9876 152.6107 L 81.1715 152.1815 L 80.3553 151.7526 L 79.5389 151.3240 L 78.7224 150.8958 L 77.9057 150.4678 L 77.0888 150.0402 L 76.7989 149.9027 L 77.5974 150.3637 L 78.3958 150.8248 L 79.1943 151.2858 L 79.9928 151.7469 L 80.7913 152.2079 L 81.5898 152.6690 L 82.3882 153.1300 L 83.1867 153.5910 L 83.9852 154.0521 L 84.7837 154.5131 L 85.5821 154.9742 L 86.3806 155.4352 L 87.1791 155.8963 L 87.9776 156.3573 L 88.7761 156.8184 L 89.5745 157.2794 L 90.3730 157.7405 L 91.1715 158.2015 L 91.9700 158.6626 L 92.7684 159.1236 L 93.5669 159.5846 L 94.3654 160.0457 L 95.1639 160.5067 L 95.9624 160.9678 L 96.7608 161.4288 L 97.5593 161.8899 L 98.3578 162.3509 L 99.1563 162.8120 L 99.9547 163.2730 L 100.7532 163.7341 L 101.5517 164.1951 L 102.3502 164.6561 L 103.1487 165.1172 L 103.9471 165.5782 L 104.7456 166.0393 L 105.5441 166.5003 L 106.3426 166.9614 L 107.1410 167.4224 L 107.9395 167.8835 L 108.7380 168.3445 L 109.5365 168.8056 L 110.3350 169.2666 L 111.1334 169.7277 L 111.9319 170.1887 L 112.7304 170.6497 L 113.5289 171.1108 L 114.3273 171.5718 L 115.1258 172.0329 L 115.9243 172.4939 L 116.7228 172.9550 L 117.5213 173.4160 L 118.3197 173.8771 L 119.1182 174.3381 L 119.9167 174.7992 L 120.7152 175.2602 L 121.5136 175.7213 L 122.3121 176.1823 L 123.1106 176.6433 L 123.9091 177.1044 L 124.7076 177.5654 L 125.5060 178.0265 L 126.3045 178.4875 L 127.1030 178.9486 L 127.9015 179.4096 L 128.6999 179.8707 L 129.4984 180.3317 L 130.2969 180.7928 L 131.0954 181.2538 L 131.8939 181.7149 L 132.6923 182.1759 L 133.4908 182.6369 L 134.2893 183.0980 L 135.0878 183.5590 L 135.8862 184.0201 L 136.6847 184.4811 L 137.4832 184.9422 L 138.2817 185.4032 L 139.0802 185.8643 L 139.8786 186.3253 L 140.6771 186.7864 L 141.4756 187.2474 L 142.2741 187.7084 L 143.0725 188.1695 L 143.8710 188.6305 L 144.6695 189.0916 L 145.4680 189.5526 L 146.2665 190.0137 L 147.0649 190.4747 L 147.8634 190.9358 L 148.6619 191.3968 L 149.4604 191.8579 L 150.2588 192.3189 L 151.0573 192.7800 L 151.8558 193.2410 L 152.6543 193.7020 L 153.4528 194.1631 L 154.2512 194.6241 L 155.0497 195.0852 L 155.8482 195.5462 L 156.6467 196.0073 L 157.4451 196.4683 L 158.2436 196.9294 L 159.0421 197.3904 L 159.8406 197.8515 L 160.6391 198.3125 L 161.4375 198.7736 L 162.2360 199.2346 L 163.0345 199.6956 L 163.8330 200.1567 L 164.6314 200.6177 L 165.4299 201.0788 L 166.2284 201.5398 L 167.0269 202.0009 L 167.8254 202.4619 L 168.6238 202.9230 L 169.4223 203.3840 L 170.2208 203.8451 L 171.0193 204.3061 L 171.8177 204.7671 L 172.6162 205.2282 L 173.4147 205.6892 L 174.2132 206.1503 L 175.0117 206.6113 L 175.8101 207.0724 L 176.6086 207.5334 L 177.4071 207.9945 L 178.2056 208.4555 L 179.0040 208.9166 L 179.8025 209.3776 L 180.6010 209.8387 L 181.3995 210.2997 L 182.1980 210.7607 L 182.9964 211.2218 L 183.7949 211.6828 L 184.5934 212.1439 L 185.3919 212.6049 L 186.1903 213.0660 L 186.9888 213.5270 L 187.7873 213.9881 L 188.5858 214.4491 L 189.3843 214.9102 L 190.1827 215.3712 L 190.9812 215.8323 L 191.7797 216.2933 L 192.5782 216.7543 L 193.3766 217.2154 L 194.1751 217.6764 L 194.9736 218.1375 L 195.7721 218.5985 L 196.5706 219.0596 L 197.3690 219.5206 L 198.1675 219.9817 L 198.9660 220.4427 L 199.7645 220.9038 L 200.5629 221.3648 L 201.3614 221.8258 L 202.1599 222.2869 L 202.9584 222.7479 L 203.7569 223.2090 L 204.5553 223.6700 L 205.3538 224.1311 L 206.1523 224.5921 L 206.9508 225.0532 L 207.7492 225.5142 L 208.5477 225.9753 L 209.3462 226.4363 L 210.1447 226.8974 L 210.9432 227.3584 L 211.7416 227.8194 L 212.5401 228.2805 L 213.3386 228.7415 L 214.1371 229.2026 L 214.9355 229.6636 L 215.7340 230.1247 L 216.5325 230.5857 L 217.3310 231.0468 L 218.1295 231.5078 L 218.9279 231.9689 L 219.7264 232.4299 L 220.5249 232.8910 L 221.3234 233.3520 L 222.1218 233.8130 L 222.9203 234.2741 L 223.7188 234.7351 L 224.5173 235.1962 L 225.3158 235.6572 L 226.1142 236.1183 L 226.9127 236.5793 L 227.7112 237.0404 L 228.5097 237.5014 L 229.3081 237.9625 L 230.1066 238.4235 L 230.9051 238.8845 L 231.7036 239.3456 L 232.5021 239.8066 L 233.3005 240.2677 L 234.0990 240.7287 L 234.8975 241.1898 L 235.6960 241.6508 L 236.4944 242.1119 L 237.2929 242.5729 L 238.0914 243.0340 L 238.8899 243.4950 L 239.6884 243.9561 L 240.4868 244.4171 L 241.2853 244.8781 L 242.0838 245.3392 L 242.8823 245.8002 L 243.6807 246.2613 L 244.4792 246.7223 L 245.2777 247.1834 L 246.0762 247.6444 L 246.8747 248.1055 L 247.6731 248.5665 L 248.4716 249.0276 L 249.2701 249.4886 L 250.0686 249.9497 L 249.5607 250.0312 L 248.6394 249.9931 L 247.7182 249.9553 L 246.7969 249.9178 L 245.8757 249.8807 L 244.9544 249.8440 L 244.0331 249.8076 L 243.1117 249.7716 L 242.1904 249.7359 L 241.2691 249.7005 L 240.3477 249.6656 L 239.4263 249.6309 L 238.5049 249.5967 L 237.5835 249.5628 L 236.6621 249.5292 L 235.7407 249.4960 L 234.8193 249.4632 L 233.8978 249.4307 L 232.9763 249.3985 L 232.0549 249.3667 L 231.1334 249.3353 L 230.2119 249.3042 L 229.2904 249.2735 L 228.3688 249.2431 L 227.4473 249.2131 L 226.5257 249.1835 L 225.6042 249.1542 L 224.6826 249.1252 L 223.7610 249.0966 L 222.8394 249.0684 L 221.9178 249.0405 L 220.9962 249.0130 L 220.0746 248.9858 L 219.1530 248.9590 L 218.2313 248.9325 L 217.3097 248.9064 L 216.3880 248.8806 L 215.4663 248.8552 L 214.5446 248.8302 L 213.6229 248.8055 L 212.7012 248.7811 L 211.7795 248.7572 L 210.8578 248.7335 L 209.9361 248.7103 L 209.0143 248.6873 L 208.0926 248.6648 L 207.1708 248.6426 L 206.2491 248.6207 L 205.3273 248.5992 L 204.4055 248.5780 L 203.4837 248.5573 L 202.5619 248.5368 L 201.6401 248.5167 L 200.7183 248.4970 L 199.7965 248.4776 L 198.8746 248.4586 L 197.9528 248.4399 L 197.0310 248.4216 L 196.1091 248.4037 L 195.1873 248.3861 L 194.2654 248.3688 L 193.3435 248.3519 L 192.4216 248.3354 L 191.4998 248.3192 L 190.5779 248.3034 L 189.6560 248.2879 L 188.7341 248.2728 L 187.8122 248.2580 L 186.8903 248.2436 L 185.9683 248.2295 L 185.0464 248.2158 L 184.1245 248.2025 L 183.2026 248.1895 L 182.2806 248.1768 L 181.3587 248.1645 L 180.4367 248.1526 L 179.5148 248.1410 L 178.5928 248.1298 L 177.6709 248.1190 L 176.7489 248.1085 L 175.8269 248.0983 L 174.9050 248.0885 L 173.9830 248.0790 L 173.0610 248.0699 L 172.1390 248.0612 L 171.2170 248.0528 L 170.2950 248.0448 L 169.3730 248.0371 L 168.4510 248.0298 L 167.5290 248.0228 L 166.6070 248.0162 L 165.6850 248.0100 L 164.7630 248.0041 L 163.8410 247.9985 L 162.9190 247.9933 L 161.9970 247.9885 L 161.0750 247.9840 L 160.1530 247.9799 L 159.2310 247.9761 L 158.3089 247.9727 L 157.3869 247.9696 L 156.4649 247.9669 L 155.5429 247.9645 L 154.6209 247.9625 L 153.6988 247.9609 L 152.7768 247.9596 L 151.8548 247.9586 L 150.9328 247.9581 L 150.0107 247.9578 L 149.0887 247.9580 L 148.1667 247.9584 L 147.2447 247.9593 L 146.3226 247.9605 L 145.4006 247.9620 L 144.4786 247.9639 L 143.5566 247.9662 L 142.6345 247.9688 L 141.7125 247.9717 L 140.7905 247.9750 L 139.8685 247.9787 L 138.9465 247.9827 L 138.0245 247.9871 L 137.1024 247.9918 L 136.1804 247.9969 L 135.2584 248.0024 L 134.3364 248.0082 L 133.4144 248.0143 L 132.4924 248.0208 L 131.5704 248.0277 L 130.6484 248.0349 L 129.7264 248.0425 L 128.8044 248.0504 L 127.8824 248.0587 L 126.9605 248.0673 L 126.0385 248.0763 L 125.1165 248.0856 L 124.1945 248.0953 L 123.2726 248.1054 L 122.3506 248.1158 L 121.4286 248.1265 L 120.5067 248.1376 L 119.5847 248.1491 L 118.6628 248.1609 L 117.7408 248.1731 L 116.8189 248.1856 L 115.8969 248.1985 L 114.9750 248.2118 L 114.0531 248.2254 L 113.1312 248.2393 L 112.2093 248.2536 L 111.2873 248.2683 L 110.3654 248.2833 L 109.4435 248.2987 L 108.5217 248.3144 L 107.5998 248.3304 L 106.6779 248.3469 L 105.7560 248.3637 L 104.8342 248.3808 L 103.9123 248.3983 L 102.9904 248.4161 L 102.0686 248.4343 L 101.1468 248.4529 L 100.2249 248.4718 L 99.3031 248.4911 L 98.3813 248.5107 L 97.4595 248.5306 L 96.5377 248.5510 L 95.6159 248.5716 L 94.6941 248.5927 L 93.7723 248.6141 L 92.8506 248.6358 L 91.9288 248.6579 L 91.0070 248.6803 L 90.0853 248.7032 L 89.1636 248.7263 L 88.2418 248.7498 L 87.3201 248.7737 L 86.3984 248.7979 L 85.4767 248.8225 L 84.5550 248.8474 L 83.6334 248.8727 L 82.7117 248.8983 L 81.7900 248.9243 L 80.8684 248.9507 L 79.9467 248.9774 L 79.0251 249.0044 L 78.1035 249.0319 L 77.1819 249.0596 L 76.2603 249.0877 L 75.3387 249.1162 L 74.4171 249.1450 L 73.4956 249.1742 L 72.5740 249.2037 L 71.6525 249.2336 L 70.7309 249.2639 L 69.8094 249.2945 L 68.8879 249.3254 L 67.9664 249.3567 L 67.0449 249.3884 L 66.1235 249.4204 L 65.2020 249.4527 L 64.2806 249.4855 L 63.3591 249.5185 L 62.4377 249.5520 L 61.5163 249.5857 L 60.5949 249.6199 L 59.6735 249.6543 L 58.7522 249.6892 L 57.8308 249.7244 L 56.9095 249.7599 L 55.9882 249.7958 L 55.0669 249.8321 L 54.1456 249.8687 L 53.2243 249.9057 L 52.3030 249.9430 L 51.3817 249.9807 L 50.4605 250.0187 L 50.5817 250.0354 L 51.5037 250.0355 L 52.4257 250.0356 L 53.3477 250.0357 L 54.2698 250.0358 L 55.1918 250.0360 L 56.1138 250.0361 L 57.0358 250.0362 L 57.9579 250.0363 L 58.8799 250.0364 L 59.8019 250.0365 L 60.7239 250.0366 L 61.6460 250.0368 L 62.5680 250.0369 L 63.4900 250.0370 L 64.4120 250.0371 L 65.3341 250.0372 L 66.2561 250.0373 L 67.1781 250.0375 L 68.1001 250.0376 L 69.0222 250.0377 L 69.9442 250.0378 L 70.8662 250.0379 L 71.7882 250.0380 L 72.7103 250.0382 L 73.6323 250.0383 L 74.5543 250.0384 L 75.4763 250.0385 L 76.3984 250.0386 L 77.3204 250.0387 L 78.2424 250.0389 L 79.1644 250.0390 L 80.0865 250.0391 L 81.0085 250.0392 L 81.9305 250.0393 L 82.8525 250.0394 L 83.7746 250.0395 L 84.6966 250.0397 L 85.6186 250.0398 L 86.5406 250.0399 L 87.4627 250.0400 L 88.3847 250.0401 L 89.3067 250.0402 L 90.2287 250.0404 L 91.1508 250.0405 L 92.0728 250.0406 L 92.9948 250.0407 L 93.9168 250.0408 L 94.8389 250.0409 L 95.7609 250.0411 L 96.6829 250.0412 L 97.6049 250.0413 L 98.5270 250.0414 L 99.4490 250.0415 L 100.3710 250.0416 L 101.2930 250.0417 L 102.2151 250.0419 L 103.1371 250.0420 L 104.0591 250.0421 L 104.9811 250.0422 L 105.9032 250.0423 L 106.8252 250.0424 L 107.7472 250.0426 L 108.6692 250.0427 L 109.5913 250.0428 L 110.5133 250.0429 L 111.4353 250.0430 L 112.3573 250.0431 L 113.2794 250.0433 L 114.2014 250.0434 L 115.1234 250.0435 L 116.0454 250.0436 L 116.9675 250.0437 L 117.8895 250.0438 L 118.8115 250.0439 L 119.7335 250.0441 L 120.6556 250.0442 L 121.5776 250.0443 L 122.4996 250.0444 L 123.4216 250.0445 L 124.3437 250.0446 L 125.2657 250.0448 L 126.1877 250.0449 L 127.1097 250.0450 L 128.0318 250.0451 L 128.9538 250.0452 L 129.8758 250.0453 L 130.7978 250.0455 L 131.7199 250.0456 L 132.6419 250.0457 L 133.5639 250.0458 L 134.4859 250.0459 L 135.4080 250.0460 L 136.3300 250.0462 L 137.2520 250.0463 L 138.1740 250.0464 L 139.0961 250.0465 L 140.0181 250.0466 L 140.9401 250.0467 L 141.8621 250.0468 L 142.7842 250.0470 L 143.7062 250.0471 L 144.6282 250.0472 L 145.5502 250.0473 L 146.4723 250.0474 L 147.3943 250.0475 L 148.3163 250.0477 L 149.2383 250.0478 L 150.1604 250.0479 L 151.0824 250.0480 L 152.0044 250.0481 L 152.9264 250.0482 L 153.8485 250.0484 L 154.7705 250.0485 L 155.6925 250.0486 L 156.6145 250.0487 L 157.5366 250.0488 L 158.4586 250.0489 L 159.3806 250.0490 L 160.3026 250.0492 L 161.2247 250.0493 L 162.1467 250.0494 L 163.0687 250.0495 L 163.9907 250.0496 L 164.9128 250.0497 L 165.8348 250.0499 L 166.7568 250.0500 L 167.6788 250.0501 L 168.6009 250.0502 L 169.5229 250.0503 L 170.4449 250.0504 L 171.3669 250.0506 L 172.2890 250.0507 L 173.2110 250.0508 L 174.1330 250.0509 L 175.0550 250.0510 L 175.9771 250.0511 L 176.8991 250.0512 L 177.8211 250.0514 L 178.7431 250.0515 L 179.6652 250.0516 L 180.5872 250.0517 L 181.5092 250.0518 L 182.4312 250.0519 L 183.3533 250.0521 L 184.2753 250.0522 L 185.1973 250.0523 L 186.1193 250.0524 L 187.0414 250.0525 L 187.9634 250.0526 L 188.8854 250.0528 L 189.8074 250.0529 L 190.7295 250.0530 L 191.6515 250.0531 L 192.5735 250.0532 L 193.4955 250.0533 L 194.4176 250.0534 L 195.3396 250.0536 L 196.2616 250.0537 L 197.1836 250.0538 L 198.1057 250.0539 L 199.0277 250.0540 L 199.9497 250.0541 L 200.8717 250.0543 L 201.7938 250.0544 L 202.7158 250.0545 L 203.6378 250.0546 L 204.5598 250.0547 L 205.4819 250.0548 L 206.4039 250.0550 L 207.3259 250.0551 L 208.2479 250.0552 L 209.1700 250.0553 L 210.0920 250.0554 L 211.0140 250.0555 L 211.9360 250.0557 L 212.8581 250.0558 L 213.7801 250.0559 L 214.7021 250.0560 L 215.6241 250.0561 L 216.5462 250.0562 L 217.4682 250.0563 L 218.3902 250.0565 L 219.3122 250.0566 L 220.2343 250.0567 L 221.1563 250.0568 L 222.0783 250.0569 L 223.0003 250.0570 L 223.9224 250.0572 L 224.8444 250.0573 L 225.7664 250.0574 L 226.6884 250.0575 L 227.6105 250.0576 L 228.5325 250.0577 L 229.4545 250.0579 L 230.3765 250.0580 L 231.2986 250.0581 L 232.2206 250.0582 L 233.1426 250.0583 L 234.0646 250.0584 L 234.9867 250.0585 L 235.9087 250.0587 L 236.8307 250.0588 L 237.7527 250.0589 L 238.6748 250.0590 L 239.5968 250.0591 L 240.5188 250.0592 L 241.4408 250.0594 L 242.3629 250.0595 L 243.2849 250.0596 L 244.2069 250.0597 L 245.1289 250.0598 L 246.0510 250.0599 L 246.9730 250.0601 L 247.8950 250.0602 L 248.8170 250.0603 L 249.7391 250.0604 L 249.9055 250.2461 L 249.0885 250.6736 L 248.2718 251.1013 L 247.4551 251.5294 L 246.6387 251.9578 L 245.8224 252.3866 L 245.0063 252.8156 L 244.1903 253.2450 L 243.3745 253.6746 L 242.5589 254.1046 L 241.7434 254.5349 L 240.9281 254.9655 L 240.1130 255.3964 L 239.2980 255.8276 L 238.4832 256.2592 L 237.6686 256.6910 L 236.8541 257.1232 L 236.0398 257.5557 L 235.2257 257.9885 L 234.4117 258.4216 L 233.5979 258.8550 L 232.7843 259.2888 L 231.9708 259.7228 L 231.1575 260.1572 L 230.3444 260.5918 L 229.5314 261.0268 L 228.7186 261.4621 L 227.9060 261.8978 L 227.0935 262.3337 L 226.2812 262.7699 L 225.4691 263.2065 L 224.6571 263.6433 L 223.8453 264.0805 L 223.0337 264.5180 L 222.2222 264.9558 L 221.4110 265.3939 L 220.5998 265.8323 L 219.7889 266.2711 L 218.9781 266.7101 L 218.1675 267.1495 L 217.3571 267.5891 L 216.5468 268.0291 L 215.7367 268.4694 L 214.9267 268.9100 L 214.1170 269.3509 L 213.3074 269.7922 L 212.4980 270.2337 L 211.6887 270.6756 L 210.8796 271.1177 L 210.0707 271.5602 L 209.2619 272.0030 L 208.4534 272.4461 L 207.6450 272.8895 L 206.8367 273.3332 L 206.0287 273.7772 L 205.2208 274.2216 L 204.4130 274.6662 L 203.6055 275.1112 L 202.7981 275.5565 L 201.9909 276.0020 L 201.1839 276.4479 L 200.3770 276.8941 L 199.5703 277.3407 L 198.7638 277.7875 L 197.9574 278.2346 L 197.1513 278.6821 L 196.3452 279.1298 L 195.5394 279.5779 L 194.7337 280.0262 L 193.9283 280.4749 L 193.1229 280.9239 L 192.3178 281.3732 L 191.5128 281.8228 L 190.7080 282.2728 L 189.9034 282.7230 L 189.0990 283.1735 L 188.2947 283.6244 L 187.4906 284.0755 L 186.6866 284.5270 L 185.8829 284.9788 L 185.0793 285.4309 L 184.2759 285.8833 L 183.4727 286.3360 L 182.6696 286.7890 L 181.8667 287.2423 L 181.0640 287.6960 L 180.2615 288.1499 L 179.4591 288.6041 L 178.6569 289.0587 L 177.8549 289.5136 L 177.0530 289.9687 L 176.2514 290.4242 L 175.4499 290.8800 L 174.6486 291.3361 L 173.8474 291.7925 L 173.0465 292.2492 L 172.2457 292.7063 L 171.4451 293.1636 L 170.6446 293.6212 L 169.8444 294.0792 L 169.0443 294.5374 L 168.2444 294.9960 L 167.4447 295.4549 L 166.6451 295.9141 L 165.8457 296.3735 L 165.0465 296.8333 L 164.2475 297.2934 L 163.4487 297.7538 L 162.6500 298.2145 L 161.8515 298.6756 L 161.0532 299.1369 L 160.2550 299.5985 L 159.4571 300.0605 L 158.6593 300.5227 L 157.8617 300.9853 L 157.0643 301.4481 L 156.2670 301.9113 L 155.4700 302.3748 L 154.6731 302.8386 L 153.8763 303.3026 L 153.0798 303.7670 L 152.2835 304.2317 L 151.4873 304.6967 L 150.6913 305.1621 L 149.8955 305.6277 L 149.0998 306.0936 L 148.3044 306.5598 L 147.5091 307.0264 L 146.7140 307.4932 L 145.9190 307.9604 L 145.1243 308.4278 L 144.3297 308.8956 L 143.5353 309.3636 L 142.7412 309.8320 L 141.9471 310.3007 L 141.1533 310.7696 L 140.3596 311.2389 L 139.5661 311.7085 L 138.7728 312.1784 L 137.9797 312.6486 L 137.1868 313.1191 L 136.3940 313.5899 L 135.6014 314.0610 L 134.8090 314.5325 L 134.0168 315.0042 L 133.2248 315.4762 L 132.4329 315.9485 L 131.6412 316.4212 L 130.8498 316.8941 L 130.0584 317.3673 L 129.2673 317.8409 L 128.4764 318.3148 L 127.6856 318.7889 L 126.8950 319.2634 L 126.1046 319.7381 L 125.3144 320.2132 L 124.5244 320.6886 L 123.7345 321.1643 L 122.9449 321.6402 L 122.1554 322.1165 L 121.3661 322.5931 L 120.5770 323.0700 L 119.7880 323.5472 L 118.9993 324.0247 L 118.2107 324.5025 L 117.4223 324.9806 L 116.6341 325.4590 L 115.8461 325.9377 L 115.0583 326.4167 L 114.2706 326.8960 L 113.4832 327.3756 L 112.6959 327.8555 L 111.9088 328.3358 L 111.1219 328.8163 L 110.3352 329.2971 L 109.5486 329.7782 L 108.7623 330.2597 L 107.9761 330.7414 L 107.1901 331.2234 L 106.4043 331.7058 L 105.6187 332.1884 L 104.8333 332.6713 L 104.0480 333.1546 L 103.2629 333.6381 L 102.4781 334.1220 L 101.6934 334.6061 L 100.9089 335.0906 L 100.1246 335.5753 L 99.3405 336.0604 L 98.5565 336.5457 L 97.7728 337.0314 L 96.9892 337.5173 L 96.2058 338.0036 L 95.4226 338.4901 L 94.6396 338.9770 L 93.8568 339.4641 L 93.0741 339.9516 L 92.2917 340.4394 L 91.5094 340.9274 L 90.7274 341.4158 L 89.9455 341.9044 L 89.1638 342.3934 L 88.3823 342.8826 L 87.6010 343.3722 L 86.8198 343.8621 L 86.0389 344.3522 L 85.2581 344.8427 L 84.4776 345.3334 L 83.6972 345.8245 L 82.9170 346.3159 L 82.1370 346.8075 L 81.3572 347.2995 L 80.5776 347.7917 L 79.7981 348.2843 L 79.0189 348.7772 L 78.2398 349.2703 L 77.4610 349.7638 L 76.7176 350.2361 L 77.5161 349.7752 L 78.3146 349.3142 L 79.1132 348.8533 L 79.9117 348.3924 L 80.7102 347.9314 L 81.5088 347.4705 L 82.3073 347.0095 L 83.1059 346.5486 L 83.9044 346.0876 L 84.7029 345.6267 L 85.5015 345.1657 L 86.3000 344.7048 L 87.0985 344.2438 L 87.8971 343.7829 L 88.6956 343.3220 L 89.4941 342.8610 L 90.2927 342.4001 L 91.0912 341.9391 L 91.8897 341.4782 L 92.6883 341.0172 L 93.4868 340.5563 L 94.2854 340.0953 L 95.0839 339.6344 L 95.8824 339.1734 L 96.6810 338.7125 L 97.4795 338.2515 L 98.2780 337.7906 L 99.0766 337.3297 L 99.8751 336.8687 L 100.6736 336.4078 L 101.4722 335.9468 L 102.2707 335.4859 L 103.0692 335.0249 L 103.8678 334.5640 L 104.6663 334.1030 L 105.4649 333.6421 L 106.2634 333.1811 L 107.0619 332.7202 L 107.8605 332.2593 L 108.6590 331.7983 L 109.4575 331.3374 L 110.2561 330.8764 L 111.0546 330.4155 L 111.8531 329.9545 L 112.6517 329.4936 L 113.4502 329.0326 L 114.2487 328.5717 L 115.0473 328.1107 L 115.8458 327.6498 L 116.6444 327.1889 L 117.4429 326.7279 L 118.2414 326.2670 L 119.0400 325.8060 L 119.8385 325.3451 L 120.6370 324.8841 L 121.4356 324.4232 L 122.2341 323.9622 L 123.0326 323.5013 L 123.8312 323.0403 L 124.6297 322.5794 L 125.4282 322.1185 L 126.2268 321.6575 L 127.0253 321.1966 L 127.8239 320.7356 L 128.6224 320.2747 L 129.4209 319.8137 L 130.2195 319.3528 L 131.0180 318.8918 L 131.8165 318.4309 L 132.6151 317.9699 L 133.4136 317.5090 L 134.2121 317.0480 L 135.0107 316.5871 L 135.8092 316.1262 L 136.6077 315.6652 L 137.4063 315.2043 L 138.2048 314.7433 L 139.0034 314.2824 L 139.8019 313.8214 L 140.6004 313.3605 L 141.3990 312.8995 L 142.1975 312.4386 L 142.9960 311.9776 L 143.7946 311.5167 L 144.5931 311.0558 L 145.3916 310.5948 L 146.1902 310.1339 L 146.9887 309.6729 L 147.7872 309.2120 L 148.5858 308.7510 L 149.3843 308.2901 L 150.1829 307.8291 L 150.9814 307.3682 L 151.7799 306.9072 L 152.5785 306.4463 L 153.3770 305.9854 L 154.1755 305.5244 L 154.9741 305.0635 L 155.7726 304.6025 L 156.5711 304.1416 L 157.3697 303.6806 L 158.1682 303.2197 L 158.9667 302.7587 L 159.7653 302.2978 L 160.5638 301.8368 L 161.3624 301.3759 L 162.1609 300.9150 L 162.9594 300.4540 L 163.7580 299.9931 L 164.5565 299.5321 L 165.3550 299.0712 L 166.1536 298.6102 L 166.9521 298.1493 L 167.7506 297.6883 L 168.5492 297.2274 L 169.3477 296.7664 L 170.1462 296.3055 L 170.9448 295.8446 L 171.7433 295.3836 L 172.5419 294.9227 L 173.3404 294.4617 L 174.1389 294.0008 L 174.9375 293.5398 L 175.7360 293.0789 L 176.5345 292.6179 L 177.3331 292.1570 L 178.1316 291.6960 L 178.9301 291.2351 L 179.7287 290.7741 L 180.5272 290.3132 L 181.3257 289.8523 L 182.1243 289.3913 L 182.9228 288.9304 L 183.7214 288.4694 L 184.5199 288.0085 L 185.3184 287.5475 L 186.1170 287.0866 L 186.9155 286.6256 L 187.7140 286.1647 L 188.5126 285.7037 L 189.3111 285.2428 L 190.1096 284.7819 L 190.9082 284.3209 L 191.7067 283.8600 L 192.5052 283.3990 L 193.3038 282.9381 L 194.1023 282.4771 L 194.9009 282.0162 L 195.6994 281.5552 L 196.4979 281.0943 L 197.2965 280.6333 L 198.0950 280.1724 L 198.8935 279.7115 L 199.6921 279.2505 L 200.4906 278.7896 L 201.2891 278.3286 L 202.0877 277.8677 L 202.8862 277.4067 L 203.6847 276.9458 L 204.4833 276.4848 L 205.2818 276.0239 L 206.0804 275.5629 L 206.8789 275.1020 L 207.6774 274.6411 L 208.4760 274.1801 L 209.2745 273.7192 L 210.0730 273.2582 L 210.8716 272.7973 L 211.6701 272.3363 L 212.4686 271.8754 L 213.2672 271.4144 L 214.0657 270.9535 L 214.8642 270.4925 L 215.6628 270.0316 L 216.4613 269.5707 L 217.2599 269.1097 L 218.0584 268.6488 L 218.8569 268.1878 L 219.6555 267.7269 L 220.4540 267.2659 L 221.2525 266.8050 L 222.0511 266.3440 L 222.8496 265.8831 L 223.6481 265.4221 L 224.4467 264.9612 L 225.2452 264.5002 L 226.0437 264.0393 L 226.8423 263.5784 L 227.6408 263.1174 L 228.4394 262.6565 L 229.2379 262.1955 L 230.0364 261.7346 L 230.8350 261.2736 L 231.6335 260.8127 L 232.4320 260.3517 L 233.2306 259.8908 L 234.0291 259.4298 L 234.8276 258.9689 L 235.6262 258.5080 L 236.4247 258.0470 L 237.2232 257.5861 L 238.0218 257.1251 L 238.8203 256.6642 L 239.6189 256.2032 L 240.4174 255.7423 L 241.2159 255.2813 L 242.0145 254.8204 L 242.8130 254.3594 L 243.6115 253.8985 L 244.4101 253.4376 L 245.2086 252.9766 L 246.0071 252.5157 L 246.8057 252.0547 L 247.6042 251.5938 L 248.4027 251.1328 L 249.2013 250.6719 L 249.9998 250.2109 L 249.9278 250.5849 L 249.4341 251.3636 L 248.9407 252.1425 L 248.4476 252.9216 L 247.9548 253.7009 L 247.4623 254.4804 L 246.9701 255.2600 L 246.4782 256.0399 L 245.9866 256.8199 L 245.4953 257.6001 L 245.0043 258.3806 L 244.5136 259.1612 L 244.0233 259.9420 L 243.5332 260.7229 L 243.0434 261.5041 L 242.5539 262.2855 L 242.0647 263.0670 L 241.5758 263.8488 L 241.0872 264.6307 L 240.5989 265.4128 L 240.1109 266.1951 L 239.6232 266.9776 L 239.1358 267.7603 L 238.6488 268.5431 L 238.1620 269.3262 L 237.6755 270.1094 L 237.1893 270.8929 L 236.7034 271.6765 L 236.2178 272.4603 L 235.7326 273.2443 L 235.2476 274.0284 L 234.7629 274.8128 L 234.2785 275.5973 L 233.7945 276.3821 L 233.3107 277.1670 L 232.8272 277.9521 L 232.3441 278.7374 L 231.8612 279.5229 L 231.3786 280.3085 L 230.8964 281.0944 L 230.4144 281.8804 L 229.9328 282.6666 L 229.4514 283.4530 L 228.9704 284.2396 L 228.4896 285.0264 L 228.0092 285.8133 L 227.5290 286.6005 L 227.0492 287.3878 L 226.5697 288.1753 L 226.0904 288.9630 L 225.6115 289.7509 L 225.1329 290.5390 L 224.6545 291.3272 L 224.1765 292.1156 L 223.6988 292.9043 L 223.2214 293.6931 L 222.7443 294.4821 L 222.2675 295.2712 L 221.7910 296.0606 L 221.3148 296.8501 L 220.8389 297.6398 L 220.3633 298.4297 L 219.8880 299.2198 L 219.4130 300.0101 L 218.9383 300.8005 L 218.4640 301.5912 L 217.9899 302.3820 L 217.5161 303.1730 L 217.0426 303.9641 L 216.5695 304.7555 L 216.0966 305.5470 L 215.6241 306.3388 L 215.1518 307.1307 L 214.6799 307.9228 L 214.2083 308.7150 L 213.7369 309.5075 L 213.2659 310.3001 L 212.7952 311.0929 L 212.3248 311.8859 L 211.8546 312.6791 L 211.3848 313.4724 L 210.9153 314.2660 L 210.4461 315.0597 L 209.9772 315.8536 L 209.5087 316.6477 L 209.0404 317.4419 L 208.5724 318.2364 L 208.1047 319.0310 L 207.6374 319.8258 L 207.1703 320.6207 L 206.7036 321.4159 L 206.2371 322.2112 L 205.7710 323.0067 L 205.3051 323.8024 L 204.8396 324.5983 L 204.3744 325.3944 L 203.9095 326.1906 L 203.4449 326.9870 L 202.9805 327.7836 L 202.5166 328.5804 L 202.0529 329.3773 L 201.5895 330.1744 L 201.1264 330.9717 L 200.6636 331.7692 L 200.2012 332.5669 L 199.7390 333.3647 L 199.2772 334.1627 L 198.8156 334.9609 L 198.3544 335.7593 L 197.8934 336.5578 L 197.4328 337.3565 L 196.9725 338.1554 L 196.5125 338.9545 L 196.0528 339.7537 L 195.5934 340.5532 L 195.1343 341.3528 L 194.6755 342.1526 L 194.2170 342.9525 L 193.7589 343.7527 L 193.3010 344.5530 L 192.8435 345.3535 L 192.3862 346.1541 L 191.9293 346.9550 L 191.4727 347.7560 L 191.0164 348.5572 L 190.5604 349.3585 L 190.1046 350.1601 L 189.6493 350.9618 L 189.1942 351.7637 L 188.7394 352.5657 L 188.2849 353.3680 L 187.8308 354.1704 L 187.3769 354.9730 L 186.9234 355.7757 L 186.4701 356.5787 L 186.0172 357.3818 L 185.5646 358.1851 L 185.1123 358.9885 L 184.6603 359.7922 L 184.2086 360.5960 L 183.7572 361.4000 L 183.3061 362.2041 L 182.8554 363.0084 L 182.4049 363.8129 L 181.9548 364.6176 L 181.5049 365.4224 L 181.0554 366.2275 L 180.6062 367.0327 L 180.1573 367.8380 L 179.7087 368.6436 L 179.2604 369.4493 L 178.8124 370.2552 L 178.3648 371.0612 L 177.9174 371.8674 L 177.4704 372.6738 L 177.0236 373.4804 L 176.5772 374.2871 L 176.1311 375.0941 L 175.6853 375.9011 L 175.2398 376.7084 L 174.7946 377.5158 L 174.3497 378.3234 L 173.9051 379.1312 L 173.4609 379.9391 L 173.0169 380.7472 L 172.5733 381.5555 L 172.1300 382.3640 L 171.6870 383.1726 L 171.2442 383.9814 L 170.8019 384.7904 L 170.3598 385.5995 L 169.9180 386.4088 L 169.4765 387.2183 L 169.0354 388.0279 L 168.5946 388.8377 L 168.1540 389.6477 L 167.7138 390.4578 L 167.2739 391.2681 L 166.8343 392.0786 L 166.3950 392.8893 L 165.9561 393.7001 L 165.5174 394.5111 L 165.0791 395.3223 L 164.6410 396.1336 L 164.2033 396.9451 L 163.7659 397.7568 L 163.3288 398.5686 L 162.8920 399.3806 L 162.4555 400.1928 L 162.0194 401.0051 L 161.5835 401.8176 L 161.1480 402.6303 L 160.7127 403.4431 L 160.2778 404.2561 L 159.8432 405.0693 L 159.4089 405.8826 L 158.9750 406.6961 L 158.5413 407.5098 L 158.1079 408.3237 L 157.6749 409.1377 L 157.2422 409.9518 L 156.8098 410.7662 L 156.3777 411.5807 L 155.9459 412.3954 L 155.5144 413.2102 L 155.0832 414.0252 L 154.6524 414.8404 L 154.2218 415.6557 L 153.7916 416.4712 L 153.3617 417.2869 L 152.9321 418.1027 L 152.5028 418.9187 L 152.0739 419.7348 L 151.6452 420.5512 L 151.2169 421.3677 L 150.7888 422.1843 L 150.3611 423.0011 L 149.9723 423.7478 L 150.4334 422.9494 L 150.8944 422.1509 L 151.3555 421.3524 L 151.8165 420.5539 L 152.2776 419.7555 L 152.7386 418.9570 L 153.1997 418.1585 L 153.6607 417.3600 L 154.1217 416.5615 L 154.5828 415.7631 L 155.0438 414.9646 L 155.5049 414.1661 L 155.9659 413.3676 L 156.4270 412.5692 L 156.8880 411.7707 L 157.3491 410.9722 L 157.8101 410.1737 L 158.2712 409.3752 L 158.7322 408.5768 L 159.1933 407.7783 L 159.6543 406.9798 L 160.1153 406.1813 L 160.5764 405.3829 L 161.0374 404.5844 L 161.4985 403.7859 L 161.9595 402.9874 L 162.4206 402.1889 L 162.8816 401.3905 L 163.3427 400.5920 L 163.8037 399.7935 L 164.2648 398.9950 L 164.7258 398.1966 L 165.1869 397.3981 L 165.6479 396.5996 L 166.1089 395.8011 L 166.5700 395.0026 L 167.0310 394.2042 L 167.4921 393.4057 L 167.9531 392.6072 L 168.4142 391.8087 L 168.8752 391.0103 L 169.3363 390.2118 L 169.7973 389.4133 L 170.2584 388.6148 L 170.7194 387.8163 L 171.1804 387.0179 L 171.6415 386.2194 L 172.1025 385.4209 L 172.5636 384.6224 L 173.0246 383.8240 L 173.4857 383.0255 L 173.9467 382.2270 L 174.4078 381.4285 L 174.8688 380.6300 L 175.3299 379.8316 L 175.7909 379.0331 L 176.2520 378.2346 L 176.7130 377.4361 L 177.1740 376.6377 L 177.6351 375.8392 L 178.0961 375.0407 L 178.5572 374.2422 L 179.0182 373.4437 L 179.4793 372.6453 L 179.9403 371.8468 L 180.4014 371.0483 L 180.8624 370.2498 L 181.3235 369.4514 L 181.7845 368.6529 L 182.2456 367.8544 L 182.7066 367.0559 L 183.1676 366.2574 L 183.6287 365.4590 L 184.0897 364.6605 L 184.5508 363.8620 L 185.0118 363.0635 L 185.4729 362.2651 L 185.9339 361.4666 L 186.3950 360.6681 L 186.8560 359.8696 L 187.3171 359.0711 L 187.7781 358.2727 L 188.2391 357.4742 L 188.7002 356.6757 L 189.1612 355.8772 L 189.6223 355.0788 L 190.0833 354.2803 L 190.5444 353.4818 L 191.0054 352.6833 L 191.4665 351.8848 L 191.9275 351.0864 L 192.3886 350.2879 L 192.8496 349.4894 L 193.3107 348.6909 L 193.7717 347.8925 L 194.2327 347.0940 L 194.6938 346.2955 L 195.1548 345.4970 L 195.6159 344.6985 L 196.0769 343.9001 L 196.5380 343.1016 L 196.9990 342.3031 L 197.4601 341.5046 L 197.9211 340.7062 L 198.3822 339.9077 L 198.8432 339.1092 L 199.3043 338.3107 L 199.7653 337.5122 L 200.2263 336.7138 L 200.6874 335.9153 L 201.1484 335.1168 L 201.6095 334.3183 L 202.0705 333.5199 L 202.5316 332.7214 L 202.9926 331.9229 L 203.4537 331.1244 L 203.9147 330.3259 L 204.3758 329.5275 L 204.8368 328.7290 L 205.2978 327.9305 L 205.7589 327.1320 L 206.2199 326.3336 L 206.6810 325.5351 L 207.1420 324.7366 L 207.6031 323.9381 L 208.0641 323.1396 L 208.5252 322.3412 L 208.9862 321.5427 L 209.4473 320.7442 L 209.9083 319.9457 L 210.3694 319.1473 L 210.8304 318.3488 L 211.2914 317.5503 L 211.7525 316.7518 L 212.2135 315.9533 L 212.6746 315.1549 L 213.1356 314.3564 L 213.5967 313.5579 L 214.0577 312.7594 L 214.5188 311.9610 L 214.9798 311.1625 L 215.4409 310.3640 L 215.9019 309.5655 L 216.3630 308.7670 L 216.8240 307.9686 L 217.2850 307.1701 L 217.7461 306.3716 L 218.2071 305.5731 L 218.6682 304.7747 L 219.1292 303.9762 L 219.5903 303.1777 L 220.0513 302.3792 L 220.5124 301.5807 L 220.9734 300.7823 L 221.4345 299.9838 L 221.8955 299.1853 L 222.3566 298.3868 L 222.8176 297.5884 L 223.2786 296.7899 L 223.7397 295.9914 L 224.2007 295.1929 L 224.6618 294.3944 L 225.1228 293.5960 L 225.5839 292.7975 L 226.0449 291.9990 L 226.5060 291.2005 L 226.9670 290.4021 L 227.4281 289.6036 L 227.8891 288.8051 L 228.3501 288.0066 L 228.8112 287.2081 L 229.2722 286.4097 L 229.7333 285.6112 L 230.1943 284.8127 L 230.6554 284.0142 L 231.1164 283.2158 L 231.5775 282.4173 L 232.0385 281.6188 L 232.4996 280.8203 L 232.9606 280.0218 L 233.4217 279.2234 L 233.8827 278.4249 L 234.3437 277.6264 L 234.8048 276.8279 L 235.2658 276.0295 L 235.7269 275.2310 L 236.1879 274.4325 L 236.6490 273.6340 L 237.1100 272.8355 L 237.5711 272.0371 L 238.0321 271.2386 L 238.4932 270.4401 L 238.9542 269.6416 L 239.4153 268.8431 L 239.8763 268.0447 L 240.3373 267.2462 L 240.7984 266.4477 L 241.2594 265.6492 L 241.7205 264.8508 L 242.1815 264.0523 L 242.6426 263.2538 L 243.1036 262.4553 L 243.5647 261.6568 L 244.0257 260.8584 L 244.4868 260.0599 L 244.9478 259.2614 L 245.4088 258.4629 L 245.8699 257.6645 L 246.3309 256.8660 L 246.7920 256.0675 L 247.2530 255.2690 L 247.7141 254.4705 L 248.1751 253.6721 L 248.6362 252.8736 L 249.0972 252.0751 L 249.5583 251.2766 L 250.0193 250.4782 L 250.2421 250.4998 L 250.2039 251.4210 L 250.1660 252.3423 L 250.1284 253.2635 L 250.0912 254.1848 L 250.0543 255.1061 L 250.0179 256.0274 L 249.9817 256.9487 L 249.9459 257.8700 L 249.9105 258.7914 L 249.8754 259.7127 L 249.8407 260.6341 L 249.8063 261.5555 L 249.7723 262.4769 L 249.7387 263.3983 L 249.7054 264.3197 L 249.6724 265.2412 L 249.6398 266.1626 L 249.6076 267.0841 L 249.5757 268.0055 L 249.5442 268.9270 L 249.5130 269.8485 L 249.4822 270.7700 L 249.4517 271.6916 L 249.4216 272.6131 L 249.3919 273.5346 L 249.3624 274.4562 L 249.3334 275.3778 L 249.3047 276.2993 L 249.2764 277.2209 L 249.2484 278.1425 L 249.2207 279.0641 L 249.1935 279.9858 L 249.1665 280.9074 L 249.1400 281.8290 L 249.1138 282.7507 L 249.0879 283.6723 L 249.0624 284.5940 L 249.0373 285.5157 L 249.0125 286.4374 L 248.9880 287.3591 L 248.9639 288.2808 L 248.9402 289.2025 L 248.9168 290.1243 L 248.8938 291.0460 L 248.8711 291.9677 L 248.8488 292.8895 L 248.8269 293.8113 L 248.8053 294.7330 L 248.7840 295.6548 L 248.7631 296.5766 L 248.7426 297.4984 L 248.7224 298.4202 L 248.7026 299.3420 L 248.6831 300.2638 L 248.6640 301.1857 L 248.6452 302.1075 L 248.6268 303.0293 L 248.6087 303.9512 L 248.5910 304.8730 L 248.5737 305.7949 L 248.5567 306.7168 L 248.5400 307.6386 L 248.5237 308.5605 L 248.5078 309.4824 L 248.4922 310.4043 L 248.4770 311.3262 L 248.4621 312.2481 L 248.4476 313.1700 L 248.4335 314.0919 L 248.4197 315.0139 L 248.4062 315.9358 L 248.3931 316.8577 L 248.3804 317.7796 L 248.3680 318.7016 L 248.3560 319.6235 L 248.3443 320.5455 L 248.3330 321.4674 L 248.3220 322.3894 L 248.3114 323.3114 L 248.3011 324.2333 L 248.2913 325.1553 L 248.2817 326.0773 L 248.2725 326.9993 L 248.2637 327.9212 L 248.2552 328.8432 L 248.2470 329.7652 L 248.2393 330.6872 L 248.2318 331.6092 L 248.2248 332.5312 L 248.2181 333.4532 L 248.2117 334.3752 L 248.2057 335.2972 L 248.2001 336.2192 L 248.1948 337.1412 L 248.1898 338.0632 L 248.1853 338.9853 L 248.1810 339.9073 L 248.1771 340.8293 L 248.1736 341.7513 L 248.1705 342.6733 L 248.1676 343.5953 L 248.1652 344.5174 L 248.1631 345.4394 L 248.1613 346.3614 L 248.1599 347.2834 L 248.1589 348.2055 L 248.1582 349.1275 L 248.1579 350.0495 L 248.1579 350.9715 L 248.1583 351.8936 L 248.1590 352.8156 L 248.1601 353.7376 L 248.1616 354.6596 L 248.1633 355.5817 L 248.1655 356.5037 L 248.1680 357.4257 L 248.1709 358.3477 L 248.1741 359.2697 L 248.1777 360.1918 L 248.1816 361.1138 L 248.1859 362.0358 L 248.1905 362.9578 L 248.1955 363.8798 L 248.2008 364.8018 L 248.2065 365.7238 L 248.2126 366.6458 L 248.2190 367.5678 L 248.2257 368.4898 L 248.2328 369.4118 L 248.2403 370.3338 L 248.2481 371.2558 L 248.2563 372.1778 L 248.2648 373.0998 L 248.2737 374.0218 L 248.2830 374.9438 L 248.2926 375.8657 L 248.3025 376.7877 L 248.3128 377.7097 L 248.3235 378.6316 L 248.3345 379.5536 L 248.3459 380.4756 L 248.3576 381.3975 L 248.3697 382.3195 L 248.3821 383.2414 L 248.3949 384.1633 L 248.4080 385.0853 L 248.4215 386.0072 L 248.4353 386.9291 L 248.4496 387.8510 L 248.4641 388.7729 L 248.4790 389.6948 L 248.4943 390.6167 L 248.5099 391.5386 L 248.5259 392.4605 L 248.5422 393.3824 L 248.5589 394.3043 L 248.5759 395.2261 L 248.5933 396.1480 L 248.6111 397.0699 L 248.6292 397.9917 L 248.6476 398.9135 L 248.6664 399.8354 L 248.6856 400.7572 L 248.7051 401.6790 L 248.7250 402.6008 L 248.7452 403.5226 L 248.7658 404.4444 L 248.7867 405.3662 L 248.8080 406.2880 L 248.8296 407.2098 L 248.8516 408.1315 L 248.8740 409.0533 L 248.8967 409.9750 L 248.9198 410.8968 L 248.9432 411.8185 L 248.9669 412.7402 L 248.9911 413.6619 L 249.0155 414.5836 L 249.0404 415.5053 L 249.0655 416.4270 L 249.0911 417.3487 L 249.1170 418.2703 L 249.1432 419.1920 L 249.1698 420.1136 L 249.1968 421.0352 L 249.2241 421.9569 L 249.2517 422.8785 L 249.2798 423.8001 L 249.3081 424.7217 L 249.3368 425.6432 L 249.3659 426.5648 L 249.3954 427.4864 L 249.4252 428.4079 L 249.4553 429.3294 L 249.4858 430.2510 L 249.5166 431.1725 L 249.5478 432.0940 L 249.5794 433.0155 L 249.6113 433.9369 L 249.6436 434.8584 L 249.6762 435.7798 L 249.7092 436.7013 L 249.7425 437.6227 L 249.7762 438.5441 L 249.8102 439.4655 L 249.8446 440.3869 L 249.8793 441.3083 L 249.9144 442.2296 L 249.9499 443.1510 L 249.9857 444.0723 L 250.0218 444.9936 L 250.0583 445.9149 L 250.0952 446.8362 L 250.1324 447.7575 L 250.1700 448.6787 L 250.2079 449.6000 L 250.2354 450.0000 L 250.2355 449.0780 L 250.2356 448.1559 L 250.2357 447.2339 L 250.2358 446.3119 L 250.2359 445.3899 L 250.2361 444.4678 L 250.2362 443.5458 L 250.2363 442.6238 L 250.2364 441.7018 L 250.2365 440.7797 L 250.2366 439.8577 L 250.2368 438.9357 L 250.2369 438.0137 L 250.2370 437.0916 L 250.2371 436.1696 L 250.2372 435.2476 L 250.2373 434.3256 L 250.2374 433.4035 L 250.2376 432.4815 L 250.2377 431.5595 L 250.2378 430.6375 L 250.2379 429.7154 L 250.2380 428.7934 L 250.2381 427.8714 L 250.2383 426.9494 L 250.2384 426.0273 L 250.2385 425.1053 L 250.2386 424.1833 L 250.2387 423.2613 L 250.2388 422.3392 L 250.2390 421.4172 L 250.2391 420.4952 L 250.2392 419.5732 L 250.2393 418.6511 L 250.2394 417.7291 L 250.2395 416.8071 L 250.2396 415.8851 L 250.2398 414.9630 L 250.2399 414.0410 L 250.2400 413.1190 L 250.2401 412.1970 L 250.2402 411.2749 L 250.2403 410.3529 L 250.2405 409.4309 L 250.2406 408.5089 L 250.2407 407.5868 L 250.2408 406.6648 L 250.2409 405.7428 L 250.2410 404.8208 L 250.2412 403.8987 L 250.2413 402.9767 L 250.2414 402.0547 L 250.2415 401.1327 L 250.2416 400.2106 L 250.2417 399.2886 L 250.2419 398.3666 L 250.2420 397.4446 L 250.2421 396.5225 L 250.2422 395.6005 L 250.2423 394.6785 L 250.2424 393.7565 L 250.2425 392.8344 L 250.2427 391.9124 L 250.2428 390.9904 L 250.2429 390.0684 L 250.2430 389.1463 L 250.2431 388.2243 L 250.2432 387.3023 L 250.2434 386.3803 L 250.2435 385.4582 L 250.2436 384.5362 L 250.2437 383.6142 L 250.2438 382.6922 L 250.2439 381.7701 L 250.2441 380.8481 L 250.2442 379.9261 L 250.2443 379.0041 L 250.2444 378.0820 L 250.2445 377.1600 L 250.2446 376.2380 L 250.2447 375.3160 L 250.2449 374.3939 L 250.2450 373.4719 L 250.2451 372.5499 L 250.2452 371.6279 L 250.2453 370.7058 L 250.2454 369.7838 L 250.2456 368.8618 L 250.2457 367.9398 L 250.2458 367.0177 L 250.2459 366.0957 L 250.2460 365.1737 L 250.2461 364.2517 L 250.2463 363.3296 L 250.2464 362.4076 L 250.2465 361.4856 L 250.2466 360.5636 L 250.2467 359.6415 L 250.2468 358.7195 L 250.2469 357.7975 L 250.2471 356.8755 L 250.2472 355.9534 L 250.2473 355.0314 L 250.2474 354.1094 L 250.2475 353.1874 L 250.2476 352.2653 L 250.2478 351.3433 L 250.2479 350.4213 L 250.2480 349.4993 L 250.2481 348.5772 L 250.2482 347.6552 L 250.2483 346.7332 L 250.2485 345.8112 L 250.2486 344.8891 L 250.2487 343.9671 L 250.2488 343.0451 L 250.2489 342.1231 L 250.2490 341.2010 L 250.2491 340.2790 L 250.2493 339.3570 L 250.2494 338.4350 L 250.2495 337.5129 L 250.2496 336.5909 L 250.2497 335.6689 L 250.2498 334.7469 L 250.2500 333.8248 L 250.2501 332.9028 L 250.2502 331.9808 L 250.2503 331.0588 L 250.2504 330.1367 L 250.2505 329.2147 L 250.2507 328.2927 L 250.2508 327.3707 L 250.2509 326.4486 L 250.2510 325.5266 L 250.2511 324.6046 L 250.2512 323.6826 L 250.2514 322.7605 L 250.2515 321.8385 L 250.2516 320.9165 L 250.2517 319.9945 L 250.2518 319.0724 L 250.2519 318.1504 L 250.2520 317.2284 L 250.2522 316.3064 L 250.2523 315.3843 L 250.2524 314.4623 L 250.2525 313.5403 L 250.2526 312.6183 L 250.2527 311.6962 L 250.2529 310.7742 L 250.2530 309.8522 L 250.2531 308.9302 L 250.2532 308.0081 L 250.2533 307.0861 L 250.2534 306.1641 L 250.2536 305.2421 L 250.2537 304.3200 L 250.2538 303.3980 L 250.2539 302.4760 L 250.2540 301.5540 L 250.2541 300.6319 L 250.2542 299.7099 L 250.2544 298.7879 L 250.2545 297.8659 L 250.2546 296.9438 L 250.2547 296.0218 L 250.2548 295.0998 L 250.2549 294.1778 L 250.2551 293.2557 L 250.2552 292.3337 L 250.2553 291.4117 L 250.2554 290.4897 L 250.2555 289.5676 L 250.2556 288.6456 L 250.2558 287.7236 L 250.2559 286.8016 L 250.2560 285.8795 L 250.2561 284.9575 L 250.2562 284.0355 L 250.2563 283.1135 L 250.2564 282.1914 L 250.2566 281.2694 L 250.2567 280.3474 L 250.2568 279.4254 L 250.2569 278.5033 L 250.2570 277.5813 L 250.2571 276.6593 L 250.2573 275.7373 L 250.2574 274.8152 L 250.2575 273.8932 L 250.2576 272.9712 L 250.2577 272.0492 L 250.2578 271.1271 L 250.2580 270.2051 L 250.2581 269.2831 L 250.2582 268.3611 L 250.2583 267.4390 L 250.2584 266.5170 L 250.2585 265.5950 L 250.2587 264.6730 L 250.2588 263.7509 L 250.2589 262.8289 L 250.2590 261.9069 L 250.2591 260.9849 L 250.2592 260.0628 L 250.2593 259.1408 L 250.2595 258.2188 L 250.2596 257.2968 L 250.2597 256.3747 L 250.2598 255.4527 L 250.2599 254.5307 L 250.2600 253.6087 L 250.2602 252.6866 L 250.2603 251.7646 L 250.2604 250.8426 L 250.3253 250.1844 L 250.7527 251.0014 L 251.1804 251.8183 L 251.6084 252.6349 L 252.0367 253.4514 L 252.4653 254.2678 L 252.8943 255.0839 L 253.3235 255.8999 L 253.7531 256.7158 L 254.1830 257.5315 L 254.6132 258.3470 L 255.0437 259.1623 L 255.4745 259.9775 L 255.9057 260.7925 L 256.3371 261.6074 L 256.7689 262.4220 L 257.2010 263.2366 L 257.6334 264.0509 L 258.0661 264.8651 L 258.4991 265.6791 L 258.9325 266.4929 L 259.3661 267.3066 L 259.8001 268.1201 L 260.2343 268.9335 L 260.6689 269.7467 L 261.1038 270.5597 L 261.5390 271.3725 L 261.9746 272.1852 L 262.4104 272.9977 L 262.8465 273.8101 L 263.2830 274.6222 L 263.7198 275.4343 L 264.1569 276.2461 L 264.5943 277.0578 L 265.0320 277.8693 L 265.4700 278.6806 L 265.9083 279.4918 L 266.3470 280.3028 L 266.7860 281.1136 L 267.2252 281.9243 L 267.6648 282.7348 L 268.1047 283.5451 L 268.5449 284.3552 L 268.9854 285.1652 L 269.4263 285.9750 L 269.8674 286.7847 L 270.3088 287.5942 L 270.7506 288.4035 L 271.1927 289.2126 L 271.6351 290.0216 L 272.0778 290.8304 L 272.5208 291.6390 L 272.9641 292.4474 L 273.4077 293.2557 L 273.8517 294.0638 L 274.2959 294.8718 L 274.7405 295.6795 L 275.1854 296.4871 L 275.6306 297.2946 L 276.0760 298.1018 L 276.5219 298.9089 L 276.9680 299.7158 L 277.4144 300.5226 L 277.8611 301.3291 L 278.3082 302.1355 L 278.7555 302.9418 L 279.2032 303.7478 L 279.6512 304.5537 L 280.0995 305.3594 L 280.5481 306.1650 L 280.9970 306.9703 L 281.4462 307.7755 L 281.8957 308.5805 L 282.3455 309.3854 L 282.7957 310.1900 L 283.2461 310.9945 L 283.6969 311.7989 L 284.1480 312.6030 L 284.5993 313.4070 L 285.0510 314.2108 L 285.5030 315.0145 L 285.9554 315.8179 L 286.4080 316.6212 L 286.8609 317.4243 L 287.3141 318.2272 L 287.7677 319.0300 L 288.2215 319.8326 L 288.6757 320.6350 L 289.1302 321.4372 L 289.5849 322.2393 L 290.0400 323.0412 L 290.4954 323.8429 L 290.9511 324.6444 L 291.4071 325.4458 L 291.8635 326.2470 L 292.3201 327.0480 L 292.7770 327.8488 L 293.2343 328.6495 L 293.6918 329.4500 L 294.1497 330.2503 L 294.6079 331.0504 L 295.0663 331.8504 L 295.5251 332.6502 L 295.9842 333.4498 L 296.4436 334.2492 L 296.9033 335.0485 L 297.3633 335.8475 L 297.8236 336.6464 L 298.2843 337.4451 L 298.7452 338.2437 L 299.2064 339.0421 L 299.6680 339.8402 L 300.1298 340.6383 L 300.5920 341.4361 L 301.0545 342.2337 L 301.5172 343.0312 L 301.9803 343.8285 L 302.4437 344.6256 L 302.9074 345.4226 L 303.3714 346.2193 L 303.8357 347.0159 L 304.3003 347.8123 L 304.7652 348.6086 L 305.2305 349.4046 L 305.6960 350.2005 L 306.1618 350.9962 L 306.6280 351.7917 L 307.0944 352.5870 L 307.5612 353.3822 L 308.0282 354.1772 L 308.4956 354.9719 L 308.9633 355.7666 L 309.4313 356.5610 L 309.8995 357.3553 L 310.3681 358.1493 L 310.8370 358.9432 L 311.3062 359.7369 L 311.7757 360.5305 L 312.2455 361.3238 L 312.7156 362.1170 L 313.1861 362.9100 L 313.6568 363.7028 L 314.1278 364.4954 L 314.5992 365.2879 L 315.0708 366.0802 L 315.5427 366.8722 L 316.0150 367.6642 L 316.4875 368.4559 L 316.9604 369.2474 L 317.4335 370.0388 L 317.9070 370.8300 L 318.3808 371.6209 L 318.8548 372.4118 L 319.3292 373.2024 L 319.8039 373.9928 L 320.2789 374.7831 L 320.7542 375.5732 L 321.2297 376.3631 L 321.7056 377.1528 L 322.1818 377.9424 L 322.6583 378.7317 L 323.1351 379.5209 L 323.6122 380.3099 L 324.0896 381.0987 L 324.5674 381.8873 L 325.0454 382.6757 L 325.5237 383.4640 L 326.0023 384.2520 L 326.4812 385.0399 L 326.9605 385.8276 L 327.4400 386.6151 L 327.9198 387.4025 L 328.4000 388.1896 L 328.8804 388.9766 L 329.3611 389.7634 L 329.8422 390.5500 L 330.3235 391.3364 L 330.8052 392.1226 L 331.2871 392.9086 L 331.7694 393.6945 L 332.2519 394.4802 L 332.7348 395.2656 L 333.2179 396.0509 L 333.7014 396.8360 L 334.1851 397.6210 L 334.6692 398.4057 L 335.1536 399.1903 L 335.6382 399.9746 L 336.1232 400.7588 L 336.6085 401.5428 L 337.0940 402.3266 L 337.5799 403.1102 L 338.0661 403.8937 L 338.5525 404.6769 L 339.0393 405.4600 L 339.5264 406.2428 L 340.0138 407.0255 L 340.5014 407.8080 L 340.9894 408.5903 L 341.4777 409.3725 L 341.9663 410.1544 L 342.4551 410.9362 L 342.9443 411.7177 L 343.4338 412.4991 L 343.9235 413.2803 L 344.4136 414.0613 L 344.9040 414.8421 L 345.3947 415.6227 L 345.8856 416.4031 L 346.3769 417.1834 L 346.8685 417.9634 L 347.3604 418.7433 L 347.8525 419.5230 L 348.3450 420.3025 L 348.8378 421.0818 L 349.3309 421.8609 L 349.8242 422.6398 L 350.3179 423.4185 L 350.1055 423.0306 L 349.6446 422.2321 L 349.1837 421.4336 L 348.7227 420.6350 L 348.2618 419.8365 L 347.8008 419.0380 L 347.3399 418.2394 L 346.8789 417.4409 L 346.4180 416.6424 L 345.9570 415.8438 L 345.4961 415.0453 L 345.0351 414.2468 L 344.5742 413.4482 L 344.1133 412.6497 L 343.6523 411.8511 L 343.1914 411.0526 L 342.7304 410.2541 L 342.2695 409.4555 L 341.8085 408.6570 L 341.3476 407.8585 L 340.8866 407.0599 L 340.4257 406.2614 L 339.9647 405.4629 L 339.5038 404.6643 L 339.0428 403.8658 L 338.5819 403.0673 L 338.1210 402.2687 L 337.6600 401.4702 L 337.1991 400.6716 L 336.7381 399.8731 L 336.2772 399.0746 L 335.8162 398.2760 L 335.3553 397.4775 L 334.8943 396.6790 L 334.4334 395.8804 L 333.9724 395.0819 L 333.5115 394.2834 L 333.0506 393.4848 L 332.5896 392.6863 L 332.1287 391.8878 L 331.6677 391.0892 L 331.2068 390.2907 L 330.7458 389.4921 L 330.2849 388.6936 L 329.8239 387.8951 L 329.3630 387.0965 L 328.9020 386.2980 L 328.4411 385.4995 L 327.9802 384.7009 L 327.5192 383.9024 L 327.0583 383.1039 L 326.5973 382.3053 L 326.1364 381.5068 L 325.6754 380.7083 L 325.2145 379.9097 L 324.7535 379.1112 L 324.2926 378.3126 L 323.8316 377.5141 L 323.3707 376.7156 L 322.9098 375.9170 L 322.4488 375.1185 L 321.9879 374.3200 L 321.5269 373.5214 L 321.0660 372.7229 L 320.6050 371.9244 L 320.1441 371.1258 L 319.6831 370.3273 L 319.2222 369.5288 L 318.7612 368.7302 L 318.3003 367.9317 L 317.8394 367.1331 L 317.3784 366.3346 L 316.9175 365.5361 L 316.4565 364.7375 L 315.9956 363.9390 L 315.5346 363.1405 L 315.0737 362.3419 L 314.6127 361.5434 L 314.1518 360.7449 L 313.6908 359.9463 L 313.2299 359.1478 L 312.7689 358.3493 L 312.3080 357.5507 L 311.8471 356.7522 L 311.3861 355.9536 L 310.9252 355.1551 L 310.4642 354.3566 L 310.0033 353.5580 L 309.5423 352.7595 L 309.0814 351.9610 L 308.6204 351.1624 L 308.1595 350.3639 L 307.6985 349.5654 L 307.2376 348.7668 L 306.7767 347.9683 L 306.3157 347.1698 L 305.8548 346.3712 L 305.3938 345.5727 L 304.9329 344.7741 L 304.4719 343.9756 L 304.0110 343.1771 L 303.5500 342.3785 L 303.0891 341.5800 L 302.6281 340.7815 L 302.1672 339.9829 L 301.7063 339.1844 L 301.2453 338.3859 L 300.7844 337.5873 L 300.3234 336.7888 L 299.8625 335.9903 L 299.4015 335.1917 L 298.9406 334.3932 L 298.4796 333.5946 L 298.0187 332.7961 L 297.5577 331.9976 L 297.0968 331.1990 L 296.6359 330.4005 L 296.1749 329.6020 L 295.7140 328.8034 L 295.2530 328.0049 L 294.7921 327.2064 L 294.3311 326.4078 L 293.8702 325.6093 L 293.4092 324.8108 L 292.9483 324.0122 L 292.4873 323.2137 L 292.0264 322.4151 L 291.5655 321.6166 L 291.1045 320.8181 L 290.6436 320.0195 L 290.1826 319.2210 L 289.7217 318.4225 L 289.2607 317.6239 L 288.7998 316.8254 L 288.3388 316.0269 L 287.8779 315.2283 L 287.4169 314.4298 L 286.9560 313.6313 L 286.4950 312.8327 L 286.0341 312.0342 L 285.5732 311.2356 L 285.1122 310.4371 L 284.6513 309.6386 L 284.1903 308.8400 L 283.7294 308.0415 L 283.2684 307.2430 L 282.8075 306.4444 L 282.3465 305.6459 L 281.8856 304.8474 L 281.4246 304.0488 L 280.9637 303.2503 L 280.5028 302.4518 L 280.0418 301.6532 L 279.5809 300.8547 L 279.1199 300.0561 L 278.6590 299.2576 L 278.1980 298.4591 L 277.7371 297.6605 L 277.2761 296.8620 L 276.8152 296.0635 L 276.3542 295.2649 L 275.8933 294.4664 L 275.4324 293.6679 L 274.9714 292.8693 L 274.5105 292.0708 L 274.0495 291.2723 L 273.5886 290.4737 L 273.1276 289.6752 L 272.6667 288.8766 L 272.2057 288.0781 L 271.7448 287.2796 L 271.2838 286.4810 L 270.8229 285.6825 L 270.3620 284.8840 L 269.9010 284.0854 L 269.4401 283.2869 L 268.9791 282.4884 L 268.5182 281.6898 L 268.0572 280.8913 L 267.5963 280.0928 L 267.1353 279.2942 L 266.6744 278.4957 L 266.2134 277.6971 L 265.7525 276.8986 L 265.2916 276.1001 L 264.8306 275.3015 L 264.3697 274.5030 L 263.9087 273.7045 L 263.4478 272.9059 L 262.9868 272.1074 L 262.5259 271.3089 L 262.0649 270.5103 L 261.6040 269.7118 L 261.1430 268.9133 L 260.6821 268.1147 L 260.2211 267.3162 L 259.7602 266.5176 L 259.2993 265.7191 L 258.8383 264.9206 L 258.3774 264.1220 L 257.9164 263.3235 L 257.4555 262.5250 L 256.9945 261.7264 L 256.5336 260.9279 L 256.0726 260.1294 L 255.6117 259.3308 L 255.1507 258.5323 L 254.6898 257.7338 L 254.2289 256.9352 L 253.7679 256.1367 L 253.3070 255.3381 L 252.8460 254.5396 L 252.3851 253.7411 L 251.9241 252.9425 L 251.4632 252.1440 L 251.0022 251.3455 L 250.5413 250.5469 L 250.5648 250.2535 L 251.3434 250.7473 L 252.1223 251.2408 L 252.9013 251.7339 L 253.6805 252.2268 L 254.4600 252.7194 L 255.2396 253.2117 L 256.0194 253.7037 L 256.7993 254.1954 L 257.5795 254.6867 L 258.3599 255.1778 L 259.1404 255.6686 L 259.9212 256.1591 L 260.7021 256.6492 L 261.4832 257.1391 L 262.2645 257.6287 L 263.0460 258.1180 L 263.8277 258.6070 L 264.6096 259.0956 L 265.3917 259.5840 L 266.1739 260.0721 L 266.9563 260.5599 L 267.7390 261.0473 L 268.5218 261.5345 L 269.3048 262.0214 L 270.0880 262.5079 L 270.8713 262.9942 L 271.6549 263.4802 L 272.4387 263.9658 L 273.2226 264.4512 L 274.0067 264.9363 L 274.7910 265.4210 L 275.5755 265.9055 L 276.3602 266.3897 L 277.1451 266.8735 L 277.9301 267.3571 L 278.7153 267.8403 L 279.5008 268.3233 L 280.2864 268.8059 L 281.0722 269.2882 L 281.8581 269.7703 L 282.6443 270.2520 L 283.4307 270.7335 L 284.2172 271.2146 L 285.0039 271.6954 L 285.7908 272.1760 L 286.5779 272.6562 L 287.3652 273.1361 L 288.1526 273.6157 L 288.9403 274.0951 L 289.7281 274.5741 L 290.5161 275.0528 L 291.3043 275.5312 L 292.0927 276.0093 L 292.8813 276.4871 L 293.6700 276.9646 L 294.4590 277.4418 L 295.2481 277.9187 L 296.0374 278.3953 L 296.8269 278.8716 L 297.6165 279.3475 L 298.4064 279.8232 L 299.1964 280.2986 L 299.9866 280.7737 L 300.7770 281.2484 L 301.5676 281.7229 L 302.3584 282.1971 L 303.1493 282.6709 L 303.9404 283.1445 L 304.7317 283.6177 L 305.5232 284.0906 L 306.3149 284.5633 L 307.1068 285.0356 L 307.8988 285.5076 L 308.6910 285.9794 L 309.4834 286.4508 L 310.2760 286.9219 L 311.0687 287.3927 L 311.8617 287.8632 L 312.6548 288.3334 L 313.4481 288.8033 L 314.2416 289.2729 L 315.0353 289.7422 L 315.8291 290.2111 L 316.6231 290.6798 L 317.4173 291.1482 L 318.2117 291.6163 L 319.0063 292.0840 L 319.8010 292.5515 L 320.5960 293.0186 L 321.3911 293.4854 L 322.1863 293.9520 L 322.9818 294.4182 L 323.7774 294.8841 L 324.5733 295.3497 L 325.3693 295.8151 L 326.1655 296.2801 L 326.9618 296.7448 L 327.7583 297.2091 L 328.5551 297.6732 L 329.3520 298.1370 L 330.1490 298.6005 L 330.9463 299.0636 L 331.7437 299.5265 L 332.5413 299.9891 L 333.3391 300.4513 L 334.1371 300.9132 L 334.9352 301.3749 L 335.7335 301.8362 L 336.5320 302.2972 L 337.3307 302.7579 L 338.1295 303.2183 L 338.9285 303.6784 L 339.7278 304.1382 L 340.5271 304.5977 L 341.3267 305.0569 L 342.1264 305.5157 L 342.9263 305.9743 L 343.7264 306.4326 L 344.5267 306.8905 L 345.3271 307.3481 L 346.1277 307.8055 L 346.9285 308.2625 L 347.7295 308.7192 L 348.5306 309.1756 L 349.3319 309.6317 L 350.1334 310.0875 L 350.9351 310.5430 L 351.7369 310.9981 L 352.5389 311.4530 L 353.3411 311.9076 L 354.1435 312.3618 L 354.9460 312.8157 L 355.7487 313.2694 L 356.5516 313.7227 L 357.3547 314.1757 L 358.1579 314.6284 L 358.9613 315.0808 L 359.7649 315.5329 L 360.5687 315.9847 L 361.3726 316.4361 L 362.1767 316.8873 L 362.9810 317.3382 L 363.7855 317.7887 L 364.5901 318.2389 L 365.3949 318.6888 L 366.1998 319.1385 L 367.0050 319.5878 L 367.8103 320.0368 L 368.6158 320.4854 L 369.4215 320.9338 L 370.2273 321.3819 L 371.0333 321.8296 L 371.8395 322.2771 L 372.6458 322.7242 L 373.4523 323.1711 L 374.2590 323.6176 L 375.0659 324.0638 L 375.8729 324.5097 L 376.6801 324.9553 L 377.4875 325.4005 L 378.2951 325.8455 L 379.1028 326.2902 L 379.9107 326.7345 L 380.7187 327.1785 L 381.5270 327.6223 L 382.3354 328.0657 L 383.1440 328.5088 L 383.9527 328.9516 L 384.7616 329.3940 L 385.5707 329.8362 L 386.3799 330.2781 L 387.1894 330.7196 L 387.9990 331.1609 L 388.8087 331.6018 L 389.6187 332.0424 L 390.4288 332.4827 L 391.2390 332.9227 L 392.0495 333.3624 L 392.8601 333.8017 L 393.6708 334.2408 L 394.4818 334.6795 L 395.2929 335.1180 L 396.1042 335.5561 L 396.9156 335.9939 L 397.7273 336.4314 L 398.5390 336.8686 L 399.3510 337.3055 L 400.1631 337.7420 L 400.9754 338.1783 L 401.7879 338.6142 L 402.6005 339.0499 L 403.4133 339.4852 L 404.2262 339.9202 L 405.0394 340.3549 L 405.8527 340.7893 L 406.6661 341.2233 L 407.4797 341.6571 L 408.2935 342.0905 L 409.1075 342.5236 L 409.9216 342.9564 L 410.7359 343.3890 L 411.5504 343.8211 L 412.3650 344.2530 L 413.1798 344.6846 L 413.9948 345.1158 L 414.8099 345.5468 L 415.6252 345.9774 L 416.4406 346.4077 L 417.2562 346.8377 L 418.0720 347.2674 L 418.8880 347.6968 L 419.7041 348.1258 L 420.5203 348.5546 L 421.3368 348.9830 L 422.1534 349.4111 L 422.9702 349.8389 L 423.7871 350.2664 L 423.3752 350.0179 L 422.5767 349.5569 L 421.7782 349.0958 L 420.9797 348.6348 L 420.1812 348.1738 L 419.3828 347.7127 L 418.5843 347.2517 L 417.7858 346.7906 L 416.9873 346.3296 L 416.1889 345.8685 L 415.3904 345.4075 L 414.5919 344.9464 L 413.7934 344.4854 L 412.9949 344.0243 L 412.1965 343.5633 L 411.3980 343.1022 L 410.5995 342.6412 L 409.8010 342.1802 L 409.0026 341.7191 L 408.2041 341.2581 L 407.4056 340.7970 L 406.6071 340.3360 L 405.8086 339.8749 L 405.0102 339.4139 L 404.2117 338.9528 L 403.4132 338.4918 L 402.6147 338.0307 L 401.8163 337.5697 L 401.0178 337.1087 L 400.2193 336.6476 L 399.4208 336.1866 L 398.6223 335.7255 L 397.8239 335.2645 L 397.0254 334.8034 L 396.2269 334.3424 L 395.4284 333.8813 L 394.6300 333.4203 L 393.8315 332.9592 L 393.0330 332.4982 L 392.2345 332.0371 L 391.4360 331.5761 L 390.6376 331.1151 L 389.8391 330.6540 L 389.0406 330.1930 L 388.2421 329.7319 L 387.4437 329.2709 L 386.6452 328.8098 L 385.8467 328.3488 L 385.0482 327.8877 L 384.2497 327.4267 L 383.4513 326.9656 L 382.6528 326.5046 L 381.8543 326.0435 L 381.0558 325.5825 L 380.2574 325.1215 L 379.4589 324.6604 L 378.6604 324.1994 L 377.8619 323.7383 L 377.0634 323.2773 L 376.2650 322.8162 L 375.4665 322.3552 L 374.6680 321.8941 L 373.8695 321.4331 L 373.0711 320.9720 L 372.2726 320.5110 L 371.4741 320.0500 L 370.6756 319.5889 L 369.8771 319.1279 L 369.0787 318.6668 L 368.2802 318.2058 L 367.4817 317.7447 L 366.6832 317.2837 L 365.8848 316.8226 L 365.0863 316.3616 L 364.2878 315.9005 L 363.4893 315.4395 L 362.6908 314.9784 L 361.8924 314.5174 L 361.0939 314.0564 L 360.2954 313.5953 L 359.4969 313.1343 L 358.6985 312.6732 L 357.9000 312.2122 L 357.1015 311.7511 L 356.3030 311.2901 L 355.5045 310.8290 L 354.7061 310.3680 L 353.9076 309.9069 L 353.1091 309.4459 L 352.3106 308.9848 L 351.5122 308.5238 L 350.7137 308.0628 L 349.9152 307.6017 L 349.1167 307.1407 L 348.3182 306.6796 L 347.5198 306.2186 L 346.7213 305.7575 L 345.9228 305.2965 L 345.1243 304.8354 L 344.3259 304.3744 L 343.5274 303.9133 L 342.7289 303.4523 L 341.9304 302.9912 L 341.1319 302.5302 L 340.3335 302.0692 L 339.5350 301.6081 L 338.7365 301.1471 L 337.9380 300.6860 L 337.1396 300.2250 L 336.3411 299.7639 L 335.5426 299.3029 L 334.7441 298.8418 L 333.9456 298.3808 L 333.1472 297.9197 L 332.3487 297.4587 L 331.5502 296.9977 L 330.7517 296.5366 L 329.9533 296.0756 L 329.1548 295.6145 L 328.3563 295.1535 L 327.5578 294.6924 L 326.7593 294.2314 L 325.9609 293.7703 L 325.1624 293.3093 L 324.3639 292.8482 L 323.5654 292.3872 L 322.7670 291.9261 L 321.9685 291.4651 L 321.1700 291.0041 L 320.3715 290.5430 L 319.5730 290.0820 L 318.7746 289.6209 L 317.9761 289.1599 L 317.1776 288.6988 L 316.3791 288.2378 L 315.5807 287.7767 L 314.7822 287.3157 L 313.9837 286.8546 L 313.1852 286.3936 L 312.3867 285.9325 L 311.5883 285.4715 L 310.7898 285.0105 L 309.9913 284.5494 L 309.1928 284.0884 L 308.3944 283.6273 L 307.5959 283.1663 L 306.7974 282.7052 L 305.9989 282.2442 L 305.2004 281.7831 L 304.4020 281.3221 L 303.6035 280.8610 L 302.8050 280.4000 L 302.0065 279.9390 L 301.2081 279.4779 L 300.4096 279.0169 L 299.6111 278.5558 L 298.8126 278.0948 L 298.0141 277.6337 L 297.2157 277.1727 L 296.4172 276.7116 L 295.6187 276.2506 L 294.8202 275.7895 L 294.0218 275.3285 L 293.2233 274.8674 L 292.4248 274.4064 L 291.6263 273.9454 L 290.8278 273.4843 L 290.0294 273.0233 L 289.2309 272.5622 L 288.4324 272.1012 L 287.6339 271.6401 L 286.8355 271.1791 L 286.0370 270.7180 L 285.2385 270.2570 L 284.4400 269.7959 L 283.6415 269.3349 L 282.8431 268.8738 L 282.0446 268.4128 L 281.2461 267.9518 L 280.4476 267.4907 L 279.6492 267.0297 L 278.8507 266.5686 L 278.0522 266.1076 L 277.2537 265.6465 L 276.4552 265.1855 L 275.6568 264.7244 L 274.8583 264.2634 L 274.0598 263.8023 L 273.2613 263.3413 L 272.4629 262.8803 L 271.6644 262.4192 L 270.8659 261.9582 L 270.0674 261.4971 L 269.2689 261.0361 L 268.4705 260.5750 L 267.6720 260.1140 L 266.8735 259.6529 L 266.0750 259.1919 L 265.2766 258.7308 L 264.4781 258.2698 L 263.6796 257.8087 L 262.8811 257.3477 L 262.0826 256.8867 L 261.2842 256.4256 L 260.4857 255.9646 L 259.6872 255.5035 L 258.8887 255.0425 L 258.0903 254.5814 L 257.2918 254.1204 L 256.4933 253.6593 L 255.6948 253.1983 L 254.8963 252.7372 L 254.0979 252.2762 L 253.2994 251.8151 L 252.5009 251.3541 L 251.7024 250.8931 L 250.9040 250.4320 L 250.4393 250.0680 L 251.3605 250.1063 L 252.2818 250.1443 L 253.2030 250.1820 L 254.1243 250.2193 L 255.0456 250.2562 L 255.9669 250.2928 L 256.8882 250.3290 L 257.8095 250.3649 L 258.7309 250.4005 L 259.6522 250.4356 L 260.5736 250.4705 L 261.4950 250.5049 L 262.4164 250.5390 L 263.3378 250.5728 L 264.2592 250.6062 L 265.1806 250.6392 L 266.1021 250.6720 L 267.0235 250.7043 L 267.9450 250.7363 L 268.8665 250.7679 L 269.7880 250.7992 L 270.7095 250.8301 L 271.6310 250.8607 L 272.5525 250.8909 L 273.4741 250.9207 L 274.3956 250.9502 L 275.3172 250.9794 L 276.2388 251.0082 L 277.1604 251.0366 L 278.0820 251.0647 L 279.0036 251.0924 L 279.9252 251.1198 L 280.8468 251.1468 L 281.7684 251.1735 L 282.6901 251.1998 L 283.6118 251.2258 L 284.5334 251.2514 L 285.4551 251.2766 L 286.3768 251.3015 L 287.2985 251.3261 L 288.2202 251.3502 L 289.1419 251.3741 L 290.0636 251.3976 L 290.9854 251.4207 L 291.9071 251.4434 L 292.8289 251.4659 L 293.7506 251.4879 L 294.6724 251.5096 L 295.5942 251.5310 L 296.5160 251.5520 L 297.4378 251.5726 L 298.3596 251.5929 L 299.2814 251.6128 L 300.2032 251.6324 L 301.1250 251.6516 L 302.0469 251.6705 L 302.9687 251.6890 L 303.8905 251.7072 L 304.8124 251.7250 L 305.7342 251.7424 L 306.6561 251.7595 L 307.5780 251.7763 L 308.4999 251.7926 L 309.4218 251.8087 L 310.3436 251.8243 L 311.2655 251.8397 L 312.1874 251.8546 L 313.1094 251.8693 L 314.0313 251.8835 L 314.9532 251.8974 L 315.8751 251.9110 L 316.7970 251.9242 L 317.7190 251.9370 L 318.6409 251.9495 L 319.5629 251.9616 L 320.4848 251.9734 L 321.4068 251.9848 L 322.3287 251.9959 L 323.2507 252.0066 L 324.1727 252.0169 L 325.0946 252.0270 L 326.0166 252.0366 L 326.9386 252.0459 L 327.8606 252.0548 L 328.7826 252.0634 L 329.7045 252.0716 L 330.6265 252.0795 L 331.5485 252.0870 L 332.4705 252.0942 L 333.3925 252.1010 L 334.3145 252.1075 L 335.2365 252.1136 L 336.1585 252.1193 L 337.0805 252.1247 L 338.0026 252.1298 L 338.9246 252.1345 L 339.8466 252.1388 L 340.7686 252.1428 L 341.6906 252.1464 L 342.6126 252.1497 L 343.5347 252.1525 L 344.4567 252.1551 L 345.3787 252.1573 L 346.3007 252.1592 L 347.2227 252.1607 L 348.1448 252.1618 L 349.0668 252.1626 L 349.9888 252.1630 L 350.9108 252.1631 L 351.8329 252.1628 L 352.7549 252.1622 L 353.6769 252.1612 L 354.5989 252.1599 L 355.5210 252.1581 L 356.4430 252.1561 L 357.3650 252.1537 L 358.2870 252.1509 L 359.2091 252.1478 L 360.1311 252.1444 L 361.0531 252.1405 L 361.9751 252.1363 L 362.8971 252.1318 L 363.8191 252.1269 L 364.7411 252.1217 L 365.6632 252.1161 L 366.5852 252.1101 L 367.5072 252.1038 L 368.4292 252.0972 L 369.3512 252.0902 L 370.2732 252.0828 L 371.1951 252.0751 L 372.1171 252.0670 L 373.0391 252.0586 L 373.9611 252.0498 L 374.8831 252.0406 L 375.8051 252.0311 L 376.7270 252.0213 L 377.6490 252.0111 L 378.5710 252.0005 L 379.4929 251.9896 L 380.4149 251.9783 L 381.3368 251.9667 L 382.2588 251.9547 L 383.1807 251.9424 L 384.1027 251.9297 L 385.0246 251.9167 L 385.9465 251.9033 L 386.8684 251.8895 L 387.7904 251.8755 L 388.7123 251.8610 L 389.6342 251.8462 L 390.5561 251.8310 L 391.4780 251.8155 L 392.3999 251.7996 L 393.3217 251.7834 L 394.2436 251.7668 L 395.1655 251.7499 L 396.0874 251.7326 L 397.0092 251.7149 L 397.9311 251.6969 L 398.8529 251.6786 L 399.7747 251.6599 L 400.6966 251.6408 L 401.6184 251.6214 L 402.5402 251.6016 L 403.4620 251.5815 L 404.3838 251.5610 L 405.3056 251.5402 L 406.2274 251.5190 L 407.1491 251.4975 L 408.0709 251.4756 L 408.9927 251.4533 L 409.9144 251.4307 L 410.8362 251.4078 L 411.7579 251.3844 L 412.6796 251.3608 L 413.6013 251.3368 L 414.5230 251.3124 L 415.4447 251.2877 L 416.3664 251.2626 L 417.2881 251.2371 L 418.2097 251.2113 L 419.1314 251.1852 L 420.0530 251.1587 L 420.9747 251.1318 L 421.8963 251.1046 L 422.8179 251.0771 L 423.7395 251.0491 L 424.6611 251.0209 L 425.5827 250.9923 L 426.5042 250.9633 L 427.4258 250.9339 L 428.3474 250.9043 L 429.2689 250.8742 L 430.1904 250.8438 L 431.1119 250.8131 L 432.0334 250.7820 L 432.9549 250.7505 L 433.8764 250.7187 L 434.7979 250.6866 L 435.7193 250.6540 L 436.6407 250.6212 L 437.5622 250.5879 L 438.4836 250.5544 L 439.4050 250.5204 L 440.3264 250.4861 L 441.2477 250.4515 L 442.1691 250.4165 L 443.0905 250.3811 L 444.0118 250.3454 L 444.9331 250.3094 L 445.8544 250.2730 L 446.7757 250.2362 L 447.6970 250.1991 L 448.6182 250.1616 L 449.5395 250.1238" 
        fill="none" 
        stroke="#1565C0" 
        stroke-width="1.5"
        stroke-linecap="round"
        stroke-linejoin="round"/>
</svg>