<?xml version="1.0" encoding="UTF-8"?>
<svg xmlns="http://www.w3.org/2000/svg" 
     width="500.0" height="500.0" 
     viewBox="0 0 500.0 500.0">
  <rect width="100%" height="100%" fill="#ffffff"/>
  <path d="M 450.0000 250.0010 L 449.9842 247.4903 L 449.9369 244.9800 L 449.8582 242.4704 L 449.7479 239.9621 L 449.6061 237.4554 L 449.4329 234.9506 L 449.2282 232.4482 L 448.9922 229.9486 L 448.7247 227.4521 L 448.4260 224.9592 L 448.0960 222.4702 L 447.7348 219.9856 L 447.3424 217.5056 L 446.9189 215.0309 L 446.4644 212.5616 L 445.9789 210.0982 L 445.4625 207.6411 L 444.9154 205.1907 L 444.3375 202.7474 L 443.7289 200.3115 L 443.0899 197.8834 L 442.4204 195.4636 L 441.7206 193.0523 L 440.9906 190.6500 L 440.2305 188.2571 L 439.4404 185.8739 L 438.6204 183.5008 L 437.7708 181.1382 L 436.8915 178.7864 L 435.9828 176.4459 L 435.0447 174.1170 L 434.0775 171.8000 L 433.0813 169.4953 L 432.0563 167.2033 L 431.0025 164.9244 L 429.9202 162.6589 L 428.8096 160.4072 L 427.6708 158.1695 L 426.5040 155.9464 L 425.3094 153.7380 L 424.0871 151.5449 L 422.8374 149.3672 L 421.5605 147.2054 L 420.2565 145.0598 L 418.9257 142.9308 L 417.5683 140.8186 L 416.1845 138.7236 L 414.7745 136.6462 L 413.3385 134.5866 L 411.8768 132.5453 L 410.3895 130.5224 L 408.8770 128.5183 L 407.3394 126.5334 L 405.7771 124.5680 L 404.1902 122.6223 L 402.5790 120.6968 L 400.9438 118.7915 L 399.2847 116.9070 L 397.6022 115.0434 L 395.8963 113.2011 L 394.1675 111.3804 L 392.4160 109.5815 L 390.6420 107.8048 L 388.8459 106.0504 L 387.0278 104.3187 L 385.1882 102.6100 L 383.3273 100.9246 L 381.4454 99.2626 L 379.5427 97.6244 L 377.6196 96.0101 L 375.6765 94.4202 L 373.7135 92.8548 L 371.7310 91.3141 L 369.7293 89.7985 L 367.7088 88.3081 L 365.6697 86.8431 L 363.6124 85.4039 L 361.5372 83.9907 L 359.4444 82.6036 L 357.3343 81.2428 L 355.2074 79.9087 L 353.0638 78.6014 L 350.9040 77.3211 L 348.7283 76.0680 L 346.5371 74.8423 L 344.3306 73.6442 L 342.1093 72.4739 L 339.8735 71.3316 L 337.6235 70.2175 L 335.3597 69.1316 L 333.0824 68.0743 L 330.7920 67.0457 L 328.4889 66.0459 L 326.1735 65.0750 L 323.8460 64.1334 L 321.5069 63.2210 L 319.1565 62.3380 L 316.7953 61.4847 L 314.4235 60.6610 L 312.0415 59.8672 L 309.6498 59.1033 L 307.2486 58.3695 L 304.8385 57.6659 L 302.4197 56.9927 L 299.9926 56.3498 L 297.5577 55.7375 L 295.1153 55.1558 L 292.6657 54.6048 L 290.2095 54.0846 L 287.7469 53.5952 L 285.2783 53.1368 L 282.8042 52.7095 L 280.3249 52.3132 L 277.8409 51.9481 L 275.3524 51.6142 L 272.8600 51.3116 L 270.3639 51.0402 L 267.8647 50.8003 L 265.3626 50.5917 L 262.8581 50.4145 L 260.3516 50.2688 L 257.8435 50.1546 L 255.3341 50.0719 L 252.8238 50.0207 L 250.3132 50.0010 L 247.8025 50.0128 L 245.2921 50.0561 L 242.7824 50.1310 L 240.2740 50.2373 L 237.7670 50.3752 L 235.2620 50.5445 L 232.7592 50.7452 L 230.2593 50.9773 L 227.7624 51.2408 L 225.2690 51.5356 L 222.7795 51.8617 L 220.2943 52.2190 L 217.8138 52.6075 L 215.3384 53.0271 L 212.8684 53.4777 L 210.4043 53.9593 L 207.9464 54.4718 L 205.4951 55.0151 L 203.0509 55.5892 L 200.6140 56.1939 L 198.1850 56.8291 L 195.7641 57.4948 L 193.3517 58.1908 L 190.9483 58.9170 L 188.5542 59.6734 L 186.1698 60.4597 L 183.7954 61.2759 L 181.4315 62.1219 L 179.0783 62.9975 L 176.7364 63.9025 L 174.4060 64.8369 L 172.0875 65.8004 L 169.7813 66.7930 L 167.4877 67.8144 L 165.2071 68.8646 L 162.9399 69.9433 L 160.6864 71.0504 L 158.4470 72.1857 L 156.2220 73.3490 L 154.0118 74.5401 L 151.8167 75.7590 L 149.6371 77.0052 L 147.4734 78.2787 L 145.3257 79.5793 L 143.1946 80.9068 L 141.0803 82.2609 L 138.9831 83.6414 L 136.9035 85.0481 L 134.8417 86.4809 L 132.7980 87.9394 L 130.7728 89.4234 L 128.7664 90.9328 L 126.7791 92.4672 L 124.8112 94.0265 L 122.8631 95.6103 L 120.9349 97.2185 L 119.0272 98.8507 L 117.1400 100.5068 L 115.2738 102.1864 L 113.4289 103.8893 L 111.6054 105.6153 L 109.8038 107.3640 L 108.0242 109.1351 L 106.2671 110.9285 L 104.5325 112.7438 L 102.8210 114.5807 L 101.1326 116.4390 L 99.4676 118.3183 L 97.8264 120.2184 L 96.2092 122.1389 L 94.6162 124.0796 L 93.0477 126.0401 L 91.5039 128.0202 L 89.9851 130.0194 L 88.4915 132.0376 L 87.0234 134.0744 L 85.5810 136.1295 L 84.1645 138.2024 L 82.7741 140.2931 L 81.4100 142.4010 L 80.0726 144.5258 L 78.7619 146.6673 L 77.4782 148.8251 L 76.2217 150.9988 L 74.9925 153.1881 L 73.7910 155.3926 L 72.6172 157.6121 L 71.4714 159.8462 L 70.3537 162.0944 L 69.2643 164.3565 L 68.2034 166.6321 L 67.1712 168.9208 L 66.1678 171.2224 L 65.1933 173.5363 L 64.2480 175.8623 L 63.3319 178.1999 L 62.4453 180.5489 L 61.5882 182.9088 L 60.7608 185.2793 L 59.9632 187.6600 L 59.1956 190.0505 L 58.4580 192.4505 L 57.7507 194.8596 L 57.0736 197.2773 L 56.4269 199.7033 L 55.8108 202.1373 L 55.2252 204.5788 L 54.6704 207.0275 L 54.1463 209.4829 L 53.6531 211.9447 L 53.1908 214.4126 L 52.7596 216.8860 L 52.3594 219.3646 L 51.9904 221.8481 L 51.6526 224.3360 L 51.3460 226.8280 L 51.0708 229.3236 L 50.8269 231.8225 L 50.6144 234.3242 L 50.4333 236.8284 L 50.2836 239.3347 L 50.1655 241.8427 L 50.0788 244.3519 L 50.0236 246.8620 L 50.0000 249.3727 L 50.0079 251.8834 L 50.0473 254.3938 L 50.1182 256.9036 L 50.2206 259.4122 L 50.3545 261.9194 L 50.5198 264.4247 L 50.7166 266.9277 L 50.9448 269.4281 L 51.2043 271.9254 L 51.4952 274.4192 L 51.8174 276.9092 L 52.1708 279.3949 L 52.5554 281.8761 L 52.9711 284.3521 L 53.4178 286.8228 L 53.8956 289.2877 L 54.4042 291.7464 L 54.9437 294.1985 L 55.5139 296.6436 L 56.1147 299.0814 L 56.7461 301.5115 L 57.4080 303.9334 L 58.1002 306.3468 L 58.8227 308.7514 L 59.5753 311.1467 L 60.3579 313.5324 L 61.1703 315.9080 L 62.0126 318.2733 L 62.8844 320.6278 L 63.7858 322.9711 L 64.7165 325.3030 L 65.6764 327.6230 L 66.6654 329.9308 L 67.6832 332.2260 L 68.7298 334.5082 L 69.8049 336.7771 L 70.9084 339.0323 L 72.0402 341.2735 L 73.2000 343.5003 L 74.3877 345.7124 L 75.6030 347.9094 L 76.8459 350.0910 L 78.1160 352.2567 L 79.4132 354.4064 L 80.7373 356.5396 L 82.0881 358.6561 L 83.4653 360.7554 L 84.8688 362.8372 L 86.2983 364.9013 L 87.7536 366.9472 L 89.2344 368.9748 L 90.7406 370.9836 L 92.2719 372.9733 L 93.8281 374.9436 L 95.4088 376.8942 L 97.0140 378.8249 L 98.6432 380.7352 L 100.2963 382.6250 L 101.9730 384.4938 L 103.6730 386.3415 L 105.3961 388.1676 L 107.1420 389.9720 L 108.9103 391.7543 L 110.7009 393.5143 L 112.5135 395.2517 L 114.3477 396.9662 L 116.2034 398.6575 L 118.0800 400.3254 L 119.9775 401.9696 L 121.8955 403.5898 L 123.8337 405.1858 L 125.7917 406.7574 L 127.7694 408.3043 L 129.7662 409.8263 L 131.7821 411.3230 L 133.8165 412.7943 L 135.8693 414.2400 L 137.9401 415.6598 L 140.0285 417.0535 L 142.1343 418.4208 L 144.2570 419.7616 L 146.3964 421.0757 L 148.5522 422.3628 L 150.7239 423.6227 L 152.9113 424.8553 L 155.1140 426.0603 L 157.3316 427.2375 L 159.5638 428.3869 L 161.8103 429.5081 L 164.0707 430.6010 L 166.3446 431.6655 L 168.6317 432.7013 L 170.9317 433.7084 L 173.2441 434.6865 L 175.5686 435.6355 L 177.9048 436.5552 L 180.2524 437.4455 L 182.6109 438.3063 L 184.9801 439.1375 L 187.3596 439.9388 L 189.7489 440.7102 L 192.1477 441.4515 L 194.5556 442.1626 L 196.9723 442.8435 L 199.3973 443.4940 L 201.8303 444.1140 L 204.2709 444.7034 L 206.7187 445.2621 L 209.1733 445.7900 L 211.6343 446.2871 L 214.1014 446.7532 L 216.5742 447.1884 L 219.0522 447.5924 L 221.5351 447.9653 L 224.0225 448.3071 L 226.5140 448.6175 L 229.0091 448.8967 L 231.5076 449.1445 L 234.0090 449.3610 L 236.5130 449.5460 L 239.0190 449.6996 L 241.5268 449.8217 L 244.0359 449.9123 L 246.5459 449.9714 L 249.0565 449.9990 L 251.5673 449.9951 L 254.0778 449.9596 L 256.5876 449.8927 L 259.0964 449.7942 L 261.6038 449.6643 L 264.1094 449.5029 L 266.6127 449.3100 L 269.1134 449.0858 L 271.6111 448.8301 L 274.1054 448.5432 L 276.5959 448.2249 L 279.0822 447.8754 L 281.5639 447.4947 L 284.0407 447.0829 L 286.5121 446.6400 L 288.9777 446.1662 L 291.4372 445.6614 L 293.8901 445.1258 L 296.3362 444.5595 L 298.7749 443.9624 L 301.2060 443.3349 L 303.6289 442.6768 L 306.0435 441.9884 L 308.4492 441.2697 L 310.8456 440.5209 L 313.2325 439.7420 L 315.6095 438.9333 L 317.9760 438.0948 L 320.3319 437.2266 L 322.6767 436.3289 L 325.0101 435.4019 L 327.3316 434.4456 L 329.6409 433.4603 L 331.9377 432.4461 L 334.2215 431.4031 L 336.4921 430.3315 L 338.7491 429.2315 L 340.9921 428.1033 L 343.2207 426.9470 L 345.4347 425.7628 L 347.6336 424.5509 L 349.8171 423.3115 L 351.9849 422.0448 L 354.1366 420.7509 L 356.2719 419.4302 L 358.3904 418.0828 L 360.4919 416.7088 L 362.5760 415.3086 L 364.6423 413.8824 L 366.6905 412.4303 L 368.7204 410.9526 L 370.7315 409.4496 L 372.7237 407.9214 L 374.6964 406.3684 L 376.6496 404.7906 L 378.5827 403.1886 L 380.4957 401.5623 L 382.3880 399.9122 L 384.2595 398.2384 L 386.1098 396.5413 L 387.9387 394.8211 L 389.7458 393.0781 L 391.5309 391.3125 L 393.2937 389.5247 L 395.0339 387.7148 L 396.7513 385.8833 L 398.4455 384.0303 L 400.1164 382.1563 L 401.7636 380.2614 L 403.3868 378.3459 L 404.9859 376.4103 L 406.5606 374.4547 L 408.1106 372.4795 L 409.6356 370.4850 L 411.1356 368.4715 L 412.6101 366.4393 L 414.0590 364.3888 L 415.4820 362.3203 L 416.8790 360.2341 L 418.2497 358.1305 L 419.5938 356.0098 L 420.9112 353.8725 L 422.2017 351.7187 L 423.4651 349.5490 L 424.7011 347.3635 L 425.9096 345.1628 L 427.0903 342.9470 L 428.2432 340.7165 L 429.3679 338.4718 L 430.4644 336.2131 L 431.5324 333.9409 L 432.5719 331.6554 L 433.5826 329.3570 L 434.5643 327.0462 L 435.5169 324.7232 L 436.4403 322.3884 L 437.3344 320.0422 L 438.1989 317.6850 L 439.0337 315.3171 L 439.8388 312.9389 L 440.6139 310.5508 L 441.3590 308.1532 L 442.0740 305.7463 L 442.7586 303.3307 L 443.4129 300.9067 L 444.0367 298.4747 L 444.6300 296.0350 L 445.1925 293.5881 L 445.7243 291.1343 L 446.2253 288.6741 L 446.6953 286.2077 L 447.1343 283.7356 L 447.5423 281.2582 L 447.9191 278.7759 L 448.2647 276.2891 L 448.5791 273.7981 L 448.8622 271.3033 L 449.1140 268.8052 L 449.3344 266.3042 L 449.5233 263.8005 L 449.6808 261.2947 L 449.8069 258.7871 L 449.9015 256.2781 L 449.9645 253.7682" 
        fill="none" 
        stroke="#2E7D32" 
        stroke-width="1.5"
        stroke-linecap="round"
        stroke-linejoin="round"/>
</svg>