<?xml version="1.0" encoding="UTF-8"?>
<svg xmlns="http://www.w3.org/2000/svg" 
     width="500.0" height="500.0" 
     viewBox="0 0 500.0 500.0">
  <rect width="100%" height="100%" fill="#ffffff"/>
  <path d="M 75.0000 424.9842 L 77.9718 424.4867 L 80.9436 423.9887 L 83.9153 423.4903 L 86.8869 422.9914 L 89.8584 422.4921 L 92.8298 421.9924 L 95.8012 421.4922 L 98.7725 420.9916 L 101.7438 420.4905 L 104.7149 419.9890 L 107.6860 419.4871 L 110.6570 418.9847 L 113.6280 418.4819 L 116.5988 417.9787 L 119.5696 417.4750 L 122.5403 416.9709 L 125.5110 416.4664 L 128.4815 415.9614 L 131.4520 415.4560 L 134.4225 414.9501 L 137.3928 414.4437 L 140.3631 413.9370 L 143.3333 413.4298 L 146.3034 412.9222 L 149.2734 412.4141 L 152.2434 411.9056 L 155.2133 411.3966 L 158.1831 410.8873 L 161.1528 410.3774 L 164.1225 409.8672 L 167.0921 409.3565 L 170.0616 408.8454 L 173.0311 408.3338 L 176.0004 407.8218 L 178.9697 407.3094 L 181.9389 406.7965 L 184.9081 406.2831 L 187.8771 405.7693 L 190.8461 405.2551 L 193.8150 404.7405 L 196.7839 404.2254 L 199.7526 403.7099 L 202.7213 403.1939 L 205.6899 402.6775 L 208.6584 402.1607 L 211.6269 401.6434 L 214.5953 401.1257 L 217.5636 400.6076 L 220.5318 400.0890 L 223.4999 399.5700 L 226.4680 399.0505 L 229.4360 398.5306 L 232.4039 398.0103 L 235.3718 397.4895 L 238.3395 396.9683 L 241.3072 396.4466 L 244.2748 395.9245 L 247.2423 395.4020 L 250.2098 394.8790 L 253.1772 394.3556 L 256.1445 393.8317 L 259.1117 393.3075 L 262.0788 392.7827 L 265.0459 392.2576 L 268.0129 391.7320 L 270.9798 391.2060 L 273.9467 390.6795 L 276.9134 390.1526 L 279.8801 389.6253 L 282.8467 389.0975 L 285.8132 388.5692 L 288.7797 388.0406 L 291.7460 387.5114 L 294.7123 386.9819 L 297.6785 386.4519 L 300.6447 385.9215 L 303.6107 385.3906 L 306.5767 384.8594 L 309.5426 384.3276 L 312.5084 383.7955 L 315.4742 383.2629 L 318.4398 382.7298 L 321.4054 382.1964 L 324.3709 381.6625 L 327.3363 381.1281 L 330.3017 380.5933 L 333.2670 380.0581 L 336.2321 379.5224 L 339.1972 378.9863 L 342.1623 378.4497 L 345.1272 377.9127 L 348.0921 377.3753 L 351.0569 376.8374 L 354.0216 376.2991 L 356.9862 375.7604 L 359.9508 375.2212 L 362.9153 374.6816 L 365.8797 374.1416 L 368.8440 373.6011 L 371.8082 373.0602 L 374.7724 372.5189 L 377.7365 371.9771 L 380.7004 371.4348 L 383.6644 370.8921 L 386.6282 370.3490 L 389.5919 369.8055 L 392.5556 369.2615 L 395.5192 368.7170 L 398.4827 368.1722 L 401.4462 367.6269 L 404.4095 367.0812 L 407.3728 366.5350 L 410.3360 365.9884 L 413.2991 365.4413 L 416.2621 364.8939 L 419.2251 364.3459 L 422.1879 363.7976 L 425.0000 363.2761 L 422.0326 363.7992 L 419.0652 364.3224 L 416.0977 364.8456 L 413.1303 365.3688 L 410.1629 365.8920 L 407.1955 366.4152 L 404.2281 366.9383 L 401.2607 367.4615 L 398.2932 367.9847 L 395.3258 368.5079 L 392.3584 369.0311 L 389.3910 369.5543 L 386.4236 370.0774 L 383.4562 370.6006 L 380.4887 371.1238 L 377.5213 371.6470 L 374.5539 372.1702 L 371.5865 372.6933 L 368.6191 373.2165 L 365.6516 373.7397 L 362.6842 374.2629 L 359.7168 374.7861 L 356.7494 375.3093 L 353.7820 375.8324 L 350.8146 376.3556 L 347.8471 376.8788 L 344.8797 377.4020 L 341.9123 377.9252 L 338.9449 378.4484 L 335.9775 378.9715 L 333.0101 379.4947 L 330.0426 380.0179 L 327.0752 380.5411 L 324.1078 381.0643 L 321.1404 381.5874 L 318.1730 382.1106 L 315.2055 382.6338 L 312.2381 383.1570 L 309.2707 383.6802 L 306.3033 384.2034 L 303.3359 384.7265 L 300.3685 385.2497 L 297.4010 385.7729 L 294.4336 386.2961 L 291.4662 386.8193 L 288.4988 387.3425 L 285.5314 387.8656 L 282.5640 388.3888 L 279.5965 388.9120 L 276.6291 389.4352 L 273.6617 389.9584 L 270.6943 390.4815 L 267.7269 391.0047 L 264.7595 391.5279 L 261.7920 392.0511 L 258.8246 392.5743 L 255.8572 393.0975 L 252.8898 393.6206 L 249.9224 394.1438 L 246.9549 394.6670 L 243.9875 395.1902 L 241.0201 395.7134 L 238.0527 396.2366 L 235.0853 396.7597 L 232.1179 397.2829 L 229.1504 397.8061 L 226.1830 398.3293 L 223.2156 398.8525 L 220.2482 399.3757 L 217.2808 399.8988 L 214.3134 400.4220 L 211.3459 400.9452 L 208.3785 401.4684 L 205.4111 401.9916 L 202.4437 402.5147 L 199.4763 403.0379 L 196.5088 403.5611 L 193.5414 404.0843 L 190.5740 404.6075 L 187.6066 405.1307 L 184.6392 405.6538 L 181.6718 406.1770 L 178.7043 406.7002 L 175.7369 407.2234 L 172.7695 407.7466 L 169.8021 408.2698 L 166.8347 408.7929 L 163.8673 409.3161 L 160.8998 409.8393 L 157.9324 410.3625 L 154.9650 410.8857 L 151.9976 411.4088 L 149.0302 411.9320 L 146.0627 412.4552 L 143.0953 412.9784 L 140.1279 413.5016 L 137.1605 414.0248 L 134.1931 414.5479 L 131.2257 415.0711 L 128.2582 415.5943 L 125.2908 416.1175 L 122.3234 416.6407 L 119.3560 417.1639 L 116.3886 417.6870 L 113.4212 418.2102 L 110.4537 418.7334 L 107.4863 419.2566 L 104.5189 419.7798 L 101.5515 420.3029 L 98.5841 420.8261 L 95.6166 421.3493 L 92.6492 421.8725 L 89.6818 422.3957 L 86.7144 422.9189 L 83.7470 423.4420 L 80.7796 423.9652 L 77.8121 424.4884 L 75.1486 424.9316 L 77.9889 423.9255 L 80.8290 422.9190 L 83.6690 421.9121 L 86.5088 420.9048 L 89.3485 419.8971 L 92.1880 418.8890 L 95.0274 417.8804 L 97.8666 416.8714 L 100.7057 415.8620 L 103.5446 414.8521 L 106.3834 413.8419 L 109.2220 412.8312 L 112.0605 411.8201 L 114.8989 410.8086 L 117.7371 409.7967 L 120.5751 408.7844 L 123.4130 407.7716 L 126.2507 406.7584 L 129.0883 405.7448 L 131.9257 404.7308 L 134.7630 403.7164 L 137.6002 402.7015 L 140.4372 401.6863 L 143.2740 400.6706 L 146.1107 399.6545 L 148.9472 398.6379 L 151.7836 397.6210 L 154.6199 396.6036 L 157.4559 395.5858 L 160.2919 394.5676 L 163.1277 393.5490 L 165.9633 392.5299 L 168.7988 391.5105 L 171.6341 390.4906 L 174.4693 389.4703 L 177.3043 388.4496 L 180.1392 387.4284 L 182.9740 386.4069 L 185.8086 385.3849 L 188.6430 384.3626 L 191.4773 383.3397 L 194.3114 382.3165 L 197.1454 381.2928 L 199.9792 380.2688 L 202.8129 379.2443 L 205.6464 378.2194 L 208.4798 377.1940 L 211.3130 376.1683 L 214.1461 375.1421 L 216.9790 374.1156 L 219.8117 373.0886 L 222.6444 372.0612 L 225.4768 371.0334 L 228.3091 370.0051 L 231.1413 368.9765 L 233.9733 367.9474 L 236.8052 366.9179 L 239.6369 365.8879 L 242.4684 364.8576 L 245.2998 363.8268 L 248.1311 362.7957 L 250.9622 361.7641 L 253.7931 360.7320 L 256.6239 359.6996 L 259.4545 358.6668 L 262.2850 357.6335 L 265.1154 356.5998 L 267.9455 355.5657 L 270.7756 354.5312 L 273.6054 353.4963 L 276.4352 352.4609 L 279.2647 351.4252 L 282.0942 350.3890 L 284.9234 349.3524 L 287.7525 348.3153 L 290.5815 347.2779 L 293.4103 346.2400 L 296.2389 345.2017 L 299.0674 344.1630 L 301.8958 343.1239 L 304.7240 342.0844 L 307.5520 341.0444 L 310.3799 340.0041 L 313.2076 338.9633 L 316.0352 337.9221 L 318.8626 336.8805 L 321.6899 335.8385 L 324.5170 334.7960 L 327.3440 333.7532 L 330.1708 332.7099 L 332.9974 331.6662 L 335.8239 330.6220 L 338.6503 329.5775 L 341.4765 328.5325 L 344.3025 327.4871 L 347.1284 326.4413 L 349.9541 325.3951 L 352.7797 324.3485 L 355.6051 323.3015 L 358.4303 322.2540 L 361.2555 321.2061 L 364.0804 320.1578 L 366.9052 319.1091 L 369.7299 318.0600 L 372.5544 317.0105 L 375.3787 315.9605 L 378.2029 314.9101 L 381.0269 313.8593 L 383.8508 312.8081 L 386.6745 311.7565 L 389.4980 310.7044 L 392.3214 309.6519 L 395.1447 308.5991 L 397.9678 307.5458 L 400.7907 306.4920 L 403.6135 305.4379 L 406.4361 304.3834 L 407.4823 303.9837 L 404.6508 305.0142 L 401.8193 306.0446 L 398.9878 307.0751 L 396.1563 308.1056 L 393.3248 309.1361 L 390.4933 310.1665 L 387.6618 311.1970 L 384.8303 312.2275 L 381.9988 313.2579 L 379.1673 314.2884 L 376.3358 315.3189 L 373.5042 316.3493 L 370.6727 317.3798 L 367.8412 318.4103 L 365.0097 319.4408 L 362.1782 320.4712 L 359.3467 321.5017 L 356.5152 322.5322 L 353.6837 323.5626 L 350.8522 324.5931 L 348.0207 325.6236 L 345.1892 326.6541 L 342.3577 327.6845 L 339.5262 328.7150 L 336.6947 329.7455 L 333.8632 330.7759 L 331.0317 331.8064 L 328.2002 332.8369 L 325.3687 333.8674 L 322.5372 334.8978 L 319.7057 335.9283 L 316.8742 336.9588 L 314.0427 337.9892 L 311.2112 339.0197 L 308.3797 340.0502 L 305.5481 341.0807 L 302.7166 342.1111 L 299.8851 343.1416 L 297.0536 344.1721 L 294.2221 345.2025 L 291.3906 346.2330 L 288.5591 347.2635 L 285.7276 348.2940 L 282.8961 349.3244 L 280.0646 350.3549 L 277.2331 351.3854 L 274.4016 352.4158 L 271.5701 353.4463 L 268.7386 354.4768 L 265.9071 355.5073 L 263.0756 356.5377 L 260.2441 357.5682 L 257.4126 358.5987 L 254.5811 359.6291 L 251.7496 360.6596 L 248.9181 361.6901 L 246.0866 362.7206 L 243.2551 363.7510 L 240.4236 364.7815 L 237.5920 365.8120 L 234.7605 366.8424 L 231.9290 367.8729 L 229.0975 368.9034 L 226.2660 369.9339 L 223.4345 370.9643 L 220.6030 371.9948 L 217.7715 373.0253 L 214.9400 374.0557 L 212.1085 375.0862 L 209.2770 376.1167 L 206.4455 377.1472 L 203.6140 378.1776 L 200.7825 379.2081 L 197.9510 380.2386 L 195.1195 381.2690 L 192.2880 382.2995 L 189.4565 383.3300 L 186.6250 384.3605 L 183.7935 385.3909 L 180.9620 386.4214 L 178.1305 387.4519 L 175.2990 388.4823 L 172.4675 389.5128 L 169.6359 390.5433 L 166.8044 391.5738 L 163.9729 392.6042 L 161.1414 393.6347 L 158.3099 394.6652 L 155.4784 395.6956 L 152.6469 396.7261 L 149.8154 397.7566 L 146.9839 398.7871 L 144.1524 399.8175 L 141.3209 400.8480 L 138.4894 401.8785 L 135.6579 402.9089 L 132.8264 403.9394 L 129.9949 404.9699 L 127.1634 406.0004 L 124.3319 407.0308 L 121.5004 408.0613 L 118.6689 409.0918 L 115.8374 410.1222 L 113.0059 411.1527 L 110.1744 412.1832 L 107.3429 413.2137 L 104.5114 414.2441 L 101.6798 415.2746 L 98.8483 416.3051 L 96.0168 417.3355 L 93.1853 418.3660 L 90.3538 419.3965 L 87.5223 420.4270 L 84.6908 421.4574 L 81.8593 422.4879 L 79.0278 423.5184 L 76.1963 424.5488 L 76.5145 424.1273 L 79.1368 422.6431 L 81.7589 421.1585 L 84.3807 419.6736 L 87.0024 418.1882 L 89.6238 416.7025 L 92.2450 415.2163 L 94.8660 413.7298 L 97.4868 412.2429 L 100.1073 410.7557 L 102.7277 409.2680 L 105.3478 407.7799 L 107.9677 406.2915 L 110.5873 404.8027 L 113.2068 403.3135 L 115.8260 401.8239 L 118.4451 400.3339 L 121.0639 398.8436 L 123.6824 397.3528 L 126.3008 395.8617 L 128.9189 394.3701 L 131.5368 392.8782 L 134.1545 391.3859 L 136.7720 389.8932 L 139.3892 388.4001 L 142.0063 386.9066 L 144.6231 385.4128 L 147.2397 383.9185 L 149.8560 382.4239 L 152.4722 380.9289 L 155.0881 379.4335 L 157.7038 377.9377 L 160.3193 376.4416 L 162.9346 374.9450 L 165.5496 373.4481 L 168.1645 371.9508 L 170.7791 370.4531 L 173.3934 368.9550 L 176.0076 367.4565 L 178.6215 365.9576 L 181.2352 364.4583 L 183.8487 362.9587 L 186.4620 361.4587 L 189.0750 359.9582 L 191.6879 358.4574 L 194.3005 356.9563 L 196.9129 355.4547 L 199.5251 353.9527 L 202.1370 352.4504 L 204.7487 350.9477 L 207.3602 349.4446 L 209.9715 347.9411 L 212.5826 346.4372 L 215.1934 344.9329 L 217.8040 343.4283 L 220.4144 341.9232 L 223.0246 340.4178 L 225.6345 338.9120 L 228.2442 337.4058 L 230.8537 335.8992 L 233.4630 334.3922 L 236.0721 332.8849 L 238.6809 331.3771 L 241.2895 329.8690 L 243.8979 328.3605 L 246.5061 326.8516 L 249.1140 325.3423 L 251.7217 323.8327 L 254.3293 322.3227 L 256.9365 320.8122 L 259.5436 319.3014 L 262.1504 317.7902 L 264.7570 316.2786 L 267.3634 314.7666 L 269.9695 313.2542 L 272.5755 311.7415 L 275.1812 310.2284 L 277.7867 308.7149 L 280.3919 307.2010 L 282.9970 305.6867 L 285.6018 304.1720 L 288.2064 302.6570 L 290.8108 301.1416 L 293.4149 299.6257 L 296.0188 298.1095 L 298.6225 296.5930 L 301.2260 295.0760 L 303.8293 293.5586 L 306.4323 292.0409 L 309.0351 290.5227 L 311.6376 289.0042 L 314.2400 287.4853 L 316.8421 285.9660 L 319.4440 284.4464 L 322.0457 282.9263 L 324.6472 281.4059 L 327.2484 279.8851 L 329.8494 278.3639 L 332.4502 276.8423 L 335.0508 275.3204 L 337.6511 273.7980 L 340.2512 272.2753 L 342.8511 270.7522 L 345.4508 269.2287 L 348.0502 267.7048 L 350.6494 266.1805 L 353.2484 264.6558 L 355.8471 263.1308 L 358.4457 261.6054 L 361.0440 260.0796 L 363.6421 258.5534 L 366.2399 257.0268 L 368.8375 255.4998 L 371.4350 253.9725 L 374.0321 252.4448 L 376.6291 250.9167 L 379.2258 249.3882 L 381.4279 248.0894 L 378.8183 249.5958 L 376.2087 251.1023 L 373.5992 252.6088 L 370.9896 254.1152 L 368.3800 255.6217 L 365.7704 257.1281 L 363.1609 258.6346 L 360.5513 260.1410 L 357.9417 261.6475 L 355.3321 263.1539 L 352.7226 264.6604 L 350.1130 266.1669 L 347.5034 267.6733 L 344.8938 269.1798 L 342.2843 270.6862 L 339.6747 272.1927 L 337.0651 273.6991 L 334.4555 275.2056 L 331.8460 276.7121 L 329.2364 278.2185 L 326.6268 279.7250 L 324.0172 281.2314 L 321.4077 282.7379 L 318.7981 284.2443 L 316.1885 285.7508 L 313.5789 287.2572 L 310.9694 288.7637 L 308.3598 290.2702 L 305.7502 291.7766 L 303.1407 293.2831 L 300.5311 294.7895 L 297.9215 296.2960 L 295.3119 297.8024 L 292.7024 299.3089 L 290.0928 300.8153 L 287.4832 302.3218 L 284.8736 303.8283 L 282.2641 305.3347 L 279.6545 306.8412 L 277.0449 308.3476 L 274.4353 309.8541 L 271.8258 311.3605 L 269.2162 312.8670 L 266.6066 314.3735 L 263.9970 315.8799 L 261.3875 317.3864 L 258.7779 318.8928 L 256.1683 320.3993 L 253.5587 321.9057 L 250.9492 323.4122 L 248.3396 324.9186 L 245.7300 326.4251 L 243.1204 327.9316 L 240.5109 329.4380 L 237.9013 330.9445 L 235.2917 332.4509 L 232.6822 333.9574 L 230.0726 335.4638 L 227.4630 336.9703 L 224.8534 338.4768 L 222.2439 339.9832 L 219.6343 341.4897 L 217.0247 342.9961 L 214.4151 344.5026 L 211.8056 346.0090 L 209.1960 347.5155 L 206.5864 349.0219 L 203.9768 350.5284 L 201.3673 352.0349 L 198.7577 353.5413 L 196.1481 355.0478 L 193.5385 356.5542 L 190.9290 358.0607 L 188.3194 359.5671 L 185.7098 361.0736 L 183.1002 362.5801 L 180.4907 364.0865 L 177.8811 365.5930 L 175.2715 367.0994 L 172.6619 368.6059 L 170.0524 370.1123 L 167.4428 371.6188 L 164.8332 373.1252 L 162.2237 374.6317 L 159.6141 376.1382 L 157.0045 377.6446 L 154.3949 379.1511 L 151.7854 380.6575 L 149.1758 382.1640 L 146.5662 383.6704 L 143.9566 385.1769 L 141.3471 386.6833 L 138.7375 388.1898 L 136.1279 389.6963 L 133.5183 391.2027 L 130.9088 392.7092 L 128.2992 394.2156 L 125.6896 395.7221 L 123.0800 397.2285 L 120.4705 398.7350 L 117.8609 400.2415 L 115.2513 401.7479 L 112.6417 403.2544 L 110.0322 404.7608 L 107.4226 406.2673 L 104.8130 407.7737 L 102.2034 409.2802 L 99.5939 410.7866 L 96.9843 412.2931 L 94.3747 413.7996 L 91.7652 415.3060 L 89.1556 416.8125 L 86.5460 418.3189 L 83.9364 419.8254 L 81.3269 421.3318 L 78.7173 422.8383 L 76.1077 424.3448 L 76.3380 423.8811 L 78.6628 421.9641 L 80.9872 420.0467 L 83.3114 418.1291 L 85.6353 416.2111 L 87.9590 414.2927 L 90.2823 412.3740 L 92.6053 410.4549 L 94.9281 408.5355 L 97.2505 406.6158 L 99.5727 404.6957 L 101.8946 402.7753 L 104.2163 400.8545 L 106.5376 398.9334 L 108.8587 397.0120 L 111.1794 395.0902 L 113.4999 393.1680 L 115.8201 391.2456 L 118.1401 389.3227 L 120.4597 387.3996 L 122.7791 385.4761 L 125.0982 383.5523 L 127.4170 381.6281 L 129.7355 379.7035 L 132.0537 377.7787 L 134.3716 375.8534 L 136.6892 373.9279 L 139.0066 372.0020 L 141.3237 370.0757 L 143.6405 368.1491 L 145.9570 366.2222 L 148.2732 364.2949 L 150.5892 362.3673 L 152.9048 360.4394 L 155.2202 358.5111 L 157.5353 356.5824 L 159.8501 354.6535 L 162.1647 352.7242 L 164.4789 350.7945 L 166.7929 348.8645 L 169.1065 346.9341 L 171.4199 345.0035 L 173.7330 343.0724 L 176.0458 341.1410 L 178.3583 339.2093 L 180.6705 337.2773 L 182.9825 335.3449 L 185.2942 333.4121 L 187.6056 331.4791 L 189.9167 329.5456 L 192.2275 327.6119 L 194.5380 325.6778 L 196.8483 323.7434 L 199.1582 321.8086 L 201.4679 319.8735 L 203.7773 317.9380 L 206.0864 316.0022 L 208.3952 314.0660 L 210.7037 312.1296 L 213.0120 310.1927 L 215.3199 308.2555 L 217.6276 306.3180 L 219.9350 304.3802 L 222.2420 302.4420 L 224.5489 300.5034 L 226.8554 298.5646 L 229.1616 296.6254 L 231.4676 294.6858 L 233.7733 292.7459 L 236.0786 290.8057 L 238.3837 288.8651 L 240.6886 286.9242 L 242.9931 284.9830 L 245.2973 283.0414 L 247.6013 281.0994 L 249.9049 279.1572 L 252.2083 277.2145 L 254.5114 275.2716 L 256.8142 273.3283 L 259.1167 271.3846 L 261.4189 269.4407 L 263.7208 267.4963 L 266.0225 265.5517 L 268.3239 263.6067 L 270.6249 261.6614 L 272.9257 259.7157 L 275.2262 257.7697 L 277.5265 255.8233 L 279.8264 253.8767 L 282.1260 251.9296 L 284.4254 249.9822 L 286.7244 248.0345 L 289.0232 246.0865 L 291.3217 244.1381 L 293.6199 242.1893 L 295.9178 240.2403 L 298.2154 238.2908 L 300.5128 236.3411 L 302.8098 234.3910 L 305.1066 232.4406 L 307.4031 230.4898 L 309.6993 228.5387 L 311.9952 226.5873 L 314.2908 224.6355 L 316.5861 222.6834 L 318.8812 220.7310 L 321.1759 218.7782 L 323.4704 216.8250 L 325.7645 214.8715 L 328.0584 212.9177 L 330.3520 210.9635 L 332.6453 209.0090 L 334.9383 207.0542 L 337.2310 205.0990 L 339.5235 203.1435 L 341.8156 201.1877 L 344.1075 199.2315 L 344.9721 198.4828 L 342.6637 200.4195 L 340.3554 202.3562 L 338.0470 204.2929 L 335.7386 206.2295 L 333.4303 208.1662 L 331.1219 210.1029 L 328.8135 212.0396 L 326.5052 213.9762 L 324.1968 215.9129 L 321.8884 217.8496 L 319.5801 219.7863 L 317.2717 221.7229 L 314.9633 223.6596 L 312.6549 225.5963 L 310.3466 227.5330 L 308.0382 229.4697 L 305.7298 231.4063 L 303.4215 233.3430 L 301.1131 235.2797 L 298.8047 237.2164 L 296.4964 239.1530 L 294.1880 241.0897 L 291.8796 243.0264 L 289.5713 244.9631 L 287.2629 246.8998 L 284.9545 248.8364 L 282.6461 250.7731 L 280.3378 252.7098 L 278.0294 254.6465 L 275.7210 256.5831 L 273.4127 258.5198 L 271.1043 260.4565 L 268.7959 262.3932 L 266.4876 264.3298 L 264.1792 266.2665 L 261.8708 268.2032 L 259.5625 270.1399 L 257.2541 272.0766 L 254.9457 274.0132 L 252.6373 275.9499 L 250.3290 277.8866 L 248.0206 279.8233 L 245.7122 281.7599 L 243.4039 283.6966 L 241.0955 285.6333 L 238.7871 287.5700 L 236.4788 289.5066 L 234.1704 291.4433 L 231.8620 293.3800 L 229.5537 295.3167 L 227.2453 297.2534 L 224.9369 299.1900 L 222.6285 301.1267 L 220.3202 303.0634 L 218.0118 305.0001 L 215.7034 306.9367 L 213.3951 308.8734 L 211.0867 310.8101 L 208.7783 312.7468 L 206.4700 314.6835 L 204.1616 316.6201 L 201.8532 318.5568 L 199.5449 320.4935 L 197.2365 322.4302 L 194.9281 324.3668 L 192.6197 326.3035 L 190.3114 328.2402 L 188.0030 330.1769 L 185.6946 332.1135 L 183.3863 334.0502 L 181.0779 335.9869 L 178.7695 337.9236 L 176.4612 339.8603 L 174.1528 341.7969 L 171.8444 343.7336 L 169.5361 345.6703 L 167.2277 347.6070 L 164.9193 349.5436 L 162.6109 351.4803 L 160.3026 353.4170 L 157.9942 355.3537 L 155.6858 357.2904 L 153.3775 359.2270 L 151.0691 361.1637 L 148.7607 363.1004 L 146.4524 365.0371 L 144.1440 366.9737 L 141.8356 368.9104 L 139.5273 370.8471 L 137.2189 372.7838 L 134.9105 374.7204 L 132.6021 376.6571 L 130.2938 378.5938 L 127.9854 380.5305 L 125.6770 382.4672 L 123.3687 384.4038 L 121.0603 386.3405 L 118.7519 388.2772 L 116.4436 390.2139 L 114.1352 392.1505 L 111.8268 394.0872 L 109.5185 396.0239 L 107.2101 397.9606 L 104.9017 399.8972 L 102.5933 401.8339 L 100.2850 403.7706 L 97.9766 405.7073 L 95.6682 407.6440 L 93.3599 409.5806 L 91.0515 411.5173 L 88.7431 413.4540 L 86.4348 415.3907 L 84.1264 417.3273 L 81.8180 419.2640 L 79.5097 421.2007 L 77.2013 423.1374 L 75.0908 424.8779 L 77.0475 422.5865 L 79.0039 420.2948 L 80.9599 418.0028 L 82.9156 415.7106 L 84.8710 413.4180 L 86.8260 411.1251 L 88.7807 408.8320 L 90.7350 406.5386 L 92.6891 404.2449 L 94.6427 401.9509 L 96.5961 399.6566 L 98.5491 397.3620 L 100.5017 395.0671 L 102.4541 392.7720 L 104.4060 390.4766 L 106.3577 388.1808 L 108.3090 385.8848 L 110.2600 383.5885 L 112.2106 381.2919 L 114.1609 378.9950 L 116.1108 376.6979 L 118.0604 374.4004 L 120.0097 372.1026 L 121.9586 369.8046 L 123.9072 367.5063 L 125.8554 365.2077 L 127.8034 362.9088 L 129.7509 360.6096 L 131.6982 358.3101 L 133.6451 356.0104 L 135.5916 353.7103 L 137.5379 351.4100 L 139.4837 349.1094 L 141.4293 346.8085 L 143.3745 344.5073 L 145.3193 342.2058 L 147.2638 339.9040 L 149.2080 337.6020 L 151.1518 335.2996 L 153.0953 332.9970 L 155.0385 330.6940 L 156.9813 328.3908 L 158.9238 326.0873 L 160.8659 323.7836 L 162.8077 321.4795 L 164.7492 319.1752 L 166.6903 316.8705 L 168.6311 314.5656 L 170.5715 312.2604 L 172.5116 309.9549 L 174.4514 307.6491 L 176.3908 305.3431 L 178.3298 303.0367 L 180.2685 300.7300 L 182.2069 298.4231 L 184.1450 296.1159 L 186.0827 293.8084 L 188.0201 291.5006 L 189.9571 289.1925 L 191.8938 286.8842 L 193.8301 284.5755 L 195.7661 282.2666 L 197.7018 279.9574 L 199.6371 277.6479 L 201.5721 275.3381 L 203.5068 273.0280 L 205.4411 270.7177 L 207.3750 268.4070 L 209.3087 266.0961 L 211.2419 263.7849 L 213.1748 261.4733 L 215.1074 259.1616 L 217.0397 256.8495 L 218.9716 254.5371 L 220.9032 252.2245 L 222.8344 249.9115 L 224.7653 247.5983 L 226.6958 245.2848 L 228.6260 242.9710 L 230.5559 240.6570 L 232.4854 238.3426 L 234.4146 236.0280 L 236.3435 233.7131 L 238.2720 231.3979 L 240.2001 229.0824 L 242.1279 226.7666 L 244.0554 224.4505 L 245.9825 222.1342 L 247.9093 219.8175 L 249.8357 217.5006 L 251.7618 215.1834 L 253.6876 212.8659 L 255.6130 210.5482 L 257.5381 208.2301 L 259.4628 205.9118 L 261.3872 203.5932 L 263.3113 201.2743 L 265.2350 198.9551 L 267.1584 196.6356 L 269.0814 194.3159 L 271.0041 191.9958 L 272.9264 189.6755 L 274.8484 187.3549 L 276.7700 185.0340 L 278.6913 182.7128 L 280.6123 180.3913 L 282.5329 178.0696 L 284.4532 175.7476 L 286.3731 173.4252 L 288.2927 171.1027 L 290.2120 168.7798 L 292.1309 166.4566 L 294.0495 164.1332 L 295.9677 161.8095 L 297.8856 159.4855 L 299.8031 157.1612 L 301.7203 154.8366 L 303.6372 152.5117 L 301.8792 154.6049 L 299.9423 156.9132 L 298.0054 159.2214 L 296.0686 161.5296 L 294.1317 163.8378 L 292.1949 166.1460 L 290.2580 168.4543 L 288.3212 170.7625 L 286.3843 173.0707 L 284.4474 175.3789 L 282.5106 177.6871 L 280.5737 179.9953 L 278.6369 182.3036 L 276.7000 184.6118 L 274.7631 186.9200 L 272.8263 189.2282 L 270.8894 191.5364 L 268.9526 193.8446 L 267.0157 196.1529 L 265.0788 198.4611 L 263.1420 200.7693 L 261.2051 203.0775 L 259.2683 205.3857 L 257.3314 207.6939 L 255.3946 210.0022 L 253.4577 212.3104 L 251.5208 214.6186 L 249.5840 216.9268 L 247.6471 219.2350 L 245.7103 221.5432 L 243.7734 223.8515 L 241.8365 226.1597 L 239.8997 228.4679 L 237.9628 230.7761 L 236.0260 233.0843 L 234.0891 235.3925 L 232.1523 237.7008 L 230.2154 240.0090 L 228.2785 242.3172 L 226.3417 244.6254 L 224.4048 246.9336 L 222.4680 249.2419 L 220.5311 251.5501 L 218.5942 253.8583 L 216.6574 256.1665 L 214.7205 258.4747 L 212.7837 260.7829 L 210.8468 263.0912 L 208.9100 265.3994 L 206.9731 267.7076 L 205.0362 270.0158 L 203.0994 272.3240 L 201.1625 274.6322 L 199.2257 276.9405 L 197.2888 279.2487 L 195.3519 281.5569 L 193.4151 283.8651 L 191.4782 286.1733 L 189.5414 288.4815 L 187.6045 290.7898 L 185.6677 293.0980 L 183.7308 295.4062 L 181.7939 297.7144 L 179.8571 300.0226 L 177.9202 302.3308 L 175.9834 304.6391 L 174.0465 306.9473 L 172.1096 309.2555 L 170.1728 311.5637 L 168.2359 313.8719 L 166.2991 316.1801 L 164.3622 318.4884 L 162.4254 320.7966 L 160.4885 323.1048 L 158.5516 325.4130 L 156.6148 327.7212 L 154.6779 330.0294 L 152.7411 332.3377 L 150.8042 334.6459 L 148.8673 336.9541 L 146.9305 339.2623 L 144.9936 341.5705 L 143.0568 343.8788 L 141.1199 346.1870 L 139.1830 348.4952 L 137.2462 350.8034 L 135.3093 353.1116 L 133.3725 355.4198 L 131.4356 357.7281 L 129.4988 360.0363 L 127.5619 362.3445 L 125.6250 364.6527 L 123.6882 366.9609 L 121.7513 369.2691 L 119.8145 371.5774 L 117.8776 373.8856 L 115.9407 376.1938 L 114.0039 378.5020 L 112.0670 380.8102 L 110.1302 383.1184 L 108.1933 385.4267 L 106.2565 387.7349 L 104.3196 390.0431 L 102.3827 392.3513 L 100.4459 394.6595 L 98.5090 396.9677 L 96.5722 399.2760 L 94.6353 401.5842 L 92.6984 403.8924 L 90.7616 406.2006 L 88.8247 408.5088 L 86.8879 410.8170 L 84.9510 413.1253 L 83.0142 415.4335 L 81.0773 417.7417 L 79.1404 420.0499 L 77.2036 422.3581 L 75.2667 424.6664 L 76.3186 422.7454 L 77.8473 420.1488 L 79.3757 417.5521 L 80.9037 414.9550 L 82.4314 412.3578 L 83.9586 409.7603 L 85.4855 407.1627 L 87.0120 404.5647 L 88.5381 401.9666 L 90.0638 399.3682 L 91.5891 396.7697 L 93.1141 394.1709 L 94.6386 391.5718 L 96.1628 388.9726 L 97.6866 386.3731 L 99.2100 383.7734 L 100.7331 381.1734 L 102.2557 378.5733 L 103.7780 375.9729 L 105.2999 373.3723 L 106.8214 370.7714 L 108.3425 368.1704 L 109.8632 365.5691 L 111.3835 362.9676 L 112.9035 360.3658 L 114.4230 357.7639 L 115.9422 355.1617 L 117.4610 352.5593 L 118.9795 349.9567 L 120.4975 347.3538 L 122.0152 344.7508 L 123.5324 342.1475 L 125.0493 339.5439 L 126.5659 336.9402 L 128.0820 334.3362 L 129.5977 331.7320 L 131.1130 329.1276 L 132.6280 326.5229 L 134.1426 323.9181 L 135.6567 321.3130 L 137.1705 318.7076 L 138.6840 316.1021 L 140.1970 313.4963 L 141.7097 310.8904 L 143.2219 308.2841 L 144.7338 305.6777 L 146.2453 303.0711 L 147.7564 300.4642 L 149.2672 297.8571 L 150.7775 295.2498 L 152.2875 292.6422 L 153.7971 290.0345 L 155.3063 287.4265 L 156.8151 284.8182 L 158.3235 282.2098 L 159.8315 279.6011 L 161.3391 276.9922 L 162.8464 274.3831 L 164.3533 271.7738 L 165.8598 269.1642 L 167.3659 266.5545 L 168.8716 263.9445 L 170.3769 261.3343 L 171.8819 258.7238 L 173.3865 256.1132 L 174.8907 253.5023 L 176.3945 250.8912 L 177.8979 248.2799 L 179.4009 245.6683 L 180.9035 243.0565 L 182.4058 240.4445 L 183.9076 237.8323 L 185.4091 235.2199 L 186.9102 232.6072 L 188.4109 229.9943 L 189.9112 227.3812 L 191.4112 224.7679 L 192.9107 222.1543 L 194.4099 219.5406 L 195.9087 216.9266 L 197.4071 214.3124 L 198.9051 211.6979 L 200.4027 209.0833 L 201.9000 206.4684 L 203.3969 203.8533 L 204.8933 201.2380 L 206.3894 198.6225 L 207.8851 196.0067 L 209.3804 193.3907 L 210.8753 190.7745 L 212.3698 188.1581 L 213.8640 185.5415 L 215.3577 182.9246 L 216.8511 180.3075 L 218.3441 177.6902 L 219.8367 175.0727 L 221.3289 172.4550 L 222.8207 169.8370 L 224.3122 167.2188 L 225.8033 164.6004 L 227.2939 161.9818 L 228.7842 159.3630 L 230.2741 156.7439 L 231.7636 154.1246 L 233.2527 151.5051 L 234.7415 148.8854 L 236.2298 146.2654 L 237.7178 143.6452 L 239.2053 141.0249 L 240.6925 138.4043 L 242.1793 135.7834 L 243.6657 133.1624 L 245.1518 130.5411 L 246.6374 127.9197 L 248.1227 125.2980 L 249.6076 122.6761 L 251.0920 120.0539 L 252.5584 117.4626 L 251.0518 120.0720 L 249.5451 122.6815 L 248.0385 125.2909 L 246.5318 127.9004 L 245.0251 130.5098 L 243.5185 133.1193 L 242.0118 135.7288 L 240.5051 138.3382 L 238.9985 140.9477 L 237.4918 143.5571 L 235.9852 146.1666 L 234.4785 148.7760 L 232.9718 151.3855 L 231.4652 153.9950 L 229.9585 156.6044 L 228.4519 159.2139 L 226.9452 161.8233 L 225.4385 164.4328 L 223.9319 167.0422 L 222.4252 169.6517 L 220.9186 172.2611 L 219.4119 174.8706 L 217.9052 177.4801 L 216.3986 180.0895 L 214.8919 182.6990 L 213.3852 185.3084 L 211.8786 187.9179 L 210.3719 190.5273 L 208.8653 193.1368 L 207.3586 195.7462 L 205.8519 198.3557 L 204.3453 200.9652 L 202.8386 203.5746 L 201.3320 206.1841 L 199.8253 208.7935 L 198.3186 211.4030 L 196.8120 214.0124 L 195.3053 216.6219 L 193.7987 219.2313 L 192.2920 221.8408 L 190.7853 224.4503 L 189.2787 227.0597 L 187.7720 229.6692 L 186.2653 232.2786 L 184.7587 234.8881 L 183.2520 237.4975 L 181.7454 240.1070 L 180.2387 242.7164 L 178.7320 245.3259 L 177.2254 247.9354 L 175.7187 250.5448 L 174.2121 253.1543 L 172.7054 255.7637 L 171.1987 258.3732 L 169.6921 260.9826 L 168.1854 263.5921 L 166.6788 266.2015 L 165.1721 268.8110 L 163.6654 271.4205 L 162.1588 274.0299 L 160.6521 276.6394 L 159.1454 279.2488 L 157.6388 281.8583 L 156.1321 284.4677 L 154.6255 287.0772 L 153.1188 289.6867 L 151.6121 292.2961 L 150.1055 294.9056 L 148.5988 297.5150 L 147.0922 300.1245 L 145.5855 302.7339 L 144.0788 305.3434 L 142.5722 307.9528 L 141.0655 310.5623 L 139.5589 313.1718 L 138.0522 315.7812 L 136.5455 318.3907 L 135.0389 321.0001 L 133.5322 323.6096 L 132.0256 326.2190 L 130.5189 328.8285 L 129.0122 331.4379 L 127.5056 334.0474 L 125.9989 336.6569 L 124.4922 339.2663 L 122.9856 341.8758 L 121.4789 344.4852 L 119.9723 347.0947 L 118.4656 349.7041 L 116.9589 352.3136 L 115.4523 354.9230 L 113.9456 357.5325 L 112.4390 360.1420 L 110.9323 362.7514 L 109.4256 365.3609 L 107.9190 367.9703 L 106.4123 370.5798 L 104.9057 373.1892 L 103.3990 375.7987 L 101.8923 378.4081 L 100.3857 381.0176 L 98.8790 383.6271 L 97.3723 386.2365 L 95.8657 388.8460 L 94.3590 391.4554 L 92.8524 394.0649 L 91.3457 396.6743 L 89.8390 399.2838 L 88.3324 401.8932 L 86.8257 404.5027 L 85.3191 407.1122 L 83.8124 409.7216 L 82.3057 412.3311 L 80.7991 414.9405 L 79.2924 417.5500 L 77.7858 420.1594 L 76.2791 422.7689 L 75.1594 424.5579 L 76.2143 421.7354 L 77.2688 418.9128 L 78.3230 416.0900 L 79.3767 413.2671 L 80.4300 410.4440 L 81.4829 407.6207 L 82.5354 404.7974 L 83.5874 401.9738 L 84.6391 399.1501 L 85.6903 396.3262 L 86.7411 393.5022 L 87.7915 390.6780 L 88.8414 387.8537 L 89.8910 385.0292 L 90.9401 382.2045 L 91.9888 379.3797 L 93.0371 376.5548 L 94.0850 373.7297 L 95.1324 370.9044 L 96.1795 368.0790 L 97.2261 365.2534 L 98.2723 362.4277 L 99.3181 359.6018 L 100.3635 356.7758 L 101.4085 353.9496 L 102.4531 351.1233 L 103.4972 348.2968 L 104.5409 345.4701 L 105.5842 342.6433 L 106.6270 339.8163 L 107.6695 336.9892 L 108.7115 334.1620 L 109.7531 331.3345 L 110.7943 328.5070 L 111.8351 325.6792 L 112.8755 322.8514 L 113.9154 320.0233 L 114.9550 317.1951 L 115.9941 314.3668 L 117.0328 311.5383 L 118.0711 308.7096 L 119.1090 305.8808 L 120.1464 303.0519 L 121.1834 300.2228 L 122.2200 297.3935 L 123.2562 294.5641 L 124.2920 291.7345 L 125.3273 288.9048 L 126.3623 286.0749 L 127.3968 283.2449 L 128.4309 280.4147 L 129.4646 277.5844 L 130.4979 274.7539 L 131.5307 271.9233 L 132.5631 269.0925 L 133.5952 266.2615 L 134.6268 263.4304 L 135.6580 260.5992 L 136.6887 257.7678 L 137.7191 254.9363 L 138.7490 252.1046 L 139.7785 249.2727 L 140.8076 246.4407 L 141.8362 243.6085 L 142.8645 240.7762 L 143.8923 237.9437 L 144.9197 235.1111 L 145.9467 232.2784 L 146.9733 229.4454 L 147.9994 226.6124 L 149.0252 223.7792 L 150.0505 220.9458 L 151.0754 218.1123 L 152.0999 215.2786 L 153.1240 212.4448 L 154.1477 209.6108 L 155.1709 206.7767 L 156.1937 203.9424 L 157.2161 201.1080 L 158.2381 198.2734 L 159.2596 195.4386 L 160.2807 192.6037 L 161.3015 189.7687 L 162.3218 186.9335 L 163.3416 184.0982 L 164.3611 181.2627 L 165.3802 178.4271 L 166.3988 175.5913 L 167.4170 172.7554 L 168.4348 169.9193 L 169.4522 167.0830 L 170.4691 164.2466 L 171.4857 161.4101 L 172.5018 158.5734 L 173.5175 155.7366 L 174.5327 152.8996 L 175.5476 150.0625 L 176.5620 147.2252 L 177.5760 144.3877 L 178.5896 141.5501 L 179.6028 138.7124 L 180.6156 135.8745 L 181.6279 133.0365 L 182.6399 130.1983 L 183.6514 127.3600 L 184.6625 124.5215 L 185.6732 121.6829 L 186.6834 118.8441 L 187.6933 116.0051 L 188.7027 113.1661 L 189.7116 110.3268 L 190.7202 107.4875 L 191.7284 104.6479 L 192.7361 101.8082 L 193.7434 98.9684 L 194.7503 96.1284 L 195.7568 93.2883 L 195.6812 93.4603 L 194.6505 96.2918 L 193.6198 99.1232 L 192.5891 101.9546 L 191.5584 104.7860 L 190.5277 107.6175 L 189.4970 110.4489 L 188.4663 113.2803 L 187.4357 116.1117 L 186.4050 118.9431 L 185.3743 121.7746 L 184.3436 124.6060 L 183.3129 127.4374 L 182.2822 130.2688 L 181.2515 133.1003 L 180.2208 135.9317 L 179.1901 138.7631 L 178.1594 141.5945 L 177.1287 144.4260 L 176.0980 147.2574 L 175.0673 150.0888 L 174.0366 152.9202 L 173.0059 155.7517 L 171.9752 158.5831 L 170.9446 161.4145 L 169.9139 164.2459 L 168.8832 167.0773 L 167.8525 169.9088 L 166.8218 172.7402 L 165.7911 175.5716 L 164.7604 178.4030 L 163.7297 181.2345 L 162.6990 184.0659 L 161.6683 186.8973 L 160.6376 189.7287 L 159.6069 192.5602 L 158.5762 195.3916 L 157.5455 198.2230 L 156.5148 201.0544 L 155.4841 203.8858 L 154.4535 206.7173 L 153.4228 209.5487 L 152.3921 212.3801 L 151.3614 215.2115 L 150.3307 218.0430 L 149.3000 220.8744 L 148.2693 223.7058 L 147.2386 226.5372 L 146.2079 229.3687 L 145.1772 232.2001 L 144.1465 235.0315 L 143.1158 237.8629 L 142.0851 240.6943 L 141.0544 243.5258 L 140.0237 246.3572 L 138.9930 249.1886 L 137.9624 252.0200 L 136.9317 254.8515 L 135.9010 257.6829 L 134.8703 260.5143 L 133.8396 263.3457 L 132.8089 266.1772 L 131.7782 269.0086 L 130.7475 271.8400 L 129.7168 274.6714 L 128.6861 277.5029 L 127.6554 280.3343 L 126.6247 283.1657 L 125.5940 285.9971 L 124.5633 288.8285 L 123.5326 291.6600 L 122.5020 294.4914 L 121.4713 297.3228 L 120.4406 300.1542 L 119.4099 302.9857 L 118.3792 305.8171 L 117.3485 308.6485 L 116.3178 311.4799 L 115.2871 314.3114 L 114.2564 317.1428 L 113.2257 319.9742 L 112.1950 322.8056 L 111.1643 325.6370 L 110.1336 328.4685 L 109.1029 331.2999 L 108.0722 334.1313 L 107.0415 336.9627 L 106.0109 339.7942 L 104.9802 342.6256 L 103.9495 345.4570 L 102.9188 348.2884 L 101.8881 351.1199 L 100.8574 353.9513 L 99.8267 356.7827 L 98.7960 359.6141 L 97.7653 362.4455 L 96.7346 365.2770 L 95.7039 368.1084 L 94.6732 370.9398 L 93.6425 373.7712 L 92.6118 376.6027 L 91.5811 379.4341 L 90.5504 382.2655 L 89.5198 385.0969 L 88.4891 387.9284 L 87.4584 390.7598 L 86.4277 393.5912 L 85.3970 396.4226 L 84.3663 399.2540 L 83.3356 402.0855 L 82.3049 404.9169 L 81.2742 407.7483 L 80.2435 410.5797 L 79.2128 413.4112 L 78.1821 416.2426 L 77.1514 419.0740 L 76.1207 421.9054 L 75.0900 424.7369 L 75.5009 422.2803 L 76.0494 419.3174 L 76.5974 416.3545 L 77.1451 413.3915 L 77.6922 410.4284 L 78.2390 407.4652 L 78.7853 404.5020 L 79.3312 401.5387 L 79.8766 398.5753 L 80.4216 395.6118 L 80.9662 392.6482 L 81.5103 389.6845 L 82.0539 386.7208 L 82.5972 383.7570 L 83.1400 380.7931 L 83.6823 377.8291 L 84.2243 374.8651 L 84.7657 371.9009 L 85.3068 368.9367 L 85.8474 365.9724 L 86.3876 363.0081 L 86.9273 360.0436 L 87.4667 357.0791 L 88.0055 354.1145 L 88.5440 351.1498 L 89.0820 348.1850 L 89.6195 345.2202 L 90.1566 342.2553 L 90.6933 339.2902 L 91.2295 336.3252 L 91.7653 333.3600 L 92.3007 330.3947 L 92.8356 327.4294 L 93.3701 324.4640 L 93.9041 321.4985 L 94.4377 318.5330 L 94.9709 315.5673 L 95.5036 312.6016 L 96.0360 309.6358 L 96.5678 306.6700 L 97.0993 303.7040 L 97.6302 300.7380 L 98.1608 297.7719 L 98.6909 294.8057 L 99.2206 291.8394 L 99.7498 288.8731 L 100.2786 285.9066 L 100.8069 282.9401 L 101.3348 279.9736 L 101.8623 277.0069 L 102.3893 274.0402 L 102.9160 271.0734 L 103.4421 268.1065 L 103.9679 265.1395 L 104.4931 262.1725 L 105.0180 259.2053 L 105.5424 256.2381 L 106.0664 253.2709 L 106.5900 250.3035 L 107.1131 247.3361 L 107.6357 244.3686 L 108.1579 241.4010 L 108.6797 238.4333 L 109.2010 235.4656 L 109.7219 232.4977 L 110.2424 229.5299 L 110.7624 226.5619 L 111.2820 223.5938 L 111.8012 220.6257 L 112.3199 217.6575 L 112.8382 214.6892 L 113.3560 211.7209 L 113.8735 208.7524 L 114.3904 205.7839 L 114.9070 202.8154 L 115.4231 199.8467 L 115.9387 196.8780 L 116.4539 193.9092 L 116.9687 190.9403 L 117.4830 187.9713 L 117.9969 185.0023 L 118.5103 182.0331 L 119.0234 179.0639 L 119.5359 176.0947 L 120.0481 173.1253 L 120.5598 170.1559 L 121.0711 167.1864 L 121.5819 164.2169 L 122.0923 161.2472 L 122.6022 158.2775 L 123.1118 155.3077 L 123.6209 152.3378 L 124.1295 149.3679 L 124.6377 146.3979 L 125.1454 143.4278 L 125.6527 140.4576 L 126.1596 137.4873 L 126.6660 134.5170 L 127.1720 131.5466 L 127.6776 128.5762 L 128.1827 125.6056 L 128.6874 122.6350 L 129.1917 119.6643 L 129.6955 116.6935 L 130.1989 113.7227 L 130.7018 110.7518 L 131.2043 107.7808 L 131.7064 104.8097 L 132.2080 101.8386 L 132.7092 98.8674 L 133.2099 95.8961 L 133.7102 92.9247 L 134.2101 89.9533 L 134.7095 86.9818 L 135.2085 84.0102 L 135.7070 81.0385 L 136.2051 78.0668 L 136.1626 78.2376 L 135.6392 81.2050 L 135.1158 84.1724 L 134.5924 87.1397 L 134.0690 90.1071 L 133.5455 93.0745 L 133.0221 96.0419 L 132.4987 99.0093 L 131.9753 101.9766 L 131.4519 104.9440 L 130.9285 107.9114 L 130.4051 110.8788 L 129.8816 113.8461 L 129.3582 116.8135 L 128.8348 119.7809 L 128.3114 122.7483 L 127.7880 125.7156 L 127.2646 128.6830 L 126.7411 131.6504 L 126.2177 134.6178 L 125.6943 137.5851 L 125.1709 140.5525 L 124.6475 143.5199 L 124.1241 146.4873 L 123.6006 149.4547 L 123.0772 152.4220 L 122.5538 155.3894 L 122.0304 158.3568 L 121.5070 161.3242 L 120.9836 164.2915 L 120.4602 167.2589 L 119.9367 170.2263 L 119.4133 173.1937 L 118.8899 176.1610 L 118.3665 179.1284 L 117.8431 182.0958 L 117.3197 185.0632 L 116.7962 188.0305 L 116.2728 190.9979 L 115.7494 193.9653 L 115.2260 196.9327 L 114.7026 199.9001 L 114.1792 202.8674 L 113.6558 205.8348 L 113.1323 208.8022 L 112.6089 211.7696 L 112.0855 214.7369 L 111.5621 217.7043 L 111.0387 220.6717 L 110.5153 223.6391 L 109.9918 226.6064 L 109.4684 229.5738 L 108.9450 232.5412 L 108.4216 235.5086 L 107.8982 238.4759 L 107.3748 241.4433 L 106.8514 244.4107 L 106.3279 247.3781 L 105.8045 250.3455 L 105.2811 253.3128 L 104.7577 256.2802 L 104.2343 259.2476 L 103.7109 262.2150 L 103.1874 265.1823 L 102.6640 268.1497 L 102.1406 271.1171 L 101.6172 274.0845 L 101.0938 277.0518 L 100.5704 280.0192 L 100.0470 282.9866 L 99.5235 285.9540 L 99.0001 288.9213 L 98.4767 291.8887 L 97.9533 294.8561 L 97.4299 297.8235 L 96.9065 300.7909 L 96.3830 303.7582 L 95.8596 306.7256 L 95.3362 309.6930 L 94.8128 312.6604 L 94.2894 315.6277 L 93.7660 318.5951 L 93.2426 321.5625 L 92.7191 324.5299 L 92.1957 327.4972 L 91.6723 330.4646 L 91.1489 333.4320 L 90.6255 336.3994 L 90.1021 339.3667 L 89.5786 342.3341 L 89.0552 345.3015 L 88.5318 348.2689 L 88.0084 351.2363 L 87.4850 354.2036 L 86.9616 357.1710 L 86.4382 360.1384 L 85.9147 363.1058 L 85.3913 366.0731 L 84.8679 369.0405 L 84.3445 372.0079 L 83.8211 374.9753 L 83.2977 377.9426 L 82.7742 380.9100 L 82.2508 383.8774 L 81.7274 386.8448 L 81.2040 389.8121 L 80.6806 392.7795 L 80.1572 395.7469 L 79.6338 398.7143 L 79.1103 401.6817 L 78.5869 404.6490 L 78.0635 407.6164 L 77.5401 410.5838 L 77.0167 413.5512 L 76.4933 416.5185 L 75.9698 419.4859 L 75.4464 422.4533 L 75.0039 424.5410 L 75.0299 421.5280 L 75.0554 418.5149 L 75.0805 415.5018 L 75.1052 412.4887 L 75.1294 409.4756 L 75.1532 406.4625 L 75.1765 403.4494 L 75.1994 400.4363 L 75.2218 397.4232 L 75.2438 394.4101 L 75.2654 391.3970 L 75.2865 388.3839 L 75.3072 385.3708 L 75.3274 382.3577 L 75.3472 379.3446 L 75.3666 376.3314 L 75.3855 373.3183 L 75.4039 370.3052 L 75.4219 367.2921 L 75.4394 364.2789 L 75.4565 361.2658 L 75.4732 358.2526 L 75.4894 355.2395 L 75.5052 352.2264 L 75.5205 349.2132 L 75.5354 346.2001 L 75.5498 343.1869 L 75.5638 340.1738 L 75.5774 337.1606 L 75.5905 334.1474 L 75.6032 331.1343 L 75.6154 328.1211 L 75.6272 325.1080 L 75.6385 322.0948 L 75.6494 319.0816 L 75.6598 316.0685 L 75.6698 313.0553 L 75.6793 310.0421 L 75.6884 307.0290 L 75.6971 304.0158 L 75.7053 301.0026 L 75.7130 297.9894 L 75.7204 294.9763 L 75.7272 291.9631 L 75.7337 288.9499 L 75.7397 285.9367 L 75.7452 282.9235 L 75.7503 279.9104 L 75.7550 276.8972 L 75.7592 273.8840 L 75.7630 270.8708 L 75.7663 267.8576 L 75.7691 264.8444 L 75.7716 261.8313 L 75.7735 258.8181 L 75.7751 255.8049 L 75.7762 252.7917 L 75.7768 249.7785 L 75.7770 246.7653 L 75.7768 243.7521 L 75.7761 240.7390 L 75.7750 237.7258 L 75.7734 234.7126 L 75.7714 231.6994 L 75.7689 228.6862 L 75.7660 225.6730 L 75.7627 222.6599 L 75.7589 219.6467 L 75.7546 216.6335 L 75.7499 213.6203 L 75.7448 210.6071 L 75.7392 207.5939 L 75.7332 204.5808 L 75.7267 201.5676 L 75.7198 198.5544 L 75.7124 195.5412 L 75.7046 192.5281 L 75.6964 189.5149 L 75.6877 186.5017 L 75.6785 183.4885 L 75.6690 180.4754 L 75.6590 177.4622 L 75.6485 174.4490 L 75.6376 171.4359 L 75.6262 168.4227 L 75.6144 165.4095 L 75.6021 162.3964 L 75.5894 159.3832 L 75.5763 156.3701 L 75.5627 153.3569 L 75.5486 150.3438 L 75.5342 147.3306 L 75.5192 144.3175 L 75.5039 141.3043 L 75.4881 138.2912 L 75.4718 135.2780 L 75.4551 132.2649 L 75.4380 129.2517 L 75.4204 126.2386 L 75.4024 123.2255 L 75.3839 120.2124 L 75.3650 117.1992 L 75.3456 114.1861 L 75.3258 111.1730 L 75.3055 108.1599 L 75.2848 105.1468 L 75.2636 102.1336 L 75.2420 99.1205 L 75.2200 96.1074 L 75.1975 93.0943 L 75.1746 90.0812 L 75.1512 87.0681 L 75.1274 84.0550 L 75.1031 81.0420 L 75.0784 78.0289 L 75.0533 75.0158" 
        fill="none" 
        stroke="#2E7D32" 
        stroke-width="2.0"
        stroke-linecap="round"
        stroke-linejoin="round"/>
</svg>