<?xml version="1.0" encoding="UTF-8"?>
<svg xmlns="http://www.w3.org/2000/svg" 
     width="600.0" height="200.0" 
     viewBox="0 0 600.0 200.0">
  <rect width="100%" height="100%" fill="#ffffff"/>
  <path d="M 120.0000 100.0000 L 120.7214 100.0000 L 121.4429 100.0000 L 122.1643 100.0000 L 122.8858 100.0000 L 123.6072 100.0000 L 124.3287 100.0000 L 125.0501 100.0000 L 125.7715 100.0000 L 126.4930 100.0000 L 127.2144 100.0000 L 127.9359 100.0000 L 128.6573 100.0000 L 129.3788 100.0000 L 130.1002 100.0000 L 130.8216 100.0000 L 131.5431 100.0000 L 132.2645 100.0000 L 132.9860 100.0000 L 133.7074 100.0000 L 134.4289 100.0000 L 135.1503 100.0000 L 135.8717 100.0000 L 136.5932 100.0000 L 137.3146 100.0000 L 138.0361 100.0000 L 138.7575 100.0000 L 139.4790 100.0000 L 140.2004 100.0000 L 140.9218 100.0000 L 141.6433 100.0000 L 142.3647 100.0000 L 143.0862 100.0000 L 143.8076 100.0000 L 144.5291 100.0000 L 145.2505 100.0000 L 145.9719 100.0000 L 146.6934 100.0000 L 147.4148 100.0000 L 148.1363 100.0000 L 148.8577 100.0000 L 149.5792 100.0000 L 150.3006 100.0000 L 151.0220 100.0000 L 151.7435 100.0000 L 152.4649 100.0000 L 153.1864 100.0000 L 153.9078 100.0000 L 154.6293 100.0000 L 155.3507 100.0000 L 156.0721 100.0000 L 156.7936 100.0000 L 157.5150 100.0000 L 158.2365 100.0000 L 158.9579 100.0000 L 159.6794 100.0000 L 160.4008 100.0000 L 161.1222 100.0000 L 161.8437 100.0000 L 162.5651 100.0000 L 163.2866 100.0000 L 164.0080 100.0000 L 164.7295 100.0000 L 165.4509 100.0000 L 166.1723 100.0000 L 166.8938 100.0000 L 167.6152 100.0000 L 168.3367 100.0000 L 169.0581 100.0000 L 169.7796 100.0000 L 170.5010 100.0000 L 171.2224 100.0000 L 171.9439 100.0000 L 172.6653 100.0000 L 173.3868 100.0000 L 174.1082 100.0000 L 174.8297 100.0000 L 175.5511 100.0000 L 176.2725 100.0000 L 176.9940 100.0000 L 177.7154 100.0000 L 178.4369 100.0000 L 179.1583 100.0000 L 179.8798 100.0000 L 180.6012 100.0000 L 181.3226 100.0000 L 182.0441 100.0000 L 182.7655 100.0000 L 183.4870 100.0000 L 184.2084 100.0000 L 184.9299 100.0000 L 185.6513 100.0000 L 186.3727 100.0000 L 187.0942 100.0000 L 187.8156 100.0000 L 188.5371 100.0000 L 189.2585 100.0000 L 189.9800 100.0000 L 190.7014 100.0000 L 191.4228 100.0000 L 192.1443 100.0000 L 192.8657 100.0000 L 193.5872 100.0000 L 194.3086 100.0000 L 195.0301 100.0000 L 195.7515 100.0000 L 196.4729 100.0000 L 197.1944 100.0000 L 197.9158 100.0000 L 198.6373 100.0000 L 199.3587 100.0000 L 200.0802 100.0000 L 200.8016 100.0000 L 201.5230 100.0000 L 202.2445 100.0000 L 202.9659 100.0000 L 203.6874 100.0000 L 204.4088 100.0000 L 205.1303 100.0000 L 205.8517 100.0000 L 206.5731 100.0000 L 207.2946 100.0000 L 208.0160 100.0000 L 208.7375 100.0000 L 209.4589 100.0000 L 210.1804 100.0000 L 210.9018 100.0000 L 211.6232 100.0000 L 212.3447 100.0000 L 213.0661 100.0000 L 213.7876 100.0000 L 214.5090 100.0000 L 215.2305 100.0000 L 215.9519 100.0000 L 216.6733 100.0000 L 217.3948 100.0000 L 218.1162 100.0000 L 218.8377 100.0000 L 219.5591 100.0000 L 220.2806 100.0000 L 221.0020 100.0000 L 221.7234 100.0000 L 222.4449 100.0000 L 223.1663 100.0000 L 223.8878 100.0000 L 224.6092 100.0000 L 225.3307 100.0000 L 226.0521 100.0000 L 226.7735 100.0000 L 227.4950 100.0000 L 228.2164 100.0000 L 228.9379 100.0000 L 229.6593 100.0000 L 230.3808 100.0000 L 231.1022 100.0000 L 231.8236 100.0000 L 232.5451 100.0000 L 233.2665 100.0000 L 233.9880 100.0000 L 234.7094 100.0000 L 235.4309 100.0000 L 236.1523 100.0000 L 236.8737 100.0000 L 237.5952 100.0000 L 238.3166 100.0000 L 239.0381 100.0000 L 239.7595 100.0000 L 240.4810 100.0000 L 241.2024 100.0000 L 241.9238 100.0000 L 242.6453 100.0000 L 243.3667 100.0000 L 244.0882 100.0000 L 244.8096 100.0000 L 245.5311 100.0000 L 246.2525 100.0000 L 246.9739 100.0000 L 247.6954 100.0000 L 248.4168 100.0000 L 249.1383 100.0000 L 249.8597 100.0000 L 250.5812 100.0000 L 251.3026 100.0000 L 252.0240 100.0000 L 252.7455 100.0000 L 253.4669 100.0000 L 254.1884 100.0000 L 254.9098 100.0000 L 255.6313 100.0000 L 256.3527 100.0000 L 257.0741 100.0000 L 257.7956 100.0000 L 258.5170 100.0000 L 259.2385 100.0000 L 259.9599 100.0000 L 260.6814 100.0000 L 261.4028 100.0000 L 262.1242 100.0000 L 262.8457 100.0000 L 263.5671 100.0000 L 264.2886 100.0000 L 265.0100 100.0000 L 265.7315 100.0000 L 266.4529 100.0000 L 267.1743 100.0000 L 267.8958 100.0000 L 268.6172 100.0000 L 269.3387 100.0000 L 270.0601 100.0000 L 270.7816 100.0000 L 271.5030 100.0000 L 272.2244 100.0000 L 272.9459 100.0000 L 273.6673 100.0000 L 274.3888 100.0000 L 275.1102 100.0000 L 275.8317 100.0000 L 276.5531 100.0000 L 277.2745 100.0000 L 277.9960 100.0000 L 278.7174 100.0000 L 279.4389 100.0000 L 280.1603 100.0000 L 280.8818 100.0000 L 281.6032 100.0000 L 282.3246 100.0000 L 283.0461 100.0000 L 283.7675 100.0000 L 284.4890 100.0000 L 285.2104 100.0000 L 285.9319 100.0000 L 286.6533 100.0000 L 287.3747 100.0000 L 288.0962 100.0000 L 288.8176 100.0000 L 289.5391 100.0000 L 290.2605 100.0000 L 290.9820 100.0000 L 291.7034 100.0000 L 292.4248 100.0000 L 293.1463 100.0000 L 293.8677 100.0000 L 294.5892 100.0000 L 295.3106 100.0000 L 296.0321 100.0000 L 296.7535 100.0000 L 297.4749 100.0000 L 298.1964 100.0000 L 298.9178 100.0000 L 299.6393 100.0000 L 300.3607 100.0000 L 301.0822 100.0000 L 301.8036 100.0000 L 302.5251 100.0000 L 303.2465 100.0000 L 303.9679 100.0000 L 304.6894 100.0000 L 305.4108 100.0000 L 306.1323 100.0000 L 306.8537 100.0000 L 307.5752 100.0000 L 308.2966 100.0000 L 309.0180 100.0000 L 309.7395 100.0000 L 310.4609 100.0000 L 311.1824 100.0000 L 311.9038 100.0000 L 312.6253 100.0000 L 313.3467 100.0000 L 314.0681 100.0000 L 314.7896 100.0000 L 315.5110 100.0000 L 316.2325 100.0000 L 316.9539 100.0000 L 317.6754 100.0000 L 318.3968 100.0000 L 319.1182 100.0000 L 319.8397 100.0000 L 320.5611 100.0000 L 321.2826 100.0000 L 322.0040 100.0000 L 322.7255 100.0000 L 323.4469 100.0000 L 324.1683 100.0000 L 324.8898 100.0000 L 325.6112 100.0000 L 326.3327 100.0000 L 327.0541 100.0000 L 327.7756 100.0000 L 328.4970 100.0000 L 329.2184 100.0000 L 329.9399 100.0000 L 330.6613 100.0000 L 331.3828 100.0000 L 332.1042 100.0000 L 332.8257 100.0000 L 333.5471 100.0000 L 334.2685 100.0000 L 334.9900 100.0000 L 335.7114 100.0000 L 336.4329 100.0000 L 337.1543 100.0000 L 337.8758 100.0000 L 338.5972 100.0000 L 339.3186 100.0000 L 340.0401 100.0000 L 340.7615 100.0000 L 341.4830 100.0000 L 342.2044 100.0000 L 342.9259 100.0000 L 343.6473 100.0000 L 344.3687 100.0000 L 345.0902 100.0000 L 345.8116 100.0000 L 346.5331 100.0000 L 347.2545 100.0000 L 347.9760 100.0000 L 348.6974 100.0000 L 349.4188 100.0000 L 350.1403 100.0000 L 350.8617 100.0000 L 351.5832 100.0000 L 352.3046 100.0000 L 353.0261 100.0000 L 353.7475 100.0000 L 354.4689 100.0000 L 355.1904 100.0000 L 355.9118 100.0000 L 356.6333 100.0000 L 357.3547 100.0000 L 358.0762 100.0000 L 358.7976 100.0000 L 359.5190 100.0000 L 360.2405 100.0000 L 360.9619 100.0000 L 361.6834 100.0000 L 362.4048 100.0000 L 363.1263 100.0000 L 363.8477 100.0000 L 364.5691 100.0000 L 365.2906 100.0000 L 366.0120 100.0000 L 366.7335 100.0000 L 367.4549 100.0000 L 368.1764 100.0000 L 368.8978 100.0000 L 369.6192 100.0000 L 370.3407 100.0000 L 371.0621 100.0000 L 371.7836 100.0000 L 372.5050 100.0000 L 373.2265 100.0000 L 373.9479 100.0000 L 374.6693 100.0000 L 375.3908 100.0000 L 376.1122 100.0000 L 376.8337 100.0000 L 377.5551 100.0000 L 378.2766 100.0000 L 378.9980 100.0000 L 379.7194 100.0000 L 380.4409 100.0000 L 381.1623 100.0000 L 381.8838 100.0000 L 382.6052 100.0000 L 383.3267 100.0000 L 384.0481 100.0000 L 384.7695 100.0000 L 385.4910 100.0000 L 386.2124 100.0000 L 386.9339 100.0000 L 387.6553 100.0000 L 388.3768 100.0000 L 389.0982 100.0000 L 389.8196 100.0000 L 390.5411 100.0000 L 391.2625 100.0000 L 391.9840 100.0000 L 392.7054 100.0000 L 393.4269 100.0000 L 394.1483 100.0000 L 394.8697 100.0000 L 395.5912 100.0000 L 396.3126 100.0000 L 397.0341 100.0000 L 397.7555 100.0000 L 398.4770 100.0000 L 399.1984 100.0000 L 399.9198 100.0000 L 400.6413 100.0000 L 401.3627 100.0000 L 402.0842 100.0000 L 402.8056 100.0000 L 403.5271 100.0000 L 404.2485 100.0000 L 404.9699 100.0000 L 405.6914 100.0000 L 406.4128 100.0000 L 407.1343 100.0000 L 407.8557 100.0000 L 408.5772 100.0000 L 409.2986 100.0000 L 410.0200 100.0000 L 410.7415 100.0000 L 411.4629 100.0000 L 412.1844 100.0000 L 412.9058 100.0000 L 413.6273 100.0000 L 414.3487 100.0000 L 415.0701 100.0000 L 415.7916 100.0000 L 416.5130 100.0000 L 417.2345 100.0000 L 417.9559 100.0000 L 418.6774 100.0000 L 419.3988 100.0000 L 420.1202 100.0000 L 420.8417 100.0000 L 421.5631 100.0000 L 422.2846 100.0000 L 423.0060 100.0000 L 423.7275 100.0000 L 424.4489 100.0000 L 425.1703 100.0000 L 425.8918 100.0000 L 426.6132 100.0000 L 427.3347 100.0000 L 428.0561 100.0000 L 428.7776 100.0000 L 429.4990 100.0000 L 430.2204 100.0000 L 430.9419 100.0000 L 431.6633 100.0000 L 432.3848 100.0000 L 433.1062 100.0000 L 433.8277 100.0000 L 434.5491 100.0000 L 435.2705 100.0000 L 435.9920 100.0000 L 436.7134 100.0000 L 437.4349 100.0000 L 438.1563 100.0000 L 438.8778 100.0000 L 439.5992 100.0000 L 440.3206 100.0000 L 441.0421 100.0000 L 441.7635 100.0000 L 442.4850 100.0000 L 443.2064 100.0000 L 443.9279 100.0000 L 444.6493 100.0000 L 445.3707 100.0000 L 446.0922 100.0000 L 446.8136 100.0000 L 447.5351 100.0000 L 448.2565 100.0000 L 448.9780 100.0000 L 449.6994 100.0000 L 450.4208 100.0000 L 451.1423 100.0000 L 451.8637 100.0000 L 452.5852 100.0000 L 453.3066 100.0000 L 454.0281 100.0000 L 454.7495 100.0000 L 455.4709 100.0000 L 456.1924 100.0000 L 456.9138 100.0000 L 457.6353 100.0000 L 458.3567 100.0000 L 459.0782 100.0000 L 459.7996 100.0000 L 460.5210 100.0000 L 461.2425 100.0000 L 461.9639 100.0000 L 462.6854 100.0000 L 463.4068 100.0000 L 464.1283 100.0000 L 464.8497 100.0000 L 465.5711 100.0000 L 466.2926 100.0000 L 467.0140 100.0000 L 467.7355 100.0000 L 468.4569 100.0000 L 469.1784 100.0000 L 469.8998 100.0000 L 470.6212 100.0000 L 471.3427 100.0000 L 472.0641 100.0000 L 472.7856 100.0000 L 473.5070 100.0000 L 474.2285 100.0000 L 474.9499 100.0000 L 475.6713 100.0000 L 476.3928 100.0000 L 477.1142 100.0000 L 477.8357 100.0000 L 478.5571 100.0000 L 479.2786 100.0000 L 480.0000 100.0000" 
        fill="none" 
        stroke="#1565C0" 
        stroke-width="1.0"
        stroke-linecap="round"
        stroke-linejoin="round"/>
</svg>