<?xml version="1.0" encoding="UTF-8"?>
<svg xmlns="http://www.w3.org/2000/svg" 
     width="500.0" height="500.0" 
     viewBox="0 0 500.0 500.0">
  <rect width="100%" height="100%" fill="#ffffff"/>
  <path d="M 291.5193 50.0000 L 290.8911 50.6302 L 290.2649 51.2623 L 289.6407 51.8964 L 289.0184 52.5324 L 288.3982 53.1704 L 287.7800 53.8104 L 287.1638 54.4523 L 286.5496 55.0961 L 285.9374 55.7418 L 285.3273 56.3894 L 284.7192 57.0390 L 284.1131 57.6905 L 283.5091 58.3438 L 282.9071 58.9991 L 282.3072 59.6563 L 281.7094 60.3153 L 281.1136 60.9762 L 280.5199 61.6389 L 279.9283 62.3036 L 279.3388 62.9700 L 278.7514 63.6384 L 278.1661 64.3085 L 277.5829 64.9805 L 277.0018 65.6544 L 276.4228 66.3300 L 275.8459 67.0075 L 275.2712 67.6867 L 274.6986 68.3678 L 274.1281 69.0507 L 273.5598 69.7353 L 272.9937 70.4218 L 272.4297 71.1100 L 271.8678 71.7999 L 271.3082 72.4917 L 270.7507 73.1851 L 270.1953 73.8804 L 269.6422 74.5773 L 269.0913 75.2760 L 268.5425 75.9765 L 267.9960 76.6786 L 267.4516 77.3825 L 266.9095 78.0880 L 266.3696 78.7953 L 265.8319 79.5042 L 265.2964 80.2149 L 264.7632 80.9272 L 264.2322 81.6412 L 263.7035 82.3568 L 263.1770 83.0741 L 262.6527 83.7931 L 262.1307 84.5137 L 261.6110 85.2359 L 261.0936 85.9597 L 260.5784 86.6852 L 260.0655 87.4123 L 259.5549 88.1410 L 259.0465 88.8713 L 258.5405 89.6032 L 258.0368 90.3366 L 257.5353 91.0717 L 257.0362 91.8083 L 256.5394 92.5465 L 256.0449 93.2862 L 255.5528 94.0275 L 255.0629 94.7703 L 254.5754 95.5147 L 254.0903 96.2606 L 253.6075 97.0080 L 253.1270 97.7569 L 252.6489 98.5073 L 252.1731 99.2592 L 251.6997 100.0126 L 251.2287 100.7675 L 250.7601 101.5239 L 250.2938 102.2817 L 249.8299 103.0410 L 249.3684 103.8017 L 248.9092 104.5639 L 248.4525 105.3275 L 247.9982 106.0926 L 247.5462 106.8590 L 247.0967 107.6269 L 246.6496 108.3962 L 246.2049 109.1669 L 245.7626 109.9390 L 245.3228 110.7125 L 244.8854 111.4873 L 244.4504 112.2636 L 244.0179 113.0411 L 243.5878 113.8201 L 243.1601 114.6003 L 242.7349 115.3820 L 242.3122 116.1649 L 241.8919 116.9492 L 241.4740 117.7348 L 241.0587 118.5216 L 240.6458 119.3098 L 240.2354 120.0993 L 239.8275 120.8901 L 239.4220 121.6821 L 239.0190 122.4754 L 238.6186 123.2700 L 238.2206 124.0658 L 237.8251 124.8629 L 237.4322 125.6612 L 237.0417 126.4608 L 236.6538 127.2615 L 236.2683 128.0635 L 235.8854 128.8667 L 235.5050 129.6711 L 235.1271 130.4766 L 234.7518 131.2834 L 234.3790 132.0913 L 234.0087 132.9004 L 233.6410 133.7106 L 233.2758 134.5220 L 232.9132 135.3346 L 232.5531 136.1482 L 232.1956 136.9630 L 231.8406 137.7790 L 231.4882 138.5960 L 231.1384 139.4141 L 230.7911 140.2333 L 230.4464 141.0536 L 230.1043 141.8750 L 229.7648 142.6975 L 229.4278 143.5210 L 229.0934 144.3456 L 228.7617 145.1712 L 228.4325 145.9979 L 228.1059 146.8255 L 227.7819 147.6542 L 227.4605 148.4840 L 227.1417 149.3147 L 226.8255 150.1464 L 226.5120 150.9791 L 226.2010 151.8128 L 225.8927 152.6474 L 225.5870 153.4831 L 225.2839 154.3196 L 224.9834 155.1572 L 224.6856 155.9956 L 224.3904 156.8350 L 224.0979 157.6753 L 223.8079 158.5166 L 223.5207 159.3587 L 223.2360 160.2017 L 222.9540 161.0457 L 222.6747 161.8905 L 222.3980 162.7361 L 222.1240 163.5827 L 221.8526 164.4301 L 221.5839 165.2783 L 221.3178 166.1274 L 221.0545 166.9773 L 220.7938 167.8280 L 220.5357 168.6796 L 220.2803 169.5320 L 220.0277 170.3851 L 219.7776 171.2390 L 219.5303 172.0938 L 219.2857 172.9493 L 219.0437 173.8055 L 218.8044 174.6625 L 218.5678 175.5203 L 218.3340 176.3788 L 218.1028 177.2380 L 217.8743 178.0980 L 217.6485 178.9586 L 217.4254 179.8200 L 217.2050 180.6821 L 216.9873 181.5448 L 216.7723 182.4082 L 216.5601 183.2723 L 216.3505 184.1371 L 216.1437 185.0025 L 215.9396 185.8686 L 215.7382 186.7353 L 215.5395 187.6026 L 215.3435 188.4705 L 215.1503 189.3391 L 214.9598 190.2082 L 214.7720 191.0780 L 214.5870 191.9483 L 214.4047 192.8192 L 214.2251 193.6907 L 214.0483 194.5627 L 213.8742 195.4353 L 213.7028 196.3085 L 213.5342 197.1821 L 213.3683 198.0563 L 213.2052 198.9310 L 213.0448 199.8062 L 212.8871 200.6819 L 212.7322 201.5581 L 212.5801 202.4348 L 212.4307 203.3120 L 212.2841 204.1896 L 212.1402 205.0677 L 211.9991 205.9462 L 211.8607 206.8252 L 211.7251 207.7046 L 211.5923 208.5844 L 211.4622 209.4646 L 211.3348 210.3452 L 211.2103 211.2263 L 211.0885 212.1077 L 210.9695 212.9895 L 210.8532 213.8716 L 210.7397 214.7541 L 210.6290 215.6370 L 210.5211 216.5202 L 210.4159 217.4038 L 210.3135 218.2877 L 210.2139 219.1718 L 210.1170 220.0563 L 210.0229 220.9412 L 209.9316 221.8262 L 209.8431 222.7116 L 209.7574 223.5973 L 209.6744 224.4832 L 209.5943 225.3693 L 209.5169 226.2558 L 209.4422 227.1424 L 209.3704 228.0293 L 209.3014 228.9164 L 209.2351 229.8037 L 209.1716 230.6912 L 209.1109 231.5789 L 209.0530 232.4669 L 208.9979 233.3549 L 208.9456 234.2432 L 208.8960 235.1316 L 208.8493 236.0201 L 208.8053 236.9088 L 208.7641 237.7977 L 208.7258 238.6866 L 208.6902 239.5757 L 208.6574 240.4649 L 208.6273 241.3542 L 208.6001 242.2435 L 208.5757 243.1330 L 208.5540 244.0225 L 208.5352 244.9121 L 208.5191 245.8018 L 208.5059 246.6914 L 208.4954 247.5812 L 208.4877 248.4709 L 208.4828 249.3607 L 208.4807 250.2505 L 208.4814 251.1403 L 208.4849 252.0300 L 208.4912 252.9198 L 208.5003 253.8096 L 208.5122 254.6993 L 208.5268 255.5889 L 208.5443 256.4785 L 208.5645 257.3681 L 208.5875 258.2576 L 208.6134 259.1470 L 208.6420 260.0363 L 208.6734 260.9256 L 208.7076 261.8147 L 208.7446 262.7037 L 208.7844 263.5926 L 208.8269 264.4814 L 208.8723 265.3700 L 208.9204 266.2585 L 208.9714 267.1468 L 209.0251 268.0350 L 209.0816 268.9230 L 209.1409 269.8108 L 209.2030 270.6984 L 209.2679 271.5858 L 209.3355 272.4730 L 209.4059 273.3600 L 209.4792 274.2468 L 209.5552 275.1333 L 209.6340 276.0196 L 209.7155 276.9057 L 209.7999 277.7914 L 209.8870 278.6770 L 209.9769 279.5622 L 210.0696 280.4471 L 210.1650 281.3318 L 210.2633 282.2161 L 210.3643 283.1002 L 210.4681 283.9839 L 210.5746 284.8673 L 210.6840 285.7503 L 210.7961 286.6330 L 210.9109 287.5154 L 211.0286 288.3973 L 211.1490 289.2789 L 211.2722 290.1602 L 211.3981 291.0410 L 211.5268 291.9214 L 211.6583 292.8014 L 211.7925 293.6810 L 211.9295 294.5602 L 212.0692 295.4390 L 212.2117 296.3173 L 212.3570 297.1951 L 212.5050 298.0725 L 212.6558 298.9494 L 212.8093 299.8259 L 212.9655 300.7018 L 213.1245 301.5773 L 213.2863 302.4523 L 213.4508 303.3267 L 213.6181 304.2006 L 213.7881 305.0740 L 213.9608 305.9469 L 214.1363 306.8192 L 214.3145 307.6910 L 214.4954 308.5622 L 214.6791 309.4328 L 214.8655 310.3028 L 215.0546 311.1723 L 215.2465 312.0411 L 215.4411 312.9094 L 215.6384 313.7770 L 215.8384 314.6440 L 216.0412 315.5104 L 216.2467 316.3761 L 216.4549 317.2412 L 216.6658 318.1057 L 216.8794 318.9694 L 217.0957 319.8325 L 217.3147 320.6949 L 217.5365 321.5566 L 217.7609 322.4177 L 217.9881 323.2780 L 218.2179 324.1376 L 218.4504 324.9964 L 218.6857 325.8546 L 218.9236 326.7119 L 219.1642 327.5686 L 219.4075 328.4245 L 219.6535 329.2796 L 219.9022 330.1339 L 220.1535 330.9874 L 220.4076 331.8402 L 220.6643 332.6921 L 220.9236 333.5433 L 221.1857 334.3936 L 221.4504 335.2431 L 221.7178 336.0918 L 221.9878 336.9396 L 222.2605 337.7866 L 222.5359 338.6327 L 222.8139 339.4779 L 223.0946 340.3223 L 223.3779 341.1658 L 223.6638 342.0084 L 223.9524 342.8500 L 224.2437 343.6908 L 224.5375 344.5307 L 224.8340 345.3696 L 225.1332 346.2076 L 225.4350 347.0446 L 225.7394 347.8807 L 226.0464 348.7159 L 226.3560 349.5501 L 226.6683 350.3833 L 226.9831 351.2155 L 227.3006 352.0467 L 227.6207 352.8769 L 227.9434 353.7061 L 228.2687 354.5343 L 228.5966 355.3615 L 228.9271 356.1876 L 229.2601 357.0127 L 229.5958 357.8368 L 229.9340 358.6598 L 230.2749 359.4817 L 230.6183 360.3025 L 230.9643 361.1223 L 231.3128 361.9410 L 231.6639 362.7586 L 232.0176 363.5750 L 232.3739 364.3904 L 232.7327 365.2046 L 233.0940 366.0177 L 233.4579 366.8297 L 233.8244 367.6405 L 234.1934 368.4502 L 234.5649 369.2587 L 234.9390 370.0660 L 235.3156 370.8722 L 235.6947 371.6772 L 236.0764 372.4810 L 236.4605 373.2835 L 236.8472 374.0849 L 237.2364 374.8851 L 237.6281 375.6840 L 238.0224 376.4817 L 238.4191 377.2781 L 238.8183 378.0733 L 239.2200 378.8673 L 239.6242 379.6599 L 240.0309 380.4514 L 240.4401 381.2415 L 240.8517 382.0303 L 241.2658 382.8179 L 241.6824 383.6041 L 242.1015 384.3890 L 242.5230 385.1726 L 242.9470 385.9549 L 243.3734 386.7359 L 243.8023 387.5155 L 244.2336 388.2937 L 244.6674 389.0706 L 245.1036 389.8462 L 245.5422 390.6203 L 245.9833 391.3931 L 246.4267 392.1645 L 246.8726 392.9345 L 247.3210 393.7031 L 247.7717 394.4703 L 248.2248 395.2360 L 248.6803 396.0004 L 249.1383 396.7633 L 249.5986 397.5248 L 250.0613 398.2848 L 250.5264 399.0433 L 250.9938 399.8004 L 251.4637 400.5561 L 251.9359 401.3102 L 252.4105 402.0629 L 252.8874 402.8140 L 253.3667 403.5637 L 253.8483 404.3119 L 254.3323 405.0585 L 254.8187 405.8036 L 255.3073 406.5472 L 255.7983 407.2893 L 256.2916 408.0298 L 256.7873 408.7687 L 257.2852 409.5061 L 257.7855 410.2420 L 258.2881 410.9762 L 258.7930 411.7089 L 259.3002 412.4400 L 259.8096 413.1695 L 260.3214 413.8974 L 260.8354 414.6237 L 261.3517 415.3483 L 261.8703 416.0714 L 262.3912 416.7928 L 262.9143 417.5126 L 263.4397 418.2307 L 263.9673 418.9472 L 264.4972 419.6620 L 265.0293 420.3751 L 265.5636 421.0866 L 266.1002 421.7964 L 266.6390 422.5045 L 267.1800 423.2109 L 267.7232 423.9156 L 268.2687 424.6186 L 268.8163 425.3199 L 269.3662 426.0195 L 269.9182 426.7173 L 270.4724 427.4134 L 271.0289 428.1078 L 271.5874 428.8004 L 272.1482 429.4912 L 272.7111 430.1803 L 273.2762 430.8676 L 273.8434 431.5532 L 274.4128 432.2369 L 274.9843 432.9189 L 275.5580 433.5991 L 276.1338 434.2774 L 276.7117 434.9540 L 277.2918 435.6287 L 277.8739 436.3017 L 278.4582 436.9727 L 279.0446 437.6420 L 279.6330 438.3094 L 280.2236 438.9749 L 280.8162 439.6386 L 281.4110 440.3005 L 282.0078 440.9604 L 282.6066 441.6185 L 283.2076 442.2747 L 283.8105 442.9290 L 284.4156 443.5815 L 285.0227 444.2320 L 285.6318 444.8806 L 286.2429 445.5273 L 286.8561 446.1721 L 287.4713 446.8149 L 288.0885 447.4558 L 288.7078 448.0948 L 289.3290 448.7318 L 289.9522 449.3669 L 290.5774 450.0000" 
        fill="none" 
        stroke="#D32F2F" 
        stroke-width="1.5"
        stroke-linecap="round"
        stroke-linejoin="round"/>
</svg>