<?xml version="1.0" encoding="UTF-8"?>
<svg xmlns="http://www.w3.org/2000/svg" 
     width="400.0" height="400.0" 
     viewBox="0 0 400.0 400.0">
  <rect width="100%" height="100%" fill="#ffffff"/>
  <path d="M 69.8532 340.0000 L 71.7051 339.3162 L 73.5566 338.6314 L 75.4078 337.9456 L 77.2585 337.2588 L 79.1089 336.5710 L 80.9589 335.8821 L 82.8086 335.1923 L 84.6578 334.5014 L 86.5067 333.8095 L 88.3552 333.1166 L 90.2033 332.4227 L 92.0511 331.7278 L 93.8984 331.0318 L 95.7454 330.3349 L 97.5920 329.6370 L 99.4382 328.9380 L 101.2840 328.2380 L 103.1295 327.5370 L 104.9745 326.8350 L 106.8192 326.1320 L 108.6635 325.4280 L 110.5074 324.7230 L 112.3509 324.0170 L 114.1941 323.3099 L 116.0368 322.6018 L 117.8792 321.8928 L 119.7211 321.1827 L 121.5627 320.4716 L 123.4039 319.7595 L 125.2447 319.0464 L 127.0851 318.3323 L 128.9251 317.6172 L 130.7648 316.9011 L 132.6040 316.1839 L 134.4428 315.4658 L 136.2813 314.7467 L 138.1193 314.0265 L 139.9570 313.3054 L 141.7943 312.5832 L 143.6311 311.8600 L 145.4676 311.1358 L 147.3037 310.4107 L 149.1393 309.6845 L 150.9746 308.9573 L 152.8095 308.2291 L 154.6440 307.4999 L 156.4781 306.7697 L 158.3117 306.0385 L 160.1450 305.3063 L 161.9779 304.5731 L 163.8104 303.8389 L 165.6425 303.1036 L 167.4741 302.3674 L 169.3054 301.6302 L 171.1363 300.8919 L 172.9667 300.1527 L 174.7968 299.4125 L 176.6264 298.6712 L 178.4557 297.9290 L 180.2845 297.1857 L 182.1129 296.4415 L 183.9410 295.6963 L 185.7686 294.9500 L 187.5958 294.2028 L 189.4226 293.4545 L 191.2490 292.7053 L 193.0749 291.9550 L 194.9005 291.2038 L 196.7257 290.4515 L 198.5504 289.6983 L 200.3747 288.9441 L 202.1986 288.1888 L 204.0222 287.4326 L 205.8453 286.6754 L 207.6679 285.9171 L 209.4902 285.1579 L 211.3120 284.3977 L 213.1334 283.6365 L 214.9544 282.8742 L 216.7750 282.1110 L 218.5952 281.3468 L 220.4150 280.5816 L 222.2343 279.8153 L 224.0532 279.0481 L 225.8717 278.2799 L 227.6898 277.5108 L 229.5074 276.7405 L 231.3247 275.9694 L 233.1415 275.1972 L 234.9579 274.4240 L 236.7738 273.6498 L 238.5894 272.8747 L 240.4045 272.0985 L 242.2192 271.3214 L 244.0334 270.5432 L 245.8473 269.7641 L 247.6607 268.9840 L 249.4737 268.2029 L 251.2862 267.4207 L 253.0983 266.6376 L 254.9100 265.8536 L 256.7213 265.0685 L 258.5321 264.2824 L 260.3425 263.4953 L 262.1525 262.7073 L 263.9621 261.9182 L 265.7712 261.1282 L 267.5799 260.3371 L 269.3881 259.5451 L 271.1959 258.7521 L 273.0033 257.9581 L 274.8103 257.1631 L 276.6168 256.3672 L 278.4228 255.5702 L 280.2285 254.7722 L 282.0337 253.9733 L 283.8384 253.1734 L 285.6428 252.3725 L 287.4466 251.5706 L 289.2501 250.7677 L 291.0531 249.9638 L 292.8557 249.1589 L 294.6578 248.3531 L 296.4595 247.5463 L 298.2607 246.7385 L 300.0615 245.9296 L 301.8619 245.1199 L 303.6618 244.3091 L 305.4613 243.4973 L 307.2603 242.6846 L 309.0589 241.8709 L 310.8571 241.0562 L 312.6547 240.2405 L 314.4520 239.4238 L 316.2488 238.6061 L 318.0452 237.7875 L 319.8411 236.9679 L 321.6365 236.1473 L 323.4315 235.3257 L 325.2261 234.5032 L 327.0202 233.6796 L 328.8138 232.8550 L 330.1468 232.2308 L 328.3228 232.9859 L 326.4989 233.7411 L 324.6750 234.4963 L 322.8510 235.2514 L 321.0271 236.0066 L 319.2031 236.7618 L 317.3792 237.5169 L 315.5552 238.2721 L 313.7313 239.0273 L 311.9073 239.7824 L 310.0834 240.5376 L 308.2594 241.2928 L 306.4355 242.0479 L 304.6116 242.8031 L 302.7876 243.5583 L 300.9637 244.3134 L 299.1397 245.0686 L 297.3158 245.8238 L 295.4918 246.5789 L 293.6679 247.3341 L 291.8439 248.0893 L 290.0200 248.8444 L 288.1960 249.5996 L 286.3721 250.3548 L 284.5482 251.1099 L 282.7242 251.8651 L 280.9003 252.6203 L 279.0763 253.3755 L 277.2524 254.1306 L 275.4284 254.8858 L 273.6045 255.6410 L 271.7805 256.3961 L 269.9566 257.1513 L 268.1326 257.9065 L 266.3087 258.6616 L 264.4848 259.4168 L 262.6608 260.1720 L 260.8369 260.9271 L 259.0129 261.6823 L 257.1890 262.4375 L 255.3650 263.1926 L 253.5411 263.9478 L 251.7171 264.7030 L 249.8932 265.4581 L 248.0692 266.2133 L 246.2453 266.9685 L 244.4214 267.7236 L 242.5974 268.4788 L 240.7735 269.2340 L 238.9495 269.9891 L 237.1256 270.7443 L 235.3016 271.4995 L 233.4777 272.2546 L 231.6537 273.0098 L 229.8298 273.7650 L 228.0058 274.5201 L 226.1819 275.2753 L 224.3580 276.0305 L 222.5340 276.7856 L 220.7101 277.5408 L 218.8861 278.2960 L 217.0622 279.0511 L 215.2382 279.8063 L 213.4143 280.5615 L 211.5903 281.3166 L 209.7664 282.0718 L 207.9424 282.8270 L 206.1185 283.5821 L 204.2946 284.3373 L 202.4706 285.0925 L 200.6467 285.8476 L 198.8227 286.6028 L 196.9988 287.3580 L 195.1748 288.1131 L 193.3509 288.8683 L 191.5269 289.6235 L 189.7030 290.3786 L 187.8790 291.1338 L 186.0551 291.8890 L 184.2312 292.6442 L 182.4072 293.3993 L 180.5833 294.1545 L 178.7593 294.9097 L 176.9354 295.6648 L 175.1114 296.4200 L 173.2875 297.1752 L 171.4635 297.9303 L 169.6396 298.6855 L 167.8156 299.4407 L 165.9917 300.1958 L 164.1678 300.9510 L 162.3438 301.7062 L 160.5199 302.4613 L 158.6959 303.2165 L 156.8720 303.9717 L 155.0480 304.7268 L 153.2241 305.4820 L 151.4001 306.2372 L 149.5762 306.9923 L 147.7522 307.7475 L 145.9283 308.5027 L 144.1044 309.2578 L 142.2804 310.0130 L 140.4565 310.7682 L 138.6325 311.5233 L 136.8086 312.2785 L 134.9846 313.0337 L 133.1607 313.7888 L 131.3367 314.5440 L 129.5128 315.2992 L 127.6888 316.0543 L 125.8649 316.8095 L 124.0410 317.5647 L 122.2170 318.3198 L 120.3931 319.0750 L 118.5691 319.8302 L 116.7452 320.5853 L 114.9212 321.3405 L 113.0973 322.0957 L 111.2733 322.8508 L 109.4494 323.6060 L 107.6254 324.3612 L 105.8015 325.1163 L 103.9776 325.8715 L 102.1536 326.6267 L 100.3297 327.3818 L 98.5057 328.1370 L 96.6818 328.8922 L 94.8578 329.6473 L 93.0339 330.4025 L 91.2099 331.1577 L 89.3860 331.9128 L 87.5620 332.6680 L 85.7381 333.4232 L 83.9142 334.1784 L 82.0902 334.9335 L 80.2663 335.6887 L 78.4423 336.4439 L 76.6184 337.1990 L 74.7944 337.9542 L 72.9705 338.7094 L 71.1465 339.4645 L 70.2749 339.6101 L 71.7239 338.2695 L 73.1722 336.9280 L 74.6198 335.5858 L 76.0666 334.2428 L 77.5127 332.8990 L 78.9581 331.5544 L 80.4027 330.2089 L 81.8466 328.8627 L 83.2898 327.5158 L 84.7322 326.1680 L 86.1739 324.8194 L 87.6148 323.4701 L 89.0550 322.1200 L 90.4945 320.7690 L 91.9332 319.4173 L 93.3712 318.0648 L 94.8084 316.7115 L 96.2449 315.3574 L 97.6807 314.0026 L 99.1157 312.6469 L 100.5500 311.2905 L 101.9835 309.9333 L 103.4163 308.5752 L 104.8483 307.2165 L 106.2796 305.8569 L 107.7102 304.4965 L 109.1400 303.1354 L 110.5690 301.7735 L 111.9974 300.4108 L 113.4249 299.0473 L 114.8517 297.6830 L 116.2778 296.3179 L 117.7032 294.9521 L 119.1277 293.5855 L 120.5515 292.2181 L 121.9746 290.8499 L 123.3970 289.4810 L 124.8185 288.1113 L 126.2394 286.7407 L 127.6595 285.3695 L 129.0788 283.9974 L 130.4974 282.6246 L 131.9152 281.2509 L 133.3323 279.8766 L 134.7486 278.5014 L 136.1641 277.1254 L 137.5790 275.7487 L 138.9930 274.3712 L 140.4063 272.9930 L 141.8189 271.6139 L 143.2307 270.2341 L 144.6417 268.8535 L 146.0520 267.4722 L 147.4615 266.0900 L 148.8703 264.7071 L 150.2783 263.3235 L 151.6856 261.9390 L 153.0921 260.5538 L 154.4978 259.1678 L 155.9028 257.7811 L 157.3070 256.3935 L 158.7104 255.0052 L 160.1132 253.6162 L 161.5151 252.2264 L 162.9163 250.8357 L 164.3167 249.4444 L 165.7163 248.0522 L 167.1153 246.6594 L 168.5134 245.2657 L 169.9107 243.8713 L 171.3073 242.4761 L 172.7032 241.0801 L 174.0982 239.6834 L 175.4925 238.2859 L 176.8861 236.8877 L 178.2789 235.4887 L 179.6709 234.0889 L 181.0621 232.6884 L 182.4526 231.2871 L 183.8423 229.8850 L 185.2313 228.4822 L 186.6194 227.0786 L 188.0068 225.6743 L 189.3935 224.2692 L 190.7793 222.8633 L 192.1644 221.4567 L 193.5488 220.0494 L 194.9323 218.6412 L 196.3151 217.2323 L 197.6971 215.8227 L 199.0784 214.4123 L 200.4589 213.0012 L 201.8385 211.5892 L 203.2175 210.1766 L 204.5956 208.7632 L 205.9730 207.3490 L 207.3496 205.9341 L 208.7254 204.5184 L 210.1005 203.1020 L 211.4748 201.6848 L 212.8483 200.2668 L 214.2210 198.8482 L 215.5930 197.4287 L 216.9641 196.0085 L 218.3345 194.5876 L 219.7042 193.1659 L 221.0730 191.7435 L 222.4411 190.3203 L 223.8083 188.8964 L 225.1749 187.4717 L 226.5406 186.0463 L 227.9055 184.6201 L 229.2697 183.1931 L 230.6331 181.7655 L 231.9957 180.3371 L 233.3575 178.9079 L 234.7185 177.4780 L 236.0788 176.0474 L 237.4383 174.6160 L 238.7970 173.1838 L 240.1549 171.7509 L 241.5120 170.3173 L 242.8683 168.8830 L 244.2239 167.4478 L 245.5786 166.0120 L 246.9326 164.5754 L 248.2858 163.1381 L 249.6382 161.7000 L 250.9899 160.2612 L 252.3407 158.8217 L 253.6907 157.3814 L 255.0400 155.9403 L 256.3885 154.4986 L 257.7362 153.0561 L 259.0831 151.6128 L 260.4291 150.1689 L 261.7745 148.7242 L 263.1190 147.2787 L 264.4627 145.8325 L 265.8057 144.3856 L 267.1478 142.9380 L 268.4892 141.4896 L 268.6855 141.2302 L 267.2894 142.6259 L 265.8932 144.0215 L 264.4971 145.4172 L 263.1010 146.8129 L 261.7049 148.2086 L 260.3088 149.6043 L 258.9127 150.9999 L 257.5165 152.3956 L 256.1204 153.7913 L 254.7243 155.1870 L 253.3282 156.5826 L 251.9321 157.9783 L 250.5360 159.3740 L 249.1398 160.7697 L 247.7437 162.1654 L 246.3476 163.5610 L 244.9515 164.9567 L 243.5554 166.3524 L 242.1593 167.7481 L 240.7632 169.1437 L 239.3670 170.5394 L 237.9709 171.9351 L 236.5748 173.3308 L 235.1787 174.7264 L 233.7826 176.1221 L 232.3865 177.5178 L 230.9903 178.9135 L 229.5942 180.3092 L 228.1981 181.7048 L 226.8020 183.1005 L 225.4059 184.4962 L 224.0098 185.8919 L 222.6136 187.2875 L 221.2175 188.6832 L 219.8214 190.0789 L 218.4253 191.4746 L 217.0292 192.8703 L 215.6331 194.2659 L 214.2370 195.6616 L 212.8408 197.0573 L 211.4447 198.4530 L 210.0486 199.8486 L 208.6525 201.2443 L 207.2564 202.6400 L 205.8603 204.0357 L 204.4641 205.4314 L 203.0680 206.8270 L 201.6719 208.2227 L 200.2758 209.6184 L 198.8797 211.0141 L 197.4836 212.4097 L 196.0874 213.8054 L 194.6913 215.2011 L 193.2952 216.5968 L 191.8991 217.9924 L 190.5030 219.3881 L 189.1069 220.7838 L 187.7108 222.1795 L 186.3146 223.5752 L 184.9185 224.9708 L 183.5224 226.3665 L 182.1263 227.7622 L 180.7302 229.1579 L 179.3341 230.5535 L 177.9379 231.9492 L 176.5418 233.3449 L 175.1457 234.7406 L 173.7496 236.1363 L 172.3535 237.5319 L 170.9574 238.9276 L 169.5612 240.3233 L 168.1651 241.7190 L 166.7690 243.1146 L 165.3729 244.5103 L 163.9768 245.9060 L 162.5807 247.3017 L 161.1846 248.6973 L 159.7884 250.0930 L 158.3923 251.4887 L 156.9962 252.8844 L 155.6001 254.2801 L 154.2040 255.6757 L 152.8079 257.0714 L 151.4117 258.4671 L 150.0156 259.8628 L 148.6195 261.2584 L 147.2234 262.6541 L 145.8273 264.0498 L 144.4312 265.4455 L 143.0350 266.8412 L 141.6389 268.2368 L 140.2428 269.6325 L 138.8467 271.0282 L 137.4506 272.4239 L 136.0545 273.8195 L 134.6583 275.2152 L 133.2622 276.6109 L 131.8661 278.0066 L 130.4700 279.4022 L 129.0739 280.7979 L 127.6778 282.1936 L 126.2817 283.5893 L 124.8855 284.9850 L 123.4894 286.3806 L 122.0933 287.7763 L 120.6972 289.1720 L 119.3011 290.5677 L 117.9050 291.9633 L 116.5088 293.3590 L 115.1127 294.7547 L 113.7166 296.1504 L 112.3205 297.5461 L 110.9244 298.9417 L 109.5283 300.3374 L 108.1321 301.7331 L 106.7360 303.1288 L 105.3399 304.5244 L 103.9438 305.9201 L 102.5477 307.3158 L 101.1516 308.7115 L 99.7555 310.1071 L 98.3593 311.5028 L 96.9632 312.8985 L 95.5671 314.2942 L 94.1710 315.6899 L 92.7749 317.0855 L 91.3788 318.4812 L 89.9826 319.8769 L 88.5865 321.2726 L 87.1904 322.6682 L 85.7943 324.0639 L 84.3982 325.4596 L 83.0021 326.8553 L 81.6059 328.2510 L 80.2098 329.6466 L 78.8137 331.0423 L 77.4176 332.4380 L 76.0215 333.8337 L 74.6254 335.2293 L 73.2293 336.6250 L 71.8331 338.0207 L 70.4370 339.4164 L 70.3339 338.9568 L 71.1593 337.1636 L 71.9837 335.3699 L 72.8072 333.5757 L 73.6297 331.7811 L 74.4511 329.9861 L 75.2716 328.1905 L 76.0911 326.3946 L 76.9097 324.5982 L 77.7272 322.8013 L 78.5438 321.0040 L 79.3594 319.2063 L 80.1740 317.4081 L 80.9876 315.6095 L 81.8002 313.8104 L 82.6118 312.0109 L 83.4225 310.2109 L 84.2321 308.4105 L 85.0408 306.6096 L 85.8485 304.8083 L 86.6552 303.0066 L 87.4609 301.2044 L 88.2657 299.4018 L 89.0694 297.5987 L 89.8722 295.7952 L 90.6739 293.9913 L 91.4747 292.1869 L 92.2746 290.3821 L 93.0734 288.5768 L 93.8712 286.7711 L 94.6680 284.9650 L 95.4639 283.1584 L 96.2587 281.3514 L 97.0525 279.5439 L 97.8454 277.7361 L 98.6373 275.9278 L 99.4282 274.1190 L 100.2181 272.3098 L 101.0070 270.5002 L 101.7949 268.6902 L 102.5818 266.8797 L 103.3678 265.0688 L 104.1527 263.2575 L 104.9367 261.4458 L 105.7196 259.6336 L 106.5016 257.8209 L 107.2826 256.0079 L 108.0626 254.1944 L 108.8415 252.3805 L 109.6195 250.5662 L 110.3965 248.7514 L 111.1726 246.9363 L 111.9476 245.1207 L 112.7216 243.3046 L 113.4946 241.4882 L 114.2666 239.6713 L 115.0377 237.8540 L 115.8077 236.0363 L 116.5768 234.2182 L 117.3448 232.3996 L 118.1118 230.5806 L 118.8779 228.7612 L 119.6430 226.9414 L 120.4070 225.1212 L 121.1701 223.3005 L 121.9322 221.4795 L 122.6933 219.6580 L 123.4533 217.8361 L 124.2124 216.0137 L 124.9705 214.1910 L 125.7276 212.3679 L 126.4837 210.5443 L 127.2387 208.7203 L 127.9928 206.8959 L 128.7460 205.0711 L 129.4980 203.2459 L 130.2491 201.4203 L 130.9992 199.5942 L 131.7483 197.7678 L 132.4964 195.9409 L 133.2435 194.1136 L 133.9896 192.2860 L 134.7347 190.4579 L 135.4787 188.6294 L 136.2218 186.8005 L 136.9639 184.9712 L 137.7050 183.1415 L 138.4451 181.3114 L 139.1842 179.4808 L 139.9223 177.6499 L 140.6593 175.8186 L 141.3954 173.9868 L 142.1305 172.1547 L 142.8646 170.3222 L 143.5976 168.4892 L 144.3297 166.6559 L 145.0607 164.8222 L 145.7908 162.9880 L 146.5199 161.1535 L 147.2479 159.3185 L 147.9749 157.4832 L 148.7010 155.6475 L 149.4260 153.8113 L 150.1500 151.9748 L 150.8731 150.1379 L 151.5951 148.3006 L 152.3161 146.4629 L 153.0361 144.6247 L 153.7551 142.7862 L 154.4732 140.9474 L 155.1901 139.1081 L 155.9061 137.2684 L 156.6211 135.4283 L 157.3351 133.5879 L 158.0480 131.7470 L 158.7600 129.9058 L 159.4709 128.0641 L 160.1809 126.2221 L 160.8898 124.3797 L 161.5977 122.5369 L 162.3047 120.6937 L 163.0106 118.8502 L 163.7154 117.0062 L 164.4193 115.1619 L 165.1222 113.3171 L 165.8241 111.4720 L 166.5250 109.6265 L 167.2248 107.7806 L 167.9237 105.9344 L 168.6215 104.0878 L 169.3183 102.2407 L 170.0141 100.3933 L 170.7090 98.5456 L 171.4027 96.6974 L 172.0955 94.8488 L 172.7873 92.9999 L 173.4781 91.1506 L 174.1678 89.3009 L 174.8565 87.4509 L 175.5443 85.6005 L 176.2310 83.7497 L 176.9167 81.8985 L 177.6013 80.0469 L 177.2645 80.8014 L 176.5088 82.6251 L 175.7530 84.4488 L 174.9973 86.2725 L 174.2415 88.0962 L 173.4858 89.9199 L 172.7301 91.7436 L 171.9743 93.5673 L 171.2186 95.3910 L 170.4628 97.2148 L 169.7071 99.0385 L 168.9514 100.8622 L 168.1956 102.6859 L 167.4399 104.5096 L 166.6841 106.3333 L 165.9284 108.1570 L 165.1727 109.9807 L 164.4169 111.8044 L 163.6612 113.6281 L 162.9054 115.4518 L 162.1497 117.2755 L 161.3940 119.0992 L 160.6382 120.9230 L 159.8825 122.7467 L 159.1267 124.5704 L 158.3710 126.3941 L 157.6153 128.2178 L 156.8595 130.0415 L 156.1038 131.8652 L 155.3480 133.6889 L 154.5923 135.5126 L 153.8365 137.3363 L 153.0808 139.1600 L 152.3251 140.9837 L 151.5693 142.8075 L 150.8136 144.6312 L 150.0578 146.4549 L 149.3021 148.2786 L 148.5464 150.1023 L 147.7906 151.9260 L 147.0349 153.7497 L 146.2791 155.5734 L 145.5234 157.3971 L 144.7677 159.2208 L 144.0119 161.0445 L 143.2562 162.8682 L 142.5004 164.6920 L 141.7447 166.5157 L 140.9890 168.3394 L 140.2332 170.1631 L 139.4775 171.9868 L 138.7217 173.8105 L 137.9660 175.6342 L 137.2103 177.4579 L 136.4545 179.2816 L 135.6988 181.1053 L 134.9430 182.9290 L 134.1873 184.7527 L 133.4316 186.5764 L 132.6758 188.4002 L 131.9201 190.2239 L 131.1643 192.0476 L 130.4086 193.8713 L 129.6529 195.6950 L 128.8971 197.5187 L 128.1414 199.3424 L 127.3856 201.1661 L 126.6299 202.9898 L 125.8742 204.8135 L 125.1184 206.6372 L 124.3627 208.4609 L 123.6069 210.2847 L 122.8512 212.1084 L 122.0955 213.9321 L 121.3397 215.7558 L 120.5840 217.5795 L 119.8282 219.4032 L 119.0725 221.2269 L 118.3168 223.0506 L 117.5610 224.8743 L 116.8053 226.6980 L 116.0495 228.5217 L 115.2938 230.3454 L 114.5381 232.1692 L 113.7823 233.9929 L 113.0266 235.8166 L 112.2708 237.6403 L 111.5151 239.4640 L 110.7594 241.2877 L 110.0036 243.1114 L 109.2479 244.9351 L 108.4921 246.7588 L 107.7364 248.5825 L 106.9807 250.4062 L 106.2249 252.2299 L 105.4692 254.0536 L 104.7134 255.8774 L 103.9577 257.7011 L 103.2020 259.5248 L 102.4462 261.3485 L 101.6905 263.1722 L 100.9347 264.9959 L 100.1790 266.8196 L 99.4232 268.6433 L 98.6675 270.4670 L 97.9118 272.2907 L 97.1560 274.1144 L 96.4003 275.9381 L 95.6445 277.7619 L 94.8888 279.5856 L 94.1331 281.4093 L 93.3773 283.2330 L 92.6216 285.0567 L 91.8658 286.8804 L 91.1101 288.7041 L 90.3544 290.5278 L 89.5986 292.3515 L 88.8429 294.1752 L 88.0871 295.9989 L 87.3314 297.8226 L 86.5757 299.6463 L 85.8199 301.4701 L 85.0642 303.2938 L 84.3084 305.1175 L 83.5527 306.9412 L 82.7970 308.7649 L 82.0412 310.5886 L 81.2855 312.4123 L 80.5297 314.2360 L 79.7740 316.0597 L 79.0183 317.8834 L 78.2625 319.7071 L 77.5068 321.5308 L 76.7510 323.3546 L 75.9953 325.1783 L 75.2396 327.0020 L 74.4838 328.8257 L 73.7281 330.6494 L 72.9723 332.4731 L 72.2166 334.2968 L 71.4609 336.1205 L 70.7051 337.9442 L 69.9494 339.7679 L 69.9204 338.2784 L 69.9964 336.3058 L 70.0714 334.3331 L 70.1452 332.3604 L 70.2180 330.3877 L 70.2897 328.4149 L 70.3603 326.4420 L 70.4299 324.4692 L 70.4983 322.4962 L 70.5657 320.5233 L 70.6320 318.5503 L 70.6972 316.5773 L 70.7613 314.6042 L 70.8244 312.6312 L 70.8864 310.6580 L 70.9472 308.6849 L 71.0071 306.7117 L 71.0658 304.7385 L 71.1235 302.7652 L 71.1800 300.7919 L 71.2355 298.8186 L 71.2899 296.8453 L 71.3433 294.8719 L 71.3955 292.8985 L 71.4467 290.9251 L 71.4968 288.9516 L 71.5458 286.9781 L 71.5937 285.0046 L 71.6405 283.0311 L 71.6863 281.0575 L 71.7310 279.0839 L 71.7746 277.1103 L 71.8171 275.1366 L 71.8586 273.1630 L 71.8989 271.1893 L 71.9382 269.2156 L 71.9764 267.2419 L 72.0135 265.2681 L 72.0495 263.2944 L 72.0845 261.3206 L 72.1184 259.3468 L 72.1512 257.3729 L 72.1829 255.3991 L 72.2135 253.4252 L 72.2430 251.4514 L 72.2715 249.4775 L 72.2989 247.5036 L 72.3252 245.5297 L 72.3504 243.5557 L 72.3746 241.5818 L 72.3976 239.6078 L 72.4196 237.6338 L 72.4405 235.6598 L 72.4604 233.6859 L 72.4791 231.7118 L 72.4968 229.7378 L 72.5134 227.7638 L 72.5289 225.7898 L 72.5433 223.8157 L 72.5566 221.8417 L 72.5689 219.8676 L 72.5800 217.8936 L 72.5901 215.9195 L 72.5991 213.9454 L 72.6071 211.9713 L 72.6139 209.9972 L 72.6197 208.0232 L 72.6244 206.0491 L 72.6280 204.0750 L 72.6305 202.1009 L 72.6320 200.1268 L 72.6324 198.1527 L 72.6317 196.1786 L 72.6299 194.2045 L 72.6270 192.2304 L 72.6230 190.2563 L 72.6180 188.2822 L 72.6119 186.3081 L 72.6047 184.3341 L 72.5964 182.3600 L 72.5871 180.3859 L 72.5766 178.4118 L 72.5651 176.4378 L 72.5525 174.4637 L 72.5388 172.4897 L 72.5241 170.5156 L 72.5082 168.5416 L 72.4913 166.5676 L 72.4733 164.5936 L 72.4542 162.6196 L 72.4340 160.6456 L 72.4128 158.6716 L 72.3905 156.6976 L 72.3671 154.7236 L 72.3426 152.7497 L 72.3171 150.7758 L 72.2904 148.8019 L 72.2627 146.8280 L 72.2339 144.8541 L 72.2040 142.8802 L 72.1730 140.9063 L 72.1410 138.9325 L 72.1078 136.9587 L 72.0737 134.9849 L 72.0384 133.0111 L 72.0020 131.0374 L 71.9645 129.0636 L 71.9260 127.0899 L 71.8864 125.1162 L 71.8457 123.1425 L 71.8040 121.1689 L 71.7611 119.1952 L 71.7172 117.2216 L 71.6722 115.2480 L 71.6261 113.2745 L 71.5790 111.3010 L 71.5307 109.3274 L 71.4814 107.3540 L 71.4310 105.3805 L 71.3795 103.4071 L 71.3269 101.4337 L 71.2733 99.4603 L 71.2186 97.4870 L 71.1628 95.5137 L 71.1059 93.5404 L 71.0479 91.5672 L 70.9889 89.5940 L 70.9288 87.6208 L 70.8675 85.6476 L 70.8053 83.6745 L 70.7419 81.7014 L 70.6775 79.7284 L 70.6120 77.7554 L 70.5454 75.7824 L 70.4777 73.8095 L 70.4089 71.8366 L 70.3391 69.8637 L 70.2682 67.8909 L 70.1962 65.9181 L 70.1231 63.9454 L 70.0490 61.9727 L 69.9738 60.0000" 
        fill="none" 
        stroke="#D32F2F" 
        stroke-width="2.0"
        stroke-linecap="round"
        stroke-linejoin="round"/>
</svg>