<?xml version="1.0" encoding="UTF-8"?>
<svg xmlns="http://www.w3.org/2000/svg" 
     width="400.0" height="300.0" 
     viewBox="0 0 400.0 300.0">
  <rect width="100%" height="100%" fill="#ffffff"/>
  <path d="M 340.0000 150.0006 L 339.9980 149.0005 L 339.9920 148.0004 L 339.9819 147.0003 L 339.9678 146.0003 L 339.9497 145.0003 L 339.9276 144.0004 L 339.9014 143.0006 L 339.8711 142.0010 L 339.8368 141.0014 L 339.7984 140.0020 L 339.7560 139.0028 L 339.7094 138.0038 L 339.6586 137.0049 L 339.6038 136.0063 L 339.5447 135.0079 L 339.4815 134.0098 L 339.4141 133.0120 L 339.3424 132.0144 L 339.2665 131.0172 L 339.1862 130.0203 L 339.1017 129.0237 L 339.0127 128.0275 L 338.9194 127.0318 L 338.8217 126.0364 L 338.7195 125.0415 L 338.6127 124.0471 L 338.5014 123.0532 L 338.3855 122.0598 L 338.2650 121.0670 L 338.1397 120.0747 L 338.0097 119.0831 L 337.8749 118.0921 L 337.7352 117.1018 L 337.5906 116.1121 L 337.4410 115.1233 L 337.2864 114.1352 L 337.1266 113.1479 L 336.9616 112.1615 L 336.7913 111.1759 L 336.6157 110.1914 L 336.4346 109.2078 L 336.2480 108.2252 L 336.0558 107.2437 L 335.8578 106.2634 L 335.6541 105.2842 L 335.4444 104.3063 L 335.2287 103.3297 L 335.0068 102.3545 L 334.7787 101.3808 L 334.5442 100.4085 L 334.3031 99.4379 L 334.0554 98.4689 L 333.8009 97.5017 L 333.5395 96.5364 L 333.2709 95.5730 L 332.9951 94.6116 L 332.7119 93.6524 L 332.4210 92.6955 L 332.1223 91.7410 L 331.8157 90.7891 L 331.5008 89.8398 L 331.1775 88.8934 L 330.8456 87.9500 L 330.5047 87.0097 L 330.1548 86.0728 L 329.7954 85.1395 L 329.4264 84.2099 L 329.0475 83.2844 L 328.6583 82.3631 L 328.2585 81.4463 L 327.8479 80.5344 L 327.4261 79.6276 L 326.9926 78.7263 L 326.5473 77.8308 L 326.0895 76.9415 L 325.6191 76.0590 L 325.1355 75.1836 L 324.6382 74.3158 L 324.1270 73.4563 L 323.6012 72.6055 L 323.0603 71.7642 L 322.5040 70.9331 L 321.9317 70.1130 L 321.3429 69.3045 L 320.7371 68.5088 L 320.1137 67.7268 L 319.4723 66.9594 L 318.8124 66.2079 L 318.1335 65.4736 L 317.4352 64.7576 L 316.7171 64.0615 L 315.9790 63.3867 L 315.2206 62.7348 L 314.4417 62.1075 L 313.6424 61.5064 L 312.8228 60.9334 L 311.9831 60.3901 L 311.1239 59.8785 L 310.2456 59.4001 L 309.3492 58.9567 L 308.4357 58.5497 L 307.5063 58.1806 L 306.5623 57.8505 L 305.6052 57.5604 L 304.6368 57.3109 L 303.6587 57.1024 L 302.6728 56.9350 L 301.6807 56.8086 L 300.6844 56.7226 L 299.6854 56.6764 L 298.6854 56.6691 L 297.6857 56.6995 L 296.6879 56.7664 L 295.6930 56.8683 L 294.7022 57.0039 L 293.7162 57.1715 L 292.7360 57.3697 L 291.7621 57.5969 L 290.7949 57.8517 L 289.8351 58.1325 L 288.8828 58.4380 L 287.9382 58.7667 L 287.0016 59.1174 L 286.0731 59.4888 L 285.1526 59.8798 L 284.2401 60.2893 L 283.3357 60.7162 L 282.4392 61.1596 L 281.5506 61.6185 L 280.6697 62.0921 L 279.7965 62.5796 L 278.9307 63.0803 L 278.0722 63.5934 L 277.2209 64.1183 L 276.3766 64.6543 L 275.5391 65.2010 L 274.7083 65.7578 L 273.8840 66.3241 L 273.0660 66.8996 L 272.2542 67.4837 L 271.4484 68.0761 L 270.6484 68.6763 L 269.8541 69.2841 L 269.0654 69.8990 L 268.2820 70.5208 L 267.5039 71.1491 L 266.7309 71.7837 L 265.9628 72.4243 L 265.1996 73.0706 L 264.4411 73.7224 L 263.6871 74.3795 L 262.9376 75.0417 L 262.1924 75.7088 L 261.4514 76.3805 L 260.7145 77.0567 L 259.9816 77.7372 L 259.2526 78.4219 L 258.5273 79.1105 L 257.8058 79.8031 L 257.0878 80.4993 L 256.3733 81.1991 L 255.6622 81.9024 L 254.9544 82.6090 L 254.2499 83.3189 L 253.5484 84.0318 L 252.8501 84.7477 L 252.1547 85.4666 L 251.4623 86.1882 L 250.7726 86.9125 L 250.0858 87.6395 L 249.4016 88.3690 L 248.7200 89.1009 L 248.0411 89.8353 L 247.3646 90.5719 L 246.6905 91.3107 L 246.0188 92.0517 L 245.3494 92.7948 L 244.6823 93.5400 L 244.0174 94.2871 L 243.3547 95.0361 L 242.6940 95.7869 L 242.0353 96.5395 L 241.3787 97.2939 L 240.7240 98.0500 L 240.0712 98.8076 L 239.4202 99.5669 L 238.7711 100.3277 L 238.1237 101.0901 L 237.4780 101.8538 L 236.8339 102.6190 L 236.1915 103.3855 L 235.5507 104.1534 L 234.9114 104.9225 L 234.2737 105.6929 L 233.6374 106.4646 L 233.0025 107.2374 L 232.3691 108.0113 L 231.7369 108.7863 L 231.1062 109.5624 L 230.4767 110.3396 L 229.8484 111.1178 L 229.2214 111.8969 L 228.5955 112.6771 L 227.9708 113.4581 L 227.3473 114.2400 L 226.7248 115.0228 L 226.1034 115.8065 L 225.4830 116.5909 L 224.8636 117.3762 L 224.2452 118.1622 L 223.6277 118.9489 L 223.0111 119.7364 L 222.3954 120.5246 L 221.7806 121.3134 L 221.1666 122.1029 L 220.5534 122.8930 L 219.9410 123.6837 L 219.3294 124.4750 L 218.7184 125.2668 L 218.1082 126.0592 L 217.4986 126.8521 L 216.8897 127.6455 L 216.2814 128.4394 L 215.6737 129.2337 L 215.0666 130.0285 L 214.4601 130.8237 L 213.8540 131.6193 L 213.2485 132.4152 L 212.6434 133.2116 L 212.0388 134.0083 L 211.4347 134.8053 L 210.8309 135.6026 L 210.2276 136.4003 L 209.6246 137.1982 L 209.0219 137.9964 L 208.4196 138.7948 L 207.8176 139.5934 L 207.2159 140.3923 L 206.6144 141.1913 L 206.0131 141.9905 L 205.4121 142.7899 L 204.8112 143.5894 L 204.2106 144.3891 L 203.6100 145.1889 L 203.0096 145.9887 L 202.4093 146.7887 L 201.8091 147.5887 L 201.2090 148.3887 L 200.6089 149.1888 L 200.0088 149.9889 L 199.4087 150.7890 L 198.8086 151.5891 L 198.2085 152.3891 L 197.6083 153.1891 L 197.0080 153.9891 L 196.4076 154.7889 L 195.8070 155.5887 L 195.2064 156.3884 L 194.6055 157.1879 L 194.0045 157.9873 L 193.4033 158.7865 L 192.8018 159.5856 L 192.2000 160.3844 L 191.5980 161.1831 L 190.9957 161.9815 L 190.3931 162.7797 L 189.7901 163.5776 L 189.1867 164.3752 L 188.5830 165.1726 L 187.9789 165.9696 L 187.3743 166.7663 L 186.7692 167.5627 L 186.1637 168.3587 L 185.5577 169.1543 L 184.9512 169.9495 L 184.3441 170.7443 L 183.7364 171.5386 L 183.1281 172.3325 L 182.5192 173.1259 L 181.9097 173.9188 L 181.2995 174.7112 L 180.6885 175.5031 L 180.0769 176.2944 L 179.4645 177.0851 L 178.8514 177.8752 L 178.2374 178.6647 L 177.6226 179.4536 L 177.0069 180.2417 L 176.3904 181.0292 L 175.7729 181.8160 L 175.1546 182.6020 L 174.5352 183.3873 L 173.9148 184.1718 L 173.2934 184.9555 L 172.6710 185.7383 L 172.0475 186.5202 L 171.4228 187.3013 L 170.7970 188.0814 L 170.1700 188.8606 L 169.5418 189.6388 L 168.9123 190.4160 L 168.2816 191.1922 L 167.6495 191.9673 L 167.0161 192.7412 L 166.3812 193.5140 L 165.7450 194.2857 L 165.1073 195.0561 L 164.4680 195.8253 L 163.8273 196.5932 L 163.1849 197.3598 L 162.5409 198.1250 L 161.8953 198.8888 L 161.2479 199.6512 L 160.5988 200.4120 L 159.9479 201.1714 L 159.2952 201.9291 L 158.6405 202.6852 L 157.9839 203.4396 L 157.3254 204.1923 L 156.6647 204.9432 L 156.0020 205.6923 L 155.3372 206.4394 L 154.6701 207.1846 L 154.0008 207.9278 L 153.3292 208.6688 L 152.6552 209.4077 L 151.9788 210.1444 L 151.2999 210.8788 L 150.6184 211.6108 L 149.9343 212.3404 L 149.2475 213.0674 L 148.5580 213.7919 L 147.8656 214.5136 L 147.1703 215.2325 L 146.4721 215.9485 L 145.7707 216.6615 L 145.0663 217.3714 L 144.3586 218.0782 L 143.6476 218.7815 L 142.9332 219.4815 L 142.2153 220.1778 L 141.4939 220.8705 L 140.7687 221.5593 L 140.0398 222.2440 L 139.3070 222.9247 L 138.5703 223.6010 L 137.8294 224.2729 L 137.0843 224.9400 L 136.3349 225.6024 L 135.5811 226.2596 L 134.8227 226.9116 L 134.0596 227.5581 L 133.2917 228.1988 L 132.5188 228.8336 L 131.7409 229.4621 L 130.9577 230.0841 L 130.1691 230.6992 L 129.3750 231.3072 L 128.5752 231.9077 L 127.7695 232.5003 L 126.9579 233.0847 L 126.1401 233.6604 L 125.3159 234.2270 L 124.4853 234.7840 L 123.6480 235.3310 L 122.8039 235.8674 L 121.9528 236.3926 L 121.0946 236.9061 L 120.2290 237.4071 L 119.3560 237.8950 L 118.4753 238.3690 L 117.5869 238.8284 L 116.6907 239.2722 L 115.7865 239.6997 L 114.8743 240.1097 L 113.9540 240.5012 L 113.0257 240.8733 L 112.0893 241.2246 L 111.1450 241.5540 L 110.1929 241.8601 L 109.2333 242.1417 L 108.2664 242.3972 L 107.2927 242.6253 L 106.3126 242.8244 L 105.3268 242.9929 L 104.3361 243.1294 L 103.3413 243.2324 L 102.3435 243.3003 L 101.3440 243.3318 L 100.3439 243.3256 L 99.3449 243.2806 L 98.3484 243.1958 L 97.3562 243.0705 L 96.3701 242.9044 L 95.3917 242.6971 L 94.4230 242.4488 L 93.4656 242.1598 L 92.5212 241.8309 L 91.5913 241.4629 L 90.6773 241.0570 L 89.7804 240.6146 L 88.9016 240.1373 L 88.0418 239.6266 L 87.2015 239.0842 L 86.3813 238.5120 L 85.5814 237.9118 L 84.8020 237.2852 L 84.0429 236.6340 L 83.3042 235.9598 L 82.5856 235.2643 L 81.8867 234.5489 L 81.2073 233.8151 L 80.5468 233.0641 L 79.9048 232.2972 L 79.2810 231.5155 L 78.6746 230.7202 L 78.0853 229.9122 L 77.5125 229.0923 L 76.9557 228.2615 L 76.4145 227.4205 L 75.8882 226.5701 L 75.3765 225.7108 L 74.8789 224.8432 L 74.3949 223.9680 L 73.9241 223.0857 L 73.4660 222.1966 L 73.0202 221.3013 L 72.5865 220.4002 L 72.1643 219.4935 L 71.7533 218.5817 L 71.3533 217.6651 L 70.9638 216.7440 L 70.5845 215.8185 L 70.2152 214.8891 L 69.8556 213.9558 L 69.5054 213.0190 L 69.1643 212.0789 L 68.8321 211.1355 L 68.5086 210.1892 L 68.1934 209.2400 L 67.8865 208.2881 L 67.5876 207.3337 L 67.2965 206.3769 L 67.0131 205.4178 L 66.7370 204.4565 L 66.4683 203.4932 L 66.2066 202.5279 L 65.9519 201.5607 L 65.7040 200.5918 L 65.4628 199.6212 L 65.2281 198.6490 L 64.9998 197.6753 L 64.7777 196.7001 L 64.5619 195.7236 L 64.3520 194.7457 L 64.1481 193.7666 L 63.9499 192.7863 L 63.7575 191.8048 L 63.5708 190.8223 L 63.3895 189.8387 L 63.2137 188.8542 L 63.0433 187.8687 L 62.8782 186.8823 L 62.7182 185.8950 L 62.5634 184.9070 L 62.4137 183.9181 L 62.2689 182.9285 L 62.1291 181.9382 L 61.9941 180.9472 L 61.8640 179.9556 L 61.7386 178.9634 L 61.6179 177.9705 L 61.5019 176.9772 L 61.3905 175.9833 L 61.2836 174.9889 L 61.1812 173.9940 L 61.0834 172.9987 L 60.9899 172.0029 L 60.9009 171.0068 L 60.8162 170.0102 L 60.7358 169.0133 L 60.6598 168.0161 L 60.5880 167.0185 L 60.5204 166.0207 L 60.4571 165.0226 L 60.3979 164.0242 L 60.3429 163.0256 L 60.2921 162.0268 L 60.2454 161.0277 L 60.2027 160.0285 L 60.1642 159.0291 L 60.1298 158.0296 L 60.0994 157.0299 L 60.0731 156.0301 L 60.0509 155.0302 L 60.0326 154.0303 L 60.0184 153.0303 L 60.0083 152.0302 L 60.0021 151.0301 L 60.0000 150.0299 L 60.0019 149.0298 L 60.0078 148.0297 L 60.0177 147.0296 L 60.0317 146.0296 L 60.0497 145.0296 L 60.0717 144.0297 L 60.0978 143.0300 L 60.1279 142.0303 L 60.1621 141.0307 L 60.2004 140.0313 L 60.2427 139.0321 L 60.2892 138.0331 L 60.3398 137.0342 L 60.3946 136.0356 L 60.4535 135.0372 L 60.5166 134.0391 L 60.5839 133.0412 L 60.6554 132.0436 L 60.7312 131.0464 L 60.8114 130.0495 L 60.8958 129.0529 L 60.9846 128.0567 L 61.0778 127.0610 L 61.1754 126.0656 L 61.2775 125.0707 L 61.3841 124.0763 L 61.4952 123.0823 L 61.6110 122.0889 L 61.7314 121.0961 L 61.8565 120.1038 L 61.9864 119.1122 L 62.1210 118.1211 L 62.2606 117.1308 L 62.4050 116.1411 L 62.5545 115.1522 L 62.7090 114.1641 L 62.8686 113.1768 L 63.0335 112.1904 L 63.2036 111.2048 L 63.3791 110.2202 L 63.5600 109.2366 L 63.7464 108.2540 L 63.9385 107.2725 L 64.1363 106.2921 L 64.3399 105.3129 L 64.5494 104.3350 L 64.7649 103.3583 L 64.9866 102.3831 L 65.2145 101.4093 L 65.4489 100.4370 L 65.6897 99.4663 L 65.9372 98.4973 L 66.1915 97.5300 L 66.4527 96.5646 L 66.7211 95.6012 L 66.9967 94.6398 L 67.2797 93.6805 L 67.5703 92.7236 L 67.8688 91.7690 L 68.1752 90.8170 L 68.4898 89.8676 L 68.8129 88.9211 L 69.1446 87.9776 L 69.4851 87.0372 L 69.8348 86.1002 L 70.1939 85.1668 L 70.5626 84.2371 L 70.9413 83.3114 L 71.3302 82.3900 L 71.7296 81.4731 L 72.1399 80.5610 L 72.5614 79.6541 L 72.9945 78.7526 L 73.4395 77.8569 L 73.8968 76.9675 L 74.3669 76.0848 L 74.8502 75.2091 L 75.3470 74.3411 L 75.8578 73.4813 L 76.3832 72.6303 L 76.9236 71.7888 L 77.4794 70.9573 L 78.0513 70.1368 L 78.6396 69.3281 L 79.2449 68.5320 L 79.8678 67.7495 L 80.5086 66.9817 L 81.1680 66.2298 L 81.8463 65.4949 L 82.5441 64.7783 L 83.2615 64.0816 L 83.9991 63.4062 L 84.7569 62.7536 L 85.5352 62.1255 L 86.3339 61.5236 L 87.1529 60.9498 L 87.9920 60.4056 L 88.8507 59.8930 L 89.7284 59.4136 L 90.6242 58.9692 L 91.5372 58.5611 L 92.4662 58.1909 L 93.4098 57.8596 L 94.3665 57.5683 L 95.3346 57.3176 L 96.3125 57.1079 L 97.2982 56.9393 L 98.2901 56.8117 L 99.2863 56.7246 L 100.2853 56.6772 L 101.2853 56.6688 L 102.2850 56.6981 L 103.2829 56.7639 L 104.2778 56.8648 L 105.2688 56.9994 L 106.2549 57.1661 L 107.2354 57.3635 L 108.2095 57.5899 L 109.1768 57.8438 L 110.1369 58.1239 L 111.0894 58.4287 L 112.0342 58.7567 L 112.9710 59.1068 L 113.8998 59.4777 L 114.8206 59.8681 L 115.7333 60.2771 L 116.6379 60.7035 L 117.5346 61.1464 L 118.4234 61.6048 L 119.3045 62.0780 L 120.1780 62.5652 L 121.0440 63.0654 L 121.9027 63.5782 L 122.7542 64.1027 L 123.5987 64.6385 L 124.4364 65.1849 L 125.2674 65.7413 L 126.0919 66.3074 L 126.9101 66.8826 L 127.7221 67.4665 L 128.5281 68.0586 L 129.3282 68.6586 L 130.1227 69.2662 L 130.9116 69.8809 L 131.6951 70.5025 L 132.4734 71.1306 L 133.2465 71.7650 L 134.0147 72.4054 L 134.7781 73.0516 L 135.5368 73.7033 L 136.2909 74.3602 L 137.0405 75.0222 L 137.7858 75.6891 L 138.5269 76.3607 L 139.2639 77.0368 L 139.9970 77.7172 L 140.7261 78.4017 L 141.4515 79.0903 L 142.1731 79.7827 L 142.8912 80.4789 L 143.6058 81.1786 L 144.3170 81.8818 L 145.0249 82.5883 L 145.7295 83.2980 L 146.4310 84.0108 L 147.1295 84.7267 L 147.8249 85.4454 L 148.5175 86.1670 L 149.2072 86.8912 L 149.8941 87.6181 L 150.5784 88.3476 L 151.2600 89.0794 L 151.9391 89.8137 L 152.6156 90.5503 L 153.2898 91.2890 L 153.9615 92.0300 L 154.6310 92.7730 L 155.2981 93.5181 L 155.9631 94.2651 L 156.6259 95.0141 L 157.2867 95.7649 L 157.9454 96.5174 L 158.6021 97.2718 L 159.2568 98.0278 L 159.9097 98.7854 L 160.5607 99.5446 L 161.2099 100.3054 L 161.8574 101.0677 L 162.5031 101.8314 L 163.1472 102.5965 L 163.7897 103.3630 L 164.4305 104.1309 L 165.0698 104.9000 L 165.7076 105.6703 L 166.3440 106.4419 L 166.9789 107.2147 L 167.6124 107.9886 L 168.2445 108.7636 L 168.8754 109.5397 L 169.5049 110.3168 L 170.1332 111.0950 L 170.7603 111.8741 L 171.3861 112.6542 L 172.0109 113.4352 L 172.6345 114.2171 L 173.2570 114.9999 L 173.8784 115.7835 L 174.4988 116.5679 L 175.1183 117.3531 L 175.7367 118.1391 L 176.3542 118.9259 L 176.9708 119.7133 L 177.5865 120.5014 L 178.2014 121.2903 L 178.8154 122.0797 L 179.4286 122.8698 L 180.0410 123.6605 L 180.6527 124.4517 L 181.2637 125.2436 L 181.8739 126.0359 L 182.4835 126.8288 L 183.0924 127.6222 L 183.7007 128.4161 L 184.3084 129.2104 L 184.9156 130.0052 L 185.5222 130.8003 L 186.1282 131.5959 L 186.7338 132.3919 L 187.3388 133.1882 L 187.9434 133.9849 L 188.5476 134.7819 L 189.1514 135.5793 L 189.7547 136.3769 L 190.3577 137.1748 L 190.9604 137.9730 L 191.5627 138.7714 L 192.1647 139.5700 L 192.7665 140.3688 L 193.3680 141.1679 L 193.9693 141.9671 L 194.5703 142.7665 L 195.1712 143.5660 L 195.7718 144.3656 L 196.3724 145.1654 L 196.9728 145.9653 L 197.5731 146.7652 L 198.1733 147.5652 L 198.7734 148.3653 L 199.3735 149.1653 L 199.9736 149.9654 L 200.5737 150.7655 L 201.1738 151.5656 L 201.7739 152.3657 L 202.3741 153.1657 L 202.9744 153.9656 L 203.5748 154.7655 L 204.1753 155.5653 L 204.7760 156.3649 L 205.3768 157.1645 L 205.9779 157.9638 L 206.5791 158.7631 L 207.1806 159.5621 L 207.7823 160.3610 L 208.3843 161.1596 L 208.9866 161.9581 L 209.5892 162.7563 L 210.1922 163.5542 L 210.7956 164.3518 L 211.3993 165.1492 L 212.0034 165.9462 L 212.6080 166.7430 L 213.2130 167.5393 L 213.8185 168.3353 L 214.4245 169.1309 L 215.0310 169.9262 L 215.6381 170.7210 L 216.2458 171.5153 L 216.8540 172.3092 L 217.4629 173.1027 L 218.0724 173.8956 L 218.6826 174.6880 L 219.2935 175.4799 L 219.9051 176.2712 L 220.5175 177.0619 L 221.1307 177.8521 L 221.7446 178.6416 L 222.3594 179.4304 L 222.9750 180.2186 L 223.5915 181.0062 L 224.2089 181.7929 L 224.8273 182.5790 L 225.4466 183.3643 L 226.0670 184.1488 L 226.6883 184.9325 L 227.3107 185.7153 L 227.9342 186.4973 L 228.5589 187.2784 L 229.1846 188.0586 L 229.8116 188.8378 L 230.4398 189.6160 L 231.0692 190.3933 L 231.6999 191.1694 L 232.3320 191.9445 L 232.9653 192.7185 L 233.6001 193.4914 L 234.2363 194.2631 L 234.8740 195.0336 L 235.5132 195.8028 L 236.1539 196.5707 L 236.7962 197.3373 L 237.4401 198.1026 L 238.0857 198.8664 L 238.7330 199.6288 L 239.3821 200.3898 L 240.0330 201.1491 L 240.6857 201.9069 L 241.3403 202.6631 L 241.9968 203.4175 L 242.6553 204.1703 L 243.3159 204.9212 L 243.9785 205.6703 L 244.6433 206.4175 L 245.3103 207.1628 L 245.9795 207.9060 L 246.6511 208.6471 L 247.3250 209.3861 L 248.0013 210.1229 L 248.6802 210.8573 L 249.3616 211.5894 L 250.0456 212.3191 L 250.7323 213.0462 L 251.4217 213.7707 L 252.1140 214.4925 L 252.8092 215.2115 L 253.5074 215.9276 L 254.2086 216.6407 L 254.9130 217.3507 L 255.6206 218.0575 L 256.3315 218.7610 L 257.0458 219.4610 L 257.7636 220.1575 L 258.4849 220.8502 L 259.2099 221.5391 L 259.9387 222.2240 L 260.6714 222.9048 L 261.4081 223.5813 L 262.1488 224.2532 L 262.8938 224.9205 L 263.6430 225.5830 L 264.3967 226.2404 L 265.1550 226.8926 L 265.9179 227.5392 L 266.6857 228.1801 L 267.4584 228.8151 L 268.2362 229.4438 L 269.0193 230.0659 L 269.8077 230.6813 L 270.6017 231.2895 L 271.4013 231.8902 L 272.2068 232.4830 L 273.0182 233.0676 L 273.8358 233.6436 L 274.6598 234.2105 L 275.4902 234.7678 L 276.3273 235.3151 L 277.1712 235.8518 L 278.0221 236.3774 L 278.8802 236.8912 L 279.7455 237.3926 L 280.6183 237.8809 L 281.4987 238.3554 L 282.3869 238.8152 L 283.2829 239.2595 L 284.1869 239.6874 L 285.0988 240.0979 L 286.0189 240.4900 L 286.9470 240.8626 L 287.8831 241.2146 L 288.8272 241.5447 L 289.7790 241.8515 L 290.7385 242.1338 L 291.7052 242.3901 L 292.6787 242.6190 L 293.6586 242.8190 L 294.6442 242.9884 L 295.6348 243.1259 L 296.6295 243.2298 L 297.6272 243.2988 L 298.6267 243.3314 L 299.6268 243.3263 L 300.6259 243.2824 L 301.6224 243.1988 L 302.6148 243.0748 L 303.6011 242.9098 L 304.5797 242.7037 L 305.5488 242.4566 L 306.5065 242.1688 L 307.4513 241.8411 L 308.3817 241.4742 L 309.2961 241.0694 L 310.1936 240.6281 L 311.0729 240.1517 L 311.9333 239.6420 L 312.7741 239.1006 L 313.5949 238.5292 L 314.3954 237.9298 L 315.1755 237.3039 L 315.9351 236.6534 L 316.6744 235.9799 L 317.3936 235.2850 L 318.0931 234.5702 L 318.7731 233.8368 L 319.4341 233.0863 L 320.0766 232.3199 L 320.7010 231.5387 L 321.3079 230.7437 L 321.8977 229.9360 L 322.4709 229.1165 L 323.0282 228.2860 L 323.5699 227.4453 L 324.0965 226.5951 L 324.6086 225.7361 L 325.1067 224.8688 L 325.5911 223.9938 L 326.0623 223.1116 L 326.5208 222.2228 L 326.9669 221.3277 L 327.4010 220.4267 L 327.8235 219.5202 L 328.2348 218.6085 L 328.6351 217.6921 L 329.0249 216.7710 L 329.4045 215.8457 L 329.7741 214.9164 L 330.1340 213.9833 L 330.4845 213.0466 L 330.8258 212.1065 L 331.1583 211.1632 L 331.4821 210.2170 L 331.7974 209.2679 L 332.1046 208.3161 L 332.4037 207.3617 L 332.6950 206.4050 L 332.9787 205.4459 L 333.2550 204.4847 L 333.5239 203.5214 L 333.7858 202.5562 L 334.0407 201.5891 L 334.2888 200.6202 L 334.5302 199.6497 L 334.7651 198.6775 L 334.9936 197.7039 L 335.2158 196.7287 L 335.4319 195.7522 L 335.6419 194.7744 L 335.8460 193.7953 L 336.0443 192.8150 L 336.2369 191.8336 L 336.4238 190.8511 L 336.6052 189.8676 L 336.7812 188.8831 L 336.9518 187.8976 L 337.1171 186.9112 L 337.2772 185.9240 L 337.4321 184.9359 L 337.5820 183.9471 L 337.7269 182.9575 L 337.8669 181.9672 L 338.0020 180.9763 L 338.1322 179.9847 L 338.2578 178.9925 L 338.3786 177.9997 L 338.4948 177.0063 L 338.6063 176.0124 L 338.7133 175.0180 L 338.8158 174.0232 L 338.9138 173.0278 L 339.0074 172.0321 L 339.0966 171.0360 L 339.1814 170.0394 L 339.2619 169.0426 L 339.3381 168.0453 L 339.4100 167.0478 L 339.4777 166.0500 L 339.5411 165.0518 L 339.6004 164.0535 L 339.6555 163.0549 L 339.7065 162.0560 L 339.7533 161.0570 L 339.7961 160.0578 L 339.8347 159.0584 L 339.8692 158.0589 L 339.8997 157.0592 L 339.9262 156.0594 L 339.9485 155.0596 L 339.9669 154.0596 L 339.9812 153.0596 L 339.9915 152.0595 L 339.9977 151.0594 L 340.0000 150.0593 L 339.9982 149.0591 L 339.9924 148.0590 L 339.9826 147.0589 L 339.9688 146.0589 L 339.9509 145.0589 L 339.9290 144.0591 L 339.9030 143.0593 L 339.8730 142.0596 L 339.8389 141.0600 L 339.8008 140.0606 L 339.7586 139.0614 L 339.7122 138.0624 L 339.6617 137.0635 L 339.6071 136.0649 L 339.5483 135.0665 L 339.4853 134.0683 L 339.4182 133.0705 L 339.3467 132.0729 L 339.2710 131.0756 L 339.1911 130.0787 L 339.1067 129.0821 L 339.0181 128.0859 L 338.9250 127.0901 L 338.8275 126.0948 L 338.7256 125.0999 L 338.6191 124.1054 L 338.5081 123.1115 L 338.3925 122.1181 L 338.2722 121.1252 L 338.1472 120.1329 L 338.0175 119.1412 L 337.8830 118.1502 L 337.7436 117.1598 L 337.5993 116.1701 L 337.4500 115.1812 L 337.2956 114.1931 L 337.1361 113.2058 L 336.9714 112.2193 L 336.8015 111.2337 L 336.6261 110.2491 L 336.4454 109.2654 L 336.2591 108.2828 L 336.0672 107.3012 L 335.8696 106.3208 L 335.6662 105.3416 L 335.4568 104.3636 L 335.2415 103.3870 L 335.0200 102.4117 L 334.7922 101.4378 L 334.5581 100.4655 L 334.3174 99.4947 L 334.0701 98.5257 L 333.8160 97.5584 L 333.5550 96.5929 L 333.2869 95.6294 L 333.0115 94.6679 L 332.7287 93.7086 L 332.4383 92.7516 L 332.1401 91.7969 L 331.8339 90.8448 L 331.5195 89.8954 L 331.1967 88.9488 L 330.8653 88.0052 L 330.5250 87.0648 L 330.1756 86.1277 L 329.8168 85.1941 L 329.4483 84.2643 L 329.0700 83.3385 L 328.6814 82.4170 L 328.2823 81.4999 L 327.8723 80.5877 L 327.4511 79.6806 L 327.0184 78.7789 L 326.5737 77.8831 L 326.1167 76.9935 L 325.6470 76.1105 L 325.1642 75.2347 L 324.6678 74.3665 L 324.1573 73.5064 L 323.6324 72.6552 L 323.0925 71.8133 L 322.5371 70.9816 L 321.9657 70.1607 L 321.3779 69.3516 L 320.7731 68.5551 L 320.1507 67.7722 L 319.5104 67.0040 L 318.8516 66.2516 L 318.1738 65.5161 L 317.4767 64.7991 L 316.7598 64.1017 L 316.0228 63.4257 L 315.2656 62.7724 L 314.4880 62.1435 L 313.6898 61.5409 L 312.8714 60.9662 L 312.0329 60.4211 L 311.1748 59.9076 L 310.2976 59.4272 L 309.4023 58.9817 L 308.4898 58.5726 L 307.5612 58.2012 L 306.6180 57.8688 L 305.6617 57.5763 L 304.6939 57.3244 L 303.7163 57.1135 L 302.7308 56.9437 L 301.7391 56.8149 L 300.7429 56.7266 L 299.7440 56.6781 L 298.7440 56.6685 L 297.7443 56.6967 L 296.7463 56.7615 L 295.7513 56.8614 L 294.7602 56.9950 L 293.7739 57.1608 L 292.7933 57.3573 L 291.8190 57.5828 L 290.8515 57.8360 L 289.8912 58.1153 L 288.9384 58.4194 L 287.9934 58.7468 L 287.0563 59.0962 L 286.1273 59.4665 L 285.2063 59.8564 L 284.2934 60.2648 L 283.3885 60.6907 L 282.4916 61.1332 L 281.6025 61.5912 L 280.7212 62.0640 L 279.8475 62.5507 L 278.9813 63.0506 L 278.1224 63.5630 L 277.2706 64.0872 L 276.4259 64.6226 L 275.5880 65.1687 L 274.7568 65.7249 L 273.9321 66.2907 L 273.1138 66.8656 L 272.3016 67.4492 L 271.4954 68.0411 L 270.6951 68.6409 L 269.9005 69.2483 L 269.1115 69.8628 L 268.3278 70.4842 L 267.5494 71.1121 L 266.7761 71.7463 L 266.0077 72.3866 L 265.2442 73.0326 L 264.4854 73.6841 L 263.7312 74.3409 L 262.9814 75.0028 L 262.2360 75.6695 L 261.4947 76.3409 L 260.7576 77.0169 L 260.0245 77.6972 L 259.2952 78.3816 L 258.5697 79.0700 L 257.8480 79.7624 L 257.1298 80.4584 L 256.4151 81.1580 L 255.7038 81.8611 L 254.9958 82.5675 L 254.2911 83.2772 L 253.5895 83.9899 L 252.8910 84.7057 L 252.1954 85.4243 L 251.5028 86.1458 L 250.8130 86.8700 L 250.1260 87.5968 L 249.4416 88.3261 L 248.7599 89.0579 L 248.0808 89.7921 L 247.4042 90.5286 L 246.7300 91.2673 L 246.0581 92.0082 L 245.3886 92.7512 L 244.7214 93.4962 L 244.0563 94.2432 L 243.3935 94.9921 L 242.7327 95.7428 L 242.0739 96.4954 L 241.4171 97.2496 L 240.7623 98.0056 L 240.1094 98.7632 L 239.4583 99.5224 L 238.8091 100.2831 L 238.1616 101.0453 L 237.5158 101.8090 L 236.8716 102.5741 L 236.2292 103.3405 L 235.5882 104.1083 L 234.9489 104.8774 L 234.3110 105.6477 L 233.6747 106.4193 L 233.0397 107.1920 L 232.4062 107.9659 L 231.7740 108.7409 L 231.1431 109.5169 L 230.5135 110.2940 L 229.8852 111.0721 L 229.2581 111.8512 L 228.6322 112.6313 L 228.0074 113.4123 L 227.3838 114.1942 L 226.7613 114.9769 L 226.1398 115.7605 L 225.5193 116.5449 L 224.8999 117.3301 L 224.2814 118.1161 L 223.6639 118.9028 L 223.0473 119.6902 L 222.4315 120.4783 L 221.8166 121.2671 L 221.2026 122.0566 L 220.5894 122.8466 L 219.9769 123.6373 L 219.3652 124.4285 L 218.7542 125.2204 L 218.1440 126.0127 L 217.5344 126.8056 L 216.9254 127.5989 L 216.3171 128.3928 L 215.7094 129.1871 L 215.1022 129.9818 L 214.4956 130.7770 L 213.8895 131.5726 L 213.2840 132.3686 L 212.6789 133.1649 L 212.0743 133.9616 L 211.4701 134.7586 L 210.8663 135.5559 L 210.2629 136.3535 L 209.6599 137.1514 L 209.0573 137.9496 L 208.4549 138.7480 L 207.8529 139.5466 L 207.2511 140.3454 L 206.6496 141.1445 L 206.0484 141.9437 L 205.4473 142.7430 L 204.8465 143.5426 L 204.2458 144.3422 L 203.6452 145.1420 L 203.0448 145.9418 L 202.4445 146.7417 L 201.8443 147.5417 L 201.2442 148.3418 L 200.6441 149.1419 L 200.0440 149.9420 L 199.4439 150.7421 L 198.8438 151.5422 L 198.2437 152.3422 L 197.6435 153.1422 L 197.0432 153.9422 L 196.4428 154.7420 L 195.8423 155.5418 L 195.2416 156.3415 L 194.6408 157.1410 L 194.0397 157.9404 L 193.4385 158.7396 L 192.8370 159.5387 L 192.2353 160.3376 L 191.6333 161.1362 L 191.0310 161.9347 L 190.4284 162.7329 L 189.8255 163.5308 L 189.2221 164.3285 L 188.6184 165.1258 L 188.0143 165.9229 L 187.4097 166.7196 L 186.8047 167.5160 L 186.1993 168.3120 L 185.5933 169.1076 L 184.9867 169.9029 L 184.3797 170.6977 L 183.7720 171.4920 L 183.1638 172.2860 L 182.5549 173.0794 L 181.9454 173.8724 L 181.3353 174.6648 L 180.7244 175.4567 L 180.1128 176.2480 L 179.5004 177.0388 L 178.8873 177.8289 L 178.2734 178.6184 L 177.6587 179.4073 L 177.0431 180.1955 L 176.4266 180.9831 L 175.8092 181.7699 L 175.1908 182.5560 L 174.5715 183.3413 L 173.9512 184.1258 L 173.3299 184.9095 L 172.7075 185.6924 L 172.0840 186.4744 L 171.4595 187.2555 L 170.8337 188.0357 L 170.2068 188.8150 L 169.5786 189.5932 L 168.9493 190.3705 L 168.3186 191.1467 L 167.6866 191.9218 L 167.0532 192.6959 L 166.4185 193.4688 L 165.7823 194.2405 L 165.1447 195.0110 L 164.5056 195.7803 L 163.8649 196.5482 L 163.2226 197.3149 L 162.5787 198.0802 L 161.9332 198.8441 L 161.2859 199.6065 L 160.6369 200.3675 L 159.9861 201.1269 L 159.3335 201.8847 L 158.6790 202.6409 L 158.0225 203.3954 L 157.3640 204.1482 L 156.7035 204.8992 L 156.0410 205.6484 L 155.3762 206.3956 L 154.7093 207.1409 L 154.0401 207.8842 L 153.3687 208.6254 L 152.6948 209.3645 L 152.0185 210.1013 L 151.3398 210.8358 L 150.6584 211.5680 L 149.9745 212.2977 L 149.2879 213.0249 L 148.5985 213.7495 L 147.9063 214.4713 L 147.2112 215.1904 L 146.5131 215.9066 L 145.8119 216.6198 L 145.1077 217.3299 L 144.4002 218.0368 L 143.6894 218.7404 L 142.9752 219.4405 L 142.2575 220.1371 L 141.5363 220.8300 L 140.8114 221.5190 L 140.0827 222.2040 L 139.3501 222.8849 L 138.6136 223.5615 L 137.8730 224.2336 L 137.1281 224.9011 L 136.3790 225.5637 L 135.6254 226.2212 L 134.8673 226.8735 L 134.1045 227.5203 L 133.3369 228.1614 L 132.5643 228.7966 L 131.7866 229.4254 L 131.0037 230.0478 L 130.2155 230.6633 L 129.4217 231.2718 L 128.6222 231.8727 L 127.8169 232.4658 L 127.0057 233.0506 L 126.1882 233.6269 L 125.3645 234.1940 L 124.5342 234.7516 L 123.6973 235.2992 L 122.8536 235.8363 L 122.0029 236.3622 L 121.1451 236.8763 L 120.2800 237.3781 L 119.4074 237.8668 L 118.5272 238.3416 L 117.6392 238.8019 L 116.7435 239.2467 L 115.8398 239.6751 L 114.9280 240.0861 L 114.0082 240.4788 L 113.0804 240.8520 L 112.1445 241.2046 L 111.2006 241.5353 L 110.2490 241.8428 L 109.2898 242.1259 L 108.3233 242.3830 L 107.3499 242.6127 L 106.3702 242.8135 L 105.3847 242.9839 L 104.3943 243.1223 L 103.3997 243.2273 L 102.4021 243.2973 L 101.4026 243.3309 L 100.4025 243.3270 L 99.4034 243.2843 L 98.4067 243.2019 L 97.4142 243.0790 L 96.4277 242.9152 L 95.4488 242.7104 L 94.4795 242.4644 L 93.5214 242.1778 L 92.5762 241.8512 L 91.6454 241.4855 L 90.7304 241.0818 L 89.8325 240.6416 L 88.9526 240.1662 L 88.0917 239.6574 L 87.2503 239.1169 L 86.4288 238.5464 L 85.6278 237.9477 L 84.8471 237.3226 L 84.0869 236.6728 L 83.3470 236.0000 L 82.6272 235.3057 L 81.9272 234.5914 L 81.2466 233.8586 L 80.5850 233.1086 L 79.9420 232.3426 L 79.3170 231.5618 L 78.7097 230.7672 L 78.1194 229.9599 L 77.5457 229.1407 L 76.9880 228.3105 L 76.4458 227.4701 L 75.9187 226.6202 L 75.4062 225.7614 L 74.9077 224.8943 L 74.4229 224.0196 L 73.9513 223.1376 L 73.4925 222.2489 L 73.0460 221.3540 L 72.6116 220.4532 L 72.1887 219.5468 L 71.7771 218.6353 L 71.3764 217.7190 L 70.9863 216.7981 L 70.6065 215.8729 L 70.2366 214.9437 L 69.8764 214.0107 L 69.5257 213.0741 L 69.1841 212.1341 L 68.8513 211.1909 L 68.5273 210.2448 L 68.2117 209.2957 L 67.9043 208.3440 L 67.6049 207.3898 L 67.3134 206.4331 L 67.0295 205.4741 L 66.7530 204.5129 L 66.4838 203.5497 L 66.2218 202.5845 L 65.9667 201.6175 L 65.7184 200.6487 L 65.4768 199.6782 L 65.2417 198.7061 L 65.0130 197.7324 L 64.7906 196.7573 L 64.5743 195.7809 L 64.3641 194.8031 L 64.1598 193.8240 L 63.9614 192.8438 L 63.7687 191.8624 L 63.5816 190.8800 L 63.4000 189.8964 L 63.2239 188.9119 L 63.0532 187.9265 L 62.8877 186.9402 L 62.7275 185.9529 L 62.5724 184.9649 L 62.4223 183.9761 L 62.2773 182.9866 L 62.1372 181.9963 L 62.0019 181.0053 L 61.8715 180.0138 L 61.7458 179.0216 L 61.6249 178.0288 L 61.5086 177.0354 L 61.3969 176.0416 L 61.2897 175.0472 L 61.1871 174.0523 L 61.0890 173.0570 L 60.9953 172.0613 L 60.9060 171.0652 L 60.8210 170.0687 L 60.7404 169.0718 L 60.6641 168.0746 L 60.5921 167.0770 L 60.5242 166.0792 L 60.4606 165.0811 L 60.4013 164.0827 L 60.3460 163.0841 L 60.2949 162.0853 L 60.2480 161.0863 L 60.2051 160.0871 L 60.1664 159.0877 L 60.1317 158.0882 L 60.1011 157.0885 L 60.0746 156.0888 L 60.0521 155.0889 L 60.0336 154.0889 L 60.0192 153.0889 L 60.0088 152.0888 L 60.0024 151.0887 L 60.0000 150.0886 L 60.0017 149.0885 L 60.0073 148.0883 L 60.0170 147.0883 L 60.0308 146.0882 L 60.0485 145.0883 L 60.0703 144.0884 L 60.0961 143.0886 L 60.1260 142.0889 L 60.1600 141.0893 L 60.1980 140.0899 L 60.2401 139.0907 L 60.2864 138.0916 L 60.3367 137.0928 L 60.3912 136.0941 L 60.4499 135.0957 L 60.5128 134.0976 L 60.5798 133.0997 L 60.6511 132.1021 L 60.7267 131.1049 L 60.8065 130.1079 L 60.8907 129.1113 L 60.9793 128.1151 L 61.0722 127.1193 L 61.1695 126.1240 L 61.2714 125.1290 L 61.3777 124.1346 L 61.4886 123.1406 L 61.6041 122.1472 L 61.7242 121.1543 L 61.8490 120.1620 L 61.9786 119.1703 L 62.1130 118.1792 L 62.2523 117.1888 L 62.3964 116.1992 L 62.5456 115.2102 L 62.6998 114.2220 L 62.8591 113.2347 L 63.0237 112.2482 L 63.1935 111.2626 L 63.3686 110.2779 L 63.5492 109.2942 L 63.7353 108.3116 L 63.9271 107.3300 L 64.1245 106.3495 L 64.3278 105.3703 L 64.5369 104.3923 L 64.7521 103.4156 L 64.9734 102.4402 L 65.2010 101.4664 L 65.4350 100.4940 L 65.6754 99.5232 L 65.9225 98.5541 L 66.1764 97.5867 L 66.4372 96.6212 L 66.7051 95.6576 L 66.9803 94.6961 L 67.2629 93.7367 L 67.5531 92.7796 L 67.8511 91.8249 L 68.1570 90.8727 L 68.4712 89.9232 L 68.7937 88.9765 L 69.1249 88.0328 L 69.4649 87.0923 L 69.8141 86.1551 L 70.1726 85.2214 L 70.5407 84.2915 L 70.9188 83.3656 L 71.3071 82.4439 L 71.7059 81.5268 L 72.1155 80.6144 L 72.5364 79.7071 L 72.9688 78.8053 L 73.4131 77.9093 L 73.8697 77.0195 L 74.3390 76.1363 L 74.8214 75.2603 L 75.3175 74.3918 L 75.8275 73.5315 L 76.3520 72.6800 L 76.8915 71.8378 L 77.4464 71.0058 L 78.0173 70.1846 L 78.6046 69.3752 L 79.2090 68.5783 L 79.8308 67.7950 L 80.4706 67.0263 L 81.1288 66.2734 L 81.8060 65.5375 L 82.5026 64.8198 L 83.2189 64.1219 L 83.9553 63.4452 L 84.7119 62.7912 L 85.4890 62.1616 L 86.2865 61.5582 L 87.1043 60.9826 L 87.9422 60.4367 L 88.7998 59.9222 L 89.6764 59.4408 L 90.5712 58.9942 L 91.4833 58.5840 L 92.4114 58.2115 L 93.3541 57.8780 L 94.3101 57.5843 L 95.2776 57.3312 L 96.2549 57.1191 L 97.2402 56.9481 L 98.2318 56.8180 L 99.2278 56.7286 L 100.2267 56.6789 L 101.2267 56.6682 L 102.2264 56.6954 L 103.2244 56.7591 L 104.2196 56.8580 L 105.2109 56.9906 L 106.1973 57.1555 L 107.1780 57.3511 L 108.1525 57.5758 L 109.1203 57.8282 L 110.0808 58.1068 L 111.0338 58.4101 L 111.9790 58.7369 L 112.9163 59.0857 L 113.8456 59.4553 L 114.7668 59.8447 L 115.6800 60.2526 L 116.5851 60.6780 L 117.4822 61.1200 L 118.3715 61.5776 L 119.2531 62.0499 L 120.1270 62.5362 L 120.9934 63.0357 L 121.8525 63.5478 L 122.7045 64.0716 L 123.5494 64.6068 L 124.3875 65.1525 L 125.2189 65.7084 L 126.0438 66.2740 L 126.8623 66.8486 L 127.6747 67.4320 L 128.4810 68.0237 L 129.2815 68.6232 L 130.0762 69.2303 L 130.8655 69.8447 L 131.6493 70.4658 L 132.4279 71.0936 L 133.2013 71.7277 L 133.9698 72.3677 L 134.7335 73.0135 L 135.4924 73.6649 L 136.2468 74.3215 L 136.9967 74.9833 L 137.7422 75.6499 L 138.4836 76.3212 L 139.2208 76.9970 L 139.9541 77.6772 L 140.6835 78.3615 L 141.4090 79.0498 L 142.1309 79.7420 L 142.8492 80.4379 L 143.5640 81.1374 L 144.2754 81.8404 L 144.9835 82.5468 L 145.6883 83.2563 L 146.3900 83.9690 L 147.0886 84.6846 L 147.7842 85.4032 L 148.4769 86.1246 L 149.1668 86.8487 L 149.8539 87.5754 L 150.5383 88.3047 L 151.2201 89.0365 L 151.8993 89.7706 L 152.5760 90.5070 L 153.2503 91.2457 L 153.9222 91.9865 L 154.5918 92.7294 L 155.2591 93.4744 L 155.9242 94.2213 L 156.5871 94.9701 L 157.2480 95.7208 L 157.9068 96.4733 L 158.5636 97.2275 L 159.2185 97.9834 L 159.8715 98.7409 L 160.5226 99.5001 L 161.1719 100.2608 L 161.8195 101.0230 L 162.4653 101.7866 L 163.1095 102.5516 L 163.7520 103.3181 L 164.3930 104.0858 L 165.0324 104.8548 L 165.6703 105.6251 L 166.3067 106.3966 L 166.9417 107.1693 L 167.5753 107.9432 L 168.2075 108.7181 L 168.8384 109.4941 L 169.4680 110.2712 L 170.0964 111.0493 L 170.7235 111.8284 L 171.3495 112.6084 L 171.9743 113.3894 L 172.5979 114.1712 L 173.2205 114.9539 L 173.8420 115.7375 L 174.4625 116.5219 L 175.0820 117.3071 L 175.7005 118.0930 L 176.3180 118.8797 L 176.9347 119.6671 L 177.5504 120.4552 L 178.1653 121.2440 L 178.7794 122.0334 L 179.3927 122.8235 L 180.0051 123.6141 L 180.6169 124.4053 L 181.2279 125.1971 L 181.8382 125.9895 L 182.4478 126.7823 L 183.0567 127.5757 L 183.6651 128.3695 L 184.2728 129.1638 L 184.8800 129.9585 L 185.4866 130.7537 L 186.0927 131.5493 L 186.6983 132.3452 L 187.3034 133.1415 L 187.9080 133.9382 L 188.5122 134.7352 L 189.1160 135.5325 L 189.7194 136.3301 L 190.3224 137.1280 L 190.9251 137.9262 L 191.5274 138.7245 L 192.1295 139.5232 L 192.7312 140.3220 L 193.3327 141.1210 L 193.9340 141.9202 L 194.5351 142.7196 L 195.1359 143.5191 L 195.7366 144.3188 L 196.3372 145.1185 L 196.9376 145.9184 L 197.5379 146.7183 L 198.1381 147.5183 L 198.7382 148.3183 L 199.3383 149.1184 L 199.9384 149.9185 L 200.5385 150.7186 L 201.1386 151.5187 L 201.7387 152.3188 L 202.3389 153.1188 L 202.9392 153.9187 L 203.5396 154.7186 L 204.1401 155.5184 L 204.7408 156.3180 L 205.3416 157.1176 L 205.9426 157.9170 L 206.5438 158.7162 L 207.1453 159.5153 L 207.7470 160.3142 L 208.3490 161.1128 L 208.9513 161.9113 L 209.5539 162.7095 L 210.1569 163.5074 L 210.7602 164.3051 L 211.3639 165.1024 L 211.9680 165.8995 L 212.5725 166.6962 L 213.1775 167.4926 L 213.7830 168.2887 L 214.3890 169.0843 L 214.9955 169.8796 L 215.6025 170.6744 L 216.2101 171.4688 L 216.8184 172.2627 L 217.4272 173.0562 L 218.0367 173.8491 L 218.6468 174.6416 L 219.2577 175.4335 L 219.8693 176.2248 L 220.4816 177.0156 L 221.0947 177.8058 L 221.7086 178.5953 L 222.3233 179.3842 L 222.9389 180.1724 L 223.5553 180.9600 L 224.1727 181.7468 L 224.7910 182.5329 L 225.4103 183.3183 L 226.0306 184.1028 L 226.6519 184.8866 L 227.2742 185.6695 L 227.8976 186.4515 L 228.5222 187.2326 L 229.1479 188.0129 L 229.7748 188.7921 L 230.4029 189.5704 L 231.0323 190.3477 L 231.6629 191.1240 L 232.2949 191.8991 L 232.9282 192.6732 L 233.5629 193.4461 L 234.1990 194.2179 L 234.8366 194.9884 L 235.4757 195.7577 L 236.1163 196.5257 L 236.7585 197.2924 L 237.4023 198.0578 L 238.0478 198.8217 L 238.6950 199.5842 L 239.3440 200.3452 L 239.9948 201.1046 L 240.6473 201.8625 L 241.3018 202.6188 L 241.9582 203.3733 L 242.6166 204.1262 L 243.2771 204.8772 L 243.9396 205.6265 L 244.6042 206.3738 L 245.2711 207.1191 L 245.9402 207.8625 L 246.6116 208.6037 L 247.2854 209.3428 L 247.9616 210.0797 L 248.6403 210.8143 L 249.3215 211.5466 L 250.0054 212.2763 L 250.6919 213.0036 L 251.3812 213.7283 L 252.0734 214.4502 L 252.7684 215.1694 L 253.4664 215.8856 L 254.1674 216.5989 L 254.8716 217.3091 L 255.5790 218.0161 L 256.2897 218.7198 L 257.0038 219.4200 L 257.7214 220.1167 L 258.4425 220.8097 L 259.1673 221.4988 L 259.8959 222.1840 L 260.6283 222.8650 L 261.3648 223.5417 L 262.1053 224.2140 L 262.8500 224.8816 L 263.5990 225.5443 L 264.3524 226.2020 L 265.1104 226.8545 L 265.8731 227.5015 L 266.6406 228.1427 L 267.4130 228.7780 L 268.1905 229.4071 L 268.9732 230.0297 L 269.7613 230.6454 L 270.5550 231.2540 L 271.3542 231.8552 L 272.1594 232.4485 L 272.9705 233.0336 L 273.7877 233.6101 L 274.6113 234.1775 L 275.4413 234.7354 L 276.2780 235.2833 L 277.1215 235.8207 L 277.9720 236.3469 L 278.8296 236.8614 L 279.6946 237.3636 L 280.5669 237.8527 L 281.4469 238.3279 L 282.3346 238.7886 L 283.2301 239.2339 L 284.1336 239.6628 L 285.0451 240.0743 L 285.9647 240.4676 L 286.8923 240.8414 L 287.8280 241.1945 L 288.7716 241.5259 L 289.7230 241.8342 L 290.6820 242.1179 L 291.6483 242.3758 L 292.6214 242.6064 L 293.6010 242.8081 L 294.5863 242.9794 L 295.5766 243.1188 L 296.5711 243.2247 L 297.5686 243.2957 L 298.5681 243.3305 L 299.5681 243.3277 L 300.5673 243.2861 L 301.5641 243.2049 L 302.5567 243.0832 L 303.5435 242.9206 L 304.5226 242.7170 L 305.4922 242.4722 L 306.4507 242.1868 L 307.3963 241.8614 L 308.3275 241.4968 L 309.2430 241.0942 L 310.1414 240.6550 L 311.0218 240.1806 L 311.8834 239.6728 L 312.7254 239.1331 L 313.5473 238.5635 L 314.3490 237.9656 L 315.1303 237.3413 L 315.8911 236.6922 L 316.6316 236.0200 L 317.3520 235.3263 L 318.0526 234.6126 L 318.7337 233.8803 L 319.3959 233.1308 L 320.0394 232.3652 L 320.6649 231.5849 L 321.2727 230.7907 L 321.8635 229.9837 L 322.4378 229.1649 L 322.9959 228.3350 L 323.5385 227.4949 L 324.0661 226.6452 L 324.5790 225.7867 L 325.0779 224.9198 L 325.5631 224.0453 L 326.0350 223.1636 L 326.4942 222.2751 L 326.9410 221.3803 L 327.3758 220.4797 L 327.7990 219.5735 L 328.2110 218.6621 L 328.6120 217.7459 L 329.0024 216.8251 L 329.3825 215.9001 L 329.7527 214.9710 L 330.1131 214.0381 L 330.4642 213.1016 L 330.8061 212.1617 L 331.1390 211.2186 L 331.4633 210.2725 L 331.7792 209.3236 L 332.0868 208.3720 L 332.3864 207.4178 L 332.6782 206.4612 L 332.9623 205.5022 L 333.2390 204.5411 L 333.5084 203.5780 L 333.7706 202.6128 L 334.0259 201.6459 L 334.2744 200.6771 L 334.5162 199.7066 L 334.7515 198.7346 L 334.9804 197.7610 L 335.2030 196.7859 L 335.4194 195.8095 L 335.6298 194.8318 L 335.8342 193.8528 L 336.0329 192.8726 L 336.2258 191.8912 L 336.4130 190.9088 L 336.5947 189.9253 L 336.7710 188.9408 L 336.9419 187.9554 L 337.1075 186.9691 L 337.2679 185.9819 L 337.4232 184.9939 L 337.5734 184.0051 L 337.7185 183.0156 L 337.8588 182.0253 L 337.9942 181.0344 L 338.1247 180.0428 L 338.2505 179.0507 L 338.3716 178.0579 L 338.4881 177.0646 L 338.5999 176.0707 L 338.7072 175.0763 L 338.8099 174.0815 L 338.9082 173.0862 L 339.0020 172.0905 L 339.0915 171.0944 L 339.1765 170.0979 L 339.2573 169.1010 L 339.3337 168.1038 L 339.4059 167.1063 L 339.4738 166.1085 L 339.5375 165.1104 L 339.5971 164.1120 L 339.6524 163.1134 L 339.7036 162.1146 L 339.7507 161.1156 L 339.7937 160.1164 L 339.8325 159.1170 L 339.8673 158.1175 L 339.8980 157.1178 L 339.9247 156.1181 L 339.9473 155.1182 L 339.9659 154.1182 L 339.9805 153.1182 L 339.9910 152.1181 L 339.9975 151.1180" 
        fill="none" 
        stroke="#3F51B5" 
        stroke-width="1.0"
        stroke-linecap="round"
        stroke-linejoin="round"/>
</svg>