<?xml version="1.0" encoding="UTF-8"?>
<svg xmlns="http://www.w3.org/2000/svg" 
     width="400.0" height="400.0" 
     viewBox="0 0 400.0 400.0">
  <rect width="100%" height="100%" fill="#ffffff"/>
  <path d="M 200.0210 321.3691 L 200.4414 320.6410 L 200.8617 319.9129 L 201.2821 319.1849 L 201.7025 318.4568 L 202.1228 317.7287 L 202.5432 317.0006 L 202.9635 316.2725 L 203.3839 315.5445 L 203.8042 314.8164 L 204.2246 314.0883 L 204.6450 313.3602 L 205.0653 312.6321 L 205.4857 311.9041 L 205.9060 311.1760 L 206.3264 310.4479 L 206.7467 309.7198 L 207.1671 308.9917 L 207.5875 308.2637 L 208.0078 307.5356 L 208.4282 306.8075 L 208.8485 306.0794 L 209.2689 305.3513 L 209.6892 304.6232 L 210.1096 303.8952 L 210.5300 303.1671 L 210.9503 302.4390 L 211.3707 301.7109 L 211.7910 300.9828 L 212.2114 300.2548 L 212.6317 299.5267 L 213.0521 298.7986 L 213.4725 298.0705 L 213.8928 297.3424 L 214.3132 296.6144 L 214.7335 295.8863 L 215.1539 295.1582 L 215.5742 294.4301 L 215.9946 293.7020 L 216.4150 292.9740 L 216.8353 292.2459 L 217.2557 291.5178 L 217.6760 290.7897 L 218.0964 290.0616 L 218.5167 289.3336 L 218.9371 288.6055 L 219.3575 287.8774 L 219.7778 287.1493 L 220.1982 286.4212 L 220.6185 285.6932 L 221.0389 284.9651 L 221.4592 284.2370 L 221.8796 283.5089 L 222.3000 282.7808 L 222.7203 282.0528 L 223.1407 281.3247 L 223.5610 280.5966 L 223.9814 279.8685 L 224.4017 279.1404 L 224.8221 278.4124 L 225.2425 277.6843 L 225.6628 276.9562 L 226.0832 276.2281 L 226.5035 275.5000 L 226.9239 274.7720 L 227.3442 274.0439 L 227.7646 273.3158 L 228.1850 272.5877 L 228.6053 271.8596 L 229.0257 271.1316 L 229.4460 270.4035 L 229.8664 269.6754 L 230.2867 268.9473 L 230.7071 268.2192 L 231.1275 267.4912 L 231.5478 266.7631 L 231.9682 266.0350 L 232.3885 265.3069 L 232.8089 264.5788 L 233.2292 263.8508 L 233.6496 263.1227 L 234.0700 262.3946 L 234.4903 261.6665 L 234.9107 260.9384 L 235.3310 260.2104 L 235.7514 259.4823 L 236.1717 258.7542 L 236.5921 258.0261 L 237.0125 257.2980 L 237.4328 256.5700 L 237.8532 255.8419 L 238.2735 255.1138 L 238.6939 254.3857 L 239.1142 253.6576 L 239.5346 252.9296 L 239.9550 252.2015 L 240.3753 251.4734 L 240.7957 250.7453 L 241.2160 250.0172 L 241.6364 249.2892 L 242.0568 248.5611 L 242.4771 247.8330 L 242.8975 247.1049 L 243.3178 246.3768 L 243.7382 245.6488 L 244.1585 244.9207 L 244.5789 244.1926 L 244.9993 243.4645 L 245.4196 242.7364 L 245.8400 242.0084 L 246.2603 241.2803 L 246.6807 240.5522 L 247.1010 239.8241 L 247.5214 239.0960 L 247.9418 238.3680 L 248.3621 237.6399 L 248.7825 236.9118 L 249.2028 236.1837 L 249.6232 235.4556 L 250.0435 234.7276 L 250.4639 233.9995 L 250.8843 233.2714 L 251.3046 232.5433 L 251.7250 231.8152 L 252.1453 231.0872 L 252.5657 230.3591 L 252.9860 229.6310 L 253.4064 228.9029 L 253.8268 228.1748 L 254.2471 227.4467 L 254.6675 226.7187 L 255.0878 225.9906 L 255.5082 225.2625 L 255.9285 224.5344 L 256.3489 223.8063 L 256.7693 223.0783 L 257.1896 222.3502 L 257.6100 221.6221 L 258.0303 220.8940 L 258.4507 220.1659 L 258.8710 219.4379 L 259.2914 218.7098 L 259.7118 217.9817 L 260.1321 217.2536 L 260.5525 216.5255 L 260.9728 215.7975 L 261.3932 215.0694 L 261.8135 214.3413 L 262.2339 213.6132 L 262.6543 212.8851 L 263.0746 212.1571 L 263.4950 211.4290 L 263.9153 210.7009 L 264.3357 209.9728 L 264.7560 209.2447 L 265.1764 208.5167 L 265.5968 207.7886 L 266.0171 207.0605 L 266.4375 206.3324 L 266.8578 205.6043 L 267.2782 204.8763 L 267.6985 204.1482 L 268.1189 203.4201 L 268.5393 202.6920 L 268.9596 201.9639 L 269.3800 201.2359 L 269.8003 200.5078 L 270.2207 199.7797 L 270.6410 199.0516 L 271.0614 198.3235 L 271.4818 197.5955 L 271.9021 196.8674 L 272.3225 196.1393 L 272.7428 195.4112 L 273.1632 194.6831 L 273.5835 193.9551 L 274.0039 193.2270 L 274.4243 192.4989 L 274.8446 191.7708 L 275.2650 191.0427 L 275.6853 190.3147 L 276.1057 189.5866 L 276.5260 188.8585 L 276.9464 188.1304 L 277.3668 187.4023 L 277.7871 186.6743 L 278.2075 185.9462 L 278.6278 185.2181 L 279.0482 184.4900 L 279.4685 183.7619 L 279.8889 183.0339 L 280.3093 182.3058 L 280.7296 181.5777 L 281.1500 180.8496 L 281.5703 180.1215 L 281.9907 179.3935 L 282.4111 178.6654 L 282.8314 177.9373 L 283.2518 177.2092 L 283.6721 176.4811 L 284.0925 175.7531 L 284.5128 175.0250 L 284.9332 174.2969 L 285.3536 173.5688 L 285.7739 172.8407 L 286.1943 172.1127 L 286.6146 171.3846 L 287.0350 170.6565 L 287.4553 169.9284 L 287.8757 169.2003 L 288.2961 168.4723 L 288.7164 167.7442 L 289.1368 167.0161 L 289.5571 166.2880 L 289.9775 165.5599 L 290.3978 164.8319 L 290.8182 164.1038 L 291.2386 163.3757 L 291.6589 162.6476 L 292.0793 161.9195 L 292.4996 161.1915 L 292.9200 160.4634 L 293.3403 159.7353 L 293.7607 159.0072 L 294.1811 158.2791 L 294.6014 157.5511 L 295.0218 156.8230 L 295.4421 156.0949 L 295.8625 155.3668 L 296.2828 154.6387 L 296.7032 153.9107 L 297.1236 153.1826 L 297.5439 152.4545 L 297.9643 151.7264 L 298.3846 150.9983 L 298.8050 150.2703 L 299.2253 149.5422 L 299.6457 148.8141 L 300.0661 148.0860 L 300.4864 147.3579 L 300.9068 146.6298 L 301.3271 145.9018 L 301.7475 145.1737 L 302.1678 144.4456 L 302.5882 143.7175 L 303.0086 142.9894 L 303.4289 142.2614 L 303.8493 141.5333 L 304.2696 140.8052 L 304.6900 140.0771 L 305.1103 139.3490 L 305.5307 138.6210 L 305.9511 137.8929 L 306.3714 137.1648 L 306.7918 136.4367 L 307.2121 135.7086 L 307.6325 134.9806 L 308.0528 134.2525 L 308.4732 133.5244 L 308.8936 132.7963 L 309.3139 132.0682 L 309.7343 131.3402 L 310.1546 130.6121 L 310.5750 129.8840 L 310.9953 129.1559 L 311.4157 128.4278 L 311.8361 127.6998 L 312.2564 126.9717 L 312.6768 126.2436 L 313.0971 125.5155 L 313.5175 124.7874 L 313.9378 124.0594 L 314.3582 123.3313 L 314.7786 122.6032 L 315.1989 121.8751 L 315.6193 121.1470 L 316.0396 120.4190 L 316.4600 119.6909 L 316.8803 118.9628 L 317.3007 118.2347 L 317.7211 117.5066 L 318.1414 116.7786 L 318.5618 116.0505 L 318.9821 115.3224 L 319.4025 114.5943 L 319.8228 113.8662 L 320.2432 113.1382 L 320.6636 112.4101 L 321.0839 111.6820 L 321.5043 110.9539 L 321.9246 110.2258 L 322.3450 109.4978 L 322.7654 108.7697 L 323.1857 108.0416 L 323.6061 107.3135 L 324.0264 106.5854 L 324.4468 105.8574 L 324.8671 105.1293 L 325.2875 104.4012 L 325.7079 103.6731 L 326.1282 102.9450 L 326.5486 102.2170 L 326.9689 101.4889 L 327.3893 100.7608 L 327.8096 100.0327 L 328.2300 99.3046 L 328.6504 98.5766 L 329.0707 97.8485 L 329.4911 97.1204 L 329.9114 96.3923 L 330.3318 95.6642 L 330.7521 94.9362 L 331.1725 94.2081 L 331.5929 93.4800 L 332.0132 92.7519 L 332.4336 92.0238 L 332.8539 91.2958 L 333.2743 90.5677 L 333.6946 89.8396 L 334.1150 89.1115 L 334.5354 88.3834 L 334.9557 87.6554 L 335.3761 86.9273 L 335.7964 86.1992 L 336.2168 85.4711 L 336.6371 84.7430 L 337.0575 84.0150 L 337.4779 83.2869 L 337.8982 82.5588 L 338.3186 81.8307 L 338.7389 81.1026 L 339.1593 80.3746 L 339.5796 79.6465 L 340.0000 78.9184 L 339.6217 78.6309 L 338.7810 78.6309 L 337.9403 78.6309 L 337.0995 78.6309 L 336.2588 78.6309 L 335.4181 78.6309 L 334.5774 78.6309 L 333.7367 78.6309 L 332.8960 78.6309 L 332.0553 78.6309 L 331.2145 78.6309 L 330.3738 78.6309 L 329.5331 78.6309 L 328.6924 78.6309 L 327.8517 78.6309 L 327.0110 78.6309 L 326.1703 78.6309 L 325.3295 78.6309 L 324.4888 78.6309 L 323.6481 78.6309 L 322.8074 78.6309 L 321.9667 78.6309 L 321.1260 78.6309 L 320.2853 78.6309 L 319.4445 78.6309 L 318.6038 78.6309 L 317.7631 78.6309 L 316.9224 78.6309 L 316.0817 78.6309 L 315.2410 78.6309 L 314.4002 78.6309 L 313.5595 78.6309 L 312.7188 78.6309 L 311.8781 78.6309 L 311.0374 78.6309 L 310.1967 78.6309 L 309.3560 78.6309 L 308.5152 78.6309 L 307.6745 78.6309 L 306.8338 78.6309 L 305.9931 78.6309 L 305.1524 78.6309 L 304.3117 78.6309 L 303.4710 78.6309 L 302.6302 78.6309 L 301.7895 78.6309 L 300.9488 78.6309 L 300.1081 78.6309 L 299.2674 78.6309 L 298.4267 78.6309 L 297.5860 78.6309 L 296.7452 78.6309 L 295.9045 78.6309 L 295.0638 78.6309 L 294.2231 78.6309 L 293.3824 78.6309 L 292.5417 78.6309 L 291.7010 78.6309 L 290.8602 78.6309 L 290.0195 78.6309 L 289.1788 78.6309 L 288.3381 78.6309 L 287.4974 78.6309 L 286.6567 78.6309 L 285.8160 78.6309 L 284.9752 78.6309 L 284.1345 78.6309 L 283.2938 78.6309 L 282.4531 78.6309 L 281.6124 78.6309 L 280.7717 78.6309 L 279.9310 78.6309 L 279.0902 78.6309 L 278.2495 78.6309 L 277.4088 78.6309 L 276.5681 78.6309 L 275.7274 78.6309 L 274.8867 78.6309 L 274.0459 78.6309 L 273.2052 78.6309 L 272.3645 78.6309 L 271.5238 78.6309 L 270.6831 78.6309 L 269.8424 78.6309 L 269.0017 78.6309 L 268.1609 78.6309 L 267.3202 78.6309 L 266.4795 78.6309 L 265.6388 78.6309 L 264.7981 78.6309 L 263.9574 78.6309 L 263.1167 78.6309 L 262.2759 78.6309 L 261.4352 78.6309 L 260.5945 78.6309 L 259.7538 78.6309 L 258.9131 78.6309 L 258.0724 78.6309 L 257.2317 78.6309 L 256.3909 78.6309 L 255.5502 78.6309 L 254.7095 78.6309 L 253.8688 78.6309 L 253.0281 78.6309 L 252.1874 78.6309 L 251.3467 78.6309 L 250.5059 78.6309 L 249.6652 78.6309 L 248.8245 78.6309 L 247.9838 78.6309 L 247.1431 78.6309 L 246.3024 78.6309 L 245.4617 78.6309 L 244.6209 78.6309 L 243.7802 78.6309 L 242.9395 78.6309 L 242.0988 78.6309 L 241.2581 78.6309 L 240.4174 78.6309 L 239.5767 78.6309 L 238.7359 78.6309 L 237.8952 78.6309 L 237.0545 78.6309 L 236.2138 78.6309 L 235.3731 78.6309 L 234.5324 78.6309 L 233.6916 78.6309 L 232.8509 78.6309 L 232.0102 78.6309 L 231.1695 78.6309 L 230.3288 78.6309 L 229.4881 78.6309 L 228.6474 78.6309 L 227.8066 78.6309 L 226.9659 78.6309 L 226.1252 78.6309 L 225.2845 78.6309 L 224.4438 78.6309 L 223.6031 78.6309 L 222.7624 78.6309 L 221.9216 78.6309 L 221.0809 78.6309 L 220.2402 78.6309 L 219.3995 78.6309 L 218.5588 78.6309 L 217.7181 78.6309 L 216.8774 78.6309 L 216.0366 78.6309 L 215.1959 78.6309 L 214.3552 78.6309 L 213.5145 78.6309 L 212.6738 78.6309 L 211.8331 78.6309 L 210.9924 78.6309 L 210.1516 78.6309 L 209.3109 78.6309 L 208.4702 78.6309 L 207.6295 78.6309 L 206.7888 78.6309 L 205.9481 78.6309 L 205.1074 78.6309 L 204.2666 78.6309 L 203.4259 78.6309 L 202.5852 78.6309 L 201.7445 78.6309 L 200.9038 78.6309 L 200.0631 78.6309 L 199.2224 78.6309 L 198.3816 78.6309 L 197.5409 78.6309 L 196.7002 78.6309 L 195.8595 78.6309 L 195.0188 78.6309 L 194.1781 78.6309 L 193.3373 78.6309 L 192.4966 78.6309 L 191.6559 78.6309 L 190.8152 78.6309 L 189.9745 78.6309 L 189.1338 78.6309 L 188.2931 78.6309 L 187.4523 78.6309 L 186.6116 78.6309 L 185.7709 78.6309 L 184.9302 78.6309 L 184.0895 78.6309 L 183.2488 78.6309 L 182.4081 78.6309 L 181.5673 78.6309 L 180.7266 78.6309 L 179.8859 78.6309 L 179.0452 78.6309 L 178.2045 78.6309 L 177.3638 78.6309 L 176.5231 78.6309 L 175.6823 78.6309 L 174.8416 78.6309 L 174.0009 78.6309 L 173.1602 78.6309 L 172.3195 78.6309 L 171.4788 78.6309 L 170.6381 78.6309 L 169.7973 78.6309 L 168.9566 78.6309 L 168.1159 78.6309 L 167.2752 78.6309 L 166.4345 78.6309 L 165.5938 78.6309 L 164.7531 78.6309 L 163.9123 78.6309 L 163.0716 78.6309 L 162.2309 78.6309 L 161.3902 78.6309 L 160.5495 78.6309 L 159.7088 78.6309 L 158.8681 78.6309 L 158.0273 78.6309 L 157.1866 78.6309 L 156.3459 78.6309 L 155.5052 78.6309 L 154.6645 78.6309 L 153.8238 78.6309 L 152.9830 78.6309 L 152.1423 78.6309 L 151.3016 78.6309 L 150.4609 78.6309 L 149.6202 78.6309 L 148.7795 78.6309 L 147.9388 78.6309 L 147.0980 78.6309 L 146.2573 78.6309 L 145.4166 78.6309 L 144.5759 78.6309 L 143.7352 78.6309 L 142.8945 78.6309 L 142.0538 78.6309 L 141.2130 78.6309 L 140.3723 78.6309 L 139.5316 78.6309 L 138.6909 78.6309 L 137.8502 78.6309 L 137.0095 78.6309 L 136.1688 78.6309 L 135.3280 78.6309 L 134.4873 78.6309 L 133.6466 78.6309 L 132.8059 78.6309 L 131.9652 78.6309 L 131.1245 78.6309 L 130.2838 78.6309 L 129.4430 78.6309 L 128.6023 78.6309 L 127.7616 78.6309 L 126.9209 78.6309 L 126.0802 78.6309 L 125.2395 78.6309 L 124.3988 78.6309 L 123.5580 78.6309 L 122.7173 78.6309 L 121.8766 78.6309 L 121.0359 78.6309 L 120.1952 78.6309 L 119.3545 78.6309 L 118.5138 78.6309 L 117.6730 78.6309 L 116.8323 78.6309 L 115.9916 78.6309 L 115.1509 78.6309 L 114.3102 78.6309 L 113.4695 78.6309 L 112.6287 78.6309 L 111.7880 78.6309 L 110.9473 78.6309 L 110.1066 78.6309 L 109.2659 78.6309 L 108.4252 78.6309 L 107.5845 78.6309 L 106.7437 78.6309 L 105.9030 78.6309 L 105.0623 78.6309 L 104.2216 78.6309 L 103.3809 78.6309 L 102.5402 78.6309 L 101.6995 78.6309 L 100.8587 78.6309 L 100.0180 78.6309 L 99.1773 78.6309 L 98.3366 78.6309 L 97.4959 78.6309 L 96.6552 78.6309 L 95.8145 78.6309 L 94.9737 78.6309 L 94.1330 78.6309 L 93.2923 78.6309 L 92.4516 78.6309 L 91.6109 78.6309 L 90.7702 78.6309 L 89.9295 78.6309 L 89.0887 78.6309 L 88.2480 78.6309 L 87.4073 78.6309 L 86.5666 78.6309 L 85.7259 78.6309 L 84.8852 78.6309 L 84.0445 78.6309 L 83.2037 78.6309 L 82.3630 78.6309 L 81.5223 78.6309 L 80.6816 78.6309 L 79.8409 78.6309 L 79.0002 78.6309 L 78.1595 78.6309 L 77.3187 78.6309 L 76.4780 78.6309 L 75.6373 78.6309 L 74.7966 78.6309 L 73.9559 78.6309 L 73.1152 78.6309 L 72.2744 78.6309 L 71.4337 78.6309 L 70.5930 78.6309 L 69.7523 78.6309 L 68.9116 78.6309 L 68.0709 78.6309 L 67.2302 78.6309 L 66.3894 78.6309 L 65.5487 78.6309 L 64.7080 78.6309 L 63.8673 78.6309 L 63.0266 78.6309 L 62.1859 78.6309 L 61.3452 78.6309 L 60.5044 78.6309 L 60.0000 78.8456 L 60.4204 79.5737 L 60.8407 80.3017 L 61.2611 81.0298 L 61.6814 81.7579 L 62.1018 82.4860 L 62.5221 83.2141 L 62.9425 83.9421 L 63.3629 84.6702 L 63.7832 85.3983 L 64.2036 86.1264 L 64.6239 86.8545 L 65.0443 87.5825 L 65.4646 88.3106 L 65.8850 89.0387 L 66.3054 89.7668 L 66.7257 90.4949 L 67.1461 91.2229 L 67.5664 91.9510 L 67.9868 92.6791 L 68.4071 93.4072 L 68.8275 94.1353 L 69.2479 94.8633 L 69.6682 95.5914 L 70.0886 96.3195 L 70.5089 97.0476 L 70.9293 97.7757 L 71.3496 98.5037 L 71.7700 99.2318 L 72.1904 99.9599 L 72.6107 100.6880 L 73.0311 101.4161 L 73.4514 102.1441 L 73.8718 102.8722 L 74.2921 103.6003 L 74.7125 104.3284 L 75.1329 105.0565 L 75.5532 105.7845 L 75.9736 106.5126 L 76.3939 107.2407 L 76.8143 107.9688 L 77.2346 108.6969 L 77.6550 109.4249 L 78.0754 110.1530 L 78.4957 110.8811 L 78.9161 111.6092 L 79.3364 112.3373 L 79.7568 113.0653 L 80.1772 113.7934 L 80.5975 114.5215 L 81.0179 115.2496 L 81.4382 115.9777 L 81.8586 116.7057 L 82.2789 117.4338 L 82.6993 118.1619 L 83.1197 118.8900 L 83.5400 119.6181 L 83.9604 120.3461 L 84.3807 121.0742 L 84.8011 121.8023 L 85.2214 122.5304 L 85.6418 123.2585 L 86.0622 123.9865 L 86.4825 124.7146 L 86.9029 125.4427 L 87.3232 126.1708 L 87.7436 126.8989 L 88.1639 127.6269 L 88.5843 128.3550 L 89.0047 129.0831 L 89.4250 129.8112 L 89.8454 130.5393 L 90.2657 131.2673 L 90.6861 131.9954 L 91.1064 132.7235 L 91.5268 133.4516 L 91.9472 134.1797 L 92.3675 134.9077 L 92.7879 135.6358 L 93.2082 136.3639 L 93.6286 137.0920 L 94.0489 137.8201 L 94.4693 138.5481 L 94.8897 139.2762 L 95.3100 140.0043 L 95.7304 140.7324 L 96.1507 141.4605 L 96.5711 142.1885 L 96.9914 142.9166 L 97.4118 143.6447 L 97.8322 144.3728 L 98.2525 145.1009 L 98.6729 145.8289 L 99.0932 146.5570 L 99.5136 147.2851 L 99.9339 148.0132 L 100.3543 148.7413 L 100.7747 149.4693 L 101.1950 150.1974 L 101.6154 150.9255 L 102.0357 151.6536 L 102.4561 152.3817 L 102.8764 153.1097 L 103.2968 153.8378 L 103.7172 154.5659 L 104.1375 155.2940 L 104.5579 156.0221 L 104.9782 156.7502 L 105.3986 157.4782 L 105.8189 158.2063 L 106.2393 158.9344 L 106.6597 159.6625 L 107.0800 160.3906 L 107.5004 161.1186 L 107.9207 161.8467 L 108.3411 162.5748 L 108.7614 163.3029 L 109.1818 164.0310 L 109.6022 164.7590 L 110.0225 165.4871 L 110.4429 166.2152 L 110.8632 166.9433 L 111.2836 167.6714 L 111.7039 168.3994 L 112.1243 169.1275 L 112.5447 169.8556 L 112.9650 170.5837 L 113.3854 171.3118 L 113.8057 172.0398 L 114.2261 172.7679 L 114.6464 173.4960 L 115.0668 174.2241 L 115.4872 174.9522 L 115.9075 175.6802 L 116.3279 176.4083 L 116.7482 177.1364 L 117.1686 177.8645 L 117.5889 178.5926 L 118.0093 179.3206 L 118.4297 180.0487 L 118.8500 180.7768 L 119.2704 181.5049 L 119.6907 182.2330 L 120.1111 182.9610 L 120.5315 183.6891 L 120.9518 184.4172 L 121.3722 185.1453 L 121.7925 185.8734 L 122.2129 186.6014 L 122.6332 187.3295 L 123.0536 188.0576 L 123.4740 188.7857 L 123.8943 189.5138 L 124.3147 190.2418 L 124.7350 190.9699 L 125.1554 191.6980 L 125.5757 192.4261 L 125.9961 193.1542 L 126.4165 193.8822 L 126.8368 194.6103 L 127.2572 195.3384 L 127.6775 196.0665 L 128.0979 196.7946 L 128.5182 197.5226 L 128.9386 198.2507 L 129.3590 198.9788 L 129.7793 199.7069 L 130.1997 200.4350 L 130.6200 201.1630 L 131.0404 201.8911 L 131.4607 202.6192 L 131.8811 203.3473 L 132.3015 204.0754 L 132.7218 204.8034 L 133.1422 205.5315 L 133.5625 206.2596 L 133.9829 206.9877 L 134.4032 207.7158 L 134.8236 208.4438 L 135.2440 209.1719 L 135.6643 209.9000 L 136.0847 210.6281 L 136.5050 211.3562 L 136.9254 212.0842 L 137.3457 212.8123 L 137.7661 213.5404 L 138.1865 214.2685 L 138.6068 214.9966 L 139.0272 215.7246 L 139.4475 216.4527 L 139.8679 217.1808 L 140.2882 217.9089 L 140.7086 218.6370 L 141.1290 219.3650 L 141.5493 220.0931 L 141.9697 220.8212 L 142.3900 221.5493 L 142.8104 222.2774 L 143.2307 223.0054 L 143.6511 223.7335 L 144.0715 224.4616 L 144.4918 225.1897 L 144.9122 225.9178 L 145.3325 226.6458 L 145.7529 227.3739 L 146.1732 228.1020 L 146.5936 228.8301 L 147.0140 229.5582 L 147.4343 230.2862 L 147.8547 231.0143 L 148.2750 231.7424 L 148.6954 232.4705 L 149.1157 233.1986 L 149.5361 233.9267 L 149.9565 234.6547 L 150.3768 235.3828 L 150.7972 236.1109 L 151.2175 236.8390 L 151.6379 237.5671 L 152.0582 238.2951 L 152.4786 239.0232 L 152.8990 239.7513 L 153.3193 240.4794 L 153.7397 241.2075 L 154.1600 241.9355 L 154.5804 242.6636 L 155.0007 243.3917 L 155.4211 244.1198 L 155.8415 244.8479 L 156.2618 245.5759 L 156.6822 246.3040 L 157.1025 247.0321 L 157.5229 247.7602 L 157.9432 248.4883 L 158.3636 249.2163 L 158.7840 249.9444 L 159.2043 250.6725 L 159.6247 251.4006 L 160.0450 252.1287 L 160.4654 252.8567 L 160.8858 253.5848 L 161.3061 254.3129 L 161.7265 255.0410 L 162.1468 255.7691 L 162.5672 256.4971 L 162.9875 257.2252 L 163.4079 257.9533 L 163.8283 258.6814 L 164.2486 259.4095 L 164.6690 260.1375 L 165.0893 260.8656 L 165.5097 261.5937 L 165.9300 262.3218 L 166.3504 263.0499 L 166.7708 263.7779 L 167.1911 264.5060 L 167.6115 265.2341 L 168.0318 265.9622 L 168.4522 266.6903 L 168.8725 267.4183 L 169.2929 268.1464 L 169.7133 268.8745 L 170.1336 269.6026 L 170.5540 270.3307 L 170.9743 271.0587 L 171.3947 271.7868 L 171.8150 272.5149 L 172.2354 273.2430 L 172.6558 273.9711 L 173.0761 274.6991 L 173.4965 275.4272 L 173.9168 276.1553 L 174.3372 276.8834 L 174.7575 277.6115 L 175.1779 278.3395 L 175.5983 279.0676 L 176.0186 279.7957 L 176.4390 280.5238 L 176.8593 281.2519 L 177.2797 281.9799 L 177.7000 282.7080 L 178.1204 283.4361 L 178.5408 284.1642 L 178.9611 284.8923 L 179.3815 285.6203 L 179.8018 286.3484 L 180.2222 287.0765 L 180.6425 287.8046 L 181.0629 288.5327 L 181.4833 289.2607 L 181.9036 289.9888 L 182.3240 290.7169 L 182.7443 291.4450 L 183.1647 292.1731 L 183.5850 292.9011 L 184.0054 293.6292 L 184.4258 294.3573 L 184.8461 295.0854 L 185.2665 295.8135 L 185.6868 296.5415 L 186.1072 297.2696 L 186.5275 297.9977 L 186.9479 298.7258 L 187.3683 299.4539 L 187.7886 300.1819 L 188.2090 300.9100 L 188.6293 301.6381 L 189.0497 302.3662 L 189.4700 303.0943 L 189.8904 303.8223 L 190.3108 304.5504 L 190.7311 305.2785 L 191.1515 306.0066 L 191.5718 306.7347 L 191.9922 307.4627 L 192.4125 308.1908 L 192.8329 308.9189 L 193.2533 309.6470 L 193.6736 310.3751 L 194.0940 311.1032 L 194.5143 311.8312 L 194.9347 312.5593 L 195.3550 313.2874 L 195.7754 314.0155 L 196.1958 314.7436 L 196.6161 315.4716 L 197.0365 316.1997 L 197.4568 316.9278 L 197.8772 317.6559 L 198.2975 318.3840 L 198.7179 319.1120 L 199.1383 319.8401 L 199.5586 320.5682" 
        fill="none" 
        stroke="#FF5722" 
        stroke-width="1.5"
        stroke-linecap="round"
        stroke-linejoin="round"/>
</svg>