<?xml version="1.0" encoding="UTF-8"?>
<svg xmlns="http://www.w3.org/2000/svg" 
     width="400.0" height="400.0" 
     viewBox="0 0 400.0 400.0">
  <rect width="100%" height="100%" fill="#ffffff"/>
  <path d="M 333.4720 200.0000 L 333.4384 199.3839 L 333.3389 198.7750 L 333.1776 198.1794 L 332.9599 197.6020 L 332.6924 197.0458 L 332.3816 196.5127 L 332.0335 196.0030 L 331.6537 195.5165 L 331.2468 195.0523 L 330.8168 194.6095 L 330.3671 194.1868 L 329.9003 193.7829 L 329.4187 193.3967 L 328.9245 193.0270 L 328.4190 192.6726 L 327.9037 192.3327 L 327.3798 192.0063 L 326.8482 191.6926 L 326.3097 191.3908 L 325.7651 191.1002 L 325.2150 190.8202 L 324.6599 190.5501 L 324.1002 190.2896 L 323.5365 190.0380 L 322.9691 189.7950 L 322.3982 189.5601 L 321.8242 189.3330 L 321.2473 189.1133 L 320.6678 188.9007 L 320.0858 188.6948 L 319.5016 188.4955 L 318.9153 188.3025 L 318.3270 188.1155 L 317.7369 187.9343 L 317.1451 187.7587 L 316.5517 187.5884 L 315.9569 187.4235 L 315.3606 187.2635 L 314.7631 187.1085 L 314.1644 186.9582 L 313.5645 186.8125 L 312.9636 186.6712 L 312.3617 186.5344 L 311.7588 186.4017 L 311.1550 186.2731 L 310.5504 186.1485 L 309.9450 186.0279 L 309.3389 185.9110 L 308.7321 185.7978 L 308.1246 185.6883 L 307.5164 185.5823 L 306.9077 185.4797 L 306.2984 185.3805 L 305.6886 185.2846 L 305.0783 185.1920 L 304.4675 185.1026 L 303.8563 185.0162 L 303.2446 184.9329 L 302.6326 184.8526 L 302.0201 184.7752 L 301.4074 184.7007 L 300.7942 184.6290 L 300.1808 184.5601 L 299.5670 184.4939 L 298.9530 184.4304 L 298.3387 184.3696 L 297.7242 184.3113 L 297.1094 184.2556 L 296.4944 184.2024 L 295.8792 184.1517 L 295.2638 184.1034 L 294.6482 184.0575 L 294.0324 184.0140 L 293.4165 183.9728 L 292.8004 183.9339 L 292.1842 183.8973 L 291.5678 183.8629 L 290.9514 183.8307 L 290.3348 183.8007 L 289.7181 183.7729 L 289.1013 183.7471 L 288.4845 183.7235 L 287.8676 183.7020 L 287.2506 183.6825 L 286.6335 183.6650 L 286.0164 183.6495 L 285.3993 183.6360 L 284.7821 183.6245 L 284.1648 183.6149 L 283.5476 183.6072 L 282.9303 183.6014 L 282.3130 183.5975 L 281.6957 183.5954 L 281.0784 183.5952 L 280.4611 183.5968 L 279.8438 183.6002 L 279.2265 183.6054 L 278.6093 183.6123 L 277.9920 183.6210 L 277.3748 183.6314 L 276.7576 183.6435 L 276.1405 183.6574 L 275.5234 183.6729 L 274.9063 183.6901 L 274.2893 183.7090 L 273.6723 183.7295 L 273.0554 183.7516 L 272.4386 183.7753 L 271.8218 183.8007 L 271.2051 183.8276 L 270.5884 183.8562 L 269.9719 183.8862 L 269.3554 183.9179 L 268.7390 183.9511 L 268.1226 183.9858 L 267.5064 184.0220 L 266.8903 184.0598 L 266.2742 184.0990 L 265.6583 184.1398 L 265.0424 184.1820 L 264.4266 184.2257 L 263.8110 184.2708 L 263.1954 184.3174 L 262.5800 184.3654 L 261.9647 184.4149 L 261.3495 184.4658 L 260.7344 184.5181 L 260.1194 184.5718 L 259.5046 184.6269 L 258.8899 184.6833 L 258.2753 184.7412 L 257.6609 184.8004 L 257.0465 184.8610 L 256.4323 184.9230 L 255.8183 184.9862 L 255.2044 185.0509 L 254.5906 185.1168 L 253.9770 185.1841 L 253.3635 185.2527 L 252.7502 185.3226 L 252.1370 185.3939 L 251.5240 185.4664 L 250.9111 185.5402 L 250.2984 185.6153 L 249.6858 185.6916 L 249.0734 185.7693 L 248.4612 185.8482 L 247.8491 185.9284 L 247.2372 186.0098 L 246.6255 186.0925 L 246.0139 186.1764 L 245.4025 186.2615 L 244.7912 186.3479 L 244.1802 186.4355 L 243.5693 186.5243 L 242.9586 186.6144 L 242.3481 186.7056 L 241.7378 186.7981 L 241.1276 186.8917 L 240.5176 186.9866 L 239.9078 187.0827 L 239.2982 187.1799 L 238.6888 187.2783 L 238.0796 187.3779 L 237.4706 187.4787 L 236.8618 187.5806 L 236.2531 187.6837 L 235.6447 187.7880 L 235.0365 187.8934 L 234.4284 187.9999 L 233.8206 188.1076 L 233.2130 188.2165 L 232.6055 188.3265 L 231.9983 188.4376 L 231.3913 188.5499 L 230.7845 188.6633 L 230.1779 188.7778 L 229.5716 188.8935 L 228.9654 189.0102 L 228.3595 189.1281 L 227.7537 189.2471 L 227.1482 189.3672 L 226.5429 189.4884 L 225.9379 189.6107 L 225.3330 189.7341 L 224.7284 189.8586 L 224.1240 189.9842 L 223.5199 190.1108 L 222.9159 190.2386 L 222.3122 190.3675 L 221.7087 190.4974 L 221.1055 190.6284 L 220.5025 190.7605 L 219.8997 190.8936 L 219.2972 191.0279 L 218.6949 191.1632 L 218.0928 191.2995 L 217.4910 191.4369 L 216.8895 191.5754 L 216.2881 191.7150 L 215.6870 191.8555 L 215.0862 191.9972 L 214.4856 192.1399 L 213.8853 192.2836 L 213.2852 192.4284 L 212.6854 192.5743 L 212.0858 192.7212 L 211.4865 192.8691 L 210.8874 193.0180 L 210.2886 193.1680 L 209.6901 193.3191 L 209.0918 193.4711 L 208.4938 193.6242 L 207.8960 193.7783 L 207.2986 193.9335 L 206.7013 194.0897 L 206.1044 194.2469 L 205.5077 194.4051 L 204.9113 194.5643 L 204.3151 194.7246 L 203.7193 194.8859 L 203.1237 195.0481 L 202.5284 195.2114 L 201.9334 195.3758 L 201.3386 195.5411 L 200.7441 195.7074 L 200.1500 195.8748 L 199.5561 196.0432 L 198.9624 196.2125 L 198.3691 196.3829 L 197.7761 196.5543 L 197.1833 196.7266 L 196.5909 196.9000 L 195.9987 197.0744 L 195.4068 197.2498 L 194.8153 197.4261 L 194.2240 197.6035 L 193.6330 197.7819 L 193.0424 197.9612 L 192.4520 198.1416 L 191.8619 198.3230 L 191.2722 198.5053 L 190.6827 198.6886 L 190.0936 198.8730 L 189.5048 199.0583 L 188.9162 199.2446 L 188.3280 199.4319 L 187.7401 199.6202 L 187.1526 199.8095 L 186.5653 199.9997 L 185.9784 200.1910 L 185.3918 200.3832 L 184.8055 200.5764 L 184.2195 200.7706 L 183.6339 200.9658 L 183.0486 201.1620 L 182.4636 201.3592 L 181.8790 201.5573 L 181.2947 201.7564 L 180.7107 201.9565 L 180.1271 202.1576 L 179.5438 202.3597 L 178.9609 202.5628 L 178.3783 202.7668 L 177.7960 202.9718 L 177.2141 203.1778 L 176.6325 203.3848 L 176.0513 203.5928 L 175.4704 203.8017 L 174.8899 204.0117 L 174.3098 204.2226 L 173.7300 204.4345 L 173.1505 204.6474 L 172.5715 204.8612 L 171.9928 205.0761 L 171.4144 205.2919 L 170.8364 205.5087 L 170.2588 205.7265 L 169.6816 205.9453 L 169.1047 206.1650 L 168.5283 206.3858 L 167.9521 206.6075 L 167.3764 206.8302 L 166.8011 207.0539 L 166.2261 207.2786 L 165.6515 207.5043 L 165.0774 207.7309 L 164.5036 207.9586 L 163.9302 208.1872 L 163.3572 208.4169 L 162.7846 208.6475 L 162.2123 208.8791 L 161.6405 209.1117 L 161.0691 209.3453 L 160.4981 209.5798 L 159.9276 209.8154 L 159.3574 210.0520 L 158.7876 210.2896 L 158.2183 210.5281 L 157.6494 210.7677 L 157.0809 211.0082 L 156.5128 211.2498 L 155.9451 211.4924 L 155.3779 211.7359 L 154.8111 211.9805 L 154.2448 212.2260 L 153.6788 212.4726 L 153.1134 212.7202 L 152.5483 212.9688 L 151.9837 213.2184 L 151.4196 213.4690 L 150.8559 213.7206 L 150.2926 213.9732 L 149.7299 214.2269 L 149.1675 214.4815 L 148.6057 214.7372 L 148.0443 214.9939 L 147.4833 215.2516 L 146.9229 215.5104 L 146.3629 215.7702 L 145.8034 216.0310 L 145.2444 216.2928 L 144.6858 216.5556 L 144.1278 216.8195 L 143.5702 217.0845 L 143.0131 217.3504 L 142.4566 217.6174 L 141.9005 217.8855 L 141.3449 218.1545 L 140.7899 218.4247 L 140.2353 218.6959 L 139.6813 218.9681 L 139.1278 219.2414 L 138.5748 219.5157 L 138.0223 219.7911 L 137.4704 220.0675 L 136.9190 220.3450 L 136.3681 220.6236 L 135.8178 220.9033 L 135.2680 221.1840 L 134.7187 221.4658 L 134.1701 221.7486 L 133.6219 222.0326 L 133.0744 222.3176 L 132.5274 222.6037 L 131.9810 222.8909 L 131.4351 223.1792 L 130.8898 223.4686 L 130.3451 223.7591 L 129.8010 224.0507 L 129.2575 224.3433 L 128.7146 224.6371 L 128.1723 224.9320 L 127.6306 225.2281 L 127.0896 225.5252 L 126.5491 225.8235 L 126.0093 226.1229 L 125.4700 226.4234 L 124.9315 226.7251 L 124.3935 227.0279 L 123.8562 227.3318 L 123.3196 227.6369 L 122.7836 227.9431 L 122.2483 228.2505 L 121.7136 228.5591 L 121.1797 228.8688 L 120.6464 229.1797 L 120.1137 229.4918 L 119.5818 229.8050 L 119.0506 230.1194 L 118.5201 230.4351 L 117.9903 230.7519 L 117.4612 231.0699 L 116.9329 231.3891 L 116.4052 231.7096 L 115.8784 232.0312 L 115.3522 232.3541 L 114.8269 232.6782 L 114.3023 233.0036 L 113.7784 233.3302 L 113.2554 233.6580 L 112.7331 233.9871 L 112.2116 234.3174 L 111.6910 234.6491 L 111.1711 234.9819 L 110.6521 235.3161 L 110.1339 235.6516 L 109.6165 235.9883 L 109.1000 236.3264 L 108.5844 236.6658 L 108.0696 237.0065 L 107.5557 237.3485 L 107.0427 237.6919 L 106.5306 238.0366 L 106.0194 238.3826 L 105.5092 238.7300 L 104.9999 239.0788 L 104.4915 239.4290 L 103.9841 239.7805 L 103.4776 240.1335 L 102.9721 240.4878 L 102.4677 240.8436 L 101.9642 241.2008 L 101.4618 241.5594 L 100.9604 241.9195 L 100.4600 242.2811 L 99.9608 242.6441 L 99.4626 243.0086 L 98.9655 243.3746 L 98.4695 243.7421 L 97.9746 244.1111 L 97.4809 244.4817 L 96.9884 244.8538 L 96.4970 245.2275 L 96.0069 245.6027 L 95.5179 245.9795 L 95.0302 246.3580 L 94.5438 246.7380 L 94.0586 247.1197 L 93.5748 247.5030 L 93.0922 247.8880 L 92.6110 248.2747 L 92.1312 248.6631 L 91.6528 249.0532 L 91.1758 249.4450 L 90.7002 249.8386 L 90.2261 250.2339 L 89.7535 250.6310 L 89.2825 251.0300 L 88.8130 251.4308 L 88.3451 251.8334 L 87.8788 252.2380 L 87.4141 252.6444 L 86.9512 253.0527 L 86.4900 253.4631 L 86.0306 253.8753 L 85.5729 254.2896 L 85.1171 254.7059 L 84.6632 255.1243 L 84.2113 255.5448 L 83.7613 255.9673 L 83.3133 256.3921 L 82.8674 256.8190 L 82.4237 257.2481 L 81.9821 257.6795 L 81.5428 258.1132 L 81.1058 258.5492 L 80.6712 258.9875 L 80.2390 259.4283 L 79.8093 259.8715 L 79.3822 260.3172 L 78.9578 260.7654 L 78.5361 261.2162 L 78.1172 261.6697 L 77.7013 262.1259 L 77.2884 262.5847 L 76.8787 263.0464 L 76.4721 263.5110 L 76.0690 263.9785 L 75.6693 264.4489 L 75.2733 264.9224 L 74.8810 265.3990 L 74.4926 265.8789 L 74.1084 266.3620 L 73.7283 266.8484 L 73.3528 267.3384 L 72.9819 267.8318 L 72.6159 268.3289 L 72.2549 268.8297 L 71.8994 269.3343 L 71.5496 269.8429 L 71.2057 270.3555 L 70.8681 270.8724 L 70.5372 271.3935 L 70.2134 271.9190 L 69.8971 272.4492 L 69.5889 272.9840 L 69.2893 273.5237 L 68.9989 274.0684 L 68.7184 274.6183 L 68.4486 275.1735 L 68.1903 275.7342 L 67.9446 276.3005 L 67.7125 276.8725 L 67.4954 277.4503 L 67.2947 278.0341 L 67.1121 278.6237 L 66.9495 279.2192 L 66.8092 279.8203 L 66.6937 280.4266 L 66.6060 281.0376 L 66.5495 281.6522 L 66.5281 282.2691 L 66.5460 282.8860 L 66.6078 283.5001 L 66.7181 284.1073 L 66.8812 284.7024 L 67.1006 285.2791 L 67.3779 285.8303 L 67.7127 286.3486 L 68.1018 286.8274 L 68.5401 287.2617 L 69.0206 287.6489 L 69.5359 287.9882 L 70.0792 288.2810 L 70.6440 288.5298 L 71.2251 288.7377 L 71.8183 288.9081 L 72.4203 289.0445 L 73.0284 289.1501 L 73.6408 289.2278 L 74.2558 289.2803 L 74.8724 289.3098 L 75.4896 289.3184 L 76.1068 289.3080 L 76.7234 289.2802 L 77.3392 289.2363 L 77.9537 289.1777 L 78.5667 289.1054 L 79.1781 289.0204 L 79.7878 288.9237 L 80.3956 288.8159 L 81.0015 288.6978 L 81.6054 288.5700 L 82.2073 288.4331 L 82.8072 288.2876 L 83.4051 288.1339 L 84.0010 287.9726 L 84.5948 287.8040 L 85.1866 287.6285 L 85.7764 287.4464 L 86.3643 287.2579 L 86.9501 287.0634 L 87.5340 286.8632 L 88.1160 286.6574 L 88.6961 286.4464 L 89.2744 286.2302 L 89.8507 286.0092 L 90.4253 285.7834 L 90.9980 285.5531 L 91.5689 285.3184 L 92.1381 285.0795 L 92.7056 284.8364 L 93.2713 284.5894 L 93.8353 284.3386 L 94.3977 284.0840 L 94.9584 283.8258 L 95.5175 283.5641 L 96.0749 283.2989 L 96.6308 283.0305 L 97.1851 282.7588 L 97.7379 282.4840 L 98.2891 282.2061 L 98.8388 281.9252 L 99.3870 281.6415 L 99.9337 281.3548 L 100.4790 281.0654 L 101.0228 280.7733 L 101.5652 280.4785 L 102.1061 280.1812 L 102.6457 279.8813 L 103.1838 279.5789 L 103.7206 279.2741 L 104.2561 278.9669 L 104.7902 278.6573 L 105.3229 278.3455 L 105.8543 278.0314 L 106.3845 277.7151 L 106.9133 277.3967 L 107.4408 277.0761 L 107.9671 276.7535 L 108.4921 276.4287 L 109.0158 276.1020 L 109.5384 275.7733 L 110.0596 275.4427 L 110.5797 275.1101 L 111.0985 274.7756 L 111.6162 274.4393 L 112.1326 274.1012 L 112.6479 273.7612 L 113.1620 273.4195 L 113.6749 273.0761 L 114.1867 272.7309 L 114.6973 272.3840 L 115.2068 272.0354 L 115.7152 271.6852 L 116.2224 271.3334 L 116.7285 270.9800 L 117.2335 270.6249 L 117.7374 270.2684 L 118.2402 269.9102 L 118.7419 269.5506 L 119.2425 269.1894 L 119.7420 268.8267 L 120.2405 268.4626 L 120.7379 268.0971 L 121.2343 267.7300 L 121.7296 267.3616 L 122.2238 266.9918 L 122.7171 266.6206 L 123.2092 266.2480 L 123.7004 265.8740 L 124.1905 265.4988 L 124.6796 265.1222 L 125.1677 264.7442 L 125.6548 264.3650 L 126.1409 263.9845 L 126.6260 263.6027 L 127.1101 263.2197 L 127.5932 262.8354 L 128.0753 262.4499 L 128.5564 262.0631 L 129.0366 261.6751 L 129.5157 261.2860 L 129.9940 260.8956 L 130.4712 260.5041 L 130.9475 260.1114 L 131.4228 259.7175 L 131.8972 259.3225 L 132.3706 258.9264 L 132.8431 258.5291 L 133.3147 258.1307 L 133.7853 257.7312 L 134.2549 257.3307 L 134.7237 256.9290 L 135.1915 256.5262 L 135.6583 256.1224 L 136.1243 255.7175 L 136.5893 255.3115 L 137.0534 254.9045 L 137.5167 254.4964 L 137.9790 254.0874 L 138.4403 253.6773 L 138.9008 253.2661 L 139.3604 252.8540 L 139.8191 252.4409 L 140.2769 252.0268 L 140.7337 251.6116 L 141.1897 251.1955 L 141.6448 250.7785 L 142.0991 250.3604 L 142.5524 249.9415 L 143.0048 249.5215 L 143.4564 249.1006 L 143.9071 248.6788 L 144.3569 248.2560 L 144.8058 247.8323 L 145.2539 247.4077 L 145.7011 246.9821 L 146.1474 246.5557 L 146.5928 246.1283 L 147.0374 245.7001 L 147.4812 245.2709 L 147.9240 244.8409 L 148.3660 244.4100 L 148.8072 243.9781 L 149.2474 243.5455 L 149.6869 243.1119 L 150.1255 242.6775 L 150.5632 242.2422 L 151.0001 241.8061 L 151.4361 241.3691 L 151.8713 240.9313 L 152.3056 240.4927 L 152.7391 240.0532 L 153.1717 239.6128 L 153.6035 239.1717 L 154.0345 238.7297 L 154.4646 238.2869 L 154.8938 237.8433 L 155.3223 237.3989 L 155.7499 236.9537 L 156.1766 236.5077 L 156.6026 236.0608 L 157.0277 235.6132 L 157.4519 235.1648 L 157.8754 234.7156 L 158.2980 234.2657 L 158.7197 233.8149 L 159.1407 233.3634 L 159.5608 232.9111 L 159.9800 232.4580 L 160.3985 232.0042 L 160.8161 231.5496 L 161.2329 231.0943 L 161.6489 230.6382 L 162.0640 230.1813 L 162.4784 229.7237 L 162.8919 229.2653 L 163.3045 228.8063 L 163.7164 228.3464 L 164.1274 227.8859 L 164.5376 227.4246 L 164.9470 226.9626 L 165.3556 226.4998 L 165.7633 226.0363 L 166.1702 225.5721 L 166.5763 225.1072 L 166.9816 224.6416 L 167.3861 224.1753 L 167.7897 223.7082 L 168.1926 223.2405 L 168.5946 222.7720 L 168.9958 222.3029 L 169.3961 221.8330 L 169.7957 221.3624 L 170.1944 220.8912 L 170.5923 220.4193 L 170.9894 219.9466 L 171.3857 219.4733 L 171.7812 218.9993 L 172.1758 218.5246 L 172.5696 218.0493 L 172.9627 217.5732 L 173.3548 217.0965 L 173.7462 216.6192 L 174.1368 216.1411 L 174.5265 215.6624 L 174.9154 215.1830 L 175.3035 214.7029 L 175.6908 214.2222 L 176.0772 213.7409 L 176.4628 213.2588 L 176.8476 212.7761 L 177.2316 212.2928 L 177.6148 211.8088 L 177.9971 211.3242 L 178.3787 210.8389 L 178.7594 210.3529 L 179.1392 209.8664 L 179.5183 209.3791 L 179.8965 208.8913 L 180.2739 208.4028 L 180.6505 207.9137 L 181.0262 207.4239 L 181.4011 206.9335 L 181.7752 206.4424 L 182.1485 205.9508 L 182.5209 205.4585 L 182.8926 204.9656 L 183.2633 204.4720 L 183.6333 203.9778 L 184.0024 203.4831 L 184.3707 202.9876 L 184.7381 202.4916 L 185.1047 201.9950 L 185.4705 201.4977 L 185.8354 200.9998 L 186.1996 200.5013 L 186.5628 200.0022 L 186.9252 199.5025 L 187.2868 199.0022 L 187.6476 198.5013 L 188.0075 197.9997 L 188.3665 197.4976 L 188.7247 196.9949 L 189.0821 196.4915 L 189.4386 195.9876 L 189.7943 195.4830 L 190.1491 194.9779 L 190.5031 194.4722 L 190.8562 193.9658 L 191.2085 193.4589 L 191.5599 192.9514 L 191.9104 192.4433 L 192.2601 191.9346 L 192.6090 191.4253 L 192.9569 190.9154 L 193.3041 190.4050 L 193.6503 189.8939 L 193.9957 189.3823 L 194.3402 188.8700 L 194.6839 188.3572 L 195.0266 187.8439 L 195.3685 187.3299 L 195.7096 186.8153 L 196.0497 186.3002 L 196.3890 185.7845 L 196.7274 185.2682 L 197.0649 184.7514 L 197.4016 184.2339 L 197.7373 183.7159 L 198.0722 183.1973 L 198.4062 182.6782 L 198.7392 182.1585 L 199.0714 181.6382 L 199.4027 181.1173 L 199.7331 180.5959 L 200.0626 180.0738 L 200.3912 179.5513 L 200.7189 179.0281 L 201.0457 178.5044 L 201.3716 177.9802 L 201.6966 177.4553 L 202.0207 176.9299 L 202.3438 176.4040 L 202.6660 175.8774 L 202.9874 175.3503 L 203.3077 174.8227 L 203.6272 174.2945 L 203.9457 173.7657 L 204.2633 173.2364 L 204.5800 172.7065 L 204.8957 172.1760 L 205.2105 171.6450 L 205.5244 171.1135 L 205.8373 170.5814 L 206.1493 170.0487 L 206.4603 169.5154 L 206.7703 168.9817 L 207.0794 168.4473 L 207.3876 167.9124 L 207.6948 167.3770 L 208.0010 166.8410 L 208.3062 166.3044 L 208.6105 165.7673 L 208.9138 165.2297 L 209.2161 164.6915 L 209.5175 164.1527 L 209.8178 163.6134 L 210.1172 163.0735 L 210.4155 162.5331 L 210.7129 161.9922 L 211.0093 161.4507 L 211.3046 160.9086 L 211.5990 160.3660 L 211.8923 159.8229 L 212.1847 159.2792 L 212.4760 158.7349 L 212.7662 158.1901 L 213.0555 157.6448 L 213.3437 157.0989 L 213.6309 156.5525 L 213.9170 156.0055 L 214.2021 155.4579 L 214.4861 154.9099 L 214.7691 154.3613 L 215.0511 153.8121 L 215.3319 153.2624 L 215.6117 152.7121 L 215.8904 152.1613 L 216.1680 151.6100 L 216.4446 151.0581 L 216.7200 150.5056 L 216.9944 149.9527 L 217.2677 149.3991 L 217.5398 148.8451 L 217.8109 148.2904 L 218.0808 147.7353 L 218.3496 147.1796 L 218.6172 146.6233 L 218.8838 146.0665 L 219.1492 145.5092 L 219.4134 144.9513 L 219.6765 144.3929 L 219.9384 143.8339 L 220.1992 143.2744 L 220.4588 142.7143 L 220.7172 142.1537 L 220.9744 141.5925 L 221.2305 141.0308 L 221.4853 140.4686 L 221.7389 139.9058 L 221.9913 139.3424 L 222.2425 138.7786 L 222.4924 138.2141 L 222.7412 137.6491 L 222.9886 137.0836 L 223.2348 136.5175 L 223.4798 135.9509 L 223.7235 135.3837 L 223.9659 134.8160 L 224.2070 134.2477 L 224.4468 133.6789 L 224.6853 133.1096 L 224.9225 132.5396 L 225.1584 131.9692 L 225.3929 131.3982 L 225.6261 130.8266 L 225.8579 130.2545 L 226.0884 129.6818 L 226.3175 129.1086 L 226.5452 128.5348 L 226.7715 127.9605 L 226.9964 127.3856 L 227.2199 126.8102 L 227.4419 126.2342 L 227.6625 125.6577 L 227.8817 125.0806 L 228.0994 124.5030 L 228.3156 123.9248 L 228.5303 123.3460 L 228.7435 122.7667 L 228.9552 122.1868 L 229.1654 121.6064 L 229.3740 121.0254 L 229.5810 120.4439 L 229.7865 119.8618 L 229.9904 119.2791 L 230.1926 118.6959 L 230.3933 118.1121 L 230.5923 117.5277 L 230.7897 116.9428 L 230.9853 116.3574 L 231.1793 115.7713 L 231.3716 115.1847 L 231.5622 114.5976 L 231.7510 114.0099 L 231.9380 113.4216 L 232.1232 112.8327 L 232.3067 112.2433 L 232.4883 111.6533 L 232.6681 111.0628 L 232.8459 110.4717 L 233.0219 109.8800 L 233.1960 109.2877 L 233.3681 108.6949 L 233.5383 108.1015 L 233.7065 107.5076 L 233.8726 106.9130 L 234.0367 106.3180 L 234.1987 105.7223 L 234.3586 105.1261 L 234.5164 104.5293 L 234.6720 103.9319 L 234.8254 103.3340 L 234.9766 102.7354 L 235.1255 102.1364 L 235.2721 101.5367 L 235.4164 100.9365 L 235.5582 100.3357 L 235.6977 99.7344 L 235.8347 99.1325 L 235.9692 98.5300 L 236.1012 97.9270 L 236.2306 97.3234 L 236.3573 96.7192 L 236.4813 96.1145 L 236.6026 95.5093 L 236.7212 94.9035 L 236.8368 94.2971 L 236.9496 93.6902 L 237.0594 93.0827 L 237.1662 92.4747 L 237.2699 91.8662 L 237.3704 91.2571 L 237.4677 90.6475 L 237.5616 90.0374 L 237.6522 89.4268 L 237.7393 88.8157 L 237.8229 88.2041 L 237.9028 87.5920 L 237.9790 86.9794 L 238.0513 86.3663 L 238.1197 85.7528 L 238.1840 85.1389 L 238.2442 84.5245 L 238.3000 83.9097 L 238.3514 83.2946 L 238.3982 82.6791 L 238.4403 82.0632 L 238.4776 81.4470 L 238.5097 80.8306 L 238.5367 80.2138 L 238.5582 79.5969 L 238.5741 78.9798 L 238.5841 78.3626 L 238.5881 77.7453 L 238.5857 77.1280 L 238.5767 76.5108 L 238.5609 75.8937 L 238.5378 75.2768 L 238.5071 74.6603 L 238.4685 74.0442 L 238.4216 73.4287 L 238.3659 72.8139 L 238.3009 72.2000 L 238.2261 71.5873 L 238.1409 70.9759 L 238.0446 70.3662 L 237.9366 69.7584 L 237.8161 69.1530 L 237.6820 68.5504 L 237.5336 67.9512 L 237.3697 67.3561 L 237.1890 66.7659 L 236.9902 66.1815 L 236.7718 65.6041 L 236.5321 65.0353 L 236.2692 64.4769 L 235.9811 63.9310 L 235.6656 63.4005 L 235.3204 62.8888 L 234.9434 62.4001 L 234.5326 61.9396 L 234.0866 61.5131 L 233.6049 61.1274 L 233.0885 60.7896 L 232.5403 60.5065 L 231.9649 60.2838 L 231.3687 60.1250 L 230.7589 60.0310 L 230.1426 60.0000 L 229.5261 60.0282 L 228.9145 60.1105 L 228.3114 60.2411 L 227.7190 60.4144 L 227.1388 60.6250 L 226.5716 60.8684 L 226.0175 61.1404 L 225.4764 61.4374 L 224.9480 61.7564 L 224.4318 62.0949 L 223.9273 62.4506 L 223.4341 62.8218 L 222.9515 63.2067 L 222.4792 63.6041 L 222.0164 64.0127 L 221.5630 64.4314 L 221.1182 64.8595 L 220.6819 65.2962 L 220.2535 65.7406 L 219.8327 66.1923 L 219.4192 66.6506 L 219.0127 67.1152 L 218.6129 67.5855 L 218.2194 68.0612 L 217.8322 68.5419 L 217.4508 69.0273 L 217.0752 69.5172 L 216.7051 70.0112 L 216.3403 70.5092 L 215.9806 71.0109 L 215.6259 71.5161 L 215.2759 72.0246 L 214.9307 72.5363 L 214.5899 73.0510 L 214.2536 73.5687 L 213.9214 74.0890 L 213.5934 74.6120 L 213.2695 75.1374 L 212.9494 75.6653 L 212.6332 76.1954 L 212.3207 76.7278 L 212.0118 77.2623 L 211.7065 77.7988 L 211.4047 78.3372 L 211.1062 78.8776 L 210.8110 79.4197 L 210.5191 79.9636 L 210.2303 80.5092 L 209.9446 81.0565 L 209.6620 81.6053 L 209.3824 82.1556 L 209.1057 82.7074 L 208.8318 83.2606 L 208.5608 83.8153 L 208.2925 84.3712 L 208.0270 84.9285 L 207.7641 85.4870 L 207.5039 86.0468 L 207.2462 86.6078 L 206.9911 87.1699 L 206.7385 87.7331 L 206.4884 88.2975 L 206.2406 88.8629 L 205.9953 89.4294 L 205.7523 89.9968 L 205.5117 90.5653 L 205.2733 91.1347 L 205.0372 91.7051 L 204.8033 92.2764 L 204.5716 92.8485 L 204.3421 93.4216 L 204.1147 93.9955 L 203.8895 94.5702 L 203.6663 95.1458 L 203.4452 95.7221 L 203.2261 96.2992 L 203.0091 96.8771 L 202.7940 97.4557 L 202.5809 98.0351 L 202.3698 98.6152 L 202.1605 99.1959 L 201.9532 99.7774 L 201.7478 100.3595 L 201.5443 100.9423 L 201.3425 101.5257 L 201.1427 102.1097 L 200.9446 102.6944 L 200.7483 103.2797 L 200.5538 103.8655 L 200.3611 104.4520 L 200.1701 105.0390 L 199.9809 105.6266 L 199.7933 106.2147 L 199.6075 106.8034 L 199.4233 107.3926 L 199.2408 107.9823 L 199.0600 108.5725 L 198.8808 109.1632 L 198.7033 109.7544 L 198.5273 110.3461 L 198.3530 110.9383 L 198.1802 111.5309 L 198.0091 112.1240 L 197.8395 112.7176 L 197.6714 113.3116 L 197.5050 113.9060 L 197.3400 114.5009 L 197.1766 115.0961 L 197.0146 115.6918 L 196.8542 116.2879 L 196.6953 116.8844 L 196.5378 117.4813 L 196.3819 118.0786 L 196.2274 118.6762 L 196.0743 119.2743 L 195.9227 119.8727 L 195.7725 120.4714 L 195.6238 121.0705 L 195.4765 121.6700 L 195.3306 122.2698 L 195.1861 122.8700 L 195.0429 123.4704 L 194.9012 124.0713 L 194.7609 124.6724 L 194.6219 125.2738 L 194.4843 125.8756 L 194.3480 126.4777 L 194.2131 127.0801 L 194.0796 127.6828 L 193.9474 128.2857 L 193.8165 128.8890 L 193.6869 129.4926 L 193.5587 130.0964 L 193.4317 130.7005 L 193.3061 131.3049 L 193.1817 131.9095 L 193.0587 132.5144 L 192.9369 133.1196 L 192.8165 133.7251 L 192.6973 134.3307 L 192.5793 134.9367 L 192.4627 135.5429 L 192.3473 136.1493 L 192.2331 136.7559 L 192.1202 137.3628 L 192.0085 137.9699 L 191.8981 138.5773 L 191.7889 139.1849 L 191.6810 139.7926 L 191.5742 140.4006 L 191.4687 141.0089 L 191.3644 141.6173 L 191.2613 142.2259 L 191.1595 142.8348 L 191.0588 143.4438 L 190.9593 144.0530 L 190.8610 144.6625 L 190.7639 145.2721 L 190.6680 145.8819 L 190.5733 146.4919 L 190.4797 147.1021 L 190.3874 147.7124 L 190.2962 148.3229 L 190.2061 148.9336 L 190.1173 149.5445 L 190.0296 150.1556 L 189.9430 150.7668 L 189.8576 151.3781 L 189.7734 151.9897 L 189.6903 152.6013 L 189.6083 153.2132 L 189.5275 153.8252 L 189.4478 154.4373 L 189.3693 155.0496 L 189.2919 155.6620 L 189.2156 156.2746 L 189.1405 156.8873 L 189.0665 157.5002 L 188.9935 158.1131 L 188.9218 158.7263 L 188.8511 159.3395 L 188.7815 159.9529 L 188.7131 160.5664 L 188.6458 161.1800 L 188.5796 161.7937 L 188.5144 162.4076 L 188.4504 163.0216 L 188.3875 163.6357 L 188.3257 164.2499 L 188.2649 164.8642 L 188.2053 165.4786 L 188.1468 166.0931 L 188.0893 166.7077 L 188.0329 167.3224 L 187.9777 167.9373 L 187.9235 168.5522 L 187.8703 169.1672 L 187.8183 169.7823 L 187.7673 170.3975 L 187.7175 171.0128 L 187.6687 171.6282 L 187.6209 172.2436 L 187.5743 172.8591 L 187.5287 173.4748 L 187.4841 174.0905 L 187.4407 174.7062 L 187.3983 175.3221 L 187.3570 175.9380 L 187.3167 176.5540 L 187.2775 177.1700 L 187.2393 177.7862 L 187.2023 178.4023 L 187.1662 179.0186 L 187.1313 179.6349 L 187.0973 180.2513 L 187.0645 180.8677 L 187.0327 181.4842 L 187.0019 182.1007 L 186.9722 182.7173 L 186.9436 183.3340 L 186.9160 183.9506 L 186.8894 184.5674 L 186.8639 185.1841 L 186.8394 185.8010 L 186.8160 186.4178 L 186.7937 187.0347 L 186.7723 187.6517 L 186.7521 188.2686 L 186.7328 188.8856 L 186.7146 189.5027 L 186.6975 190.1197 L 186.6814 190.7368 L 186.6663 191.3539 L 186.6523 191.9711 L 186.6393 192.5882 L 186.6273 193.2054 L 186.6164 193.8226 L 186.6065 194.4399 L 186.5977 195.0571 L 186.5899 195.6744 L 186.5832 196.2916 L 186.5775 196.9089 L 186.5728 197.5262 L 186.5691 198.1435 L 186.5665 198.7608 L 186.5650 199.3781 L 186.5644 199.9954 L 186.5650 200.6127 L 186.5665 201.2300 L 186.5691 201.8473 L 186.5727 202.4646 L 186.5774 203.0819 L 186.5831 203.6991 L 186.5898 204.3164 L 186.5976 204.9337 L 186.6064 205.5509 L 186.6163 206.1681 L 186.6272 206.7853 L 186.6391 207.4025 L 186.6521 208.0197 L 186.6661 208.6368 L 186.6811 209.2539 L 186.6972 209.8710 L 186.7144 210.4881 L 186.7325 211.1051 L 186.7518 211.7221 L 186.7720 212.3391 L 186.7933 212.9560 L 186.8157 213.5729 L 186.8391 214.1898 L 186.8635 214.8066 L 186.8890 215.4234 L 186.9156 216.0401 L 186.9431 216.6568 L 186.9718 217.2735 L 187.0015 217.8900 L 187.0322 218.5066 L 187.0640 219.1231 L 187.0968 219.7395 L 187.1307 220.3559 L 187.1657 220.9722 L 187.2017 221.5884 L 187.2388 222.2046 L 187.2769 222.8207 L 187.3161 223.4368 L 187.3563 224.0528 L 187.3977 224.6687 L 187.4400 225.2846 L 187.4835 225.9003 L 187.5280 226.5160 L 187.5736 227.1316 L 187.6202 227.7472 L 187.6679 228.3626 L 187.7167 228.9780 L 187.7666 229.5933 L 187.8175 230.2085 L 187.8696 230.8236 L 187.9227 231.4386 L 187.9768 232.0535 L 188.0321 232.6684 L 188.0885 233.2831 L 188.1459 233.8977 L 188.2044 234.5122 L 188.2640 235.1266 L 188.3247 235.7410 L 188.3866 236.3552 L 188.4495 236.9692 L 188.5135 237.5832 L 188.5786 238.1971 L 188.6448 238.8108 L 188.7121 239.4244 L 188.7805 240.0379 L 188.8501 240.6513 L 188.9207 241.2646 L 188.9925 241.8777 L 189.0654 242.4907 L 189.1394 243.1035 L 189.2145 243.7162 L 189.2907 244.3288 L 189.3681 244.9412 L 189.4467 245.5535 L 189.5263 246.1657 L 189.6071 246.7777 L 189.6890 247.3895 L 189.7721 248.0012 L 189.8563 248.6127 L 189.9417 249.2241 L 190.0283 249.8353 L 190.1159 250.4463 L 190.2048 251.0572 L 190.2948 251.6679 L 190.3860 252.2785 L 190.4783 252.8888 L 190.5719 253.4990 L 190.6666 254.1090 L 190.7625 254.7188 L 190.8596 255.3284 L 190.9578 255.9378 L 191.0573 256.5471 L 191.1579 257.1561 L 191.2598 257.7650 L 191.3629 258.3736 L 191.4671 258.9820 L 191.5726 259.5903 L 191.6794 260.1983 L 191.7873 260.8061 L 191.8965 261.4136 L 192.0069 262.0210 L 192.1185 262.6281 L 192.2314 263.2350 L 192.3455 263.8417 L 192.4609 264.4481 L 192.5776 265.0543 L 192.6955 265.6602 L 192.8147 266.2659 L 192.9351 266.8713 L 193.0569 267.4765 L 193.1799 268.0814 L 193.3042 268.6861 L 193.4298 269.2905 L 193.5567 269.8946 L 193.6850 270.4984 L 193.8145 271.1020 L 193.9454 271.7052 L 194.0776 272.3082 L 194.2111 272.9109 L 194.3460 273.5133 L 194.4822 274.1154 L 194.6198 274.7171 L 194.7588 275.3186 L 194.8991 275.9198 L 195.0408 276.5206 L 195.1839 277.1211 L 195.3284 277.7212 L 195.4743 278.3210 L 195.6216 278.9205 L 195.7703 279.5196 L 195.9205 280.1184 L 196.0720 280.7168 L 196.2251 281.3148 L 196.3796 281.9125 L 196.5355 282.5098 L 196.6929 283.1067 L 196.8518 283.7032 L 197.0122 284.2993 L 197.1741 284.8949 L 197.3375 285.4902 L 197.5025 286.0851 L 197.6689 286.6795 L 197.8370 287.2735 L 198.0065 287.8671 L 198.1777 288.4602 L 198.3504 289.0528 L 198.5247 289.6450 L 198.7006 290.2367 L 198.8782 290.8279 L 199.0573 291.4187 L 199.2381 292.0089 L 199.4206 292.5986 L 199.6047 293.1878 L 199.7905 293.7765 L 199.9781 294.3646 L 200.1673 294.9522 L 200.3582 295.5392 L 200.5509 296.1257 L 200.7454 296.7116 L 200.9417 297.2968 L 201.1397 297.8815 L 201.3395 298.4656 L 201.5412 299.0490 L 201.7448 299.6318 L 201.9501 300.2139 L 202.1574 300.7954 L 202.3666 301.3762 L 202.5777 301.9562 L 202.7908 302.5356 L 203.0058 303.1142 L 203.2229 303.6921 L 203.4419 304.2693 L 203.6630 304.8456 L 203.8861 305.4212 L 204.1113 305.9959 L 204.3387 306.5698 L 204.5682 307.1429 L 204.7998 307.7151 L 205.0337 308.2864 L 205.2698 308.8568 L 205.5081 309.4262 L 205.7487 309.9947 L 205.9917 310.5622 L 206.2370 311.1286 L 206.4846 311.6941 L 206.7348 312.2584 L 206.9873 312.8217 L 207.2424 313.3838 L 207.5000 313.9448 L 207.7602 314.5046 L 208.0231 315.0631 L 208.2885 315.6204 L 208.5568 316.1764 L 208.8277 316.7311 L 209.1015 317.2843 L 209.3782 317.8362 L 209.6578 318.3865 L 209.9404 318.9353 L 210.2260 319.4826 L 210.5147 320.0282 L 210.8066 320.5722 L 211.1017 321.1143 L 211.4002 321.6547 L 211.7020 322.1932 L 212.0073 322.7297 L 212.3161 323.2642 L 212.6285 323.7966 L 212.9447 324.3268 L 213.2647 324.8547 L 213.5886 325.3802 L 213.9165 325.9032 L 214.2486 326.4236 L 214.5849 326.9412 L 214.9256 327.4560 L 215.2707 327.9678 L 215.6206 328.4764 L 215.9752 328.9816 L 216.3349 329.4833 L 216.6996 329.9814 L 217.0696 330.4755 L 217.4452 330.9654 L 217.8264 331.4509 L 218.2136 331.9317 L 218.6069 332.4074 L 219.0067 332.8778 L 219.4131 333.3425 L 219.8265 333.8009 L 220.2471 334.2527 L 220.6754 334.6972 L 221.1116 335.1340 L 221.5562 335.5622 L 222.0096 335.9812 L 222.4722 336.3899 L 222.9444 336.7874 L 223.4268 337.1726 L 223.9199 337.5439 L 224.4242 337.8999 L 224.9402 338.2387 L 225.4684 338.5580 L 226.0093 338.8554 L 226.5632 339.1277 L 227.1303 339.3715 L 227.7102 339.5827 L 228.3024 339.7566 L 228.9054 339.8879 L 229.5170 339.9709 L 230.1334 340.0000 L 230.7497 339.9699 L 231.3596 339.8769 L 231.9561 339.7190 L 232.5319 339.4973 L 233.0806 339.2151 L 233.5974 338.8780 L 234.0797 338.4930 L 234.5262 338.0671 L 234.9375 337.6070 L 235.3150 337.1187 L 235.6606 336.6073 L 235.9766 336.0771 L 236.2651 335.5314 L 236.5283 334.9731 L 236.7684 334.4044 L 236.9871 333.8272 L 237.1862 333.2429 L 237.3671 332.6527 L 237.5313 332.0577 L 237.6799 331.4586 L 237.8141 330.8560 L 237.9349 330.2507 L 238.0431 329.6429 L 238.1395 329.0332 L 238.2249 328.4219 L 238.2999 327.8091 L 238.3650 327.1953 L 238.4209 326.5805 L 238.4679 325.9650 L 238.5066 325.3489 L 238.5374 324.7324 L 238.5606 324.1155 L 238.5766 323.4984 L 238.5856 322.8812 L 238.5881 322.2639 L 238.5842 321.6466 L 238.5743 321.0294 L 238.5585 320.4123 L 238.5370 319.7954 L 238.5102 319.1787 L 238.4781 318.5622 L 238.4409 317.9460 L 238.3989 317.3301 L 238.3521 316.7146 L 238.3008 316.0995 L 238.2450 315.4847 L 238.1850 314.8703 L 238.1207 314.2564 L 238.0524 313.6428 L 237.9801 313.0298 L 237.9040 312.4172 L 237.8241 311.8051 L 237.7406 311.1935 L 237.6536 310.5823 L 237.5630 309.9717 L 237.4691 309.3616 L 237.3719 308.7520 L 237.2714 308.1429 L 237.1678 307.5344 L 237.0610 306.9264 L 236.9513 306.3189 L 236.8385 305.7120 L 236.7229 305.1056 L 236.6044 304.4998 L 236.4832 303.8945 L 236.3592 303.2898 L 236.2325 302.6856 L 236.1031 302.0820 L 235.9712 301.4790 L 235.8367 300.8765 L 235.6998 300.2746 L 235.5604 299.6732 L 235.4185 299.0725 L 235.2743 298.4722 L 235.1277 297.8726 L 234.9788 297.2735 L 234.8277 296.6750 L 234.6743 296.0770 L 234.5188 295.4797 L 234.3610 294.8829 L 234.2011 294.2866 L 234.0391 293.6909 L 233.8751 293.0958 L 233.7090 292.5013 L 233.5408 291.9073 L 233.3707 291.3140 L 233.1986 290.7211 L 233.0246 290.1289 L 232.8486 289.5372 L 232.6707 288.9460 L 232.4910 288.3555 L 232.3094 287.7655 L 232.1260 287.1761 L 231.9408 286.5872 L 231.7538 285.9989 L 231.5650 285.4112 L 231.3745 284.8240 L 231.1822 284.2374 L 230.9883 283.6514 L 230.7926 283.0659 L 230.5953 282.4810 L 230.3963 281.8966 L 230.1957 281.3129 L 229.9934 280.7296 L 229.7896 280.1469 L 229.5841 279.5648 L 229.3771 278.9833 L 229.1685 278.4023 L 228.9584 277.8219 L 228.7467 277.2420 L 228.5335 276.6627 L 228.3188 276.0839 L 228.1026 275.5057 L 227.8850 274.9280 L 227.6658 274.3509 L 227.4452 273.7744 L 227.2232 273.1984 L 226.9997 272.6230 L 226.7749 272.0481 L 226.5486 271.4737 L 226.3209 270.9000 L 226.0918 270.3267 L 225.8614 269.7541 L 225.6295 269.1819 L 225.3964 268.6104 L 225.1619 268.0393 L 224.9260 267.4689 L 224.6889 266.8989 L 224.4504 266.3296 L 224.2106 265.7607 L 223.9695 265.1925 L 223.7271 264.6247 L 223.4834 264.0576 L 223.2385 263.4909 L 222.9923 262.9248 L 222.7449 262.3593 L 222.4962 261.7943 L 222.2462 261.2299 L 221.9951 260.6660 L 221.7427 260.1026 L 221.4891 259.5398 L 221.2343 258.9776 L 220.9783 258.4159 L 220.7211 257.8547 L 220.4627 257.2941 L 220.2031 256.7340 L 219.9423 256.1745 L 219.6804 255.6155 L 219.4174 255.0570 L 219.1531 254.4991 L 218.8878 253.9418 L 218.6212 253.3850 L 218.3536 252.8287 L 218.0848 252.2730 L 217.8149 251.7178 L 217.5439 251.1632 L 217.2717 250.6091 L 216.9985 250.0556 L 216.7242 249.5026 L 216.4487 248.9502 L 216.1722 248.3983 L 215.8946 247.8469 L 215.6159 247.2961 L 215.3361 246.7458 L 215.0553 246.1961 L 214.7734 245.6469 L 214.4904 245.0983 L 214.2064 244.5502 L 213.9213 244.0027 L 213.6352 243.4557 L 213.3480 242.9093 L 213.0598 242.3634 L 212.7706 241.8180 L 212.4803 241.2732 L 212.1890 240.7290 L 211.8967 240.1853 L 211.6034 239.6421 L 211.3090 239.0995 L 211.0137 238.5574 L 210.7173 238.0159 L 210.4200 237.4749 L 210.1216 236.9345 L 209.8223 236.3947 L 209.5220 235.8553 L 209.2206 235.3166 L 208.9183 234.7784 L 208.6151 234.2407 L 208.3108 233.7036 L 208.0056 233.1670 L 207.6994 232.6310 L 207.3922 232.0956 L 207.0841 231.5607 L 206.7750 231.0263 L 206.4649 230.4925 L 206.1539 229.9593 L 205.8420 229.4266 L 205.5291 228.8945 L 205.2152 228.3629 L 204.9005 227.8319 L 204.5847 227.3014 L 204.2681 226.7715 L 203.9505 226.2422 L 203.6320 225.7134 L 203.3125 225.1852 L 202.9922 224.6575 L 202.6709 224.1304 L 202.3486 223.6039 L 202.0255 223.0779 L 201.7015 222.5525 L 201.3765 222.0277 L 201.0506 221.5034 L 200.7238 220.9797 L 200.3962 220.4565 L 200.0676 219.9340 L 199.7381 219.4119 L 199.4077 218.8905 L 199.0764 218.3696 L 198.7442 217.8493 L 198.4111 217.3296 L 198.0772 216.8104 L 197.7423 216.2918 L 197.4066 215.7738 L 197.0700 215.2564 L 196.7325 214.7395 L 196.3941 214.2232 L 196.0548 213.7075 L 195.7147 213.1924 L 195.3736 212.6778 L 195.0317 212.1638 L 194.6890 211.6504 L 194.3453 211.1376 L 194.0008 210.6254 L 193.6555 210.1137 L 193.3092 209.6027 L 192.9621 209.0922 L 192.6142 208.5823 L 192.2654 208.0730 L 191.9157 207.5643 L 191.5651 207.0562 L 191.2137 206.5487 L 190.8615 206.0417 L 190.5084 205.5354 L 190.1544 205.0296 L 189.7996 204.5245 L 189.4440 204.0199 L 189.0874 203.5160 L 188.7301 203.0126 L 188.3719 202.5099 L 188.0128 202.0077 L 187.6530 201.5062 L 187.2922 201.0053 L 186.9307 200.5049 L 186.5682 200.0052 L 186.2050 199.5061 L 185.8409 199.0076 L 185.4760 198.5097 L 185.1102 198.0125 L 184.7436 197.5158 L 184.3762 197.0198 L 184.0079 196.5243 L 183.6388 196.0295 L 183.2689 195.5354 L 182.8981 195.0418 L 182.5265 194.5489 L 182.1541 194.0566 L 181.7808 193.5649 L 181.4067 193.0739 L 181.0318 192.5834 L 180.6561 192.0937 L 180.2795 191.6045 L 179.9022 191.1160 L 179.5239 190.6281 L 179.1449 190.1409 L 178.7650 189.6543 L 178.3844 189.1684 L 178.0028 188.6831 L 177.6205 188.1984 L 177.2374 187.7144 L 176.8534 187.2311 L 176.4686 186.7484 L 176.0830 186.2663 L 175.6965 185.7850 L 175.3093 185.3042 L 174.9212 184.8242 L 174.5323 184.3448 L 174.1426 183.8660 L 173.7521 183.3880 L 173.3607 182.9106 L 172.9685 182.4339 L 172.5755 181.9578 L 172.1817 181.4825 L 171.7871 181.0078 L 171.3916 180.5338 L 170.9954 180.0604 L 170.5983 179.5878 L 170.2004 179.1158 L 169.8017 178.6446 L 169.4021 178.1740 L 169.0018 177.7042 L 168.6006 177.2350 L 168.1986 176.7665 L 167.7958 176.2988 L 167.3921 175.8317 L 166.9877 175.3654 L 166.5824 174.8997 L 166.1763 174.4348 L 165.7694 173.9706 L 165.3617 173.5071 L 164.9531 173.0443 L 164.5437 172.5823 L 164.1336 172.1210 L 163.7225 171.6604 L 163.3107 171.2006 L 162.8980 170.7415 L 162.4845 170.2831 L 162.0702 169.8255 L 161.6551 169.3687 L 161.2391 168.9126 L 160.8224 168.4572 L 160.4047 168.0026 L 159.9863 167.5487 L 159.5670 167.0957 L 159.1469 166.6434 L 158.7260 166.1918 L 158.3043 165.7411 L 157.8817 165.2911 L 157.4583 164.8419 L 157.0340 164.3935 L 156.6089 163.9458 L 156.1830 163.4990 L 155.7563 163.0530 L 155.3287 162.6077 L 154.9003 162.1633 L 154.4710 161.7197 L 154.0409 161.2769 L 153.6100 160.8349 L 153.1782 160.3937 L 152.7455 159.9534 L 152.3121 159.5139 L 151.8778 159.0752 L 151.4426 158.6374 L 151.0066 158.2004 L 150.5697 157.7643 L 150.1320 157.3290 L 149.6934 156.8946 L 149.2540 156.4610 L 148.8137 156.0283 L 148.3726 155.5965 L 147.9306 155.1656 L 147.4878 154.7355 L 147.0441 154.3063 L 146.5995 153.8781 L 146.1541 153.4507 L 145.7077 153.0242 L 145.2606 152.5987 L 144.8125 152.1740 L 144.3636 151.7503 L 143.9138 151.3275 L 143.4631 150.9057 L 143.0116 150.4848 L 142.5592 150.0648 L 142.1058 149.6458 L 141.6516 149.2278 L 141.1965 148.8107 L 140.7406 148.3946 L 140.2837 147.9794 L 139.8259 147.5653 L 139.3673 147.1522 L 138.9077 146.7400 L 138.4472 146.3289 L 137.9859 145.9188 L 137.5236 145.5097 L 137.0604 145.1016 L 136.5963 144.6946 L 136.1313 144.2886 L 135.6653 143.8837 L 135.1984 143.4798 L 134.7307 143.0770 L 134.2619 142.6753 L 133.7923 142.2747 L 133.3217 141.8752 L 132.8502 141.4768 L 132.3777 141.0795 L 131.9043 140.6834 L 131.4299 140.2883 L 130.9546 139.8945 L 130.4783 139.5018 L 130.0011 139.1102 L 129.5229 138.7198 L 129.0437 138.3307 L 128.5636 137.9427 L 128.0825 137.5559 L 127.6004 137.1704 L 127.1173 136.7861 L 126.6332 136.4030 L 126.1482 136.0212 L 125.6621 135.6407 L 125.1750 135.2614 L 124.6869 134.8835 L 124.1978 134.5069 L 123.7077 134.1315 L 123.2166 133.7576 L 122.7244 133.3850 L 122.2312 133.0137 L 121.7370 132.6439 L 121.2417 132.2754 L 120.7454 131.9084 L 120.2480 131.5428 L 119.7495 131.1787 L 119.2500 130.8160 L 118.7494 130.4548 L 118.2477 130.0951 L 117.7449 129.7370 L 117.2410 129.3804 L 116.7360 129.0253 L 116.2300 128.6719 L 115.7227 128.3200 L 115.2144 127.9698 L 114.7050 127.6212 L 114.1943 127.2743 L 113.6826 126.9291 L 113.1697 126.5856 L 112.6556 126.2438 L 112.1403 125.9039 L 111.6239 125.5657 L 111.1063 125.2294 L 110.5875 124.8949 L 110.0674 124.5623 L 109.5462 124.2316 L 109.0237 123.9029 L 108.4999 123.5761 L 107.9750 123.2514 L 107.4487 122.9287 L 106.9212 122.6081 L 106.3924 122.2896 L 105.8623 121.9733 L 105.3309 121.6592 L 104.7981 121.3473 L 104.2641 121.0377 L 103.7287 120.7305 L 103.1919 120.4257 L 102.6537 120.1232 L 102.1142 119.8233 L 101.5733 119.5259 L 101.0309 119.2311 L 100.4871 118.9389 L 99.9419 118.6495 L 99.3952 118.3628 L 98.8470 118.0790 L 98.2973 117.7981 L 97.7461 117.5201 L 97.1934 117.2453 L 96.6391 116.9735 L 96.0833 116.7051 L 95.5258 116.4399 L 94.9668 116.1781 L 94.4061 115.9199 L 93.8437 115.6652 L 93.2797 115.4143 L 92.7140 115.1672 L 92.1466 114.9241 L 91.5775 114.6851 L 91.0065 114.4504 L 90.4338 114.2200 L 89.8593 113.9941 L 89.2830 113.7730 L 88.7048 113.5568 L 88.1247 113.3457 L 87.5428 113.1398 L 86.9589 112.9395 L 86.3730 112.7449 L 85.7852 112.5564 L 85.1954 112.3742 L 84.6037 112.1985 L 84.0099 112.0298 L 83.4140 111.8684 L 82.8162 111.7147 L 82.2163 111.5691 L 81.6144 111.4320 L 81.0105 111.3041 L 80.4047 111.1858 L 79.7969 111.0779 L 79.1872 110.9809 L 78.5759 110.8958 L 77.9628 110.8233 L 77.3484 110.7644 L 76.7326 110.7203 L 76.1160 110.6923 L 75.4988 110.6816 L 74.8816 110.6899 L 74.2650 110.7191 L 73.6499 110.7712 L 73.0376 110.8485 L 72.4293 110.9537 L 71.8273 111.0896 L 71.2339 111.2595 L 70.6526 111.4668 L 70.0875 111.7149 L 69.5439 112.0071 L 69.0280 112.3457 L 68.5470 112.7321 L 68.1080 113.1658 L 67.7181 113.6440 L 67.3825 114.1617 L 67.1043 114.7124 L 66.8841 115.2888 L 66.7201 115.8837 L 66.6090 116.4908 L 66.5466 117.1048 L 66.5281 117.7217 L 66.5489 118.3385 L 66.6049 118.9532 L 66.6921 119.5643 L 66.8072 120.1707 L 66.9472 120.7719 L 67.1095 121.3674 L 67.2918 121.9572 L 67.4923 122.5410 L 67.7092 123.1189 L 67.9410 123.6910 L 68.1866 124.2574 L 68.4446 124.8181 L 68.7143 125.3734 L 68.9946 125.9234 L 69.2849 126.4682 L 69.5844 127.0079 L 69.8925 127.5429 L 70.2086 128.0731 L 70.5323 128.5987 L 70.8631 129.1199 L 71.2006 129.6368 L 71.5444 130.1495 L 71.8941 130.6581 L 72.2496 131.1628 L 72.6104 131.6637 L 72.9764 132.1608 L 73.3472 132.6543 L 73.7227 133.1442 L 74.1026 133.6308 L 74.4869 134.1139 L 74.8752 134.5938 L 75.2674 135.0705 L 75.6634 135.5440 L 76.0630 136.0145 L 76.4661 136.4820 L 76.8726 136.9466 L 77.2823 137.4084 L 77.6951 137.8673 L 78.1110 138.3235 L 78.5298 138.7770 L 78.9514 139.2279 L 79.3758 139.6761 L 79.8029 140.1219 L 80.2325 140.5651 L 80.6647 141.0059 L 81.0993 141.4443 L 81.5363 141.8803 L 81.9755 142.3140 L 82.4171 142.7454 L 82.8608 143.1746 L 83.3066 143.6016 L 83.7546 144.0263 L 84.2045 144.4489 L 84.6565 144.8694 L 85.1103 145.2878 L 85.5661 145.7042 L 86.0237 146.1185 L 86.4831 146.5308 L 86.9443 146.9411 L 87.4072 147.3495 L 87.8718 147.7560 L 88.3381 148.1605 L 88.8060 148.5632 L 89.2754 148.9640 L 89.7465 149.3630 L 90.2190 149.7602 L 90.6931 150.1555 L 91.1686 150.5491 L 91.6456 150.9410 L 92.1240 151.3311 L 92.6038 151.7195 L 93.0850 152.1062 L 93.5675 152.4912 L 94.0514 152.8746 L 94.5365 153.2563 L 95.0229 153.6363 L 95.5106 154.0148 L 95.9995 154.3917 L 96.4897 154.7669 L 96.9810 155.1406 L 97.4736 155.5127 L 97.9672 155.8833 L 98.4621 156.2524 L 98.9581 156.6199 L 99.4551 156.9859 L 99.9533 157.3505 L 100.4526 157.7135 L 100.9529 158.0751 L 101.4543 158.4352 L 101.9567 158.7938 L 102.4601 159.1511 L 102.9646 159.5069 L 103.4700 159.8612 L 103.9765 160.2142 L 104.4839 160.5658 L 104.9922 160.9160 L 105.5016 161.2648 L 106.0118 161.6122 L 106.5230 161.9583 L 107.0351 162.3030 L 107.5481 162.6464 L 108.0619 162.9884 L 108.5767 163.3291 L 109.0923 163.6685 L 109.6088 164.0066 L 110.1262 164.3434 L 110.6443 164.6789 L 111.1634 165.0131 L 111.6832 165.3460 L 112.2038 165.6776 L 112.7253 166.0080 L 113.2476 166.3371 L 113.7706 166.6649 L 114.2944 166.9915 L 114.8190 167.3169 L 115.3444 167.6410 L 115.8705 167.9639 L 116.3974 168.2856 L 116.9250 168.6061 L 117.4533 168.9253 L 117.9824 169.2434 L 118.5122 169.5602 L 119.0427 169.8758 L 119.5739 170.1903 L 120.1058 170.5036 L 120.6384 170.8156 L 121.1717 171.1266 L 121.7056 171.4363 L 122.2403 171.7449 L 122.7756 172.0523 L 123.3116 172.3585 L 123.8482 172.6636 L 124.3855 172.9676 L 124.9234 173.2704 L 125.4620 173.5721 L 126.0012 173.8726 L 126.5410 174.1720 L 127.0815 174.4703 L 127.6225 174.7675 L 128.1642 175.0635 L 128.7065 175.3585 L 129.2494 175.6523 L 129.7929 175.9450 L 130.3370 176.2366 L 130.8817 176.5271 L 131.4269 176.8165 L 131.9728 177.1048 L 132.5192 177.3920 L 133.0662 177.6781 L 133.6137 177.9632 L 134.1619 178.2471 L 134.7105 178.5300 L 135.2598 178.8118 L 135.8095 179.0925 L 136.3598 179.3722 L 136.9107 179.6508 L 137.4621 179.9283 L 138.0140 180.2048 L 138.5665 180.4802 L 139.1195 180.7545 L 139.6730 181.0278 L 140.2270 181.3001 L 140.7816 181.5713 L 141.3366 181.8414 L 141.8922 182.1105 L 142.4483 182.3786 L 143.0048 182.6456 L 143.5619 182.9116 L 144.1194 183.1765 L 144.6775 183.4404 L 145.2360 183.7033 L 145.7950 183.9651 L 146.3545 184.2259 L 146.9145 184.4857 L 147.4750 184.7445 L 148.0359 185.0022 L 148.5973 185.2589 L 149.1591 185.5146 L 149.7214 185.7693 L 150.2842 186.0230 L 150.8475 186.2756 L 151.4111 186.5273 L 151.9753 186.7779 L 152.5399 187.0275 L 153.1049 187.2761 L 153.6704 187.5237 L 154.2363 187.7703 L 154.8026 188.0159 L 155.3694 188.2604 L 155.9366 188.5040 L 156.5043 188.7466 L 157.0724 188.9881 L 157.6409 189.2287 L 158.2098 189.4683 L 158.7791 189.7069 L 159.3489 189.9445 L 159.9190 190.1810 L 160.4896 190.4166 L 161.0606 190.6512 L 161.6320 190.8848 L 162.2038 191.1174 L 162.7760 191.3491 L 163.3486 191.5797 L 163.9216 191.8093 L 164.4950 192.0380 L 165.0688 192.2656 L 165.6430 192.4923 L 166.2175 192.7180 L 166.7925 192.9427 L 167.3678 193.1664 L 167.9435 193.3892 L 168.5196 193.6109 L 169.0961 193.8317 L 169.6730 194.0514 L 170.2502 194.2702 L 170.8278 194.4880 L 171.4058 194.7049 L 171.9841 194.9207 L 172.5628 195.1356 L 173.1419 195.3494 L 173.7213 195.5623 L 174.3011 195.7743 L 174.8812 195.9852 L 175.4617 196.1951 L 176.0426 196.4041 L 176.6238 196.6121 L 177.2054 196.8191 L 177.7873 197.0251 L 178.3695 197.2301 L 178.9521 197.4342 L 179.5351 197.6373 L 180.1184 197.8394 L 180.7020 198.0405 L 181.2860 198.2406 L 181.8703 198.4397 L 182.4549 198.6379 L 183.0399 198.8351 L 183.6252 199.0313 L 184.2108 199.2265 L 184.7967 199.4207 L 185.3830 199.6139 L 185.9696 199.8062 L 186.5565 199.9974 L 187.1438 200.1877 L 187.7314 200.3770 L 188.3192 200.5653 L 188.9074 200.7526 L 189.4959 200.9389 L 190.0848 201.1243 L 190.6739 201.3086 L 191.2634 201.4920 L 191.8531 201.6743 L 192.4432 201.8557 L 193.0335 202.0361 L 193.6242 202.2154 L 194.2152 202.3938 L 194.8064 202.5712 L 195.3980 202.7476 L 195.9899 202.9230 L 196.5820 203.0974 L 197.1745 203.2708 L 197.7672 203.4432 L 198.3602 203.6146 L 198.9536 203.7849 L 199.5472 203.9543 L 200.1411 204.1227 L 200.7353 204.2901 L 201.3297 204.4564 L 201.9245 204.6218 L 202.5195 204.7861 L 203.1148 204.9494 L 203.7104 205.1117 L 204.3062 205.2730 L 204.9024 205.4333 L 205.4988 205.5925 L 206.0955 205.7508 L 206.6924 205.9080 L 207.2896 206.0642 L 207.8871 206.2193 L 208.4849 206.3735 L 209.0829 206.5266 L 209.6811 206.6787 L 210.2797 206.8297 L 210.8785 206.9797 L 211.4775 207.1287 L 212.0769 207.2766 L 212.6764 207.4235 L 213.2762 207.5694 L 213.8763 207.7142 L 214.4767 207.8580 L 215.0772 208.0007 L 215.6781 208.1423 L 216.2791 208.2829 L 216.8805 208.4225 L 217.4820 208.5610 L 218.0838 208.6984 L 218.6859 208.8348 L 219.2882 208.9701 L 219.8907 209.1044 L 220.4935 209.2375 L 221.0965 209.3696 L 221.6997 209.5007 L 222.3032 209.6306 L 222.9069 209.7595 L 223.5108 209.8872 L 224.1150 210.0139 L 224.7194 210.1395 L 225.3240 210.2641 L 225.9288 210.3875 L 226.5339 210.5098 L 227.1392 210.6310 L 227.7447 210.7511 L 228.3504 210.8701 L 228.9563 210.9880 L 229.5625 211.1048 L 230.1689 211.2204 L 230.7755 211.3350 L 231.3822 211.4484 L 231.9893 211.5607 L 232.5965 211.6718 L 233.2039 211.7819 L 233.8115 211.8907 L 234.4193 211.9985 L 235.0274 212.1050 L 235.6356 212.2105 L 236.2440 212.3147 L 236.8527 212.4179 L 237.4615 212.5198 L 238.0705 212.6206 L 238.6797 212.7202 L 239.2891 212.8186 L 239.8987 212.9159 L 240.5085 213.0120 L 241.1185 213.1068 L 241.7286 213.2005 L 242.3390 213.2930 L 242.9495 213.3843 L 243.5602 213.4743 L 244.1711 213.5632 L 244.7821 213.6508 L 245.3933 213.7372 L 246.0047 213.8224 L 246.6163 213.9063 L 247.2280 213.9890 L 247.8400 214.0704 L 248.4520 214.1506 L 249.0643 214.2295 L 249.6767 214.3072 L 250.2892 214.3836 L 250.9019 214.4587 L 251.5148 214.5325 L 252.1278 214.6051 L 252.7410 214.6763 L 253.3543 214.7462 L 253.9678 214.8149 L 254.5814 214.8822 L 255.1952 214.9481 L 255.8091 215.0128 L 256.4232 215.0761 L 257.0373 215.1381 L 257.6517 215.1987 L 258.2661 215.2579 L 258.8807 215.3158 L 259.4954 215.3723 L 260.1103 215.4274 L 260.7252 215.4811 L 261.3403 215.5334 L 261.9555 215.5843 L 262.5708 215.6338 L 263.1862 215.6819 L 263.8018 215.7285 L 264.4174 215.7737 L 265.0332 215.8174 L 265.6490 215.8596 L 266.2650 215.9004 L 266.8811 215.9396 L 267.4972 215.9774 L 268.1134 216.0137 L 268.7298 216.0484 L 269.3462 216.0816 L 269.9627 216.1133 L 270.5792 216.1434 L 271.1959 216.1719 L 271.8126 216.1989 L 272.4294 216.2243 L 273.0462 216.2481 L 273.6631 216.2702 L 274.2801 216.2907 L 274.8971 216.3096 L 275.5142 216.3268 L 276.1313 216.3424 L 276.7484 216.3563 L 277.3656 216.3684 L 277.9828 216.3789 L 278.6000 216.3876 L 279.2173 216.3945 L 279.8346 216.3997 L 280.4519 216.4032 L 281.0692 216.4048 L 281.6865 216.4046 L 282.3038 216.4025 L 282.9211 216.3986 L 283.5384 216.3929 L 284.1556 216.3852 L 284.7728 216.3756 L 285.3900 216.3641 L 286.0072 216.3507 L 286.6243 216.3352 L 287.2414 216.3178 L 287.8583 216.2983 L 288.4753 216.2768 L 289.0921 216.2532 L 289.7089 216.2275 L 290.3256 216.1997 L 290.9421 216.1698 L 291.5586 216.1376 L 292.1750 216.1033 L 292.7912 216.0667 L 293.4073 216.0278 L 294.0232 215.9867 L 294.6390 215.9432 L 295.2545 215.8973 L 295.8700 215.8491 L 296.4852 215.7984 L 297.1002 215.7452 L 297.7150 215.6896 L 298.3295 215.6313 L 298.9438 215.5705 L 299.5579 215.5070 L 300.1716 215.4409 L 300.7851 215.3720 L 301.3982 215.3004 L 302.0110 215.2259 L 302.6234 215.1486 L 303.2355 215.0683 L 303.8471 214.9851 L 304.4584 214.8987 L 305.0692 214.8093 L 305.6795 214.7168 L 306.2893 214.6209 L 306.8986 214.5218 L 307.5073 214.4193 L 308.1155 214.3133 L 308.7230 214.2038 L 309.3298 214.0907 L 309.9360 213.9739 L 310.5414 213.8533 L 311.1460 213.7288 L 311.7498 213.6003 L 312.3527 213.4677 L 312.9546 213.3308 L 313.5556 213.1897 L 314.1554 213.0440 L 314.7542 212.8938 L 315.3517 212.7388 L 315.9480 212.5790 L 316.5428 212.4141 L 317.1362 212.2439 L 317.7280 212.0684 L 318.3182 211.8873 L 318.9065 211.7003 L 319.4929 211.5074 L 320.0771 211.3082 L 320.6591 211.1025 L 321.2387 210.8899 L 321.8156 210.6703 L 322.3897 210.4433 L 322.9606 210.2085 L 323.5281 209.9657 L 324.0918 209.7142 L 324.6515 209.4538 L 325.2067 209.1839 L 325.7569 208.9041 L 326.3016 208.6136 L 326.8402 208.3120 L 327.3719 207.9984 L 327.8960 207.6722 L 328.4114 207.3325 L 328.9170 206.9784 L 329.4114 206.6089 L 329.8932 206.2230 L 330.3602 205.8194 L 330.8103 205.3969 L 331.2406 204.9544 L 331.6478 204.4906 L 332.0281 204.0045 L 332.3766 203.4951 L 332.6881 202.9623 L 332.9563 202.4065 L 333.1747 201.8294 L 333.3370 201.2341 L 333.4373 200.6253 L 333.4719 200.0092 L 333.4394 199.3931 L 333.3409 198.7840 L 333.1804 198.1882 L 332.9636 197.6104 L 332.6968 197.0540 L 332.3865 196.5205 L 332.0390 196.0104 L 331.6596 195.5236 L 331.2531 195.0591 L 330.8234 194.6160 L 330.3739 194.1930 L 329.9073 193.7888 L 329.4260 193.4024 L 328.9319 193.0324 L 328.4266 192.6778 L 327.9115 192.3377 L 327.3877 192.0111 L 326.8562 191.6972 L 326.3178 191.3952 L 325.7733 191.1045 L 325.2232 190.8243 L 324.6682 190.5541 L 324.1086 190.2934 L 323.5450 190.0417 L 322.9776 189.7986 L 322.4068 189.5636 L 321.8328 189.3363 L 321.2560 189.1165 L 320.6765 188.9038 L 320.0946 188.6979 L 319.5104 188.4985 L 318.9240 188.3053 L 318.3358 188.1182 L 317.7457 187.9369 L 317.1539 187.7612 L 316.5606 187.5909 L 315.9658 187.4259 L 315.3696 187.2659 L 314.7721 187.1108 L 314.1734 186.9604 L 313.5735 186.8146 L 312.9726 186.6733 L 312.3707 186.5364 L 311.7678 186.4036 L 311.1641 186.2750 L 310.5595 186.1504 L 309.9541 186.0296 L 309.3480 185.9127 L 308.7411 185.7995 L 308.1337 185.6899 L 307.5255 185.5838 L 306.9168 185.4812 L 306.3075 185.3820 L 305.6977 185.2861 L 305.0874 185.1934 L 304.4767 185.1039 L 303.8654 185.0175 L 303.2538 184.9341 L 302.6417 184.8538 L 302.0293 184.7763 L 301.4165 184.7018 L 300.8034 184.6301 L 300.1900 184.5611 L 299.5762 184.4949 L 298.9622 184.4314 L 298.3479 184.3705 L 297.7334 184.3121 L 297.1186 184.2564 L 296.5036 184.2032 L 295.8884 184.1524 L 295.2730 184.1041 L 294.6574 184.0581 L 294.0416 184.0146 L 293.4257 183.9734 L 292.8096 183.9344 L 292.1934 183.8978 L 291.5770 183.8634 L 290.9606 183.8312 L 290.3440 183.8011 L 289.7273 183.7733 L 289.1106 183.7475 L 288.4937 183.7239 L 287.8768 183.7023 L 287.2598 183.6828 L 286.6427 183.6653 L 286.0256 183.6498 L 285.4085 183.6362 L 284.7913 183.6247 L 284.1741 183.6150 L 283.5568 183.6073 L 282.9395 183.6015 L 282.3222 183.5975 L 281.7049 183.5955 L 281.0876 183.5952 L 280.4703 183.5968 L 279.8530 183.6001 L 279.2358 183.6053 L 278.6185 183.6122 L 278.0013 183.6208 L 277.3840 183.6312 L 276.7669 183.6433 L 276.1497 183.6572 L 275.5326 183.6727 L 274.9155 183.6898 L 274.2985 183.7087 L 273.6816 183.7291 L 273.0647 183.7512 L 272.4478 183.7750 L 271.8310 183.8003 L 271.2143 183.8272 L 270.5977 183.8557 L 269.9811 183.8858 L 269.3646 183.9174 L 268.7482 183.9506 L 268.1319 183.9853 L 267.5156 184.0215 L 266.8995 184.0592 L 266.2834 184.0984 L 265.6675 184.1392 L 265.0516 184.1813 L 264.4358 184.2250 L 263.8202 184.2701 L 263.2047 184.3167 L 262.5892 184.3647 L 261.9739 184.4141 L 261.3587 184.4650 L 260.7436 184.5173 L 260.1286 184.5710 L 259.5138 184.6260 L 258.8991 184.6825 L 258.2845 184.7403 L 257.6700 184.7995 L 257.0557 184.8601 L 256.4415 184.9220 L 255.8275 184.9853 L 255.2136 185.0499 L 254.5998 185.1158 L 253.9862 185.1831 L 253.3727 185.2517 L 252.7594 185.3216 L 252.1462 185.3928 L 251.5331 185.4653 L 250.9203 185.5391 L 250.3075 185.6141 L 249.6950 185.6905 L 249.0826 185.7681 L 248.4703 185.8470 L 247.8583 185.9272 L 247.2463 186.0086 L 246.6346 186.0912 L 246.0230 186.1751 L 245.4116 186.2602 L 244.8004 186.3466 L 244.1893 186.4342 L 243.5784 186.5230 L 242.9677 186.6130 L 242.3572 186.7043 L 241.7469 186.7967 L 241.1367 186.8903 L 240.5267 186.9852 L 239.9170 187.0812 L 239.3074 187.1784 L 238.6979 187.2768 L 238.0887 187.3764 L 237.4797 187.4771 L 236.8709 187.5791 L 236.2622 187.6821 L 235.6538 187.7864 L 235.0456 187.8918 L 234.4375 187.9983 L 233.8297 188.1060 L 233.2221 188.2149 L 232.6146 188.3249 L 232.0074 188.4360 L 231.4004 188.5482 L 230.7936 188.6616 L 230.1870 188.7761 L 229.5806 188.8917 L 228.9745 189.0085 L 228.3685 189.1263 L 227.7628 189.2453 L 227.1573 189.3654 L 226.5520 189.4866 L 225.9469 189.6088 L 225.3421 189.7322 L 224.7374 189.8567 L 224.1331 189.9823 L 223.5289 190.1089 L 222.9249 190.2367 L 222.3212 190.3655 L 221.7178 190.4954 L 221.1145 190.6264 L 220.5115 190.7585 L 219.9087 190.8916 L 219.3062 191.0258 L 218.7039 191.1611 L 218.1018 191.2975 L 217.5000 191.4349 L 216.8984 191.5733 L 216.2971 191.7129 L 215.6960 191.8534 L 215.0952 191.9951 L 214.4946 192.1378 L 213.8943 192.2815 L 213.2942 192.4263 L 212.6944 192.5721 L 212.0948 192.7190 L 211.4955 192.8669 L 210.8964 193.0158 L 210.2976 193.1658 L 209.6990 193.3168 L 209.1008 193.4688 L 208.5027 193.6219 L 207.9050 193.7760 L 207.3075 193.9312 L 206.7103 194.0873 L 206.1133 194.2445 L 205.5166 194.4027 L 204.9202 194.5619 L 204.3241 194.7222 L 203.7282 194.8834 L 203.1326 195.0457 L 202.5373 195.2090 L 201.9423 195.3733 L 201.3475 195.5386 L 200.7530 195.7049 L 200.1588 195.8723 L 199.5649 196.0406 L 198.9713 196.2100 L 198.3780 196.3803 L 197.7849 196.5517 L 197.1922 196.7240 L 196.5997 196.8974 L 196.0076 197.0718 L 195.4157 197.2471 L 194.8241 197.4235 L 194.2328 197.6008 L 193.6419 197.7792 L 193.0512 197.9586 L 192.4608 198.1389 L 191.8707 198.3202 L 191.2810 198.5026 L 190.6915 198.6859 L 190.1024 198.8702 L 189.5136 199.0555 L 188.9250 199.2418 L 188.3368 199.4291 L 187.7489 199.6174 L 187.1614 199.8066 L 186.5741 199.9969 L 185.9872 200.1881 L 185.4006 200.3803 L 184.8143 200.5735 L 184.2283 200.7677 L 183.6427 200.9629 L 183.0574 201.1590 L 182.4724 201.3562 L 181.8877 201.5543 L 181.3034 201.7534 L 180.7195 201.9535 L 180.1358 202.1546 L 179.5525 202.3567 L 178.9696 202.5597 L 178.3870 202.7637 L 177.8047 202.9687 L 177.2228 203.1747 L 176.6412 203.3817 L 176.0600 203.5897 L 175.4791 203.7986 L 174.8986 204.0085 L 174.3184 204.2194 L 173.7386 204.4313 L 173.1592 204.6442 L 172.5801 204.8580 L 172.0014 205.0728 L 171.4231 205.2887 L 170.8451 205.5055 L 170.2675 205.7232 L 169.6902 205.9420 L 169.1134 206.1617 L 168.5369 206.3825 L 167.9608 206.6042 L 167.3850 206.8269 L 166.8097 207.0506 L 166.2347 207.2752 L 165.6601 207.5009 L 165.0859 207.7276 L 164.5121 207.9552 L 163.9387 208.1838 L 163.3657 208.4134 L 162.7931 208.6440 L 162.2209 208.8756 L 161.6491 209.1082 L 161.0777 209.3418 L 160.5067 209.5763 L 159.9361 209.8119 L 159.3659 210.0485 L 158.7961 210.2860 L 158.2268 210.5245 L 157.6579 210.7641 L 157.0894 211.0046 L 156.5213 211.2462 L 155.9536 211.4887 L 155.3864 211.7323 L 154.8196 211.9768 L 154.2532 212.2224 L 153.6873 212.4689 L 153.1218 212.7165 L 152.5568 212.9651 L 151.9922 213.2146 L 151.4280 213.4652 L 150.8643 213.7168 L 150.3011 213.9694 L 149.7383 214.2231 L 149.1759 214.4777 L 148.6141 214.7334 L 148.0527 214.9901 L 147.4917 215.2478 L 146.9313 215.5065 L 146.3713 215.7663 L 145.8118 216.0271 L 145.2527 216.2889 L 144.6942 216.5517 L 144.1361 216.8156 L 143.5785 217.0805 L 143.0215 217.3464 L 142.4649 217.6134 L 141.9088 217.8814 L 141.3532 218.1505 L 140.7982 218.4206 L 140.2436 218.6918 L 139.6896 218.9640 L 139.1360 219.2373 L 138.5830 219.5116 L 138.0306 219.7870 L 137.4786 220.0634 L 136.9272 220.3409 L 136.3763 220.6195 L 135.8260 220.8991 L 135.2762 221.1798 L 134.7269 221.4616 L 134.1783 221.7444 L 133.6301 222.0283 L 133.0826 222.3133 L 132.5356 222.5994 L 131.9891 222.8866 L 131.4433 223.1749 L 130.8980 223.4643 L 130.3533 223.7547 L 129.8092 224.0463 L 129.2657 224.3390 L 128.7228 224.6327 L 128.1804 224.9276 L 127.6387 225.2236 L 127.0976 225.5208 L 126.5572 225.8190 L 126.0173 226.1184 L 125.4781 226.4189 L 124.9395 226.7205 L 124.4016 227.0233 L 123.8643 227.3272 L 123.3276 227.6323 L 122.7916 227.9385 L 122.2563 228.2459 L 121.7216 228.5545 L 121.1876 228.8642 L 120.6543 229.1750 L 120.1217 229.4871 L 119.5898 229.8003 L 119.0585 230.1147 L 118.5280 230.4303 L 117.9982 230.7471 L 117.4691 231.0652 L 116.9408 231.3844 L 116.4131 231.7048 L 115.8862 232.0264 L 115.3601 232.3493 L 114.8347 232.6734 L 114.3101 232.9987 L 113.7863 233.3253 L 113.2632 233.6531 L 112.7409 233.9822 L 112.2194 234.3125 L 111.6987 234.6441 L 111.1789 234.9770 L 110.6598 235.3111 L 110.1416 235.6466 L 109.6243 235.9833 L 109.1078 236.3213 L 108.5921 236.6607 L 108.0773 237.0014 L 107.5634 237.3434 L 107.0504 237.6867 L 106.5383 238.0314 L 106.0271 238.3774 L 105.5168 238.7248 L 105.0075 239.0736 L 104.4991 239.4237 L 103.9916 239.7752 L 103.4852 240.1282 L 102.9797 240.4825 L 102.4752 240.8383 L 101.9717 241.1954 L 101.4693 241.5541 L 100.9679 241.9141 L 100.4675 242.2757 L 99.9682 242.6387 L 99.4700 243.0031 L 98.9729 243.3691 L 98.4769 243.7366 L 97.9820 244.1056 L 97.4883 244.4762 L 96.9957 244.8482 L 96.5044 245.2219 L 96.0142 245.5971 L 95.5252 245.9739 L 95.0375 246.3523 L 94.5510 246.7323 L 94.0659 247.1140 L 93.5820 247.4973 L 93.0994 247.8823 L 92.6182 248.2689 L 92.1384 248.6572 L 91.6599 249.0473 L 91.1829 249.4391 L 90.7073 249.8327 L 90.2332 250.2280 L 89.7606 250.6251 L 89.2895 251.0240 L 88.8200 251.4248 L 88.3520 251.8274 L 87.8857 252.2319 L 87.4211 252.6383 L 86.9581 253.0466 L 86.4969 253.4569 L 86.0374 253.8692 L 85.5797 254.2834 L 85.1239 254.6997 L 84.6700 255.1180 L 84.2180 255.5385 L 83.7680 255.9610 L 83.3200 256.3857 L 82.8741 256.8126 L 82.4303 257.2417 L 81.9887 257.6730 L 81.5494 258.1067 L 81.1123 258.5426 L 80.6777 258.9809 L 80.2454 259.4217 L 79.8157 259.8648 L 79.3886 260.3105 L 78.9641 260.7587 L 78.5424 261.2095 L 78.1235 261.6629 L 77.7075 262.1190 L 77.2946 262.5779 L 76.8848 263.0395 L 76.4782 263.5040 L 76.0750 263.9714 L 75.6753 264.4418 L 75.2792 264.9153 L 74.8868 265.3919 L 74.4984 265.8717 L 74.1141 266.3547 L 73.7340 266.8411 L 73.3584 267.3310 L 72.9874 267.8244 L 72.6213 268.3214 L 72.2603 268.8222 L 71.9047 269.3268 L 71.5547 269.8353 L 71.2108 270.3478 L 70.8731 270.8646 L 70.5421 271.3857 L 70.2182 271.9112 L 69.9018 272.4412 L 69.5935 272.9760 L 69.2937 273.5156 L 69.0032 274.0603 L 68.7225 274.6101 L 68.4525 275.1652 L 68.1941 275.7258 L 67.9482 276.2920 L 67.7159 276.8639 L 67.4985 277.4416 L 67.2976 278.0253 L 67.1147 278.6148 L 66.9518 279.2102 L 66.8111 279.8112 L 66.6952 280.4175 L 66.6071 281.0284 L 66.5501 281.6430 L 66.5281 282.2599 L 66.5454 282.8768 L 66.6065 283.4909 L 66.7160 284.0982 L 66.8784 284.6936 L 67.0969 285.2707 L 67.3733 285.8223 L 67.7073 286.3411 L 68.0956 286.8205 L 68.5332 287.2556 L 69.0131 287.6434 L 69.5280 287.9835 L 70.0709 288.2770 L 70.6354 288.5264 L 71.2163 288.7349 L 71.8094 288.9058 L 72.4112 289.0427 L 73.0193 289.1488 L 73.6316 289.2269 L 74.2466 289.2797 L 74.8631 289.3095 L 75.4804 289.3184 L 76.0975 289.3083 L 76.7142 289.2807 L 77.3300 289.2371 L 77.9445 289.1787 L 78.5575 289.1066 L 79.1690 289.0218 L 79.7787 288.9252 L 80.3865 288.8176 L 80.9924 288.6996 L 81.5964 288.5719 L 82.1983 288.4352 L 82.7983 288.2898 L 83.3962 288.1363 L 83.9921 287.9751 L 84.5859 287.8066 L 85.1778 287.6312 L 85.7676 287.4491 L 86.3555 287.2608 L 86.9414 287.0664 L 87.5253 286.8662 L 88.1074 286.6606 L 88.6875 286.4496 L 89.2657 286.2335 L 89.8421 286.0125 L 90.4167 285.7868 L 90.9894 285.5566 L 91.5604 285.3219 L 92.1296 285.0831 L 92.6971 284.8401 L 93.2628 284.5931 L 93.8269 284.3423 L 94.3893 284.0878 L 94.9500 283.8297 L 95.5091 283.5680 L 96.0666 283.3029 L 96.6225 283.0345 L 97.1768 282.7629 L 97.7296 282.4881 L 98.2809 282.2103 L 98.8306 281.9295 L 99.3788 281.6457 L 99.9256 281.3591 L 100.4708 281.0698 L 101.0147 280.7777 L 101.5571 280.4830 L 102.0980 280.1856 L 102.6376 279.8858 L 103.1758 279.5834 L 103.7126 279.2786 L 104.2481 278.9715 L 104.7822 278.6620 L 105.3150 278.3502 L 105.8464 278.0361 L 106.3765 277.7199 L 106.9054 277.4015 L 107.4330 277.0809 L 107.9592 276.7583 L 108.4843 276.4336 L 109.0080 276.1069 L 109.5306 275.7783 L 110.0518 275.4476 L 110.5719 275.1151 L 111.0908 274.7807 L 111.6085 274.4444 L 112.1249 274.1063 L 112.6402 273.7663 L 113.1543 273.4247 L 113.6673 273.0812 L 114.1791 272.7361 L 114.6897 272.3892 L 115.1992 272.0407 L 115.7076 271.6905 L 116.2148 271.3387 L 116.7209 270.9853 L 117.2259 270.6303 L 117.7298 270.2737 L 118.2327 269.9156 L 118.7344 269.5560 L 119.2350 269.1948 L 119.7346 268.8322 L 120.2331 268.4681 L 120.7305 268.1025 L 121.2269 267.7355 L 121.7222 267.3671 L 122.2165 266.9973 L 122.7097 266.6261 L 123.2019 266.2536 L 123.6931 265.8797 L 124.1832 265.5044 L 124.6723 265.1278 L 125.1604 264.7499 L 125.6475 264.3707 L 126.1336 263.9902 L 126.6187 263.6084 L 127.1028 263.2254 L 127.5859 262.8411 L 128.0681 262.4556 L 128.5492 262.0689 L 129.0294 261.6810 L 129.5086 261.2918 L 129.9868 260.9015 L 130.4641 260.5100 L 130.9404 260.1173 L 131.4157 259.7234 L 131.8901 259.3285 L 132.3636 258.9323 L 132.8361 258.5351 L 133.3076 258.1367 L 133.7782 257.7372 L 134.2479 257.3367 L 134.7167 256.9350 L 135.1845 256.5322 L 135.6514 256.1284 L 136.1173 255.7235 L 136.5824 255.3176 L 137.0465 254.9106 L 137.5097 254.5025 L 137.9720 254.0935 L 138.4334 253.6834 L 138.8939 253.2723 L 139.3535 252.8602 L 139.8122 252.4471 L 140.2700 252.0330 L 140.7269 251.6179 L 141.1829 251.2018 L 141.6380 250.7847 L 142.0923 250.3667 L 142.5456 249.9477 L 142.9981 249.5278 L 143.4496 249.1069 L 143.9003 248.6851 L 144.3502 248.2623 L 144.7991 247.8386 L 145.2472 247.4140 L 145.6944 246.9885 L 146.1407 246.5621 L 146.5862 246.1347 L 147.0308 245.7065 L 147.4745 245.2773 L 147.9174 244.8473 L 148.3594 244.4164 L 148.8006 243.9846 L 149.2409 243.5519 L 149.6803 243.1184 L 150.1189 242.6840 L 150.5566 242.2488 L 150.9935 241.8126 L 151.4296 241.3757 L 151.8648 240.9379 L 152.2991 240.4992 L 152.7326 240.0597 L 153.1652 239.6194 L 153.5971 239.1783 L 154.0280 238.7363 L 154.4581 238.2936 L 154.8874 237.8500 L 155.3159 237.4056 L 155.7435 236.9604 L 156.1703 236.5143 L 156.5962 236.0675 L 157.0213 235.6199 L 157.4456 235.1715 L 157.8690 234.7224 L 158.2916 234.2724 L 158.7134 233.8217 L 159.1344 233.3701 L 159.5545 232.9179 L 159.9738 232.4648 L 160.3922 232.0110 L 160.8099 231.5564 L 161.2267 231.1011 L 161.6427 230.6450 L 162.0578 230.1881 L 162.4722 229.7305 L 162.8857 229.2722 L 163.2984 228.8131 L 163.7102 228.3533 L 164.1213 227.8928 L 164.5315 227.4315 L 164.9409 226.9695 L 165.3495 226.5067 L 165.7572 226.0433 L 166.1642 225.5791 L 166.5703 225.1142 L 166.9756 224.6486 L 167.3801 224.1823 L 167.7837 223.7152 L 168.1866 223.2475 L 168.5886 222.7790 L 168.9898 222.3099 L 169.3902 221.8400 L 169.7897 221.3695 L 170.1885 220.8982 L 170.5864 220.4263 L 170.9835 219.9537 L 171.3798 219.4804 L 171.7753 219.0064 L 172.1699 218.5317 L 172.5638 218.0564 L 172.9568 217.5804 L 173.3490 217.1037 L 173.7404 216.6263 L 174.1309 216.1483 L 174.5207 215.6695 L 174.9096 215.1902 L 175.2977 214.7101 L 175.6850 214.2294 L 176.0714 213.7481 L 176.4571 213.2660 L 176.8419 212.7834 L 177.2259 212.3000 L 177.6091 211.8161 L 177.9914 211.3314 L 178.3730 210.8461 L 178.7537 210.3602 L 179.1336 209.8736 L 179.5126 209.3864 L 179.8909 208.8986 L 180.2683 208.4101 L 180.6449 207.9210 L 181.0206 207.4312 L 181.3955 206.9408 L 181.7697 206.4498 L 182.1429 205.9581 L 182.5154 205.4658 L 182.8870 204.9729 L 183.2578 204.4794 L 183.6278 203.9852 L 183.9969 203.4905 L 184.3652 202.9951 L 184.7326 202.4990 L 185.0993 202.0024 L 185.4650 201.5051 L 185.8300 201.0073 L 186.1941 200.5088 L 186.5574 200.0097 L 186.9198 199.5100 L 187.2814 199.0097 L 187.6422 198.5088 L 188.0021 198.0073 L 188.3612 197.5051 L 188.7194 197.0024 L 189.0768 196.4991 L 189.4333 195.9951 L 189.7890 195.4906 L 190.1438 194.9855 L 190.4978 194.4797 L 190.8509 193.9734 L 191.2032 193.4665 L 191.5546 192.9590 L 191.9052 192.4509 L 192.2549 191.9422 L 192.6038 191.4329 L 192.9517 190.9231 L 193.2989 190.4126 L 193.6451 189.9016 L 193.9905 189.3899 L 194.3351 188.8777 L 194.6787 188.3649 L 195.0215 187.8515 L 195.3634 187.3376 L 195.7045 186.8230 L 196.0446 186.3079 L 196.3839 185.7922 L 196.7223 185.2759 L 197.0599 184.7591 L 197.3965 184.2417 L 197.7323 183.7237 L 198.0672 183.2051 L 198.4012 182.6860 L 198.7343 182.1662 L 199.0665 181.6459 L 199.3978 181.1251 L 199.7282 180.6037 L 200.0577 180.0817 L 200.3863 179.5591 L 200.7141 179.0360 L 201.0409 178.5123 L 201.3668 177.9880 L 201.6917 177.4632 L 202.0158 176.9378 L 202.3390 176.4118 L 202.6612 175.8853 L 202.9826 175.3582 L 203.3030 174.8306 L 203.6224 174.3024 L 203.9410 173.7736 L 204.2586 173.2443 L 204.5753 172.7144 L 204.8910 172.1840 L 205.2058 171.6530 L 205.5197 171.1214 L 205.8326 170.5893 L 206.1446 170.0566 L 206.4556 169.5234 L 206.7657 168.9897 L 207.0748 168.4553 L 207.3830 167.9204 L 207.6902 167.3850 L 207.9964 166.8490 L 208.3017 166.3125 L 208.6060 165.7754 L 208.9093 165.2377 L 209.2116 164.6995 L 209.5130 164.1608 L 209.8133 163.6215 L 210.1127 163.0816 L 210.4111 162.5412 L 210.7085 162.0003 L 211.0048 161.4588 L 211.3002 160.9167 L 211.5946 160.3741 L 211.8880 159.8310 L 212.1803 159.2873 L 212.4716 158.7431 L 212.7619 158.1983 L 213.0512 157.6529 L 213.3394 157.1071 L 213.6266 156.5606 L 213.9127 156.0137 L 214.1979 155.4661 L 214.4819 154.9181 L 214.7649 154.3695 L 215.0468 153.8203 L 215.3277 153.2706 L 215.6075 152.7204 L 215.8862 152.1696 L 216.1639 151.6182 L 216.4405 151.0663 L 216.7159 150.5139 L 216.9903 149.9609 L 217.2636 149.4074 L 217.5358 148.8534 L 217.8068 148.2987 L 218.0767 147.7436 L 218.3456 147.1879 L 218.6133 146.6316 L 218.8798 146.0749 L 219.1452 145.5175 L 219.4095 144.9596 L 219.6726 144.4012 L 219.9345 143.8423 L 220.1953 143.2827 L 220.4549 142.7227 L 220.7133 142.1621 L 220.9706 141.6009 L 221.2266 141.0392 L 221.4815 140.4770 L 221.7351 139.9142 L 221.9875 139.3509 L 222.2388 138.7870 L 222.4887 138.2226 L 222.7375 137.6576 L 222.9849 137.0921 L 223.2312 136.5260 L 223.4761 135.9594 L 223.7198 135.3922 L 223.9622 134.8245 L 224.2034 134.2562 L 224.4432 133.6874 L 224.6817 133.1181 L 224.9189 132.5482 L 225.1548 131.9777 L 225.3894 131.4067 L 225.6226 130.8352 L 225.8544 130.2630 L 226.0849 129.6904 L 226.3141 129.1172 L 226.5418 128.5434 L 226.7681 127.9691 L 226.9930 127.3942 L 227.2165 126.8188 L 227.4386 126.2428 L 227.6592 125.6663 L 227.8784 125.0892 L 228.0961 124.5116 L 228.3124 123.9334 L 228.5271 123.3547 L 228.7403 122.7753 L 228.9521 122.1955 L 229.1622 121.6151 L 229.3709 121.0341 L 229.5779 120.4526 L 229.7834 119.8705 L 229.9873 119.2878 L 230.1896 118.7046 L 230.3903 118.1208 L 230.5893 117.5365 L 230.7867 116.9516 L 230.9824 116.3661 L 231.1764 115.7801 L 231.3687 115.1935 L 231.5593 114.6064 L 231.7481 114.0187 L 231.9352 113.4304 L 232.1205 112.8415 L 232.3040 112.2521 L 232.4856 111.6622 L 232.6654 111.0716 L 232.8433 110.4805 L 233.0193 109.8888 L 233.1934 109.2966 L 233.3656 108.7038 L 233.5358 108.1104 L 233.7040 107.5165 L 233.8701 106.9219 L 234.0343 106.3269 L 234.1963 105.7312 L 234.3563 105.1350 L 234.5141 104.5382 L 234.6697 103.9408 L 234.8231 103.3429 L 234.9744 102.7444 L 235.1233 102.1453 L 235.2699 101.5457 L 235.4142 100.9455 L 235.5561 100.3447 L 235.6956 99.7434 L 235.8327 99.1415 L 235.9672 98.5390 L 236.0992 97.9360 L 236.2286 97.3324 L 236.3554 96.7283 L 236.4795 96.1236 L 236.6009 95.5183 L 236.7194 94.9125 L 236.8351 94.3062 L 236.9479 93.6992 L 237.0578 93.0918 L 237.1646 92.4838 L 237.2683 91.8753 L 237.3689 91.2662 L 237.4662 90.6566 L 237.5603 90.0465 L 237.6509 89.4359 L 237.7381 88.8248 L 237.8217 88.2132 L 237.9017 87.6011 L 237.9779 86.9885 L 238.0503 86.3755 L 238.1187 85.7620 L 238.1831 85.1481 L 238.2433 84.5337 L 238.2992 83.9189 L 238.3507 83.3038 L 238.3976 82.6883 L 238.4397 82.0724 L 238.4770 81.4562 L 238.5093 80.8398 L 238.5363 80.2231 L 238.5579 79.6061 L 238.5739 78.9890 L 238.5840 78.3718 L 238.5881 77.7545 L 238.5858 77.1372 L 238.5769 76.5200 L 238.5612 75.9029 L 238.5382 75.2860 L 238.5076 74.6695 L 238.4692 74.0534 L 238.4224 73.4379 L 238.3668 72.8231 L 238.3019 72.2092 L 238.2273 71.5964 L 238.1422 70.9850 L 238.0462 70.3753 L 237.9383 69.7675 L 237.8180 69.1620 L 237.6842 68.5594 L 237.5359 67.9602 L 237.3722 67.3650 L 237.1918 66.7747 L 236.9933 66.1902 L 236.7752 65.6127 L 236.5358 65.0438 L 236.2733 64.4851 L 235.9856 63.9391 L 235.6705 63.4083 L 235.3258 62.8963 L 234.9493 62.4073 L 234.5390 61.9462 L 234.0935 61.5192 L 233.6124 61.1328 L 233.0965 60.7942 L 232.5487 60.5103 L 231.9736 60.2867 L 231.3777 60.1269 L 230.7680 60.0319 L 230.1518 60.0000 L 229.5353 60.0274 L 228.9236 60.1089 L 228.3203 60.2388 L 227.7278 60.4115 L 227.1474 60.6216 L 226.5800 60.8646 L 226.0257 61.1361 L 225.4844 61.4328 L 224.9558 61.7515 L 224.4394 62.0897 L 223.9348 62.4452 L 223.4414 62.8161 L 222.9587 63.2008 L 222.4861 63.5980 L 222.0233 64.0065 L 221.5697 64.4251 L 221.1248 64.8531 L 220.6883 65.2896 L 220.2598 65.7339 L 219.8389 66.1855 L 219.4253 66.6437 L 219.0187 67.1082 L 218.6188 67.5784 L 218.2253 68.0540 L 217.8379 68.5347 L 217.4565 69.0200 L 217.0808 69.5098 L 216.7106 70.0038 L 216.3457 70.5017 L 215.9859 71.0033 L 215.6311 71.5085 L 215.2811 72.0170 L 214.9358 72.5286 L 214.5950 73.0433 L 214.2585 73.5609 L 213.9264 74.0812 L 213.5983 74.6041 L 213.2743 75.1295 L 212.9542 75.6574 L 212.6379 76.1875 L 212.3254 76.7198 L 212.0164 77.2542 L 211.7111 77.7907 L 211.4091 78.3292 L 211.1106 78.8695 L 210.8154 79.4116 L 210.5234 79.9555 L 210.2346 80.5011 L 209.9489 81.0483 L 209.6662 81.5970 L 209.3865 82.1474 L 209.1098 82.6991 L 208.8359 83.2524 L 208.5648 83.8070 L 208.2965 84.3629 L 208.0310 84.9202 L 207.7680 85.4787 L 207.5078 86.0384 L 207.2501 86.5994 L 206.9949 87.1615 L 206.7423 87.7247 L 206.4921 88.2890 L 206.2443 88.8544 L 205.9990 89.4209 L 205.7559 89.9883 L 205.5153 90.5568 L 205.2769 91.1262 L 205.0407 91.6965 L 204.8068 92.2678 L 204.5751 92.8400 L 204.3455 93.4130 L 204.1181 93.9869 L 203.8928 94.5616 L 203.6696 95.1371 L 203.4485 95.7135 L 203.2294 96.2906 L 203.0123 96.8685 L 202.7972 97.4471 L 202.5841 98.0264 L 202.3729 98.6065 L 202.1637 99.1872 L 201.9563 99.7687 L 201.7509 100.3508 L 201.5473 100.9336 L 201.3455 101.5170 L 201.1456 102.1010 L 200.9476 102.6857 L 200.7513 103.2709 L 200.5567 103.8568 L 200.3640 104.4432 L 200.1730 105.0302 L 199.9837 105.6178 L 199.7961 106.2059 L 199.6103 106.7946 L 199.4261 107.3837 L 199.2436 107.9735 L 199.0627 108.5637 L 198.8835 109.1544 L 198.7059 109.7456 L 198.5299 110.3373 L 198.3556 110.9295 L 198.1828 111.5221 L 198.0116 112.1152 L 197.8420 112.7087 L 197.6739 113.3027 L 197.5074 113.8971 L 197.3425 114.4920 L 197.1790 115.0872 L 197.0170 115.6829 L 196.8566 116.2790 L 196.6977 116.8755 L 196.5402 117.4724 L 196.3842 118.0696 L 196.2297 118.6673 L 196.0766 119.2653 L 195.9250 119.8637 L 195.7748 120.4625 L 195.6260 121.0616 L 195.4787 121.6610 L 195.3327 122.2608 L 195.1882 122.8610 L 195.0451 123.4615 L 194.9033 124.0623 L 194.7630 124.6634 L 194.6240 125.2649 L 194.4863 125.8666 L 194.3501 126.4687 L 194.2151 127.0711 L 194.0816 127.6737 L 193.9493 128.2767 L 193.8184 128.8800 L 193.6888 129.4835 L 193.5606 130.0874 L 193.4336 130.6915 L 193.3079 131.2958 L 193.1836 131.9005 L 193.0605 132.5054 L 192.9387 133.1106 L 192.8183 133.7160 L 192.6990 134.3217 L 192.5811 134.9276 L 192.4644 135.5338 L 192.3490 136.1402 L 192.2348 136.7469 L 192.1219 137.3537 L 192.0102 137.9609 L 191.8998 138.5682 L 191.7905 139.1758 L 191.6826 139.7836 L 191.5758 140.3916 L 191.4703 140.9998 L 191.3660 141.6082 L 191.2629 142.2168 L 191.1610 142.8257 L 191.0603 143.4347 L 190.9608 144.0439 L 190.8625 144.6534 L 190.7654 145.2630 L 190.6694 145.8728 L 190.5747 146.4828 L 190.4811 147.0929 L 190.3887 147.7033 L 190.2975 148.3138 L 190.2075 148.9245 L 190.1186 149.5354 L 190.0309 150.1464 L 189.9443 150.7576 L 189.8589 151.3690 L 189.7746 151.9805 L 189.6915 152.5922 L 189.6095 153.2040 L 189.5287 153.8160 L 189.4490 154.4282 L 189.3705 155.0404 L 189.2930 155.6529 L 189.2168 156.2654 L 189.1416 156.8781 L 189.0675 157.4910 L 188.9946 158.1040 L 188.9228 158.7171 L 188.8521 159.3303 L 188.7826 159.9437 L 188.7141 160.5572 L 188.6468 161.1708 L 188.5805 161.7846 L 188.5154 162.3984 L 188.4514 163.0124 L 188.3884 163.6265 L 188.3266 164.2407 L 188.2658 164.8550 L 188.2062 165.4694 L 188.1476 166.0839 L 188.0902 166.6985 L 188.0338 167.3133 L 187.9785 167.9281 L 187.9243 168.5430 L 187.8711 169.1580 L 187.8191 169.7731 L 187.7681 170.3883 L 187.7182 171.0036 L 187.6694 171.6190 L 187.6216 172.2344 L 187.5749 172.8499 L 187.5293 173.4656 L 187.4848 174.0813 L 187.4413 174.6970 L 187.3989 175.3129 L 187.3576 175.9288 L 187.3173 176.5448 L 187.2781 177.1608 L 187.2399 177.7769 L 187.2028 178.3931 L 187.1668 179.0094 L 187.1318 179.6257 L 187.0978 180.2421 L 187.0650 180.8585 L 187.0331 181.4750 L 187.0024 182.0915 L 186.9727 182.7081 L 186.9440 183.3247 L 186.9164 183.9414 L 186.8898 184.5581 L 186.8643 185.1749 L 186.8398 185.7917 L 186.8164 186.4086 L 186.7940 187.0255 L 186.7726 187.6424 L 186.7523 188.2594 L 186.7331 188.8764 L 186.7149 189.4934 L 186.6977 190.1105 L 186.6816 190.7276 L 186.6665 191.3447 L 186.6525 191.9619 L 186.6395 192.5790 L 186.6275 193.1962 L 186.6166 193.8134 L 186.6067 194.4306 L 186.5978 195.0479 L 186.5900 195.6651 L 186.5833 196.2824 L 186.5775 196.8997 L 186.5728 197.5170 L 186.5692 198.1343 L 186.5666 198.7515 L 186.5650 199.3688 L 186.5644 199.9862 L 186.5649 200.6035 L 186.5665 201.2208 L 186.5690 201.8381 L 186.5727 202.4553 L 186.5773 203.0726 L 186.5830 203.6899 L 186.5897 204.3072 L 186.5975 204.9244 L 186.6063 205.5417 L 186.6161 206.1589 L 186.6270 206.7761 L 186.6389 207.3933 L 186.6519 208.0105 L 186.6659 208.6276 L 186.6809 209.2447 L 186.6970 209.8618 L 186.7141 210.4789 L 186.7323 211.0959 L 186.7515 211.7129 L 186.7717 212.3299 L 186.7930 212.9468 L 186.8153 213.5637 L 186.8387 214.1806 L 186.8632 214.7974 L 186.8886 215.4142 L 186.9152 216.0309 L 186.9427 216.6476 L 186.9713 217.2642 L 187.0010 217.8808 L 187.0317 218.4974 L 187.0635 219.1138 L 187.0964 219.7303 L 187.1302 220.3466 L 187.1652 220.9630 L 187.2012 221.5792 L 187.2382 222.1954 L 187.2763 222.8115 L 187.3155 223.4276 L 187.3557 224.0436 L 187.3970 224.6595 L 187.4394 225.2753 L 187.4828 225.8911 L 187.5273 226.5068 L 187.5729 227.1224 L 187.6195 227.7380 L 187.6672 228.3534 L 187.7160 228.9688 L 187.7658 229.5841 L 187.8168 230.1993 L 187.8688 230.8144 L 187.9219 231.4294 L 187.9760 232.0443 L 188.0313 232.6592 L 188.0876 233.2739 L 188.1450 233.8885 L 188.2035 234.5030 L 188.2631 235.1175 L 188.3238 235.7318 L 188.3856 236.3460 L 188.4485 236.9601 L 188.5125 237.5740 L 188.5776 238.1879 L 188.6438 238.8016 L 188.7111 239.4153 L 188.7795 240.0288 L 188.8490 240.6421 L 188.9196 241.2554 L 188.9914 241.8685 L 189.0643 242.4815 L 189.1382 243.0944 L 189.2134 243.7071 L 189.2896 244.3196 L 189.3670 244.9321 L 189.4455 245.5444 L 189.5251 246.1565 L 189.6059 246.7685 L 189.6878 247.3804 L 189.7709 247.9920 L 189.8551 248.6036 L 189.9404 249.2150 L 190.0270 249.8262 L 190.1146 250.4372 L 190.2035 251.0481 L 190.2935 251.6588 L 190.3846 252.2693 L 190.4770 252.8797 L 190.5705 253.4899 L 190.6652 254.0999 L 190.7610 254.7097 L 190.8581 255.3193 L 190.9563 255.9287 L 191.0558 256.5380 L 191.1564 257.1470 L 191.2583 257.7559 L 191.3613 258.3645 L 191.4656 258.9729 L 191.5711 259.5812 L 191.6778 260.1892 L 191.7857 260.7970 L 191.8948 261.4045 L 192.0052 262.0119 L 192.1168 262.6190 L 192.2297 263.2259 L 192.3438 263.8326 L 192.4592 264.4390 L 192.5758 265.0452 L 192.6937 265.6511 L 192.8129 266.2568 L 192.9333 266.8623 L 193.0550 267.4675 L 193.1780 268.0724 L 193.3023 268.6770 L 193.4279 269.2814 L 193.5548 269.8855 L 193.6830 270.4894 L 193.8126 271.0929 L 193.9434 271.6962 L 194.0756 272.2992 L 194.2091 272.9019 L 194.3440 273.5043 L 194.4802 274.1064 L 194.6178 274.7082 L 194.7567 275.3096 L 194.8970 275.9108 L 195.0387 276.5116 L 195.1818 277.1121 L 195.3262 277.7122 L 195.4721 278.3121 L 195.6194 278.9115 L 195.7681 279.5107 L 195.9182 280.1094 L 196.0698 280.7078 L 196.2228 281.3059 L 196.3772 281.9035 L 196.5332 282.5008 L 196.6906 283.0977 L 196.8494 283.6942 L 197.0098 284.2903 L 197.1717 284.8860 L 197.3351 285.4813 L 197.5000 286.0762 L 197.6664 286.6706 L 197.8344 287.2646 L 198.0040 287.8582 L 198.1751 288.4513 L 198.3478 289.0440 L 198.5221 289.6362 L 198.6980 290.2279 L 198.8755 290.8191 L 199.0546 291.4098 L 199.2354 292.0001 L 199.4178 292.5898 L 199.6020 293.1790 L 199.7877 293.7677 L 199.9752 294.3558 L 200.1644 294.9434 L 200.3554 295.5305 L 200.5481 296.1169 L 200.7425 296.7028 L 200.9387 297.2881 L 201.1367 297.8728 L 201.3365 298.4568 L 201.5382 299.0403 L 201.7417 299.6231 L 201.9471 300.2052 L 202.1543 300.7867 L 202.3635 301.3675 L 202.5746 301.9476 L 202.7876 302.5269 L 203.0026 303.1056 L 203.2196 303.6835 L 203.4386 304.2606 L 203.6596 304.8370 L 203.8828 305.4126 L 204.1080 305.9873 L 204.3353 306.5613 L 204.5647 307.1343 L 204.7963 307.7065 L 205.0302 308.2779 L 205.2662 308.8482 L 205.5045 309.4177 L 205.7451 309.9862 L 205.9880 310.5537 L 206.2333 311.1202 L 206.4809 311.6856 L 206.7310 312.2500 L 206.9835 312.8133 L 207.2386 313.3754 L 207.4962 313.9364 L 207.7563 314.4962 L 208.0191 315.0548 L 208.2846 315.6121 L 208.5527 316.1681 L 208.8237 316.7228 L 209.0974 317.2761 L 209.3741 317.8279 L 209.6536 318.3783 L 209.9361 318.9272 L 210.2217 319.4744 L 210.5104 320.0201 L 210.8022 320.5640 L 211.0973 321.1062 L 211.3957 321.6466 L 211.6974 322.1852 L 212.0027 322.7217 L 212.3114 323.2563 L 212.6238 323.7887 L 212.9399 324.3189 L 213.2599 324.8468 L 213.5837 325.3724 L 213.9116 325.8954 L 214.2436 326.4158 L 214.5798 326.9335 L 214.9204 327.4483 L 215.2656 327.9601 L 215.6153 328.4688 L 215.9699 328.9741 L 216.3294 329.4759 L 216.6941 329.9740 L 217.0641 330.4681 L 217.4395 330.9581 L 217.8207 331.4437 L 218.2078 331.9245 L 218.6010 332.4004 L 219.0006 332.8708 L 219.4070 333.3356 L 219.8202 333.7941 L 220.2408 334.2460 L 220.6689 334.6906 L 221.1051 335.1275 L 221.5495 335.5559 L 222.0028 335.9750 L 222.4652 336.3839 L 222.9373 336.7816 L 223.4195 337.1669 L 223.9124 337.5385 L 224.4165 337.8947 L 224.9324 338.2337 L 225.4604 338.5534 L 226.0012 338.8511 L 226.5549 339.1238 L 227.1217 339.3681 L 227.7015 339.5798 L 228.2935 339.7543 L 228.8964 339.8863 L 229.5078 339.9701 L 230.1241 340.0000 L 230.7405 339.9709 L 231.3506 339.8788 L 231.9473 339.7219 L 232.5234 339.5010 L 233.0726 339.2197 L 233.5900 338.8835 L 234.0727 338.4991 L 234.5198 338.0737 L 234.9316 337.6141 L 235.3096 337.1262 L 235.6557 336.6151 L 235.9720 336.0851 L 236.2609 335.5396 L 236.5246 334.9815 L 236.7649 334.4130 L 236.9840 333.8359 L 237.1833 333.2517 L 237.3645 332.6616 L 237.5289 332.0666 L 237.6778 331.4675 L 237.8122 330.8651 L 237.9332 330.2597 L 238.0416 329.6520 L 238.1382 329.0424 L 238.2237 328.4310 L 238.2988 327.8183 L 238.3641 327.2045 L 238.4201 326.5897 L 238.4673 325.9742 L 238.5061 325.3581 L 238.5370 324.7416 L 238.5603 324.1248 L 238.5764 323.5077 L 238.5855 322.8904 L 238.5881 322.2731 L 238.5843 321.6559 L 238.5745 321.0386 L 238.5587 320.4215 L 238.5374 319.8046 L 238.5106 319.1879 L 238.4786 318.5714 L 238.4415 317.9552 L 238.3996 317.3393 L 238.3529 316.7238 L 238.3016 316.1086 L 238.2459 315.4939 L 238.1859 314.8795 L 238.1217 314.2655 L 238.0534 313.6520 L 237.9812 313.0390 L 237.9052 312.4264 L 237.8254 311.8142 L 237.7419 311.2026 L 237.6549 310.5915 L 237.5644 309.9808 L 237.4705 309.3707 L 237.3733 308.7611 L 237.2729 308.1520 L 237.1693 307.5435 L 237.0626 306.9355 L 236.9529 306.3280 L 236.8402 305.7211 L 236.7247 305.1147 L 236.6062 304.5088 L 236.4850 303.9035 L 236.3610 303.2988 L 236.2344 302.6947 L 236.1051 302.0910 L 235.9732 301.4880 L 235.8388 300.8855 L 235.7018 300.2836 L 235.5625 299.6822 L 235.4206 299.0814 L 235.2765 298.4812 L 235.1299 297.8815 L 234.9811 297.2825 L 234.8300 296.6839 L 234.6766 296.0860 L 234.5211 295.4886 L 234.3634 294.8918 L 234.2035 294.2955 L 234.0416 293.6998 L 233.8776 293.1047 L 233.7115 292.5102 L 233.5434 291.9162 L 233.3733 291.3228 L 233.2012 290.7300 L 233.0272 290.1377 L 232.8512 289.5460 L 232.6734 288.9549 L 232.4937 288.3643 L 232.3121 287.7743 L 232.1288 287.1849 L 231.9436 286.5960 L 231.7566 286.0077 L 231.5678 285.4200 L 231.3773 284.8328 L 231.1851 284.2462 L 230.9912 283.6601 L 230.7955 283.0747 L 230.5982 282.4897 L 230.3993 281.9054 L 230.1987 281.3216 L 229.9964 280.7383 L 229.7926 280.1557 L 229.5872 279.5735 L 229.3802 278.9920 L 229.1716 278.4110 L 228.9615 277.8305 L 228.7499 277.2506 L 228.5367 276.6713 L 228.3220 276.0925 L 228.1059 275.5143 L 227.8882 274.9367 L 227.6691 274.3596 L 227.4485 273.7830 L 227.2265 273.2070 L 227.0031 272.6316 L 226.7782 272.0567 L 226.5520 271.4823 L 226.3243 270.9085 L 226.0952 270.3353 L 225.8648 269.7626 L 225.6330 269.1905 L 225.3999 268.6189 L 225.1654 268.0479 L 224.9296 267.4774 L 224.6924 266.9075 L 224.4539 266.3381 L 224.2142 265.7693 L 223.9731 265.2010 L 223.7307 264.6332 L 223.4871 264.0660 L 223.2422 263.4994 L 222.9960 262.9333 L 222.7486 262.3678 L 222.4999 261.8028 L 222.2500 261.2383 L 221.9988 260.6744 L 221.7465 260.1110 L 221.4929 259.5482 L 221.2381 258.9860 L 220.9821 258.4243 L 220.7249 257.8631 L 220.4665 257.3024 L 220.2070 256.7424 L 219.9463 256.1828 L 219.6844 255.6238 L 219.4213 255.0654 L 219.1571 254.5075 L 218.8917 253.9501 L 218.6252 253.3933 L 218.3576 252.8370 L 218.0888 252.2813 L 217.8189 251.7261 L 217.5479 251.1715 L 217.2758 250.6174 L 217.0026 250.0639 L 216.7283 249.5109 L 216.4528 248.9584 L 216.1763 248.4065 L 215.8987 247.8552 L 215.6200 247.3043 L 215.3403 246.7541 L 215.0595 246.2043 L 214.7776 245.6552 L 214.4946 245.1065 L 214.2106 244.5584 L 213.9256 244.0109 L 213.6395 243.4639 L 213.3523 242.9174 L 213.0641 242.3715 L 212.7749 241.8262 L 212.4847 241.2814 L 212.1934 240.7371 L 211.9011 240.1934 L 211.6078 239.6502 L 211.3135 239.1076 L 211.0181 238.5655 L 210.7218 238.0240 L 210.4244 237.4830 L 210.1261 236.9426 L 209.8268 236.4027 L 209.5265 235.8634 L 209.2252 235.3246 L 208.9229 234.7864 L 208.6196 234.2487 L 208.3153 233.7116 L 208.0101 233.1750 L 207.7039 232.6390 L 207.3968 232.1036 L 207.0887 231.5687 L 206.7796 231.0343 L 206.4696 230.5005 L 206.1586 229.9673 L 205.8467 229.4346 L 205.5338 228.9024 L 205.2199 228.3708 L 204.9052 227.8398 L 204.5895 227.3094 L 204.2728 226.7795 L 203.9552 226.2501 L 203.6367 225.7213 L 203.3173 225.1931 L 202.9969 224.6654 L 202.6757 224.1383 L 202.3535 223.6118 L 202.0303 223.0858 L 201.7063 222.5604 L 201.3814 222.0355 L 201.0555 221.5112 L 200.7287 220.9875 L 200.4011 220.4644 L 200.0725 219.9418 L 199.7430 219.4197 L 199.4126 218.8983 L 199.0814 218.3774 L 198.7492 217.8571 L 198.4161 217.3373 L 198.0822 216.8182 L 197.7473 216.2996 L 197.4116 215.7815 L 197.0750 215.2641 L 196.7375 214.7472 L 196.3991 214.2309 L 196.0599 213.7152 L 195.7197 213.2001 L 195.3787 212.6855 L 195.0369 212.1715 L 194.6941 211.6581 L 194.3505 211.1453 L 194.0060 210.6330 L 193.6606 210.1214 L 193.3144 209.6103 L 192.9673 209.0998 L 192.6194 208.5899 L 192.2706 208.0806 L 191.9209 207.5719 L 191.5704 207.0638 L 191.2190 206.5562 L 190.8668 206.0493 L 190.5137 205.5430 L 190.1597 205.0372 L 189.8049 204.5320 L 189.4493 204.0275 L 189.0928 203.5235 L 188.7354 203.0202 L 188.3773 202.5174 L 188.0182 202.0153 L 187.6583 201.5137 L 187.2976 201.0128 L 186.9361 200.5124 L 186.5737 200.0127 L 186.2104 199.5136 L 185.8464 199.0151 L 185.4814 198.5172 L 185.1157 198.0199 L 184.7491 197.5232 L 184.3817 197.0272 L 184.0134 196.5317 L 183.6443 196.0369 L 183.2744 195.5427 L 182.9037 195.0492 L 182.5321 194.5562 L 182.1597 194.0639 L 181.7864 193.5722 L 181.4123 193.0812 L 181.0375 192.5908 L 180.6617 192.1010 L 180.2852 191.6118 L 179.9078 191.1233 L 179.5296 190.6354 L 179.1506 190.1482 L 178.7707 189.6616 L 178.3901 189.1756 L 178.0086 188.6903 L 177.6262 188.2057 L 177.2431 187.7217 L 176.8591 187.2383 L 176.4744 186.7556 L 176.0887 186.2735 L 175.7023 185.7922 L 175.3151 185.3114 L 174.9270 184.8313 L 174.5381 184.3519 L 174.1484 183.8732 L 173.7579 183.3951 L 173.3666 182.9177 L 172.9744 182.4410 L 172.5814 181.9649 L 172.1876 181.4896 L 171.7930 181.0149 L 171.3976 180.5408 L 171.0013 180.0675 L 170.6042 179.5949 L 170.2063 179.1229 L 169.8076 178.6516 L 169.4081 178.1811 L 169.0078 177.7112 L 168.6066 177.2420 L 168.2046 176.7735 L 167.8018 176.3057 L 167.3982 175.8387 L 166.9937 175.3723 L 166.5885 174.9067 L 166.1824 174.4417 L 165.7755 173.9775 L 165.3678 173.5140 L 164.9592 173.0513 L 164.5499 172.5892 L 164.1397 172.1279 L 163.7287 171.6673 L 163.3169 171.2075 L 162.9042 170.7484 L 162.4907 170.2900 L 162.0764 169.8324 L 161.6613 169.3755 L 161.2454 168.9194 L 160.8286 168.4640 L 160.4110 168.0094 L 159.9926 167.5555 L 159.5733 167.1024 L 159.1532 166.6501 L 158.7323 166.1986 L 158.3106 165.7478 L 157.8880 165.2978 L 157.4646 164.8486 L 157.0404 164.4002 L 156.6153 163.9525 L 156.1894 163.5057 L 155.7627 163.0596 L 155.3351 162.6144 L 154.9067 162.1699 L 154.4774 161.7263 L 154.0473 161.2835 L 153.6164 160.8415 L 153.1846 160.4003 L 152.7520 159.9600 L 152.3186 159.5205 L 151.8843 159.0818 L 151.4491 158.6439 L 151.0131 158.2069 L 150.5763 157.7708 L 150.1386 157.3355 L 149.7000 156.9011 L 149.2606 156.4675 L 148.8203 156.0348 L 148.3792 155.6029 L 147.9372 155.1720 L 147.4944 154.7419 L 147.0507 154.3127 L 146.6061 153.8845 L 146.1607 153.4571 L 145.7144 153.0306 L 145.2673 152.6050 L 144.8192 152.1804 L 144.3703 151.7566 L 143.9205 151.3338 L 143.4699 150.9120 L 143.0183 150.4911 L 142.5659 150.0711 L 142.1126 149.6521 L 141.6584 149.2340 L 141.2034 148.8169 L 140.7474 148.4008 L 140.2905 147.9856 L 139.8328 147.5715 L 139.3741 147.1583 L 138.9146 146.7462 L 138.4541 146.3350 L 137.9928 145.9249 L 137.5305 145.5158 L 137.0673 145.1077 L 136.6032 144.7007 L 136.1382 144.2947 L 135.6723 143.8897 L 135.2054 143.4859 L 134.7377 143.0831 L 134.2690 142.6813 L 133.7993 142.2807 L 133.3287 141.8812 L 132.8572 141.4828 L 132.3848 141.0855 L 131.9114 140.6893 L 131.4370 140.2942 L 130.9617 139.9004 L 130.4855 139.5076 L 130.0082 139.1161 L 129.5301 138.7257 L 129.0509 138.3365 L 128.5708 137.9485 L 128.0897 137.5617 L 127.6076 137.1761 L 127.1245 136.7918 L 126.6405 136.4087 L 126.1554 136.0269 L 125.6694 135.6463 L 125.1823 135.2671 L 124.6942 134.8891 L 124.2052 134.5125 L 123.7151 134.1371 L 123.2239 133.7632 L 122.7318 133.3905 L 122.2386 133.0193 L 121.7444 132.6494 L 121.2491 132.2809 L 120.7528 131.9139 L 120.2554 131.5483 L 119.7570 131.1841 L 119.2575 130.8214 L 118.7569 130.4602 L 118.2552 130.1005 L 117.7524 129.7423 L 117.2486 129.3857 L 116.7436 129.0306 L 116.2375 128.6771 L 115.7303 128.3252 L 115.2220 127.9750 L 114.7126 127.6264 L 114.2020 127.2795 L 113.6903 126.9342 L 113.1774 126.5907 L 112.6633 126.2489 L 112.1481 125.9089 L 111.6316 125.5707 L 111.1140 125.2344 L 110.5952 124.8999 L 110.0752 124.5672 L 109.5540 124.2365 L 109.0315 123.9078 L 108.5078 123.5810 L 107.9828 123.2562 L 107.4566 122.9335 L 106.9291 122.6129 L 106.4003 122.2944 L 105.8702 121.9780 L 105.3388 121.6639 L 104.8061 121.3520 L 104.2721 121.0424 L 103.7367 120.7351 L 103.1999 120.4302 L 102.6618 120.1277 L 102.1223 119.8278 L 101.5814 119.5303 L 101.0390 119.2355 L 100.4953 118.9433 L 99.9500 118.6538 L 99.4034 118.3671 L 98.8552 118.0832 L 98.3056 117.8022 L 97.7544 117.5243 L 97.2017 117.2494 L 96.6474 116.9776 L 96.0916 116.7090 L 95.5342 116.4438 L 94.9751 116.1820 L 94.4145 115.9237 L 93.8522 115.6690 L 93.2882 115.4180 L 92.7225 115.1709 L 92.1551 114.9277 L 91.5860 114.6887 L 91.0151 114.4538 L 90.4424 114.2234 L 89.8679 113.9975 L 89.2916 113.7763 L 88.7135 113.5600 L 88.1334 113.3488 L 87.5515 113.1429 L 86.9676 112.9425 L 86.3818 112.7478 L 85.7940 112.5592 L 85.2043 112.3768 L 84.6125 112.2011 L 84.0188 112.0323 L 83.4230 111.8708 L 82.8251 111.7169 L 82.2253 111.5712 L 81.6234 111.4340 L 81.0196 111.3059 L 80.4137 111.1875 L 79.8060 111.0794 L 79.1964 110.9823 L 78.5850 110.8969 L 77.9720 110.8243 L 77.3576 110.7652 L 76.7419 110.7209 L 76.1252 110.6926 L 75.5080 110.6816 L 74.8908 110.6897 L 74.2742 110.7185 L 73.6591 110.7702 L 73.0467 110.8471 L 72.4384 110.9519 L 71.8362 111.0873 L 71.2427 111.2567 L 70.6611 111.4634 L 70.0958 111.7109 L 69.5518 112.0023 L 69.0355 112.3403 L 68.5539 112.7260 L 68.1143 113.1590 L 67.7236 113.6365 L 67.3871 114.1537 L 67.1080 114.7040 L 66.8869 115.2801 L 66.7222 115.8747 L 66.6103 116.4816 L 66.5472 117.0956 L 66.5280 117.7124 L 66.5483 118.3293 L 66.6038 118.9441 L 66.6906 119.5552 L 66.8053 120.1617 L 66.9450 120.7629 L 67.1069 121.3586 L 67.2890 121.9484 L 67.4892 122.5323 L 67.7058 123.1103 L 67.9375 123.6825 L 68.1828 124.2489 L 68.4407 124.8098 L 68.7102 125.3651 L 68.9904 125.9152 L 69.2805 126.4600 L 69.5798 126.9999 L 69.8878 127.5349 L 70.2038 128.0652 L 70.5274 128.5909 L 70.8581 129.1121 L 71.1955 129.6291 L 71.5392 130.1418 L 71.8889 130.6505 L 72.2442 131.1553 L 72.6050 131.6562 L 72.9709 132.1534 L 73.3416 132.6469 L 73.7170 133.1369 L 74.0969 133.6235 L 74.4811 134.1067 L 74.8693 134.5866 L 75.2615 135.0634 L 75.6574 135.5370 L 76.0570 136.0075 L 76.4600 136.4751 L 76.8665 136.9397 L 77.2761 137.4015 L 77.6889 137.8605 L 78.1048 138.3167 L 78.5235 138.7702 L 78.9451 139.2211 L 79.3695 139.6694 L 79.7965 140.1152 L 80.2261 140.5585 L 80.6582 140.9993 L 81.0928 141.4378 L 81.5297 141.8738 L 81.9690 142.3076 L 82.4105 142.7390 L 82.8541 143.1682 L 83.3000 143.5952 L 83.7478 144.0200 L 84.1978 144.4426 L 84.6497 144.8631 L 85.1035 145.2816 L 85.5593 145.6980 L 86.0168 146.1123 L 86.4762 146.5246 L 86.9374 146.9350 L 87.4003 147.3434 L 87.8649 147.7499 L 88.3311 148.1545 L 88.7989 148.5572 L 89.2684 148.9580 L 89.7394 149.3570 L 90.2120 149.7542 L 90.6860 150.1496 L 91.1615 150.5433 L 91.6385 150.9351 L 92.1169 151.3253 L 92.5967 151.7137 L 93.0778 152.1004 L 93.5603 152.4855 L 94.0441 152.8689 L 94.5292 153.2506 L 95.0157 153.6307 L 95.5033 154.0092 L 95.9922 154.3860 L 96.4823 154.7613 L 96.9737 155.1350 L 97.4662 155.5072 L 97.9599 155.8778 L 98.4547 156.2469 L 98.9506 156.6144 L 99.4477 156.9805 L 99.9459 157.3450 L 100.4451 157.7081 L 100.9454 158.0697 L 101.4468 158.4298 L 101.9492 158.7885 L 102.4526 159.1457 L 102.9570 159.5016 L 103.4625 159.8560 L 103.9689 160.2089 L 104.4763 160.5605 L 104.9846 160.9107 L 105.4939 161.2596 L 106.0042 161.6070 L 106.5153 161.9531 L 107.0274 162.2978 L 107.5404 162.6412 L 108.0542 162.9833 L 108.5690 163.3240 L 109.0846 163.6635 L 109.6011 164.0016 L 110.1184 164.3384 L 110.6366 164.6739 L 111.1556 165.0081 L 111.6754 165.3410 L 112.1961 165.6727 L 112.7175 166.0030 L 113.2397 166.3322 L 113.7628 166.6600 L 114.2866 166.9867 L 114.8112 167.3121 L 115.3365 167.6362 L 115.8626 167.9591 L 116.3895 168.2808 L 116.9171 168.6013 L 117.4454 168.9205 L 117.9745 169.2386 L 118.5042 169.5555 L 119.0347 169.8711 L 119.5659 170.1856 L 120.0978 170.4989 L 120.6304 170.8110 L 121.1637 171.1219 L 121.6977 171.4317 L 122.2323 171.7403 L 122.7676 172.0477 L 123.3036 172.3540 L 123.8402 172.6591 L 124.3775 172.9631 L 124.9154 173.2659 L 125.4539 173.5676 L 125.9931 173.8681 L 126.5329 174.1676 L 127.0734 174.4659 L 127.6145 174.7631 L 128.1561 175.0591 L 128.6984 175.3540 L 129.2413 175.6479 L 129.7848 175.9406 L 130.3289 176.2322 L 130.8735 176.5227 L 131.4188 176.8121 L 131.9646 177.1005 L 132.5110 177.3877 L 133.0580 177.6738 L 133.6055 177.9589 L 134.1537 178.2429 L 134.7023 178.5258 L 135.2515 178.8076 L 135.8013 179.0883 L 136.3516 179.3680 L 136.9025 179.6466 L 137.4539 179.9242 L 138.0058 180.2007 L 138.5582 180.4761 L 139.1112 180.7504 L 139.6647 181.0238 L 140.2187 181.2960 L 140.7733 181.5672 L 141.3283 181.8374 L 141.8839 182.1065 L 142.4399 182.3746 L 142.9965 182.6416 L 143.5535 182.9076 L 144.1111 183.1725 L 144.6691 183.4365 L 145.2277 183.6994 L 145.7867 183.9612 L 146.3462 184.2220 L 146.9061 184.4818 L 147.4666 184.7406 L 148.0275 184.9984 L 148.5889 185.2551 L 149.1507 185.5108 L 149.7130 185.7655 L 150.2758 186.0192 L 150.8390 186.2719 L 151.4027 186.5235 L 151.9668 186.7741 L 152.5314 187.0238 L 153.0965 187.2724 L 153.6619 187.5200 L 154.2278 187.7666 L 154.7942 188.0122 L 155.3609 188.2568 L 155.9282 188.5004 L 156.4958 188.7430 L 157.0639 188.9845 L 157.6324 189.2251 L 158.2013 189.4647 L 158.7706 189.7033 L 159.3403 189.9409 L 159.9105 190.1775 L 160.4811 190.4131 L 161.0521 190.6477 L 161.6234 190.8813 L 162.1952 191.1140 L 162.7674 191.3456 L 163.3400 191.5763 L 163.9130 191.8059 L 164.4864 192.0346 L 165.0602 192.2623 L 165.6344 192.4889 L 166.2089 192.7146 L 166.7839 192.9394 L 167.3592 193.1631 L 167.9349 193.3858 L 168.5110 193.6076 L 169.0875 193.8284 L 169.6643 194.0482 L 170.2416 194.2670 L 170.8192 194.4848 L 171.3971 194.7016 L 171.9755 194.9175 L 172.5542 195.1324 L 173.1332 195.3463 L 173.7126 195.5592 L 174.2924 195.7711 L 174.8726 195.9820 L 175.4531 196.1920 L 176.0339 196.4010 L 176.6151 196.6090 L 177.1967 196.8160 L 177.7786 197.0220 L 178.3608 197.2271 L 178.9434 197.4311 L 179.5264 197.6342 L 180.1097 197.8363 L 180.6933 198.0375 L 181.2772 198.2376 L 181.8615 198.4368 L 182.4462 198.6349 L 183.0311 198.8321 L 183.6164 199.0283 L 184.2020 199.2235 L 184.7880 199.4178 L 185.3742 199.6110 L 185.9608 199.8033 L 186.5478 199.9946 L 187.1350 200.1849 L 187.7226 200.3742 L 188.3104 200.5625 L 188.8986 200.7498 L 189.4871 200.9362 L 190.0760 201.1215 L 190.6651 201.3059 L 191.2545 201.4892 L 191.8443 201.6716 L 192.4343 201.8530 L 193.0247 202.0334 L 193.6154 202.2128 L 194.2063 202.3912 L 194.7976 202.5686 L 195.3891 202.7450 L 195.9810 202.9204 L 196.5732 203.0948 L 197.1656 203.2682 L 197.7583 203.4406 L 198.3514 203.6120 L 198.9447 203.7824 L 199.5383 203.9518 L 200.1322 204.1202 L 200.7264 204.2876 L 201.3208 204.4539 L 201.9156 204.6193 L 202.5106 204.7836 L 203.1059 204.9470 L 203.7015 205.1093 L 204.2973 205.2706 L 204.8935 205.4309 L 205.4899 205.5902 L 206.0865 205.7484 L 206.6835 205.9056 L 207.2807 206.0619 L 207.8782 206.2170 L 208.4759 206.3712 L 209.0739 206.5243 L 209.6722 206.6764 L 210.2707 206.8275 L 210.8695 206.9775 L 211.4686 207.1265 L 212.0679 207.2744 L 212.6675 207.4213 L 213.2673 207.5672 L 213.8674 207.7120 L 214.4677 207.8558 L 215.0683 207.9985 L 215.6691 208.1402 L 216.2701 208.2808 L 216.8715 208.4204 L 217.4730 208.5589 L 218.0748 208.6964 L 218.6769 208.8328 L 219.2792 208.9681 L 219.8817 209.1024 L 220.4845 209.2355 L 221.0875 209.3677 L 221.6907 209.4987 L 222.2942 209.6287 L 222.8979 209.7575 L 223.5018 209.8853 L 224.1059 210.0121 L 224.7103 210.1377 L 225.3149 210.2622 L 225.9198 210.3856 L 226.5248 210.5080 L 227.1301 210.6292 L 227.7356 210.7493 L 228.3413 210.8683 L 228.9473 210.9863 L 229.5534 211.1031 L 230.1598 211.2187 L 230.7664 211.3333 L 231.3732 211.4467 L 231.9802 211.5590 L 232.5874 211.6702 L 233.1948 211.7802 L 233.8024 211.8891 L 234.4103 211.9969 L 235.0183 212.1035 L 235.6265 212.2089 L 236.2349 212.3132 L 236.8436 212.4163 L 237.4524 212.5183 L 238.0614 212.6191 L 238.6706 212.7187 L 239.2800 212.8172 L 239.8896 212.9144 L 240.4994 213.0105 L 241.1094 213.1054 L 241.7195 213.1991 L 242.3298 213.2916 L 242.9404 213.3829 L 243.5510 213.4730 L 244.1619 213.5619 L 244.7730 213.6495 L 245.3842 213.7359 L 245.9956 213.8211 L 246.6072 213.9051 L 247.2189 213.9878 L 247.8308 214.0692 L 248.4429 214.1494 L 249.0551 214.2284 L 249.6675 214.3060 L 250.2801 214.3825 L 250.8928 214.4576 L 251.5056 214.5314 L 252.1187 214.6040 L 252.7318 214.6752 L 253.3452 214.7452 L 253.9586 214.8138 L 254.5723 214.8812 L 255.1860 214.9472 L 255.7999 215.0118 L 256.4140 215.0752 L 257.0282 215.1372 L 257.6425 215.1978 L 258.2569 215.2570 L 258.8715 215.3149 L 259.4862 215.3715 L 260.1011 215.4266 L 260.7160 215.4803 L 261.3311 215.5327 L 261.9463 215.5836 L 262.5616 215.6331 L 263.1770 215.6812 L 263.7926 215.7278 L 264.4082 215.7730 L 265.0240 215.8167 L 265.6398 215.8590 L 266.2558 215.8998 L 266.8718 215.9391 L 267.4880 215.9768 L 268.1042 216.0131 L 268.7205 216.0479 L 269.3370 216.0811 L 269.9534 216.1128 L 270.5700 216.1430 L 271.1866 216.1715 L 271.8034 216.1985 L 272.4201 216.2239 L 273.0370 216.2477 L 273.6539 216.2699 L 274.2708 216.2904 L 274.8879 216.3094 L 275.5049 216.3266 L 276.1220 216.3422 L 276.7392 216.3561 L 277.3564 216.3683 L 277.9736 216.3787 L 278.5908 216.3875 L 279.2081 216.3945 L 279.8254 216.3997 L 280.4427 216.4031 L 281.0600 216.4048 L 281.6773 216.4046 L 282.2946 216.4026 L 282.9118 216.3987 L 283.5291 216.3930 L 284.1464 216.3853 L 284.7636 216.3758 L 285.3808 216.3643 L 285.9980 216.3509 L 286.6151 216.3355 L 287.2321 216.3181 L 287.8491 216.2986 L 288.4660 216.2771 L 289.0829 216.2536 L 289.6997 216.2279 L 290.3163 216.2001 L 290.9329 216.1702 L 291.5494 216.1381 L 292.1657 216.1038 L 292.7820 216.0672 L 293.3980 216.0284 L 294.0140 215.9873 L 294.6297 215.9439 L 295.2453 215.8980 L 295.8608 215.8498 L 296.4760 215.7992 L 297.0910 215.7460 L 297.7058 215.6904 L 298.3203 215.6322 L 298.9346 215.5714 L 299.5487 215.5080 L 300.1624 215.4419 L 300.7759 215.3731 L 301.3890 215.3015 L 302.0018 215.2271 L 302.6143 215.1498 L 303.2263 215.0695 L 303.8380 214.9863 L 304.4492 214.9001 L 305.0600 214.8107 L 305.6704 214.7182 L 306.2802 214.6224 L 306.8895 214.5233 L 307.4982 214.4209 L 308.1064 214.3150 L 308.7139 214.2055 L 309.3208 214.0924 L 309.9269 213.9757 L 310.5323 213.8551 L 311.1370 213.7307 L 311.7408 213.6022 L 312.3437 213.4697 L 312.9456 213.3329 L 313.5466 213.1918 L 314.1465 213.0462 L 314.7452 212.8961 L 315.3428 212.7412 L 315.9390 212.5814 L 316.5339 212.4166 L 317.1274 212.2465 L 317.7192 212.0711 L 318.3094 211.8900 L 318.8977 211.7032 L 319.4841 211.5103 L 320.0684 211.3112 L 320.6504 211.1056 L 321.2300 210.8932 L 321.8070 210.6737 L 322.3811 210.4468 L 322.9521 210.2121 L 323.5196 209.9693 L 324.0834 209.7180 L 324.6432 209.4578 L 325.1984 209.1880 L 325.7487 208.9083 L 326.2935 208.6180 L 326.8322 208.3166 L 327.3640 208.0032 L 327.8882 207.6772 L 328.4037 207.3377 L 328.9095 206.9838 L 329.4041 206.6146 L 329.8861 206.2289 L 330.3533 205.8255 L 330.8037 205.4034 L 331.2343 204.9612 L 331.6419 204.4977 L 332.0226 204.0119 L 332.3717 203.5029 L 332.6837 202.9704 L 332.9526 202.4150 L 333.1719 201.8382 L 333.3350 201.2431 L 333.4363 200.6344" 
        fill="none" 
        stroke="#E91E63" 
        stroke-width="1.0"
        stroke-linecap="round"
        stroke-linejoin="round"/>
</svg>