<?xml version="1.0" encoding="UTF-8"?>
<svg xmlns="http://www.w3.org/2000/svg" 
     width="400.0" height="400.0" 
     viewBox="0 0 400.0 400.0">
  <rect width="100%" height="100%" fill="#ffffff"/>
  <path d="M 324.2776 200.0000 L 324.2719 199.5748 L 324.2548 199.1500 L 324.2265 198.7257 L 324.1869 198.3024 L 324.1361 197.8803 L 324.0743 197.4596 L 324.0015 197.0407 L 323.9179 196.6238 L 323.8237 196.2091 L 323.7191 195.7970 L 323.6042 195.3877 L 323.4793 194.9812 L 323.3446 194.5780 L 323.2002 194.1780 L 323.0465 193.7816 L 322.8838 193.3888 L 322.7121 192.9998 L 322.5319 192.6147 L 322.3433 192.2336 L 322.1465 191.8566 L 321.9420 191.4839 L 321.7298 191.1154 L 321.5103 190.7512 L 321.2837 190.3915 L 321.0503 190.0361 L 320.8102 189.6852 L 320.5637 189.3387 L 320.3110 188.9968 L 320.0523 188.6593 L 319.7880 188.3263 L 319.5180 187.9977 L 319.2428 187.6737 L 318.9624 187.3540 L 318.6770 187.0388 L 318.3868 186.7280 L 318.0921 186.4216 L 317.7929 186.1195 L 317.4894 185.8217 L 317.1818 185.5281 L 316.8702 185.2388 L 316.5548 184.9536 L 316.2357 184.6726 L 315.9130 184.3957 L 315.5870 184.1228 L 315.2575 183.8540 L 314.9249 183.5891 L 314.5893 183.3281 L 314.2506 183.0709 L 313.9091 182.8176 L 313.5648 182.5681 L 313.2179 182.3223 L 312.8683 182.0802 L 312.5163 181.8417 L 312.1619 181.6068 L 311.8051 181.3755 L 311.4461 181.1476 L 311.0850 180.9232 L 310.7217 180.7022 L 310.3564 180.4846 L 309.9892 180.2703 L 309.6200 180.0593 L 309.2491 179.8515 L 308.8763 179.6469 L 308.5018 179.4455 L 308.1257 179.2472 L 307.7480 179.0520 L 307.3687 178.8598 L 306.9879 178.6706 L 306.6056 178.4844 L 306.2220 178.3012 L 305.8369 178.1208 L 305.4506 177.9432 L 305.0629 177.7685 L 304.6740 177.5966 L 304.2839 177.4275 L 303.8926 177.2610 L 303.5002 177.0973 L 303.1067 176.9362 L 302.7121 176.7778 L 302.3165 176.6219 L 301.9199 176.4686 L 301.5223 176.3179 L 301.1238 176.1696 L 300.7244 176.0239 L 300.3241 175.8806 L 299.9229 175.7397 L 299.5208 175.6013 L 299.1180 175.4652 L 298.7144 175.3315 L 298.3100 175.2001 L 297.9049 175.0710 L 297.4990 174.9441 L 297.0925 174.8196 L 296.6853 174.6972 L 296.2774 174.5771 L 295.8689 174.4592 L 295.4597 174.3434 L 295.0500 174.2297 L 294.6397 174.1182 L 294.2288 174.0088 L 293.8174 173.9015 L 293.4054 173.7962 L 292.9929 173.6930 L 292.5799 173.5918 L 292.1665 173.4926 L 291.7525 173.3954 L 291.3381 173.3001 L 290.9233 173.2068 L 290.5080 173.1155 L 290.0923 173.0260 L 289.6763 172.9384 L 289.2598 172.8528 L 288.8429 172.7690 L 288.4257 172.6870 L 288.0081 172.6069 L 287.5902 172.5286 L 287.1719 172.4520 L 286.7533 172.3773 L 286.3344 172.3044 L 285.9152 172.2332 L 285.4958 172.1637 L 285.0760 172.0960 L 284.6559 172.0300 L 284.2356 171.9657 L 283.8151 171.9031 L 283.3942 171.8422 L 282.9732 171.7829 L 282.5519 171.7253 L 282.1304 171.6693 L 281.7087 171.6149 L 281.2868 171.5622 L 280.8647 171.5110 L 280.4424 171.4615 L 280.0199 171.4135 L 279.5972 171.3671 L 279.1744 171.3223 L 278.7514 171.2790 L 278.3283 171.2372 L 277.9050 171.1969 L 277.4815 171.1582 L 277.0580 171.1210 L 276.6343 171.0852 L 276.2105 171.0510 L 275.7865 171.0182 L 275.3625 170.9869 L 274.9383 170.9570 L 274.5141 170.9286 L 274.0897 170.9016 L 273.6653 170.8761 L 273.2408 170.8519 L 272.8162 170.8292 L 272.3915 170.8078 L 271.9668 170.7879 L 271.5420 170.7693 L 271.1171 170.7521 L 270.6922 170.7363 L 270.2673 170.7219 L 269.8423 170.7087 L 269.4172 170.6970 L 268.9922 170.6865 L 268.5671 170.6774 L 268.1419 170.6696 L 267.7168 170.6631 L 267.2916 170.6579 L 266.8664 170.6540 L 266.4412 170.6514 L 266.0160 170.6501 L 265.5908 170.6500 L 265.1656 170.6512 L 264.7404 170.6537 L 264.3153 170.6574 L 263.8901 170.6624 L 263.4649 170.6686 L 263.0398 170.6761 L 262.6147 170.6847 L 262.1896 170.6946 L 261.7645 170.7057 L 261.3395 170.7181 L 260.9145 170.7316 L 260.4896 170.7463 L 260.0647 170.7622 L 259.6398 170.7793 L 259.2150 170.7976 L 258.7903 170.8170 L 258.3656 170.8376 L 257.9409 170.8594 L 257.5163 170.8823 L 257.0918 170.9064 L 256.6674 170.9316 L 256.2430 170.9580 L 255.8187 170.9855 L 255.3944 171.0141 L 254.9703 171.0438 L 254.5462 171.0747 L 254.1222 171.1067 L 253.6983 171.1398 L 253.2745 171.1740 L 252.8507 171.2092 L 252.4271 171.2456 L 252.0035 171.2831 L 251.5801 171.3217 L 251.1567 171.3613 L 250.7335 171.4020 L 250.3104 171.4438 L 249.8873 171.4866 L 249.4644 171.5306 L 249.0416 171.5755 L 248.6189 171.6215 L 248.1963 171.6686 L 247.7738 171.7167 L 247.3515 171.7659 L 246.9292 171.8161 L 246.5071 171.8673 L 246.0852 171.9196 L 245.6633 171.9728 L 245.2416 172.0271 L 244.8200 172.0824 L 244.3985 172.1388 L 243.9772 172.1961 L 243.5560 172.2544 L 243.1350 172.3138 L 242.7141 172.3741 L 242.2934 172.4354 L 241.8727 172.4977 L 241.4523 172.5610 L 241.0320 172.6253 L 240.6118 172.6906 L 240.1918 172.7568 L 239.7719 172.8240 L 239.3522 172.8922 L 238.9327 172.9613 L 238.5133 173.0314 L 238.0941 173.1025 L 237.6750 173.1745 L 237.2561 173.2475 L 236.8374 173.3214 L 236.4189 173.3963 L 236.0005 173.4721 L 235.5822 173.5488 L 235.1642 173.6265 L 234.7463 173.7051 L 234.3286 173.7846 L 233.9111 173.8651 L 233.4938 173.9465 L 233.0766 174.0288 L 232.6596 174.1120 L 232.2428 174.1961 L 231.8262 174.2812 L 231.4098 174.3671 L 230.9936 174.4540 L 230.5775 174.5418 L 230.1617 174.6304 L 229.7460 174.7200 L 229.3306 174.8105 L 228.9153 174.9018 L 228.5002 174.9940 L 228.0853 175.0872 L 227.6707 175.1812 L 227.2562 175.2761 L 226.8419 175.3718 L 226.4278 175.4685 L 226.0140 175.5660 L 225.6003 175.6644 L 225.1868 175.7637 L 224.7736 175.8638 L 224.3606 175.9648 L 223.9477 176.0666 L 223.5351 176.1693 L 223.1227 176.2729 L 222.7106 176.3773 L 222.2986 176.4826 L 221.8869 176.5887 L 221.4753 176.6957 L 221.0640 176.8035 L 220.6529 176.9122 L 220.2421 177.0217 L 219.8314 177.1320 L 219.4210 177.2432 L 219.0109 177.3552 L 218.6009 177.4680 L 218.1912 177.5817 L 217.7817 177.6962 L 217.3724 177.8115 L 216.9634 177.9277 L 216.5546 178.0446 L 216.1460 178.1624 L 215.7377 178.2810 L 215.3296 178.4005 L 214.9218 178.5207 L 214.5142 178.6417 L 214.1068 178.7636 L 213.6997 178.8862 L 213.2928 179.0097 L 212.8862 179.1340 L 212.4798 179.2590 L 212.0736 179.3849 L 211.6677 179.5116 L 211.2621 179.6390 L 210.8567 179.7673 L 210.4515 179.8964 L 210.0466 180.0262 L 209.6420 180.1568 L 209.2376 180.2882 L 208.8335 180.4204 L 208.4296 180.5534 L 208.0260 180.6872 L 207.6227 180.8217 L 207.2196 180.9571 L 206.8167 181.0932 L 206.4142 181.2300 L 206.0119 181.3677 L 205.6098 181.5061 L 205.2081 181.6453 L 204.8066 181.7853 L 204.4053 181.9260 L 204.0043 182.0675 L 203.6036 182.2097 L 203.2032 182.3528 L 202.8031 182.4965 L 202.4032 182.6411 L 202.0036 182.7864 L 201.6043 182.9324 L 201.2052 183.0792 L 200.8064 183.2268 L 200.4079 183.3751 L 200.0097 183.5242 L 199.6118 183.6740 L 199.2141 183.8245 L 198.8167 183.9758 L 198.4197 184.1279 L 198.0229 184.2807 L 197.6263 184.4342 L 197.2301 184.5885 L 196.8342 184.7435 L 196.4385 184.8992 L 196.0432 185.0557 L 195.6481 185.2129 L 195.2533 185.3709 L 194.8588 185.5296 L 194.4647 185.6890 L 194.0708 185.8491 L 193.6772 186.0100 L 193.2839 186.1716 L 192.8909 186.3339 L 192.4982 186.4970 L 192.1058 186.6607 L 191.7137 186.8252 L 191.3219 186.9905 L 190.9304 187.1564 L 190.5392 187.3230 L 190.1484 187.4904 L 189.7578 187.6585 L 189.3675 187.8273 L 188.9776 187.9968 L 188.5879 188.1670 L 188.1986 188.3380 L 187.8096 188.5096 L 187.4209 188.6820 L 187.0325 188.8550 L 186.6444 189.0288 L 186.2567 189.2033 L 185.8693 189.3785 L 185.4821 189.5544 L 185.0953 189.7309 L 184.7089 189.9082 L 184.3227 190.0862 L 183.9369 190.2649 L 183.5514 190.4443 L 183.1662 190.6244 L 182.7813 190.8052 L 182.3968 190.9866 L 182.0126 191.1688 L 181.6287 191.3517 L 181.2452 191.5352 L 180.8620 191.7195 L 180.4791 191.9044 L 180.0966 192.0900 L 179.7143 192.2763 L 179.3325 192.4633 L 178.9509 192.6510 L 178.5697 192.8394 L 178.1889 193.0285 L 177.8084 193.2182 L 177.4282 193.4086 L 177.0483 193.5997 L 176.6689 193.7915 L 176.2897 193.9840 L 175.9109 194.1771 L 175.5325 194.3709 L 175.1543 194.5654 L 174.7766 194.7606 L 174.3992 194.9565 L 174.0221 195.1530 L 173.6454 195.3502 L 173.2691 195.5481 L 172.8931 195.7466 L 172.5174 195.9458 L 172.1421 196.1457 L 171.7672 196.3463 L 171.3926 196.5475 L 171.0184 196.7494 L 170.6446 196.9520 L 170.2711 197.1552 L 169.8980 197.3591 L 169.5252 197.5637 L 169.1528 197.7689 L 168.7808 197.9748 L 168.4091 198.1814 L 168.0378 198.3886 L 167.6669 198.5964 L 167.2964 198.8050 L 166.9262 199.0142 L 166.5564 199.2240 L 166.1869 199.4346 L 165.8179 199.6457 L 165.4492 199.8576 L 165.0809 200.0700 L 164.7130 200.2832 L 164.3454 200.4970 L 163.9783 200.7114 L 163.6115 200.9266 L 163.2451 201.1423 L 162.8791 201.3587 L 162.5135 201.5758 L 162.1483 201.7935 L 161.7834 202.0119 L 161.4190 202.2309 L 161.0549 202.4506 L 160.6912 202.6709 L 160.3280 202.8919 L 159.9651 203.1135 L 159.6026 203.3357 L 159.2405 203.5586 L 158.8788 203.7822 L 158.5175 204.0064 L 158.1566 204.2312 L 157.7961 204.4567 L 157.4361 204.6828 L 157.0764 204.9096 L 156.7171 205.1370 L 156.3582 205.3651 L 155.9998 205.5938 L 155.6417 205.8231 L 155.2841 206.0531 L 154.9269 206.2837 L 154.5701 206.5150 L 154.2137 206.7469 L 153.8577 206.9794 L 153.5021 207.2126 L 153.1470 207.4464 L 152.7923 207.6809 L 152.4380 207.9160 L 152.0841 208.1517 L 151.7306 208.3881 L 151.3776 208.6251 L 151.0250 208.8627 L 150.6728 209.1009 L 150.3211 209.3398 L 149.9698 209.5794 L 149.6189 209.8195 L 149.2684 210.0603 L 148.9184 210.3018 L 148.5688 210.5438 L 148.2197 210.7865 L 147.8710 211.0298 L 147.5227 211.2738 L 147.1749 211.5184 L 146.8276 211.7636 L 146.4806 212.0094 L 146.1341 212.2559 L 145.7881 212.5030 L 145.4425 212.7507 L 145.0974 212.9991 L 144.7527 213.2480 L 144.4085 213.4976 L 144.0647 213.7479 L 143.7214 213.9987 L 143.3785 214.2502 L 143.0361 214.5023 L 142.6942 214.7551 L 142.3527 215.0084 L 142.0117 215.2624 L 141.6712 215.5170 L 141.3311 215.7723 L 140.9915 216.0281 L 140.6524 216.2846 L 140.3137 216.5417 L 139.9755 216.7994 L 139.6378 217.0578 L 139.3006 217.3167 L 138.9638 217.5763 L 138.6275 217.8366 L 138.2917 218.0974 L 137.9564 218.3588 L 137.6216 218.6209 L 137.2872 218.8836 L 136.9534 219.1469 L 136.6200 219.4109 L 136.2871 219.6754 L 135.9548 219.9406 L 135.6229 220.2064 L 135.2915 220.4728 L 134.9606 220.7399 L 134.6302 221.0075 L 134.3003 221.2758 L 133.9709 221.5447 L 133.6420 221.8142 L 133.3137 222.0843 L 132.9858 222.3550 L 132.6585 222.6264 L 132.3316 222.8984 L 132.0053 223.1710 L 131.6795 223.4442 L 131.3542 223.7180 L 131.0294 223.9925 L 130.7052 224.2675 L 130.3814 224.5432 L 130.0582 224.8195 L 129.7356 225.0964 L 129.4134 225.3739 L 129.0918 225.6521 L 128.7707 225.9308 L 128.4502 226.2102 L 128.1302 226.4902 L 127.8107 226.7708 L 127.4918 227.0520 L 127.1734 227.3338 L 126.8556 227.6163 L 126.5383 227.8993 L 126.2215 228.1830 L 125.9053 228.4673 L 125.5897 228.7522 L 125.2746 229.0377 L 124.9601 229.3238 L 124.6461 229.6106 L 124.3327 229.8979 L 124.0199 230.1859 L 123.7076 230.4745 L 123.3959 230.7637 L 123.0848 231.0535 L 122.7742 231.3439 L 122.4642 231.6350 L 122.1548 231.9266 L 121.8460 232.2189 L 121.5378 232.5118 L 121.2301 232.8053 L 120.9230 233.0994 L 120.6165 233.3941 L 120.3106 233.6894 L 120.0053 233.9854 L 119.7006 234.2820 L 119.3965 234.5791 L 119.0930 234.8769 L 118.7901 235.1753 L 118.4878 235.4743 L 118.1861 235.7740 L 117.8850 236.0742 L 117.5846 236.3751 L 117.2847 236.6765 L 116.9855 236.9786 L 116.6869 237.2813 L 116.3889 237.5846 L 116.0915 237.8885 L 115.7948 238.1931 L 115.4987 238.4982 L 115.2032 238.8040 L 114.9083 239.1104 L 114.6142 239.4174 L 114.3206 239.7250 L 114.0277 240.0332 L 113.7354 240.3420 L 113.4438 240.6515 L 113.1529 240.9615 L 112.8626 241.2722 L 112.5729 241.5835 L 112.2839 241.8954 L 111.9956 242.2079 L 111.7080 242.5211 L 111.4210 242.8348 L 111.1347 243.1492 L 110.8491 243.4642 L 110.5641 243.7798 L 110.2798 244.0960 L 109.9963 244.4128 L 109.7134 244.7302 L 109.4312 245.0483 L 109.1497 245.3670 L 108.8689 245.6863 L 108.5888 246.0062 L 108.3094 246.3267 L 108.0307 246.6478 L 107.7527 246.9696 L 107.4755 247.2920 L 107.1989 247.6150 L 106.9231 247.9386 L 106.6480 248.2628 L 106.3737 248.5876 L 106.1001 248.9131 L 105.8272 249.2392 L 105.5550 249.5659 L 105.2836 249.8932 L 105.0130 250.2211 L 104.7430 250.5497 L 104.4739 250.8789 L 104.2055 251.2086 L 103.9379 251.5391 L 103.6710 251.8701 L 103.4049 252.2017 L 103.1396 252.5340 L 102.8751 252.8669 L 102.6113 253.2004 L 102.3483 253.5345 L 102.0862 253.8693 L 101.8248 254.2047 L 101.5642 254.5407 L 101.3044 254.8773 L 101.0455 255.2145 L 100.7873 255.5524 L 100.5300 255.8908 L 100.2734 256.2300 L 100.0177 256.5697 L 99.7629 256.9100 L 99.5088 257.2510 L 99.2556 257.5926 L 99.0033 257.9348 L 98.7518 258.2777 L 98.5012 258.6212 L 98.2514 258.9652 L 98.0024 259.3100 L 97.7544 259.6553 L 97.5072 260.0013 L 97.2609 260.3479 L 97.0155 260.6951 L 96.7710 261.0430 L 96.5273 261.3914 L 96.2846 261.7406 L 96.0428 262.0903 L 95.8018 262.4406 L 95.5618 262.7916 L 95.3227 263.1432 L 95.0846 263.4955 L 94.8474 263.8484 L 94.6111 264.2019 L 94.3757 264.5560 L 94.1413 264.9108 L 93.9079 265.2662 L 93.6754 265.6222 L 93.4439 265.9788 L 93.2134 266.3361 L 92.9838 266.6940 L 92.7553 267.0526 L 92.5277 267.4117 L 92.3011 267.7716 L 92.0756 268.1320 L 91.8510 268.4931 L 91.6275 268.8548 L 91.4050 269.2171 L 91.1835 269.5801 L 90.9631 269.9437 L 90.7437 270.3079 L 90.5254 270.6728 L 90.3081 271.0383 L 90.0919 271.4044 L 89.8768 271.7712 L 89.6628 272.1386 L 89.4499 272.5067 L 89.2381 272.8754 L 89.0273 273.2447 L 88.8177 273.6146 L 88.6093 273.9852 L 88.4019 274.3564 L 88.1957 274.7283 L 87.9907 275.1008 L 87.7868 275.4739 L 87.5841 275.8477 L 87.3825 276.2221 L 87.1822 276.5971 L 86.9830 276.9728 L 86.7851 277.3491 L 86.5883 277.7260 L 86.3928 278.1036 L 86.1985 278.4819 L 86.0055 278.8607 L 85.8137 279.2402 L 85.6232 279.6203 L 85.4340 280.0011 L 85.2460 280.3825 L 85.0594 280.7646 L 84.8740 281.1472 L 84.6900 281.5305 L 84.5073 281.9145 L 84.3259 282.2991 L 84.1459 282.6843 L 83.9673 283.0701 L 83.7900 283.4566 L 83.6141 283.8438 L 83.4397 284.2315 L 83.2666 284.6199 L 83.0950 285.0089 L 82.9248 285.3986 L 82.7560 285.7889 L 82.5888 286.1798 L 82.4230 286.5713 L 82.2587 286.9635 L 82.0959 287.3563 L 81.9346 287.7497 L 81.7749 288.1438 L 81.6167 288.5385 L 81.4601 288.9338 L 81.3051 289.3297 L 81.1517 289.7263 L 80.9999 290.1235 L 80.8498 290.5213 L 80.7012 290.9197 L 80.5544 291.3188 L 80.4092 291.7184 L 80.2658 292.1187 L 80.1241 292.5196 L 79.9841 292.9211 L 79.8458 293.3232 L 79.7094 293.7259 L 79.5747 294.1292 L 79.4419 294.5331 L 79.3109 294.9376 L 79.1817 295.3427 L 79.0544 295.7484 L 78.9291 296.1547 L 78.8056 296.5616 L 78.6842 296.9691 L 78.5646 297.3772 L 78.4471 297.7858 L 78.3316 298.1950 L 78.2181 298.6048 L 78.1067 299.0151 L 77.9974 299.4260 L 77.8902 299.8375 L 77.7852 300.2495 L 77.6823 300.6621 L 77.5817 301.0752 L 77.4832 301.4889 L 77.3871 301.9030 L 77.2932 302.3178 L 77.2016 302.7330 L 77.1124 303.1487 L 77.0256 303.5650 L 76.9412 303.9817 L 76.8593 304.3989 L 76.7798 304.8166 L 76.7029 305.2348 L 76.6285 305.6535 L 76.5567 306.0726 L 76.4875 306.4921 L 76.4211 306.9121 L 76.3573 307.3325 L 76.2963 307.7533 L 76.2381 308.1745 L 76.1827 308.5960 L 76.1302 309.0180 L 76.0806 309.4403 L 76.0340 309.8629 L 75.9905 310.2859 L 75.9500 310.7092 L 75.9126 311.1327 L 75.8784 311.5565 L 75.8474 311.9806 L 75.8197 312.4049 L 75.7954 312.8294 L 75.7744 313.2541 L 75.7569 313.6789 L 75.7428 314.1039 L 75.7324 314.5290 L 75.7256 314.9541 L 75.7225 315.3793 L 75.7232 315.8045 L 75.7277 316.2297 L 75.7361 316.6548 L 75.7484 317.0798 L 75.7649 317.5047 L 75.7854 317.9294 L 75.8102 318.3539 L 75.8392 318.7781 L 75.8726 319.2020 L 75.9105 319.6255 L 75.9529 320.0486 L 75.9999 320.4711 L 76.0516 320.8932 L 76.1081 321.3146 L 76.1696 321.7353 L 76.2360 322.1553 L 76.3075 322.5745 L 76.3842 322.9927 L 76.4661 323.4099 L 76.5535 323.8260 L 76.6464 324.2410 L 76.7449 324.6546 L 76.8491 325.0668 L 76.9591 325.4775 L 77.0751 325.8866 L 77.1971 326.2939 L 77.3252 326.6994 L 77.4597 327.1028 L 77.6005 327.5040 L 77.7478 327.9028 L 77.9017 328.2992 L 78.0624 328.6929 L 78.2298 329.0837 L 78.4042 329.4715 L 78.5857 329.8560 L 78.7742 330.2371 L 78.9700 330.6145 L 79.1731 330.9881 L 79.3836 331.3575 L 79.6016 331.7226 L 79.8271 332.0831 L 80.0602 332.4387 L 80.3010 332.7891 L 80.5494 333.1342 L 80.8056 333.4736 L 81.0694 333.8070 L 81.3410 334.1341 L 81.6202 334.4548 L 81.9072 334.7686 L 82.2017 335.0752 L 82.5037 335.3745 L 82.8132 335.6661 L 83.1300 335.9497 L 83.4539 336.2250 L 83.7850 336.4919 L 84.1229 336.7500 L 84.4675 336.9991 L 84.8185 337.2389 L 85.1759 337.4694 L 85.5392 337.6902 L 85.9083 337.9012 L 86.2830 338.1023 L 86.6628 338.2933 L 87.0476 338.4742 L 87.4371 338.6448 L 87.8309 338.8051 L 88.2288 338.9551 L 88.6304 339.0947 L 89.0354 339.2240 L 89.4436 339.3429 L 89.8547 339.4516 L 90.2683 339.5501 L 90.6842 339.6384 L 91.1022 339.7168 L 91.5218 339.7853 L 91.9429 339.8440 L 92.3653 339.8931 L 92.7886 339.9327 L 93.2127 339.9631 L 93.6374 339.9843 L 94.0624 339.9965 L 94.4876 340.0000 L 94.9127 339.9949 L 95.3377 339.9813 L 95.7624 339.9596 L 96.1865 339.9298 L 96.6100 339.8922 L 97.0328 339.8469 L 97.4547 339.7942 L 97.8757 339.7341 L 98.2955 339.6670 L 98.7142 339.5930 L 99.1317 339.5122 L 99.5478 339.4249 L 99.9626 339.3312 L 100.3758 339.2312 L 100.7876 339.1252 L 101.1978 339.0132 L 101.6064 338.8956 L 102.0133 338.7723 L 102.4186 338.6435 L 102.8221 338.5095 L 103.2238 338.3702 L 103.6238 338.2259 L 104.0220 338.0767 L 104.4183 337.9228 L 104.8128 337.7641 L 105.2054 337.6009 L 105.5962 337.4333 L 105.9851 337.2614 L 106.3721 337.0852 L 106.7571 336.9049 L 107.1403 336.7207 L 107.5216 336.5325 L 107.9010 336.3405 L 108.2785 336.1448 L 108.6541 335.9454 L 109.0277 335.7425 L 109.3995 335.5361 L 109.7693 335.3264 L 110.1373 335.1133 L 110.5034 334.8970 L 110.8676 334.6775 L 111.2299 334.4550 L 111.5903 334.2294 L 111.9489 334.0009 L 112.3056 333.7695 L 112.6604 333.5352 L 113.0135 333.2982 L 113.3646 333.0585 L 113.7140 332.8161 L 114.0615 332.5712 L 114.4073 332.3237 L 114.7512 332.0737 L 115.0934 331.8212 L 115.4338 331.5664 L 115.7724 331.3092 L 116.1092 331.0497 L 116.4443 330.7880 L 116.7777 330.5241 L 117.1093 330.2580 L 117.4392 329.9897 L 117.7675 329.7194 L 118.0940 329.4471 L 118.4188 329.1727 L 118.7420 328.8964 L 119.0635 328.6181 L 119.3833 328.3379 L 119.7015 328.0558 L 120.0180 327.7719 L 120.3329 327.4863 L 120.6462 327.1988 L 120.9579 326.9096 L 121.2680 326.6187 L 121.5766 326.3261 L 121.8835 326.0318 L 122.1889 325.7359 L 122.4927 325.4384 L 122.7949 325.1394 L 123.0956 324.8388 L 123.3948 324.5366 L 123.6925 324.2330 L 123.9887 323.9279 L 124.2833 323.6214 L 124.5764 323.3134 L 124.8681 323.0040 L 125.1583 322.6932 L 125.4470 322.3810 L 125.7343 322.0675 L 126.0201 321.7527 L 126.3044 321.4366 L 126.5874 321.1192 L 126.8689 320.8005 L 127.1489 320.4806 L 127.4276 320.1594 L 127.7049 319.8371 L 127.9807 319.5135 L 128.2552 319.1888 L 128.5283 318.8628 L 128.8000 318.5358 L 129.0704 318.2076 L 129.3394 317.8783 L 129.6070 317.5479 L 129.8733 317.2164 L 130.1383 316.8839 L 130.4019 316.5503 L 130.6642 316.2156 L 130.9252 315.8799 L 131.1849 315.5432 L 131.4433 315.2055 L 131.7003 314.8669 L 131.9561 314.5272 L 132.2106 314.1866 L 132.4638 313.8450 L 132.7158 313.5025 L 132.9665 313.1590 L 133.2159 312.8147 L 133.4641 312.4694 L 133.7110 312.1233 L 133.9567 311.7762 L 134.2011 311.4283 L 134.4443 311.0795 L 134.6863 310.7299 L 134.9271 310.3795 L 135.1667 310.0282 L 135.4050 309.6761 L 135.6422 309.3231 L 135.8781 308.9694 L 136.1129 308.6149 L 136.3464 308.2596 L 136.5788 307.9035 L 136.8100 307.5467 L 137.0401 307.1890 L 137.2689 306.8307 L 137.4967 306.4716 L 137.7232 306.1118 L 137.9486 305.7513 L 138.1729 305.3900 L 138.3960 305.0280 L 138.6179 304.6654 L 138.8388 304.3020 L 139.0585 303.9380 L 139.2771 303.5733 L 139.4945 303.2079 L 139.7109 302.8418 L 139.9261 302.4751 L 140.1402 302.1078 L 140.3533 301.7398 L 140.5652 301.3712 L 140.7760 301.0019 L 140.9857 300.6320 L 141.1944 300.2615 L 141.4019 299.8904 L 141.6084 299.5187 L 141.8138 299.1464 L 142.0182 298.7736 L 142.2215 298.4001 L 142.4237 298.0261 L 142.6248 297.6514 L 142.8249 297.2763 L 143.0239 296.9005 L 143.2219 296.5242 L 143.4189 296.1474 L 143.6147 295.7700 L 143.8096 295.3921 L 144.0034 295.0136 L 144.1962 294.6346 L 144.3880 294.2551 L 144.5787 293.8751 L 144.7684 293.4946 L 144.9571 293.1135 L 145.1448 292.7320 L 145.3315 292.3500 L 145.5171 291.9674 L 145.7018 291.5844 L 145.8854 291.2009 L 146.0680 290.8169 L 146.2497 290.4325 L 146.4303 290.0476 L 146.6100 289.6622 L 146.7887 289.2763 L 146.9663 288.8901 L 147.1430 288.5033 L 147.3188 288.1161 L 147.4935 287.7285 L 147.6673 287.3404 L 147.8401 286.9519 L 148.0119 286.5630 L 148.1827 286.1736 L 148.3526 285.7838 L 148.5216 285.3936 L 148.6896 285.0030 L 148.8566 284.6120 L 149.0226 284.2205 L 149.1877 283.8287 L 149.3519 283.4365 L 149.5151 283.0438 L 149.6774 282.6508 L 149.8387 282.2574 L 149.9991 281.8636 L 150.1586 281.4695 L 150.3171 281.0749 L 150.4747 280.6800 L 150.6313 280.2847 L 150.7871 279.8890 L 150.9419 279.4930 L 151.0957 279.0966 L 151.2487 278.6999 L 151.4007 278.3028 L 151.5518 277.9054 L 151.7021 277.5076 L 151.8513 277.1095 L 151.9997 276.7110 L 152.1472 276.3122 L 152.2938 275.9130 L 152.4394 275.5136 L 152.5842 275.1138 L 152.7280 274.7136 L 152.8710 274.3132 L 153.0131 273.9124 L 153.1542 273.5113 L 153.2945 273.1099 L 153.4339 272.7082 L 153.5724 272.3062 L 153.7100 271.9039 L 153.8467 271.5013 L 153.9825 271.0983 L 154.1175 270.6951 L 154.2515 270.2916 L 154.3847 269.8878 L 154.5170 269.4837 L 154.6485 269.0794 L 154.7790 268.6747 L 154.9087 268.2698 L 155.0376 267.8645 L 155.1655 267.4590 L 155.2926 267.0533 L 155.4188 266.6472 L 155.5442 266.2409 L 155.6687 265.8344 L 155.7923 265.4275 L 155.9151 265.0204 L 156.0370 264.6131 L 156.1580 264.2055 L 156.2782 263.7976 L 156.3976 263.3895 L 156.5161 262.9812 L 156.6337 262.5726 L 156.7505 262.1637 L 156.8664 261.7546 L 156.9815 261.3453 L 157.0958 260.9357 L 157.2092 260.5260 L 157.3218 260.1159 L 157.4335 259.7057 L 157.5444 259.2952 L 157.6544 258.8845 L 157.7637 258.4735 L 157.8720 258.0624 L 157.9796 257.6510 L 158.0863 257.2394 L 158.1921 256.8276 L 158.2972 256.4156 L 158.4014 256.0033 L 158.5048 255.5909 L 158.6073 255.1782 L 158.7091 254.7654 L 158.8100 254.3523 L 158.9101 253.9391 L 159.0093 253.5256 L 159.1078 253.1120 L 159.2054 252.6981 L 159.3022 252.2841 L 159.3981 251.8699 L 159.4933 251.4555 L 159.5876 251.0409 L 159.6812 250.6261 L 159.7739 250.2111 L 159.8658 249.7959 L 159.9569 249.3806 L 160.0472 248.9651 L 160.1366 248.5494 L 160.2253 248.1336 L 160.3131 247.7175 L 160.4002 247.3013 L 160.4864 246.8850 L 160.5718 246.4685 L 160.6565 246.0518 L 160.7403 245.6349 L 160.8233 245.2179 L 160.9055 244.8007 L 160.9869 244.3834 L 161.0675 243.9659 L 161.1474 243.5482 L 161.2264 243.1304 L 161.3046 242.7125 L 161.3820 242.2944 L 161.4586 241.8762 L 161.5345 241.4578 L 161.6095 241.0393 L 161.6838 240.6206 L 161.7572 240.2018 L 161.8299 239.7828 L 161.9017 239.3638 L 161.9728 238.9445 L 162.0431 238.5252 L 162.1126 238.1057 L 162.1813 237.6861 L 162.2492 237.2663 L 162.3164 236.8465 L 162.3827 236.4265 L 162.4483 236.0064 L 162.5131 235.5861 L 162.5771 235.1658 L 162.6403 234.7453 L 162.7027 234.3247 L 162.7643 233.9040 L 162.8252 233.4832 L 162.8853 233.0622 L 162.9446 232.6412 L 163.0031 232.2200 L 163.0609 231.7988 L 163.1178 231.3774 L 163.1740 230.9559 L 163.2294 230.5344 L 163.2840 230.1127 L 163.3379 229.6909 L 163.3910 229.2690 L 163.4433 228.8471 L 163.4948 228.4250 L 163.5456 228.0028 L 163.5956 227.5806 L 163.6448 227.1582 L 163.6932 226.7358 L 163.7409 226.3133 L 163.7877 225.8907 L 163.8339 225.4680 L 163.8792 225.0452 L 163.9238 224.6223 L 163.9676 224.1994 L 164.0106 223.7764 L 164.0529 223.3533 L 164.0944 222.9301 L 164.1351 222.5069 L 164.1751 222.0836 L 164.2143 221.6602 L 164.2527 221.2367 L 164.2904 220.8132 L 164.3273 220.3896 L 164.3634 219.9659 L 164.3988 219.5422 L 164.4334 219.1184 L 164.4672 218.6945 L 164.5003 218.2706 L 164.5326 217.8467 L 164.5641 217.4226 L 164.5949 216.9985 L 164.6249 216.5744 L 164.6542 216.1502 L 164.6826 215.7260 L 164.7104 215.3017 L 164.7373 214.8773 L 164.7635 214.4529 L 164.7890 214.0285 L 164.8136 213.6040 L 164.8376 213.1795 L 164.8607 212.7549 L 164.8831 212.3303 L 164.9047 211.9057 L 164.9256 211.4810 L 164.9457 211.0562 L 164.9651 210.6315 L 164.9837 210.2067 L 165.0015 209.7819 L 165.0186 209.3570 L 165.0349 208.9321 L 165.0504 208.5072 L 165.0652 208.0822 L 165.0792 207.6573 L 165.0925 207.2323 L 165.1050 206.8073 L 165.1168 206.3822 L 165.1278 205.9572 L 165.1380 205.5321 L 165.1475 205.1070 L 165.1562 204.6819 L 165.1642 204.2568 L 165.1714 203.8316 L 165.1779 203.4065 L 165.1836 202.9813 L 165.1885 202.5561 L 165.1927 202.1310 L 165.1961 201.7058 L 165.1988 201.2806 L 165.2007 200.8554 L 165.2018 200.4302 L 165.2022 200.0050 L 165.2018 199.5798 L 165.2007 199.1546 L 165.1988 198.7294 L 165.1962 198.3042 L 165.1928 197.8790 L 165.1886 197.4538 L 165.1837 197.0286 L 165.1780 196.6035 L 165.1716 196.1783 L 165.1644 195.7532 L 165.1564 195.3281 L 165.1477 194.9030 L 165.1383 194.4779 L 165.1280 194.0528 L 165.1171 193.6277 L 165.1053 193.2027 L 165.0928 192.7777 L 165.0796 192.3527 L 165.0656 191.9277 L 165.0508 191.5028 L 165.0352 191.0778 L 165.0190 190.6529 L 165.0019 190.2281 L 164.9841 189.8033 L 164.9655 189.3785 L 164.9462 188.9537 L 164.9261 188.5290 L 164.9052 188.1043 L 164.8836 187.6796 L 164.8612 187.2550 L 164.8381 186.8305 L 164.8142 186.4059 L 164.7896 185.9814 L 164.7641 185.5570 L 164.7380 185.1326 L 164.7110 184.7083 L 164.6833 184.2840 L 164.6548 183.8597 L 164.6256 183.4355 L 164.5956 183.0114 L 164.5649 182.5873 L 164.5333 182.1633 L 164.5010 181.7393 L 164.4680 181.3154 L 164.4342 180.8915 L 164.3996 180.4677 L 164.3643 180.0440 L 164.3281 179.6203 L 164.2913 179.1967 L 164.2536 178.7732 L 164.2152 178.3497 L 164.1760 177.9263 L 164.1361 177.5030 L 164.0954 177.0798 L 164.0539 176.6566 L 164.0116 176.2335 L 163.9686 175.8105 L 163.9248 175.3876 L 163.8803 174.9647 L 163.8349 174.5419 L 163.7888 174.1192 L 163.7420 173.6966 L 163.6943 173.2741 L 163.6459 172.8517 L 163.5967 172.4293 L 163.5468 172.0071 L 163.4960 171.5849 L 163.4445 171.1628 L 163.3922 170.7408 L 163.3392 170.3190 L 163.2853 169.8972 L 163.2307 169.4755 L 163.1753 169.0539 L 163.1191 168.6325 L 163.0622 168.2111 L 163.0045 167.7898 L 162.9460 167.3687 L 162.8867 166.9476 L 162.8266 166.5267 L 162.7658 166.1059 L 162.7042 165.6851 L 162.6417 165.2645 L 162.5786 164.8441 L 162.5146 164.4237 L 162.4498 164.0035 L 162.3843 163.5833 L 162.3179 163.1634 L 162.2508 162.7435 L 162.1829 162.3237 L 162.1142 161.9041 L 162.0447 161.4846 L 161.9745 161.0653 L 161.9034 160.6461 L 161.8316 160.2270 L 161.7589 159.8080 L 161.6855 159.3892 L 161.6113 158.9705 L 161.5363 158.5520 L 161.4604 158.1336 L 161.3838 157.7154 L 161.3064 157.2973 L 161.2282 156.8793 L 161.1492 156.4615 L 161.0694 156.0439 L 160.9888 155.6264 L 160.9074 155.2091 L 160.8252 154.7919 L 160.7422 154.3749 L 160.6584 153.9580 L 160.5738 153.5413 L 160.4884 153.1248 L 160.4022 152.7084 L 160.3152 152.2922 L 160.2274 151.8762 L 160.1387 151.4603 L 160.0493 151.0446 L 159.9590 150.6291 L 159.8679 150.2138 L 159.7761 149.7986 L 159.6834 149.3836 L 159.5899 148.9689 L 159.4955 148.5542 L 159.4004 148.1398 L 159.3044 147.7256 L 159.2077 147.3116 L 159.1101 146.8977 L 159.0116 146.4841 L 158.9124 146.0706 L 158.8123 145.6573 L 158.7115 145.2443 L 158.6097 144.8314 L 158.5072 144.4188 L 158.4038 144.0063 L 158.2996 143.5941 L 158.1946 143.1821 L 158.0888 142.7702 L 157.9821 142.3586 L 157.8746 141.9473 L 157.7662 141.5361 L 157.6570 141.1252 L 157.5470 140.7144 L 157.4361 140.3039 L 157.3244 139.8937 L 157.2119 139.4836 L 157.0985 139.0738 L 156.9842 138.6643 L 156.8692 138.2549 L 156.7532 137.8458 L 156.6365 137.4370 L 156.5188 137.0284 L 156.4004 136.6200 L 156.2810 136.2119 L 156.1609 135.8040 L 156.0398 135.3964 L 155.9179 134.9891 L 155.7952 134.5820 L 155.6716 134.1751 L 155.5471 133.7686 L 155.4218 133.3623 L 155.2956 132.9562 L 155.1685 132.5505 L 155.0406 132.1450 L 154.9118 131.7397 L 154.7821 131.3348 L 154.6516 130.9301 L 154.5201 130.5257 L 154.3878 130.1216 L 154.2547 129.7178 L 154.1206 129.3143 L 153.9857 128.9111 L 153.8499 128.5082 L 153.7132 128.1055 L 153.5756 127.7032 L 153.4371 127.3012 L 153.2978 126.8995 L 153.1575 126.4981 L 153.0164 126.0970 L 152.8743 125.6962 L 152.7314 125.2957 L 152.5876 124.8956 L 152.4428 124.4958 L 152.2972 124.0963 L 152.1507 123.6972 L 152.0032 123.2983 L 151.8548 122.8999 L 151.7056 122.5017 L 151.5554 122.1039 L 151.4043 121.7065 L 151.2523 121.3094 L 151.0993 120.9126 L 150.9455 120.5163 L 150.7907 120.1202 L 150.6350 119.7246 L 150.4784 119.3293 L 150.3208 118.9343 L 150.1623 118.5398 L 150.0029 118.1456 L 149.8425 117.7518 L 149.6812 117.3584 L 149.5189 116.9654 L 149.3558 116.5727 L 149.1916 116.1805 L 149.0265 115.7886 L 148.8605 115.3972 L 148.6935 115.0062 L 148.5255 114.6155 L 148.3566 114.2253 L 148.1868 113.8355 L 148.0159 113.4461 L 147.8441 113.0572 L 147.6713 112.6687 L 147.4976 112.2806 L 147.3229 111.8930 L 147.1472 111.5058 L 146.9705 111.1190 L 146.7928 110.7327 L 146.6142 110.3468 L 146.4346 109.9614 L 146.2539 109.5765 L 146.0723 109.1921 L 145.8897 108.8081 L 145.7061 108.4246 L 145.5215 108.0415 L 145.3358 107.6590 L 145.1492 107.2769 L 144.9615 106.8954 L 144.7729 106.5143 L 144.5832 106.1338 L 144.3925 105.7538 L 144.2007 105.3742 L 144.0080 104.9952 L 143.8142 104.6168 L 143.6193 104.2388 L 143.4235 103.8614 L 143.2266 103.4846 L 143.0286 103.1083 L 142.8296 102.7325 L 142.6295 102.3573 L 142.4284 101.9827 L 142.2262 101.6086 L 142.0230 101.2352 L 141.8187 100.8623 L 141.6133 100.4900 L 141.4068 100.1182 L 141.1993 99.7471 L 140.9907 99.3766 L 140.7809 99.0067 L 140.5701 98.6375 L 140.3582 98.2688 L 140.1453 97.9008 L 139.9312 97.5335 L 139.7159 97.1667 L 139.4996 96.8007 L 139.2822 96.4353 L 139.0636 96.0706 L 138.8440 95.7065 L 138.6231 95.3431 L 138.4012 94.9804 L 138.1781 94.6185 L 137.9539 94.2572 L 137.7285 93.8966 L 137.5020 93.5368 L 137.2743 93.1777 L 137.0455 92.8193 L 136.8155 92.4617 L 136.5843 92.1048 L 136.3519 91.7487 L 136.1184 91.3934 L 135.8836 91.0389 L 135.6477 90.6851 L 135.4106 90.3322 L 135.1723 89.9801 L 134.9328 89.6287 L 134.6920 89.2783 L 134.4501 88.9286 L 134.2069 88.5798 L 133.9624 88.2319 L 133.7168 87.8848 L 133.4699 87.5387 L 133.2218 87.1934 L 132.9724 86.8490 L 132.7217 86.5055 L 132.4698 86.1630 L 132.2166 85.8214 L 131.9621 85.4808 L 131.7064 85.1411 L 131.4493 84.8024 L 131.1910 84.4646 L 130.9313 84.1279 L 130.6704 83.7922 L 130.4081 83.4575 L 130.1445 83.1239 L 129.8796 82.7913 L 129.6133 82.4598 L 129.3457 82.1294 L 129.0767 81.8001 L 128.8064 81.4719 L 128.5347 81.1448 L 128.2616 80.8189 L 127.9872 80.4941 L 127.7114 80.1705 L 127.4341 79.8481 L 127.1555 79.5269 L 126.8755 79.2070 L 126.5940 78.8882 L 126.3111 78.5708 L 126.0268 78.2547 L 125.7410 77.9398 L 125.4538 77.6263 L 125.1651 77.3141 L 124.8750 77.0033 L 124.5833 76.6939 L 124.2902 76.3858 L 123.9956 76.0792 L 123.6995 75.7741 L 123.4018 75.4704 L 123.1027 75.1683 L 122.8020 74.8676 L 122.4998 74.5685 L 122.1960 74.2710 L 121.8907 73.9751 L 121.5838 73.6808 L 121.2753 73.3882 L 120.9653 73.0972 L 120.6536 72.8079 L 120.3403 72.5204 L 120.0254 72.2347 L 119.7089 71.9508 L 119.3908 71.6687 L 119.0710 71.3885 L 118.7495 71.1101 L 118.4264 70.8337 L 118.1016 70.5593 L 117.7752 70.2869 L 117.4470 70.0165 L 117.1171 69.7483 L 116.7855 69.4821 L 116.4522 69.2181 L 116.1171 68.9563 L 115.7803 68.6968 L 115.4417 68.4396 L 115.1014 68.1847 L 114.7593 67.9322 L 114.4154 67.6822 L 114.0697 67.4346 L 113.7222 67.1896 L 113.3729 66.9471 L 113.0217 66.7074 L 112.6688 66.4703 L 112.3139 66.2360 L 111.9573 66.0045 L 111.5987 65.7759 L 111.2384 65.5503 L 110.8761 65.3276 L 110.5120 65.1081 L 110.1459 64.8917 L 109.7780 64.6786 L 109.4082 64.4687 L 109.0365 64.2623 L 108.6629 64.0593 L 108.2873 63.8598 L 107.9099 63.6640 L 107.5306 63.4720 L 107.1493 63.2837 L 106.7662 63.0993 L 106.3811 62.9190 L 105.9942 62.7427 L 105.6053 62.5707 L 105.2146 62.4029 L 104.8220 62.2396 L 104.4276 62.0809 L 104.0313 61.9268 L 103.6332 61.7775 L 103.2332 61.6331 L 102.8315 61.4937 L 102.4281 61.3595 L 102.0229 61.2307 L 101.6160 61.1072 L 101.2074 60.9894 L 100.7973 60.8773 L 100.3855 60.7712 L 99.9723 60.6711 L 99.5576 60.5772 L 99.1415 60.4897 L 98.7241 60.4088 L 98.3054 60.3346 L 97.8855 60.2673 L 97.4646 60.2071 L 97.0427 60.1542 L 96.6200 60.1088 L 96.1965 60.0710 L 95.7723 60.0410 L 95.3477 60.0191 L 94.9227 60.0053 L 94.4976 60.0000 L 94.0724 60.0033 L 93.6474 60.0153 L 93.2227 60.0363 L 92.7986 60.0664 L 92.3752 60.1058 L 91.9528 60.1547 L 91.5317 60.2132 L 91.1120 60.2814 L 90.6941 60.3596 L 90.2781 60.4477 L 89.8644 60.5459 L 89.4533 60.6544 L 89.0450 60.7731 L 88.6399 60.9021 L 88.2382 61.0415 L 87.8402 61.1912 L 87.4463 61.3513 L 87.0567 61.5216 L 86.6718 61.7023 L 86.2918 61.8931 L 85.9171 62.0939 L 85.5478 62.3047 L 85.1843 62.5253 L 84.8269 62.7555 L 84.4756 62.9952 L 84.1309 63.2440 L 83.7928 63.5019 L 83.4616 63.7686 L 83.1375 64.0437 L 82.8205 64.3271 L 82.5109 64.6185 L 82.2087 64.9176 L 81.9140 65.2241 L 81.6269 65.5377 L 81.3475 65.8582 L 81.0757 66.1852 L 80.8117 66.5185 L 80.5553 66.8577 L 80.3067 67.2027 L 80.0658 67.5530 L 79.8325 67.9085 L 79.6068 68.2688 L 79.3887 68.6338 L 79.1780 69.0031 L 78.9747 69.3766 L 78.7787 69.7539 L 78.5900 70.1349 L 78.4084 70.5194 L 78.2339 70.9071 L 78.0662 71.2979 L 77.9054 71.6915 L 77.7514 72.0878 L 77.6039 72.4866 L 77.4629 72.8878 L 77.3283 73.2911 L 77.2000 73.6965 L 77.0779 74.1037 L 76.9618 74.5128 L 76.8516 74.9235 L 76.7473 75.3357 L 76.6487 75.7493 L 76.5556 76.1642 L 76.4681 76.5803 L 76.3860 76.9974 L 76.3092 77.4156 L 76.2376 77.8348 L 76.1711 78.2547 L 76.1095 78.6755 L 76.0529 79.0969 L 76.0010 79.5189 L 75.9539 79.9415 L 75.9114 80.3645 L 75.8735 80.7880 L 75.8400 81.2119 L 75.8108 81.6361 L 75.7860 82.0606 L 75.7653 82.4853 L 75.7488 82.9102 L 75.7363 83.3352 L 75.7278 83.7603 L 75.7232 84.1855 L 75.7225 84.6107 L 75.7255 85.0359 L 75.7322 85.4610 L 75.7426 85.8861 L 75.7565 86.3110 L 75.7739 86.7359 L 75.7948 87.1606 L 75.8191 87.5851 L 75.8467 88.0094 L 75.8776 88.4335 L 75.9118 88.8573 L 75.9491 89.2809 L 75.9895 89.7041 L 76.0330 90.1271 L 76.0795 90.5497 L 76.1290 90.9721 L 76.1814 91.3940 L 76.2367 91.8156 L 76.2949 92.2368 L 76.3558 92.6576 L 76.4195 93.0780 L 76.4859 93.4980 L 76.5550 93.9175 L 76.6268 94.3366 L 76.7011 94.7553 L 76.7780 95.1735 L 76.8574 95.5912 L 76.9393 96.0085 L 77.0236 96.4252 L 77.1104 96.8415 L 77.1995 97.2572 L 77.2910 97.6725 L 77.3848 98.0872 L 77.4810 98.5014 L 77.5793 98.9150 L 77.6799 99.3282 L 77.7828 99.7407 L 77.8877 100.1528 L 77.9949 100.5643 L 78.1041 100.9752 L 78.2155 101.3855 L 78.3289 101.7953 L 78.4444 102.2046 L 78.5618 102.6132 L 78.6813 103.0213 L 78.8028 103.4288 L 78.9262 103.8357 L 79.0515 104.2420 L 79.1787 104.6477 L 79.3078 105.0528 L 79.4388 105.4574 L 79.5716 105.8613 L 79.7062 106.2646 L 79.8426 106.6673 L 79.9808 107.0695 L 80.1207 107.4710 L 80.2624 107.8719 L 80.4059 108.2722 L 80.5510 108.6718 L 80.6978 109.0709 L 80.8463 109.4693 L 80.9964 109.8671 L 81.1481 110.2643 L 81.3015 110.6609 L 81.4565 111.0569 L 81.6130 111.4522 L 81.7712 111.8469 L 81.9309 112.2410 L 82.0921 112.6344 L 82.2548 113.0272 L 82.4191 113.4194 L 82.5849 113.8110 L 82.7521 114.2019 L 82.9208 114.5922 L 83.0909 114.9819 L 83.2625 115.3709 L 83.4356 115.7593 L 83.6100 116.1471 L 83.7859 116.5342 L 83.9631 116.9207 L 84.1417 117.3066 L 84.3217 117.6918 L 84.5030 118.0764 L 84.6857 118.4604 L 84.8697 118.8437 L 85.0550 119.2264 L 85.2416 119.6085 L 85.4295 119.9899 L 85.6187 120.3707 L 85.8092 120.7508 L 86.0010 121.1303 L 86.1940 121.5092 L 86.3882 121.8874 L 86.5837 122.2650 L 86.7804 122.6420 L 86.9783 123.0183 L 87.1775 123.3940 L 87.3778 123.7691 L 87.5793 124.1435 L 87.7820 124.5173 L 87.9859 124.8904 L 88.1909 125.2629 L 88.3971 125.6348 L 88.6044 126.0060 L 88.8128 126.3766 L 89.0224 126.7466 L 89.2331 127.1159 L 89.4449 127.4846 L 89.6578 127.8527 L 89.8718 128.2201 L 90.0869 128.5869 L 90.3030 128.9531 L 90.5203 129.3186 L 90.7386 129.6835 L 90.9579 130.0477 L 91.1783 130.4113 L 91.3998 130.7743 L 91.6222 131.1367 L 91.8458 131.4984 L 92.0703 131.8595 L 92.2958 132.2199 L 92.5224 132.5798 L 92.7499 132.9390 L 92.9784 133.2975 L 93.2080 133.6554 L 93.4385 134.0127 L 93.6700 134.3694 L 93.9024 134.7254 L 94.1358 135.0808 L 94.3702 135.4356 L 94.6055 135.7898 L 94.8418 136.1433 L 95.0790 136.4962 L 95.3171 136.8484 L 95.5562 137.2001 L 95.7962 137.5511 L 96.0371 137.9014 L 96.2789 138.2512 L 96.5216 138.6003 L 96.7652 138.9488 L 97.0097 139.2967 L 97.2551 139.6439 L 97.5014 139.9905 L 97.7486 140.3365 L 97.9966 140.6819 L 98.2455 141.0266 L 98.4953 141.3707 L 98.7459 141.7142 L 98.9974 142.0571 L 99.2497 142.3993 L 99.5029 142.7409 L 99.7569 143.0819 L 100.0117 143.4223 L 100.2674 143.7620 L 100.5239 144.1011 L 100.7812 144.4396 L 101.0394 144.7775 L 101.2983 145.1148 L 101.5581 145.4514 L 101.8187 145.7874 L 102.0800 146.1228 L 102.3422 146.4576 L 102.6051 146.7917 L 102.8689 147.1252 L 103.1334 147.4581 L 103.3987 147.7904 L 103.6648 148.1221 L 103.9316 148.4531 L 104.1992 148.7836 L 104.4676 149.1134 L 104.7367 149.4425 L 105.0066 149.7711 L 105.2772 150.0991 L 105.5486 150.4264 L 105.8208 150.7531 L 106.0936 151.0792 L 106.3672 151.4047 L 106.6416 151.7295 L 106.9167 152.0538 L 107.1924 152.3774 L 107.4690 152.7004 L 107.7462 153.0228 L 108.0242 153.3446 L 108.3028 153.6657 L 108.5822 153.9862 L 108.8623 154.3062 L 109.1431 154.6255 L 109.4246 154.9442 L 109.7067 155.2622 L 109.9896 155.5797 L 110.2732 155.8965 L 110.5574 156.2128 L 110.8424 156.5284 L 111.1280 156.8434 L 111.4143 157.1578 L 111.7012 157.4715 L 111.9888 157.7847 L 112.2771 158.0972 L 112.5661 158.4091 L 112.8557 158.7204 L 113.1460 159.0311 L 113.4370 159.3412 L 113.7286 159.6507 L 114.0208 159.9595 L 114.3137 160.2677 L 114.6072 160.5754 L 114.9014 160.8824 L 115.1962 161.1888 L 115.4917 161.4945 L 115.7878 161.7997 L 116.0845 162.1043 L 116.3819 162.4082 L 116.6798 162.7115 L 116.9784 163.0142 L 117.2777 163.3163 L 117.5775 163.6178 L 117.8780 163.9187 L 118.1790 164.2189 L 118.4807 164.5186 L 118.7830 164.8176 L 119.0859 165.1160 L 119.3894 165.4138 L 119.6935 165.7110 L 119.9982 166.0076 L 120.3035 166.3036 L 120.6093 166.5989 L 120.9158 166.8937 L 121.2229 167.1878 L 121.5305 167.4813 L 121.8388 167.7742 L 122.1476 168.0665 L 122.4570 168.3581 L 122.7669 168.6492 L 123.0775 168.9396 L 123.3886 169.2295 L 123.7003 169.5187 L 124.0126 169.8073 L 124.3254 170.0953 L 124.6388 170.3826 L 124.9527 170.6694 L 125.2672 170.9555 L 125.5823 171.2411 L 125.8979 171.5260 L 126.2141 171.8103 L 126.5308 172.0940 L 126.8481 172.3771 L 127.1659 172.6595 L 127.4843 172.9414 L 127.8032 173.2226 L 128.1227 173.5032 L 128.4427 173.7832 L 128.7632 174.0626 L 129.0843 174.3414 L 129.4059 174.6195 L 129.7280 174.8970 L 130.0507 175.1740 L 130.3738 175.4503 L 130.6976 175.7260 L 131.0218 176.0010 L 131.3465 176.2755 L 131.6718 176.5493 L 131.9976 176.8226 L 132.3239 177.0952 L 132.6508 177.3672 L 132.9781 177.6385 L 133.3060 177.9093 L 133.6343 178.1794 L 133.9632 178.4490 L 134.2926 178.7179 L 134.6224 178.9862 L 134.9528 179.2538 L 135.2837 179.5209 L 135.6151 179.7873 L 135.9469 180.0531 L 136.2793 180.3183 L 136.6122 180.5829 L 136.9455 180.8468 L 137.2794 181.1102 L 137.6137 181.3729 L 137.9485 181.6350 L 138.2838 181.8964 L 138.6196 182.1573 L 138.9559 182.4175 L 139.2926 182.6771 L 139.6299 182.9361 L 139.9676 183.1945 L 140.3057 183.4522 L 140.6444 183.7093 L 140.9835 183.9658 L 141.3231 184.2217 L 141.6632 184.4769 L 142.0037 184.7316 L 142.3447 184.9856 L 142.6862 185.2389 L 143.0281 185.4917 L 143.3705 185.7438 L 143.7133 185.9953 L 144.0566 186.2462 L 144.4004 186.4964 L 144.7446 186.7461 L 145.0893 186.9951 L 145.4344 187.2434 L 145.7800 187.4912 L 146.1260 187.7383 L 146.4725 187.9848 L 146.8194 188.2306 L 147.1668 188.4758 L 147.5146 188.7204 L 147.8628 188.9644 L 148.2115 189.2077 L 148.5606 189.4504 L 148.9102 189.6925 L 149.2602 189.9340 L 149.6106 190.1748 L 149.9615 190.4149 L 150.3128 190.6545 L 150.6645 190.8934 L 151.0167 191.1317 L 151.3693 191.3693 L 151.7223 191.6063 L 152.0758 191.8427 L 152.4296 192.0784 L 152.7839 192.3136 L 153.1386 192.5480 L 153.4938 192.7818 L 153.8493 193.0150 L 154.2053 193.2476 L 154.5617 193.4795 L 154.9185 193.7108 L 155.2757 193.9414 L 155.6333 194.1714 L 155.9914 194.4008 L 156.3498 194.6295 L 156.7087 194.8576 L 157.0679 195.0850 L 157.4276 195.3118 L 157.7877 195.5379 L 158.1481 195.7634 L 158.5090 195.9883 L 158.8703 196.2125 L 159.2320 196.4361 L 159.5941 196.6590 L 159.9565 196.8813 L 160.3194 197.1029 L 160.6827 197.3239 L 161.0463 197.5442 L 161.4104 197.7639 L 161.7748 197.9829 L 162.1397 198.2013 L 162.5049 198.4190 L 162.8705 198.6361 L 163.2365 198.8526 L 163.6029 199.0683 L 163.9697 199.2835 L 164.3368 199.4979 L 164.7043 199.7117 L 165.0723 199.9249 L 165.4405 200.1374 L 165.8092 200.3493 L 166.1783 200.5604 L 166.5477 200.7710 L 166.9175 200.9809 L 167.2876 201.1901 L 167.6582 201.3986 L 168.0291 201.6065 L 168.4004 201.8137 L 168.7720 202.0203 L 169.1441 202.2262 L 169.5164 202.4315 L 169.8892 202.6360 L 170.2623 202.8400 L 170.6358 203.0432 L 171.0096 203.2458 L 171.3838 203.4477 L 171.7584 203.6489 L 172.1333 203.8495 L 172.5086 204.0494 L 172.8842 204.2487 L 173.2602 204.4472 L 173.6366 204.6451 L 174.0133 204.8423 L 174.3903 205.0389 L 174.7677 205.2347 L 175.1455 205.4299 L 175.5236 205.6244 L 175.9020 205.8183 L 176.2808 206.0114 L 176.6599 206.2039 L 177.0394 206.3957 L 177.4192 206.5869 L 177.7994 206.7773 L 178.1799 206.9670 L 178.5608 207.1561 L 178.9420 207.3445 L 179.3235 207.5322 L 179.7054 207.7192 L 180.0876 207.9056 L 180.4701 208.0912 L 180.8530 208.2762 L 181.2362 208.4604 L 181.6197 208.6440 L 182.0036 208.8269 L 182.3878 209.0090 L 182.7723 209.1905 L 183.1571 209.3713 L 183.5423 209.5514 L 183.9278 209.7308 L 184.3136 209.9095 L 184.6998 210.0876 L 185.0862 210.2649 L 185.4730 210.4415 L 185.8601 210.6174 L 186.2476 210.7926 L 186.6353 210.9671 L 187.0234 211.1408 L 187.4118 211.3139 L 187.8005 211.4863 L 188.1895 211.6580 L 188.5788 211.8289 L 188.9684 211.9992 L 189.3584 212.1687 L 189.7486 212.3375 L 190.1392 212.5056 L 190.5300 212.6730 L 190.9212 212.8397 L 191.3127 213.0056 L 191.7045 213.1708 L 192.0966 213.3354 L 192.4890 213.4991 L 192.8816 213.6622 L 193.2746 213.8246 L 193.6679 213.9862 L 194.0615 214.1471 L 194.4554 214.3072 L 194.8496 214.4667 L 195.2440 214.6254 L 195.6388 214.7833 L 196.0339 214.9406 L 196.4292 215.0971 L 196.8249 215.2528 L 197.2208 215.4079 L 197.6170 215.5621 L 198.0135 215.7157 L 198.4103 215.8685 L 198.8074 216.0206 L 199.2048 216.1719 L 199.6024 216.3225 L 200.0003 216.4723 L 200.3986 216.6214 L 200.7971 216.7697 L 201.1958 216.9173 L 201.5949 217.0641 L 201.9942 217.2102 L 202.3938 217.3555 L 202.7937 217.5000 L 203.1938 217.6438 L 203.5942 217.7869 L 203.9949 217.9291 L 204.3959 218.0706 L 204.7971 218.2114 L 205.1986 218.3514 L 205.6004 218.4906 L 206.0024 218.6290 L 206.4047 218.7667 L 206.8073 218.9036 L 207.2101 219.0397 L 207.6132 219.1750 L 208.0165 219.3096 L 208.4201 219.4434 L 208.8240 219.5764 L 209.2281 219.7086 L 209.6325 219.8401 L 210.0371 219.9707 L 210.4420 220.1006 L 210.8472 220.2296 L 211.2525 220.3579 L 211.6582 220.4854 L 212.0641 220.6121 L 212.4702 220.7380 L 212.8766 220.8631 L 213.2832 220.9873 L 213.6901 221.1108 L 214.0972 221.2335 L 214.5046 221.3554 L 214.9122 221.4764 L 215.3200 221.5967 L 215.7281 221.7161 L 216.1364 221.8348 L 216.5450 221.9526 L 216.9538 222.0695 L 217.3628 222.1857 L 217.7721 222.3011 L 218.1815 222.4156 L 218.5913 222.5293 L 219.0012 222.6421 L 219.4114 222.7541 L 219.8218 222.8653 L 220.2324 222.9757 L 220.6433 223.0852 L 221.0544 223.1939 L 221.4657 223.3017 L 221.8772 223.4087 L 222.2889 223.5149 L 222.7009 223.6202 L 223.1131 223.7246 L 223.5254 223.8282 L 223.9380 223.9309 L 224.3509 224.0328 L 224.7639 224.1338 L 225.1771 224.2340 L 225.5906 224.3332 L 226.0042 224.4316 L 226.4181 224.5292 L 226.8322 224.6259 L 227.2464 224.7216 L 227.6609 224.8166 L 228.0756 224.9106 L 228.4905 225.0037 L 228.9055 225.0960 L 229.3208 225.1874 L 229.7363 225.2779 L 230.1519 225.3674 L 230.5678 225.4561 L 230.9838 225.5439 L 231.4000 225.6308 L 231.8164 225.7168 L 232.2330 225.8018 L 232.6498 225.8860 L 233.0668 225.9692 L 233.4840 226.0516 L 233.9013 226.1330 L 234.3188 226.2135 L 234.7365 226.2930 L 235.1544 226.3717 L 235.5724 226.4494 L 235.9906 226.5261 L 236.4090 226.6019 L 236.8276 226.6768 L 237.2463 226.7508 L 237.6652 226.8237 L 238.0842 226.8958 L 238.5035 226.9669 L 238.9228 227.0370 L 239.3424 227.1061 L 239.7621 227.1743 L 240.1819 227.2416 L 240.6019 227.3078 L 241.0221 227.3731 L 241.4424 227.4374 L 241.8629 227.5008 L 242.2835 227.5631 L 242.7042 227.6244 L 243.1251 227.6848 L 243.5461 227.7442 L 243.9673 227.8025 L 244.3886 227.8599 L 244.8101 227.9162 L 245.2317 227.9715 L 245.6534 228.0259 L 246.0752 228.0792 L 246.4972 228.1314 L 246.9193 228.1827 L 247.3415 228.2329 L 247.7639 228.2821 L 248.1864 228.3302 L 248.6089 228.3773 L 249.0316 228.4234 L 249.4545 228.4684 L 249.8774 228.5123 L 250.3004 228.5552 L 250.7236 228.5970 L 251.1468 228.6377 L 251.5701 228.6774 L 251.9936 228.7160 L 252.4171 228.7535 L 252.8408 228.7899 L 253.2645 228.8252 L 253.6883 228.8594 L 254.1122 228.8925 L 254.5362 228.9245 L 254.9603 228.9554 L 255.3845 228.9852 L 255.8087 229.0138 L 256.2330 229.0414 L 256.6574 229.0677 L 257.0818 229.0930 L 257.5064 229.1171 L 257.9309 229.1400 L 258.3556 229.1618 L 258.7803 229.1825 L 259.2050 229.2019 L 259.6298 229.2202 L 260.0547 229.2374 L 260.4796 229.2533 L 260.9046 229.2680 L 261.3295 229.2816 L 261.7546 229.2939 L 262.1796 229.3051 L 262.6047 229.3150 L 263.0298 229.3237 L 263.4549 229.3312 L 263.8801 229.3374 L 264.3053 229.3424 L 264.7305 229.3462 L 265.1556 229.3487 L 265.5808 229.3499 L 266.0060 229.3499 L 266.4312 229.3486 L 266.8564 229.3460 L 267.2816 229.3422 L 267.7068 229.3370 L 268.1319 229.3305 L 268.5571 229.3228 L 268.9822 229.3137 L 269.4073 229.3033 L 269.8323 229.2915 L 270.2573 229.2784 L 270.6822 229.2640 L 271.1072 229.2482 L 271.5320 229.2310 L 271.9568 229.2125 L 272.3815 229.1926 L 272.8062 229.1713 L 273.2308 229.1486 L 273.6553 229.1245 L 274.0798 229.0990 L 274.5041 229.0720 L 274.9283 229.0436 L 275.3525 229.0138 L 275.7766 228.9825 L 276.2005 228.9498 L 276.6243 228.9155 L 277.0480 228.8798 L 277.4716 228.8426 L 277.8950 228.8039 L 278.3183 228.7637 L 278.7415 228.7220 L 279.1645 228.6787 L 279.5873 228.6339 L 280.0100 228.5876 L 280.4324 228.5396 L 280.8547 228.4901 L 281.2769 228.4390 L 281.6988 228.3863 L 282.1205 228.3320 L 282.5420 228.2760 L 282.9633 228.2184 L 283.3843 228.1592 L 283.8052 228.0983 L 284.2257 228.0357 L 284.6461 227.9715 L 285.0661 227.9055 L 285.4859 227.8378 L 285.9054 227.7684 L 286.3246 227.6973 L 286.7435 227.6244 L 287.1621 227.5497 L 287.5804 227.4732 L 287.9983 227.3950 L 288.4159 227.3149 L 288.8331 227.2329 L 289.2500 227.1492 L 289.6665 227.0636 L 290.0826 226.9760 L 290.4983 226.8866 L 290.9135 226.7953 L 291.3284 226.7021 L 291.7428 226.6068 L 292.1567 226.5097 L 292.5702 226.4105 L 292.9832 226.3094 L 293.3957 226.2062 L 293.8077 226.1010 L 294.2191 225.9937 L 294.6300 225.8843 L 295.0404 225.7729 L 295.4501 225.6593 L 295.8592 225.5435 L 296.2678 225.4257 L 296.6757 225.3056 L 297.0829 225.1833 L 297.4895 225.0588 L 297.8953 224.9320 L 298.3005 224.8030 L 298.7049 224.6716 L 299.1085 224.5379 L 299.5114 224.4019 L 299.9134 224.2635 L 300.3146 224.1227 L 300.7150 223.9795 L 301.1144 223.8338 L 301.5130 223.6856 L 301.9106 223.5349 L 302.3072 223.3817 L 302.7029 223.2259 L 303.0975 223.0675 L 303.4910 222.9065 L 303.8834 222.7428 L 304.2747 222.5764 L 304.6649 222.4073 L 305.0538 222.2355 L 305.4415 222.0609 L 305.8279 221.8834 L 306.2129 221.7031 L 306.5966 221.5199 L 306.9789 221.3337 L 307.3598 221.1446 L 307.7391 220.9525 L 308.1169 220.7574 L 308.4930 220.5591 L 308.8675 220.3578 L 309.2403 220.1533 L 309.6113 219.9456 L 309.9805 219.7346 L 310.3478 219.5204 L 310.7132 219.3029 L 311.0765 219.0820 L 311.4377 218.8577 L 311.7967 218.6299 L 312.1535 218.3986 L 312.5080 218.1638 L 312.8601 217.9254 L 313.2097 217.6834 L 313.5567 217.4377 L 313.9010 217.1882 L 314.2426 216.9350 L 314.5813 216.6780 L 314.9171 216.4171 L 315.2498 216.1523 L 315.5792 215.8835 L 315.9054 215.6107 L 316.2282 215.3339 L 316.5473 215.0530 L 316.8628 214.7679 L 317.1745 214.4787 L 317.4822 214.1853 L 317.7858 213.8875 L 318.0851 213.5855 L 318.3800 213.2792 L 318.6702 212.9685 L 318.9557 212.6534 L 319.2362 212.3339 L 319.5116 212.0099 L 319.7817 211.6815 L 320.0462 211.3486 L 320.3050 211.0112 L 320.5578 210.6693 L 320.8044 210.3230 L 321.0447 209.9722 L 321.2783 209.6169 L 321.5051 209.2572 L 321.7248 208.8932 L 321.9371 208.5248 L 322.1418 208.1521 L 322.3387 207.7753 L 322.5275 207.3943 L 322.7080 207.0093 L 322.8798 206.6204 L 323.0428 206.2277 L 323.1967 205.8313 L 323.3413 205.4314 L 323.4762 205.0282 L 323.6014 204.6219 L 323.7165 204.2126 L 323.8214 203.8005 L 323.9158 203.3860 L 323.9997 202.9691 L 324.0727 202.5502 L 324.1348 202.1296 L 324.1858 201.7075 L 324.2257 201.2842 L 324.2543 200.8600 L 324.2716 200.4351 L 324.2775 200.0100 L 324.2721 199.5848 L 324.2554 199.1600 L 324.2273 198.7357 L 324.1879 198.3123 L 324.1374 197.8902 L 324.0759 197.4695 L 324.0033 197.0505 L 323.9200 196.6335 L 323.8261 196.2189 L 323.7217 195.8067 L 323.6070 195.3972 L 323.4823 194.9908 L 323.3478 194.5874 L 323.2037 194.1874 L 323.0503 193.7908 L 322.8877 193.3980 L 322.7162 193.0089 L 322.5362 192.6237 L 322.3478 192.2425 L 322.1513 191.8655 L 321.9469 191.4926 L 321.7349 191.1240 L 321.5156 190.7598 L 321.2891 190.3999 L 321.0558 190.0444 L 320.8159 189.6934 L 320.5695 189.3468 L 320.3170 189.0048 L 320.0585 188.6672 L 319.7942 188.3341 L 319.5244 188.0054 L 319.2493 187.6812 L 318.9690 187.3615 L 318.6838 187.0462 L 318.3937 186.7353 L 318.0991 186.4287 L 317.8000 186.1265 L 317.4966 185.8286 L 317.1891 185.5350 L 316.8776 185.2455 L 316.5623 184.9603 L 316.2432 184.6792 L 315.9207 184.4022 L 315.5947 184.1292 L 315.2653 183.8602 L 314.9328 183.5952 L 314.5972 183.3342 L 314.2586 183.0769 L 313.9172 182.8236 L 313.5730 182.5739 L 313.2261 182.3281 L 312.8766 182.0858 L 312.5246 181.8473 L 312.1703 181.6123 L 311.8136 181.3809 L 311.4546 181.1529 L 311.0935 180.9285 L 310.7303 180.7074 L 310.3650 180.4897 L 309.9978 180.2753 L 309.6287 180.0642 L 309.2578 179.8564 L 308.8851 179.6517 L 308.5107 179.4502 L 308.1346 179.2519 L 307.7569 179.0566 L 307.3776 178.8643 L 306.9969 178.6751 L 306.6146 178.4888 L 306.2310 178.3054 L 305.8460 178.1250 L 305.4597 177.9474 L 305.0720 177.7726 L 304.6832 177.6006 L 304.2931 177.4314 L 303.9018 177.2649 L 303.5095 177.1011 L 303.1160 176.9400 L 302.7214 176.7814 L 302.3259 176.6255 L 301.9293 176.4722 L 301.5317 176.3214 L 301.1332 176.1731 L 300.7338 176.0273 L 300.3335 175.8839 L 299.9323 175.7430 L 299.5303 175.6045 L 299.1275 175.4684 L 298.7239 175.3346 L 298.3195 175.2031 L 297.9144 175.0740 L 297.5086 174.9471 L 297.1020 174.8225 L 296.6948 174.7001 L 296.2870 174.5799 L 295.8785 174.4619 L 295.4693 174.3461 L 295.0596 174.2324 L 294.6493 174.1208 L 294.2385 174.0114 L 293.8270 173.9040 L 293.4151 173.7987 L 293.0026 173.6954 L 292.5896 173.5941 L 292.1762 173.4949 L 291.7623 173.3976 L 291.3479 173.3023 L 290.9331 173.2090 L 290.5178 173.1176 L 290.1021 173.0281 L 289.6860 172.9405 L 289.2696 172.8548 L 288.8527 172.7709 L 288.4355 172.6889 L 288.0179 172.6087 L 287.6000 172.5304 L 287.1818 172.4538 L 286.7632 172.3791 L 286.3443 172.3061 L 285.9251 172.2348 L 285.5056 172.1653 L 285.0858 172.0976 L 284.6658 172.0315 L 284.2455 171.9672 L 283.8249 171.9045 L 283.4041 171.8436 L 282.9831 171.7843 L 282.5618 171.7266 L 282.1403 171.6706 L 281.7186 171.6162 L 281.2967 171.5634 L 280.8746 171.5122 L 280.4523 171.4626 L 280.0298 171.4146 L 279.6072 171.3682 L 279.1843 171.3233 L 278.7613 171.2800 L 278.3382 171.2382 L 277.9149 171.1979 L 277.4915 171.1591 L 277.0679 171.1218 L 276.6442 171.0861 L 276.2204 171.0518 L 275.7965 171.0190 L 275.3724 170.9876 L 274.9483 170.9577 L 274.5240 170.9293 L 274.0997 170.9022 L 273.6753 170.8766 L 273.2508 170.8525 L 272.8262 170.8297 L 272.4015 170.8083 L 271.9768 170.7884 L 271.5520 170.7698 L 271.1271 170.7525 L 270.7022 170.7367 L 270.2773 170.7222 L 269.8523 170.7090 L 269.4272 170.6972 L 269.0022 170.6867 L 268.5771 170.6776 L 268.1519 170.6697 L 267.7268 170.6632 L 267.3016 170.6580 L 266.8764 170.6541 L 266.4512 170.6514 L 266.0260 170.6501 L 265.6008 170.6500 L 265.1756 170.6512 L 264.7504 170.6536 L 264.3253 170.6573 L 263.9001 170.6623 L 263.4749 170.6685 L 263.0498 170.6759 L 262.6247 170.6845 L 262.1996 170.6944 L 261.7745 170.7055 L 261.3495 170.7178 L 260.9245 170.7313 L 260.4996 170.7459 L 260.0747 170.7618 L 259.6498 170.7789 L 259.2250 170.7971 L 258.8003 170.8165 L 258.3756 170.8371 L 257.9509 170.8589 L 257.5263 170.8818 L 257.1018 170.9058 L 256.6773 170.9310 L 256.2530 170.9573 L 255.8286 170.9848 L 255.4044 171.0134 L 254.9803 171.0431 L 254.5562 171.0740 L 254.1322 171.1059 L 253.7083 171.1390 L 253.2844 171.1731 L 252.8607 171.2084 L 252.4371 171.2448 L 252.0135 171.2822 L 251.5901 171.3207 L 251.1667 171.3603 L 250.7434 171.4010 L 250.3203 171.4428 L 249.8973 171.4856 L 249.4743 171.5295 L 249.0515 171.5745 L 248.6288 171.6205 L 248.2062 171.6675 L 247.7837 171.7156 L 247.3614 171.7647 L 246.9392 171.8149 L 246.5171 171.8661 L 246.0951 171.9183 L 245.6732 171.9716 L 245.2515 172.0258 L 244.8299 172.0811 L 244.4085 172.1374 L 243.9871 172.1947 L 243.5659 172.2530 L 243.1449 172.3124 L 242.7240 172.3727 L 242.3032 172.4340 L 241.8826 172.4963 L 241.4622 172.5595 L 241.0418 172.6238 L 240.6217 172.6890 L 240.2017 172.7552 L 239.7818 172.8224 L 239.3621 172.8906 L 238.9426 172.9597 L 238.5232 173.0298 L 238.1039 173.1008 L 237.6849 173.1728 L 237.2660 173.2458 L 236.8473 173.3196 L 236.4287 173.3945 L 236.0103 173.4703 L 235.5921 173.5470 L 235.1740 173.6246 L 234.7561 173.7032 L 234.3384 173.7827 L 233.9209 173.8632 L 233.5036 173.9445 L 233.0864 174.0268 L 232.6694 174.1100 L 232.2526 174.1941 L 231.8360 174.2792 L 231.4196 174.3651 L 231.0034 174.4519 L 230.5873 174.5397 L 230.1715 174.6283 L 229.7558 174.7179 L 229.3403 174.8083 L 228.9250 174.8996 L 228.5100 174.9919 L 228.0951 175.0850 L 227.6804 175.1790 L 227.2659 175.2738 L 226.8516 175.3696 L 226.4376 175.4662 L 226.0237 175.5637 L 225.6100 175.6621 L 225.1966 175.7613 L 224.7833 175.8614 L 224.3703 175.9624 L 223.9574 176.0642 L 223.5448 176.1669 L 223.1324 176.2705 L 222.7203 176.3749 L 222.3083 176.4801 L 221.8965 176.5862 L 221.4850 176.6932 L 221.0737 176.8010 L 220.6626 176.9096 L 220.2517 177.0191 L 219.8411 177.1294 L 219.4307 177.2406 L 219.0205 177.3526 L 218.6105 177.4654 L 218.2008 177.5790 L 217.7913 177.6935 L 217.3820 177.8088 L 216.9730 177.9249 L 216.5642 178.0419 L 216.1556 178.1597 L 215.7473 178.2782 L 215.3392 178.3976 L 214.9314 178.5178 L 214.5237 178.6389 L 214.1164 178.7607 L 213.7092 178.8833 L 213.3024 179.0068 L 212.8957 179.1310 L 212.4893 179.2561 L 212.0832 179.3819 L 211.6773 179.5086 L 211.2716 179.6360 L 210.8662 179.7643 L 210.4611 179.8933 L 210.0562 180.0231 L 209.6515 180.1537 L 209.2471 180.2851 L 208.8430 180.4173 L 208.4391 180.5503 L 208.0355 180.6840 L 207.6321 180.8186 L 207.2290 180.9539 L 206.8262 181.0900 L 206.4236 181.2268 L 206.0213 181.3644 L 205.6193 181.5029 L 205.2175 181.6420 L 204.8160 181.7820 L 204.4147 181.9227 L 204.0138 182.0642 L 203.6131 182.2064 L 203.2126 182.3494 L 202.8125 182.4932 L 202.4126 182.6377 L 202.0130 182.7830 L 201.6136 182.9290 L 201.2146 183.0758 L 200.8158 183.2233 L 200.4173 183.3716 L 200.0191 183.5207 L 199.6211 183.6704 L 199.2235 183.8210 L 198.8261 183.9723 L 198.4290 184.1243 L 198.0322 184.2771 L 197.6357 184.4306 L 197.2394 184.5848 L 196.8435 184.7398 L 196.4478 184.8956 L 196.0525 185.0520 L 195.6574 185.2092 L 195.2626 185.3672 L 194.8681 185.5258 L 194.4739 185.6852 L 194.0800 185.8454 L 193.6864 186.0062 L 193.2931 186.1678 L 192.9001 186.3301 L 192.5074 186.4931 L 192.1150 186.6569 L 191.7229 186.8214 L 191.3311 186.9866 L 190.9396 187.1525 L 190.5484 187.3191 L 190.1575 187.4865 L 189.7670 187.6545 L 189.3767 187.8233 L 188.9867 187.9928 L 188.5971 188.1630 L 188.2078 188.3339 L 187.8187 188.5056 L 187.4300 188.6779 L 187.0416 188.8510 L 186.6536 189.0247 L 186.2658 189.1992 L 185.8784 189.3743 L 185.4912 189.5502 L 185.1044 189.7268 L 184.7179 189.9041 L 184.3318 190.0820 L 183.9459 190.2607 L 183.5604 190.4401 L 183.1752 190.6201 L 182.7904 190.8009 L 182.4058 190.9824 L 182.0216 191.1645 L 181.6377 191.3474 L 181.2542 191.5309 L 180.8710 191.7151 L 180.4881 191.9000 L 180.1055 192.0857 L 179.7233 192.2720 L 179.3414 192.4589 L 178.9599 192.6466 L 178.5787 192.8350 L 178.1978 193.0240 L 177.8173 193.2137 L 177.4371 193.4041 L 177.0573 193.5952 L 176.6778 193.7870 L 176.2986 193.9794 L 175.9198 194.1726 L 175.5413 194.3664 L 175.1632 194.5609 L 174.7855 194.7560 L 174.4080 194.9519 L 174.0310 195.1484 L 173.6543 195.3456 L 173.2779 195.5434 L 172.9019 195.7420 L 172.5262 195.9412 L 172.1509 196.1410 L 171.7760 196.3416 L 171.4014 196.5428 L 171.0272 196.7447 L 170.6534 196.9472 L 170.2799 197.1504 L 169.9067 197.3543 L 169.5340 197.5589 L 169.1616 197.7641 L 168.7895 197.9699 L 168.4178 198.1765 L 168.0465 198.3837 L 167.6756 198.5915 L 167.3051 198.8001 L 166.9349 199.0093 L 166.5651 199.2191 L 166.1956 199.4296 L 165.8266 199.6408 L 165.4579 199.8526 L 165.0896 200.0650 L 164.7216 200.2782 L 164.3541 200.4920 L 163.9869 200.7064 L 163.6201 200.9215 L 163.2537 201.1372 L 162.8877 201.3536 L 162.5221 201.5707 L 162.1568 201.7884 L 161.7920 202.0067 L 161.4275 202.2257 L 161.0635 202.4454 L 160.6998 202.6657 L 160.3365 202.8867 L 159.9736 203.1083 L 159.6111 203.3305 L 159.2490 203.5534 L 158.8873 203.7769 L 158.5260 204.0011 L 158.1651 204.2259 L 157.8046 204.4514 L 157.4445 204.6775 L 157.0848 204.9043 L 156.7255 205.1317 L 156.3667 205.3597 L 156.0082 205.5884 L 155.6501 205.8177 L 155.2925 206.0477 L 154.9353 206.2783 L 154.5784 206.5096 L 154.2220 206.7414 L 153.8660 206.9740 L 153.5105 207.2071 L 153.1553 207.4409 L 152.8006 207.6754 L 152.4463 207.9104 L 152.0924 208.1462 L 151.7389 208.3825 L 151.3859 208.6195 L 151.0333 208.8571 L 150.6811 209.0953 L 150.3293 209.3342 L 149.9780 209.5737 L 149.6271 209.8139 L 149.2767 210.0547 L 148.9266 210.2961 L 148.5771 210.5381 L 148.2279 210.7808 L 147.8792 211.0241 L 147.5309 211.2680 L 147.1831 211.5126 L 146.8357 211.7578 L 146.4888 212.0036 L 146.1423 212.2501 L 145.7962 212.4972 L 145.4506 212.7449 L 145.1055 212.9932 L 144.7608 213.2422 L 144.4166 213.4918 L 144.0728 213.7420 L 143.7295 213.9928 L 143.3866 214.2443 L 143.0442 214.4964 L 142.7022 214.7491 L 142.3608 215.0025 L 142.0197 215.2564 L 141.6792 215.5110 L 141.3391 215.7663 L 140.9995 216.0221 L 140.6603 216.2786 L 140.3217 216.5357 L 139.9835 216.7934 L 139.6457 217.0517 L 139.3085 217.3107 L 138.9717 217.5702 L 138.6354 217.8304 L 138.2996 218.0913 L 137.9643 218.3527 L 137.6294 218.6148 L 137.2951 218.8774 L 136.9612 219.1407 L 136.6278 219.4047 L 136.2950 219.6692 L 135.9626 219.9344 L 135.6307 220.2002 L 135.2993 220.4666 L 134.9684 220.7336 L 134.6380 221.0012 L 134.3081 221.2695 L 133.9787 221.5383 L 133.6498 221.8078 L 133.3214 222.0779 L 132.9935 222.3487 L 132.6661 222.6200 L 132.3393 222.8920 L 132.0130 223.1646 L 131.6871 223.4378 L 131.3618 223.7116 L 131.0370 223.9860 L 130.7128 224.2610 L 130.3890 224.5367 L 130.0658 224.8130 L 129.7431 225.0899 L 129.4210 225.3674 L 129.0994 225.6455 L 128.7783 225.9243 L 128.4577 226.2036 L 128.1377 226.4836 L 127.8182 226.7642 L 127.4993 227.0454 L 127.1809 227.3272 L 126.8630 227.6096 L 126.5457 227.8927 L 126.2290 228.1763 L 125.9128 228.4606 L 125.5971 228.7455 L 125.2820 229.0310 L 124.9675 229.3171 L 124.6535 229.6038 L 124.3401 229.8912 L 124.0273 230.1791 L 123.7150 230.4677 L 123.4032 230.7569 L 123.0921 231.0467 L 122.7815 231.3371 L 122.4715 231.6281 L 122.1621 231.9198 L 121.8533 232.2120 L 121.5450 232.5049 L 121.2373 232.7984 L 120.9302 233.0925 L 120.6237 233.3872 L 120.3178 233.6825 L 120.0125 233.9784 L 119.7078 234.2750 L 119.4037 234.5721 L 119.1001 234.8699 L 118.7972 235.1683 L 118.4949 235.4673 L 118.1932 235.7669 L 117.8921 236.0671 L 117.5916 236.3680 L 117.2917 236.6694 L 116.9925 236.9715 L 116.6939 237.2742 L 116.3959 237.5775 L 116.0985 237.8814 L 115.8017 238.1859 L 115.5056 238.4911 L 115.2101 238.7968 L 114.9153 239.1032 L 114.6211 239.4101 L 114.3275 239.7177 L 114.0346 240.0259 L 113.7423 240.3348 L 113.4507 240.6442 L 113.1597 240.9542 L 112.8694 241.2649 L 112.5797 241.5762 L 112.2907 241.8881 L 112.0024 242.2006 L 111.7147 242.5137 L 111.4277 242.8274 L 111.1414 243.1418 L 110.8558 243.4568 L 110.5708 243.7723 L 110.2865 244.0885 L 110.0029 244.4054 L 109.7200 244.7228 L 109.4378 245.0408 L 109.1563 245.3595 L 108.8755 245.6788 L 108.5954 245.9987 L 108.3160 246.3192 L 108.0372 246.6403 L 107.7593 246.9620 L 107.4820 247.2844 L 107.2054 247.6074 L 106.9296 247.9310 L 106.6545 248.2552 L 106.3801 248.5800 L 106.1065 248.9054 L 105.8336 249.2315 L 105.5614 249.5582 L 105.2900 249.8855 L 105.0193 250.2134 L 104.7494 250.5419 L 104.4802 250.8711 L 104.2118 251.2009 L 103.9442 251.5313 L 103.6773 251.8623 L 103.4112 252.1939 L 103.1458 252.5262 L 102.8813 252.8591 L 102.6175 253.1926 L 102.3545 253.5267 L 102.0923 253.8614 L 101.8309 254.1968 L 101.5703 254.5327 L 101.3105 254.8693 L 101.0515 255.2066 L 100.7934 255.5444 L 100.5360 255.8829 L 100.2795 256.2220 L 100.0237 256.5617 L 99.7688 256.9020 L 99.5148 257.2430 L 99.2616 257.5846 L 99.0092 257.9268 L 98.7577 258.2696 L 98.5070 258.6131 L 98.2572 258.9572 L 98.0083 259.3019 L 97.7602 259.6472 L 97.5130 259.9932 L 97.2667 260.3397 L 97.0212 260.6869 L 96.7767 261.0348 L 96.5330 261.3832 L 96.2903 261.7323 L 96.0484 262.0821 L 95.8075 262.4324 L 95.5675 262.7834 L 95.3283 263.1350 L 95.0902 263.4872 L 94.8529 263.8401 L 94.6166 264.1936 L 94.3812 264.5477 L 94.1468 264.9024 L 93.9134 265.2578 L 93.6809 265.6138 L 93.4493 265.9704 L 93.2188 266.3277 L 92.9892 266.6856 L 92.7606 267.0441 L 92.5330 267.4033 L 92.3064 267.7631 L 92.0809 268.1235 L 91.8563 268.4846 L 91.6327 268.8463 L 91.4102 269.2086 L 91.1887 269.5715 L 90.9683 269.9351 L 90.7489 270.2994 L 90.5305 270.6642 L 90.3132 271.0297 L 90.0970 271.3958 L 89.8819 271.7626 L 89.6678 272.1300 L 89.4549 272.4980 L 89.2430 272.8667 L 89.0323 273.2360 L 88.8227 273.6059 L 88.6141 273.9765 L 88.4068 274.3477 L 88.2006 274.7195 L 87.9955 275.0920 L 87.7916 275.4651 L 87.5888 275.8389 L 87.3873 276.2133 L 87.1869 276.5883 L 86.9877 276.9639 L 86.7897 277.3402 L 86.5929 277.7172 L 86.3974 278.0947 L 86.2031 278.4730 L 86.0100 278.8518 L 85.8182 279.2313 L 85.6277 279.6114 L 85.4384 279.9921 L 85.2504 280.3735 L 85.0637 280.7556 L 84.8783 281.1382 L 84.6943 281.5215 L 84.5116 281.9055 L 84.3302 282.2900 L 84.1501 282.6752 L 83.9715 283.0611 L 83.7942 283.4475 L 83.6182 283.8346 L 83.4437 284.2224 L 83.2706 284.6108 L 83.0990 284.9998 L 82.9288 285.3894 L 82.7600 285.7797 L 82.5927 286.1706 L 82.4269 286.5621 L 82.2625 286.9543 L 82.0997 287.3471 L 81.9384 287.7405 L 81.7787 288.1345 L 81.6204 288.5292 L 81.4638 288.9245 L 81.3088 289.3204 L 81.1553 289.7170 L 81.0035 290.1141 L 80.8533 290.5119 L 80.7047 290.9103 L 80.5578 291.3094 L 80.4126 291.7090 L 80.2691 292.1093 L 80.1274 292.5101 L 79.9873 292.9116 L 79.8491 293.3137 L 79.7126 293.7164 L 79.5779 294.1197 L 79.4450 294.5236 L 79.3139 294.9281 L 79.1847 295.3332 L 79.0574 295.7389 L 78.9320 296.1452 L 78.8085 296.5521 L 78.6870 296.9595 L 78.5674 297.3676 L 78.4498 297.7762 L 78.3343 298.1854 L 78.2208 298.5951 L 78.1093 299.0055 L 78.0000 299.4164 L 77.8927 299.8278 L 77.7876 300.2398 L 77.6847 300.6524 L 77.5840 301.0655 L 77.4855 301.4791 L 77.3893 301.8933 L 77.2954 302.3080 L 77.2038 302.7232 L 77.1145 303.1389 L 77.0276 303.5552 L 76.9432 303.9719 L 76.8612 304.3891 L 76.7816 304.8068 L 76.7046 305.2250 L 76.6302 305.6436 L 76.5583 306.0627 L 76.4891 306.4822 L 76.4226 306.9022 L 76.3588 307.3226 L 76.2977 307.7434 L 76.2394 308.1646 L 76.1840 308.5861 L 76.1314 309.0081 L 76.0818 309.4304 L 76.0351 309.8530 L 75.9915 310.2759 L 75.9509 310.6992 L 75.9134 311.1228 L 75.8792 311.5466 L 75.8481 311.9706 L 75.8203 312.3949 L 75.7959 312.8194 L 75.7748 313.2441 L 75.7572 313.6689 L 75.7431 314.0939 L 75.7326 314.5190 L 75.7257 314.9441 L 75.7225 315.3693 L 75.7231 315.7945 L 75.7275 316.2197 L 75.7358 316.6448 L 75.7481 317.0698 L 75.7644 317.4947 L 75.7849 317.9194 L 75.8096 318.3439 L 75.8385 318.7681 L 75.8718 319.1920 L 75.9095 319.6155 L 75.9518 320.0386 L 75.9987 320.4612 L 76.0503 320.8833 L 76.1067 321.3047 L 76.1681 321.7255 L 76.2343 322.1455 L 76.3057 322.5646 L 76.3823 322.9829 L 76.4642 323.4001 L 76.5514 323.8163 L 76.6442 324.2312 L 76.7425 324.6449 L 76.8466 325.0572 L 76.9565 325.4679 L 77.0723 325.8770 L 77.1941 326.2844 L 77.3222 326.6899 L 77.4564 327.0933 L 77.5971 327.4945 L 77.7443 327.8935 L 77.8980 328.2899 L 78.0585 328.6836 L 78.2258 329.0745 L 78.4001 329.4624 L 78.5813 329.8470 L 78.7697 330.2282 L 78.9653 330.6057 L 79.1683 330.9794 L 79.3786 331.3489 L 79.5964 331.7141 L 79.8217 332.0746 L 80.0546 332.4304 L 80.2952 332.7809 L 80.5435 333.1261 L 80.7994 333.4656 L 81.0631 333.7992 L 81.3345 334.1265 L 81.6136 334.4473 L 81.9003 334.7613 L 82.1947 335.0681 L 82.4965 335.3676 L 82.8058 335.6593 L 83.1224 335.9431 L 83.4462 336.2187 L 83.7771 336.4857 L 84.1149 336.7440 L 84.4593 336.9933 L 84.8102 337.2334 L 85.1674 337.4641 L 85.5306 337.6851 L 85.8996 337.8964 L 86.2741 338.0977 L 86.6538 338.2890 L 87.0385 338.4701 L 87.4279 338.6409 L 87.8216 338.8015 L 88.2194 338.9517 L 88.6209 339.0915 L 89.0259 339.2210 L 89.4340 339.3402 L 89.8450 339.4491 L 90.2586 339.5479 L 90.6744 339.6365 L 91.0923 339.7151 L 91.5119 339.7838 L 91.9330 339.8427 L 92.3553 339.8921 L 92.7786 339.9319 L 93.2027 339.9625 L 93.6274 339.9839 L 94.0524 339.9963 L 94.4776 340.0000 L 94.9027 339.9951 L 95.3277 339.9817 L 95.7524 339.9602 L 96.1765 339.9306 L 96.6001 339.8931 L 97.0229 339.8480 L 97.4448 339.7955 L 97.8658 339.7356 L 98.2857 339.6687 L 98.7044 339.5948 L 99.1219 339.5142 L 99.5380 339.4270 L 99.9528 339.3334 L 100.3661 339.2336 L 100.7779 339.1277 L 101.1882 339.0159 L 101.5968 338.8984 L 102.0038 338.7752 L 102.4090 338.6466 L 102.8126 338.5127 L 103.2144 338.3736 L 103.6144 338.2294 L 104.0126 338.0803 L 104.4090 337.9264 L 104.8035 337.7679 L 105.1962 337.6048 L 105.5870 337.4373 L 105.9759 337.2654 L 106.3630 337.0894 L 106.7481 336.9092 L 107.1314 336.7250 L 107.5127 336.5369 L 107.8921 336.3450 L 108.2696 336.1494 L 108.6453 335.9501 L 109.0190 335.7473 L 109.3908 335.5410 L 109.7607 335.3313 L 110.1287 335.1183 L 110.4948 334.9021 L 110.8590 334.6827 L 111.2214 334.4602 L 111.5818 334.2347 L 111.9405 334.0063 L 112.2972 333.7749 L 112.6521 333.5408 L 113.0052 333.3038 L 113.3564 333.0642 L 113.7058 332.8218 L 114.0534 332.5769 L 114.3992 332.3295 L 114.7432 332.0796 L 115.0854 331.8272 L 115.4258 331.5724 L 115.7644 331.3153 L 116.1013 331.0559 L 116.4365 330.7942 L 116.7699 330.5303 L 117.1016 330.2643 L 117.4315 329.9961 L 117.7598 329.7258 L 118.0863 329.4535 L 118.4112 329.1792 L 118.7344 328.9029 L 119.0559 328.6246 L 119.3758 328.3445 L 119.6940 328.0625 L 120.0106 327.7786 L 120.3256 327.4930 L 120.6389 327.2056 L 120.9506 326.9164 L 121.2608 326.6255 L 121.5693 326.3330 L 121.8763 326.0387 L 122.1817 325.7429 L 122.4855 325.4455 L 122.7878 325.1464 L 123.0886 324.8459 L 123.3878 324.5438 L 123.6855 324.2402 L 123.9817 323.9351 L 124.2764 323.6286 L 124.5696 323.3206 L 124.8613 323.0113 L 125.1515 322.7005 L 125.4403 322.3884 L 125.7275 322.0749 L 126.0134 321.7601 L 126.2978 321.4440 L 126.5807 321.1267 L 126.8623 320.8080 L 127.1424 320.4881 L 127.4211 320.1670 L 127.6984 319.8447 L 127.9743 319.5211 L 128.2488 319.1964 L 128.5219 318.8705 L 128.7937 318.5435 L 129.0640 318.2153 L 129.3331 317.8861 L 129.6007 317.5557 L 129.8671 317.2242 L 130.1321 316.8917 L 130.3957 316.5581 L 130.6581 316.2235 L 130.9191 315.8878 L 131.1788 315.5512 L 131.4372 315.2135 L 131.6943 314.8748 L 131.9501 314.5352 L 132.2047 314.1946 L 132.4579 313.8530 L 132.7099 313.5105 L 132.9606 313.1671 L 133.2101 312.8228 L 133.4583 312.4776 L 133.7052 312.1314 L 133.9509 311.7844 L 134.1954 311.4365 L 134.4386 311.0878 L 134.6807 310.7382 L 134.9215 310.3877 L 135.1611 310.0364 L 135.3994 309.6843 L 135.6366 309.3314 L 135.8726 308.9777 L 136.1074 308.6232 L 136.3410 308.2679 L 136.5734 307.9119 L 136.8046 307.5550 L 137.0347 307.1975 L 137.2636 306.8391 L 137.4913 306.4801 L 137.7179 306.1203 L 137.9433 305.7597 L 138.1676 305.3985 L 138.3907 305.0365 L 138.6127 304.6739 L 138.8336 304.3106 L 139.0533 303.9465 L 139.2719 303.5818 L 139.4894 303.2165 L 139.7058 302.8504 L 139.9211 302.4837 L 140.1352 302.1164 L 140.3483 301.7484 L 140.5602 301.3798 L 140.7711 301.0106 L 140.9808 300.6407 L 141.1895 300.2703 L 141.3971 299.8992 L 141.6036 299.5275 L 141.8090 299.1552 L 142.0134 298.7823 L 142.2167 298.4089 L 142.4189 298.0349 L 142.6201 297.6603 L 142.8202 297.2851 L 143.0193 296.9094 L 143.2173 296.5331 L 143.4142 296.1562 L 143.6102 295.7789 L 143.8050 295.4010 L 143.9989 295.0225 L 144.1917 294.6435 L 144.3835 294.2641 L 144.5742 293.8840 L 144.7640 293.5035 L 144.9527 293.1225 L 145.1404 292.7410 L 145.3271 292.3589 L 145.5128 291.9764 L 145.6974 291.5934 L 145.8811 291.2099 L 146.0638 290.8260 L 146.2454 290.4415 L 146.4261 290.0566 L 146.6058 289.6713 L 146.7845 289.2854 L 146.9622 288.8991 L 147.1389 288.5124 L 147.3146 288.1252 L 147.4894 287.7376 L 147.6632 287.3495 L 147.8360 286.9610 L 148.0079 286.5721 L 148.1787 286.1828 L 148.3487 285.7930 L 148.5176 285.4028 L 148.6856 285.0122 L 148.8527 284.6212 L 149.0187 284.2297 L 149.1839 283.8379 L 149.3481 283.4457 L 149.5113 283.0531 L 149.6736 282.6601 L 149.8349 282.2667 L 149.9954 281.8729 L 150.1548 281.4787 L 150.3134 281.0842 L 150.4710 280.6893 L 150.6277 280.2940 L 150.7834 279.8983 L 150.9382 279.5023 L 151.0921 279.1060 L 151.2451 278.7092 L 151.3972 278.3121 L 151.5483 277.9147 L 151.6985 277.5169 L 151.8478 277.1188 L 151.9962 276.7204 L 152.1437 276.3216 L 152.2903 275.9224 L 152.4360 275.5230 L 152.5808 275.1232 L 152.7247 274.7230 L 152.8676 274.3226 L 153.0097 273.9218 L 153.1509 273.5208 L 153.2912 273.1194 L 153.4306 272.7177 L 153.5691 272.3157 L 153.7067 271.9134 L 153.8435 271.5107 L 153.9793 271.1078 L 154.1143 270.7046 L 154.2484 270.3011 L 154.3816 269.8973 L 154.5139 269.4932 L 154.6454 269.0889 L 154.7760 268.6842 L 154.9057 268.2793 L 155.0345 267.8741 L 155.1625 267.4686 L 155.2896 267.0628 L 155.4159 266.6568 L 155.5412 266.2505 L 155.6657 265.8439 L 155.7894 265.4371 L 155.9122 265.0300 L 156.0341 264.6227 L 156.1552 264.2151 L 156.2754 263.8072 L 156.3948 263.3991 L 156.5133 262.9908 L 156.6310 262.5822 L 156.7478 262.1733 L 156.8637 261.7643 L 156.9789 261.3549 L 157.0931 260.9454 L 157.2066 260.5356 L 157.3191 260.1256 L 157.4309 259.7153 L 157.5418 259.3048 L 157.6519 258.8941 L 157.7611 258.4832 L 157.8695 258.0720 L 157.9770 257.6607 L 158.0838 257.2491 L 158.1897 256.8373 L 158.2947 256.4253 L 158.3990 256.0130 L 158.5024 255.6006 L 158.6049 255.1879 L 158.7067 254.7751 L 158.8076 254.3620 L 158.9077 253.9488 L 159.0070 253.5354 L 159.1054 253.1217 L 159.2031 252.7079 L 159.2999 252.2938 L 159.3959 251.8796 L 159.4911 251.4652 L 159.5854 251.0506 L 159.6790 250.6358 L 159.7717 250.2209 L 159.8636 249.8057 L 159.9547 249.3904 L 160.0450 248.9749 L 160.1345 248.5592 L 160.2232 248.1433 L 160.3111 247.7273 L 160.3981 247.3111 L 160.4844 246.8948 L 160.5698 246.4782 L 160.6545 246.0616 L 160.7383 245.6447 L 160.8214 245.2277 L 160.9036 244.8105 L 160.9850 244.3932 L 161.0657 243.9757 L 161.1455 243.5581 L 161.2245 243.1403 L 161.3028 242.7223 L 161.3802 242.3042 L 161.4569 241.8860 L 161.5327 241.4676 L 161.6078 241.0491 L 161.6820 240.6304 L 161.7555 240.2116 L 161.8282 239.7927 L 161.9001 239.3736 L 161.9712 238.9544 L 162.0415 238.5350 L 162.1110 238.1156 L 162.1797 237.6960 L 162.2476 237.2762 L 162.3148 236.8563 L 162.3812 236.4364 L 162.4468 236.0162 L 162.5115 235.5960 L 162.5756 235.1757 L 162.6388 234.7552 L 162.7012 234.3346 L 162.7629 233.9139 L 162.8238 233.4931 L 162.8839 233.0721 L 162.9432 232.6511 L 163.0017 232.2299 L 163.0595 231.8087 L 163.1165 231.3873 L 163.1727 230.9658 L 163.2281 230.5443 L 163.2828 230.1226 L 163.3366 229.7008 L 163.3897 229.2790 L 163.4421 228.8570 L 163.4936 228.4349 L 163.5444 228.0128 L 163.5944 227.5905 L 163.6436 227.1682 L 163.6921 226.7457 L 163.7397 226.3232 L 163.7867 225.9006 L 163.8328 225.4779 L 163.8782 225.0551 L 163.9228 224.6323 L 163.9666 224.2094 L 164.0096 223.7863 L 164.0519 223.3632 L 164.0934 222.9401 L 164.1342 222.5168 L 164.1742 222.0935 L 164.2134 221.6701 L 164.2518 221.2467 L 164.2895 220.8231 L 164.3264 220.3995 L 164.3626 219.9759 L 164.3980 219.5522 L 164.4326 219.1284 L 164.4664 218.7045 L 164.4995 218.2806 L 164.5318 217.8566 L 164.5634 217.4326 L 164.5942 217.0085 L 164.6242 216.5844 L 164.6535 216.1602 L 164.6820 215.7359 L 164.7097 215.3116 L 164.7367 214.8873 L 164.7629 214.4629 L 164.7884 214.0385 L 164.8131 213.6140 L 164.8370 213.1895 L 164.8602 212.7649 L 164.8826 212.3403 L 164.9042 211.9156 L 164.9251 211.4909 L 164.9453 211.0662 L 164.9646 210.6415 L 164.9832 210.2167 L 165.0011 209.7918 L 165.0182 209.3670 L 165.0345 208.9421 L 165.0501 208.5172 L 165.0649 208.0922 L 165.0789 207.6673 L 165.0922 207.2423 L 165.1048 206.8173 L 165.1165 206.3922 L 165.1275 205.9672 L 165.1378 205.5421 L 165.1473 205.1170 L 165.1560 204.6919 L 165.1640 204.2668 L 165.1713 203.8416 L 165.1777 203.4165 L 165.1834 202.9913 L 165.1884 202.5661 L 165.1926 202.1409 L 165.1960 201.7158 L 165.1987 201.2906 L 165.2006 200.8654 L 165.2018 200.4402 L 165.2022 200.0150 L 165.2018 199.5898 L 165.2007 199.1646 L 165.1989 198.7394 L 165.1962 198.3142 L 165.1928 197.8890 L 165.1887 197.4638 L 165.1838 197.0386 L 165.1782 196.6135 L 165.1717 196.1883 L 165.1646 195.7632 L 165.1566 195.3381 L 165.1479 194.9129 L 165.1385 194.4878 L 165.1283 194.0628 L 165.1173 193.6377 L 165.1056 193.2127 L 165.0931 192.7877 L 165.0799 192.3627 L 165.0659 191.9377 L 165.0511 191.5127 L 165.0356 191.0878 L 165.0193 190.6629 L 165.0023 190.2381 L 164.9845 189.8132 L 164.9660 189.3885 L 164.9466 188.9637 L 164.9266 188.5390 L 164.9057 188.1143 L 164.8841 187.6896 L 164.8618 187.2650 L 164.8387 186.8404 L 164.8148 186.4159 L 164.7901 185.9914 L 164.7647 185.5670 L 164.7386 185.1426 L 164.7117 184.7182 L 164.6840 184.2939 L 164.6555 183.8697 L 164.6263 183.4455 L 164.5963 183.0213 L 164.5656 182.5973 L 164.5341 182.1732 L 164.5018 181.7493 L 164.4688 181.3253 L 164.4350 180.9015 L 164.4004 180.4777 L 164.3651 180.0540 L 164.3290 179.6303 L 164.2921 179.2067 L 164.2545 178.7832 L 164.2161 178.3597 L 164.1770 177.9363 L 164.1370 177.5130 L 164.0963 177.0897 L 164.0549 176.6666 L 164.0126 176.2435 L 163.9696 175.8204 L 163.9259 175.3975 L 163.8813 174.9746 L 163.8360 174.5519 L 163.7899 174.1292 L 163.7431 173.7065 L 163.6955 173.2840 L 163.6471 172.8616 L 163.5979 172.4392 L 163.5479 172.0170 L 163.4972 171.5948 L 163.4457 171.1727 L 163.3935 170.7508 L 163.3404 170.3289 L 163.2866 169.9071 L 163.2320 169.4854 L 163.1766 169.0638 L 163.1205 168.6424 L 163.0636 168.2210 L 163.0058 167.7997 L 162.9474 167.3786 L 162.8881 166.9575 L 162.8280 166.5366 L 162.7672 166.1157 L 162.7056 165.6950 L 162.6432 165.2744 L 162.5800 164.8540 L 162.5161 164.4336 L 162.4513 164.0133 L 162.3858 163.5932 L 162.3195 163.1732 L 162.2524 162.7534 L 162.1845 162.3336 L 162.1159 161.9140 L 162.0464 161.4945 L 161.9761 161.0751 L 161.9051 160.6559 L 161.8333 160.2368 L 161.7606 159.8179 L 161.6872 159.3991 L 161.6130 158.9804 L 161.5380 158.5618 L 161.4622 158.1435 L 161.3856 157.7252 L 161.3083 157.3071 L 161.2301 156.8892 L 161.1511 156.4714 L 161.0713 156.0537 L 160.9907 155.6362 L 160.9094 155.2189 L 160.8272 154.8017 L 160.7442 154.3847 L 160.6604 153.9678 L 160.5758 153.5511 L 160.4904 153.1346 L 160.4042 152.7182 L 160.3172 152.3020 L 160.2294 151.8859 L 160.1408 151.4701 L 160.0514 151.0544 L 159.9611 150.6389 L 159.8701 150.2235 L 159.7782 149.8084 L 159.6856 149.3934 L 159.5921 148.9786 L 159.4978 148.5640 L 159.4026 148.1496 L 159.3067 147.7353 L 159.2099 147.3213 L 159.1124 146.9074 L 159.0140 146.4938 L 158.9147 146.0803 L 158.8147 145.6670 L 158.7138 145.2540 L 158.6121 144.8411 L 158.5096 144.4285 L 158.4063 144.0160 L 158.3021 143.6038 L 158.1971 143.1917 L 158.0913 142.7799 L 157.9846 142.3683 L 157.8771 141.9569 L 157.7688 141.5458 L 157.6596 141.1348 L 157.5496 140.7241 L 157.4387 140.3136 L 157.3271 139.9033 L 157.2145 139.4933 L 157.1012 139.0835 L 156.9869 138.6739 L 156.8719 138.2646 L 156.7560 137.8555 L 156.6392 137.4466 L 156.5216 137.0380 L 156.4032 136.6296 L 156.2839 136.2215 L 156.1637 135.8136 L 156.0427 135.4060 L 155.9208 134.9987 L 155.7981 134.5916 L 155.6745 134.1847 L 155.5500 133.7781 L 155.4247 133.3718 L 155.2985 132.9658 L 155.1715 132.5600 L 155.0436 132.1545 L 154.9148 131.7493 L 154.7852 131.3443 L 154.6546 130.9396 L 154.5232 130.5352 L 154.3910 130.1311 L 154.2578 129.7273 L 154.1238 129.3238 L 153.9889 128.9206 L 153.8531 128.5176 L 153.7164 128.1150 L 153.5789 127.7127 L 153.4404 127.3106 L 153.3011 126.9089 L 153.1608 126.5075 L 153.0197 126.1064 L 152.8777 125.7056 L 152.7348 125.3051 L 152.5910 124.9050 L 152.4462 124.5052 L 152.3006 124.1057 L 152.1541 123.7065 L 152.0067 123.3077 L 151.8583 122.9092 L 151.7091 122.5111 L 151.5589 122.1133 L 151.4079 121.7158 L 151.2559 121.3187 L 151.1029 120.9220 L 150.9491 120.5256 L 150.7944 120.1295 L 150.6387 119.7339 L 150.4821 119.3385 L 150.3245 118.9436 L 150.1660 118.5490 L 150.0066 118.1549 L 149.8463 117.7610 L 149.6850 117.3676 L 149.5228 116.9746 L 149.3596 116.5819 L 149.1955 116.1897 L 149.0304 115.7978 L 148.8644 115.4064 L 148.6974 115.0153 L 148.5295 114.6247 L 148.3606 114.2345 L 148.1908 113.8447 L 148.0199 113.4553 L 147.8482 113.0663 L 147.6754 112.6778 L 147.5017 112.2897 L 147.3270 111.9021 L 147.1513 111.5148 L 146.9747 111.1281 L 146.7970 110.7418 L 146.6184 110.3559 L 146.4388 109.9705 L 146.2582 109.5856 L 146.0766 109.2011 L 145.8940 108.8171 L 145.7104 108.4336 L 145.5258 108.0505 L 145.3402 107.6680 L 145.1536 107.2859 L 144.9660 106.9044 L 144.7773 106.5233 L 144.5877 106.1427 L 144.3970 105.7627 L 144.2053 105.3832 L 144.0125 105.0041 L 143.8187 104.6257 L 143.6239 104.2477 L 143.4281 103.8703 L 143.2312 103.4934 L 143.0333 103.1171 L 142.8343 102.7414 L 142.6342 102.3661 L 142.4331 101.9915 L 142.2310 101.6174 L 142.0278 101.2439 L 141.8235 100.8710 L 141.6181 100.4987 L 141.4117 100.1270 L 141.2042 99.7559 L 140.9956 99.3853 L 140.7859 99.0154 L 140.5751 98.6462 L 140.3632 98.2775 L 140.1503 97.9095 L 139.9362 97.5421 L 139.7210 97.1754 L 139.5047 96.8093 L 139.2873 96.4439 L 139.0688 96.0791 L 138.8491 95.7150 L 138.6284 95.3517 L 138.4064 94.9890 L 138.1834 94.6270 L 137.9592 94.2657 L 137.7338 93.9051 L 137.5073 93.5452 L 137.2797 93.1861 L 137.0509 92.8277 L 136.8209 92.4701 L 136.5897 92.1132 L 136.3574 91.7571 L 136.1239 91.4018 L 135.8892 91.0472 L 135.6533 90.6934 L 135.4162 90.3405 L 135.1779 89.9883 L 134.9384 89.6370 L 134.6977 89.2865 L 134.4558 88.9368 L 134.2126 88.5880 L 133.9682 88.2401 L 133.7226 87.8930 L 133.4757 87.5468 L 133.2276 87.2015 L 132.9782 86.8571 L 132.7276 86.5136 L 132.4757 86.1710 L 132.2226 85.8294 L 131.9681 85.4888 L 131.7124 85.1490 L 131.4554 84.8103 L 131.1971 84.4726 L 130.9374 84.1358 L 130.6765 83.8001 L 130.4143 83.4654 L 130.1507 83.1317 L 129.8858 82.7991 L 129.6196 82.4676 L 129.3520 82.1372 L 129.0831 81.8078 L 128.8128 81.4796 L 128.5411 81.1525 L 128.2681 80.8265 L 127.9937 80.5017 L 127.7179 80.1781 L 127.4407 79.8557 L 127.1621 79.5344 L 126.8821 79.2145 L 126.6006 78.8957 L 126.3178 78.5783 L 126.0335 78.2621 L 125.7478 77.9472 L 125.4606 77.6336 L 125.1719 77.3214 L 124.8818 77.0106 L 124.5902 76.7011 L 124.2971 76.3931 L 124.0025 76.0864 L 123.7065 75.7813 L 123.4089 75.4776 L 123.1097 75.1754 L 122.8091 74.8747 L 122.5069 74.5755 L 122.2032 74.2780 L 121.8979 73.9820 L 121.5910 73.6877 L 121.2826 73.3950 L 120.9726 73.1040 L 120.6609 72.8147 L 120.3477 72.5272 L 120.0329 72.2414 L 119.7164 71.9574 L 119.3983 71.6753 L 119.0785 71.3950 L 118.7571 71.1166 L 118.4340 70.8402 L 118.1093 70.5657 L 117.7829 70.2933 L 117.4547 70.0229 L 117.1249 69.7545 L 116.7933 69.4883 L 116.4600 69.2243 L 116.1250 68.9625 L 115.7882 68.7029 L 115.4497 68.4456 L 115.1094 68.1907 L 114.7673 67.9381 L 114.4235 67.6880 L 114.0778 67.4404 L 113.7304 67.1953 L 113.3811 66.9528 L 113.0300 66.7130 L 112.6771 66.4758 L 112.3223 66.2414 L 111.9657 66.0099 L 111.6072 65.7812 L 111.2468 65.5555 L 110.8846 65.3328 L 110.5205 65.1132 L 110.1546 64.8968 L 109.7867 64.6835 L 109.4169 64.4736 L 109.0452 64.2671 L 108.6717 64.0640 L 108.2962 63.8645 L 107.9188 63.6686 L 107.5395 63.4764 L 107.1583 63.2881 L 106.7752 63.1036 L 106.3902 62.9231 L 106.0033 62.7468 L 105.6145 62.5746 L 105.2238 62.4068 L 104.8313 62.2434 L 104.4369 62.0846 L 104.0406 61.9303 L 103.6425 61.7809 L 103.2427 61.6364 L 102.8410 61.4969 L 102.4376 61.3626 L 102.0324 61.2336 L 101.6256 61.1101 L 101.2170 60.9921 L 100.8069 60.8799 L 100.3952 60.7736 L 99.9820 60.6734 L 99.5673 60.5793 L 99.1513 60.4917 L 98.7339 60.4106 L 98.3152 60.3363 L 97.8954 60.2688 L 97.4745 60.2085 L 97.0527 60.1554 L 96.6299 60.1097 L 96.2064 60.0718 L 95.7823 60.0416 L 95.3577 60.0195 L 94.9327 60.0056 L 94.5076 60.0000 L 94.0824 60.0031 L 93.6574 60.0149 L 93.2327 60.0357 L 92.8085 60.0656 L 92.3851 60.1048 L 91.9627 60.1534 L 91.5416 60.2117 L 91.1218 60.2797 L 90.7039 60.3576 L 90.2878 60.4455 L 89.8741 60.5435 L 89.4629 60.6517 L 89.0546 60.7702 L 88.6493 60.8990 L 88.2476 61.0381 L 87.8495 61.1876 L 87.4555 61.3474 L 87.0658 61.5175 L 86.6808 61.6979 L 86.3007 61.8885 L 85.9258 62.0891 L 85.5564 62.2996 L 85.1928 62.5200 L 84.8352 62.7500 L 84.4838 62.9894 L 84.1389 63.2381 L 83.8007 63.4957 L 83.4694 63.7622 L 83.1450 64.0371 L 82.8279 64.3204 L 82.5181 64.6116 L 82.2157 64.9105 L 81.9208 65.2168 L 81.6336 65.5303 L 81.3539 65.8506 L 81.0820 66.1775 L 80.8178 66.5106 L 80.5613 66.8497 L 80.3125 67.1945 L 80.0714 67.5447 L 79.8379 67.9001 L 79.6120 68.2603 L 79.3937 68.6252 L 79.1828 68.9944 L 78.9794 69.3678 L 78.7833 69.7450 L 78.5944 70.1259 L 78.4126 70.5103 L 78.2379 70.8980 L 78.0701 71.2887 L 77.9091 71.6822 L 77.7549 72.0785 L 77.6073 72.4772 L 77.4662 72.8783 L 77.3314 73.2816 L 77.2030 73.6869 L 77.0807 74.0941 L 76.9644 74.5031 L 76.8541 74.9138 L 76.7497 75.3259 L 76.6509 75.7395 L 76.5578 76.1544 L 76.4701 76.5705 L 76.3879 76.9876 L 76.3110 77.4058 L 76.2392 77.8249 L 76.1726 78.2448 L 76.1109 78.6656 L 76.0542 79.0869 L 76.0022 79.5090 L 75.9550 79.9315 L 75.9124 80.3546 L 75.8743 80.7781 L 75.8407 81.2019 L 75.8114 81.6261 L 75.7865 82.0506 L 75.7657 82.4753 L 75.7491 82.9002 L 75.7366 83.3252 L 75.7280 83.7503 L 75.7233 84.1755 L 75.7224 84.6007 L 75.7254 85.0259 L 75.7320 85.4510 L 75.7423 85.8761 L 75.7561 86.3011 L 75.7735 86.7259 L 75.7943 87.1506 L 75.8185 87.5751 L 75.8460 87.9994 L 75.8769 88.4235 L 75.9109 88.8473 L 75.9481 89.2709 L 75.9885 89.6942 L 76.0319 90.1172 L 76.0784 90.5398 L 76.1278 90.9621 L 76.1802 91.3841 L 76.2354 91.8057 L 76.2935 92.2269 L 76.3544 92.6477 L 76.4180 93.0681 L 76.4844 93.4881 L 76.5534 93.9077 L 76.6250 94.3268 L 76.6993 94.7455 L 76.7761 95.1637 L 76.8555 95.5814 L 76.9373 95.9987 L 77.0216 96.4154 L 77.1083 96.8317 L 77.1974 97.2474 L 77.2888 97.6627 L 77.3826 98.0774 L 77.4787 98.4916 L 77.5770 98.9053 L 77.6775 99.3184 L 77.7803 99.7310 L 77.8852 100.1431 L 77.9923 100.5546 L 78.1015 100.9655 L 78.2128 101.3759 L 78.3262 101.7857 L 78.4416 102.1949 L 78.5591 102.6036 L 78.6785 103.0117 L 78.7999 103.4192 L 78.9232 103.8261 L 79.0485 104.2324 L 79.1757 104.6382 L 79.3047 105.0433 L 79.4357 105.4479 L 79.5684 105.8518 L 79.7030 106.2551 L 79.8394 106.6579 L 79.9775 107.0600 L 80.1174 107.4615 L 80.2591 107.8624 L 80.4025 108.2627 L 80.5475 108.6624 L 80.6943 109.0615 L 80.8427 109.4600 L 80.9928 109.8578 L 81.1445 110.2550 L 81.2979 110.6516 L 81.4528 111.0476 L 81.6093 111.4429 L 81.7674 111.8376 L 81.9271 112.2317 L 82.0883 112.6252 L 82.2510 113.0180 L 82.4152 113.4102 L 82.5809 113.8018 L 82.7481 114.1927 L 82.9168 114.5830 L 83.0869 114.9727 L 83.2585 115.3618 L 83.4315 115.7502 L 83.6059 116.1380 L 83.7817 116.5251 L 83.9589 116.9117 L 84.1375 117.2975 L 84.3174 117.6828 L 84.4987 118.0674 L 84.6814 118.4514 L 84.8653 118.8347 L 85.0506 119.2174 L 85.2372 119.5995 L 85.4251 119.9809 L 85.6143 120.3617 L 85.8047 120.7419 L 85.9965 121.1214 L 86.1894 121.5003 L 86.3837 121.8786 L 86.5791 122.2562 L 86.7758 122.6332 L 86.9737 123.0095 L 87.1728 123.3852 L 87.3731 123.7603 L 87.5746 124.1347 L 87.7772 124.5085 L 87.9811 124.8817 L 88.1861 125.2542 L 88.3922 125.6261 L 88.5995 125.9973 L 88.8079 126.3679 L 89.0175 126.7379 L 89.2281 127.1073 L 89.4399 127.4760 L 89.6528 127.8440 L 89.8668 128.2115 L 90.0818 128.5783 L 90.2979 128.9445 L 90.5152 129.3100 L 90.7334 129.6749 L 90.9528 130.0392 L 91.1731 130.4028 L 91.3946 130.7658 L 91.6170 131.1282 L 91.8405 131.4899 L 92.0650 131.8510 L 92.2905 132.2115 L 92.5170 132.5713 L 92.7445 132.9305 L 92.9731 133.2891 L 93.2026 133.6470 L 93.4331 134.0043 L 93.6645 134.3610 L 93.8969 134.7171 L 94.1303 135.0725 L 94.3647 135.4273 L 94.6000 135.7815 L 94.8362 136.1350 L 95.0734 136.4879 L 95.3115 136.8402 L 95.5506 137.1918 L 95.7905 137.5428 L 96.0314 137.8932 L 96.2732 138.2430 L 96.5159 138.5921 L 96.7595 138.9406 L 97.0040 139.2885 L 97.2493 139.6358 L 97.4956 139.9824 L 97.7428 140.3284 L 97.9908 140.6738 L 98.2396 141.0185 L 98.4894 141.3626 L 98.7400 141.7061 L 98.9915 142.0490 L 99.2438 142.3913 L 99.4969 142.7329 L 99.7509 143.0739 L 100.0057 143.4143 L 100.2614 143.7540 L 100.5179 144.0932 L 100.7752 144.4317 L 101.0333 144.7696 L 101.2922 145.1069 L 101.5520 145.4435 L 101.8125 145.7795 L 102.0739 146.1149 L 102.3360 146.4497 L 102.5989 146.7839 L 102.8627 147.1174 L 103.1272 147.4503 L 103.3924 147.7826 L 103.6585 148.1143 L 103.9253 148.4454 L 104.1929 148.7758 L 104.4613 149.1056 L 104.7304 149.4348 L 105.0002 149.7634 L 105.2709 150.0914 L 105.5422 150.4187 L 105.8144 150.7454 L 106.0872 151.0715 L 106.3608 151.3970 L 106.6351 151.7219 L 106.9102 152.0462 L 107.1860 152.3698 L 107.4625 152.6928 L 107.7397 153.0152 L 108.0176 153.3370 L 108.2963 153.6582 L 108.5756 153.9787 L 108.8557 154.2987 L 109.1365 154.6180 L 109.4179 154.9367 L 109.7001 155.2548 L 109.9830 155.5722 L 110.2665 155.8891 L 110.5507 156.2053 L 110.8356 156.5210 L 111.1212 156.8360 L 111.4075 157.1504 L 111.6945 157.4641 L 111.9821 157.7773 L 112.2704 158.0899 L 112.5593 158.4018 L 112.8489 158.7131 L 113.1392 159.0238 L 113.4301 159.3339 L 113.7217 159.6434 L 114.0139 159.9523 L 114.3068 160.2605 L 114.6003 160.5681 L 114.8945 160.8752 L 115.1893 161.1816 L 115.4848 161.4874 L 115.7808 161.7925 L 116.0775 162.0971 L 116.3749 162.4011 L 116.6728 162.7044 L 116.9714 163.0071 L 117.2706 163.3092 L 117.5705 163.6107 L 117.8709 163.9116 L 118.1719 164.2119 L 118.4736 164.5116 L 118.7759 164.8106 L 119.0788 165.1090 L 119.3822 165.4068 L 119.6863 165.7041 L 119.9910 166.0006 L 120.2963 166.2966 L 120.6021 166.5920 L 120.9086 166.8867 L 121.2157 167.1809 L 121.5233 167.4744 L 121.8315 167.7673 L 122.1403 168.0596 L 122.4497 168.3513 L 122.7596 168.6424 L 123.0702 168.9328 L 123.3813 169.2227 L 123.6930 169.5119 L 124.0052 169.8005 L 124.3180 170.0885 L 124.6314 170.3759 L 124.9453 170.6627 L 125.2598 170.9488 L 125.5749 171.2344 L 125.8905 171.5193 L 126.2067 171.8036 L 126.5234 172.0873 L 126.8406 172.3704 L 127.1585 172.6529 L 127.4768 172.9347 L 127.7957 173.2160 L 128.1152 173.4966 L 128.4351 173.7766 L 128.7557 174.0560 L 129.0767 174.3348 L 129.3983 174.6130 L 129.7204 174.8905 L 130.0431 175.1675 L 130.3662 175.4438 L 130.6899 175.7195 L 131.0142 175.9946 L 131.3389 176.2691 L 131.6642 176.5429 L 131.9900 176.8162 L 132.3163 177.0888 L 132.6431 177.3608 L 132.9704 177.6322 L 133.2982 177.9029 L 133.6266 178.1731 L 133.9555 178.4426 L 134.2848 178.7115 L 134.6147 178.9799 L 134.9450 179.2475 L 135.2759 179.5146 L 135.6073 179.7810 L 135.9391 180.0469 L 136.2715 180.3121 L 136.6043 180.5767 L 136.9377 180.8406 L 137.2715 181.1040 L 137.6058 181.3667 L 137.9407 181.6288 L 138.2759 181.8903 L 138.6117 182.1512 L 138.9480 182.4114 L 139.2847 182.6710 L 139.6219 182.9300 L 139.9596 183.1884 L 140.2978 183.4462 L 140.6364 183.7033 L 140.9756 183.9598 L 141.3151 184.2157 L 141.6552 184.4709 L 141.9957 184.7256 L 142.3367 184.9796 L 142.6781 185.2330 L 143.0201 185.4858 L 143.3624 185.7379 L 143.7053 185.9894 L 144.0486 186.2403 L 144.3923 186.4906 L 144.7365 186.7402 L 145.0812 186.9892 L 145.4263 187.2376 L 145.7719 187.4853 L 146.1179 187.7325 L 146.4643 187.9790 L 146.8112 188.2248 L 147.1586 188.4701 L 147.5064 188.7147 L 147.8546 188.9587 L 148.2033 189.2020 L 148.5524 189.4447 L 148.9020 189.6868 L 149.2520 189.9283 L 149.6024 190.1691 L 149.9533 190.4093 L 150.3045 190.6489 L 150.6563 190.8878 L 151.0084 191.1261 L 151.3610 191.3637 L 151.7140 191.6008 L 152.0674 191.8372 L 152.4213 192.0729 L 152.7756 192.3080 L 153.1303 192.5425 L 153.4854 192.7764 L 153.8410 193.0096 L 154.1969 193.2421 L 154.5533 193.4741 L 154.9101 193.7054 L 155.2673 193.9360 L 155.6249 194.1660 L 155.9829 194.3954 L 156.3414 194.6241 L 156.7002 194.8522 L 157.0595 195.0797 L 157.4191 195.3065 L 157.7792 195.5326 L 158.1397 195.7581 L 158.5005 195.9830 L 158.8618 196.2072 L 159.2235 196.4308 L 159.5856 196.6538 L 159.9480 196.8761 L 160.3109 197.0977 L 160.6741 197.3187 L 161.0378 197.5390 L 161.4018 197.7587 L 161.7663 197.9778 L 162.1311 198.1962 L 162.4963 198.4139 L 162.8619 198.6310 L 163.2279 198.8475 L 163.5943 199.0633 L 163.9610 199.2784 L 164.3282 199.4929 L 164.6957 199.7067 L 165.0636 199.9199 L 165.4319 200.1324 L 165.8005 200.3443 L 166.1696 200.5555 L 166.5390 200.7660 L 166.9088 200.9759 L 167.2789 201.1852 L 167.6495 201.3937 L 168.0204 201.6016 L 168.3917 201.8089 L 168.7633 202.0155 L 169.1353 202.2214 L 169.5077 202.4266 L 169.8804 202.6312 L 170.2535 202.8352 L 170.6270 203.0384 L 171.0008 203.2410 L 171.3750 203.4430 L 171.7496 203.6442 L 172.1245 203.8448 L 172.4998 204.0447 L 172.8754 204.2440 L 173.2514 204.4426 L 173.6277 204.6405 L 174.0044 204.8377 L 174.3814 205.0343 L 174.7588 205.2301 L 175.1366 205.4253 L 175.5147 205.6199 L 175.8931 205.8137 L 176.2719 206.0069 L 176.6510 206.1994 L 177.0305 206.3912 L 177.4103 206.5824 L 177.7905 206.7728 L 178.1710 206.9626 L 178.5518 207.1517 L 178.9330 207.3401 L 179.3145 207.5278 L 179.6964 207.7148 L 180.0786 207.9012 L 180.4611 208.0868 L 180.8440 208.2718 L 181.2272 208.4561 L 181.6107 208.6397 L 181.9945 208.8226 L 182.3787 209.0048 L 182.7632 209.1863 L 183.1481 209.3671 L 183.5332 209.5472 L 183.9187 209.7266 L 184.3046 209.9054 L 184.6907 210.0834 L 185.0772 210.2607 L 185.4639 210.4373 L 185.8510 210.6132 L 186.2385 210.7885 L 186.6262 210.9630 L 187.0143 211.1368 L 187.4026 211.3099 L 187.7913 211.4823 L 188.1803 211.6539 L 188.5696 211.8249 L 188.9593 211.9952 L 189.3492 212.1647 L 189.7394 212.3335 L 190.1300 212.5017 L 190.5209 212.6691 L 190.9120 212.8358 L 191.3035 213.0017 L 191.6953 213.1670 L 192.0873 213.3315 L 192.4797 213.4953 L 192.8724 213.6584 L 193.2654 213.8207 L 193.6587 213.9824 L 194.0523 214.1433 L 194.4461 214.3035 L 194.8403 214.4629 L 195.2348 214.6216 L 195.6295 214.7796 L 196.0246 214.9369 L 196.4199 215.0934 L 196.8156 215.2492 L 197.2115 215.4042 L 197.6077 215.5585 L 198.0042 215.7121 L 198.4010 215.8649 L 198.7981 216.0170 L 199.1954 216.1683 L 199.5931 216.3189 L 199.9910 216.4688 L 200.3892 216.6179 L 200.7877 216.7662 L 201.1864 216.9138 L 201.5855 217.0606 L 201.9848 217.2067 L 202.3844 217.3521 L 202.7843 217.4966 L 203.1844 217.6405 L 203.5848 217.7835 L 203.9855 217.9258 L 204.3865 218.0673 L 204.7877 218.2081 L 205.1892 218.3481 L 205.5909 218.4873 L 205.9930 218.6258 L 206.3953 218.7635 L 206.7978 218.9004 L 207.2006 219.0365 L 207.6037 219.1719 L 208.0070 219.3065 L 208.4106 219.4403 L 208.8145 219.5733 L 209.2186 219.7055 L 209.6230 219.8370 L 210.0276 219.9676 L 210.4325 220.0975 L 210.8376 220.2266 L 211.2430 220.3549 L 211.6486 220.4824 L 212.0545 220.6091 L 212.4607 220.7350 L 212.8670 220.8601 L 213.2737 220.9844 L 213.6805 221.1079 L 214.0876 221.2306 L 214.4950 221.3525 L 214.9026 221.4736 L 215.3104 221.5939 L 215.7185 221.7133 L 216.1268 221.8320 L 216.5354 221.9498 L 216.9442 222.0668 L 217.3532 222.1830 L 217.7624 222.2984 L 218.1719 222.4129 L 218.5816 222.5266 L 218.9916 222.6395 L 219.4018 222.7515 L 219.8122 222.8627 L 220.2228 222.9731 L 220.6336 223.0827 L 221.0447 223.1913 L 221.4560 223.2992 L 221.8675 223.4062 L 222.2792 223.5124 L 222.6912 223.6177 L 223.1034 223.7222 L 223.5157 223.8258 L 223.9283 223.9285 L 224.3412 224.0304 L 224.7542 224.1314 L 225.1674 224.2316 L 225.5809 224.3309 L 225.9945 224.4293 L 226.4084 224.5269 L 226.8224 224.6236 L 227.2367 224.7194 L 227.6512 224.8143 L 228.0658 224.9084 L 228.4807 225.0016 L 228.8958 225.0938 L 229.3110 225.1852 L 229.7265 225.2757 L 230.1421 225.3653 L 230.5580 225.4540 L 230.9740 225.5419 L 231.3902 225.6288 L 231.8067 225.7148 L 232.2233 225.7999 L 232.6400 225.8840 L 233.0570 225.9673 L 233.4742 226.0497 L 233.8915 226.1311 L 234.3090 226.2116 L 234.7267 226.2912 L 235.1445 226.3698 L 235.5626 226.4475 L 235.9808 226.5243 L 236.3992 226.6002 L 236.8177 226.6751 L 237.2365 226.7490 L 237.6553 226.8220 L 238.0744 226.8941 L 238.4936 226.9652 L 238.9130 227.0353 L 239.3325 227.1045 L 239.7522 227.1728 L 240.1721 227.2400 L 240.5921 227.3063 L 241.0122 227.3716 L 241.4325 227.4359 L 241.8530 227.4993 L 242.2736 227.5616 L 242.6943 227.6230 L 243.1152 227.6834 L 243.5362 227.7428 L 243.9574 227.8012 L 244.3787 227.8585 L 244.8002 227.9149 L 245.2218 227.9703 L 245.6435 228.0246 L 246.0653 228.0779 L 246.4873 228.1302 L 246.9094 228.1815 L 247.3316 228.2317 L 247.7540 228.2809 L 248.1764 228.3291 L 248.5990 228.3762 L 249.0217 228.4223 L 249.4445 228.4673 L 249.8674 228.5113 L 250.2905 228.5542 L 250.7136 228.5960 L 251.1368 228.6368 L 251.5602 228.6765 L 251.9836 228.7151 L 252.4072 228.7526 L 252.8308 228.7890 L 253.2545 228.8244 L 253.6784 228.8586 L 254.1023 228.8918 L 254.5263 228.9238 L 254.9503 228.9547 L 255.3745 228.9845 L 255.7987 229.0132 L 256.2230 229.0407 L 256.6474 229.0671 L 257.0719 229.0924 L 257.4964 229.1165 L 257.9210 229.1395 L 258.3456 229.1613 L 258.7703 229.1820 L 259.1951 229.2015 L 259.6199 229.2198 L 260.0447 229.2370 L 260.4696 229.2529 L 260.8946 229.2677 L 261.3195 229.2813 L 261.7446 229.2937 L 262.1696 229.3048 L 262.5947 229.3148 L 263.0198 229.3235 L 263.4450 229.3310 L 263.8701 229.3373 L 264.2953 229.3423 L 264.7205 229.3461 L 265.1457 229.3486 L 265.5709 229.3499 L 265.9961 229.3499 L 266.4213 229.3487 L 266.8464 229.3461 L 267.2716 229.3423 L 267.6968 229.3371 L 268.1220 229.3307 L 268.5471 229.3230 L 268.9722 229.3139 L 269.3973 229.3035 L 269.8223 229.2918 L 270.2473 229.2788 L 270.6723 229.2644 L 271.0972 229.2486 L 271.5220 229.2315 L 271.9468 229.2130 L 272.3716 229.1931 L 272.7962 229.1718 L 273.2208 229.1491 L 273.6453 229.1251 L 274.0698 229.0996 L 274.4941 229.0727 L 274.9184 229.0443 L 275.3425 229.0145 L 275.7666 228.9833 L 276.1905 228.9505 L 276.6143 228.9164 L 277.0381 228.8807 L 277.4616 228.8435 L 277.8851 228.8049 L 278.3084 228.7647 L 278.7315 228.7230 L 279.1545 228.6798 L 279.5773 228.6350 L 280.0000 228.5887 L 280.4225 228.5408 L 280.8448 228.4913 L 281.2669 228.4402 L 281.6889 228.3875 L 282.1106 228.3333 L 282.5321 228.2774 L 282.9534 228.2198 L 283.3745 228.1606 L 283.7953 228.0998 L 284.2159 228.0372 L 284.6362 227.9730 L 285.0562 227.9071 L 285.4760 227.8395 L 285.8955 227.7701 L 286.3147 227.6990 L 286.7337 227.6261 L 287.1522 227.5515 L 287.5705 227.4750 L 287.9885 227.3968 L 288.4061 227.3168 L 288.8233 227.2349 L 289.2402 227.1512 L 289.6567 227.0656 L 290.0728 226.9781 L 290.4885 226.8888 L 290.9038 226.7975 L 291.3186 226.7043 L 291.7331 226.6091 L 292.1470 226.5120 L 292.5605 226.4129 L 292.9735 226.3118 L 293.3860 226.2086 L 293.7980 226.1035 L 294.2095 225.9962 L 294.6204 225.8869 L 295.0307 225.7755 L 295.4405 225.6620 L 295.8496 225.5463 L 296.2582 225.4285 L 296.6661 225.3084 L 297.0733 225.1862 L 297.4799 225.0617 L 297.8858 224.9350 L 298.2910 224.8060 L 298.6954 224.6747 L 299.0990 224.5411 L 299.5019 224.4051 L 299.9040 224.2668 L 300.3052 224.1260 L 300.7056 223.9829 L 301.1051 223.8372 L 301.5036 223.6891 L 301.9013 223.5385 L 302.2979 223.3853 L 302.6936 223.2296 L 303.0882 223.0713 L 303.4818 222.9103 L 303.8742 222.7467 L 304.2655 222.5804 L 304.6557 222.4114 L 305.0447 222.2396 L 305.4324 222.0650 L 305.8188 221.8876 L 306.2039 221.7073 L 306.5876 221.5242 L 306.9700 221.3381 L 307.3508 221.1491 L 307.7302 220.9571 L 308.1080 220.7620 L 308.4842 220.5638 L 308.8587 220.3626 L 309.2316 220.1581 L 309.6026 219.9505 L 309.9719 219.7396 L 310.3392 219.5255 L 310.7046 219.3080 L 311.0679 219.0872 L 311.4292 218.8630 L 311.7883 218.6353 L 312.1452 218.4041 L 312.4997 218.1694 L 312.8518 217.9311 L 313.2015 217.6891 L 313.5486 217.4435 L 313.8930 217.1941 L 314.2346 216.9410 L 314.5734 216.6841 L 314.9092 216.4233 L 315.2420 216.1585 L 315.5715 215.8899 L 315.8978 215.6172 L 316.2206 215.3405 L 316.5399 215.0596 L 316.8555 214.7747 L 317.1672 214.4856 L 317.4750 214.1922 L 317.7787 213.8946 L 318.0781 213.5927 L 318.3731 213.2864 L 318.6635 212.9758 L 318.9491 212.6608 L 319.2297 212.3414 L 319.5052 212.0176 L 319.7754 211.6892 L 320.0400 211.3564 L 320.2989 211.0192 L 320.5519 210.6774 L 320.7987 210.3312 L 321.0391 209.9805 L 321.2729 209.6253 L 321.4998 209.2657 L 321.7197 208.9018 L 321.9322 208.5335 L 322.1371 208.1609 L 322.3342 207.7842 L 322.5232 207.4033 L 322.7038 207.0184 L 322.8759 206.6296 L 323.0391 206.2369 L 323.1932 205.8407 L 323.3380 205.4409 L 323.4732 205.0378 L 323.5986 204.6315 L 323.7139 204.2222 L 323.8191 203.8102 L 323.9137 203.3957 L 323.9978 202.9789 L 324.0711 202.5601 L 324.1335 202.1395 L 324.1848 201.7174 L 324.2249 201.2941 L 324.2538 200.8699 L 324.2713 200.4451" 
        fill="none" 
        stroke="#F44336" 
        stroke-width="1.0"
        stroke-linecap="round"
        stroke-linejoin="round"/>
</svg>