<?xml version="1.0" encoding="UTF-8"?>
<svg xmlns="http://www.w3.org/2000/svg" 
     width="400.0" height="400.0" 
     viewBox="0 0 400.0 400.0">
  <rect width="100%" height="100%" fill="#ffffff"/>
  <path d="M 332.1755 200.0000 L 332.1668 199.8166 L 332.1410 199.6349 L 332.0989 199.4562 L 332.0420 199.2816 L 331.9718 199.1120 L 331.8899 198.9476 L 331.7979 198.7887 L 331.6973 198.6352 L 331.5891 198.4868 L 331.4745 198.3433 L 331.3544 198.2044 L 331.2295 198.0698 L 331.1005 197.9391 L 330.9678 197.8122 L 330.8319 197.6887 L 330.6932 197.5684 L 330.5520 197.4509 L 330.4085 197.3363 L 330.2631 197.2241 L 330.1160 197.1143 L 329.9672 197.0066 L 329.8169 196.9010 L 329.6654 196.7973 L 329.5126 196.6954 L 329.3587 196.5952 L 329.2039 196.4965 L 329.0480 196.3994 L 328.8914 196.3036 L 328.7339 196.2091 L 328.5757 196.1158 L 328.4168 196.0237 L 328.2573 195.9328 L 328.0972 195.8429 L 327.9365 195.7539 L 327.7753 195.6659 L 327.6136 195.5789 L 327.4515 195.4926 L 327.2889 195.4072 L 327.1260 195.3226 L 326.9626 195.2387 L 326.7989 195.1555 L 326.6348 195.0730 L 326.4704 194.9911 L 326.3058 194.9099 L 326.1408 194.8293 L 325.9755 194.7492 L 325.8100 194.6696 L 325.6442 194.5906 L 325.4782 194.5121 L 325.3120 194.4341 L 325.1455 194.3565 L 324.9789 194.2794 L 324.8120 194.2027 L 324.6450 194.1264 L 324.4777 194.0505 L 324.3103 193.9750 L 324.1428 193.8999 L 323.9750 193.8251 L 323.8072 193.7507 L 323.6391 193.6766 L 323.4710 193.6028 L 323.3027 193.5293 L 323.1343 193.4561 L 322.9657 193.3832 L 322.7970 193.3106 L 322.6283 193.2382 L 322.4594 193.1662 L 322.2904 193.0943 L 322.1212 193.0227 L 321.9520 192.9513 L 321.7827 192.8802 L 321.6134 192.8093 L 321.4439 192.7386 L 321.2743 192.6681 L 321.1047 192.5978 L 320.9349 192.5277 L 320.7651 192.4577 L 320.5952 192.3880 L 320.4253 192.3184 L 320.2553 192.2490 L 320.0852 192.1798 L 319.9150 192.1107 L 319.7448 192.0418 L 319.5745 191.9730 L 319.4042 191.9044 L 319.2338 191.8359 L 319.0634 191.7675 L 318.8929 191.6993 L 318.7223 191.6312 L 318.5517 191.5632 L 318.3811 191.4954 L 318.2104 191.4276 L 318.0397 191.3600 L 317.8689 191.2925 L 317.6981 191.2251 L 317.5272 191.1578 L 317.3563 191.0906 L 317.1854 191.0235 L 317.0144 190.9564 L 316.8434 190.8895 L 316.6724 190.8227 L 316.5013 190.7559 L 316.3302 190.6892 L 316.1590 190.6226 L 315.9879 190.5561 L 315.8167 190.4897 L 315.6455 190.4233 L 315.4742 190.3570 L 315.3029 190.2907 L 315.1316 190.2246 L 314.9603 190.1585 L 314.7890 190.0924 L 314.6176 190.0264 L 314.4462 189.9605 L 314.2748 189.8946 L 314.1033 189.8288 L 313.9319 189.7630 L 313.7604 189.6973 L 313.5889 189.6316 L 313.4174 189.5660 L 313.2459 189.5004 L 313.0743 189.4348 L 312.9028 189.3693 L 312.7312 189.3038 L 312.5596 189.2384 L 312.3880 189.1730 L 312.2164 189.1077 L 312.0448 189.0423 L 311.8731 188.9770 L 311.7015 188.9118 L 311.5298 188.8465 L 311.3582 188.7813 L 311.1865 188.7161 L 311.0148 188.6510 L 310.8431 188.5859 L 310.6714 188.5208 L 310.4997 188.4557 L 310.3279 188.3906 L 310.1562 188.3256 L 309.9845 188.2605 L 309.8127 188.1955 L 309.6410 188.1305 L 309.4692 188.0655 L 309.2974 188.0006 L 309.1257 187.9356 L 308.9539 187.8707 L 308.7821 187.8057 L 308.6103 187.7408 L 308.4386 187.6759 L 308.2668 187.6110 L 308.0950 187.5461 L 307.9232 187.4812 L 307.7514 187.4164 L 307.5796 187.3515 L 307.4078 187.2866 L 307.2360 187.2217 L 307.0642 187.1569 L 306.8924 187.0920 L 306.7206 187.0272 L 306.5488 186.9623 L 306.3770 186.8974 L 306.2052 186.8326 L 306.0334 186.7677 L 305.8616 186.7028 L 305.6898 186.6380 L 305.5180 186.5731 L 305.3462 186.5082 L 305.1744 186.4433 L 305.0026 186.3785 L 304.8308 186.3136 L 304.6590 186.2487 L 304.4872 186.1838 L 304.3154 186.1189 L 304.1437 186.0539 L 303.9719 185.9890 L 303.8001 185.9241 L 303.6283 185.8591 L 303.4566 185.7941 L 303.2848 185.7292 L 303.1130 185.6642 L 302.9413 185.5992 L 302.7695 185.5342 L 302.5978 185.4692 L 302.4261 185.4041 L 302.2543 185.3391 L 302.0826 185.2740 L 301.9109 185.2089 L 301.7392 185.1439 L 301.5675 185.0787 L 301.3958 185.0136 L 301.2241 184.9485 L 301.0524 184.8833 L 300.8807 184.8181 L 300.7090 184.7529 L 300.5373 184.6877 L 300.3657 184.6225 L 300.1940 184.5573 L 300.0224 184.4920 L 299.8507 184.4267 L 299.6791 184.3614 L 299.5075 184.2961 L 299.3359 184.2307 L 299.1642 184.1653 L 298.9926 184.1000 L 298.8210 184.0345 L 298.6495 183.9691 L 298.4779 183.9036 L 298.3063 183.8382 L 298.1348 183.7727 L 297.9632 183.7071 L 297.7917 183.6416 L 297.6201 183.5760 L 297.4486 183.5104 L 297.2771 183.4448 L 297.1056 183.3791 L 296.9341 183.3135 L 296.7626 183.2478 L 296.5911 183.1820 L 296.4197 183.1163 L 296.2482 183.0505 L 296.0768 182.9847 L 295.9053 182.9189 L 295.7339 182.8530 L 295.5625 182.7871 L 295.3911 182.7212 L 295.2197 182.6553 L 295.0483 182.5893 L 294.8770 182.5233 L 294.7056 182.4573 L 294.5343 182.3912 L 294.3629 182.3252 L 294.1916 182.2590 L 294.0203 182.1929 L 293.8490 182.1267 L 293.6777 182.0605 L 293.5064 181.9943 L 293.3351 181.9280 L 293.1639 181.8617 L 292.9926 181.7954 L 292.8214 181.7291 L 292.6502 181.6627 L 292.4790 181.5963 L 292.3078 181.5298 L 292.1366 181.4634 L 291.9654 181.3968 L 291.7943 181.3303 L 291.6231 181.2637 L 291.4520 181.1971 L 291.2809 181.1305 L 291.1097 181.0638 L 290.9387 180.9971 L 290.7676 180.9304 L 290.5965 180.8636 L 290.4254 180.7968 L 290.2544 180.7300 L 290.0834 180.6631 L 289.9123 180.5962 L 289.7413 180.5293 L 289.5703 180.4623 L 289.3994 180.3953 L 289.2284 180.3283 L 289.0575 180.2612 L 288.8865 180.1941 L 288.7156 180.1269 L 288.5447 180.0597 L 288.3738 179.9925 L 288.2029 179.9253 L 288.0320 179.8580 L 287.8612 179.7907 L 287.6903 179.7233 L 287.5195 179.6559 L 287.3487 179.5885 L 287.1779 179.5211 L 287.0071 179.4536 L 286.8363 179.3860 L 286.6656 179.3184 L 286.4948 179.2508 L 286.3241 179.1832 L 286.1534 179.1155 L 285.9827 179.0478 L 285.8120 178.9800 L 285.6414 178.9123 L 285.4707 178.8444 L 285.3001 178.7766 L 285.1294 178.7087 L 284.9588 178.6407 L 284.7882 178.5727 L 284.6177 178.5047 L 284.4471 178.4367 L 284.2765 178.3686 L 284.1060 178.3005 L 283.9355 178.2323 L 283.7650 178.1641 L 283.5945 178.0958 L 283.4240 178.0276 L 283.2536 177.9592 L 283.0831 177.8909 L 282.9127 177.8225 L 282.7423 177.7540 L 282.5719 177.6856 L 282.4015 177.6171 L 282.2312 177.5485 L 282.0608 177.4799 L 281.8905 177.4113 L 281.7202 177.3426 L 281.5499 177.2739 L 281.3796 177.2052 L 281.2093 177.1364 L 281.0390 177.0675 L 280.8688 176.9987 L 280.6986 176.9298 L 280.5284 176.8608 L 280.3582 176.7918 L 280.1880 176.7228 L 280.0179 176.6538 L 279.8477 176.5846 L 279.6776 176.5155 L 279.5075 176.4463 L 279.3374 176.3771 L 279.1673 176.3078 L 278.9973 176.2385 L 278.8272 176.1692 L 278.6572 176.0998 L 278.4872 176.0304 L 278.3172 175.9609 L 278.1472 175.8914 L 277.9773 175.8218 L 277.8073 175.7522 L 277.6374 175.6826 L 277.4675 175.6129 L 277.2976 175.5432 L 277.1277 175.4735 L 276.9579 175.4037 L 276.7880 175.3338 L 276.6182 175.2640 L 276.4484 175.1940 L 276.2786 175.1241 L 276.1088 175.0541 L 275.9391 174.9840 L 275.7693 174.9140 L 275.5996 174.8438 L 275.4299 174.7737 L 275.2602 174.7035 L 275.0905 174.6332 L 274.9209 174.5629 L 274.7512 174.4926 L 274.5816 174.4222 L 274.4120 174.3518 L 274.2424 174.2813 L 274.0729 174.2108 L 273.9033 174.1403 L 273.7338 174.0697 L 273.5643 173.9991 L 273.3948 173.9284 L 273.2253 173.8577 L 273.0558 173.7869 L 272.8864 173.7161 L 272.7170 173.6453 L 272.5476 173.5744 L 272.3782 173.5035 L 272.2088 173.4325 L 272.0394 173.3615 L 271.8701 173.2905 L 271.7008 173.2194 L 271.5315 173.1483 L 271.3622 173.0771 L 271.1929 173.0059 L 271.0237 172.9346 L 270.8545 172.8633 L 270.6852 172.7919 L 270.5161 172.7206 L 270.3469 172.6491 L 270.1777 172.5776 L 270.0086 172.5061 L 269.8395 172.4346 L 269.6704 172.3630 L 269.5013 172.2913 L 269.3322 172.2196 L 269.1631 172.1479 L 268.9941 172.0761 L 268.8251 172.0043 L 268.6561 171.9324 L 268.4871 171.8605 L 268.3182 171.7886 L 268.1492 171.7166 L 267.9803 171.6445 L 267.8114 171.5725 L 267.6425 171.5003 L 267.4737 171.4282 L 267.3048 171.3560 L 267.1360 171.2837 L 266.9672 171.2114 L 266.7984 171.1391 L 266.6296 171.0667 L 266.4609 170.9943 L 266.2921 170.9218 L 266.1234 170.8493 L 265.9547 170.7767 L 265.7860 170.7041 L 265.6174 170.6315 L 265.4487 170.5588 L 265.2801 170.4861 L 265.1115 170.4133 L 264.9429 170.3405 L 264.7744 170.2676 L 264.6058 170.1947 L 264.4373 170.1218 L 264.2688 170.0488 L 264.1003 169.9757 L 263.9318 169.9027 L 263.7634 169.8295 L 263.5949 169.7564 L 263.4265 169.6832 L 263.2581 169.6099 L 263.0897 169.5366 L 262.9214 169.4633 L 262.7530 169.3899 L 262.5847 169.3164 L 262.4164 169.2430 L 262.2481 169.1695 L 262.0799 169.0959 L 261.9116 169.0223 L 261.7434 168.9486 L 261.5752 168.8749 L 261.4070 168.8012 L 261.2389 168.7274 L 261.0707 168.6536 L 260.9026 168.5797 L 260.7345 168.5058 L 260.5664 168.4318 L 260.3983 168.3578 L 260.2303 168.2838 L 260.0623 168.2097 L 259.8942 168.1356 L 259.7263 168.0614 L 259.5583 167.9872 L 259.3903 167.9129 L 259.2224 167.8386 L 259.0545 167.7642 L 258.8866 167.6898 L 258.7187 167.6154 L 258.5509 167.5409 L 258.3830 167.4664 L 258.2152 167.3918 L 258.0474 167.3172 L 257.8797 167.2425 L 257.7119 167.1678 L 257.5442 167.0930 L 257.3765 167.0182 L 257.2088 166.9434 L 257.0411 166.8685 L 256.8734 166.7936 L 256.7058 166.7186 L 256.5382 166.6436 L 256.3706 166.5685 L 256.2030 166.4934 L 256.0355 166.4182 L 255.8679 166.3430 L 255.7004 166.2678 L 255.5329 166.1925 L 255.3654 166.1172 L 255.1980 166.0418 L 255.0305 165.9664 L 254.8631 165.8909 L 254.6957 165.8154 L 254.5283 165.7398 L 254.3610 165.6642 L 254.1937 165.5886 L 254.0263 165.5129 L 253.8590 165.4372 L 253.6918 165.3614 L 253.5245 165.2856 L 253.3573 165.2097 L 253.1901 165.1338 L 253.0229 165.0578 L 252.8557 164.9818 L 252.6885 164.9058 L 252.5214 164.8297 L 252.3543 164.7536 L 252.1872 164.6774 L 252.0201 164.6012 L 251.8531 164.5249 L 251.6860 164.4486 L 251.5190 164.3722 L 251.3520 164.2958 L 251.1851 164.2194 L 251.0181 164.1429 L 250.8512 164.0664 L 250.6843 163.9898 L 250.5174 163.9132 L 250.3505 163.8365 L 250.1837 163.7598 L 250.0168 163.6830 L 249.8500 163.6062 L 249.6832 163.5294 L 249.5165 163.4525 L 249.3497 163.3755 L 249.1830 163.2986 L 249.0163 163.2215 L 248.8496 163.1445 L 248.6830 163.0673 L 248.5163 162.9902 L 248.3497 162.9130 L 248.1831 162.8357 L 248.0165 162.7584 L 247.8500 162.6811 L 247.6834 162.6037 L 247.5169 162.5263 L 247.3504 162.4488 L 247.1839 162.3713 L 247.0175 162.2937 L 246.8510 162.2161 L 246.6846 162.1385 L 246.5182 162.0608 L 246.3519 161.9830 L 246.1855 161.9052 L 246.0192 161.8274 L 245.8529 161.7495 L 245.6866 161.6716 L 245.5203 161.5936 L 245.3541 161.5156 L 245.1879 161.4376 L 245.0216 161.3595 L 244.8555 161.2813 L 244.6893 161.2032 L 244.5232 161.1249 L 244.3570 161.0466 L 244.1909 160.9683 L 244.0249 160.8899 L 243.8588 160.8115 L 243.6928 160.7331 L 243.5268 160.6546 L 243.3608 160.5760 L 243.1948 160.4974 L 243.0288 160.4188 L 242.8629 160.3401 L 242.6970 160.2614 L 242.5311 160.1826 L 242.3653 160.1038 L 242.1994 160.0249 L 242.0336 159.9460 L 241.8678 159.8671 L 241.7020 159.7881 L 241.5362 159.7091 L 241.3705 159.6300 L 241.2048 159.5509 L 241.0391 159.4717 L 240.8734 159.3925 L 240.7078 159.3132 L 240.5421 159.2339 L 240.3765 159.1545 L 240.2109 159.0751 L 240.0454 158.9957 L 239.8798 158.9162 L 239.7143 158.8367 L 239.5488 158.7571 L 239.3833 158.6775 L 239.2179 158.5978 L 239.0524 158.5181 L 238.8870 158.4384 L 238.7216 158.3586 L 238.5562 158.2787 L 238.3909 158.1988 L 238.2256 158.1189 L 238.0602 158.0389 L 237.8950 157.9589 L 237.7297 157.8788 L 237.5645 157.7987 L 237.3992 157.7186 L 237.2340 157.6384 L 237.0689 157.5581 L 236.9037 157.4778 L 236.7386 157.3975 L 236.5734 157.3171 L 236.4084 157.2367 L 236.2433 157.1562 L 236.0782 157.0757 L 235.9132 156.9951 L 235.7482 156.9145 L 235.5832 156.8339 L 235.4183 156.7532 L 235.2533 156.6725 L 235.0884 156.5917 L 234.9235 156.5109 L 234.7586 156.4300 L 234.5938 156.3491 L 234.4290 156.2681 L 234.2642 156.1871 L 234.0994 156.1061 L 233.9346 156.0250 L 233.7699 155.9438 L 233.6051 155.8626 L 233.4404 155.7814 L 233.2758 155.7001 L 233.1111 155.6188 L 232.9465 155.5375 L 232.7819 155.4561 L 232.6173 155.3746 L 232.4527 155.2931 L 232.2882 155.2116 L 232.1237 155.1300 L 231.9592 155.0484 L 231.7947 154.9667 L 231.6302 154.8850 L 231.4658 154.8032 L 231.3014 154.7214 L 231.1370 154.6395 L 230.9726 154.5576 L 230.8083 154.4757 L 230.6440 154.3937 L 230.4797 154.3117 L 230.3154 154.2296 L 230.1511 154.1475 L 229.9869 154.0653 L 229.8227 153.9831 L 229.6585 153.9009 L 229.4943 153.8186 L 229.3302 153.7362 L 229.1661 153.6538 L 229.0020 153.5714 L 228.8379 153.4889 L 228.6738 153.4064 L 228.5098 153.3238 L 228.3458 153.2412 L 228.1818 153.1586 L 228.0179 153.0759 L 227.8539 152.9931 L 227.6900 152.9103 L 227.5261 152.8275 L 227.3622 152.7446 L 227.1984 152.6617 L 227.0345 152.5788 L 226.8707 152.4957 L 226.7069 152.4127 L 226.5432 152.3296 L 226.3794 152.2465 L 226.2157 152.1633 L 226.0520 152.0800 L 225.8884 151.9968 L 225.7247 151.9134 L 225.5611 151.8301 L 225.3975 151.7467 L 225.2339 151.6632 L 225.0703 151.5797 L 224.9068 151.4962 L 224.7433 151.4126 L 224.5798 151.3289 L 224.4163 151.2453 L 224.2529 151.1616 L 224.0895 151.0778 L 223.9261 150.9940 L 223.7627 150.9101 L 223.5993 150.8262 L 223.4360 150.7423 L 223.2727 150.6583 L 223.1094 150.5743 L 222.9462 150.4902 L 222.7829 150.4061 L 222.6197 150.3219 L 222.4565 150.2377 L 222.2933 150.1535 L 222.1302 150.0692 L 221.9671 149.9848 L 221.8040 149.9004 L 221.6409 149.8160 L 221.4778 149.7315 L 221.3148 149.6470 L 221.1518 149.5624 L 220.9888 149.4778 L 220.8258 149.3932 L 220.6629 149.3085 L 220.5000 149.2238 L 220.3371 149.1390 L 220.1742 149.0541 L 220.0113 148.9693 L 219.8485 148.8844 L 219.6857 148.7994 L 219.5229 148.7144 L 219.3602 148.6293 L 219.1974 148.5442 L 219.0347 148.4591 L 218.8720 148.3739 L 218.7094 148.2887 L 218.5467 148.2034 L 218.3841 148.1181 L 218.2215 148.0328 L 218.0590 147.9474 L 217.8964 147.8619 L 217.7339 147.7764 L 217.5714 147.6909 L 217.4089 147.6053 L 217.2464 147.5197 L 217.0840 147.4340 L 216.9216 147.3483 L 216.7592 147.2625 L 216.5968 147.1767 L 216.4345 147.0909 L 216.2722 147.0050 L 216.1099 146.9191 L 215.9476 146.8331 L 215.7854 146.7471 L 215.6232 146.6610 L 215.4610 146.5749 L 215.2988 146.4888 L 215.1366 146.4026 L 214.9745 146.3163 L 214.8124 146.2300 L 214.6503 146.1437 L 214.4883 146.0573 L 214.3262 145.9709 L 214.1642 145.8845 L 214.0022 145.7980 L 213.8403 145.7114 L 213.6783 145.6248 L 213.5164 145.5382 L 213.3545 145.4515 L 213.1926 145.3648 L 213.0308 145.2780 L 212.8690 145.1912 L 212.7072 145.1043 L 212.5454 145.0174 L 212.3836 144.9305 L 212.2219 144.8435 L 212.0602 144.7565 L 211.8985 144.6694 L 211.7369 144.5823 L 211.5752 144.4951 L 211.4136 144.4079 L 211.2520 144.3207 L 211.0905 144.2334 L 210.9289 144.1460 L 210.7674 144.0586 L 210.6059 143.9712 L 210.4444 143.8837 L 210.2830 143.7962 L 210.1216 143.7087 L 209.9602 143.6211 L 209.7988 143.5334 L 209.6375 143.4457 L 209.4761 143.3580 L 209.3148 143.2702 L 209.1536 143.1824 L 208.9923 143.0945 L 208.8311 143.0066 L 208.6699 142.9187 L 208.5087 142.8307 L 208.3475 142.7426 L 208.1864 142.6545 L 208.0253 142.5664 L 207.8642 142.4782 L 207.7031 142.3900 L 207.5421 142.3018 L 207.3811 142.2134 L 207.2201 142.1251 L 207.0591 142.0367 L 206.8982 141.9483 L 206.7373 141.8598 L 206.5764 141.7713 L 206.4155 141.6827 L 206.2546 141.5941 L 206.0938 141.5054 L 205.9330 141.4167 L 205.7723 141.3280 L 205.6115 141.2392 L 205.4508 141.1504 L 205.2901 141.0615 L 205.1294 140.9726 L 204.9687 140.8836 L 204.8081 140.7946 L 204.6475 140.7056 L 204.4869 140.6165 L 204.3264 140.5274 L 204.1658 140.4382 L 204.0053 140.3490 L 203.8448 140.2597 L 203.6844 140.1704 L 203.5240 140.0810 L 203.3635 139.9916 L 203.2032 139.9022 L 203.0428 139.8127 L 202.8825 139.7232 L 202.7221 139.6336 L 202.5619 139.5440 L 202.4016 139.4544 L 202.2413 139.3647 L 202.0811 139.2749 L 201.9209 139.1851 L 201.7608 139.0953 L 201.6006 139.0054 L 201.4405 138.9155 L 201.2804 138.8255 L 201.1203 138.7355 L 200.9603 138.6455 L 200.8003 138.5554 L 200.6403 138.4653 L 200.4803 138.3751 L 200.3204 138.2849 L 200.1604 138.1946 L 200.0005 138.1043 L 199.8407 138.0139 L 199.6808 137.9235 L 199.5210 137.8331 L 199.3612 137.7426 L 199.2014 137.6521 L 199.0417 137.5615 L 198.8819 137.4709 L 198.7222 137.3802 L 198.5626 137.2895 L 198.4029 137.1988 L 198.2433 137.1080 L 198.0837 137.0172 L 197.9241 136.9263 L 197.7646 136.8354 L 197.6050 136.7444 L 197.4455 136.6534 L 197.2860 136.5624 L 197.1266 136.4713 L 196.9672 136.3801 L 196.8078 136.2890 L 196.6484 136.1977 L 196.4890 136.1065 L 196.3297 136.0152 L 196.1704 135.9238 L 196.0111 135.8324 L 195.8518 135.7410 L 195.6926 135.6495 L 195.5334 135.5580 L 195.3742 135.4664 L 195.2151 135.3748 L 195.0559 135.2832 L 194.8968 135.1915 L 194.7377 135.0997 L 194.5787 135.0079 L 194.4197 134.9161 L 194.2607 134.8242 L 194.1017 134.7323 L 193.9427 134.6404 L 193.7838 134.5484 L 193.6249 134.4563 L 193.4660 134.3642 L 193.3071 134.2721 L 193.1483 134.1799 L 192.9895 134.0877 L 192.8307 133.9955 L 192.6720 133.9032 L 192.5132 133.8108 L 192.3545 133.7184 L 192.1958 133.6260 L 192.0372 133.5335 L 191.8786 133.4410 L 191.7199 133.3485 L 191.5614 133.2558 L 191.4028 133.1632 L 191.2443 133.0705 L 191.0858 132.9778 L 190.9273 132.8850 L 190.7688 132.7922 L 190.6104 132.6993 L 190.4520 132.6064 L 190.2936 132.5135 L 190.1353 132.4205 L 189.9769 132.3274 L 189.8186 132.2344 L 189.6604 132.1412 L 189.5021 132.0481 L 189.3439 131.9549 L 189.1857 131.8616 L 189.0275 131.7683 L 188.8693 131.6750 L 188.7112 131.5816 L 188.5531 131.4882 L 188.3950 131.3947 L 188.2370 131.3012 L 188.0790 131.2077 L 187.9210 131.1141 L 187.7630 131.0205 L 187.6051 130.9268 L 187.4471 130.8331 L 187.2892 130.7393 L 187.1314 130.6455 L 186.9735 130.5516 L 186.8157 130.4577 L 186.6579 130.3638 L 186.5001 130.2698 L 186.3424 130.1758 L 186.1847 130.0817 L 186.0270 129.9876 L 185.8693 129.8935 L 185.7117 129.7993 L 185.5540 129.7050 L 185.3965 129.6108 L 185.2389 129.5164 L 185.0814 129.4221 L 184.9238 129.3277 L 184.7664 129.2332 L 184.6089 129.1387 L 184.4515 129.0442 L 184.2940 128.9496 L 184.1367 128.8550 L 183.9793 128.7603 L 183.8220 128.6656 L 183.6647 128.5709 L 183.5074 128.4761 L 183.3501 128.3812 L 183.1929 128.2864 L 183.0357 128.1915 L 182.8785 128.0965 L 182.7214 128.0015 L 182.5642 127.9064 L 182.4071 127.8113 L 182.2500 127.7162 L 182.0930 127.6210 L 181.9360 127.5258 L 181.7790 127.4305 L 181.6220 127.3352 L 181.4651 127.2399 L 181.3081 127.1445 L 181.1512 127.0491 L 180.9944 126.9536 L 180.8375 126.8581 L 180.6807 126.7625 L 180.5239 126.6669 L 180.3672 126.5713 L 180.2104 126.4756 L 180.0537 126.3799 L 179.8970 126.2841 L 179.7404 126.1883 L 179.5837 126.0924 L 179.4271 125.9965 L 179.2705 125.9006 L 179.1140 125.8046 L 178.9574 125.7085 L 178.8009 125.6125 L 178.6445 125.5164 L 178.4880 125.4202 L 178.3316 125.3240 L 178.1752 125.2278 L 178.0188 125.1315 L 177.8625 125.0352 L 177.7061 124.9388 L 177.5498 124.8424 L 177.3936 124.7459 L 177.2373 124.6494 L 177.0811 124.5529 L 176.9249 124.4563 L 176.7688 124.3597 L 176.6126 124.2630 L 176.4565 124.1663 L 176.3004 124.0696 L 176.1444 123.9728 L 175.9883 123.8759 L 175.8323 123.7790 L 175.6764 123.6821 L 175.5204 123.5852 L 175.3645 123.4882 L 175.2086 123.3911 L 175.0527 123.2940 L 174.8969 123.1969 L 174.7410 123.0997 L 174.5852 123.0025 L 174.4295 122.9052 L 174.2737 122.8079 L 174.1180 122.7106 L 173.9623 122.6132 L 173.8067 122.5158 L 173.6510 122.4183 L 173.4954 122.3208 L 173.3398 122.2232 L 173.1843 122.1256 L 173.0287 122.0280 L 172.8732 121.9303 L 172.7178 121.8326 L 172.5623 121.7348 L 172.4069 121.6370 L 172.2515 121.5392 L 172.0961 121.4413 L 171.9408 121.3433 L 171.7855 121.2454 L 171.6302 121.1473 L 171.4749 121.0493 L 171.3197 120.9512 L 171.1644 120.8530 L 171.0093 120.7548 L 170.8541 120.6566 L 170.6990 120.5583 L 170.5439 120.4600 L 170.3888 120.3617 L 170.2337 120.2633 L 170.0787 120.1648 L 169.9237 120.0663 L 169.7687 119.9678 L 169.6138 119.8692 L 169.4589 119.7706 L 169.3040 119.6720 L 169.1491 119.5733 L 168.9943 119.4746 L 168.8395 119.3758 L 168.6847 119.2770 L 168.5299 119.1781 L 168.3752 119.0792 L 168.2205 118.9802 L 168.0658 118.8813 L 167.9112 118.7822 L 167.7566 118.6832 L 167.6020 118.5840 L 167.4474 118.4849 L 167.2929 118.3857 L 167.1383 118.2864 L 166.9839 118.1872 L 166.8294 118.0878 L 166.6750 117.9885 L 166.5206 117.8891 L 166.3662 117.7896 L 166.2118 117.6901 L 166.0575 117.5906 L 165.9032 117.4910 L 165.7489 117.3914 L 165.5947 117.2917 L 165.4405 117.1920 L 165.2863 117.0923 L 165.1321 116.9925 L 164.9780 116.8927 L 164.8239 116.7928 L 164.6698 116.6929 L 164.5157 116.5930 L 164.3617 116.4930 L 164.2077 116.3929 L 164.0537 116.2928 L 163.8998 116.1927 L 163.7459 116.0926 L 163.5920 115.9924 L 163.4381 115.8921 L 163.2843 115.7918 L 163.1305 115.6915 L 162.9767 115.5911 L 162.8229 115.4907 L 162.6692 115.3903 L 162.5155 115.2898 L 162.3618 115.1892 L 162.2082 115.0887 L 162.0546 114.9880 L 161.9010 114.8874 L 161.7474 114.7867 L 161.5939 114.6859 L 161.4403 114.5851 L 161.2869 114.4843 L 161.1334 114.3834 L 160.9800 114.2825 L 160.8266 114.1816 L 160.6732 114.0806 L 160.5199 113.9795 L 160.3665 113.8785 L 160.2133 113.7773 L 160.0600 113.6762 L 159.9068 113.5750 L 159.7535 113.4737 L 159.6004 113.3725 L 159.4472 113.2711 L 159.2941 113.1698 L 159.1410 113.0683 L 158.9879 112.9669 L 158.8349 112.8654 L 158.6819 112.7639 L 158.5289 112.6623 L 158.3759 112.5607 L 158.2230 112.4590 L 158.0701 112.3573 L 157.9172 112.2556 L 157.7643 112.1538 L 157.6115 112.0520 L 157.4587 111.9501 L 157.3059 111.8482 L 157.1532 111.7462 L 157.0005 111.6443 L 156.8478 111.5422 L 156.6952 111.4401 L 156.5425 111.3380 L 156.3899 111.2359 L 156.2373 111.1337 L 156.0848 111.0314 L 155.9323 110.9292 L 155.7798 110.8268 L 155.6273 110.7245 L 155.4749 110.6221 L 155.3225 110.5196 L 155.1701 110.4171 L 155.0177 110.3146 L 154.8654 110.2120 L 154.7131 110.1094 L 154.5609 110.0068 L 154.4086 109.9041 L 154.2564 109.8014 L 154.1042 109.6986 L 153.9521 109.5958 L 153.7999 109.4929 L 153.6478 109.3900 L 153.4957 109.2871 L 153.3437 109.1841 L 153.1917 109.0811 L 153.0397 108.9780 L 152.8877 108.8749 L 152.7358 108.7718 L 152.5839 108.6686 L 152.4320 108.5653 L 152.2801 108.4621 L 152.1283 108.3588 L 151.9765 108.2554 L 151.8248 108.1520 L 151.6730 108.0486 L 151.5213 107.9451 L 151.3696 107.8416 L 151.2180 107.7381 L 151.0663 107.6345 L 150.9147 107.5308 L 150.7632 107.4271 L 150.6116 107.3234 L 150.4601 107.2197 L 150.3086 107.1159 L 150.1572 107.0120 L 150.0057 106.9081 L 149.8543 106.8042 L 149.7029 106.7003 L 149.5516 106.5962 L 149.4003 106.4922 L 149.2490 106.3881 L 149.0977 106.2840 L 148.9465 106.1798 L 148.7953 106.0756 L 148.6441 105.9714 L 148.4929 105.8671 L 148.3418 105.7627 L 148.1907 105.6584 L 148.0397 105.5540 L 147.8886 105.4495 L 147.7376 105.3450 L 147.5866 105.2405 L 147.4357 105.1359 L 147.2847 105.0313 L 147.1338 104.9266 L 146.9830 104.8219 L 146.8321 104.7172 L 146.6813 104.6124 L 146.5305 104.5076 L 146.3798 104.4027 L 146.2291 104.2978 L 146.0784 104.1929 L 145.9277 104.0879 L 145.7770 103.9829 L 145.6264 103.8778 L 145.4758 103.7727 L 145.3253 103.6676 L 145.1747 103.5624 L 145.0242 103.4572 L 144.8738 103.3519 L 144.7233 103.2466 L 144.5729 103.1413 L 144.4225 103.0359 L 144.2721 102.9304 L 144.1218 102.8250 L 143.9715 102.7195 L 143.8212 102.6139 L 143.6710 102.5083 L 143.5208 102.4027 L 143.3706 102.2970 L 143.2204 102.1913 L 143.0703 102.0856 L 142.9202 101.9798 L 142.7701 101.8740 L 142.6200 101.7681 L 142.4700 101.6622 L 142.3200 101.5562 L 142.1701 101.4502 L 142.0201 101.3442 L 141.8702 101.2381 L 141.7203 101.1320 L 141.5705 101.0259 L 141.4207 100.9197 L 141.2709 100.8135 L 141.1211 100.7072 L 140.9714 100.6009 L 140.8217 100.4945 L 140.6720 100.3881 L 140.5223 100.2817 L 140.3727 100.1752 L 140.2231 100.0687 L 140.0735 99.9622 L 139.9240 99.8556 L 139.7745 99.7489 L 139.6250 99.6423 L 139.4756 99.5356 L 139.3261 99.4288 L 139.1767 99.3220 L 139.0274 99.2152 L 138.8780 99.1083 L 138.7287 99.0014 L 138.5794 98.8945 L 138.4302 98.7875 L 138.2810 98.6804 L 138.1318 98.5734 L 137.9826 98.4663 L 137.8335 98.3591 L 137.6843 98.2519 L 137.5353 98.1447 L 137.3862 98.0374 L 137.2372 97.9301 L 137.0882 97.8228 L 136.9392 97.7154 L 136.7903 97.6080 L 136.6414 97.5005 L 136.4925 97.3930 L 136.3436 97.2855 L 136.1948 97.1779 L 136.0460 97.0703 L 135.8972 96.9626 L 135.7485 96.8549 L 135.5998 96.7472 L 135.4511 96.6394 L 135.3024 96.5316 L 135.1538 96.4237 L 135.0052 96.3158 L 134.8567 96.2079 L 134.7081 96.0999 L 134.5596 95.9919 L 134.4111 95.8838 L 134.2627 95.7757 L 134.1142 95.6676 L 133.9658 95.5594 L 133.8175 95.4512 L 133.6691 95.3430 L 133.5208 95.2347 L 133.3725 95.1263 L 133.2243 95.0180 L 133.0760 94.9096 L 132.9278 94.8011 L 132.7797 94.6926 L 132.6315 94.5841 L 132.4834 94.4755 L 132.3353 94.3669 L 132.1873 94.2583 L 132.0393 94.1496 L 131.8913 94.0409 L 131.7433 93.9322 L 131.5953 93.8234 L 131.4474 93.7145 L 131.2995 93.6057 L 131.1517 93.4967 L 131.0039 93.3878 L 130.8561 93.2788 L 130.7083 93.1698 L 130.5605 93.0607 L 130.4128 92.9516 L 130.2651 92.8425 L 130.1175 92.7333 L 129.9699 92.6241 L 129.8223 92.5148 L 129.6747 92.4055 L 129.5271 92.2962 L 129.3796 92.1868 L 129.2321 92.0774 L 129.0847 91.9679 L 128.9372 91.8584 L 128.7898 91.7489 L 128.6425 91.6394 L 128.4951 91.5298 L 128.3478 91.4201 L 128.2005 91.3104 L 128.0533 91.2007 L 127.9060 91.0910 L 127.7588 90.9812 L 127.6117 90.8713 L 127.4645 90.7615 L 127.3174 90.6516 L 127.1703 90.5416 L 127.0232 90.4316 L 126.8762 90.3216 L 126.7292 90.2116 L 126.5822 90.1015 L 126.4353 89.9913 L 126.2884 89.8812 L 126.1415 89.7710 L 125.9946 89.6607 L 125.8478 89.5504 L 125.7010 89.4401 L 125.5542 89.3297 L 125.4074 89.2193 L 125.2607 89.1089 L 125.1140 88.9984 L 124.9673 88.8879 L 124.8207 88.7774 L 124.6741 88.6668 L 124.5275 88.5562 L 124.3810 88.4455 L 124.2344 88.3348 L 124.0879 88.2241 L 123.9415 88.1133 L 123.7950 88.0025 L 123.6486 87.8917 L 123.5022 87.7808 L 123.3559 87.6699 L 123.2095 87.5589 L 123.0632 87.4479 L 122.9170 87.3369 L 122.7707 87.2258 L 122.6245 87.1147 L 122.4783 87.0036 L 122.3321 86.8924 L 122.1860 86.7812 L 122.0399 86.6700 L 121.8938 86.5587 L 121.7478 86.4474 L 121.6017 86.3360 L 121.4557 86.2246 L 121.3098 86.1132 L 121.1638 86.0017 L 121.0179 85.8902 L 120.8720 85.7787 L 120.7262 85.6671 L 120.5803 85.5555 L 120.4345 85.4438 L 120.2888 85.3322 L 120.1430 85.2204 L 119.9973 85.1087 L 119.8516 84.9969 L 119.7059 84.8851 L 119.5603 84.7732 L 119.4147 84.6613 L 119.2691 84.5494 L 119.1236 84.4374 L 118.9780 84.3254 L 118.8325 84.2134 L 118.6871 84.1013 L 118.5416 83.9892 L 118.3962 83.8770 L 118.2508 83.7649 L 118.1054 83.6526 L 117.9601 83.5404 L 117.8148 83.4281 L 117.6695 83.3158 L 117.5243 83.2034 L 117.3790 83.0910 L 117.2338 82.9786 L 117.0886 82.8662 L 116.9435 82.7537 L 116.7984 82.6411 L 116.6533 82.5286 L 116.5082 82.4160 L 116.3632 82.3033 L 116.2182 82.1907 L 116.0732 82.0780 L 115.9282 81.9652 L 115.7833 81.8525 L 115.6384 81.7397 L 115.4935 81.6268 L 115.3486 81.5139 L 115.2038 81.4010 L 115.0590 81.2881 L 114.9142 81.1751 L 114.7695 81.0621 L 114.6247 80.9491 L 114.4800 80.8360 L 114.3354 80.7229 L 114.1907 80.6097 L 114.0461 80.4966 L 113.9015 80.3834 L 113.7569 80.2701 L 113.6124 80.1568 L 113.4679 80.0435 L 113.3234 79.9302 L 113.1789 79.8168 L 113.0345 79.7034 L 112.8901 79.5900 L 112.7457 79.4765 L 112.6013 79.3630 L 112.4570 79.2495 L 112.3127 79.1359 L 112.1684 79.0223 L 112.0241 78.9087 L 111.8799 78.7950 L 111.7357 78.6813 L 111.5915 78.5676 L 111.4474 78.4538 L 111.3032 78.3400 L 111.1591 78.2262 L 111.0150 78.1123 L 110.8710 77.9985 L 110.7269 77.8845 L 110.5829 77.7706 L 110.4389 77.6566 L 110.2950 77.5426 L 110.1510 77.4286 L 110.0071 77.3145 L 109.8632 77.2004 L 109.7194 77.0862 L 109.5755 76.9721 L 109.4317 76.8579 L 109.2879 76.7437 L 109.1442 76.6294 L 109.0004 76.5151 L 108.8567 76.4008 L 108.7130 76.2865 L 108.5693 76.1721 L 108.4257 76.0577 L 108.2821 75.9433 L 108.1385 75.8288 L 107.9949 75.7143 L 107.8513 75.5998 L 107.7078 75.4852 L 107.5643 75.3707 L 107.4208 75.2560 L 107.2773 75.1414 L 107.1339 75.0267 L 106.9905 74.9121 L 106.8471 74.7973 L 106.7037 74.6826 L 106.5604 74.5678 L 106.4170 74.4530 L 106.2737 74.3382 L 106.1304 74.2233 L 105.9872 74.1084 L 105.8439 73.9935 L 105.7007 73.8786 L 105.5575 73.7636 L 105.4143 73.6486 L 105.2712 73.5336 L 105.1280 73.4185 L 104.9849 73.3035 L 104.8418 73.1884 L 104.6988 73.0732 L 104.5557 72.9581 L 104.4127 72.8429 L 104.2697 72.7277 L 104.1267 72.6125 L 103.9837 72.4972 L 103.8408 72.3820 L 103.6978 72.2667 L 103.5549 72.1513 L 103.4120 72.0360 L 103.2692 71.9206 L 103.1263 71.8052 L 102.9835 71.6898 L 102.8407 71.5744 L 102.6979 71.4589 L 102.5551 71.3434 L 102.4123 71.2279 L 102.2696 71.1124 L 102.1269 70.9968 L 101.9842 70.8812 L 101.8415 70.7656 L 101.6988 70.6500 L 101.5561 70.5343 L 101.4135 70.4187 L 101.2709 70.3030 L 101.1283 70.1873 L 100.9857 70.0715 L 100.8431 69.9558 L 100.7006 69.8400 L 100.5581 69.7242 L 100.4155 69.6084 L 100.2730 69.4926 L 100.1306 69.3768 L 99.9881 69.2609 L 99.8456 69.1450 L 99.7032 69.0291 L 99.5608 68.9132 L 99.4183 68.7972 L 99.2759 68.6813 L 99.1336 68.5653 L 98.9912 68.4493 L 98.8488 68.3333 L 98.7065 68.2173 L 98.5642 68.1012 L 98.4218 67.9852 L 98.2795 67.8691 L 98.1372 67.7530 L 97.9950 67.6369 L 97.8527 67.5208 L 97.7104 67.4047 L 97.5682 67.2886 L 97.4259 67.1724 L 97.2837 67.0562 L 97.1415 66.9401 L 96.9993 66.8239 L 96.8571 66.7077 L 96.7149 66.5914 L 96.5727 66.4752 L 96.4306 66.3590 L 96.2884 66.2427 L 96.1462 66.1265 L 96.0041 66.0102 L 95.8620 65.8939 L 95.7198 65.7776 L 95.5777 65.6614 L 95.4356 65.5451 L 95.2935 65.4287 L 95.1514 65.3124 L 95.0093 65.1961 L 94.8672 65.0798 L 94.7251 64.9635 L 94.5830 64.8471 L 94.4409 64.7308 L 94.2988 64.6144 L 94.1567 64.4981 L 94.0147 64.3817 L 93.8726 64.2654 L 93.7305 64.1490 L 93.5884 64.0327 L 93.4464 63.9163 L 93.3043 63.8000 L 93.1622 63.6836 L 93.0202 63.5673 L 92.8781 63.4509 L 92.7360 63.3345 L 92.5939 63.2182 L 92.4518 63.1019 L 92.3097 62.9855 L 92.1677 62.8692 L 92.0256 62.7529 L 91.8835 62.6365 L 91.7414 62.5202 L 91.5992 62.4039 L 91.4571 62.2876 L 91.3150 62.1713 L 91.1728 62.0551 L 91.0307 61.9388 L 90.8885 61.8226 L 90.7464 61.7063 L 90.6042 61.5901 L 90.4620 61.4739 L 90.3198 61.3577 L 90.1776 61.2415 L 90.0354 61.1253 L 89.8931 61.0092 L 89.7508 60.8931 L 89.6086 60.7770 L 89.4663 60.6609 L 89.3240 60.5448 L 89.1816 60.4288 L 89.0393 60.3128 L 88.8969 60.1968 L 88.7545 60.0808 L 88.6121 59.9649 L 88.4696 59.8490 L 88.3272 59.7331 L 88.1847 59.6173 L 88.0422 59.5015 L 87.8996 59.3857 L 87.7570 59.2699 L 87.6144 59.1542 L 87.4718 59.0386 L 87.3291 58.9230 L 87.1864 58.8074 L 87.0437 58.6918 L 86.9009 58.5763 L 86.7581 58.4609 L 86.6153 58.3455 L 86.4724 58.2301 L 86.3294 58.1148 L 86.1865 57.9996 L 86.0435 57.8844 L 85.9004 57.7693 L 85.7573 57.6542 L 85.6141 57.5392 L 85.4709 57.4242 L 85.3277 57.3093 L 85.1843 57.1945 L 85.0410 57.0797 L 84.8975 56.9651 L 84.7541 56.8505 L 84.6105 56.7359 L 84.4669 56.6215 L 84.3232 56.5071 L 84.1795 56.3928 L 84.0357 56.2786 L 83.8918 56.1645 L 83.7478 56.0505 L 83.6038 55.9366 L 83.4597 55.8228 L 83.3155 55.7090 L 83.1712 55.5954 L 83.0269 55.4819 L 82.8824 55.3685 L 82.7379 55.2552 L 82.5932 55.1421 L 82.4485 55.0291 L 82.3037 54.9161 L 82.1587 54.8034 L 82.0137 54.6907 L 81.8686 54.5782 L 81.7233 54.4659 L 81.5779 54.3537 L 81.4324 54.2417 L 81.2868 54.1298 L 81.1410 54.0181 L 80.9952 53.9065 L 80.8491 53.7952 L 80.7030 53.6840 L 80.5567 53.5730 L 80.4102 53.4622 L 80.2636 53.3516 L 80.1168 53.2413 L 79.9699 53.1311 L 79.8228 53.0212 L 79.6755 52.9115 L 79.5280 52.8021 L 79.3804 52.6929 L 79.2325 52.5840 L 79.0845 52.4753 L 78.9362 52.3670 L 78.7877 52.2589 L 78.6391 52.1511 L 78.4901 52.0437 L 78.3410 51.9366 L 78.1915 51.8298 L 78.0419 51.7234 L 77.8919 51.6174 L 77.7417 51.5117 L 77.5912 51.4065 L 77.4404 51.3017 L 77.2893 51.1973 L 77.1379 51.0934 L 76.9862 50.9900 L 76.8341 50.8871 L 76.6816 50.7847 L 76.5288 50.6829 L 76.3756 50.5817 L 76.2220 50.4810 L 76.0679 50.3811 L 75.9134 50.2818 L 75.7585 50.1832 L 75.6031 50.0854 L 75.4472 49.9883 L 75.2908 49.8921 L 75.1338 49.7968 L 74.9763 49.7024 L 74.8181 49.6091 L 74.6594 49.5168 L 74.5000 49.4256 L 74.3399 49.3356 L 74.1791 49.2469 L 74.0175 49.1596 L 73.8552 49.0737 L 73.6920 48.9895 L 73.5280 48.9069 L 73.3631 48.8262 L 73.1972 48.7474 L 73.0303 48.6708 L 72.8623 48.5966 L 72.6933 48.5249 L 72.5230 48.4560 L 72.3516 48.3902 L 72.1789 48.3278 L 72.0049 48.2691 L 71.8295 48.2146 L 71.6528 48.1647 L 71.4747 48.1200 L 71.2952 48.0811 L 71.1145 48.0487 L 70.9325 48.0238 L 70.7497 48.0072 L 70.5662 48.0000 L 70.3826 48.0034 L 70.1997 48.0188 L 70.0183 48.0472 L 69.8398 48.0900 L 69.6656 48.1480 L 69.4974 48.2216 L 69.3369 48.3107 L 69.1857 48.4147 L 69.0447 48.5323 L 68.9145 48.6618 L 68.7954 48.8015 L 68.6871 48.9497 L 68.5890 49.1049 L 68.5004 49.2657 L 68.4205 49.4311 L 68.3486 49.6000 L 68.2839 49.7719 L 68.2257 49.9461 L 68.1735 50.1221 L 68.1266 50.2996 L 68.0845 50.4784 L 68.0469 50.6581 L 68.0133 50.8387 L 67.9834 51.0199 L 67.9569 51.2016 L 67.9334 51.3837 L 67.9128 51.5662 L 67.8948 51.7489 L 67.8793 51.9319 L 67.8660 52.1151 L 67.8548 52.2984 L 67.8455 52.4818 L 67.8381 52.6653 L 67.8324 52.8488 L 67.8283 53.0324 L 67.8257 53.2160 L 67.8245 53.3996 L 67.8246 53.5833 L 67.8260 53.7669 L 67.8285 53.9505 L 67.8322 54.1341 L 67.8370 54.3177 L 67.8427 54.5013 L 67.8494 54.6848 L 67.8570 54.8683 L 67.8655 55.0517 L 67.8748 55.2351 L 67.8849 55.4185 L 67.8957 55.6018 L 67.9072 55.7851 L 67.9194 55.9683 L 67.9323 56.1515 L 67.9457 56.3346 L 67.9598 56.5177 L 67.9744 56.7008 L 67.9896 56.8838 L 68.0053 57.0668 L 68.0216 57.2497 L 68.0382 57.4326 L 68.0554 57.6154 L 68.0730 57.7982 L 68.0910 57.9809 L 68.1095 58.1637 L 68.1283 58.3463 L 68.1476 58.5290 L 68.1672 58.7115 L 68.1871 58.8941 L 68.2074 59.0766 L 68.2280 59.2591 L 68.2489 59.4415 L 68.2702 59.6239 L 68.2917 59.8063 L 68.3136 59.9887 L 68.3357 60.1710 L 68.3580 60.3532 L 68.3807 60.5355 L 68.4035 60.7177 L 68.4267 60.8999 L 68.4500 61.0820 L 68.4736 61.2641 L 68.4974 61.4462 L 68.5214 61.6283 L 68.5456 61.8103 L 68.5700 61.9923 L 68.5946 62.1743 L 68.6194 62.3563 L 68.6444 62.5382 L 68.6695 62.7201 L 68.6948 62.9020 L 68.7203 63.0839 L 68.7459 63.2657 L 68.7717 63.4475 L 68.7976 63.6293 L 68.8237 63.8111 L 68.8499 63.9929 L 68.8762 64.1746 L 68.9027 64.3563 L 68.9293 64.5380 L 68.9560 64.7197 L 68.9829 64.9014 L 69.0098 65.0830 L 69.0369 65.2647 L 69.0641 65.4463 L 69.0913 65.6279 L 69.1187 65.8095 L 69.1462 65.9910 L 69.1738 66.1726 L 69.2014 66.3541 L 69.2292 66.5357 L 69.2570 66.7172 L 69.2849 66.8987 L 69.3129 67.0802 L 69.3410 67.2617 L 69.3692 67.4431 L 69.3974 67.6246 L 69.4257 67.8060 L 69.4541 67.9875 L 69.4825 68.1689 L 69.5110 68.3503 L 69.5396 68.5317 L 69.5682 68.7131 L 69.5968 68.8945 L 69.6256 69.0759 L 69.6543 69.2572 L 69.6832 69.4386 L 69.7121 69.6199 L 69.7410 69.8013 L 69.7700 69.9826 L 69.7990 70.1640 L 69.8280 70.3453 L 69.8571 70.5266 L 69.8863 70.7079 L 69.9155 70.8892 L 69.9447 71.0705 L 69.9739 71.2518 L 70.0032 71.4331 L 70.0325 71.6144 L 70.0619 71.7957 L 70.0912 71.9769 L 70.1206 72.1582 L 70.1501 72.3395 L 70.1795 72.5207 L 70.2090 72.7020 L 70.2385 72.8833 L 70.2680 73.0645 L 70.2976 73.2458 L 70.3271 73.4270 L 70.3567 73.6082 L 70.3863 73.7895 L 70.4159 73.9707 L 70.4455 74.1520 L 70.4752 74.3332 L 70.5048 74.5144 L 70.5345 74.6956 L 70.5642 74.8769 L 70.5938 75.0581 L 70.6235 75.2393 L 70.6532 75.4205 L 70.6829 75.6018 L 70.7126 75.7830 L 70.7424 75.9642 L 70.7721 76.1454 L 70.8018 76.3266 L 70.8315 76.5078 L 70.8613 76.6891 L 70.8910 76.8703 L 70.9207 77.0515 L 70.9505 77.2327 L 70.9802 77.4139 L 71.0099 77.5951 L 71.0396 77.7764 L 71.0694 77.9576 L 71.0991 78.1388 L 71.1288 78.3200 L 71.1585 78.5012 L 71.1882 78.6825 L 71.2179 78.8637 L 71.2476 79.0449 L 71.2773 79.2261 L 71.3069 79.4074 L 71.3366 79.5886 L 71.3662 79.7698 L 71.3959 79.9510 L 71.4255 80.1323 L 71.4551 80.3135 L 71.4848 80.4947 L 71.5144 80.6760 L 71.5439 80.8572 L 71.5735 81.0385 L 71.6031 81.2197 L 71.6326 81.4010 L 71.6621 81.5822 L 71.6916 81.7635 L 71.7211 81.9447 L 71.7506 82.1260 L 71.7801 82.3072 L 71.8095 82.4885 L 71.8390 82.6698 L 71.8684 82.8510 L 71.8978 83.0323 L 71.9271 83.2136 L 71.9565 83.3949 L 71.9858 83.5761 L 72.0151 83.7574 L 72.0444 83.9387 L 72.0737 84.1200 L 72.1030 84.3013 L 72.1322 84.4826 L 72.1614 84.6639 L 72.1906 84.8452 L 72.2197 85.0265 L 72.2489 85.2078 L 72.2780 85.3891 L 72.3071 85.5705 L 72.3362 85.7518 L 72.3652 85.9331 L 72.3942 86.1144 L 72.4232 86.2958 L 72.4522 86.4771 L 72.4811 86.6585 L 72.5100 86.8398 L 72.5389 87.0212 L 72.5678 87.2025 L 72.5966 87.3839 L 72.6254 87.5652 L 72.6542 87.7466 L 72.6830 87.9280 L 72.7117 88.1094 L 72.7404 88.2907 L 72.7691 88.4721 L 72.7977 88.6535 L 72.8263 88.8349 L 72.8549 89.0163 L 72.8834 89.1977 L 72.9120 89.3791 L 72.9404 89.5606 L 72.9689 89.7420 L 72.9973 89.9234 L 73.0257 90.1048 L 73.0541 90.2863 L 73.0824 90.4677 L 73.1107 90.6491 L 73.1390 90.8306 L 73.1673 91.0121 L 73.1955 91.1935 L 73.2236 91.3750 L 73.2518 91.5564 L 73.2799 91.7379 L 73.3080 91.9194 L 73.3360 92.1009 L 73.3640 92.2824 L 73.3920 92.4639 L 73.4199 92.6454 L 73.4479 92.8269 L 73.4757 93.0084 L 73.5036 93.1899 L 73.5314 93.3714 L 73.5591 93.5530 L 73.5869 93.7345 L 73.6146 93.9160 L 73.6422 94.0976 L 73.6699 94.2791 L 73.6975 94.4607 L 73.7250 94.6422 L 73.7525 94.8238 L 73.7800 95.0054 L 73.8075 95.1869 L 73.8349 95.3685 L 73.8623 95.5501 L 73.8896 95.7317 L 73.9169 95.9133 L 73.9442 96.0949 L 73.9714 96.2765 L 73.9986 96.4581 L 74.0258 96.6397 L 74.0529 96.8214 L 74.0799 97.0030 L 74.1070 97.1846 L 74.1340 97.3663 L 74.1609 97.5479 L 74.1879 97.7296 L 74.2148 97.9113 L 74.2416 98.0929 L 74.2684 98.2746 L 74.2952 98.4563 L 74.3219 98.6379 L 74.3486 98.8196 L 74.3753 99.0013 L 74.4019 99.1830 L 74.4284 99.3647 L 74.4550 99.5465 L 74.4815 99.7282 L 74.5079 99.9099 L 74.5343 100.0916 L 74.5607 100.2734 L 74.5870 100.4551 L 74.6133 100.6368 L 74.6396 100.8186 L 74.6658 101.0004 L 74.6920 101.1821 L 74.7181 101.3639 L 74.7442 101.5457 L 74.7702 101.7275 L 74.7962 101.9092 L 74.8222 102.0910 L 74.8481 102.2728 L 74.8740 102.4546 L 74.8999 102.6365 L 74.9257 102.8183 L 74.9514 103.0001 L 74.9771 103.1819 L 75.0028 103.3638 L 75.0284 103.5456 L 75.0540 103.7274 L 75.0796 103.9093 L 75.1051 104.0912 L 75.1306 104.2730 L 75.1560 104.4549 L 75.1814 104.6368 L 75.2067 104.8187 L 75.2320 105.0005 L 75.2572 105.1824 L 75.2825 105.3643 L 75.3076 105.5462 L 75.3327 105.7282 L 75.3578 105.9101 L 75.3829 106.0920 L 75.4079 106.2739 L 75.4328 106.4559 L 75.4577 106.6378 L 75.4826 106.8198 L 75.5074 107.0017 L 75.5322 107.1837 L 75.5569 107.3656 L 75.5816 107.5476 L 75.6063 107.7296 L 75.6309 107.9116 L 75.6554 108.0936 L 75.6799 108.2755 L 75.7044 108.4576 L 75.7288 108.6396 L 75.7532 108.8216 L 75.7775 109.0036 L 75.8018 109.1856 L 75.8261 109.3676 L 75.8503 109.5497 L 75.8745 109.7317 L 75.8986 109.9138 L 75.9226 110.0958 L 75.9467 110.2779 L 75.9707 110.4600 L 75.9946 110.6420 L 76.0185 110.8241 L 76.0423 111.0062 L 76.0661 111.1883 L 76.0899 111.3704 L 76.1136 111.5525 L 76.1373 111.7346 L 76.1609 111.9167 L 76.1845 112.0988 L 76.2080 112.2809 L 76.2315 112.4631 L 76.2549 112.6452 L 76.2783 112.8274 L 76.3017 113.0095 L 76.3250 113.1917 L 76.3482 113.3738 L 76.3715 113.5560 L 76.3946 113.7382 L 76.4178 113.9203 L 76.4408 114.1025 L 76.4639 114.2847 L 76.4868 114.4669 L 76.5098 114.6491 L 76.5327 114.8313 L 76.5555 115.0135 L 76.5783 115.1957 L 76.6011 115.3780 L 76.6238 115.5602 L 76.6465 115.7424 L 76.6691 115.9247 L 76.6916 116.1069 L 76.7142 116.2892 L 76.7367 116.4714 L 76.7591 116.6537 L 76.7815 116.8360 L 76.8038 117.0182 L 76.8261 117.2005 L 76.8484 117.3828 L 76.8706 117.5651 L 76.8927 117.7474 L 76.9148 117.9297 L 76.9369 118.1120 L 76.9589 118.2943 L 76.9809 118.4766 L 77.0028 118.6590 L 77.0246 118.8413 L 77.0465 119.0236 L 77.0683 119.2060 L 77.0900 119.3883 L 77.1117 119.5707 L 77.1333 119.7530 L 77.1549 119.9354 L 77.1764 120.1178 L 77.1979 120.3001 L 77.2194 120.4825 L 77.2408 120.6649 L 77.2622 120.8473 L 77.2835 121.0297 L 77.3047 121.2121 L 77.3259 121.3945 L 77.3471 121.5769 L 77.3682 121.7594 L 77.3893 121.9418 L 77.4103 122.1242 L 77.4313 122.3066 L 77.4522 122.4891 L 77.4731 122.6715 L 77.4940 122.8540 L 77.5148 123.0364 L 77.5355 123.2189 L 77.5562 123.4014 L 77.5768 123.5839 L 77.5974 123.7663 L 77.6180 123.9488 L 77.6385 124.1313 L 77.6589 124.3138 L 77.6793 124.4963 L 77.6997 124.6788 L 77.7200 124.8613 L 77.7403 125.0438 L 77.7605 125.2264 L 77.7807 125.4089 L 77.8008 125.5914 L 77.8209 125.7740 L 77.8409 125.9565 L 77.8609 126.1391 L 77.8808 126.3216 L 77.9007 126.5042 L 77.9205 126.6867 L 77.9403 126.8693 L 77.9600 127.0519 L 77.9797 127.2345 L 77.9994 127.4171 L 78.0190 127.5996 L 78.0385 127.7822 L 78.0580 127.9648 L 78.0775 128.1474 L 78.0969 128.3301 L 78.1162 128.5127 L 78.1355 128.6953 L 78.1548 128.8779 L 78.1740 129.0606 L 78.1931 129.2432 L 78.2123 129.4258 L 78.2313 129.6085 L 78.2503 129.7911 L 78.2693 129.9738 L 78.2882 130.1564 L 78.3071 130.3391 L 78.3259 130.5218 L 78.3447 130.7045 L 78.3634 130.8871 L 78.3821 131.0698 L 78.4007 131.2525 L 78.4193 131.4352 L 78.4378 131.6179 L 78.4563 131.8006 L 78.4747 131.9833 L 78.4931 132.1661 L 78.5115 132.3488 L 78.5297 132.5315 L 78.5480 132.7142 L 78.5662 132.8970 L 78.5843 133.0797 L 78.6024 133.2625 L 78.6205 133.4452 L 78.6385 133.6280 L 78.6564 133.8107 L 78.6743 133.9935 L 78.6922 134.1763 L 78.7100 134.3590 L 78.7277 134.5418 L 78.7454 134.7246 L 78.7631 134.9074 L 78.7807 135.0902 L 78.7982 135.2730 L 78.8157 135.4558 L 78.8332 135.6386 L 78.8506 135.8214 L 78.8680 136.0042 L 78.8853 136.1870 L 78.9026 136.3699 L 78.9198 136.5527 L 78.9369 136.7355 L 78.9541 136.9184 L 78.9711 137.1012 L 78.9882 137.2841 L 79.0051 137.4669 L 79.0220 137.6498 L 79.0389 137.8326 L 79.0557 138.0155 L 79.0725 138.1984 L 79.0892 138.3812 L 79.1059 138.5641 L 79.1226 138.7470 L 79.1391 138.9299 L 79.1557 139.1128 L 79.1721 139.2957 L 79.1886 139.4786 L 79.2050 139.6615 L 79.2213 139.8444 L 79.2376 140.0273 L 79.2538 140.2102 L 79.2700 140.3932 L 79.2861 140.5761 L 79.3022 140.7590 L 79.3183 140.9420 L 79.3343 141.1249 L 79.3502 141.3079 L 79.3661 141.4908 L 79.3819 141.6738 L 79.3977 141.8567 L 79.4135 142.0397 L 79.4292 142.2226 L 79.4448 142.4056 L 79.4604 142.5886 L 79.4760 142.7716 L 79.4915 142.9546 L 79.5069 143.1375 L 79.5223 143.3205 L 79.5377 143.5035 L 79.5530 143.6865 L 79.5682 143.8695 L 79.5834 144.0525 L 79.5986 144.2356 L 79.6137 144.4186 L 79.6287 144.6016 L 79.6437 144.7846 L 79.6587 144.9676 L 79.6736 145.1507 L 79.6885 145.3337 L 79.7033 145.5168 L 79.7180 145.6998 L 79.7328 145.8829 L 79.7474 146.0659 L 79.7620 146.2490 L 79.7766 146.4320 L 79.7911 146.6151 L 79.8056 146.7982 L 79.8200 146.9812 L 79.8343 147.1643 L 79.8487 147.3474 L 79.8629 147.5305 L 79.8771 147.7136 L 79.8913 147.8966 L 79.9054 148.0797 L 79.9195 148.2628 L 79.9335 148.4459 L 79.9475 148.6291 L 79.9614 148.8122 L 79.9753 148.9953 L 79.9891 149.1784 L 80.0029 149.3615 L 80.0166 149.5446 L 80.0303 149.7278 L 80.0439 149.9109 L 80.0574 150.0940 L 80.0710 150.2772 L 80.0844 150.4603 L 80.0979 150.6435 L 80.1112 150.8266 L 80.1246 151.0098 L 80.1378 151.1929 L 80.1511 151.3761 L 80.1643 151.5593 L 80.1774 151.7424 L 80.1905 151.9256 L 80.2035 152.1088 L 80.2165 152.2920 L 80.2294 152.4751 L 80.2423 152.6583 L 80.2551 152.8415 L 80.2679 153.0247 L 80.2806 153.2079 L 80.2933 153.3911 L 80.3059 153.5743 L 80.3185 153.7575 L 80.3310 153.9407 L 80.3435 154.1240 L 80.3560 154.3072 L 80.3683 154.4904 L 80.3807 154.6736 L 80.3930 154.8568 L 80.4052 155.0401 L 80.4174 155.2233 L 80.4295 155.4065 L 80.4416 155.5898 L 80.4536 155.7730 L 80.4656 155.9563 L 80.4776 156.1395 L 80.4895 156.3228 L 80.5013 156.5060 L 80.5131 156.6893 L 80.5248 156.8726 L 80.5365 157.0558 L 80.5482 157.2391 L 80.5597 157.4224 L 80.5713 157.6056 L 80.5828 157.7889 L 80.5942 157.9722 L 80.6056 158.1555 L 80.6169 158.3388 L 80.6282 158.5221 L 80.6395 158.7054 L 80.6507 158.8887 L 80.6618 159.0720 L 80.6729 159.2553 L 80.6839 159.4386 L 80.6949 159.6219 L 80.7059 159.8052 L 80.7168 159.9885 L 80.7276 160.1718 L 80.7384 160.3552 L 80.7492 160.5385 L 80.7599 160.7218 L 80.7705 160.9051 L 80.7811 161.0885 L 80.7916 161.2718 L 80.8021 161.4551 L 80.8126 161.6385 L 80.8230 161.8218 L 80.8333 162.0052 L 80.8436 162.1885 L 80.8539 162.3719 L 80.8641 162.5552 L 80.8742 162.7386 L 80.8843 162.9220 L 80.8944 163.1053 L 80.9044 163.2887 L 80.9143 163.4721 L 80.9242 163.6554 L 80.9341 163.8388 L 80.9439 164.0222 L 80.9536 164.2056 L 80.9633 164.3889 L 80.9730 164.5723 L 80.9826 164.7557 L 80.9921 164.9391 L 81.0016 165.1225 L 81.0111 165.3059 L 81.0205 165.4893 L 81.0298 165.6727 L 81.0391 165.8561 L 81.0484 166.0395 L 81.0576 166.2229 L 81.0667 166.4063 L 81.0758 166.5897 L 81.0849 166.7732 L 81.0939 166.9566 L 81.1028 167.1400 L 81.1117 167.3234 L 81.1206 167.5068 L 81.1294 167.6903 L 81.1382 167.8737 L 81.1469 168.0571 L 81.1555 168.2406 L 81.1641 168.4240 L 81.1727 168.6074 L 81.1812 168.7909 L 81.1896 168.9743 L 81.1980 169.1578 L 81.2064 169.3412 L 81.2147 169.5247 L 81.2230 169.7081 L 81.2312 169.8916 L 81.2393 170.0750 L 81.2474 170.2585 L 81.2555 170.4420 L 81.2635 170.6254 L 81.2715 170.8089 L 81.2794 170.9924 L 81.2872 171.1758 L 81.2950 171.3593 L 81.3028 171.5428 L 81.3105 171.7263 L 81.3181 171.9097 L 81.3258 172.0932 L 81.3333 172.2767 L 81.3408 172.4602 L 81.3483 172.6437 L 81.3557 172.8272 L 81.3630 173.0107 L 81.3704 173.1942 L 81.3776 173.3776 L 81.3848 173.5611 L 81.3920 173.7446 L 81.3991 173.9281 L 81.4062 174.1116 L 81.4132 174.2952 L 81.4201 174.4787 L 81.4270 174.6622 L 81.4339 174.8457 L 81.4407 175.0292 L 81.4475 175.2127 L 81.4542 175.3962 L 81.4608 175.5797 L 81.4675 175.7633 L 81.4740 175.9468 L 81.4805 176.1303 L 81.4870 176.3138 L 81.4934 176.4974 L 81.4998 176.6809 L 81.5061 176.8644 L 81.5123 177.0480 L 81.5185 177.2315 L 81.5247 177.4150 L 81.5308 177.5986 L 81.5369 177.7821 L 81.5429 177.9656 L 81.5489 178.1492 L 81.5548 178.3327 L 81.5606 178.5163 L 81.5664 178.6998 L 81.5722 178.8834 L 81.5779 179.0669 L 81.5836 179.2505 L 81.5892 179.4340 L 81.5948 179.6176 L 81.6003 179.8011 L 81.6057 179.9847 L 81.6112 180.1682 L 81.6165 180.3518 L 81.6218 180.5354 L 81.6271 180.7189 L 81.6323 180.9025 L 81.6375 181.0861 L 81.6426 181.2696 L 81.6477 181.4532 L 81.6527 181.6368 L 81.6576 181.8203 L 81.6626 182.0039 L 81.6674 182.1875 L 81.6722 182.3711 L 81.6770 182.5546 L 81.6817 182.7382 L 81.6864 182.9218 L 81.6910 183.1054 L 81.6956 183.2890 L 81.7001 183.4725 L 81.7046 183.6561 L 81.7090 183.8397 L 81.7133 184.0233 L 81.7177 184.2069 L 81.7219 184.3905 L 81.7261 184.5741 L 81.7303 184.7577 L 81.7344 184.9413 L 81.7385 185.1249 L 81.7425 185.3084 L 81.7465 185.4920 L 81.7504 185.6756 L 81.7543 185.8592 L 81.7581 186.0428 L 81.7618 186.2264 L 81.7656 186.4100 L 81.7692 186.5936 L 81.7729 186.7772 L 81.7764 186.9609 L 81.7799 187.1445 L 81.7834 187.3281 L 81.7868 187.5117 L 81.7902 187.6953 L 81.7935 187.8789 L 81.7968 188.0625 L 81.8000 188.2461 L 81.8032 188.4297 L 81.8063 188.6133 L 81.8094 188.7969 L 81.8124 188.9806 L 81.8153 189.1642 L 81.8183 189.3478 L 81.8211 189.5314 L 81.8240 189.7150 L 81.8267 189.8986 L 81.8294 190.0823 L 81.8321 190.2659 L 81.8347 190.4495 L 81.8373 190.6331 L 81.8398 190.8167 L 81.8423 191.0004 L 81.8447 191.1840 L 81.8471 191.3676 L 81.8494 191.5512 L 81.8517 191.7349 L 81.8539 191.9185 L 81.8561 192.1021 L 81.8582 192.2857 L 81.8603 192.4694 L 81.8623 192.6530 L 81.8643 192.8366 L 81.8662 193.0203 L 81.8681 193.2039 L 81.8699 193.3875 L 81.8717 193.5711 L 81.8734 193.7548 L 81.8750 193.9384 L 81.8767 194.1220 L 81.8782 194.3057 L 81.8798 194.4893 L 81.8812 194.6729 L 81.8827 194.8566 L 81.8840 195.0402 L 81.8854 195.2238 L 81.8866 195.4075 L 81.8879 195.5911 L 81.8890 195.7747 L 81.8901 195.9584 L 81.8912 196.1420 L 81.8922 196.3256 L 81.8932 196.5093 L 81.8941 196.6929 L 81.8950 196.8766 L 81.8958 197.0602 L 81.8966 197.2438 L 81.8973 197.4275 L 81.8980 197.6111 L 81.8986 197.7947 L 81.8992 197.9784 L 81.8997 198.1620 L 81.9002 198.3457 L 81.9006 198.5293 L 81.9010 198.7129 L 81.9013 198.8966 L 81.9016 199.0802 L 81.9018 199.2639 L 81.9020 199.4475 L 81.9021 199.6311 L 81.9022 199.8148 L 81.9022 199.9984 L 81.9022 200.1820 L 81.9021 200.3657 L 81.9020 200.5493 L 81.9018 200.7330 L 81.9016 200.9166 L 81.9013 201.1002 L 81.9010 201.2839 L 81.9006 201.4675 L 81.9002 201.6512 L 81.8997 201.8348 L 81.8992 202.0184 L 81.8986 202.2021 L 81.8980 202.3857 L 81.8973 202.5694 L 81.8966 202.7530 L 81.8959 202.9366 L 81.8950 203.1203 L 81.8942 203.3039 L 81.8932 203.4875 L 81.8923 203.6712 L 81.8912 203.8548 L 81.8902 204.0384 L 81.8890 204.2221 L 81.8879 204.4057 L 81.8866 204.5894 L 81.8854 204.7730 L 81.8841 204.9566 L 81.8827 205.1403 L 81.8813 205.3239 L 81.8798 205.5075 L 81.8783 205.6912 L 81.8767 205.8748 L 81.8751 206.0584 L 81.8734 206.2420 L 81.8717 206.4257 L 81.8699 206.6093 L 81.8681 206.7929 L 81.8662 206.9766 L 81.8643 207.1602 L 81.8623 207.3438 L 81.8603 207.5275 L 81.8582 207.7111 L 81.8561 207.8947 L 81.8539 208.0783 L 81.8517 208.2620 L 81.8495 208.4456 L 81.8471 208.6292 L 81.8448 208.8128 L 81.8423 208.9965 L 81.8399 209.1801 L 81.8374 209.3637 L 81.8348 209.5473 L 81.8322 209.7309 L 81.8295 209.9146 L 81.8268 210.0982 L 81.8240 210.2818 L 81.8212 210.4654 L 81.8183 210.6490 L 81.8154 210.8326 L 81.8124 211.0163 L 81.8094 211.1999 L 81.8063 211.3835 L 81.8032 211.5671 L 81.8001 211.7507 L 81.7968 211.9343 L 81.7936 212.1179 L 81.7903 212.3015 L 81.7869 212.4852 L 81.7835 212.6688 L 81.7800 212.8524 L 81.7765 213.0360 L 81.7729 213.2196 L 81.7693 213.4032 L 81.7656 213.5868 L 81.7619 213.7704 L 81.7581 213.9540 L 81.7543 214.1376 L 81.7505 214.3212 L 81.7465 214.5048 L 81.7426 214.6884 L 81.7386 214.8720 L 81.7345 215.0556 L 81.7304 215.2392 L 81.7262 215.4227 L 81.7220 215.6063 L 81.7177 215.7899 L 81.7134 215.9735 L 81.7090 216.1571 L 81.7046 216.3407 L 81.7002 216.5243 L 81.6956 216.7079 L 81.6911 216.8914 L 81.6865 217.0750 L 81.6818 217.2586 L 81.6771 217.4422 L 81.6723 217.6258 L 81.6675 217.8093 L 81.6626 217.9929 L 81.6577 218.1765 L 81.6528 218.3601 L 81.6477 218.5436 L 81.6427 218.7272 L 81.6376 218.9108 L 81.6324 219.0943 L 81.6272 219.2779 L 81.6219 219.4615 L 81.6166 219.6450 L 81.6113 219.8286 L 81.6058 220.0121 L 81.6004 220.1957 L 81.5949 220.3792 L 81.5893 220.5628 L 81.5837 220.7464 L 81.5780 220.9299 L 81.5723 221.1135 L 81.5665 221.2970 L 81.5607 221.4806 L 81.5549 221.6641 L 81.5490 221.8476 L 81.5430 222.0312 L 81.5370 222.2147 L 81.5309 222.3983 L 81.5248 222.5818 L 81.5187 222.7653 L 81.5124 222.9489 L 81.5062 223.1324 L 81.4999 223.3159 L 81.4935 223.4995 L 81.4871 223.6830 L 81.4806 223.8665 L 81.4741 224.0500 L 81.4676 224.2336 L 81.4610 224.4171 L 81.4543 224.6006 L 81.4476 224.7841 L 81.4408 224.9676 L 81.4340 225.1511 L 81.4272 225.3347 L 81.4202 225.5182 L 81.4133 225.7017 L 81.4063 225.8852 L 81.3992 226.0687 L 81.3921 226.2522 L 81.3849 226.4357 L 81.3777 226.6192 L 81.3705 226.8027 L 81.3632 226.9862 L 81.3558 227.1697 L 81.3484 227.3531 L 81.3410 227.5366 L 81.3334 227.7201 L 81.3259 227.9036 L 81.3183 228.0871 L 81.3106 228.2706 L 81.3029 228.4540 L 81.2952 228.6375 L 81.2874 228.8210 L 81.2795 229.0045 L 81.2716 229.1879 L 81.2636 229.3714 L 81.2556 229.5549 L 81.2476 229.7383 L 81.2395 229.9218 L 81.2313 230.1052 L 81.2231 230.2887 L 81.2148 230.4721 L 81.2065 230.6556 L 81.1982 230.8390 L 81.1898 231.0225 L 81.1813 231.2059 L 81.1728 231.3894 L 81.1643 231.5728 L 81.1557 231.7563 L 81.1470 231.9397 L 81.1383 232.1231 L 81.1296 232.3066 L 81.1208 232.4900 L 81.1119 232.6734 L 81.1030 232.8568 L 81.0940 233.0403 L 81.0850 233.2237 L 81.0760 233.4071 L 81.0669 233.5905 L 81.0577 233.7739 L 81.0485 233.9573 L 81.0393 234.1407 L 81.0300 234.3241 L 81.0206 234.5075 L 81.0112 234.6909 L 81.0018 234.8743 L 80.9923 235.0577 L 80.9827 235.2411 L 80.9731 235.4245 L 80.9635 235.6079 L 80.9538 235.7913 L 80.9440 235.9746 L 80.9342 236.1580 L 80.9244 236.3414 L 80.9145 236.5248 L 80.9045 236.7081 L 80.8945 236.8915 L 80.8845 237.0749 L 80.8744 237.2582 L 80.8642 237.4416 L 80.8541 237.6249 L 80.8438 237.8083 L 80.8335 237.9916 L 80.8232 238.1750 L 80.8128 238.3583 L 80.8023 238.5417 L 80.7918 238.7250 L 80.7813 238.9084 L 80.7707 239.0917 L 80.7600 239.2750 L 80.7493 239.4583 L 80.7386 239.6417 L 80.7278 239.8250 L 80.7170 240.0083 L 80.7061 240.1916 L 80.6951 240.3749 L 80.6841 240.5582 L 80.6731 240.7416 L 80.6620 240.9249 L 80.6509 241.1082 L 80.6397 241.2915 L 80.6284 241.4748 L 80.6171 241.6580 L 80.6058 241.8413 L 80.5944 242.0246 L 80.5830 242.2079 L 80.5715 242.3912 L 80.5599 242.5745 L 80.5483 242.7577 L 80.5367 242.9410 L 80.5250 243.1243 L 80.5133 243.3075 L 80.5015 243.4908 L 80.4897 243.6740 L 80.4778 243.8573 L 80.4658 244.0405 L 80.4539 244.2238 L 80.4418 244.4070 L 80.4297 244.5903 L 80.4176 244.7735 L 80.4054 244.9568 L 80.3932 245.1400 L 80.3809 245.3232 L 80.3686 245.5064 L 80.3562 245.6897 L 80.3437 245.8729 L 80.3313 246.0561 L 80.3187 246.2393 L 80.3061 246.4225 L 80.2935 246.6057 L 80.2808 246.7889 L 80.2681 246.9721 L 80.2553 247.1553 L 80.2425 247.3385 L 80.2296 247.5217 L 80.2167 247.7049 L 80.2037 247.8880 L 80.1907 248.0712 L 80.1776 248.2544 L 80.1645 248.4376 L 80.1513 248.6207 L 80.1381 248.8039 L 80.1248 248.9870 L 80.1115 249.1702 L 80.0981 249.3534 L 80.0847 249.5365 L 80.0712 249.7196 L 80.0577 249.9028 L 80.0441 250.0859 L 80.0305 250.2691 L 80.0168 250.4522 L 80.0031 250.6353 L 79.9893 250.8184 L 79.9755 251.0016 L 79.9616 251.1847 L 79.9477 251.3678 L 79.9337 251.5509 L 79.9197 251.7340 L 79.9057 251.9171 L 79.8915 252.1002 L 79.8774 252.2833 L 79.8632 252.4664 L 79.8489 252.6494 L 79.8346 252.8325 L 79.8202 253.0156 L 79.8058 253.1987 L 79.7913 253.3817 L 79.7768 253.5648 L 79.7623 253.7479 L 79.7477 253.9309 L 79.7330 254.1140 L 79.7183 254.2970 L 79.7035 254.4801 L 79.6887 254.6631 L 79.6739 254.8462 L 79.6590 255.0292 L 79.6440 255.2122 L 79.6290 255.3952 L 79.6139 255.5783 L 79.5988 255.7613 L 79.5837 255.9443 L 79.5685 256.1273 L 79.5532 256.3103 L 79.5379 256.4933 L 79.5226 256.6763 L 79.5072 256.8593 L 79.4917 257.0423 L 79.4762 257.2253 L 79.4607 257.4082 L 79.4451 257.5912 L 79.4294 257.7742 L 79.4138 257.9572 L 79.3980 258.1401 L 79.3822 258.3231 L 79.3664 258.5060 L 79.3505 258.6890 L 79.3345 258.8719 L 79.3185 259.0549 L 79.3025 259.2378 L 79.2864 259.4207 L 79.2703 259.6037 L 79.2541 259.7866 L 79.2379 259.9695 L 79.2216 260.1524 L 79.2052 260.3353 L 79.1889 260.5182 L 79.1724 260.7011 L 79.1559 260.8840 L 79.1394 261.0669 L 79.1228 261.2498 L 79.1062 261.4327 L 79.0895 261.6156 L 79.0728 261.7985 L 79.0560 261.9813 L 79.0392 262.1642 L 79.0223 262.3471 L 79.0054 262.5299 L 78.9884 262.7128 L 78.9714 262.8956 L 78.9544 263.0785 L 78.9372 263.2613 L 78.9201 263.4441 L 78.9029 263.6270 L 78.8856 263.8098 L 78.8683 263.9926 L 78.8509 264.1754 L 78.8335 264.3583 L 78.8160 264.5411 L 78.7985 264.7239 L 78.7810 264.9067 L 78.7634 265.0895 L 78.7457 265.2722 L 78.7280 265.4550 L 78.7103 265.6378 L 78.6925 265.8206 L 78.6746 266.0033 L 78.6567 266.1861 L 78.6388 266.3689 L 78.6208 266.5516 L 78.6027 266.7344 L 78.5846 266.9171 L 78.5665 267.0999 L 78.5483 267.2826 L 78.5301 267.4653 L 78.5118 267.6481 L 78.4934 267.8308 L 78.4751 268.0135 L 78.4566 268.1962 L 78.4381 268.3789 L 78.4196 268.5616 L 78.4010 268.7443 L 78.3824 268.9270 L 78.3637 269.1097 L 78.3450 269.2924 L 78.3262 269.4750 L 78.3074 269.6577 L 78.2885 269.8404 L 78.2696 270.0230 L 78.2507 270.2057 L 78.2316 270.3884 L 78.2126 270.5710 L 78.1935 270.7536 L 78.1743 270.9363 L 78.1551 271.1189 L 78.1358 271.3015 L 78.1165 271.4842 L 78.0972 271.6668 L 78.0778 271.8494 L 78.0583 272.0320 L 78.0388 272.2146 L 78.0193 272.3972 L 77.9997 272.5798 L 77.9801 272.7624 L 77.9604 272.9450 L 77.9406 273.1275 L 77.9209 273.3101 L 77.9010 273.4927 L 77.8811 273.6752 L 77.8612 273.8578 L 77.8412 274.0403 L 77.8212 274.2229 L 77.8011 274.4054 L 77.7810 274.5879 L 77.7608 274.7705 L 77.7406 274.9530 L 77.7204 275.1355 L 77.7001 275.3180 L 77.6797 275.5005 L 77.6593 275.6830 L 77.6388 275.8655 L 77.6183 276.0480 L 77.5978 276.2305 L 77.5772 276.4130 L 77.5565 276.5955 L 77.5358 276.7779 L 77.5151 276.9604 L 77.4943 277.1429 L 77.4735 277.3253 L 77.4526 277.5078 L 77.4317 277.6902 L 77.4107 277.8726 L 77.3897 278.0551 L 77.3686 278.2375 L 77.3475 278.4199 L 77.3263 278.6023 L 77.3051 278.7847 L 77.2838 278.9671 L 77.2625 279.1495 L 77.2412 279.3319 L 77.2198 279.5143 L 77.1983 279.6967 L 77.1768 279.8791 L 77.1553 280.0614 L 77.1337 280.2438 L 77.1120 280.4262 L 77.0904 280.6085 L 77.0686 280.7909 L 77.0468 280.9732 L 77.0250 281.1556 L 77.0031 281.3379 L 76.9812 281.5202 L 76.9593 281.7025 L 76.9372 281.8848 L 76.9152 282.0672 L 76.8931 282.2495 L 76.8709 282.4318 L 76.8487 282.6141 L 76.8265 282.7963 L 76.8042 282.9786 L 76.7819 283.1609 L 76.7595 283.3432 L 76.7370 283.5254 L 76.7146 283.7077 L 76.6920 283.8899 L 76.6695 284.0722 L 76.6468 284.2544 L 76.6242 284.4367 L 76.6015 284.6189 L 76.5787 284.8011 L 76.5559 284.9833 L 76.5331 285.1655 L 76.5102 285.3477 L 76.4872 285.5300 L 76.4643 285.7121 L 76.4412 285.8943 L 76.4181 286.0765 L 76.3950 286.2587 L 76.3719 286.4409 L 76.3486 286.6230 L 76.3254 286.8052 L 76.3021 286.9873 L 76.2787 287.1695 L 76.2553 287.3516 L 76.2319 287.5338 L 76.2084 287.7159 L 76.1849 287.8980 L 76.1613 288.0802 L 76.1377 288.2623 L 76.1140 288.4444 L 76.0903 288.6265 L 76.0665 288.8086 L 76.0427 288.9907 L 76.0189 289.1727 L 75.9950 289.3548 L 75.9711 289.5369 L 75.9471 289.7190 L 75.9231 289.9010 L 75.8990 290.0831 L 75.8749 290.2651 L 75.8507 290.4472 L 75.8265 290.6292 L 75.8023 290.8112 L 75.7780 290.9933 L 75.7536 291.1753 L 75.7292 291.3573 L 75.7048 291.5393 L 75.6803 291.7213 L 75.6558 291.9033 L 75.6313 292.0853 L 75.6067 292.2673 L 75.5820 292.4492 L 75.5573 292.6312 L 75.5326 292.8132 L 75.5078 292.9951 L 75.4830 293.1771 L 75.4581 293.3590 L 75.4332 293.5410 L 75.4083 293.7229 L 75.3833 293.9049 L 75.3583 294.0868 L 75.3332 294.2687 L 75.3081 294.4506 L 75.2829 294.6325 L 75.2577 294.8144 L 75.2324 294.9963 L 75.2071 295.1782 L 75.1818 295.3601 L 75.1564 295.5420 L 75.1310 295.7238 L 75.1055 295.9057 L 75.0800 296.0876 L 75.0545 296.2694 L 75.0289 296.4513 L 75.0033 296.6331 L 74.9776 296.8149 L 74.9519 296.9968 L 74.9261 297.1786 L 74.9003 297.3604 L 74.8745 297.5422 L 74.8486 297.7240 L 74.8227 297.9058 L 74.7967 298.0876 L 74.7707 298.2694 L 74.7446 298.4512 L 74.7185 298.6330 L 74.6924 298.8147 L 74.6662 298.9965 L 74.6400 299.1783 L 74.6138 299.3600 L 74.5875 299.5418 L 74.5612 299.7235 L 74.5348 299.9052 L 74.5084 300.0870 L 74.4819 300.2687 L 74.4554 300.4504 L 74.4289 300.6321 L 74.4023 300.8138 L 74.3757 300.9955 L 74.3491 301.1772 L 74.3224 301.3589 L 74.2956 301.5406 L 74.2689 301.7223 L 74.2421 301.9039 L 74.2152 302.0856 L 74.1883 302.2673 L 74.1614 302.4489 L 74.1344 302.6306 L 74.1074 302.8122 L 74.0804 302.9938 L 74.0533 303.1755 L 74.0262 303.3571 L 73.9991 303.5387 L 73.9719 303.7203 L 73.9446 303.9020 L 73.9174 304.0836 L 73.8901 304.2652 L 73.8627 304.4467 L 73.8354 304.6283 L 73.8080 304.8099 L 73.7805 304.9915 L 73.7530 305.1731 L 73.7255 305.3546 L 73.6979 305.5362 L 73.6703 305.7177 L 73.6427 305.8993 L 73.6151 306.0808 L 73.5874 306.2624 L 73.5596 306.4439 L 73.5319 306.6254 L 73.5040 306.8070 L 73.4762 306.9885 L 73.4483 307.1700 L 73.4204 307.3515 L 73.3925 307.5330 L 73.3645 307.7145 L 73.3365 307.8960 L 73.3085 308.0775 L 73.2804 308.2589 L 73.2523 308.4404 L 73.2241 308.6219 L 73.1959 308.8033 L 73.1677 308.9848 L 73.1395 309.1663 L 73.1112 309.3477 L 73.0829 309.5292 L 73.0546 309.7106 L 73.0262 309.8920 L 72.9978 310.0735 L 72.9694 310.2549 L 72.9409 310.4363 L 72.9124 310.6177 L 72.8839 310.7991 L 72.8554 310.9805 L 72.8268 311.1619 L 72.7982 311.3433 L 72.7695 311.5247 L 72.7409 311.7061 L 72.7122 311.8875 L 72.6835 312.0689 L 72.6547 312.2503 L 72.6259 312.4316 L 72.5971 312.6130 L 72.5683 312.7943 L 72.5394 312.9757 L 72.5105 313.1571 L 72.4816 313.3384 L 72.4527 313.5197 L 72.4237 313.7011 L 72.3947 313.8824 L 72.3657 314.0638 L 72.3367 314.2451 L 72.3076 314.4264 L 72.2785 314.6077 L 72.2494 314.7890 L 72.2202 314.9704 L 72.1911 315.1517 L 72.1619 315.3330 L 72.1327 315.5143 L 72.1035 315.6956 L 72.0742 315.8769 L 72.0449 316.0582 L 72.0156 316.2394 L 71.9863 316.4207 L 71.9570 316.6020 L 71.9276 316.7833 L 71.8983 316.9646 L 71.8689 317.1458 L 71.8395 317.3271 L 71.8100 317.5084 L 71.7806 317.6896 L 71.7511 317.8709 L 71.7216 318.0521 L 71.6922 318.2334 L 71.6626 318.4147 L 71.6331 318.5959 L 71.6036 318.7771 L 71.5740 318.9584 L 71.5444 319.1396 L 71.5149 319.3209 L 71.4853 319.5021 L 71.4557 319.6834 L 71.4260 319.8646 L 71.3964 320.0458 L 71.3668 320.2270 L 71.3371 320.4083 L 71.3074 320.5895 L 71.2778 320.7707 L 71.2481 320.9520 L 71.2184 321.1332 L 71.1887 321.3144 L 71.1590 321.4956 L 71.1293 321.6768 L 71.0996 321.8581 L 71.0699 322.0393 L 71.0401 322.2205 L 71.0104 322.4017 L 70.9807 322.5829 L 70.9510 322.7641 L 70.9212 322.9454 L 70.8915 323.1266 L 70.8618 323.3078 L 70.8320 323.4890 L 70.8023 323.6702 L 70.7726 323.8514 L 70.7429 324.0327 L 70.7131 324.2139 L 70.6834 324.3951 L 70.6537 324.5763 L 70.6240 324.7575 L 70.5943 324.9388 L 70.5647 325.1200 L 70.5350 325.3012 L 70.5053 325.4824 L 70.4757 325.6637 L 70.4460 325.8449 L 70.4164 326.0261 L 70.3868 326.2074 L 70.3572 326.3886 L 70.3276 326.5699 L 70.2981 326.7511 L 70.2685 326.9324 L 70.2390 327.1136 L 70.2095 327.2949 L 70.1800 327.4761 L 70.1506 327.6574 L 70.1212 327.8386 L 70.0918 328.0199 L 70.0624 328.2012 L 70.0330 328.3825 L 70.0037 328.5637 L 69.9744 328.7450 L 69.9452 328.9263 L 69.9160 329.1076 L 69.8868 329.2889 L 69.8576 329.4703 L 69.8285 329.6516 L 69.7995 329.8329 L 69.7705 330.0142 L 69.7415 330.1956 L 69.7126 330.3769 L 69.6837 330.5583 L 69.6548 330.7396 L 69.6261 330.9210 L 69.5973 331.1024 L 69.5687 331.2838 L 69.5400 331.4652 L 69.5115 331.6466 L 69.4830 331.8280 L 69.4546 332.0094 L 69.4262 332.1908 L 69.3979 332.3723 L 69.3697 332.5537 L 69.3415 332.7352 L 69.3134 332.9167 L 69.2854 333.0982 L 69.2575 333.2797 L 69.2297 333.4612 L 69.2019 333.6427 L 69.1742 333.8243 L 69.1467 334.0058 L 69.1192 334.1874 L 69.0918 334.3690 L 69.0645 334.5506 L 69.0374 334.7322 L 69.0103 334.9138 L 68.9833 335.0955 L 68.9565 335.2772 L 68.9298 335.4588 L 68.9032 335.6405 L 68.8767 335.8223 L 68.8503 336.0040 L 68.8241 336.1858 L 68.7981 336.3675 L 68.7721 336.5493 L 68.7464 336.7312 L 68.7207 336.9130 L 68.6953 337.0949 L 68.6699 337.2767 L 68.6448 337.4587 L 68.6198 337.6406 L 68.5950 337.8225 L 68.5704 338.0045 L 68.5460 338.1865 L 68.5218 338.3686 L 68.4978 338.5506 L 68.4740 338.7327 L 68.4504 338.9148 L 68.4271 339.0970 L 68.4039 339.2792 L 68.3811 339.4614 L 68.3584 339.6436 L 68.3360 339.8259 L 68.3139 340.0082 L 68.2921 340.1905 L 68.2706 340.3729 L 68.2493 340.5553 L 68.2284 340.7377 L 68.2077 340.9202 L 68.1874 341.1027 L 68.1675 341.2853 L 68.1479 341.4679 L 68.1287 341.6505 L 68.1098 341.8332 L 68.0914 342.0159 L 68.0733 342.1986 L 68.0557 342.3814 L 68.0385 342.5643 L 68.0218 342.7471 L 68.0056 342.9301 L 67.9899 343.1130 L 67.9747 343.2960 L 67.9600 343.4791 L 67.9460 343.6622 L 67.9325 343.8453 L 67.9196 344.0285 L 67.9074 344.2118 L 67.8959 344.3950 L 67.8850 344.5783 L 67.8749 344.7617 L 67.8656 344.9451 L 67.8572 345.1286 L 67.8495 345.3120 L 67.8428 345.4956 L 67.8371 345.6791 L 67.8323 345.8627 L 67.8286 346.0463 L 67.8260 346.2299 L 67.8246 346.4135 L 67.8245 346.5972 L 67.8256 346.7808 L 67.8282 346.9644 L 67.8323 347.1480 L 67.8380 347.3316 L 67.8454 347.5151 L 67.8546 347.6985 L 67.8658 347.8818 L 67.8790 348.0649 L 67.8945 348.2479 L 67.9125 348.4307 L 67.9330 348.6131 L 67.9564 348.7953 L 67.9829 348.9770 L 68.0128 349.1582 L 68.0463 349.3387 L 68.0839 349.5185 L 68.1258 349.6973 L 68.1726 349.8748 L 68.2248 350.0509 L 68.2828 350.2251 L 68.3474 350.3970 L 68.4192 350.5660 L 68.4989 350.7314 L 68.5874 350.8923 L 68.6853 351.0476 L 68.7935 351.1960 L 68.9124 351.3359 L 69.0423 351.4656 L 69.1832 351.5833 L 69.3343 351.6876 L 69.4946 351.7770 L 69.6626 351.8509 L 69.8367 351.9091 L 70.0152 351.9521 L 70.1965 351.9808 L 70.3795 351.9964 L 70.5631 352.0000 L 70.7465 351.9930 L 70.9294 351.9765 L 71.1114 351.9517 L 71.2921 351.9195 L 71.4716 351.8807 L 71.6498 351.8361 L 71.8265 351.7863 L 72.0019 351.7318 L 72.1759 351.6732 L 72.3486 351.6109 L 72.5201 351.5451 L 72.6903 351.4763 L 72.8594 351.4046 L 73.0274 351.3304 L 73.1943 351.2539 L 73.3602 351.1752 L 73.5252 351.0945 L 73.6892 351.0119 L 73.8524 350.9277 L 74.0148 350.8419 L 74.1763 350.7546 L 74.3371 350.6659 L 74.4972 350.5759 L 74.6567 350.4848 L 74.8154 350.3925 L 74.9736 350.2991 L 75.1311 350.2048 L 75.2881 350.1095 L 75.4445 350.0133 L 75.6004 349.9163 L 75.7558 349.8185 L 75.9108 349.7199 L 76.0653 349.6206 L 76.2193 349.5206 L 76.3729 349.4200 L 76.5262 349.3188 L 76.6790 349.2170 L 76.8315 349.1146 L 76.9836 349.0117 L 77.1353 348.9083 L 77.2867 348.8044 L 77.4379 348.7001 L 77.5887 348.5953 L 77.7392 348.4900 L 77.8894 348.3844 L 78.0393 348.2784 L 78.1890 348.1720 L 78.3384 348.0652 L 78.4876 347.9581 L 78.6365 347.8507 L 78.7852 347.7429 L 78.9337 347.6349 L 79.0819 347.5265 L 79.2300 347.4179 L 79.3778 347.3089 L 79.5255 347.1998 L 79.6730 347.0903 L 79.8203 346.9806 L 79.9674 346.8707 L 80.1143 346.7606 L 80.2611 346.6502 L 80.4077 346.5396 L 80.5542 346.4289 L 80.7005 346.3179 L 80.8466 346.2067 L 80.9927 346.0953 L 81.1385 345.9838 L 81.2843 345.8721 L 81.4299 345.7602 L 81.5754 345.6482 L 81.7208 345.5360 L 81.8661 345.4236 L 82.0112 345.3112 L 82.1563 345.1985 L 82.3012 345.0858 L 82.4460 344.9728 L 82.5908 344.8598 L 82.7354 344.7467 L 82.8799 344.6334 L 83.0244 344.5200 L 83.1687 344.4065 L 83.3130 344.2929 L 83.4572 344.1792 L 83.6013 344.0653 L 83.7454 343.9514 L 83.8893 343.8374 L 84.0332 343.7233 L 84.1770 343.6091 L 84.3208 343.4948 L 84.4644 343.3804 L 84.6080 343.2660 L 84.7516 343.1515 L 84.8951 343.0369 L 85.0385 342.9222 L 85.1819 342.8074 L 85.3252 342.6926 L 85.4685 342.5777 L 85.6117 342.4628 L 85.7548 342.3478 L 85.8979 342.2327 L 86.0410 342.1175 L 86.1840 342.0023 L 86.3270 341.8871 L 86.4699 341.7718 L 86.6128 341.6565 L 86.7557 341.5411 L 86.8985 341.4256 L 87.0413 341.3101 L 87.1840 341.1946 L 87.3267 341.0790 L 87.4694 340.9634 L 87.6120 340.8477 L 87.7546 340.7320 L 87.8972 340.6163 L 88.0397 340.5005 L 88.1822 340.3847 L 88.3247 340.2688 L 88.4672 340.1530 L 88.6097 340.0371 L 88.7521 339.9211 L 88.8945 339.8052 L 89.0368 339.6892 L 89.1792 339.5732 L 89.3215 339.4571 L 89.4638 339.3411 L 89.6061 339.2250 L 89.7484 339.1089 L 89.8907 338.9928 L 90.0329 338.8766 L 90.1752 338.7605 L 90.3174 338.6443 L 90.4596 338.5281 L 90.6018 338.4119 L 90.7439 338.2956 L 90.8861 338.1794 L 91.0283 338.0632 L 91.1704 337.9469 L 91.3126 337.8306 L 91.4547 337.7143 L 91.5968 337.5980 L 91.7389 337.4817 L 91.8810 337.3654 L 92.0231 337.2491 L 92.1652 337.1328 L 92.3073 337.0164 L 92.4494 336.9001 L 92.5915 336.7838 L 92.7336 336.6674 L 92.8756 336.5511 L 93.0177 336.4347 L 93.1598 336.3184 L 93.3019 336.2020 L 93.4439 336.0856 L 93.5860 335.9693 L 93.7281 335.8529 L 93.8702 335.7366 L 94.0122 335.6202 L 94.1543 335.5039 L 94.2964 335.3875 L 94.4385 335.2712 L 94.5806 335.1548 L 94.7226 335.0385 L 94.8647 334.9222 L 95.0068 334.8058 L 95.1489 334.6895 L 95.2910 334.5732 L 95.4332 334.4569 L 95.5753 334.3406 L 95.7174 334.2243 L 95.8595 334.1080 L 96.0017 333.9918 L 96.1438 333.8755 L 96.2860 333.7592 L 96.4281 333.6430 L 96.5703 333.5267 L 96.7125 333.4105 L 96.8547 333.2943 L 96.9969 333.1781 L 97.1391 333.0619 L 97.2813 332.9457 L 97.4235 332.8296 L 97.5657 332.7134 L 97.7080 332.5973 L 97.8502 332.4811 L 97.9925 332.3650 L 98.1348 332.2489 L 98.2771 332.1328 L 98.4194 332.0168 L 98.5617 331.9007 L 98.7040 331.7847 L 98.8464 331.6686 L 98.9888 331.5526 L 99.1311 331.4366 L 99.2735 331.3207 L 99.4159 331.2047 L 99.5583 331.0888 L 99.7007 330.9729 L 99.8432 330.8569 L 99.9856 330.7411 L 100.1281 330.6252 L 100.2706 330.5093 L 100.4131 330.3935 L 100.5556 330.2777 L 100.6982 330.1619 L 100.8407 330.0461 L 100.9833 329.9304 L 101.1259 329.8147 L 101.2685 329.6990 L 101.4111 329.5833 L 101.5537 329.4676 L 101.6964 329.3520 L 101.8390 329.2363 L 101.9817 329.1207 L 102.1244 329.0052 L 102.2671 328.8896 L 102.4099 328.7741 L 102.5526 328.6585 L 102.6954 328.5431 L 102.8382 328.4276 L 102.9810 328.3121 L 103.1239 328.1967 L 103.2667 328.0813 L 103.4096 327.9659 L 103.5525 327.8506 L 103.6954 327.7353 L 103.8383 327.6200 L 103.9813 327.5047 L 104.1242 327.3894 L 104.2672 327.2742 L 104.4102 327.1590 L 104.5533 327.0438 L 104.6963 326.9287 L 104.8394 326.8136 L 104.9825 326.6985 L 105.1256 326.5834 L 105.2687 326.4683 L 105.4119 326.3533 L 105.5551 326.2383 L 105.6983 326.1234 L 105.8415 326.0084 L 105.9847 325.8935 L 106.1280 325.7786 L 106.2713 325.6638 L 106.4146 325.5489 L 106.5579 325.4341 L 106.7012 325.3193 L 106.8446 325.2046 L 106.9880 325.0899 L 107.1314 324.9752 L 107.2749 324.8605 L 107.4183 324.7459 L 107.5618 324.6313 L 107.7053 324.5167 L 107.8489 324.4021 L 107.9924 324.2876 L 108.1360 324.1731 L 108.2796 324.0587 L 108.4232 323.9442 L 108.5669 323.8298 L 108.7106 323.7155 L 108.8542 323.6011 L 108.9980 323.4868 L 109.1417 323.3725 L 109.2855 323.2583 L 109.4293 323.1440 L 109.5731 323.0298 L 109.7169 322.9157 L 109.8608 322.8015 L 110.0047 322.6874 L 110.1486 322.5734 L 110.2925 322.4593 L 110.4365 322.3453 L 110.5805 322.2313 L 110.7245 322.1174 L 110.8685 322.0035 L 111.0126 321.8896 L 111.1567 321.7757 L 111.3008 321.6619 L 111.4449 321.5481 L 111.5891 321.4343 L 111.7332 321.3206 L 111.8774 321.2069 L 112.0217 321.0932 L 112.1659 320.9796 L 112.3102 320.8660 L 112.4545 320.7524 L 112.5989 320.6389 L 112.7432 320.5254 L 112.8876 320.4119 L 113.0320 320.2985 L 113.1765 320.1851 L 113.3209 320.0717 L 113.4654 319.9584 L 113.6099 319.8451 L 113.7545 319.7318 L 113.8990 319.6185 L 114.0436 319.5053 L 114.1883 319.3922 L 114.3329 319.2790 L 114.4776 319.1659 L 114.6223 319.0528 L 114.7670 318.9398 L 114.9117 318.8268 L 115.0565 318.7138 L 115.2013 318.6009 L 115.3461 318.4880 L 115.4910 318.3751 L 115.6359 318.2622 L 115.7808 318.1494 L 115.9257 318.0367 L 116.0707 317.9239 L 116.2157 317.8112 L 116.3607 317.6986 L 116.5057 317.5859 L 116.6508 317.4733 L 116.7959 317.3608 L 116.9410 317.2482 L 117.0862 317.1357 L 117.2313 317.0233 L 117.3765 316.9109 L 117.5218 316.7985 L 117.6670 316.6861 L 117.8123 316.5738 L 117.9576 316.4615 L 118.1029 316.3492 L 118.2483 316.2370 L 118.3937 316.1248 L 118.5391 316.0127 L 118.6846 315.9006 L 118.8300 315.7885 L 118.9755 315.6765 L 119.1211 315.5645 L 119.2666 315.4525 L 119.4122 315.3406 L 119.5578 315.2287 L 119.7035 315.1168 L 119.8491 315.0050 L 119.9948 314.8932 L 120.1405 314.7814 L 120.2863 314.6697 L 120.4321 314.5580 L 120.5779 314.4464 L 120.7237 314.3348 L 120.8695 314.2232 L 121.0154 314.1117 L 121.1613 314.0002 L 121.3073 313.8887 L 121.4532 313.7773 L 121.5992 313.6659 L 121.7453 313.5545 L 121.8913 313.4432 L 122.0374 313.3319 L 122.1835 313.2207 L 122.3296 313.1094 L 122.4758 312.9983 L 122.6220 312.8871 L 122.7682 312.7760 L 122.9144 312.6650 L 123.0607 312.5539 L 123.2070 312.4429 L 123.3534 312.3320 L 123.4997 312.2211 L 123.6461 312.1102 L 123.7925 311.9993 L 123.9390 311.8885 L 124.0854 311.7778 L 124.2319 311.6670 L 124.3784 311.5563 L 124.5250 311.4457 L 124.6716 311.3351 L 124.8182 311.2245 L 124.9648 311.1139 L 125.1115 311.0034 L 125.2582 310.8929 L 125.4049 310.7825 L 125.5517 310.6721 L 125.6984 310.5618 L 125.8452 310.4514 L 125.9921 310.3412 L 126.1389 310.2309 L 126.2858 310.1207 L 126.4328 310.0105 L 126.5797 309.9004 L 126.7267 309.7903 L 126.8737 309.6802 L 127.0207 309.5702 L 127.1678 309.4602 L 127.3149 309.3503 L 127.4620 309.2404 L 127.6091 309.1305 L 127.7563 309.0207 L 127.9035 308.9109 L 128.0507 308.8011 L 128.1980 308.6914 L 128.3453 308.5817 L 128.4926 308.4721 L 128.6400 308.3625 L 128.7873 308.2529 L 128.9347 308.1434 L 129.0822 308.0339 L 129.2296 307.9245 L 129.3771 307.8150 L 129.5246 307.7057 L 129.6722 307.5963 L 129.8197 307.4870 L 129.9673 307.3778 L 130.1150 307.2686 L 130.2626 307.1594 L 130.4103 307.0502 L 130.5580 306.9411 L 130.7058 306.8321 L 130.8535 306.7230 L 131.0013 306.6140 L 131.1492 306.5051 L 131.2970 306.3962 L 131.4449 306.2873 L 131.5928 306.1785 L 131.7408 306.0697 L 131.8887 305.9609 L 132.0367 305.8522 L 132.1847 305.7435 L 132.3328 305.6349 L 132.4809 305.5263 L 132.6290 305.4177 L 132.7771 305.3092 L 132.9253 305.2007 L 133.0735 305.0923 L 133.2217 304.9839 L 133.3700 304.8755 L 133.5183 304.7672 L 133.6666 304.6589 L 133.8149 304.5506 L 133.9633 304.4424 L 134.1117 304.3342 L 134.2601 304.2261 L 134.4086 304.1180 L 134.5571 304.0099 L 134.7056 303.9019 L 134.8541 303.7940 L 135.0027 303.6860 L 135.1513 303.5781 L 135.2999 303.4703 L 135.4486 303.3624 L 135.5972 303.2547 L 135.7460 303.1469 L 135.8947 303.0392 L 136.0435 302.9315 L 136.1923 302.8239 L 136.3411 302.7163 L 136.4899 302.6088 L 136.6388 302.5013 L 136.7877 302.3938 L 136.9367 302.2864 L 137.0856 302.1790 L 137.2346 302.0717 L 137.3837 301.9644 L 137.5327 301.8571 L 137.6818 301.7499 L 137.8309 301.6427 L 137.9800 301.5355 L 138.1292 301.4284 L 138.2784 301.3214 L 138.4276 301.2143 L 138.5769 301.1073 L 138.7262 301.0004 L 138.8755 300.8935 L 139.0248 300.7866 L 139.1742 300.6798 L 139.3236 300.5730 L 139.4730 300.4662 L 139.6225 300.3595 L 139.7719 300.2528 L 139.9214 300.1462 L 140.0710 300.0396 L 140.2205 299.9331 L 140.3701 299.8266 L 140.5198 299.7201 L 140.6694 299.6137 L 140.8191 299.5073 L 140.9688 299.4009 L 141.1185 299.2946 L 141.2683 299.1883 L 141.4181 299.0821 L 141.5679 298.9759 L 141.7178 298.8698 L 141.8677 298.7636 L 142.0176 298.6576 L 142.1675 298.5515 L 142.3175 298.4456 L 142.4675 298.3396 L 142.6175 298.2337 L 142.7675 298.1278 L 142.9176 298.0220 L 143.0677 297.9162 L 143.2178 297.8105 L 143.3680 297.7047 L 143.5182 297.5991 L 143.6684 297.4934 L 143.8187 297.3879 L 143.9689 297.2823 L 144.1192 297.1768 L 144.2696 297.0713 L 144.4199 296.9659 L 144.5703 296.8605 L 144.7207 296.7552 L 144.8712 296.6499 L 145.0217 296.5446 L 145.1722 296.4394 L 145.3227 296.3342 L 145.4733 296.2290 L 145.6238 296.1239 L 145.7745 296.0189 L 145.9251 295.9139 L 146.0758 295.8089 L 146.2265 295.7039 L 146.3772 295.5990 L 146.5280 295.4942 L 146.6787 295.3894 L 146.8296 295.2846 L 146.9804 295.1798 L 147.1313 295.0751 L 147.2822 294.9705 L 147.4331 294.8659 L 147.5840 294.7613 L 147.7350 294.6567 L 147.8860 294.5523 L 148.0371 294.4478 L 148.1881 294.3434 L 148.3392 294.2390 L 148.4904 294.1347 L 148.6415 294.0304 L 148.7927 293.9261 L 148.9439 293.8219 L 149.0951 293.7178 L 149.2464 293.6136 L 149.3977 293.5095 L 149.5490 293.4055 L 149.7004 293.3015 L 149.8517 293.1975 L 150.0031 293.0936 L 150.1546 292.9897 L 150.3060 292.8859 L 150.4575 292.7821 L 150.6090 292.6783 L 150.7606 292.5746 L 150.9121 292.4709 L 151.0637 292.3673 L 151.2154 292.2637 L 151.3670 292.1601 L 151.5187 292.0566 L 151.6704 291.9531 L 151.8222 291.8497 L 151.9739 291.7463 L 152.1257 291.6430 L 152.2775 291.5397 L 152.4294 291.4364 L 152.5813 291.3332 L 152.7332 291.2300 L 152.8851 291.1268 L 153.0371 291.0237 L 153.1891 290.9207 L 153.3411 290.8176 L 153.4931 290.7147 L 153.6452 290.6117 L 153.7973 290.5088 L 153.9494 290.4060 L 154.1016 290.3031 L 154.2538 290.2004 L 154.4060 290.0976 L 154.5582 289.9949 L 154.7105 289.8923 L 154.8628 289.7897 L 155.0151 289.6871 L 155.1675 289.5846 L 155.3199 289.4821 L 155.4723 289.3796 L 155.6247 289.2772 L 155.7772 289.1749 L 155.9297 289.0726 L 156.0822 288.9703 L 156.2347 288.8680 L 156.3873 288.7658 L 156.5399 288.6637 L 156.6925 288.5616 L 156.8452 288.4595 L 156.9979 288.3575 L 157.1506 288.2555 L 157.3033 288.1535 L 157.4561 288.0516 L 157.6089 287.9497 L 157.7617 287.8479 L 157.9146 287.7461 L 158.0674 287.6444 L 158.2204 287.5427 L 158.3733 287.4410 L 158.5262 287.3394 L 158.6792 287.2378 L 158.8323 287.1363 L 158.9853 287.0348 L 159.1384 286.9334 L 159.2915 286.8319 L 159.4446 286.7306 L 159.5977 286.6292 L 159.7509 286.5280 L 159.9041 286.4267 L 160.0574 286.3255 L 160.2106 286.2244 L 160.3639 286.1232 L 160.5172 286.0222 L 160.6706 285.9211 L 160.8240 285.8201 L 160.9774 285.7192 L 161.1308 285.6183 L 161.2842 285.5174 L 161.4377 285.4166 L 161.5912 285.3158 L 161.7448 285.2150 L 161.8983 285.1143 L 162.0519 285.0137 L 162.2055 284.9130 L 162.3592 284.8125 L 162.5129 284.7119 L 162.6666 284.6114 L 162.8203 284.5110 L 162.9740 284.4106 L 163.1278 284.3102 L 163.2816 284.2099 L 163.4355 284.1096 L 163.5893 284.0093 L 163.7432 283.9091 L 163.8971 283.8090 L 164.0511 283.7088 L 164.2051 283.6088 L 164.3591 283.5087 L 164.5131 283.4087 L 164.6671 283.3088 L 164.8212 283.2089 L 164.9753 283.1090 L 165.1295 283.0092 L 165.2836 282.9094 L 165.4378 282.8096 L 165.5920 282.7099 L 165.7463 282.6103 L 165.9006 282.5107 L 166.0549 282.4111 L 166.2092 282.3115 L 166.3635 282.2121 L 166.5179 282.1126 L 166.6723 282.0132 L 166.8268 281.9138 L 166.9812 281.8145 L 167.1357 281.7152 L 167.2902 281.6160 L 167.4448 281.5168 L 167.5993 281.4176 L 167.7539 281.3185 L 167.9085 281.2194 L 168.0632 281.1204 L 168.2179 281.0214 L 168.3726 280.9225 L 168.5273 280.8236 L 168.6820 280.7247 L 168.8368 280.6259 L 168.9916 280.5271 L 169.1465 280.4284 L 169.3013 280.3297 L 169.4562 280.2310 L 169.6111 280.1324 L 169.7661 280.0338 L 169.9211 279.9353 L 170.0761 279.8368 L 170.2311 279.7384 L 170.3861 279.6400 L 170.5412 279.5416 L 170.6963 279.4433 L 170.8514 279.3450 L 171.0066 279.2468 L 171.1618 279.1486 L 171.3170 279.0505 L 171.4722 278.9524 L 171.6275 278.8543 L 171.7828 278.7563 L 171.9381 278.6583 L 172.0935 278.5604 L 172.2488 278.4625 L 172.4042 278.3646 L 172.5596 278.2668 L 172.7151 278.1690 L 172.8706 278.0713 L 173.0261 277.9736 L 173.1816 277.8760 L 173.3372 277.7784 L 173.4927 277.6808 L 173.6484 277.5833 L 173.8040 277.4859 L 173.9597 277.3884 L 174.1153 277.2910 L 174.2711 277.1937 L 174.4268 277.0964 L 174.5826 276.9991 L 174.7384 276.9019 L 174.8942 276.8047 L 175.0500 276.7076 L 175.2059 276.6105 L 175.3618 276.5135 L 175.5177 276.4165 L 175.6737 276.3195 L 175.8297 276.2226 L 175.9857 276.1257 L 176.1417 276.0289 L 176.2978 275.9321 L 176.4538 275.8353 L 176.6100 275.7386 L 176.7661 275.6419 L 176.9223 275.5453 L 177.0784 275.4487 L 177.2347 275.3522 L 177.3909 275.2557 L 177.5472 275.1592 L 177.7035 275.0628 L 177.8598 274.9665 L 178.0161 274.8701 L 178.1725 274.7739 L 178.3289 274.6776 L 178.4853 274.5814 L 178.6418 274.4853 L 178.7983 274.3891 L 178.9548 274.2931 L 179.1113 274.1970 L 179.2679 274.1011 L 179.4244 274.0051 L 179.5810 273.9092 L 179.7377 273.8133 L 179.8943 273.7175 L 180.0510 273.6218 L 180.2077 273.5260 L 180.3645 273.4303 L 180.5212 273.3347 L 180.6780 273.2391 L 180.8348 273.1435 L 180.9917 273.0480 L 181.1486 272.9525 L 181.3054 272.8571 L 181.4624 272.7617 L 181.6193 272.6664 L 181.7763 272.5710 L 181.9333 272.4758 L 182.0903 272.3806 L 182.2474 272.2854 L 182.4044 272.1903 L 182.5615 272.0952 L 182.7187 272.0001 L 182.8758 271.9051 L 183.0330 271.8101 L 183.1902 271.7152 L 183.3474 271.6203 L 183.5047 271.5255 L 183.6620 271.4307 L 183.8193 271.3360 L 183.9766 271.2413 L 184.1340 271.1466 L 184.2913 271.0520 L 184.4488 270.9574 L 184.6062 270.8629 L 184.7637 270.7684 L 184.9211 270.6739 L 185.0787 270.5795 L 185.2362 270.4851 L 185.3938 270.3908 L 185.5514 270.2965 L 185.7090 270.2023 L 185.8666 270.1081 L 186.0243 270.0139 L 186.1820 269.9198 L 186.3397 269.8258 L 186.4974 269.7318 L 186.6552 269.6378 L 186.8130 269.5438 L 186.9708 269.4499 L 187.1287 269.3561 L 187.2865 269.2623 L 187.4444 269.1685 L 187.6023 269.0748 L 187.7603 268.9811 L 187.9183 268.8875 L 188.0763 268.7939 L 188.2343 268.7003 L 188.3923 268.6068 L 188.5504 268.5134 L 188.7085 268.4199 L 188.8666 268.3266 L 189.0248 268.2332 L 189.1830 268.1399 L 189.3412 268.0467 L 189.4994 267.9535 L 189.6576 267.8603 L 189.8159 267.7672 L 189.9742 267.6741 L 190.1326 267.5811 L 190.2909 267.4881 L 190.4493 267.3951 L 190.6077 267.3022 L 190.7661 267.2094 L 190.9246 267.1166 L 191.0831 267.0238 L 191.2416 266.9310 L 191.4001 266.8384 L 191.5586 266.7457 L 191.7172 266.6531 L 191.8758 266.5605 L 192.0345 266.4680 L 192.1931 266.3755 L 192.3518 266.2831 L 192.5105 266.1907 L 192.6692 266.0984 L 192.8280 266.0061 L 192.9868 265.9138 L 193.1456 265.8216 L 193.3044 265.7294 L 193.4633 265.6373 L 193.6222 265.5452 L 193.7811 265.4532 L 193.9400 265.3612 L 194.0989 265.2692 L 194.2579 265.1773 L 194.4169 265.0854 L 194.5760 264.9936 L 194.7350 264.9018 L 194.8941 264.8101 L 195.0532 264.7184 L 195.2123 264.6267 L 195.3715 264.5351 L 195.5307 264.4435 L 195.6899 264.3520 L 195.8491 264.2605 L 196.0084 264.1691 L 196.1677 264.0777 L 196.3270 263.9864 L 196.4863 263.8950 L 196.6456 263.8038 L 196.8050 263.7126 L 196.9644 263.6214 L 197.1239 263.5302 L 197.2833 263.4392 L 197.4428 263.3481 L 197.6023 263.2571 L 197.7618 263.1661 L 197.9214 263.0752 L 198.0810 262.9843 L 198.2406 262.8935 L 198.4002 262.8027 L 198.5598 262.7120 L 198.7195 262.6213 L 198.8792 262.5306 L 199.0389 262.4400 L 199.1987 262.3494 L 199.3585 262.2589 L 199.5183 262.1684 L 199.6781 262.0780 L 199.8379 261.9876 L 199.9978 261.8972 L 200.1577 261.8069 L 200.3176 261.7167 L 200.4776 261.6264 L 200.6375 261.5363 L 200.7975 261.4461 L 200.9576 261.3560 L 201.1176 261.2660 L 201.2777 261.1760 L 201.4378 261.0860 L 201.5979 260.9961 L 201.7580 260.9062 L 201.9182 260.8164 L 202.0784 260.7266 L 202.2386 260.6368 L 202.3988 260.5471 L 202.5591 260.4575 L 202.7194 260.3679 L 202.8797 260.2783 L 203.0400 260.1888 L 203.2004 260.0993 L 203.3608 260.0098 L 203.5212 259.9205 L 203.6816 259.8311 L 203.8421 259.7418 L 204.0026 259.6525 L 204.1631 259.5633 L 204.3236 259.4741 L 204.4842 259.3850 L 204.6448 259.2959 L 204.8054 259.2068 L 204.9660 259.1178 L 205.1266 259.0289 L 205.2873 258.9400 L 205.4480 258.8511 L 205.6088 258.7623 L 205.7695 258.6735 L 205.9303 258.5847 L 206.0911 258.4960 L 206.2519 258.4074 L 206.4127 258.3188 L 206.5736 258.2302 L 206.7345 258.1417 L 206.8954 258.0532 L 207.0564 257.9648 L 207.2173 257.8764 L 207.3783 257.7880 L 207.5393 257.6997 L 207.7004 257.6115 L 207.8614 257.5232 L 208.0225 257.4351 L 208.1836 257.3469 L 208.3448 257.2589 L 208.5059 257.1708 L 208.6671 257.0828 L 208.8283 256.9949 L 208.9895 256.9070 L 209.1508 256.8191 L 209.3121 256.7313 L 209.4734 256.6435 L 209.6347 256.5557 L 209.7960 256.4681 L 209.9574 256.3804 L 210.1188 256.2928 L 210.2802 256.2052 L 210.4417 256.1177 L 210.6031 256.0303 L 210.7646 255.9428 L 210.9262 255.8554 L 211.0877 255.7681 L 211.2493 255.6808 L 211.4108 255.5936 L 211.5725 255.5063 L 211.7341 255.4192 L 211.8957 255.3321 L 212.0574 255.2450 L 212.2191 255.1579 L 212.3809 255.0710 L 212.5426 254.9840 L 212.7044 254.8971 L 212.8662 254.8103 L 213.0280 254.7234 L 213.1899 254.6367 L 213.3517 254.5499 L 213.5136 254.4633 L 213.6755 254.3766 L 213.8375 254.2900 L 213.9994 254.2035 L 214.1614 254.1170 L 214.3234 254.0305 L 214.4855 253.9441 L 214.6475 253.8577 L 214.8096 253.7714 L 214.9717 253.6851 L 215.1339 253.5989 L 215.2960 253.5127 L 215.4582 253.4265 L 215.6204 253.3404 L 215.7826 253.2543 L 215.9448 253.1683 L 216.1071 253.0824 L 216.2694 252.9964 L 216.4317 252.9105 L 216.5941 252.8247 L 216.7564 252.7389 L 216.9188 252.6531 L 217.0812 252.5674 L 217.2437 252.4817 L 217.4061 252.3961 L 217.5686 252.3105 L 217.7311 252.2250 L 217.8936 252.1395 L 218.0562 252.0541 L 218.2187 251.9687 L 218.3813 251.8833 L 218.5440 251.7980 L 218.7066 251.7127 L 218.8693 251.6275 L 219.0319 251.5423 L 219.1947 251.4572 L 219.3574 251.3721 L 219.5201 251.2870 L 219.6829 251.2020 L 219.8457 251.1171 L 220.0086 251.0322 L 220.1714 250.9473 L 220.3343 250.8624 L 220.4972 250.7777 L 220.6601 250.6929 L 220.8230 250.6082 L 220.9860 250.5236 L 221.1490 250.4390 L 221.3120 250.3544 L 221.4750 250.2699 L 221.6381 250.1854 L 221.8012 250.1010 L 221.9643 250.0166 L 222.1274 249.9323 L 222.2905 249.8480 L 222.4537 249.7637 L 222.6169 249.6795 L 222.7801 249.5953 L 222.9434 249.5112 L 223.1066 249.4271 L 223.2699 249.3431 L 223.4332 249.2591 L 223.5965 249.1752 L 223.7599 249.0913 L 223.9233 249.0074 L 224.0867 248.9236 L 224.2501 248.8398 L 224.4135 248.7561 L 224.5770 248.6725 L 224.7405 248.5888 L 224.9040 248.5052 L 225.0675 248.4217 L 225.2311 248.3382 L 225.3947 248.2547 L 225.5583 248.1713 L 225.7219 248.0880 L 225.8856 248.0046 L 226.0492 247.9214 L 226.2129 247.8381 L 226.3766 247.7549 L 226.5404 247.6718 L 226.7041 247.5887 L 226.8679 247.5056 L 227.0317 247.4226 L 227.1956 247.3397 L 227.3594 247.2567 L 227.5233 247.1739 L 227.6872 247.0910 L 227.8511 247.0082 L 228.0150 246.9255 L 228.1790 246.8428 L 228.3430 246.7602 L 228.5070 246.6775 L 228.6710 246.5950 L 228.8351 246.5125 L 228.9992 246.4300 L 229.1633 246.3475 L 229.3274 246.2652 L 229.4915 246.1828 L 229.6557 246.1005 L 229.8199 246.0183 L 229.9841 245.9361 L 230.1483 245.8539 L 230.3126 245.7718 L 230.4769 245.6897 L 230.6412 245.6077 L 230.8055 245.5257 L 230.9698 245.4437 L 231.1342 245.3618 L 231.2986 245.2800 L 231.4630 245.1982 L 231.6274 245.1164 L 231.7919 245.0347 L 231.9563 244.9530 L 232.1208 244.8714 L 232.2854 244.7898 L 232.4499 244.7083 L 232.6145 244.6268 L 232.7791 244.5453 L 232.9437 244.4639 L 233.1083 244.3825 L 233.2729 244.3012 L 233.4376 244.2199 L 233.6023 244.1387 L 233.7670 244.0575 L 233.9318 243.9764 L 234.0965 243.8953 L 234.2613 243.8142 L 234.4261 243.7332 L 234.5910 243.6523 L 234.7558 243.5714 L 234.9207 243.4905 L 235.0856 243.4097 L 235.2505 243.3289 L 235.4154 243.2481 L 235.5804 243.1675 L 235.7454 243.0868 L 235.9104 243.0062 L 236.0754 242.9256 L 236.2405 242.8451 L 236.4055 242.7647 L 236.5706 242.6842 L 236.7357 242.6039 L 236.9009 242.5235 L 237.0660 242.4432 L 237.2312 242.3630 L 237.3964 242.2828 L 237.5616 242.2026 L 237.7269 242.1225 L 237.8921 242.0424 L 238.0574 241.9624 L 238.2227 241.8824 L 238.3881 241.8025 L 238.5534 241.7226 L 238.7188 241.6428 L 238.8842 241.5630 L 239.0496 241.4832 L 239.2150 241.4035 L 239.3805 241.3238 L 239.5460 241.2442 L 239.7115 241.1646 L 239.8770 241.0851 L 240.0425 241.0056 L 240.2081 240.9262 L 240.3737 240.8468 L 240.5393 240.7674 L 240.7049 240.6881 L 240.8706 240.6089 L 241.0363 240.5296 L 241.2020 240.4505 L 241.3677 240.3713 L 241.5334 240.2923 L 241.6992 240.2132 L 241.8649 240.1342 L 242.0307 240.0553 L 242.1966 239.9764 L 242.3624 239.8975 L 242.5283 239.8187 L 242.6942 239.7399 L 242.8601 239.6612 L 243.0260 239.5825 L 243.1920 239.5039 L 243.3579 239.4253 L 243.5239 239.3467 L 243.6899 239.2682 L 243.8560 239.1898 L 244.0220 239.1114 L 244.1881 239.0330 L 244.3542 238.9547 L 244.5203 238.8764 L 244.6865 238.7982 L 244.8526 238.7200 L 245.0188 238.6418 L 245.1850 238.5637 L 245.3512 238.4857 L 245.5175 238.4077 L 245.6837 238.3297 L 245.8500 238.2518 L 246.0163 238.1739 L 246.1827 238.0961 L 246.3490 238.0183 L 246.5154 237.9405 L 246.6818 237.8628 L 246.8482 237.7852 L 247.0146 237.7076 L 247.1811 237.6300 L 247.3476 237.5525 L 247.5141 237.4750 L 247.6806 237.3976 L 247.8471 237.3202 L 248.0137 237.2429 L 248.1802 237.1656 L 248.3468 237.0883 L 248.5135 237.0111 L 248.6801 236.9339 L 248.8468 236.8568 L 249.0135 236.7798 L 249.1802 236.7027 L 249.3469 236.6257 L 249.5136 236.5488 L 249.6804 236.4719 L 249.8472 236.3951 L 250.0140 236.3183 L 250.1808 236.2415 L 250.3477 236.1648 L 250.5145 236.0881 L 250.6814 236.0115 L 250.8483 235.9349 L 251.0153 235.8584 L 251.1822 235.7819 L 251.3492 235.7054 L 251.5162 235.6290 L 251.6832 235.5527 L 251.8502 235.4764 L 252.0173 235.4001 L 252.1843 235.3239 L 252.3514 235.2477 L 252.5185 235.1716 L 252.6857 235.0955 L 252.8528 235.0194 L 253.0200 234.9434 L 253.1872 234.8675 L 253.3544 234.7916 L 253.5216 234.7157 L 253.6889 234.6399 L 253.8562 234.5641 L 254.0235 234.4883 L 254.1908 234.4127 L 254.3581 234.3370 L 254.5255 234.2614 L 254.6929 234.1859 L 254.8602 234.1103 L 255.0277 234.0349 L 255.1951 233.9595 L 255.3626 233.8841 L 255.5300 233.8087 L 255.6975 233.7335 L 255.8650 233.6582 L 256.0326 233.5830 L 256.2001 233.5079 L 256.3677 233.4328 L 256.5353 233.3577 L 256.7029 233.2827 L 256.8706 233.2077 L 257.0382 233.1328 L 257.2059 233.0579 L 257.3736 232.9830 L 257.5413 232.9082 L 257.7090 232.8335 L 257.8768 232.7588 L 258.0446 232.6841 L 258.2124 232.6095 L 258.3802 232.5349 L 258.5480 232.4603 L 258.7159 232.3859 L 258.8837 232.3114 L 259.0516 232.2370 L 259.2195 232.1627 L 259.3875 232.0883 L 259.5554 232.0141 L 259.7234 231.9398 L 259.8914 231.8657 L 260.0594 231.7915 L 260.2274 231.7174 L 260.3955 231.6434 L 260.5635 231.5694 L 260.7316 231.4954 L 260.8997 231.4215 L 261.0678 231.3476 L 261.2360 231.2738 L 261.4042 231.2000 L 261.5723 231.1263 L 261.7405 231.0526 L 261.9088 230.9789 L 262.0770 230.9053 L 262.2453 230.8318 L 262.4135 230.7583 L 262.5818 230.6848 L 262.7502 230.6113 L 262.9185 230.5380 L 263.0869 230.4646 L 263.2552 230.3913 L 263.4236 230.3181 L 263.5920 230.2448 L 263.7605 230.1717 L 263.9289 230.0986 L 264.0974 230.0255 L 264.2659 229.9524 L 264.4344 229.8794 L 264.6029 229.8065 L 264.7715 229.7336 L 264.9400 229.6607 L 265.1086 229.5879 L 265.2772 229.5151 L 265.4458 229.4424 L 265.6145 229.3697 L 265.7832 229.2971 L 265.9518 229.2245 L 266.1205 229.1519 L 266.2892 229.0794 L 266.4580 229.0069 L 266.6267 228.9345 L 266.7955 228.8621 L 266.9643 228.7898 L 267.1331 228.7175 L 267.3019 228.6452 L 267.4708 228.5730 L 267.6396 228.5009 L 267.8085 228.4287 L 267.9774 228.3567 L 268.1463 228.2846 L 268.3153 228.2126 L 268.4842 228.1407 L 268.6532 228.0688 L 268.8222 227.9969 L 268.9912 227.9251 L 269.1603 227.8533 L 269.3293 227.7816 L 269.4984 227.7099 L 269.6675 227.6382 L 269.8366 227.5666 L 270.0057 227.4951 L 270.1748 227.4235 L 270.3440 227.3521 L 270.5132 227.2806 L 270.6823 227.2092 L 270.8516 227.1379 L 271.0208 227.0666 L 271.1900 226.9953 L 271.3593 226.9241 L 271.5286 226.8529 L 271.6979 226.7818 L 271.8672 226.7107 L 272.0365 226.6396 L 272.2059 226.5686 L 272.3753 226.4977 L 272.5447 226.4268 L 272.7141 226.3559 L 272.8835 226.2850 L 273.0529 226.2142 L 273.2224 226.1435 L 273.3919 226.0728 L 273.5614 226.0021 L 273.7309 225.9315 L 273.9004 225.8609 L 274.0700 225.7903 L 274.2395 225.7198 L 274.4091 225.6494 L 274.5787 225.5790 L 274.7483 225.5086 L 274.9180 225.4383 L 275.0876 225.3680 L 275.2573 225.2977 L 275.4270 225.2275 L 275.5967 225.1573 L 275.7664 225.0872 L 275.9362 225.0171 L 276.1059 224.9471 L 276.2757 224.8771 L 276.4455 224.8071 L 276.6153 224.7372 L 276.7851 224.6673 L 276.9550 224.5975 L 277.1248 224.5277 L 277.2947 224.4579 L 277.4646 224.3882 L 277.6345 224.3185 L 277.8044 224.2489 L 277.9744 224.1793 L 278.1443 224.1098 L 278.3143 224.0403 L 278.4843 223.9708 L 278.6543 223.9014 L 278.8243 223.8320 L 278.9944 223.7626 L 279.1644 223.6933 L 279.3345 223.6241 L 279.5046 223.5548 L 279.6747 223.4856 L 279.8448 223.4165 L 280.0150 223.3474 L 280.1851 223.2783 L 280.3553 223.2093 L 280.5255 223.1403 L 280.6957 223.0714 L 280.8659 223.0025 L 281.0361 222.9336 L 281.2064 222.8648 L 281.3767 222.7960 L 281.5469 222.7272 L 281.7172 222.6585 L 281.8876 222.5899 L 282.0579 222.5212 L 282.2282 222.4526 L 282.3986 222.3841 L 282.5690 222.3156 L 282.7394 222.2471 L 282.9098 222.1787 L 283.0802 222.1103 L 283.2507 222.0419 L 283.4211 221.9736 L 283.5916 221.9053 L 283.7621 221.8371 L 283.9326 221.7688 L 284.1031 221.7007 L 284.2736 221.6326 L 284.4442 221.5645 L 284.6147 221.4964 L 284.7853 221.4284 L 284.9559 221.3604 L 285.1265 221.2925 L 285.2971 221.2246 L 285.4678 221.1567 L 285.6384 221.0889 L 285.8091 221.0211 L 285.9798 220.9533 L 286.1505 220.8856 L 286.3212 220.8179 L 286.4919 220.7503 L 286.6627 220.6827 L 286.8334 220.6151 L 287.0042 220.5476 L 287.1750 220.4801 L 287.3458 220.4126 L 287.5166 220.3452 L 287.6874 220.2778 L 287.8582 220.2104 L 288.0291 220.1431 L 288.2000 220.0758 L 288.3709 220.0086 L 288.5418 219.9414 L 288.7127 219.8742 L 288.8836 219.8070 L 289.0545 219.7399 L 289.2255 219.6729 L 289.3964 219.6058 L 289.5674 219.5388 L 289.7384 219.4718 L 289.9094 219.4049 L 290.0804 219.3380 L 290.2515 219.2711 L 290.4225 219.2043 L 290.5936 219.1375 L 290.7646 219.0707 L 290.9357 219.0040 L 291.1068 218.9373 L 291.2779 218.8706 L 291.4490 218.8040 L 291.6202 218.7374 L 291.7913 218.6708 L 291.9625 218.6043 L 292.1337 218.5377 L 292.3048 218.4713 L 292.4760 218.4048 L 292.6472 218.3384 L 292.8185 218.2720 L 292.9897 218.2057 L 293.1609 218.1394 L 293.3322 218.0731 L 293.5035 218.0068 L 293.6748 217.9406 L 293.8460 217.8744 L 294.0173 217.8082 L 294.1887 217.7421 L 294.3600 217.6759 L 294.5313 217.6099 L 294.7027 217.5438 L 294.8740 217.4778 L 295.0454 217.4118 L 295.2168 217.3458 L 295.3882 217.2799 L 295.5596 217.2140 L 295.7310 217.1481 L 295.9024 217.0822 L 296.0738 217.0164 L 296.2453 216.9506 L 296.4167 216.8848 L 296.5882 216.8191 L 296.7597 216.7533 L 296.9312 216.6876 L 297.1027 216.6220 L 297.2742 216.5563 L 297.4457 216.4907 L 297.6172 216.4251 L 297.7887 216.3595 L 297.9603 216.2940 L 298.1318 216.2284 L 298.3034 216.1629 L 298.4749 216.0974 L 298.6465 216.0320 L 298.8181 215.9665 L 298.9897 215.9011 L 299.1613 215.8357 L 299.3329 215.7704 L 299.5045 215.7050 L 299.6762 215.6397 L 299.8478 215.5744 L 300.0194 215.5091 L 300.1911 215.4438 L 300.3627 215.3786 L 300.5344 215.3133 L 300.7061 215.2481 L 300.8777 215.1829 L 301.0494 215.1178 L 301.2211 215.0526 L 301.3928 214.9875 L 301.5645 214.9223 L 301.7362 214.8572 L 301.9079 214.7921 L 302.0797 214.7271 L 302.2514 214.6620 L 302.4231 214.5969 L 302.5949 214.5319 L 302.7666 214.4669 L 302.9384 214.4019 L 303.1101 214.3369 L 303.2819 214.2719 L 303.4536 214.2069 L 303.6254 214.1420 L 303.7972 214.0770 L 303.9689 214.0121 L 304.1407 213.9471 L 304.3125 213.8822 L 304.4843 213.8173 L 304.6561 213.7524 L 304.8278 213.6875 L 304.9996 213.6226 L 305.1714 213.5577 L 305.3432 213.4928 L 305.5150 213.4280 L 305.6868 213.3631 L 305.8586 213.2982 L 306.0304 213.2334 L 306.2022 213.1685 L 306.3740 213.1036 L 306.5458 213.0388 L 306.7176 212.9739 L 306.8894 212.9091 L 307.0612 212.8442 L 307.2330 212.7793 L 307.4048 212.7145 L 307.5766 212.6496 L 307.7484 212.5847 L 307.9202 212.5198 L 308.0920 212.4550 L 308.2638 212.3901 L 308.4356 212.3252 L 308.6074 212.2603 L 308.7792 212.1953 L 308.9510 212.1304 L 309.1227 212.0655 L 309.2945 212.0005 L 309.4663 211.9355 L 309.6380 211.8706 L 309.8098 211.8056 L 309.9815 211.7406 L 310.1533 211.6755 L 310.3250 211.6105 L 310.4967 211.5454 L 310.6684 211.4803 L 310.8401 211.4152 L 311.0118 211.3501 L 311.1835 211.2849 L 311.3552 211.2198 L 311.5269 211.1545 L 311.6986 211.0893 L 311.8702 211.0240 L 312.0418 210.9588 L 312.2135 210.8934 L 312.3851 210.8281 L 312.5567 210.7627 L 312.7283 210.6972 L 312.8998 210.6318 L 313.0714 210.5663 L 313.2429 210.5007 L 313.4145 210.4351 L 313.5860 210.3695 L 313.7575 210.3038 L 313.9289 210.2381 L 314.1004 210.1723 L 314.2718 210.1065 L 314.4433 210.0406 L 314.6146 209.9747 L 314.7860 209.9087 L 314.9574 209.8426 L 315.1287 209.7765 L 315.3000 209.7104 L 315.4713 209.6441 L 315.6425 209.5778 L 315.8138 209.5114 L 315.9850 209.4450 L 316.1561 209.3785 L 316.3273 209.3119 L 316.4984 209.2452 L 316.6694 209.1784 L 316.8405 209.1116 L 317.0115 209.0447 L 317.1825 208.9777 L 317.3534 208.9105 L 317.5243 208.8433 L 317.6952 208.7760 L 317.8660 208.7086 L 318.0368 208.6411 L 318.2075 208.5735 L 318.3782 208.5057 L 318.5488 208.4379 L 318.7194 208.3699 L 318.8900 208.3018 L 319.0605 208.2336 L 319.2309 208.1653 L 319.4013 208.0968 L 319.5716 208.0281 L 319.7419 207.9594 L 319.9121 207.8904 L 320.0823 207.8214 L 320.2524 207.7521 L 320.4224 207.6827 L 320.5923 207.6132 L 320.7622 207.5434 L 320.9320 207.4735 L 321.1017 207.4034 L 321.2714 207.3331 L 321.4410 207.2626 L 321.6104 207.1919 L 321.7798 207.1210 L 321.9491 207.0498 L 322.1184 206.9785 L 322.2875 206.9069 L 322.4565 206.8350 L 322.6254 206.7630 L 322.7941 206.6906 L 322.9628 206.6180 L 323.1314 206.5451 L 323.2998 206.4719 L 323.4681 206.3984 L 323.6363 206.3247 L 323.8043 206.2506 L 323.9722 206.1761 L 324.1399 206.1014 L 324.3075 206.0262 L 324.4749 205.9507 L 324.6421 205.8749 L 324.8091 205.7986 L 324.9760 205.7219 L 325.1427 205.6448 L 325.3091 205.5672 L 325.4754 205.4892 L 325.6414 205.4107 L 325.8072 205.3317 L 325.9727 205.2522 L 326.1379 205.1721 L 326.3029 205.0914 L 326.4676 205.0102 L 326.6320 204.9284 L 326.7961 204.8459 L 326.9598 204.7627 L 327.1232 204.6788 L 327.2861 204.5942 L 327.4487 204.5088 L 327.6109 204.4226 L 327.7725 204.3355 L 327.9337 204.2476 L 328.0944 204.1586 L 328.2546 204.0687 L 328.4141 203.9778 L 328.5730 203.8857 L 328.7312 203.7925 L 328.8887 203.6980 L 329.0454 203.6023 L 329.2012 203.5051 L 329.3561 203.4065 L 329.5100 203.3063 L 329.6628 203.2044 L 329.8144 203.1007 L 329.9646 202.9952 L 330.1134 202.8876 L 330.2606 202.7778 L 330.4061 202.6657 L 330.5495 202.5510 L 330.6908 202.4336 L 330.8295 202.3133 L 330.9654 202.1899 L 331.0982 202.0630 L 331.2273 201.9325 L 331.3523 201.7979 L 331.4725 201.6591 L 331.5872 201.5157 L 331.6955 201.3674 L 331.7963 201.2139 L 331.8884 201.0551 L 331.9704 200.8908 L 332.0409 200.7213 L 332.0980 200.5468 L 332.1404 200.3682 L 332.1665 200.1865" 
        fill="none" 
        stroke="#388E3C" 
        stroke-width="0.8"
        stroke-linecap="round"
        stroke-linejoin="round"/>
</svg>