<?xml version="1.0" encoding="UTF-8"?>
<svg xmlns="http://www.w3.org/2000/svg" 
     width="400.0" height="400.0" 
     viewBox="0 0 400.0 400.0">
  <rect width="100%" height="100%" fill="#ffffff"/>
  <path d="M 197.5333 191.8803 L 197.8833 191.4597 L 198.1899 191.0066 L 198.4527 190.5266 L 198.6716 190.0252 L 198.8471 189.5068 L 198.9798 188.9759 L 199.0706 188.4363 L 199.1206 187.8913 L 199.1312 187.3442 L 199.1035 186.7976 L 199.0391 186.2542 L 198.9393 185.7161 L 198.8056 185.1854 L 198.6396 184.6639 L 198.4427 184.1532 L 198.2163 183.6549 L 197.9621 183.1703 L 197.6815 182.7004 L 197.3759 182.2464 L 197.0467 181.8091 L 196.6953 181.3895 L 196.3232 180.9881 L 195.9316 180.6057 L 195.5219 180.2428 L 195.0954 179.8998 L 194.6533 179.5772 L 194.1968 179.2752 L 193.7272 178.9942 L 193.2455 178.7343 L 192.7530 178.4956 L 192.2506 178.2784 L 191.7395 178.0827 L 191.2206 177.9084 L 190.6950 177.7556 L 190.1637 177.6242 L 189.6275 177.5142 L 189.0875 177.4254 L 188.5443 177.3576 L 187.9990 177.3108 L 187.4523 177.2847 L 186.9050 177.2790 L 186.3579 177.2936 L 185.8116 177.3282 L 185.2670 177.3826 L 184.7246 177.4563 L 184.1852 177.5492 L 183.6494 177.6608 L 183.1177 177.7910 L 182.5909 177.9392 L 182.0693 178.1052 L 181.5536 178.2886 L 181.0443 178.4890 L 180.5418 178.7061 L 180.0467 178.9394 L 179.5593 179.1886 L 179.0802 179.4532 L 178.6097 179.7328 L 178.1482 180.0271 L 177.6961 180.3357 L 177.2537 180.6580 L 176.8214 180.9937 L 176.3995 181.3424 L 175.9883 181.7036 L 175.5880 182.0769 L 175.1990 182.4620 L 174.8214 182.8582 L 174.4556 183.2654 L 174.1017 183.6829 L 173.7599 184.1105 L 173.4305 184.5476 L 173.1136 184.9938 L 172.8093 185.4488 L 172.5179 185.9121 L 172.2393 186.3833 L 171.9739 186.8620 L 171.7217 187.3478 L 171.4827 187.8402 L 171.2571 188.3389 L 171.0449 188.8434 L 170.8462 189.3535 L 170.6611 189.8686 L 170.4896 190.3883 L 170.3317 190.9124 L 170.1875 191.4404 L 170.0569 191.9720 L 169.9401 192.5067 L 169.8368 193.0443 L 169.7473 193.5842 L 169.6713 194.1263 L 169.6090 194.6701 L 169.5602 195.2153 L 169.5250 195.7615 L 169.5032 196.3084 L 169.4948 196.8557 L 169.4997 197.4030 L 169.5179 197.9501 L 169.5492 198.4965 L 169.5937 199.0421 L 169.6511 199.5864 L 169.7215 200.1292 L 169.8046 200.6702 L 169.9004 201.2091 L 170.0088 201.7457 L 170.1296 202.2795 L 170.2628 202.8104 L 170.4081 203.3381 L 170.5654 203.8624 L 170.7347 204.3829 L 170.9157 204.8995 L 171.1084 205.4118 L 171.3125 205.9197 L 171.5280 206.4228 L 171.7545 206.9211 L 171.9921 207.4142 L 172.2405 207.9020 L 172.4996 208.3841 L 172.7691 208.8605 L 173.0490 209.3309 L 173.3389 209.7952 L 173.6389 210.2530 L 173.9486 210.7043 L 174.2679 211.1489 L 174.5966 211.5866 L 174.9345 212.0172 L 175.2814 212.4405 L 175.6372 212.8565 L 176.0016 213.2649 L 176.3745 213.6656 L 176.7556 214.0585 L 177.1448 214.4434 L 177.5419 214.8201 L 177.9466 215.1887 L 178.3587 215.5489 L 178.7781 215.9005 L 179.2046 216.2436 L 179.6380 216.5780 L 180.0779 216.9036 L 180.5244 217.2203 L 180.9771 217.5280 L 181.4358 217.8266 L 181.9004 218.1161 L 182.3706 218.3962 L 182.8462 218.6671 L 183.3271 218.9286 L 183.8130 219.1805 L 184.3038 219.4230 L 184.7991 219.6559 L 185.2989 219.8791 L 185.8029 220.0927 L 186.3109 220.2965 L 186.8227 220.4905 L 187.3381 220.6747 L 187.8570 220.8490 L 188.3790 221.0135 L 188.9041 221.1681 L 189.4320 221.3127 L 189.9625 221.4474 L 190.4955 221.5722 L 191.0307 221.6869 L 191.5679 221.7917 L 192.1070 221.8865 L 192.6478 221.9713 L 193.1900 222.0461 L 193.7335 222.1110 L 194.2781 222.1658 L 194.8236 222.2108 L 195.3699 222.2457 L 195.9166 222.2708 L 196.4638 222.2860 L 197.0111 222.2913 L 197.5585 222.2867 L 198.1056 222.2723 L 198.6525 222.2482 L 199.1988 222.2143 L 199.7444 222.1707 L 200.2892 222.1174 L 200.8329 222.0545 L 201.3754 221.9821 L 201.9166 221.9001 L 202.4563 221.8087 L 202.9943 221.7078 L 203.5304 221.5976 L 204.0646 221.4781 L 204.5966 221.3493 L 205.1263 221.2114 L 205.6535 221.0644 L 206.1782 220.9084 L 206.7001 220.7434 L 207.2191 220.5694 L 207.7350 220.3867 L 208.2478 220.1953 L 208.7573 219.9951 L 209.2633 219.7864 L 209.7657 219.5692 L 210.2644 219.3436 L 210.7593 219.1096 L 211.2501 218.8674 L 211.7369 218.6171 L 212.2194 218.3586 L 212.6976 218.0922 L 213.1712 217.8180 L 213.6403 217.5359 L 214.1047 217.2462 L 214.5643 216.9489 L 215.0189 216.6440 L 215.4685 216.3318 L 215.9129 216.0123 L 216.3521 215.6856 L 216.7860 215.3519 L 217.2143 215.0111 L 217.6371 214.6635 L 218.0543 214.3091 L 218.4657 213.9481 L 218.8713 213.5805 L 219.2709 213.2065 L 219.6645 212.8261 L 220.0520 212.4396 L 220.4334 212.0469 L 220.8084 211.6482 L 221.1771 211.2437 L 221.5394 210.8334 L 221.8952 210.4174 L 222.2445 209.9959 L 222.5870 209.5690 L 222.9229 209.1368 L 223.2520 208.6994 L 223.5742 208.2570 L 223.8896 207.8096 L 224.1980 207.3574 L 224.4993 206.9004 L 224.7936 206.4389 L 225.0808 205.9729 L 225.3607 205.5026 L 225.6335 205.0280 L 225.8989 204.5493 L 226.1570 204.0666 L 226.4078 203.5801 L 226.6511 203.0898 L 226.8870 202.5959 L 227.1154 202.0984 L 227.3362 201.5976 L 227.5495 201.0935 L 227.7553 200.5863 L 227.9533 200.0760 L 228.1438 199.5628 L 228.3265 199.0469 L 228.5016 198.5283 L 228.6689 198.0071 L 228.8284 197.4835 L 228.9802 196.9576 L 229.1243 196.4295 L 229.2605 195.8994 L 229.3889 195.3673 L 229.5095 194.8334 L 229.6222 194.2978 L 229.7271 193.7605 L 229.8241 193.2219 L 229.9133 192.6818 L 229.9947 192.1405 L 230.0681 191.5981 L 230.1338 191.0547 L 230.1915 190.5104 L 230.2414 189.9653 L 230.2835 189.4196 L 230.3177 188.8733 L 230.3440 188.3265 L 230.3626 187.7795 L 230.3733 187.2322 L 230.3762 186.6849 L 230.3713 186.1375 L 230.3587 185.5903 L 230.3383 185.0433 L 230.3102 184.4967 L 230.2743 183.9505 L 230.2308 183.4049 L 230.1795 182.8599 L 230.1207 182.3157 L 230.0542 181.7724 L 229.9801 181.2301 L 229.8984 180.6888 L 229.8092 180.1488 L 229.7125 179.6100 L 229.6084 179.0727 L 229.4967 178.5368 L 229.3777 178.0026 L 229.2513 177.4700 L 229.1176 176.9392 L 228.9766 176.4103 L 228.8283 175.8834 L 228.6728 175.3586 L 228.5102 174.8360 L 228.3404 174.3156 L 228.1635 173.7976 L 227.9796 173.2821 L 227.7887 172.7691 L 227.5908 172.2587 L 227.3861 171.7511 L 227.1745 171.2463 L 226.9561 170.7444 L 226.7309 170.2455 L 226.4991 169.7496 L 226.2606 169.2570 L 226.0155 168.7675 L 225.7639 168.2814 L 225.5058 167.7987 L 225.2413 167.3195 L 224.9704 166.8439 L 224.6933 166.3719 L 224.4099 165.9036 L 224.1203 165.4391 L 223.8245 164.9785 L 223.5228 164.5218 L 223.2150 164.0692 L 222.9013 163.6207 L 222.5817 163.1763 L 222.2563 162.7361 L 221.9252 162.3003 L 221.5883 161.8688 L 221.2459 161.4418 L 220.8980 161.0193 L 220.5445 160.6013 L 220.1857 160.1880 L 219.8215 159.7794 L 219.4521 159.3755 L 219.0774 158.9764 L 218.6976 158.5822 L 218.3128 158.1930 L 217.9230 157.8087 L 217.5283 157.4295 L 217.1288 157.0554 L 216.7244 156.6864 L 216.3154 156.3226 L 215.9018 155.9641 L 215.4836 155.6109 L 215.0610 155.2631 L 214.6340 154.9207 L 214.2026 154.5837 L 213.7671 154.2522 L 213.3273 153.9263 L 212.8835 153.6060 L 212.4356 153.2913 L 211.9838 152.9822 L 211.5282 152.6789 L 211.0688 152.3813 L 210.6057 152.0895 L 210.1390 151.8036 L 209.6687 151.5235 L 209.1950 151.2493 L 208.7178 150.9810 L 208.2374 150.7188 L 207.7537 150.4625 L 207.2669 150.2122 L 206.7771 149.9680 L 206.2842 149.7299 L 205.7884 149.4979 L 205.2898 149.2721 L 204.7885 149.0524 L 204.2845 148.8389 L 203.7779 148.6316 L 203.2688 148.4306 L 202.7572 148.2358 L 202.2433 148.0473 L 201.7272 147.8651 L 201.2088 147.6893 L 200.6884 147.5197 L 200.1659 147.3565 L 199.6415 147.1997 L 199.1152 147.0493 L 198.5871 146.9053 L 198.0574 146.7676 L 197.5260 146.6364 L 196.9930 146.5116 L 196.4586 146.3933 L 195.9228 146.2814 L 195.3857 146.1760 L 194.8473 146.0770 L 194.3078 145.9845 L 193.7673 145.8985 L 193.2257 145.8189 L 192.6833 145.7458 L 192.1400 145.6792 L 191.5959 145.6191 L 191.0512 145.5654 L 190.5058 145.5183 L 189.9600 145.4776 L 189.4137 145.4434 L 188.8670 145.4156 L 188.3201 145.3944 L 187.7729 145.3795 L 187.2256 145.3712 L 186.6783 145.3693 L 186.1309 145.3738 L 185.5837 145.3848 L 185.0366 145.4021 L 184.4897 145.4259 L 183.9432 145.4561 L 183.3970 145.4927 L 182.8514 145.5356 L 182.3062 145.5849 L 181.7617 145.6406 L 181.2179 145.7025 L 180.6748 145.7708 L 180.1325 145.8454 L 179.5911 145.9262 L 179.0508 146.0134 L 178.5114 146.1067 L 177.9732 146.2063 L 177.4361 146.3120 L 176.9003 146.4240 L 176.3659 146.5421 L 175.8328 146.6663 L 175.3012 146.7966 L 174.7711 146.9331 L 174.2426 147.0755 L 173.7157 147.2240 L 173.1906 147.3785 L 172.6673 147.5390 L 172.1459 147.7054 L 171.6263 147.8778 L 171.1088 148.0560 L 170.5933 148.2401 L 170.0800 148.4300 L 169.5688 148.6257 L 169.0598 148.8272 L 168.5532 149.0344 L 168.0490 149.2473 L 167.5471 149.4659 L 167.0478 149.6901 L 166.5510 149.9199 L 166.0568 150.1553 L 165.5653 150.3962 L 165.0765 150.6426 L 164.5906 150.8944 L 164.1074 151.1517 L 163.6272 151.4143 L 163.1499 151.6822 L 162.6756 151.9555 L 162.2044 152.2340 L 161.7363 152.5177 L 161.2714 152.8066 L 160.8097 153.1006 L 160.3513 153.3998 L 159.8962 153.7039 L 159.4445 154.0131 L 158.9963 154.3272 L 158.5515 154.6463 L 158.1103 154.9702 L 157.6726 155.2990 L 157.2386 155.6325 L 156.8083 155.9708 L 156.3817 156.3138 L 155.9589 156.6614 L 155.5399 157.0136 L 155.1248 157.3704 L 154.7136 157.7317 L 154.3064 158.0974 L 153.9032 158.4676 L 153.5040 158.8421 L 153.1089 159.2209 L 152.7179 159.6040 L 152.3311 159.9913 L 151.9485 160.3827 L 151.5702 160.7783 L 151.1962 161.1779 L 150.8265 161.5816 L 150.4611 161.9892 L 150.1002 162.4007 L 149.7437 162.8161 L 149.3917 163.2352 L 149.0442 163.6582 L 148.7013 164.0848 L 148.3629 164.5150 L 148.0292 164.9489 L 147.7001 165.3863 L 147.3757 165.8272 L 147.0561 166.2715 L 146.7411 166.7192 L 146.4310 167.1702 L 146.1256 167.6245 L 145.8251 168.0820 L 145.5295 168.5427 L 145.2388 169.0064 L 144.9529 169.4732 L 144.6721 169.9431 L 144.3962 170.4158 L 144.1253 170.8914 L 143.8594 171.3699 L 143.5986 171.8511 L 143.3429 172.3351 L 143.0922 172.8217 L 142.8467 173.3109 L 142.6063 173.8026 L 142.3711 174.2969 L 142.1410 174.7936 L 141.9162 175.2926 L 141.6965 175.7940 L 141.4822 176.2976 L 141.2730 176.8035 L 141.0692 177.3114 L 140.8706 177.8215 L 140.6774 178.3336 L 140.4894 178.8477 L 140.3068 179.3637 L 140.1296 179.8816 L 139.9577 180.4013 L 139.7912 180.9227 L 139.6301 181.4458 L 139.4744 181.9706 L 139.3241 182.4969 L 139.1792 183.0248 L 139.0398 183.5541 L 138.9058 184.0848 L 138.7772 184.6168 L 138.6542 185.1502 L 138.5365 185.6848 L 138.4244 186.2205 L 138.3178 186.7574 L 138.2166 187.2953 L 138.1209 187.8343 L 138.0307 188.3742 L 137.9460 188.9149 L 137.8668 189.4565 L 137.7932 189.9989 L 137.7250 190.5420 L 137.6624 191.0858 L 137.6052 191.6302 L 137.5536 192.1751 L 137.5075 192.7205 L 137.4669 193.2664 L 137.4318 193.8126 L 137.4022 194.3592 L 137.3781 194.9060 L 137.3595 195.4531 L 137.3464 196.0003 L 137.3389 196.5476 L 137.3368 197.0949 L 137.3402 197.6423 L 137.3490 198.1896 L 137.3634 198.7368 L 137.3832 199.2838 L 137.4085 199.8306 L 137.4392 200.3771 L 137.4754 200.9232 L 137.5171 201.4690 L 137.5641 202.0144 L 137.6166 202.5592 L 137.6744 203.1035 L 137.7377 203.6472 L 137.8064 204.1902 L 137.8804 204.7326 L 137.9598 205.2741 L 138.0446 205.8149 L 138.1346 206.3548 L 138.2300 206.8938 L 138.3308 207.4318 L 138.4368 207.9688 L 138.5481 208.5048 L 138.6646 209.0396 L 138.7864 209.5732 L 138.9134 210.1056 L 139.0457 210.6368 L 139.1831 211.1666 L 139.3257 211.6951 L 139.4735 212.2221 L 139.6264 212.7477 L 139.7845 213.2717 L 139.9476 213.7942 L 140.1158 214.3151 L 140.2891 214.8343 L 140.4675 215.3518 L 140.6508 215.8676 L 140.8392 216.3815 L 141.0325 216.8936 L 141.2308 217.4038 L 141.4340 217.9120 L 141.6421 218.4183 L 141.8551 218.9225 L 142.0730 219.4246 L 142.2957 219.9247 L 142.5232 220.4225 L 142.7554 220.9181 L 142.9925 221.4115 L 143.2343 221.9026 L 143.4808 222.3913 L 143.7319 222.8776 L 143.9877 223.3616 L 144.2482 223.8430 L 144.5132 224.3219 L 144.7828 224.7983 L 145.0570 225.2720 L 145.3356 225.7432 L 145.6188 226.2116 L 145.9064 226.6773 L 146.1984 227.1403 L 146.4948 227.6005 L 146.7956 228.0578 L 147.1007 228.5122 L 147.4101 228.9638 L 147.7238 229.4123 L 148.0417 229.8579 L 148.3638 230.3005 L 148.6901 230.7400 L 149.0205 231.1763 L 149.3550 231.6096 L 149.6936 232.0396 L 150.0363 232.4665 L 150.3829 232.8901 L 150.7335 233.3104 L 151.0881 233.7274 L 151.4465 234.1411 L 151.8089 234.5514 L 152.1750 234.9583 L 152.5450 235.3617 L 152.9187 235.7616 L 153.2962 236.1580 L 153.6773 236.5509 L 154.0621 236.9402 L 154.4505 237.3258 L 154.8425 237.7079 L 155.2380 238.0863 L 155.6370 238.4609 L 156.0396 238.8319 L 156.4455 239.1990 L 156.8548 239.5624 L 157.2675 239.9220 L 157.6835 240.2778 L 158.1028 240.6296 L 158.5253 240.9776 L 158.9510 241.3217 L 159.3799 241.6618 L 159.8119 241.9979 L 160.2470 242.3300 L 160.6852 242.6581 L 161.1263 242.9821 L 161.5704 243.3021 L 162.0174 243.6180 L 162.4674 243.9297 L 162.9201 244.2373 L 163.3757 244.5408 L 163.8340 244.8400 L 164.2951 245.1350 L 164.7588 245.4258 L 165.2252 245.7124 L 165.6941 245.9946 L 166.1657 246.2726 L 166.6397 246.5462 L 167.1163 246.8156 L 167.5952 247.0805 L 168.0766 247.3411 L 168.5603 247.5973 L 169.0463 247.8491 L 169.5346 248.0965 L 170.0251 248.3394 L 170.5178 248.5779 L 171.0126 248.8118 L 171.5095 249.0413 L 172.0085 249.2663 L 172.5095 249.4868 L 173.0125 249.7027 L 173.5174 249.9141 L 174.0242 250.1209 L 174.5328 250.3232 L 175.0432 250.5208 L 175.5554 250.7139 L 176.0694 250.9023 L 176.5849 251.0861 L 177.1021 251.2653 L 177.6209 251.4398 L 178.1413 251.6097 L 178.6631 251.7749 L 179.1864 251.9354 L 179.7111 252.0912 L 180.2372 252.2424 L 180.7647 252.3888 L 181.2934 252.5305 L 181.8233 252.6675 L 182.3545 252.7997 L 182.8868 252.9273 L 183.4202 253.0500 L 183.9547 253.1681 L 184.4902 253.2814 L 185.0267 253.3899 L 185.5641 253.4936 L 186.1025 253.5926 L 186.6417 253.6868 L 187.1817 253.7762 L 187.7225 253.8609 L 188.2640 253.9408 L 188.8062 254.0158 L 189.3490 254.0861 L 189.8924 254.1516 L 190.4364 254.2123 L 190.9809 254.2682 L 191.5259 254.3193 L 192.0713 254.3657 L 192.6171 254.4072 L 193.1632 254.4439 L 193.7096 254.4759 L 194.2563 254.5030 L 194.8033 254.5253 L 195.3503 254.5429 L 195.8976 254.5557 L 196.4449 254.5637 L 196.9922 254.5669 L 197.5396 254.5653 L 198.0869 254.5589 L 198.6342 254.5478 L 199.1813 254.5319 L 199.7283 254.5112 L 200.2751 254.4858 L 200.8216 254.4557 L 201.3678 254.4207 L 201.9138 254.3811 L 202.4593 254.3367 L 203.0045 254.2876 L 203.5492 254.2337 L 204.0934 254.1752 L 204.6371 254.1119 L 205.1802 254.0439 L 205.7228 253.9713 L 206.2646 253.8939 L 206.8058 253.8119 L 207.3463 253.7252 L 207.8860 253.6339 L 208.4249 253.5380 L 208.9629 253.4374 L 209.5001 253.3321 L 210.0363 253.2223 L 210.5716 253.1079 L 211.1059 252.9888 L 211.6391 252.8652 L 212.1712 252.7371 L 212.7023 252.6044 L 213.2321 252.4671 L 213.7608 252.3253 L 214.2883 252.1791 L 214.8145 252.0283 L 215.3394 251.8730 L 215.8629 251.7132 L 216.3851 251.5491 L 216.9058 251.3804 L 217.4251 251.2074 L 217.9429 251.0299 L 218.4591 250.8480 L 218.9739 250.6618 L 219.4870 250.4712 L 219.9984 250.2762 L 220.5082 250.0769 L 221.0163 249.8734 L 221.5227 249.6655 L 222.0273 249.4533 L 222.5300 249.2369 L 223.0310 249.0163 L 223.5300 248.7914 L 224.0271 248.5623 L 224.5223 248.3291 L 225.0155 248.0916 L 225.5067 247.8501 L 225.9958 247.6044 L 226.4829 247.3546 L 226.9678 247.1007 L 227.4506 246.8428 L 227.9312 246.5808 L 228.4096 246.3148 L 228.8857 246.0449 L 229.3596 245.7709 L 229.8311 245.4930 L 230.3004 245.2111 L 230.7672 244.9253 L 231.2317 244.6357 L 231.6937 244.3421 L 232.1532 244.0448 L 232.6103 243.7436 L 233.0648 243.4386 L 233.5168 243.1298 L 233.9661 242.8173 L 234.4129 242.5011 L 234.8571 242.1812 L 235.2985 241.8576 L 235.7373 241.5303 L 236.1733 241.1994 L 236.6066 240.8649 L 237.0371 240.5269 L 237.4647 240.1852 L 237.8896 239.8401 L 238.3116 239.4915 L 238.7306 239.1393 L 239.1468 238.7838 L 239.5600 238.4248 L 239.9702 238.0624 L 240.3775 237.6967 L 240.7817 237.3276 L 241.1828 236.9552 L 241.5809 236.5795 L 241.9759 236.2006 L 242.3678 235.8184 L 242.7565 235.4330 L 243.1420 235.0445 L 243.5244 234.6528 L 243.9035 234.2580 L 244.2793 233.8600 L 244.6519 233.4591 L 245.0213 233.0551 L 245.3873 232.6481 L 245.7499 232.2381 L 246.1092 231.8252 L 246.4652 231.4093 L 246.8177 230.9906 L 247.1668 230.5690 L 247.5124 230.1446 L 247.8546 229.7174 L 248.1934 229.2874 L 248.5286 228.8547 L 248.8602 228.4192 L 249.1884 227.9811 L 249.5130 227.5404 L 249.8340 227.0970 L 250.1513 226.6511 L 250.4651 226.2026 L 250.7752 225.7515 L 251.0817 225.2980 L 251.3845 224.8420 L 251.6836 224.3836 L 251.9790 223.9228 L 252.2707 223.4596 L 252.5586 222.9941 L 252.8428 222.5263 L 253.1232 222.0562 L 253.3998 221.5838 L 253.6726 221.1093 L 253.9416 220.6326 L 254.2067 220.1537 L 254.4680 219.6727 L 254.7254 219.1897 L 254.9790 218.7046 L 255.2286 218.2175 L 255.4744 217.7284 L 255.7162 217.2373 L 255.9540 216.7443 L 256.1880 216.2495 L 256.4180 215.7528 L 256.6440 215.2542 L 256.8660 214.7539 L 257.0840 214.2518 L 257.2980 213.7480 L 257.5080 213.2426 L 257.7140 212.7354 L 257.9159 212.2267 L 258.1138 211.7163 L 258.3076 211.2044 L 258.4974 210.6910 L 258.6830 210.1761 L 258.8646 209.6597 L 259.0421 209.1419 L 259.2155 208.6227 L 259.3847 208.1022 L 259.5498 207.5803 L 259.7109 207.0572 L 259.8677 206.5328 L 260.0204 206.0071 L 260.1690 205.4803 L 260.3134 204.9523 L 260.4536 204.4232 L 260.5897 203.8931 L 260.7216 203.3618 L 260.8493 202.8296 L 260.9728 202.2963 L 261.0921 201.7621 L 261.2072 201.2270 L 261.3181 200.6910 L 261.4248 200.1541 L 261.5273 199.6164 L 261.6256 199.0779 L 261.7196 198.5387 L 261.8095 197.9988 L 261.8951 197.4581 L 261.9764 196.9169 L 262.0536 196.3749 L 262.1265 195.8325 L 262.1951 195.2894 L 262.2596 194.7459 L 262.3197 194.2018 L 262.3757 193.6573 L 262.4274 193.1124 L 262.4748 192.5671 L 262.5180 192.0214 L 262.5570 191.4754 L 262.5917 190.9292 L 262.6222 190.3827 L 262.6485 189.8359 L 262.6705 189.2890 L 262.6882 188.7419 L 262.7017 188.1947 L 262.7110 187.6474 L 262.7161 187.1001 L 262.7169 186.5527 L 262.7134 186.0054 L 262.7058 185.4581 L 262.6939 184.9108 L 262.6778 184.3637 L 262.6575 183.8167 L 262.6329 183.2699 L 262.6042 182.7233 L 262.5712 182.1769 L 262.5341 181.6308 L 262.4927 181.0850 L 262.4472 180.5395 L 262.3974 179.9944 L 262.3435 179.4497 L 262.2854 178.9054 L 262.2231 178.3616 L 262.1566 177.8183 L 262.0860 177.2755 L 262.0113 176.7333 L 261.9323 176.1916 L 261.8493 175.6506 L 261.7621 175.1102 L 261.6708 174.5705 L 261.5753 174.0316 L 261.4758 173.4933 L 261.3721 172.9559 L 261.2644 172.4192 L 261.1526 171.8834 L 261.0367 171.3484 L 260.9167 170.8144 L 260.7927 170.2812 L 260.6646 169.7491 L 260.5324 169.2179 L 260.3963 168.6877 L 260.2561 168.1586 L 260.1119 167.6306 L 259.9637 167.1037 L 259.8115 166.5779 L 259.6554 166.0532 L 259.4953 165.5298 L 259.3312 165.0076 L 259.1632 164.4867 L 258.9912 163.9670 L 258.8153 163.4487 L 258.6355 162.9317 L 258.4519 162.4161 L 258.2643 161.9018 L 258.0729 161.3890 L 257.8776 160.8777 L 257.6784 160.3678 L 257.4755 159.8595 L 257.2687 159.3527 L 257.0581 158.8475 L 256.8437 158.3438 L 256.6255 157.8418 L 256.4036 157.3415 L 256.1779 156.8428 L 255.9485 156.3458 L 255.7154 155.8506 L 255.4786 155.3571 L 255.2381 154.8654 L 254.9939 154.3755 L 254.7461 153.8875 L 254.4946 153.4013 L 254.2395 152.9170 L 253.9808 152.4346 L 253.7185 151.9542 L 253.4526 151.4757 L 253.1831 150.9993 L 252.9101 150.5249 L 252.6336 150.0525 L 252.3536 149.5821 L 252.0701 149.1139 L 251.7831 148.6478 L 251.4927 148.1839 L 251.1988 147.7221 L 250.9015 147.2625 L 250.6008 146.8051 L 250.2967 146.3500 L 249.9893 145.8971 L 249.6785 145.4465 L 249.3644 144.9983 L 249.0469 144.5524 L 248.7262 144.1088 L 248.4022 143.6676 L 248.0750 143.2288 L 247.7445 142.7925 L 247.4108 142.3586 L 247.0739 141.9272 L 246.7339 141.4983 L 246.3907 141.0719 L 246.0443 140.6480 L 245.6949 140.2267 L 245.3424 139.8080 L 244.9867 139.3918 L 244.6281 138.9784 L 244.2664 138.5675 L 243.9017 138.1593 L 243.5340 137.7538 L 243.1634 137.3511 L 242.7898 136.9510 L 242.4133 136.5537 L 242.0339 136.1592 L 241.6516 135.7674 L 241.2664 135.3785 L 240.8785 134.9924 L 240.4877 134.6091 L 240.0941 134.2287 L 239.6977 133.8512 L 239.2986 133.4766 L 238.8968 133.1049 L 238.4923 132.7361 L 238.0851 132.3703 L 237.6753 132.0075 L 237.2628 131.6477 L 236.8477 131.2909 L 236.4300 130.9371 L 236.0098 130.5864 L 235.5870 130.2387 L 235.1617 129.8941 L 234.7340 129.5526 L 234.3037 129.2142 L 233.8710 128.8790 L 233.4359 128.5469 L 232.9984 128.2179 L 232.5586 127.8922 L 232.1164 127.5696 L 231.6718 127.2502 L 231.2250 126.9341 L 230.7759 126.6212 L 230.3245 126.3115 L 229.8709 126.0051 L 229.4152 125.7020 L 228.9572 125.4022 L 228.4971 125.1057 L 228.0349 124.8125 L 227.5705 124.5227 L 227.1041 124.2362 L 226.6357 123.9530 L 226.1652 123.6733 L 225.6927 123.3969 L 225.2183 123.1240 L 224.7419 122.8544 L 224.2636 122.5883 L 223.7834 122.3256 L 223.3013 122.0664 L 222.8173 121.8106 L 222.3316 121.5583 L 221.8440 121.3095 L 221.3547 121.0642 L 220.8637 120.8224 L 220.3709 120.5841 L 219.8764 120.3493 L 219.3803 120.1181 L 218.8825 119.8904 L 218.3831 119.6663 L 217.8822 119.4457 L 217.3796 119.2288 L 216.8756 119.0154 L 216.3700 118.8056 L 215.8630 118.5994 L 215.3545 118.3968 L 214.8445 118.1979 L 214.3332 118.0026 L 213.8205 117.8109 L 213.3064 117.6228 L 212.7911 117.4385 L 212.2744 117.2577 L 211.7565 117.0807 L 211.2373 116.9073 L 210.7169 116.7376 L 210.1953 116.5716 L 209.6725 116.4093 L 209.1486 116.2507 L 208.6237 116.0958 L 208.0976 115.9446 L 207.5704 115.7972 L 207.0423 115.6535 L 206.5131 115.5135 L 205.9830 115.3772 L 205.4519 115.2447 L 204.9199 115.1159 L 204.3870 114.9909 L 203.8532 114.8696 L 203.3186 114.7521 L 202.7832 114.6384 L 202.2470 114.5284 L 201.7100 114.4222 L 201.1724 114.3198 L 200.6339 114.2211 L 200.0949 114.1263 L 199.5551 114.0352 L 199.0148 113.9479 L 198.4738 113.8644 L 197.9323 113.7847 L 197.3902 113.7088 L 196.8476 113.6366 L 196.3045 113.5683 L 195.7610 113.5038 L 195.2170 113.4431 L 194.6726 113.3862 L 194.1278 113.3330 L 193.5827 113.2837 L 193.0372 113.2382 L 192.4914 113.1965 L 191.9453 113.1586 L 191.3990 113.1246 L 190.8525 113.0943 L 190.3058 113.0678 L 189.7589 113.0451 L 189.2119 113.0263 L 188.6647 113.0112 L 188.1174 112.9999 L 187.5701 112.9925 L 187.0228 112.9888 L 186.4754 112.9890 L 185.9280 112.9929 L 185.3807 113.0006 L 184.8335 113.0121 L 184.2863 113.0275 L 183.7393 113.0466 L 183.1924 113.0694 L 182.6457 113.0961 L 182.0992 113.1266 L 181.5529 113.1608 L 181.0068 113.1988 L 180.4611 113.2406 L 179.9156 113.2861 L 179.3705 113.3354 L 178.8257 113.3884 L 178.2813 113.4453 L 177.7372 113.5058 L 177.1937 113.5701 L 176.6506 113.6382 L 176.1079 113.7099 L 175.5658 113.7854 L 175.0242 113.8647 L 174.4831 113.9476 L 173.9427 114.0343 L 173.4028 114.1247 L 172.8636 114.2187 L 172.3250 114.3165 L 171.7871 114.4180 L 171.2500 114.5231 L 170.7135 114.6320 L 170.1779 114.7445 L 169.6430 114.8606 L 169.1089 114.9804 L 168.5756 115.1039 L 168.0432 115.2310 L 167.5117 115.3617 L 166.9811 115.4961 L 166.4514 115.6341 L 165.9226 115.7757 L 165.3949 115.9209 L 164.8681 116.0697 L 164.3424 116.2221 L 163.8177 116.3780 L 163.2941 116.5375 L 162.7716 116.7006 L 162.2502 116.8673 L 161.7300 117.0374 L 161.2109 117.2111 L 160.6930 117.3884 L 160.1763 117.5691 L 159.6609 117.7533 L 159.1468 117.9411 L 158.6339 118.1323 L 158.1223 118.3270 L 157.6121 118.5251 L 157.1032 118.7267 L 156.5957 118.9318 L 156.0895 119.1403 L 155.5849 119.3521 L 155.0816 119.5674 L 154.5798 119.7861 L 154.0795 120.0082 L 153.5808 120.2337 L 153.0835 120.4625 L 152.5878 120.6946 L 152.0937 120.9301 L 151.6012 121.1690 L 151.1103 121.4111 L 150.6210 121.6565 L 150.1334 121.9053 L 149.6475 122.1573 L 149.1633 122.4125 L 148.6809 122.6710 L 148.2001 122.9328 L 147.7212 123.1978 L 147.2440 123.4660 L 146.7687 123.7373 L 146.2951 124.0119 L 145.8235 124.2896 L 145.3537 124.5705 L 144.8857 124.8545 L 144.4198 125.1417 L 143.9557 125.4320 L 143.4936 125.7253 L 143.0334 126.0218 L 142.5753 126.3213 L 142.1192 126.6239 L 141.6651 126.9295 L 141.2130 127.2382 L 140.7630 127.5498 L 140.3151 127.8645 L 139.8694 128.1821 L 139.4257 128.5027 L 138.9842 128.8262 L 138.5449 129.1527 L 138.1077 129.4821 L 137.6727 129.8144 L 137.2400 130.1496 L 136.8095 130.4877 L 136.3813 130.8286 L 135.9553 131.1723 L 135.5316 131.5189 L 135.1103 131.8683 L 134.6912 132.2204 L 134.2745 132.5753 L 133.8602 132.9330 L 133.4482 133.2935 L 133.0387 133.6566 L 132.6316 134.0225 L 132.2268 134.3910 L 131.8246 134.7622 L 131.4248 135.1361 L 131.0275 135.5126 L 130.6326 135.8917 L 130.2403 136.2734 L 129.8506 136.6577 L 129.4633 137.0446 L 129.0787 137.4340 L 128.6966 137.8259 L 128.3171 138.2204 L 127.9402 138.6173 L 127.5659 139.0167 L 127.1943 139.4186 L 126.8253 139.8229 L 126.4590 140.2296 L 126.0953 140.6387 L 125.7344 141.0502 L 125.3762 141.4641 L 125.0207 141.8803 L 124.6679 142.2989 L 124.3179 142.7197 L 123.9707 143.1428 L 123.6262 143.5682 L 123.2846 143.9959 L 122.9457 144.4257 L 122.6097 144.8578 L 122.2765 145.2921 L 121.9462 145.7286 L 121.6187 146.1672 L 121.2941 146.6079 L 120.9724 147.0507 L 120.6536 147.4957 L 120.3377 147.9427 L 120.0247 148.3918 L 119.7147 148.8428 L 119.4076 149.2960 L 119.1035 149.7511 L 118.8023 150.2081 L 118.5041 150.6672 L 118.2090 151.1281 L 117.9168 151.5910 L 117.6276 152.0557 L 117.3415 152.5224 L 117.0584 152.9909 L 116.7784 153.4612 L 116.5015 153.9333 L 116.2276 154.4072 L 115.9567 154.8829 L 115.6890 155.3603 L 115.4244 155.8395 L 115.1629 156.3203 L 114.9045 156.8029 L 114.6493 157.2871 L 114.3972 157.7729 L 114.1482 158.2604 L 113.9024 158.7495 L 113.6598 159.2401 L 113.4203 159.7324 L 113.1841 160.2261 L 112.9510 160.7214 L 112.7211 161.2181 L 112.4945 161.7164 L 112.2711 162.2161 L 112.0508 162.7172 L 111.8339 163.2197 L 111.6202 163.7236 L 111.4097 164.2289 L 111.2025 164.7355 L 110.9985 165.2435 L 110.7978 165.7527 L 110.6004 166.2633 L 110.4063 166.7751 L 110.2155 167.2881 L 110.0280 167.8024 L 109.8438 168.3178 L 109.6629 168.8344 L 109.4853 169.3522 L 109.3111 169.8711 L 109.1402 170.3911 L 108.9726 170.9121 L 108.8084 171.4343 L 108.6475 171.9575 L 108.4899 172.4817 L 108.3358 173.0069 L 108.1850 173.5331 L 108.0375 174.0602 L 107.8934 174.5883 L 107.7528 175.1173 L 107.6154 175.6471 L 107.4815 176.1779 L 107.3510 176.7094 L 107.2239 177.2418 L 107.1001 177.7750 L 106.9798 178.3090 L 106.8629 178.8437 L 106.7493 179.3792 L 106.6392 179.9154 L 106.5325 180.4522 L 106.4293 180.9898 L 106.3294 181.5280 L 106.2330 182.0668 L 106.1400 182.6062 L 106.0504 183.1462 L 105.9643 183.6867 L 105.8816 184.2278 L 105.8023 184.7694 L 105.7265 185.3115 L 105.6541 185.8540 L 105.5852 186.3970 L 105.5196 186.9405 L 105.4576 187.4843 L 105.3990 188.0285 L 105.3438 188.5731 L 105.2921 189.1180 L 105.2438 189.6633 L 105.1990 190.2088 L 105.1576 190.7546 L 105.1197 191.3007 L 105.0852 191.8469 L 105.0542 192.3934 L 105.0266 192.9401 L 105.0025 193.4869 L 104.9818 194.0339 L 104.9646 194.5810 L 104.9508 195.1282 L 104.9405 195.6755 L 104.9336 196.2228 L 104.9301 196.7701 L 104.9301 197.3175 L 104.9336 197.8649 L 104.9405 198.4122 L 104.9508 198.9595 L 104.9646 199.5067 L 104.9818 200.0537 L 105.0024 200.6007 L 105.0265 201.1476 L 105.0540 201.6942 L 105.0849 202.2407 L 105.1192 202.7870 L 105.1570 203.3331 L 105.1982 203.8789 L 105.2428 204.4244 L 105.2909 204.9697 L 105.3423 205.5146 L 105.3972 206.0593 L 105.4554 206.6035 L 105.5171 207.1474 L 105.5821 207.6909 L 105.6505 208.2340 L 105.7224 208.7766 L 105.7976 209.3188 L 105.8762 209.8605 L 105.9582 210.4017 L 106.0435 210.9423 L 106.1322 211.4825 L 106.2243 212.0220 L 106.3198 212.5610 L 106.4185 213.0994 L 106.5207 213.6371 L 106.6262 214.1742 L 106.7350 214.7107 L 106.8471 215.2464 L 106.9626 215.7815 L 107.0814 216.3158 L 107.2035 216.8494 L 107.3290 217.3822 L 107.4577 217.9142 L 107.5897 218.4454 L 107.7251 218.9758 L 107.8637 219.5053 L 108.0056 220.0340 L 108.1507 220.5617 L 108.2991 221.0886 L 108.4508 221.6145 L 108.6057 222.1395 L 108.7639 222.6635 L 108.9253 223.1865 L 109.0900 223.7086 L 109.2578 224.2296 L 109.4289 224.7495 L 109.6032 225.2684 L 109.7807 225.7862 L 109.9613 226.3029 L 110.1452 226.8184 L 110.3322 227.3328 L 110.5224 227.8461 L 110.7158 228.3582 L 110.9123 228.8691 L 111.1119 229.3787 L 111.3147 229.8871 L 111.5206 230.3943 L 111.7297 230.9002 L 111.9418 231.4048 L 112.1570 231.9081 L 112.3753 232.4100 L 112.5967 232.9106 L 112.8212 233.4098 L 113.0487 233.9077 L 113.2792 234.4041 L 113.5128 234.8991 L 113.7495 235.3927 L 113.9891 235.8848 L 114.2318 236.3755 L 114.4775 236.8646 L 114.7261 237.3522 L 114.9778 237.8383 L 115.2324 238.3229 L 115.4899 238.8059 L 115.7504 239.2873 L 116.0139 239.7671 L 116.2802 240.2452 L 116.5495 240.7218 L 116.8217 241.1967 L 117.0968 241.6699 L 117.3748 242.1414 L 117.6556 242.6113 L 117.9393 243.0794 L 118.2258 243.5458 L 118.5152 244.0104 L 118.8074 244.4732 L 119.1024 244.9343 L 119.4002 245.3935 L 119.7008 245.8510 L 120.0042 246.3066 L 120.3103 246.7603 L 120.6192 247.2122 L 120.9309 247.6622 L 121.2452 248.1103 L 121.5623 248.5565 L 121.8821 249.0007 L 122.2045 249.4430 L 122.5297 249.8834 L 122.8575 250.3217 L 123.1879 250.7581 L 123.5210 251.1925 L 123.8567 251.6248 L 124.1950 252.0551 L 124.5359 252.4833 L 124.8795 252.9095 L 125.2255 253.3336 L 125.5742 253.7555 L 125.9253 254.1754 L 126.2790 254.5931 L 126.6353 255.0087 L 126.9940 255.4222 L 127.3552 255.8334 L 127.7189 256.2425 L 128.0850 256.6494 L 128.4536 257.0540 L 128.8246 257.4565 L 129.1981 257.8567 L 129.5739 258.2546 L 129.9522 258.6503 L 130.3328 259.0436 L 130.7157 259.4347 L 131.1010 259.8235 L 131.4887 260.2100 L 131.8786 260.5941 L 132.2709 260.9758 L 132.6654 261.3552 L 133.0623 261.7323 L 133.4613 262.1069 L 133.8626 262.4791 L 134.2662 262.8490 L 134.6719 263.2164 L 135.0799 263.5813 L 135.4900 263.9438 L 135.9023 264.3039 L 136.3167 264.6614 L 136.7333 265.0165 L 137.1519 265.3691 L 137.5727 265.7192 L 137.9956 266.0667 L 138.4205 266.4118 L 138.8475 266.7542 L 139.2766 267.0942 L 139.7076 267.4315 L 140.1407 267.7663 L 140.5757 268.0984 L 141.0127 268.4280 L 141.4517 268.7550 L 141.8926 269.0793 L 142.3355 269.4011 L 142.7802 269.7201 L 143.2269 270.0365 L 143.6754 270.3503 L 144.1258 270.6614 L 144.5780 270.9697 L 145.0321 271.2754 L 145.4879 271.5784 L 145.9456 271.8787 L 146.4050 272.1763 L 146.8662 272.4711 L 147.3291 272.7631 L 147.7938 273.0525 L 148.2602 273.3390 L 148.7282 273.6228 L 149.1979 273.9038 L 149.6693 274.1820 L 150.1424 274.4574 L 150.6170 274.7301 L 151.0933 274.9999 L 151.5711 275.2668 L 152.0505 275.5310 L 152.5315 275.7923 L 153.0140 276.0507 L 153.4980 276.3063 L 153.9836 276.5590 L 154.4706 276.8089 L 154.9591 277.0559 L 155.4490 277.3000 L 155.9403 277.5411 L 156.4331 277.7794 L 156.9273 278.0148 L 157.4229 278.2473 L 157.9198 278.4768 L 158.4180 278.7034 L 158.9176 278.9271 L 159.4185 279.1478 L 159.9207 279.3656 L 160.4242 279.5804 L 160.9289 279.7922 L 161.4348 280.0011 L 161.9420 280.2070 L 162.4504 280.4099 L 162.9599 280.6098 L 163.4706 280.8067 L 163.9825 281.0006 L 164.4955 281.1915 L 165.0096 281.3794 L 165.5248 281.5643 L 166.0411 281.7462 L 166.5584 281.9250 L 167.0768 282.1008 L 167.5962 282.2735 L 168.1166 282.4432 L 168.6379 282.6099 L 169.1603 282.7735 L 169.6836 282.9340 L 170.2078 283.0915 L 170.7329 283.2459 L 171.2590 283.3973 L 171.7859 283.5455 L 172.3136 283.6907 L 172.8422 283.8328 L 173.3716 283.9718 L 173.9019 284.1078 L 174.4329 284.2406 L 174.9647 284.3703 L 175.4972 284.4969 L 176.0304 284.6205 L 176.5644 284.7409 L 177.0990 284.8582 L 177.6344 284.9723 L 178.1703 285.0834 L 178.7070 285.1914 L 179.2442 285.2962 L 179.7820 285.3979 L 180.3204 285.4964 L 180.8594 285.5919 L 181.3990 285.6842 L 181.9390 285.7734 L 182.4796 285.8594 L 183.0206 285.9423 L 183.5622 286.0220 L 184.1041 286.0987 L 184.6465 286.1721 L 185.1894 286.2424 L 185.7326 286.3096 L 186.2762 286.3737 L 186.8202 286.4345 L 187.3645 286.4923 L 187.9091 286.5468 L 188.4541 286.5983 L 188.9993 286.6465 L 189.5448 286.6917 L 190.0906 286.7336 L 190.6366 286.7724 L 191.1828 286.8081 L 191.7292 286.8406 L 192.2758 286.8699 L 192.8225 286.8961 L 193.3694 286.9192 L 193.9164 286.9391 L 194.4635 286.9558 L 195.0107 286.9694 L 195.5580 286.9798 L 196.1053 286.9871 L 196.6526 286.9912 L 197.2000 286.9922 L 197.7474 286.9900 L 198.2947 286.9847 L 198.8420 286.9762 L 199.3893 286.9646 L 199.9364 286.9498 L 200.4835 286.9319 L 201.0305 286.9108 L 201.5773 286.8866 L 202.1240 286.8593 L 202.6705 286.8288 L 203.2168 286.7952 L 203.7630 286.7585 L 204.3089 286.7186 L 204.8545 286.6756 L 205.4000 286.6295 L 205.9451 286.5803 L 206.4900 286.5279 L 207.0345 286.4724 L 207.5787 286.4138 L 208.1226 286.3521 L 208.6661 286.2873 L 209.2093 286.2194 L 209.7520 286.1483 L 210.2943 286.0742 L 210.8362 285.9970 L 211.3777 285.9167 L 211.9186 285.8332 L 212.4591 285.7468 L 212.9991 285.6572 L 213.5386 285.5645 L 214.0775 285.4688 L 214.6159 285.3700 L 215.1537 285.2681 L 215.6909 285.1632 L 216.2275 285.0552 L 216.7635 284.9442 L 217.2989 284.8301 L 217.8336 284.7130 L 218.3676 284.5928 L 218.9009 284.4696 L 219.4335 284.3434 L 219.9654 284.2141 L 220.4965 284.0818 L 221.0269 283.9466 L 221.5565 283.8083 L 222.0853 283.6670 L 222.6133 283.5227 L 223.1405 283.3754 L 223.6669 283.2251 L 224.1923 283.0718 L 224.7169 282.9156 L 225.2406 282.7564 L 225.7634 282.5942 L 226.2853 282.4291 L 226.8062 282.2610 L 227.3262 282.0900 L 227.8452 281.9160 L 228.3632 281.7391 L 228.8801 281.5593 L 229.3961 281.3766 L 229.9110 281.1909 L 230.4249 281.0024 L 230.9377 280.8109 L 231.4494 280.6166 L 231.9600 280.4194 L 232.4695 280.2193 L 232.9778 280.0163 L 233.4850 279.8105 L 233.9910 279.6018 L 234.4959 279.3902 L 234.9995 279.1758 L 235.5019 278.9586 L 236.0031 278.7386 L 236.5031 278.5157 L 237.0018 278.2901 L 237.4992 278.0616 L 237.9953 277.8303 L 238.4901 277.5963 L 238.9836 277.3595 L 239.4757 277.1199 L 239.9665 276.8775 L 240.4559 276.6324 L 240.9440 276.3846 L 241.4306 276.1340 L 241.9159 275.8807 L 242.3997 275.6247 L 242.8820 275.3660 L 243.3629 275.1045 L 243.8423 274.8404 L 244.3203 274.5736 L 244.7967 274.3042 L 245.2717 274.0320 L 245.7450 273.7572 L 246.2169 273.4798 L 246.6872 273.1997 L 247.1559 272.9171 L 247.6230 272.6317 L 248.0886 272.3438 L 248.5525 272.0533 L 249.0148 271.7602 L 249.4754 271.4646 L 249.9344 271.1663 L 250.3917 270.8655 L 250.8473 270.5622 L 251.3013 270.2563 L 251.7535 269.9479 L 252.2040 269.6370 L 252.6527 269.3236 L 253.0997 269.0077 L 253.5450 268.6893 L 253.9884 268.3684 L 254.4301 268.0451 L 254.8699 267.7193 L 255.3080 267.3910 L 255.7442 267.0604 L 256.1785 266.7273 L 256.6110 266.3918 L 257.0417 266.0539 L 257.4704 265.7137 L 257.8973 265.3710 L 258.3222 265.0260 L 258.7452 264.6786 L 259.1663 264.3289 L 259.5855 263.9769 L 260.0027 263.6226 L 260.4179 263.2659 L 260.8311 262.9069 L 261.2424 262.5457 L 261.6516 262.1822 L 262.0588 261.8164 L 262.4640 261.4484 L 262.8671 261.0782 L 263.2682 260.7057 L 263.6673 260.3310 L 264.0642 259.9541 L 264.4591 259.5750 L 264.8518 259.1938 L 265.2425 258.8104 L 265.6310 258.4248 L 266.0174 258.0371 L 266.4016 257.6473 L 266.7837 257.2553 L 267.1636 256.8613 L 267.5414 256.4651 L 267.9169 256.0669 L 268.2903 255.6666 L 268.6614 255.2643 L 269.0303 254.8600 L 269.3970 254.4536 L 269.7615 254.0452 L 270.1236 253.6348 L 270.4836 253.2224 L 270.8412 252.8080 L 271.1966 252.3917 L 271.5497 251.9734 L 271.9005 251.5532 L 272.2489 251.1311 L 272.5951 250.7071 L 272.9389 250.2812 L 273.2803 249.8534 L 273.6194 249.4237 L 273.9562 248.9922 L 274.2906 248.5588 L 274.6226 248.1236 L 274.9522 247.6866 L 275.2794 247.2478 L 275.6042 246.8072 L 275.9266 246.3649 L 276.2465 245.9208 L 276.5640 245.4749 L 276.8791 245.0273 L 277.1917 244.5780 L 277.5019 244.1270 L 277.8096 243.6743 L 278.1148 243.2199 L 278.4175 242.7639 L 278.7177 242.3062 L 279.0155 241.8469 L 279.3107 241.3860 L 279.6034 240.9234 L 279.8935 240.4593 L 280.1812 239.9936 L 280.4663 239.5263 L 280.7488 239.0575 L 281.0288 238.5872 L 281.3062 238.1153 L 281.5810 237.6419 L 281.8533 237.1671 L 282.1229 236.6907 L 282.3900 236.2130 L 282.6545 235.7337 L 282.9163 235.2530 L 283.1756 234.7710 L 283.4322 234.2875 L 283.6862 233.8026 L 283.9375 233.3163 L 284.1862 232.8287 L 284.4322 232.3398 L 284.6756 231.8495 L 284.9164 231.3579 L 285.1544 230.8650 L 285.3898 230.3709 L 285.6225 229.8754 L 285.8525 229.3787 L 286.0798 228.8808 L 286.3044 228.3816 L 286.5263 227.8812 L 286.7455 227.3797 L 286.9620 226.8769 L 287.1757 226.3730 L 287.3867 225.8680 L 287.5950 225.3618 L 287.8006 224.8545 L 288.0033 224.3461 L 288.2034 223.8366 L 288.4007 223.3260 L 288.5952 222.8143 L 288.7870 222.3017 L 288.9760 221.7880 L 289.1622 221.2732 L 289.3456 220.7575 L 289.5263 220.2408 L 289.7041 219.7232 L 289.8792 219.2046 L 290.0515 218.6850 L 290.2210 218.1645 L 290.3876 217.6432 L 290.5515 217.1209 L 290.7125 216.5977 L 290.8707 216.0737 L 291.0261 215.5489 L 291.1787 215.0232 L 291.3285 214.4967 L 291.4754 213.9695 L 291.6195 213.4414 L 291.7607 212.9126 L 291.8991 212.3830 L 292.0346 211.8527 L 292.1673 211.3216 L 292.2972 210.7899 L 292.4242 210.2574 L 292.5483 209.7243 L 292.6696 209.1906 L 292.7880 208.6562 L 292.9035 208.1211 L 293.0162 207.5855 L 293.1260 207.0493 L 293.2329 206.5124 L 293.3370 205.9750 L 293.4382 205.4371 L 293.5364 204.8986 L 293.6319 204.3597 L 293.7244 203.8202 L 293.8140 203.2802 L 293.9008 202.7397 L 293.9846 202.1988 L 294.0656 201.6575 L 294.1437 201.1157 L 294.2189 200.5735 L 294.2912 200.0310 L 294.3606 199.4880 L 294.4271 198.9447 L 294.4907 198.4010 L 294.5513 197.8570 L 294.6091 197.3127 L 294.6640 196.7681 L 294.7160 196.2232 L 294.7651 195.6781 L 294.8113 195.1327 L 294.8546 194.5870 L 294.8949 194.0411 L 294.9324 193.4950 L 294.9670 192.9488 L 294.9986 192.4023 L 295.0274 191.8557 L 295.0532 191.3090 L 295.0761 190.7621 L 295.0962 190.2151 L 295.1133 189.6680 L 295.1275 189.1208 L 295.1388 188.5735 L 295.1472 188.0262 L 295.1527 187.4789 L 295.1553 186.9315 L 295.1550 186.3842 L 295.1518 185.8368 L 295.1457 185.2895 L 295.1367 184.7422 L 295.1248 184.1949 L 295.1100 183.6478 L 295.0923 183.1007 L 295.0717 182.5537 L 295.0483 182.0068 L 295.0219 181.4601 L 294.9926 180.9135 L 294.9604 180.3671 L 294.9254 179.8209 L 294.8874 179.2748 L 294.8466 178.7290 L 294.8029 178.1834 L 294.7563 177.6380 L 294.7069 177.0928 L 294.6545 176.5480 L 294.5993 176.0034 L 294.5412 175.4591 L 294.4803 174.9152 L 294.4165 174.3715 L 294.3498 173.8282 L 294.2802 173.2853 L 294.2078 172.7428 L 294.1325 172.2006 L 294.0544 171.6588 L 293.9734 171.1175 L 293.8896 170.5766 L 293.8030 170.0361 L 293.7135 169.4961 L 293.6211 168.9566 L 293.5259 168.4176 L 293.4279 167.8790 L 293.3271 167.3410 L 293.2234 166.8036 L 293.1169 166.2667 L 293.0076 165.7303 L 292.8955 165.1946 L 292.7806 164.6594 L 292.6629 164.1248 L 292.5423 163.5909 L 292.4190 163.0576 L 292.2929 162.5250 L 292.1640 161.9930 L 292.0323 161.4617 L 291.8978 160.9311 L 291.7605 160.4013 L 291.6205 159.8721 L 291.4777 159.3437 L 291.3321 158.8160 L 291.1838 158.2891 L 291.0327 157.7630 L 290.8789 157.2377 L 290.7223 156.7132 L 290.5630 156.1896 L 290.4010 155.6667 L 290.2362 155.1447 L 290.0687 154.6236 L 289.8985 154.1034 L 289.7256 153.5841 L 289.5500 153.0656 L 289.3716 152.5481 L 289.1906 152.0316 L 289.0069 151.5160 L 288.8205 151.0013 L 288.6314 150.4876 L 288.4396 149.9750 L 288.2452 149.4633 L 288.0481 148.9526 L 287.8484 148.4430 L 287.6460 147.9344 L 287.4409 147.4269 L 287.2333 146.9205 L 287.0230 146.4151 L 286.8100 145.9109 L 286.5945 145.4077 L 286.3763 144.9057 L 286.1556 144.4049 L 285.9322 143.9051 L 285.7062 143.4066 L 285.4777 142.9092 L 285.2466 142.4130 L 285.0129 141.9181 L 284.7766 141.4243 L 284.5378 140.9318 L 284.2965 140.4405 L 284.0526 139.9505 L 283.8061 139.4617 L 283.5571 138.9743 L 283.3056 138.4881 L 283.0516 138.0032 L 282.7951 137.5197 L 282.5361 137.0375 L 282.2746 136.5566 L 282.0106 136.0771 L 281.7442 135.5990 L 281.4752 135.1222 L 281.2038 134.6469 L 280.9300 134.1730 L 280.6537 133.7004 L 280.3750 133.2293 L 280.0938 132.7597 L 279.8102 132.2915 L 279.5242 131.8248 L 279.2358 131.3596 L 278.9450 130.8958 L 278.6519 130.4336 L 278.3563 129.9729 L 278.0584 129.5137 L 277.7581 129.0561 L 277.4554 128.6000 L 277.1505 128.1455 L 276.8431 127.6925 L 276.5335 127.2412 L 276.2215 126.7914 L 275.9072 126.3433 L 275.5906 125.8967 L 275.2717 125.4518 L 274.9506 125.0086 L 274.6271 124.5670 L 274.3014 124.1271 L 273.9735 123.6889 L 273.6433 123.2523 L 273.3108 122.8175 L 272.9762 122.3843 L 272.6393 121.9529 L 272.3002 121.5232 L 271.9589 121.0953 L 271.6154 120.6691 L 271.2697 120.2447 L 270.9219 119.8221 L 270.5719 119.4012 L 270.2197 118.9822 L 269.8654 118.5650 L 269.5090 118.1495 L 269.1504 117.7360 L 268.7898 117.3242 L 268.4270 116.9143 L 268.0622 116.5063 L 267.6952 116.1001 L 267.3262 115.6958 L 266.9551 115.2935 L 266.5820 114.8930 L 266.2068 114.4944 L 265.8296 114.0978 L 265.4504 113.7030 L 265.0692 113.3103 L 264.6859 112.9194 L 264.3007 112.5306 L 263.9135 112.1437 L 263.5244 111.7588 L 263.1332 111.3758 L 262.7402 110.9949 L 262.3451 110.6160 L 261.9482 110.2391 L 261.5494 109.8642 L 261.1486 109.4914 L 260.7459 109.1206 L 260.3414 108.7519 L 259.9350 108.3852 L 259.5267 108.0206 L 259.1166 107.6581 L 258.7047 107.2977 L 258.2909 106.9394 L 257.8753 106.5831 L 257.4579 106.2290 L 257.0387 105.8771 L 256.6177 105.5272 L 256.1950 105.1795 L 255.7705 104.8340 L 255.3442 104.4906 L 254.9162 104.1494 L 254.4865 103.8103 L 254.0550 103.4735 L 253.6219 103.1388 L 253.1871 102.8064 L 252.7506 102.4761 L 252.3124 102.1481 L 251.8725 101.8222 L 251.4311 101.4987 L 250.9879 101.1773 L 250.5432 100.8582 L 250.0969 100.5414 L 249.6489 100.2268 L 249.1994 99.9145 L 248.7483 99.6045 L 248.2956 99.2967 L 247.8414 98.9913 L 247.3857 98.6881 L 246.9284 98.3873 L 246.4696 98.0887 L 246.0093 97.7925 L 245.5475 97.4986 L 245.0843 97.2071 L 244.6195 96.9179 L 244.1534 96.6310 L 243.6857 96.3465 L 243.2167 96.0644 L 242.7462 95.7846 L 242.2744 95.5072 L 241.8011 95.2322 L 241.3264 94.9596 L 240.8504 94.6893 L 240.3731 94.4215 L 239.8944 94.1561 L 239.4143 93.8931 L 238.9330 93.6325 L 238.4503 93.3743 L 237.9664 93.1186 L 237.4811 92.8653 L 236.9946 92.6144 L 236.5069 92.3660 L 236.0179 92.1200 L 235.5277 91.8766 L 235.0362 91.6355 L 234.5436 91.3970 L 234.0497 91.1609 L 233.5547 90.9273 L 233.0585 90.6962 L 232.5612 90.4676 L 232.0627 90.2414 L 231.5631 90.0178 L 231.0624 89.7967 L 230.5606 89.5781 L 230.0576 89.3620 L 229.5537 89.1485 L 229.0486 88.9374 L 228.5425 88.7289 L 228.0354 88.5230 L 227.5272 88.3195 L 227.0180 88.1187 L 226.5079 87.9203 L 225.9967 87.7245 L 225.4846 87.5313 L 224.9715 87.3407 L 224.4574 87.1526 L 223.9425 86.9671 L 223.4266 86.7841 L 222.9098 86.6038 L 222.3921 86.4260 L 221.8735 86.2508 L 221.3541 86.0782 L 220.8338 85.9082 L 220.3126 85.7408 L 219.7907 85.5760 L 219.2679 85.4138 L 218.7443 85.2542 L 218.2199 85.0972 L 217.6948 84.9428 L 217.1689 84.7911 L 216.6422 84.6419 L 216.1148 84.4954 L 215.5867 84.3515 L 215.0579 84.2103 L 214.5283 84.0717 L 213.9981 83.9357 L 213.4673 83.8024 L 212.9357 83.6717 L 212.4036 83.5436 L 211.8707 83.4182 L 211.3373 83.2954 L 210.8033 83.1753 L 210.2687 83.0579 L 209.7335 82.9431 L 209.1977 82.8309 L 208.6614 82.7214 L 208.1246 82.6146 L 207.5872 82.5105 L 207.0493 82.4090 L 206.5110 82.3102 L 205.9721 82.2140 L 205.4328 82.1205 L 204.8930 82.0297 L 204.3528 81.9416 L 203.8121 81.8562 L 203.2710 81.7734 L 202.7296 81.6933 L 202.1877 81.6159 L 201.6455 81.5411 L 201.1028 81.4691 L 200.5599 81.3997 L 200.0166 81.3331 L 199.4730 81.2691 L 198.9291 81.2078 L 198.3848 81.1491 L 197.8403 81.0932 L 197.2956 81.0400 L 196.7505 80.9894 L 196.2053 80.9416 L 195.6598 80.8964 L 195.1141 80.8540 L 194.5681 80.8142 L 194.0220 80.7771 L 193.4757 80.7427 L 192.9293 80.7110 L 192.3827 80.6820 L 191.8360 80.6557 L 191.2891 80.6321 L 190.7421 80.6112 L 190.1951 80.5929 L 189.6479 80.5774 L 189.1007 80.5646 L 188.5534 80.5544 L 188.0061 80.5469 L 187.4588 80.5422 L 186.9114 80.5401 L 186.3640 80.5407 L 185.8167 80.5440 L 185.2693 80.5500 L 184.7220 80.5587 L 184.1748 80.5701 L 183.6276 80.5842 L 183.0805 80.6009 L 182.5335 80.6204 L 181.9866 80.6425 L 181.4397 80.6673 L 180.8931 80.6948 L 180.3465 80.7249 L 179.8002 80.7578 L 179.2539 80.7933 L 178.7079 80.8315 L 178.1621 80.8724 L 177.6164 80.9159 L 177.0710 80.9621 L 176.5258 81.0110 L 175.9809 81.0626 L 175.4362 81.1168 L 174.8918 81.1737 L 174.3477 81.2332 L 173.8039 81.2955 L 173.2604 81.3603 L 172.7172 81.4279 L 172.1743 81.4980 L 171.6318 81.5709 L 171.0897 81.6464 L 170.5479 81.7245 L 170.0066 81.8052 L 169.4656 81.8887 L 168.9250 81.9747 L 168.3849 82.0634 L 167.8452 82.1547 L 167.3060 82.2487 L 166.7672 82.3453 L 166.2289 82.4445 L 165.6911 82.5463 L 165.1538 82.6508 L 164.6170 82.7578 L 164.0807 82.8675 L 163.5450 82.9798 L 163.0098 83.0947 L 162.4752 83.2122 L 161.9412 83.3323 L 161.4077 83.4550 L 160.8749 83.5803 L 160.3427 83.7082 L 159.8111 83.8387 L 159.2801 83.9717 L 158.7498 84.1074 L 158.2202 84.2456 L 157.6913 84.3864 L 157.1630 84.5297 L 156.6354 84.6756 L 156.1086 84.8241 L 155.5825 84.9751 L 155.0571 85.1287 L 154.5325 85.2848 L 154.0086 85.4435 L 153.4855 85.6047 L 152.9632 85.7684 L 152.4417 85.9347 L 151.9210 86.1035 L 151.4011 86.2748 L 150.8821 86.4486 L 150.3639 86.6250 L 149.8466 86.8038 L 149.3301 86.9852 L 148.8146 87.1690 L 148.2999 87.3554 L 147.7861 87.5442 L 147.2733 87.7355 L 146.7614 87.9293 L 146.2504 88.1256 L 145.7404 88.3243 L 145.2313 88.5255 L 144.7233 88.7291 L 144.2162 88.9352 L 143.7101 89.1438 L 143.2050 89.3548 L 142.7010 89.5682 L 142.1980 89.7841 L 141.6960 90.0023 L 141.1951 90.2230 L 140.6953 90.4461 L 140.1965 90.6717 L 139.6989 90.8996 L 139.2023 91.1299 L 138.7069 91.3626 L 138.2126 91.5977 L 137.7194 91.8352 L 137.2274 92.0750 L 136.7365 92.3172 L 136.2468 92.5618 L 135.7583 92.8087 L 135.2710 93.0579 L 134.7849 93.3096 L 134.3000 93.5635 L 133.8163 93.8198 L 133.3339 94.0784 L 132.8527 94.3393 L 132.3728 94.6025 L 131.8941 94.8680 L 131.4167 95.1358 L 130.9407 95.4059 L 130.4659 95.6783 L 129.9924 95.9530 L 129.5203 96.2299 L 129.0494 96.5091 L 128.5800 96.7905 L 128.1119 97.0742 L 127.6451 97.3602 L 127.1798 97.6483 L 126.7158 97.9387 L 126.2532 98.2314 L 125.7920 98.5262 L 125.3322 98.8232 L 124.8739 99.1225 L 124.4170 99.4239 L 123.9616 99.7275 L 123.5076 100.0333 L 123.0551 100.3412 L 122.6040 100.6513 L 122.1545 100.9636 L 121.7064 101.2780 L 121.2598 101.5946 L 120.8148 101.9132 L 120.3713 102.2340 L 119.9293 102.5570 L 119.4889 102.8820 L 119.0501 103.2091 L 118.6128 103.5383 L 118.1770 103.8696 L 117.7429 104.2030 L 117.3104 104.5384 L 116.8794 104.8759 L 116.4501 105.2155 L 116.0224 105.5571 L 115.5963 105.9007 L 115.1719 106.2464 L 114.7492 106.5940 L 114.3280 106.9437 L 113.9086 107.2954 L 113.4908 107.6491 L 113.0748 108.0048 L 112.6604 108.3624 L 112.2477 108.7220 L 111.8368 109.0836 L 111.4276 109.4471 L 111.0201 109.8125 L 110.6143 110.1799 L 110.2103 110.5493 L 109.8081 110.9205 L 109.4076 111.2936 L 109.0089 111.6687 L 108.6120 112.0456 L 108.2169 112.4244 L 107.8236 112.8051 L 107.4321 113.1876 L 107.0424 113.5720 L 106.6545 113.9582 L 106.2685 114.3463 L 105.8843 114.7362 L 105.5020 115.1279 L 105.1216 115.5215 L 104.7430 115.9168 L 104.3663 116.3139 L 103.9914 116.7128 L 103.6185 117.1135 L 103.2475 117.5159 L 102.8783 117.9201 L 102.5111 118.3260 L 102.1458 118.7336 L 101.7825 119.1430 L 101.4211 119.5541 L 101.0616 119.9669 L 100.7041 120.3814 L 100.3486 120.7976 L 99.9950 121.2154 L 99.6434 121.6349 L 99.2938 122.0561 L 98.9462 122.4789 L 98.6006 122.9034 L 98.2570 123.3295 L 97.9154 123.7572 L 97.5758 124.1865 L 97.2383 124.6174 L 96.9028 125.0499 L 96.5693 125.4839 L 96.2379 125.9196 L 95.9086 126.3568 L 95.5813 126.7955 L 95.2561 127.2358 L 94.9330 127.6776 L 94.6119 128.1209 L 94.2929 128.5658 L 93.9761 129.0121 L 93.6613 129.4599 L 93.3487 129.9092 L 93.0382 130.3600 L 92.7297 130.8122 L 92.4235 131.2658 L 92.1193 131.7209 L 91.8173 132.1775 L 91.5175 132.6354 L 91.2198 133.0947 L 90.9243 133.5555 L 90.6309 134.0176 L 90.3397 134.4811 L 90.0507 134.9459 L 89.7639 135.4121 L 89.4793 135.8797 L 89.1968 136.3485 L 88.9166 136.8187 L 88.6386 137.2902 L 88.3628 137.7630 L 88.0892 138.2371 L 87.8178 138.7125 L 87.5487 139.1891 L 87.2818 139.6670 L 87.0171 140.1461 L 86.7547 140.6265 L 86.4946 141.1081 L 86.2367 141.5909 L 85.9810 142.0749 L 85.7277 142.5601 L 85.4766 143.0465 L 85.2278 143.5340 L 84.9812 144.0227 L 84.7370 144.5126 L 84.4950 145.0036 L 84.2554 145.4957 L 84.0180 145.9889 L 83.7830 146.4833 L 83.5502 146.9787 L 83.3198 147.4752 L 83.0917 147.9728 L 82.8660 148.4714 L 82.6425 148.9711 L 82.4214 149.4718 L 82.2027 149.9736 L 81.9862 150.4763 L 81.7722 150.9801 L 81.5604 151.4848 L 81.3511 151.9906 L 81.1440 152.4973 L 80.9394 153.0050 L 80.7371 153.5136 L 80.5372 154.0232 L 80.3397 154.5336 L 80.1445 155.0450 L 79.9517 155.5573 L 79.7614 156.0705 L 79.5734 156.5846 L 79.3878 157.0995 L 79.2046 157.6153 L 79.0238 158.1320 L 78.8454 158.6494 L 78.6694 159.1678 L 78.4958 159.6869 L 78.3246 160.2068 L 78.1559 160.7275 L 77.9895 161.2490 L 77.8256 161.7712 L 77.6641 162.2942 L 77.5051 162.8180 L 77.3485 163.3425 L 77.1943 163.8677 L 77.0425 164.3936 L 76.8932 164.9202 L 76.7464 165.4475 L 76.6020 165.9755 L 76.4600 166.5041 L 76.3205 167.0334 L 76.1834 167.5633 L 76.0488 168.0939 L 75.9167 168.6250 L 75.7870 169.1568 L 75.6597 169.6892 L 75.5350 170.2222 L 75.4127 170.7557 L 75.2929 171.2898 L 75.1755 171.8244 L 75.0607 172.3596 L 74.9483 172.8953 L 74.8383 173.4315 L 74.7309 173.9682 L 74.6259 174.5055 L 74.5235 175.0431 L 74.4235 175.5813 L 74.3260 176.1199 L 74.2310 176.6590 L 74.1384 177.1985 L 74.0484 177.7384 L 73.9609 178.2787 L 73.8758 178.8194 L 73.7932 179.3605 L 73.7132 179.9020 L 73.6356 180.4439 L 73.5606 180.9860 L 73.4880 181.5286 L 73.4179 182.0714 L 73.3504 182.6146 L 73.2853 183.1581 L 73.2228 183.7019 L 73.1627 184.2460 L 73.1052 184.7903 L 73.0501 185.3349 L 72.9976 185.8797 L 72.9476 186.4248 L 72.9001 186.9701 L 72.8551 187.5156 L 72.8126 188.0613 L 72.7726 188.6072 L 72.7351 189.1533 L 72.7001 189.6996 L 72.6677 190.2460 L 72.6377 190.7925 L 72.6103 191.3392 L 72.5854 191.8860 L 72.5629 192.4329 L 72.5430 192.9799 L 72.5256 193.5270 L 72.5107 194.0742 L 72.4984 194.6214 L 72.4885 195.1687 L 72.4811 195.7160 L 72.4763 196.2633 L 72.4740 196.8107 L 72.4741 197.3581 L 72.4768 197.9054 L 72.4820 198.4528 L 72.4897 199.0001 L 72.4999 199.5474 L 72.5126 200.0946 L 72.5278 200.6417 L 72.5455 201.1888 L 72.5657 201.7358 L 72.5884 202.2827 L 72.6136 202.8295 L 72.6413 203.3762 L 72.6716 203.9227 L 72.7043 204.4691 L 72.7395 205.0153 L 72.7772 205.5614 L 72.8174 206.1073 L 72.8601 206.6530 L 72.9053 207.1985 L 72.9529 207.7438 L 73.0031 208.2888 L 73.0557 208.8337 L 73.1109 209.3782 L 73.1685 209.9226 L 73.2286 210.4666 L 73.2912 211.0104 L 73.3562 211.5539 L 73.4238 212.0971 L 73.4938 212.6400 L 73.5662 213.1825 L 73.6412 213.7247 L 73.7186 214.2666 L 73.7985 214.8081 L 73.8809 215.3492 L 73.9657 215.8900 L 74.0529 216.4303 L 74.1427 216.9703 L 74.2349 217.5099 L 74.3295 218.0490 L 74.4266 218.5877 L 74.5261 219.1259 L 74.6281 219.6637 L 74.7326 220.2010 L 74.8394 220.7378 L 74.9487 221.2742 L 75.0605 221.8100 L 75.1746 222.3453 L 75.2913 222.8801 L 75.4103 223.4144 L 75.5317 223.9481 L 75.6556 224.4813 L 75.7819 225.0139 L 75.9106 225.5459 L 76.0417 226.0774 L 76.1753 226.6082 L 76.3112 227.1384 L 76.4495 227.6680 L 76.5903 228.1970 L 76.7334 228.7253 L 76.8789 229.2530 L 77.0268 229.7800 L 77.1771 230.3063 L 77.3298 230.8319 L 77.4848 231.3569 L 77.6422 231.8811 L 77.8020 232.4047 L 77.9642 232.9275 L 78.1287 233.4495 L 78.2956 233.9708 L 78.4648 234.4914 L 78.6364 235.0111 L 78.8104 235.5301 L 78.9867 236.0483 L 79.1653 236.5657 L 79.3462 237.0823 L 79.5295 237.5981 L 79.7151 238.1130 L 79.9031 238.6271 L 80.0933 239.1404 L 80.2859 239.6527 L 80.4808 240.1642 L 80.6779 240.6749 L 80.8774 241.1846 L 81.0792 241.6934 L 81.2833 242.2013 L 81.4896 242.7083 L 81.6983 243.2143 L 81.9092 243.7194 L 82.1224 244.2236 L 82.3379 244.7268 L 82.5556 245.2290 L 82.7756 245.7302 L 82.9978 246.2304 L 83.2223 246.7296 L 83.4490 247.2278 L 83.6780 247.7250 L 83.9092 248.2211 L 84.1426 248.7162 L 84.3783 249.2103 L 84.6161 249.7032 L 84.8562 250.1952 L 85.0985 250.6860 L 85.3430 251.1757 L 85.5897 251.6643 L 85.8386 252.1518 L 86.0897 252.6382 L 86.3429 253.1235 L 86.5984 253.6076 L 86.8560 254.0906 L 87.1157 254.5724 L 87.3776 255.0530 L 87.6417 255.5325 L 87.9079 256.0107 L 88.1763 256.4878 L 88.4468 256.9636 L 88.7194 257.4383 L 88.9942 257.9117 L 89.2710 258.3839 L 89.5500 258.8548 L 89.8311 259.3245 L 90.1143 259.7929 L 90.3996 260.2601 L 90.6870 260.7259 L 90.9764 261.1905 L 91.2679 261.6538 L 91.5615 262.1157 L 91.8572 262.5764 L 92.1549 263.0357 L 92.4547 263.4937 L 92.7565 263.9503 L 93.0603 264.4056 L 93.3662 264.8595 L 93.6741 265.3121 L 93.9840 265.7633 L 94.2960 266.2131 L 94.6099 266.6615 L 94.9259 267.1084 L 95.2438 267.5540 L 95.5637 267.9982 L 95.8856 268.4409 L 96.2095 268.8821 L 96.5353 269.3220 L 96.8631 269.7603 L 97.1928 270.1972 L 97.5245 270.6327 L 97.8581 271.0666 L 98.1937 271.4991 L 98.5311 271.9300 L 98.8705 272.3595 L 99.2118 272.7874 L 99.5550 273.2138 L 99.9001 273.6387 L 100.2471 274.0620 L 100.5960 274.4838 L 100.9467 274.9041 L 101.2993 275.3227 L 101.6537 275.7398 L 102.0101 276.1553 L 102.3682 276.5693 L 102.7282 276.9816 L 103.0900 277.3923 L 103.4537 277.8015 L 103.8191 278.2090 L 104.1864 278.6148 L 104.5554 279.0191 L 104.9263 279.4217 L 105.2989 279.8226 L 105.6733 280.2219 L 106.0495 280.6195 L 106.4274 281.0155 L 106.8071 281.4097 L 107.1885 281.8023 L 107.5717 282.1932 L 107.9566 282.5824 L 108.3432 282.9699 L 108.7316 283.3556 L 109.1216 283.7396 L 109.5133 284.1219 L 109.9068 284.5025 L 110.3019 284.8813 L 110.6987 285.2584 L 111.0971 285.6337 L 111.4972 286.0072 L 111.8990 286.3790 L 112.3023 286.7490 L 112.7074 287.1172 L 113.1140 287.4836 L 113.5223 287.8482 L 113.9322 288.2110 L 114.3436 288.5719 L 114.7567 288.9311 L 115.1713 289.2884 L 115.5876 289.6439 L 116.0053 289.9975 L 116.4247 290.3493 L 116.8456 290.6993 L 117.2680 291.0474 L 117.6920 291.3936 L 118.1175 291.7379 L 118.5445 292.0804 L 118.9730 292.4210 L 119.4030 292.7596 L 119.8345 293.0964 L 120.2675 293.4313 L 120.7019 293.7642 L 121.1378 294.0953 L 121.5752 294.4244 L 122.0140 294.7516 L 122.4543 295.0769 L 122.8959 295.4002 L 123.3390 295.7215 L 123.7835 296.0410 L 124.2294 296.3584 L 124.6767 296.6739 L 125.1254 296.9874 L 125.5755 297.2989 L 126.0269 297.6085 L 126.4797 297.9161 L 126.9338 298.2217 L 127.3893 298.5252 L 127.8461 298.8268 L 128.3042 299.1264 L 128.7637 299.4239 L 129.2244 299.7194 L 129.6864 300.0129 L 130.1497 300.3044 L 130.6143 300.5938 L 131.0802 300.8812 L 131.5473 301.1666 L 132.0156 301.4498 L 132.4852 301.7311 L 132.9561 302.0102 L 133.4281 302.2874 L 133.9014 302.5624 L 134.3758 302.8353 L 134.8515 303.1062 L 135.3283 303.3750 L 135.8063 303.6417 L 136.2855 303.9063 L 136.7658 304.1688 L 137.2472 304.4292 L 137.7298 304.6874 L 138.2136 304.9436 L 138.6984 305.1976 L 139.1844 305.4496 L 139.6714 305.6994 L 140.1595 305.9470 L 140.6488 306.1925 L 141.1390 306.4359 L 141.6304 306.6772 L 142.1228 306.9162 L 142.6162 307.1532 L 143.1107 307.3879 L 143.6062 307.6205 L 144.1027 307.8510 L 144.6001 308.0793 L 145.0986 308.3054 L 145.5981 308.5293 L 146.0986 308.7510 L 146.6000 308.9706 L 147.1023 309.1879 L 147.6056 309.4031 L 148.1099 309.6161 L 148.6150 309.8268 L 149.1211 310.0354 L 149.6281 310.2418 L 150.1359 310.4459 L 150.6447 310.6478 L 151.1543 310.8476 L 151.6648 311.0450 L 152.1762 311.2403 L 152.6884 311.4334 L 153.2014 311.6242 L 153.7153 311.8127 L 154.2300 311.9991 L 154.7454 312.1831 L 155.2617 312.3650 L 155.7788 312.5446 L 156.2966 312.7219 L 156.8152 312.8970 L 157.3346 313.0699 L 157.8547 313.2405 L 158.3755 313.4088 L 158.8971 313.5748 L 159.4194 313.7386 L 159.9424 313.9001 L 160.4661 314.0594 L 160.9905 314.2163 L 161.5155 314.3710 L 162.0413 314.5234 L 162.5676 314.6736 L 163.0947 314.8214 L 163.6223 314.9669 L 164.1506 315.1102 L 164.6795 315.2512 L 165.2090 315.3899 L 165.7391 315.5262 L 166.2698 315.6603 L 166.8011 315.7921 L 167.3329 315.9216 L 167.8653 316.0487 L 168.3982 316.1736 L 168.9317 316.2961 L 169.4657 316.4164 L 170.0002 316.5343 L 170.5352 316.6499 L 171.0708 316.7632 L 171.6068 316.8742 L 172.1432 316.9829 L 172.6802 317.0892 L 173.2176 317.1932 L 173.7554 317.2949 L 174.2937 317.3943 L 174.8324 317.4913 L 175.3715 317.5860 L 175.9110 317.6784 L 176.4509 317.7685 L 176.9912 317.8562 L 177.5319 317.9416 L 178.0729 318.0246 L 178.6143 318.1053 L 179.1560 318.1837 L 179.6981 318.2597 L 180.2405 318.3334 L 180.7831 318.4048 L 181.3261 318.4738 L 181.8694 318.5405 L 182.4130 318.6048 L 182.9569 318.6668 L 183.5010 318.7264 L 184.0453 318.7837 L 184.5899 318.8386 L 185.1348 318.8913 L 185.6798 318.9415 L 186.2251 318.9894 L 186.7706 319.0350 L 187.3162 319.0782 L 187.8621 319.1190 L 188.4081 319.1576 L 188.9542 319.1937 L 189.5006 319.2275 L 190.0470 319.2590 L 190.5936 319.2881 L 191.1403 319.3149 L 191.6872 319.3393 L 192.2341 319.3613 L 192.7811 319.3810 L 193.3282 319.3984 L 193.8753 319.4134 L 194.4226 319.4261 L 194.9698 319.4364 L 195.5171 319.4443 L 196.0645 319.4500 L 196.6118 319.4532 L 197.1592 319.4541 L 197.7066 319.4527 L 198.2539 319.4489 L 198.8013 319.4428 L 199.3486 319.4343 L 199.8958 319.4235 L 200.4430 319.4103 L 200.9902 319.3948 L 201.5373 319.3769 L 202.0843 319.3567 L 202.6312 319.3342 L 203.1780 319.3093 L 203.7246 319.2821 L 204.2712 319.2525 L 204.8177 319.2206 L 205.3639 319.1863 L 205.9101 319.1497 L 206.4561 319.1108 L 207.0019 319.0696 L 207.5475 319.0260 L 208.0929 318.9800 L 208.6382 318.9318 L 209.1832 318.8812 L 209.7280 318.8283 L 210.2726 318.7730 L 210.8169 318.7155 L 211.3610 318.6556 L 211.9048 318.5933 L 212.4484 318.5288 L 212.9916 318.4619 L 213.5346 318.3928 L 214.0773 318.3213 L 214.6197 318.2475 L 215.1617 318.1713 L 215.7034 318.0929 L 216.2448 318.0121 L 216.7858 317.9291 L 217.3265 317.8437 L 217.8668 317.7561 L 218.4067 317.6661 L 218.9463 317.5738 L 219.4854 317.4793 L 220.0241 317.3824 L 220.5624 317.2832 L 221.1003 317.1818 L 221.6378 317.0781 L 222.1748 316.9720 L 222.7113 316.8637 L 223.2474 316.7531 L 223.7830 316.6403 L 224.3181 316.5251 L 224.8527 316.4077 L 225.3869 316.2880 L 225.9205 316.1660 L 226.4536 316.0418 L 226.9861 315.9153 L 227.5181 315.7865 L 228.0496 315.6555 L 228.5805 315.5222 L 229.1108 315.3867 L 229.6405 315.2489 L 230.1697 315.1089 L 230.6982 314.9666 L 231.2262 314.8221 L 231.7535 314.6753 L 232.2802 314.5263 L 232.8063 314.3751 L 233.3317 314.2216 L 233.8564 314.0660 L 234.3805 313.9081 L 234.9040 313.7479 L 235.4267 313.5856 L 235.9487 313.4210 L 236.4701 313.2542 L 236.9907 313.0853 L 237.5106 312.9141 L 238.0298 312.7407 L 238.5482 312.5651 L 239.0659 312.3873 L 239.5829 312.2074 L 240.0990 312.0252 L 240.6144 311.8409 L 241.1290 311.6544 L 241.6429 311.4657 L 242.1559 311.2748 L 242.6681 311.0818 L 243.1795 310.8866 L 243.6900 310.6892 L 244.1997 310.4897 L 244.7086 310.2881 L 245.2166 310.0843 L 245.7237 309.8783 L 246.2300 309.6702 L 246.7354 309.4600 L 247.2399 309.2476 L 247.7435 309.0331 L 248.2462 308.8165 L 248.7479 308.5978 L 249.2488 308.3769 L 249.7487 308.1539 L 250.2476 307.9289 L 250.7456 307.7017 L 251.2426 307.4724 L 251.7387 307.2411 L 252.2338 307.0076 L 252.7279 306.7721 L 253.2210 306.5345 L 253.7131 306.2948 L 254.2042 306.0530 L 254.6942 305.8092 L 255.1833 305.5633 L 255.6713 305.3153 L 256.1582 305.0653 L 256.6441 304.8133 L 257.1289 304.5592 L 257.6126 304.3030 L 258.0953 304.0449 L 258.5769 303.7847 L 259.0573 303.5225 L 259.5367 303.2583 L 260.0150 302.9920 L 260.4921 302.7238 L 260.9681 302.4535 L 261.4429 302.1812 L 261.9167 301.9070 L 262.3892 301.6308 L 262.8606 301.3525 L 263.3308 301.0723 L 263.7998 300.7902 L 264.2677 300.5061 L 264.7343 300.2200 L 265.1998 299.9319 L 265.6640 299.6419 L 266.1270 299.3500 L 266.5888 299.0561 L 267.0494 298.7603 L 267.5087 298.4625 L 267.9667 298.1628 L 268.4235 297.8613 L 268.8790 297.5578 L 269.3333 297.2523 L 269.7862 296.9450 L 270.2379 296.6358 L 270.6883 296.3247 L 271.1373 296.0118 L 271.5851 295.6969 L 272.0315 295.3802 L 272.4766 295.0616 L 272.9204 294.7412 L 273.3628 294.4189 L 273.8038 294.0947 L 274.2435 293.7687 L 274.6819 293.4409 L 275.1189 293.1112 L 275.5544 292.7797 L 275.9886 292.4464 L 276.4214 292.1113 L 276.8528 291.7744 L 277.2828 291.4357 L 277.7113 291.0952 L 278.1385 290.7529 L 278.5642 290.4088 L 278.9884 290.0630 L 279.4113 289.7153 L 279.8326 289.3660 L 280.2525 289.0148 L 280.6709 288.6619 L 281.0879 288.3073 L 281.5034 287.9509 L 281.9173 287.5928 L 282.3298 287.2330 L 282.7408 286.8715 L 283.1503 286.5083 L 283.5582 286.1433 L 283.9647 285.7767 L 284.3695 285.4083 L 284.7729 285.0383 L 285.1747 284.6666 L 285.5750 284.2932 L 285.9737 283.9182 L 286.3708 283.5415 L 286.7664 283.1632 L 287.1604 282.7832 L 287.5528 282.4016 L 287.9436 282.0184 L 288.3328 281.6335 L 288.7204 281.2470 L 289.1064 280.8589 L 289.4908 280.4692 L 289.8736 280.0780 L 290.2547 279.6851 L 290.6342 279.2906 L 291.0121 278.8946 L 291.3883 278.4970 L 291.7628 278.0979 L 292.1357 277.6972 L 292.5070 277.2949 L 292.8765 276.8911 L 293.2444 276.4858 L 293.6106 276.0790 L 293.9751 275.6706 L 294.3379 275.2608 L 294.6990 274.8494 L 295.0583 274.4365 L 295.4160 274.0222 L 295.7720 273.6064 L 296.1262 273.1891 L 296.4787 272.7703 L 296.8294 272.3501 L 297.1784 271.9284 L 297.5257 271.5053 L 297.8712 271.0808 L 298.2149 270.6548 L 298.5569 270.2274 L 298.8971 269.7986 L 299.2355 269.3684 L 299.5722 268.9368 L 299.9070 268.5038 L 300.2401 268.0694 L 300.5714 267.6336 L 300.9008 267.1965 L 301.2285 266.7581 L 301.5543 266.3182 L 301.8783 265.8771 L 302.2005 265.4345 L 302.5208 264.9907 L 302.8393 264.5456 L 303.1560 264.0991 L 303.4708 263.6513 L 303.7838 263.2023 L 304.0949 262.7519 L 304.4042 262.3003 L 304.7115 261.8474 L 305.0171 261.3932 L 305.3207 260.9378 L 305.6225 260.4811 L 305.9223 260.0232 L 306.2203 259.5640 L 306.5164 259.1036 L 306.8106 258.6420 L 307.1028 258.1792 L 307.3932 257.7152 L 307.6817 257.2500 L 307.9682 256.7837 L 308.2528 256.3161 L 308.5355 255.8474 L 308.8162 255.3775 L 309.0950 254.9064 L 309.3719 254.4343 L 309.6468 253.9609 L 309.9198 253.4865 L 310.1908 253.0109 L 310.4598 252.5343 L 310.7269 252.0565 L 310.9921 251.5776 L 311.2552 251.0976 L 311.5164 250.6166 L 311.7756 250.1345 L 312.0328 249.6513 L 312.2880 249.1671 L 312.5413 248.6818 L 312.7925 248.1955 L 313.0417 247.7082 L 313.2890 247.2199 L 313.5342 246.7305 L 313.7774 246.2401 L 314.0186 245.7488 L 314.2578 245.2564 L 314.4949 244.7631 L 314.7301 244.2688 L 314.9632 243.7736 L 315.1942 243.2773 L 315.4233 242.7802 L 315.6503 242.2821 L 315.8752 241.7831 L 316.0981 241.2832 L 316.3190 240.7823 L 316.5377 240.2806 L 316.7545 239.7780 L 316.9691 239.2745 L 317.1818 238.7701 L 317.3923 238.2648 L 317.6008 237.7587 L 317.8072 237.2517 L 318.0115 236.7439 L 318.2137 236.2353 L 318.4139 235.7258 L 318.6119 235.2156 L 318.8079 234.7045 L 319.0018 234.1926 L 319.1936 233.6799 L 319.3833 233.1665 L 319.5709 232.6523 L 319.7564 232.1373 L 319.9398 231.6216 L 320.1210 231.1051 L 320.3002 230.5879 L 320.4772 230.0699 L 320.6522 229.5513 L 320.8250 229.0319 L 320.9957 228.5118 L 321.1642 227.9910 L 321.3307 227.4696 L 321.4950 226.9475 L 321.6571 226.4247 L 321.8172 225.9012 L 321.9751 225.3771 L 322.1308 224.8524 L 322.2845 224.3270 L 322.4359 223.8010 L 322.5853 223.2744 L 322.7325 222.7472 L 322.8775 222.2194 L 323.0204 221.6910 L 323.1611 221.1621 L 323.2997 220.6325 L 323.4361 220.1024 L 323.5704 219.5718 L 323.7024 219.0406 L 323.8324 218.5089 L 323.9601 217.9766 L 324.0857 217.4439 L 324.2092 216.9106 L 324.3304 216.3768 L 324.4495 215.8426 L 324.5664 215.3078 L 324.6811 214.7726 L 324.7937 214.2369 L 324.9041 213.7008 L 325.0123 213.1642 L 325.1183 212.6272 L 325.2221 212.0898 L 325.3238 211.5520 L 325.4232 211.0137 L 325.5205 210.4751 L 325.6156 209.9360 L 325.7085 209.3966 L 325.7992 208.8568 L 325.8877 208.3166 L 325.9740 207.7761 L 326.0581 207.2352 L 326.1401 206.6940 L 326.2198 206.1525 L 326.2974 205.6107 L 326.3727 205.0685 L 326.4458 204.5260 L 326.5168 203.9833 L 326.5855 203.4403 L 326.6521 202.8970 L 326.7164 202.3534 L 326.7785 201.8096 L 326.8385 201.2655 L 326.8962 200.7212 L 326.9517 200.1766 L 327.0050 199.6319 L 327.0561 199.0869 L 327.1050 198.5417 L 327.1517 197.9963 L 327.1962 197.4508 L 327.2385 196.9050 L 327.2786 196.3591 L 327.3164 195.8131 L 327.3521 195.2669 L 327.3855 194.7205 L 327.4168 194.1741 L 327.4458 193.6275 L 327.4726 193.0807 L 327.4972 192.5339 L 327.5196 191.9870 L 327.5398 191.4400 L 327.5578 190.8930 L 327.5736 190.3458 L 327.5871 189.7986 L 327.5985 189.2514 L 327.6076 188.7041 L 327.6146 188.1568 L 327.6193 187.6094 L 327.6218 187.0620 L 327.6221 186.5147 L 327.6202 185.9673 L 327.6161 185.4200 L 327.6098 184.8726 L 327.6013 184.3253 L 327.5905 183.7781 L 327.5776 183.2308 L 327.5625 182.6837 L 327.5451 182.1366 L 327.5256 181.5896 L 327.5038 181.0426 L 327.4799 180.4958 L 327.4537 179.9491 L 327.4254 179.4024 L 327.3948 178.8559 L 327.3621 178.3095 L 327.3271 177.7633 L 327.2900 177.2172 L 327.2506 176.6712 L 327.2091 176.1254 L 327.1653 175.5798 L 327.1194 175.0344 L 327.0713 174.4891 L 327.0210 173.9441 L 326.9684 173.3992 L 326.9138 172.8546 L 326.8569 172.3102 L 326.7978 171.7660 L 326.7365 171.2221 L 326.6731 170.6784 L 326.6075 170.1350 L 326.5397 169.5919 L 326.4697 169.0490 L 326.3975 168.5064 L 326.3232 167.9641 L 326.2467 167.4221 L 326.1680 166.8804 L 326.0871 166.3391 L 326.0041 165.7980 L 325.9189 165.2573 L 325.8315 164.7170 L 325.7420 164.1770 L 325.6503 163.6373 L 325.5564 163.0981 L 325.4604 162.5592 L 325.3622 162.0207 L 325.2619 161.4826 L 325.1594 160.9449 L 325.0547 160.4077 L 324.9480 159.8708 L 324.8390 159.3344 L 324.7279 158.7984 L 324.6147 158.2629 L 324.4993 157.7278 L 324.3818 157.1932 L 324.2622 156.6591 L 324.1404 156.1254 L 324.0164 155.5923 L 323.8904 155.0596 L 323.7622 154.5275 L 323.6319 153.9959 L 323.4995 153.4648 L 323.3649 152.9342 L 323.2282 152.4041 L 323.0895 151.8747 L 322.9486 151.3457 L 322.8055 150.8174 L 322.6604 150.2896 L 322.5132 149.7624 L 322.3639 149.2358 L 322.2124 148.7098 L 322.0589 148.1844 L 321.9033 147.6596 L 321.7456 147.1355 L 321.5857 146.6120 L 321.4239 146.0891 L 321.2599 145.5669 L 321.0938 145.0453 L 320.9257 144.5244 L 320.7555 144.0042 L 320.5832 143.4846 L 320.4088 142.9658 L 320.2324 142.4476 L 320.0539 141.9301 L 319.8734 141.4134 L 319.6908 140.8974 L 319.5061 140.3821 L 319.3194 139.8676 L 319.1307 139.3538 L 318.9399 138.8407 L 318.7471 138.3285 L 318.5522 137.8170 L 318.3553 137.3062 L 318.1563 136.7963 L 317.9554 136.2872 L 317.7524 135.7788 L 317.5474 135.2713 L 317.3404 134.7646 L 317.1313 134.2587 L 316.9203 133.7536 L 316.7073 133.2494 L 316.4922 132.7461 L 316.2752 132.2436 L 316.0561 131.7420 L 315.8351 131.2412 L 315.6121 130.7413 L 315.3871 130.2423 L 315.1601 129.7442 L 314.9312 129.2471 L 314.7002 128.7508 L 314.4673 128.2554 L 314.2325 127.7610 L 313.9957 127.2675 L 313.7569 126.7750 L 313.5162 126.2834 L 313.2735 125.7928 L 313.0289 125.3031 L 312.7824 124.8144 L 312.5339 124.3267 L 312.2835 123.8399 L 312.0311 123.3542 L 311.7769 122.8695 L 311.5207 122.3858 L 311.2626 121.9031 L 311.0026 121.4214 L 310.7407 120.9408 L 310.4769 120.4612 L 310.2112 119.9826 L 309.9436 119.5051 L 309.6741 119.0287 L 309.4027 118.5533 L 309.1295 118.0790 L 308.8543 117.6058 L 308.5774 117.1337 L 308.2985 116.6627 L 308.0178 116.1928 L 307.7352 115.7240 L 307.4508 115.2563 L 307.1645 114.7898 L 306.8764 114.3244 L 306.5865 113.8601 L 306.2947 113.3970 L 306.0011 112.9350 L 305.7057 112.4742 L 305.4085 112.0146 L 305.1094 111.5561 L 304.8086 111.0988 L 304.5059 110.6428 L 304.2015 110.1879 L 303.8952 109.7342 L 303.5872 109.2817 L 303.2774 108.8305 L 302.9658 108.3805 L 302.6524 107.9317 L 302.3373 107.4841 L 302.0204 107.0378 L 301.7017 106.5928 L 301.3813 106.1490 L 301.0592 105.7064 L 300.7353 105.2652 L 300.4097 104.8252 L 300.0823 104.3865 L 299.7532 103.9491 L 299.4224 103.5130 L 299.0899 103.0782 L 298.7557 102.6447 L 298.4198 102.2126 L 298.0822 101.7817 L 297.7428 101.3522 L 297.4018 100.9240 L 297.0592 100.4972 L 296.7148 100.0717 L 296.3688 99.6476 L 296.0211 99.2249 L 295.6717 98.8035 L 295.3207 98.3835 L 294.9681 97.9649 L 294.6138 97.5476 L 294.2578 97.1318 L 293.9003 96.7173 L 293.5411 96.3043 L 293.1803 95.8927 L 292.8179 95.4825 L 292.4539 95.0737 L 292.0882 94.6664 L 291.7210 94.2605 L 291.3522 93.8560 L 290.9818 93.4530 L 290.6098 93.0514 L 290.2363 92.6513 L 289.8612 92.2527 L 289.4845 91.8556 L 289.1063 91.4599 L 288.7265 91.0657 L 288.3452 90.6730 L 287.9623 90.2818 L 287.5779 89.8921 L 287.1920 89.5039 L 286.8046 89.1173 L 286.4157 88.7321 L 286.0252 88.3485 L 285.6333 87.9664 L 285.2399 87.5858 L 284.8449 87.2068 L 284.4485 86.8294 L 284.0507 86.4534 L 283.6513 86.0791 L 283.2505 85.7063 L 282.8483 85.3351 L 282.4446 84.9655 L 282.0394 84.5974 L 281.6328 84.2309 L 281.2248 83.8660 L 280.8154 83.5028 L 280.4045 83.1411 L 279.9923 82.7810 L 279.5786 82.4226 L 279.1635 82.0657 L 278.7471 81.7105 L 278.3293 81.3569 L 277.9100 81.0050 L 277.4895 80.6546 L 277.0675 80.3060 L 276.6442 79.9590 L 276.2195 79.6136 L 275.7935 79.2699 L 275.3662 78.9278 L 274.9375 78.5875 L 274.5075 78.2488 L 274.0762 77.9118 L 273.6436 77.5764 L 273.2097 77.2428 L 272.7745 76.9108 L 272.3379 76.5806 L 271.9001 76.2520 L 271.4611 75.9252 L 271.0207 75.6001 L 270.5791 75.2766 L 270.1363 74.9550 L 269.6921 74.6350 L 269.2468 74.3168 L 268.8002 74.0003 L 268.3524 73.6855 L 267.9033 73.3725 L 267.4531 73.0612 L 267.0016 72.7517 L 266.5490 72.4440 L 266.0951 72.1380 L 265.6401 71.8338 L 265.1838 71.5314 L 264.7264 71.2307 L 264.2679 70.9318 L 263.8082 70.6347 L 263.3473 70.3394 L 262.8853 70.0459 L 262.4221 69.7541 L 261.9579 69.4642 L 261.4925 69.1761 L 261.0259 68.8898 L 260.5583 68.6053 L 260.0896 68.3226 L 259.6198 68.0417 L 259.1489 67.7627 L 258.6769 67.4855 L 258.2038 67.2101 L 257.7297 66.9366 L 257.2545 66.6649 L 256.7783 66.3951 L 256.3010 66.1271 L 255.8227 65.8609 L 255.3434 65.5967 L 254.8630 65.3342 L 254.3816 65.0737 L 253.8993 64.8150 L 253.4159 64.5581 L 252.9315 64.3032 L 252.4462 64.0501 L 251.9598 63.7989 L 251.4725 63.5496 L 250.9843 63.3022 L 250.4951 63.0567 L 250.0049 62.8130 L 249.5138 62.5713 L 249.0218 62.3315 L 248.5288 62.0936 L 248.0350 61.8575 L 247.5402 61.6234 L 247.0445 61.3912 L 246.5479 61.1610 L 246.0505 60.9326 L 245.5521 60.7062 L 245.0529 60.4817 L 244.5528 60.2591 L 244.0519 60.0385 L 243.5501 59.8198 L 243.0475 59.6031 L 242.5440 59.3883 L 242.0398 59.1754 L 241.5347 58.9645 L 241.0288 58.7555 L 240.5220 58.5485 L 240.0145 58.3434 L 239.5062 58.1403 L 238.9972 57.9392 L 238.4873 57.7401 L 237.9767 57.5429 L 237.4653 57.3476 L 236.9532 57.1544 L 236.4404 56.9631 L 235.9268 56.7738 L 235.4124 56.5865 L 234.8974 56.4012 L 234.3817 56.2178 L 233.8652 56.0365 L 233.3481 55.8571 L 232.8302 55.6797 L 232.3117 55.5043 L 231.7925 55.3310 L 231.2727 55.1596 L 230.7522 54.9902 L 230.2310 54.8228 L 229.7092 54.6575 L 229.1868 54.4941 L 228.6638 54.3328 L 228.1401 54.1734 L 227.6158 54.0161 L 227.0910 53.8608 L 226.5655 53.7075 L 226.0394 53.5563 L 225.5128 53.4071 L 224.9856 53.2599 L 224.4578 53.1147 L 223.9295 52.9715 L 223.4007 52.8304 L 222.8713 52.6913 L 222.3413 52.5543 L 221.8109 52.4193 L 221.2799 52.2863 L 220.7484 52.1553 L 220.2164 52.0264 L 219.6840 51.8996 L 219.1510 51.7748 L 218.6176 51.6520 L 218.0837 51.5313 L 217.5494 51.4126 L 217.0146 51.2960 L 216.4793 51.1815 L 215.9436 51.0690 L 215.4075 50.9585 L 214.8710 50.8501 L 214.3341 50.7438 L 213.7967 50.6395 L 213.2590 50.5373 L 212.7209 50.4371 L 212.1824 50.3390 L 211.6435 50.2430 L 211.1042 50.1490 L 210.5646 50.0571 L 210.0247 49.9673 L 209.4844 49.8795 L 208.9438 49.7938 L 208.4029 49.7102 L 207.8616 49.6286 L 207.3200 49.5491 L 206.7782 49.4717 L 206.2360 49.3964 L 205.6936 49.3231 L 205.1509 49.2519 L 204.6079 49.1828 L 204.0646 49.1157 L 203.5211 49.0508 L 202.9774 48.9879 L 202.4334 48.9271 L 201.8892 48.8684 L 201.3448 48.8117 L 200.8001 48.7571 L 200.2553 48.7047 L 199.7102 48.6543 L 199.1650 48.6059 L 198.6196 48.5597 L 198.0740 48.5155 L 197.5283 48.4734 L 196.9824 48.4334 L 196.4363 48.3955 L 195.8901 48.3597 L 195.3438 48.3260 L 194.7973 48.2943 L 194.2508 48.2647 L 193.7041 48.2373 L 193.1573 48.2118 L 192.6104 48.1885 L 192.0635 48.1673 L 191.5164 48.1481 L 190.9693 48.1311 L 190.4222 48.1161 L 189.8750 48.1032 L 189.3277 48.0924 L 188.7804 48.0836 L 188.2331 48.0770 L 187.6857 48.0724 L 187.1384 48.0700 L 186.5910 48.0696 L 186.0436 48.0713 L 185.4963 48.0750 L 184.9489 48.0809 L 184.4016 48.0888 L 183.8544 48.0989 L 183.3071 48.1110 L 182.7599 48.1251 L 182.2128 48.1414 L 181.6658 48.1597 L 181.1188 48.1802 L 180.5719 48.2027 L 180.0251 48.2272 L 179.4783 48.2539 L 178.9317 48.2826 L 178.3852 48.3134 L 177.8388 48.3463 L 177.2926 48.3813 L 176.7465 48.4183 L 176.2005 48.4574 L 175.6547 48.4986 L 175.1090 48.5419 L 174.5635 48.5872 L 174.0182 48.6346 L 173.4731 48.6840 L 172.9282 48.7356 L 172.3834 48.7892 L 171.8389 48.8448 L 171.2946 48.9025 L 170.7505 48.9623 L 170.2066 49.0242 L 169.6630 49.0881 L 169.1196 49.1541 L 168.5765 49.2221 L 168.0336 49.2922 L 167.4911 49.3643 L 166.9487 49.4385 L 166.4067 49.5148 L 165.8650 49.5931 L 165.3235 49.6734 L 164.7824 49.7558 L 164.2416 49.8403 L 163.7011 49.9268 L 163.1609 50.0153 L 162.6211 50.1059 L 162.0816 50.1985 L 161.5425 50.2932 L 161.0038 50.3899 L 160.4654 50.4886 L 159.9274 50.5894 L 159.3897 50.6922 L 158.8525 50.7971 L 158.3157 50.9039 L 157.7793 51.0128 L 157.2432 51.1238 L 156.7077 51.2367 L 156.1725 51.3517 L 155.6378 51.4687 L 155.1035 51.5877 L 154.5697 51.7087 L 154.0363 51.8318 L 153.5034 51.9568 L 152.9710 52.0839 L 152.4391 52.2130 L 151.9077 52.3440 L 151.3767 52.4771 L 150.8463 52.6122 L 150.3163 52.7493 L 149.7869 52.8884 L 149.2581 53.0295 L 148.7297 53.1725 L 148.2019 53.3176 L 147.6747 53.4647 L 147.1480 53.6137 L 146.6219 53.7647 L 146.0963 53.9177 L 145.5714 54.0727 L 145.0470 54.2297 L 144.5232 54.3886 L 144.0000 54.5495 L 143.4774 54.7124 L 142.9555 54.8772 L 142.4342 55.0440 L 141.9135 55.2128 L 141.3934 55.3835 L 140.8740 55.5562 L 140.3552 55.7308 L 139.8371 55.9074 L 139.3197 56.0859 L 138.8029 56.2664 L 138.2868 56.4488 L 137.7715 56.6332 L 137.2568 56.8195 L 136.7428 57.0077 L 136.2295 57.1979 L 135.7169 57.3899 L 135.2051 57.5840 L 134.6940 57.7799 L 134.1837 57.9777 L 133.6740 58.1775 L 133.1652 58.3792 L 132.6571 58.5828 L 132.1498 58.7882 L 131.6432 58.9956 L 131.1374 59.2049 L 130.6324 59.4161 L 130.1283 59.6292 L 129.6249 59.8442 L 129.1223 60.0611 L 128.6205 60.2798 L 128.1196 60.5004 L 127.6195 60.7229 L 127.1202 60.9473 L 126.6218 61.1736 L 126.1242 61.4017 L 125.6275 61.6316 L 125.1317 61.8635 L 124.6367 62.0972 L 124.1426 62.3327 L 123.6494 62.5701 L 123.1571 62.8094 L 122.6657 63.0504 L 122.1752 63.2934 L 121.6856 63.5381 L 121.1969 63.7847 L 120.7091 64.0331 L 120.2223 64.2834 L 119.7364 64.5354 L 119.2515 64.7893 L 118.7675 65.0450 L 118.2845 65.3025 L 117.8025 65.5618 L 117.3214 65.8229 L 116.8413 66.0858 L 116.3622 66.3505 L 115.8840 66.6169 L 115.4069 66.8852 L 114.9308 67.1553 L 114.4557 67.4271 L 113.9816 67.7007 L 113.5086 67.9760 L 113.0365 68.2532 L 112.5655 68.5321 L 112.0956 68.8127 L 111.6267 69.0951 L 111.1589 69.3793 L 110.6921 69.6652 L 110.2264 69.9528 L 109.7618 70.2422 L 109.2982 70.5333 L 108.8358 70.8261 L 108.3744 71.1206 L 107.9142 71.4169 L 107.4550 71.7149 L 106.9970 72.0146 L 106.5401 72.3160 L 106.0843 72.6191 L 105.6296 72.9239 L 105.1761 73.2304 L 104.7237 73.5386 L 104.2725 73.8484 L 103.8225 74.1600 L 103.3736 74.4732 L 102.9258 74.7881 L 102.4793 75.1046 L 102.0339 75.4228 L 101.5897 75.7427 L 101.1468 76.0642 L 100.7050 76.3874 L 100.2644 76.7122 L 99.8250 77.0386 L 99.3869 77.3667 L 98.9499 77.6964 L 98.5142 78.0277 L 98.0798 78.3607 L 97.6465 78.6952 L 97.2146 79.0314 L 96.7838 79.3692 L 96.3544 79.7085 L 95.9262 80.0495 L 95.4992 80.3920 L 95.0736 80.7362 L 94.6492 81.0819 L 94.2261 81.4292 L 93.8043 81.7780 L 93.3838 82.1284 L 92.9646 82.4804 L 92.5468 82.8340 L 92.1302 83.1890 L 91.7149 83.5457 L 91.3010 83.9038 L 90.8884 84.2635 L 90.4772 84.6248 L 90.0673 84.9875 L 89.6587 85.3518 L 89.2515 85.7176 L 88.8457 86.0848 L 88.4412 86.4536 L 88.0381 86.8239 L 87.6363 87.1957 L 87.2360 87.5690 L 86.8370 87.9437 L 86.4394 88.3199 L 86.0433 88.6976 L 85.6485 89.0768 L 85.2551 89.4574 L 84.8631 89.8395 L 84.4726 90.2230 L 84.0835 90.6079 L 83.6958 90.9944 L 83.3095 91.3822 L 82.9247 91.7714 L 82.5413 92.1621 L 82.1594 92.5542 L 81.7789 92.9477 L 81.3999 93.3427 L 81.0223 93.7390 L 80.6463 94.1367 L 80.2716 94.5358 L 79.8985 94.9362 L 79.5269 95.3381 L 79.1567 95.7413 L 78.7880 96.1459 L 78.4209 96.5519 L 78.0552 96.9592 L 77.6910 97.3678 L 77.3284 97.7778 L 76.9672 98.1891 L 76.6076 98.6018 L 76.2495 99.0158 L 75.8930 99.4311 L 75.5380 99.8477 L 75.1845 100.2656 L 74.8325 100.6849 L 74.4821 101.1054 L 74.1333 101.5272 L 73.7860 101.9503 L 73.4403 102.3747 L 73.0962 102.8003 L 72.7536 103.2272 L 72.4126 103.6554 L 72.0732 104.0848 L 71.7354 104.5155 L 71.3991 104.9474 L 71.0645 105.3806 L 70.7315 105.8150 L 70.4000 106.2506 L 70.0702 106.6874 L 69.7419 107.1255 L 69.4153 107.5647 L 69.0904 108.0052 L 68.7670 108.4468 L 68.4452 108.8896 L 68.1251 109.3336 L 67.8067 109.7788 L 67.4898 110.2252 L 67.1747 110.6727 L 66.8611 111.1214 L 66.5492 111.5712 L 66.2390 112.0222 L 65.9305 112.4743 L 65.6236 112.9275 L 65.3183 113.3819 L 65.0148 113.8373 L 64.7129 114.2939 L 64.4127 114.7516 L 64.1142 115.2104 L 63.8173 115.6703 L 63.5222 116.1313 L 63.2288 116.5934 L 62.9370 117.0565 L 62.6470 117.5207 L 62.3586 117.9860 L 62.0720 118.4523 L 61.7871 118.9197 L 61.5039 119.3881 L 61.2224 119.8576 L 60.9427 120.3280 L 60.6647 120.7995 L 60.3884 121.2721 L 60.1138 121.7456 L 59.8410 122.2201 L 59.5700 122.6957 L 59.3006 123.1722 L 59.0331 123.6497 L 58.7672 124.1282 L 58.5032 124.6077 L 58.2409 125.0881 L 57.9803 125.5695 L 57.7215 126.0518 L 57.4645 126.5351 L 57.2093 127.0193 L 56.9558 127.5044 L 56.7041 127.9905 L 56.4542 128.4775 L 56.2061 128.9654 L 55.9598 129.4542 L 55.7153 129.9439 L 55.4725 130.4345 L 55.2316 130.9260 L 54.9924 131.4184 L 54.7551 131.9116 L 54.5195 132.4057 L 54.2858 132.9006 L 54.0539 133.3965 L 53.8238 133.8931 L 53.5955 134.3906 L 53.3690 134.8889 L 53.1444 135.3881 L 52.9216 135.8880 L 52.7006 136.3888 L 52.4814 136.8904 L 52.2641 137.3928 L 52.0486 137.8959 L 51.8350 138.3999 L 51.6232 138.9046 L 51.4132 139.4101 L 51.2051 139.9164 L 50.9988 140.4234 L 50.7944 140.9312 L 50.5919 141.4397 L 50.3912 141.9489 L 50.1923 142.4589 L 49.9954 142.9696 L 49.8003 143.4810 L 49.6070 143.9931 L 49.4156 144.5059 L 49.2261 145.0195 L 49.0385 145.5337 L 48.8527 146.0485 L 48.6689 146.5641 L 48.4869 147.0803 L 48.3068 147.5972 L 48.1285 148.1148 L 47.9522 148.6329 L 47.7777 149.1518 L 47.6052 149.6712 L 47.4345 150.1913 L 47.2657 150.7120 L 47.0989 151.2333 L 46.9339 151.7552 L 46.7708 152.2777 L 46.6096 152.8008 L 46.4504 153.3245 L 46.2930 153.8488 L 46.1376 154.3736 L 45.9840 154.8990 L 45.8324 155.4249 L 45.6827 155.9514 L 45.5349 156.4785 L 45.3890 157.0060 L 45.2450 157.5341 L 45.1030 158.0628 L 44.9629 158.5919 L 44.8247 159.1215 L 44.6884 159.6517 L 44.5540 160.1823 L 44.4216 160.7134 L 44.2912 161.2450 L 44.1626 161.7770 L 44.0360 162.3096 L 43.9113 162.8425 L 43.7885 163.3760 L 43.6677 163.9098 L 43.5489 164.4441 L 43.4319 164.9789 L 43.3169 165.5140 L 43.2039 166.0496 L 43.0928 166.5856 L 42.9836 167.1219 L 42.8764 167.6587 L 42.7711 168.1958 L 42.6678 168.7334 L 42.5665 169.2713 L 42.4670 169.8095 L 42.3696 170.3482 L 42.2741 170.8871 L 42.1805 171.4264 L 42.0889 171.9661 L 41.9993 172.5061 L 41.9116 173.0464 L 41.8258 173.5870 L 41.7421 174.1279 L 41.6603 174.6691 L 41.5804 175.2106 L 41.5025 175.7524 L 41.4266 176.2945 L 41.3526 176.8368 L 41.2806 177.3795 L 41.2106 177.9223 L 41.1425 178.4654 L 41.0764 179.0088 L 41.0122 179.5524 L 40.9500 180.0962 L 40.8898 180.6403 L 40.8316 181.1845 L 40.7753 181.7290 L 40.7210 182.2737 L 40.6687 182.8185 L 40.6183 183.3636 L 40.5699 183.9088 L 40.5235 184.4542 L 40.4790 184.9997 L 40.4365 185.5455 L 40.3960 186.0913 L 40.3575 186.6373 L 40.3209 187.1835 L 40.2863 187.7298 L 40.2537 188.2761 L 40.2230 188.8227 L 40.1944 189.3693 L 40.1677 189.9160 L 40.1429 190.4628 L 40.1202 191.0097 L 40.0994 191.5567 L 40.0806 192.1037 L 40.0637 192.6508 L 40.0488 193.1980 L 40.0359 193.7452 L 40.0250 194.2925 L 40.0161 194.8397 L 40.0091 195.3871 L 40.0041 195.9344 L 40.0011 196.4818 L 40.0000 197.0291 L 40.0009 197.5765 L 40.0038 198.1239 L 40.0087 198.6712 L 40.0155 199.2185 L 40.0243 199.7658 L 40.0351 200.3131 L 40.0478 200.8603 L 40.0625 201.4075 L 40.0792 201.9546 L 40.0978 202.5017 L 40.1184 203.0486 L 40.1410 203.5955 L 40.1656 204.1424 L 40.1921 204.6891 L 40.2206 205.2357 L 40.2510 205.7822 L 40.2834 206.3286 L 40.3178 206.8749 L 40.3542 207.4211 L 40.3925 207.9671 L 40.4327 208.5130 L 40.4750 209.0587 L 40.5191 209.6043 L 40.5653 210.1497 L 40.6134 210.6950 L 40.6635 211.2400 L 40.7155 211.7849 L 40.7695 212.3296 L 40.8254 212.8741 L 40.8833 213.4184 L 40.9431 213.9625 L 41.0049 214.5064 L 41.0687 215.0500 L 41.1344 215.5934 L 41.2020 216.1366 L 41.2716 216.6795 L 41.3431 217.2222 L 41.4166 217.7646 L 41.4921 218.3068 L 41.5694 218.8486 L 41.6488 219.3902 L 41.7300 219.9315 L 41.8132 220.4725 L 41.8983 221.0133 L 41.9854 221.5536 L 42.0744 222.0937 L 42.1654 222.6335 L 42.2582 223.1729 L 42.3531 223.7120 L 42.4498 224.2508 L 42.5485 224.7892 L 42.6490 225.3272 L 42.7516 225.8649 L 42.8560 226.4022 L 42.9624 226.9391 L 43.0707 227.4757 L 43.1809 228.0118 L 43.2930 228.5476 L 43.4070 229.0830 L 43.5230 229.6179 L 43.6408 230.1524 L 43.7606 230.6865 L 43.8823 231.2202 L 44.0059 231.7534 L 44.1314 232.2862 L 44.2588 232.8186 L 44.3881 233.3504 L 44.5193 233.8818 L 44.6524 234.4128 L 44.7874 234.9432 L 44.9243 235.4732 L 45.0631 236.0027 L 45.2038 236.5317 L 45.3463 237.0602 L 45.4908 237.5881 L 45.6371 238.1156 L 45.7853 238.6425 L 45.9354 239.1689 L 46.0874 239.6947 L 46.2412 240.2200 L 46.3969 240.7448 L 46.5545 241.2690 L 46.7140 241.7926 L 46.8753 242.3156 L 47.0385 242.8381 L 47.2036 243.3600 L 47.3705 243.8813 L 47.5392 244.4020 L 47.7099 244.9221 L 47.8823 245.4416 L 48.0567 245.9605 L 48.2328 246.4787 L 48.4109 246.9963 L 48.5907 247.5133 L 48.7724 248.0296 L 48.9560 248.5453 L 49.1413 249.0603 L 49.3285 249.5747 L 49.5176 250.0884 L 49.7085 250.6014 L 49.9011 251.1137 L 50.0957 251.6253 L 50.2920 252.1363 L 50.4901 252.6465 L 50.6901 253.1561 L 50.8919 253.6649 L 51.0955 254.1730 L 51.3009 254.6804 L 51.5080 255.1870 L 51.7170 255.6929 L 51.9278 256.1980 L 52.1404 256.7024 L 52.3548 257.2061 L 52.5709 257.7090 L 52.7889 258.2111 L 53.0086 258.7124 L 53.2301 259.2129 L 53.4534 259.7127 L 53.6785 260.2116 L 53.9053 260.7098 L 54.1339 261.2072 L 54.3643 261.7037 L 54.5964 262.1994 L 54.8303 262.6943 L 55.0659 263.1883 L 55.3033 263.6815 L 55.5425 264.1739 L 55.7833 264.6654 L 56.0260 265.1561 L 56.2703 265.6459 L 56.5164 266.1348 L 56.7643 266.6228 L 57.0138 267.1100 L 57.2651 267.5963 L 57.5181 268.0817 L 57.7729 268.5661 L 58.0293 269.0497 L 58.2875 269.5324 L 58.5473 270.0141 L 58.8089 270.4950 L 59.0722 270.9749 L 59.3371 271.4538 L 59.6038 271.9318 L 59.8722 272.4089 L 60.1422 272.8850 L 60.4139 273.3602 L 60.6873 273.8344 L 60.9624 274.3076 L 61.2392 274.7799 L 61.5176 275.2511 L 61.7977 275.7214 L 62.0795 276.1907 L 62.3629 276.6590 L 62.6479 277.1262 L 62.9346 277.5925 L 63.2230 278.0578 L 63.5130 278.5220 L 63.8047 278.9852 L 64.0980 279.4473 L 64.3929 279.9085 L 64.6894 280.3685 L 64.9876 280.8276 L 65.2874 281.2855 L 65.5888 281.7425 L 65.8918 282.1983 L 66.1964 282.6531 L 66.5026 283.1068 L 66.8105 283.5594 L 67.1199 284.0109 L 67.4309 284.4613 L 67.7435 284.9106 L 68.0577 285.3588 L 68.3735 285.8060 L 68.6908 286.2519 L 69.0097 286.6968 L 69.3302 287.1405 L 69.6522 287.5831 L 69.9759 288.0246 L 70.3010 288.4649 L 70.6277 288.9041 L 70.9560 289.3421 L 71.2858 289.7790 L 71.6171 290.2147 L 71.9500 290.6492 L 72.2844 291.0825 L 72.6203 291.5147 L 72.9577 291.9457 L 73.2967 292.3755 L 73.6372 292.8041 L 73.9792 293.2314 L 74.3227 293.6576 L 74.6676 294.0826 L 75.0141 294.5063 L 75.3621 294.9289 L 75.7115 295.3502 L 76.0625 295.7702 L 76.4149 296.1891 L 76.7687 296.6067 L 77.1241 297.0230 L 77.4809 297.4381 L 77.8392 297.8519 L 78.1989 298.2645 L 78.5601 298.6758 L 78.9227 299.0858 L 79.2867 299.4946 L 79.6522 299.9020 L 80.0191 300.3082 L 80.3875 300.7131 L 80.7572 301.1167 L 81.1284 301.5190 L 81.5010 301.9200 L 81.8750 302.3197 L 82.2504 302.7180 L 82.6272 303.1151 L 83.0054 303.5108 L 83.3849 303.9051 L 83.7659 304.2982 L 84.1482 304.6899 L 84.5319 305.0802 L 84.9170 305.4693 L 85.3034 305.8569 L 85.6912 306.2432 L 86.0804 306.6282 L 86.4709 307.0117 L 86.8627 307.3939 L 87.2559 307.7747 L 87.6504 308.1542 L 88.0463 308.5322 L 88.4434 308.9089 L 88.8419 309.2842 L 89.2417 309.6580 L 89.6428 310.0305 L 90.0452 310.4015 L 90.4489 310.7712 L 90.8539 311.1394 L 91.2602 311.5062 L 91.6677 311.8716 L 92.0766 312.2356 L 92.4867 312.5981 L 92.8981 312.9592 L 93.3107 313.3188 L 93.7246 313.6770 L 94.1397 314.0337 L 94.5561 314.3890 L 94.9738 314.7428 L 95.3926 315.0952 L 95.8127 315.4461 L 96.2341 315.7955 L 96.6566 316.1435 L 97.0804 316.4899 L 97.5053 316.8349 L 97.9315 317.1784 L 98.3589 317.5204 L 98.7875 317.8609 L 99.2172 318.1999 L 99.6481 318.5374 L 100.0803 318.8734 L 100.5135 319.2079 L 100.9480 319.5408 L 101.3836 319.8723 L 101.8204 320.2022 L 102.2583 320.5306 L 102.6973 320.8575 L 103.1375 321.1828 L 103.5789 321.5066 L 104.0213 321.8288 L 104.4649 322.1495 L 104.9096 322.4687 L 105.3554 322.7863 L 105.8023 323.1023 L 106.2503 323.4168 L 106.6994 323.7297 L 107.1496 324.0410 L 107.6009 324.3508 L 108.0533 324.6590 L 108.5067 324.9656 L 108.9612 325.2707 L 109.4168 325.5741 L 109.8734 325.8760 L 110.3310 326.1762 L 110.7897 326.4749 L 111.2495 326.7720 L 111.7102 327.0674 L 112.1720 327.3613 L 112.6349 327.6535 L 113.0987 327.9441 L 113.5636 328.2332 L 114.0294 328.5206 L 114.4963 328.8063 L 114.9641 329.0905 L 115.4329 329.3730 L 115.9027 329.6539 L 116.3735 329.9331 L 116.8453 330.2107 L 117.3180 330.4867 L 117.7916 330.7610 L 118.2663 331.0336 L 118.7418 331.3046 L 119.2183 331.5740 L 119.6958 331.8417 L 120.1742 332.1077 L 120.6534 332.3721 L 121.1337 332.6348 L 121.6148 332.8958 L 122.0968 333.1552 L 122.5797 333.4129 L 123.0635 333.6689 L 123.5482 333.9232 L 124.0338 334.1758 L 124.5203 334.4268 L 125.0076 334.6760 L 125.4958 334.9236 L 125.9848 335.1694 L 126.4747 335.4136 L 126.9654 335.6561 L 127.4570 335.8968 L 127.9494 336.1359 L 128.4427 336.3732 L 128.9367 336.6088 L 129.4316 336.8427 L 129.9273 337.0749 L 130.4238 337.3054 L 130.9210 337.5342 L 131.4191 337.7612 L 131.9180 337.9865 L 132.4176 338.2100 L 132.9180 338.4319 L 133.4192 338.6520 L 133.9211 338.8703 L 134.4238 339.0869 L 134.9272 339.3018 L 135.4314 339.5149 L 135.9363 339.7263 L 136.4419 339.9359 L 136.9483 340.1438 L 137.4554 340.3499 L 137.9631 340.5543 L 138.4716 340.7569 L 138.9808 340.9577 L 139.4907 341.1568 L 140.0013 341.3541 L 140.5125 341.5496 L 141.0244 341.7434 L 141.5370 341.9354 L 142.0503 342.1256 L 142.5642 342.3141 L 143.0787 342.5008 L 143.5939 342.6856 L 144.1098 342.8687 L 144.6262 343.0501 L 145.1433 343.2296 L 145.6610 343.4073 L 146.1793 343.5833 L 146.6983 343.7575 L 147.2178 343.9298 L 147.7379 344.1004 L 148.2586 344.2692 L 148.7799 344.4361 L 149.3017 344.6013 L 149.8241 344.7647 L 150.3471 344.9262 L 150.8707 345.0860 L 151.3947 345.2440 L 151.9194 345.4001 L 152.4445 345.5544 L 152.9702 345.7069 L 153.4964 345.8576 L 154.0232 346.0065 L 154.5504 346.1536 L 155.0782 346.2988 L 155.6064 346.4422 L 156.1351 346.5838 L 156.6644 346.7236 L 157.1941 346.8615 L 157.7242 346.9977 L 158.2549 347.1320 L 158.7860 347.2644 L 159.3175 347.3950 L 159.8495 347.5238 L 160.3820 347.6508 L 160.9148 347.7759 L 161.4481 347.8992 L 161.9819 348.0207 L 162.5160 348.1403 L 163.0506 348.2580 L 163.5855 348.3740 L 164.1208 348.4881 L 164.6566 348.6003 L 165.1927 348.7107 L 165.7292 348.8193 L 166.2661 348.9260 L 166.8033 349.0308 L 167.3409 349.1338 L 167.8788 349.2350 L 168.4171 349.3343 L 168.9557 349.4318 L 169.4947 349.5274 L 170.0340 349.6211 L 170.5736 349.7130 L 171.1135 349.8030 L 171.6537 349.8912 L 172.1942 349.9775 L 172.7350 350.0620 L 173.2761 350.1446 L 173.8175 350.2253 L 174.3592 350.3042 L 174.9011 350.3812 L 175.4433 350.4564 L 175.9857 350.5297 L 176.5284 350.6011 L 177.0713 350.6707 L 177.6145 350.7384 L 178.1579 350.8042 L 178.7015 350.8682 L 179.2453 350.9303 L 179.7894 350.9906 L 180.3336 351.0489 L 180.8781 351.1054 L 181.4227 351.1601 L 181.9675 351.2128 L 182.5125 351.2637 L 183.0577 351.3127 L 183.6030 351.3599 L 184.1485 351.4052 L 184.6941 351.4486 L 185.2399 351.4901 L 185.7859 351.5298 L 186.3319 351.5676 L 186.8781 351.6036 L 187.4244 351.6376 L 187.9708 351.6698 L 188.5174 351.7001 L 189.0640 351.7286 L 189.6107 351.7551 L 190.1575 351.7798 L 190.7044 351.8026 L 191.2514 351.8236 L 191.7984 351.8427 L 192.3455 351.8599 L 192.8927 351.8752 L 193.4399 351.8887 L 193.9871 351.9002 L 194.5344 351.9100 L 195.0817 351.9178 L 195.6290 351.9238 L 196.1764 351.9279 L 196.7238 351.9301 L 197.2711 351.9304 L 197.8185 351.9289 L 198.3658 351.9255 L 198.9132 351.9202 L 199.4605 351.9131 L 200.0078 351.9041 L 200.5551 351.8932 L 201.1023 351.8805 L 201.6495 351.8659 L 202.1966 351.8494 L 202.7436 351.8310 L 203.2906 351.8108 L 203.8375 351.7887 L 204.3844 351.7647 L 204.9311 351.7389 L 205.4778 351.7112 L 206.0244 351.6817 L 206.5708 351.6502 L 207.1172 351.6169 L 207.6634 351.5818 L 208.2096 351.5447 L 208.7555 351.5059 L 209.3014 351.4651 L 209.8471 351.4225 L 210.3927 351.3780 L 210.9381 351.3317 L 211.4833 351.2835 L 212.0284 351.2335 L 212.5733 351.1816 L 213.1180 351.1278 L 213.6625 351.0722 L 214.2069 351.0147 L 214.7510 350.9554 L 215.2950 350.8942 L 215.8387 350.8311 L 216.3822 350.7662 L 216.9255 350.6995 L 217.4685 350.6309 L 218.0113 350.5605 L 218.5539 350.4882 L 219.0962 350.4140 L 219.6383 350.3381 L 220.1801 350.2602 L 220.7216 350.1806 L 221.2629 350.0990 L 221.8039 350.0157 L 222.3446 349.9305 L 222.8850 349.8435 L 223.4251 349.7546 L 223.9649 349.6639 L 224.5044 349.5713 L 225.0436 349.4769 L 225.5824 349.3807 L 226.1209 349.2827 L 226.6591 349.1828 L 227.1969 349.0811 L 227.7344 348.9776 L 228.2715 348.8722 L 228.8083 348.7650 L 229.3447 348.6560 L 229.8807 348.5452 L 230.4164 348.4325 L 230.9517 348.3181 L 231.4865 348.2018 L 232.0210 348.0837 L 232.5551 347.9637 L 233.0887 347.8420 L 233.6220 347.7185 L 234.1548 347.5931 L 234.6872 347.4660 L 235.2192 347.3370 L 235.7507 347.2062 L 236.2817 347.0737 L 236.8124 346.9393 L 237.3425 346.8031 L 237.8722 346.6651 L 238.4014 346.5254 L 238.9302 346.3838 L 239.4584 346.2405 L 239.9862 346.0953 L 240.5135 345.9484 L 241.0403 345.7997 L 241.5665 345.6492 L 242.0923 345.4969 L 242.6175 345.3428 L 243.1423 345.1870 L 243.6664 345.0293 L 244.1901 344.8699 L 244.7132 344.7088 L 245.2357 344.5458 L 245.7577 344.3811 L 246.2792 344.2146 L 246.8000 344.0464 L 247.3203 343.8764 L 247.8401 343.7046 L 248.3592 343.5311 L 248.8777 343.3558 L 249.3957 343.1788 L 249.9130 343.0000 L 250.4298 342.8195 L 250.9459 342.6372 L 251.4614 342.4532 L 251.9763 342.2674 L 252.4905 342.0799 L 253.0041 341.8907 L 253.5171 341.6997 L 254.0294 341.5070 L 254.5411 341.3125 L 255.0521 341.1163 L 255.5624 340.9184 L 256.0721 340.7188 L 256.5811 340.5175 L 257.0894 340.3144 L 257.5970 340.1096 L 258.1040 339.9031 L 258.6102 339.6949 L 259.1157 339.4850 L 259.6205 339.2734 L 260.1246 339.0601 L 260.6280 338.8451 L 261.1306 338.6283 L 261.6325 338.4099 L 262.1337 338.1898 L 262.6341 337.9680 L 263.1337 337.7445 L 263.6327 337.5194 L 264.1308 337.2925 L 264.6282 337.0640 L 265.1248 336.8338 L 265.6206 336.6019 L 266.1157 336.3684 L 266.6099 336.1331 L 267.1034 335.8962 L 267.5960 335.6577 L 268.0879 335.4175 L 268.5789 335.1756 L 269.0691 334.9321 L 269.5585 334.6870 L 270.0471 334.4401 L 270.5348 334.1917 L 271.0217 333.9416 L 271.5077 333.6899 L 271.9929 333.4365 L 272.4773 333.1815 L 272.9607 332.9248 L 273.4433 332.6666 L 273.9251 332.4067 L 274.4059 332.1452 L 274.8859 331.8821 L 275.3650 331.6173 L 275.8432 331.3510 L 276.3205 331.0830 L 276.7969 330.8135 L 277.2724 330.5423 L 277.7470 330.2696 L 278.2206 329.9952 L 278.6933 329.7193 L 279.1651 329.4417 L 279.6360 329.1626 L 280.1059 328.8819 L 280.5749 328.5997 L 281.0429 328.3158 L 281.5099 328.0304 L 281.9760 327.7434 L 282.4412 327.4549 L 282.9053 327.1647 L 283.3685 326.8731 L 283.8307 326.5798 L 284.2919 326.2851 L 284.7522 325.9887 L 285.2114 325.6909 L 285.6696 325.3915 L 286.1268 325.0905 L 286.5830 324.7881 L 287.0382 324.4841 L 287.4924 324.1785 L 287.9455 323.8715 L 288.3976 323.5629 L 288.8487 323.2528 L 289.2987 322.9412 L 289.7477 322.6281 L 290.1956 322.3135 L 290.6424 321.9974 L 291.0882 321.6798 L 291.5330 321.3607 L 291.9766 321.0401 L 292.4192 320.7180 L 292.8607 320.3945 L 293.3011 320.0694 L 293.7405 319.7429 L 294.1787 319.4149 L 294.6158 319.0855 L 295.0518 318.7546 L 295.4867 318.4222 L 295.9205 318.0884 L 296.3532 317.7531 L 296.7847 317.4164 L 297.2152 317.0783 L 297.6445 316.7387 L 298.0726 316.3976 L 298.4996 316.0552 L 298.9254 315.7113 L 299.3501 315.3660 L 299.7737 315.0192 L 300.1961 314.6711 L 300.6173 314.3215 L 301.0373 313.9705 L 301.4562 313.6182 L 301.8739 313.2644 L 302.2904 312.9092 L 302.7057 312.5527 L 303.1198 312.1947 L 303.5327 311.8354 L 303.9444 311.4747 L 304.3549 311.1126 L 304.7642 310.7492 L 305.1723 310.3844 L 305.5791 310.0182 L 305.9847 309.6507 L 306.3891 309.2818 L 306.7923 308.9116 L 307.1942 308.5400 L 307.5949 308.1671 L 307.9943 307.7928 L 308.3925 307.4172 L 308.7894 307.0403 L 309.1851 306.6621 L 309.5795 306.2826 L 309.9726 305.9017 L 310.3645 305.5195 L 310.7551 305.1360 L 311.1444 304.7512 L 311.5324 304.3652 L 311.9191 303.9778 L 312.3046 303.5891 L 312.6887 303.1992 L 313.0715 302.8080 L 313.4530 302.4155 L 313.8333 302.0217 L 314.2122 301.6267 L 314.5897 301.2304 L 314.9660 300.8329 L 315.3409 300.4341 L 315.7145 300.0340 L 316.0868 299.6327 L 316.4577 299.2302 L 316.8273 298.8265 L 317.1955 298.4215 L 317.5624 298.0153 L 317.9280 297.6078 L 318.2921 297.1992 L 318.6549 296.7893 L 319.0164 296.3783 L 319.3765 295.9660 L 319.7351 295.5526 L 320.0925 295.1379 L 320.4484 294.7221 L 320.8030 294.3051 L 321.1561 293.8869 L 321.5079 293.4675 L 321.8583 293.0470 L 322.2072 292.6253 L 322.5548 292.2024 L 322.9010 291.7784 L 323.2457 291.3532 L 323.5891 290.9269 L 323.9310 290.4995 L 324.2715 290.0709 L 324.6105 289.6412 L 324.9482 289.2104 L 325.2844 288.7785 L 325.6192 288.3454 L 325.9525 287.9112 L 326.2844 287.4759 L 326.6148 287.0396 L 326.9438 286.6021 L 327.2713 286.1635 L 327.5974 285.7239 L 327.9220 285.2832 L 328.2451 284.8414 L 328.5668 284.3985 L 328.8870 283.9546 L 329.2058 283.5096 L 329.5230 283.0635 L 329.8388 282.6164 L 330.1531 282.1683 L 330.4659 281.7191 L 330.7772 281.2689 L 331.0870 280.8176 L 331.3953 280.3653 L 331.7021 279.9120 L 332.0074 279.4577 L 332.3112 279.0024 L 332.6135 278.5461 L 332.9143 278.0888 L 333.2136 277.6304 L 333.5113 277.1711 L 333.8075 276.7108 L 334.1022 276.2496 L 334.3954 275.7873 L 334.6870 275.3241 L 334.9771 274.8599 L 335.2656 274.3948 L 335.5526 273.9287 L 335.8381 273.4617 L 336.1220 272.9937 L 336.4044 272.5248 L 336.6852 272.0550 L 336.9645 271.5842 L 337.2422 271.1125 L 337.5183 270.6399 L 337.7929 270.1664 L 338.0659 269.6919 L 338.3373 269.2166 L 338.6072 268.7404 L 338.8755 268.2633 L 339.1422 267.7853 L 339.4073 267.3064 L 339.6708 266.8266 L 339.9328 266.3460 L 340.1931 265.8645 L 340.4519 265.3822 L 340.7091 264.8990 L 340.9646 264.4150 L 341.2186 263.9301 L 341.4710 263.4444 L 341.7217 262.9578 L 341.9709 262.4705 L 342.2184 261.9823 L 342.4644 261.4933 L 342.7087 261.0034 L 342.9514 260.5128 L 343.1924 260.0214 L 343.4319 259.5292 L 343.6697 259.0362 L 343.9059 258.5424 L 344.1405 258.0478 L 344.3734 257.5525 L 344.6047 257.0564 L 344.8344 256.5595 L 345.0624 256.0619 L 345.2888 255.5636 L 345.5135 255.0645 L 345.7366 254.5646 L 345.9580 254.0640 L 346.1778 253.5627 L 346.3959 253.0607 L 346.6124 252.5580 L 346.8272 252.0545 L 347.0404 251.5504 L 347.2519 251.0455 L 347.4617 250.5399 L 347.6699 250.0337 L 347.8764 249.5268 L 348.0812 249.0192 L 348.2843 248.5109 L 348.4858 248.0020 L 348.6856 247.4924 L 348.8837 246.9821 L 349.0802 246.4712 L 349.2749 245.9597 L 349.4680 245.4475 L 349.6594 244.9347 L 349.8491 244.4212 L 350.0371 243.9071 L 350.2234 243.3925 L 350.4080 242.8772 L 350.5909 242.3613 L 350.7722 241.8448 L 350.9517 241.3277 L 351.1295 240.8100 L 351.3056 240.2917 L 351.4800 239.7729 L 351.6527 239.2535 L 351.8237 238.7335 L 351.9930 238.2130 L 352.1606 237.6919 L 352.3265 237.1703 L 352.4906 236.6481 L 352.6531 236.1254 L 352.8138 235.6022 L 352.9728 235.0784 L 353.1301 234.5541 L 353.2856 234.0293 L 353.4394 233.5040 L 353.5915 232.9782 L 353.7419 232.4519 L 353.8906 231.9251 L 354.0375 231.3978 L 354.1827 230.8700 L 354.3261 230.3418 L 354.4678 229.8131 L 354.6078 229.2839 L 354.7461 228.7543 L 354.8826 228.2242 L 355.0174 227.6937 L 355.1504 227.1628 L 355.2817 226.6314 L 355.4112 226.0996 L 355.5390 225.5673 L 355.6651 225.0347 L 355.7894 224.5016 L 355.9119 223.9681 L 356.0327 223.4343 L 356.1518 222.9000 L 356.2691 222.3653 L 356.3847 221.8303 L 356.4985 221.2949 L 356.6105 220.7591 L 356.7208 220.2230 L 356.8293 219.6865 L 356.9361 219.1496 L 357.0411 218.6124 L 357.1444 218.0749 L 357.2459 217.5370 L 357.3456 216.9988 L 357.4436 216.4603 L 357.5398 215.9214 L 357.6343 215.3823 L 357.7270 214.8428 L 357.8179 214.3031 L 357.9070 213.7630 L 357.9944 213.2227 L 358.0800 212.6820 L 358.1639 212.1411 L 358.2460 211.5999 L 358.3263 211.0585 L 358.4048 210.5168 L 358.4816 209.9748 L 358.5566 209.4326 L 358.6298 208.8902 L 358.7013 208.3475 L 358.7709 207.8046 L 358.8389 207.2614 L 358.9050 206.7181 L 358.9693 206.1745 L 359.0319 205.6307 L 359.0927 205.0868 L 359.1517 204.5426 L 359.2090 203.9982 L 359.2645 203.4537 L 359.3181 202.9089 L 359.3701 202.3640 L 359.4202 201.8190 L 359.4685 201.2737 L 359.5151 200.7284 L 359.5599 200.1828 L 359.6029 199.6371 L 359.6442 199.0913 L 359.6836 198.5454 L 359.7213 197.9993 L 359.7572 197.4531 L 359.7913 196.9068 L 359.8236 196.3604 L 359.8542 195.8139 L 359.8829 195.2673 L 359.9099 194.7206 L 359.9351 194.1738 L 359.9585 193.6269 L 359.9801 193.0800 L 360.0000 192.5330" 
        fill="none" 
        stroke="#009688" 
        stroke-width="0.5"
        stroke-linecap="round"
        stroke-linejoin="round"/>
</svg>