<?xml version="1.0" encoding="UTF-8"?>
<svg xmlns="http://www.w3.org/2000/svg" 
     width="400.0" height="400.0" 
     viewBox="0 0 400.0 400.0">
  <rect width="100%" height="100%" fill="#ffffff"/>
  <path d="M 352.0000 200.0000 L 351.9650 199.5487 L 351.8635 199.1076 L 351.7038 198.6839 L 351.4963 198.2814 L 351.2509 197.9007 L 350.9759 197.5407 L 350.6776 197.1998 L 350.3609 196.8758 L 350.0296 196.5669 L 349.6863 196.2712 L 349.3332 195.9873 L 348.9720 195.7138 L 348.6040 195.4496 L 348.2301 195.1936 L 347.8513 194.9452 L 347.4681 194.7034 L 347.0811 194.4677 L 346.6909 194.2376 L 346.2977 194.0125 L 345.9019 193.7920 L 345.5038 193.5757 L 345.1035 193.3634 L 344.7014 193.1546 L 344.2976 192.9492 L 343.8922 192.7469 L 343.4853 192.5475 L 343.0772 192.3507 L 342.6679 192.1565 L 342.2574 191.9646 L 341.8460 191.7749 L 341.4336 191.5873 L 341.0203 191.4016 L 340.6062 191.2177 L 340.1914 191.0356 L 339.7758 190.8551 L 339.3596 190.6760 L 338.9428 190.4985 L 338.5254 190.3223 L 338.1074 190.1474 L 337.6889 189.9738 L 337.2700 189.8013 L 336.8506 189.6299 L 336.4307 189.4595 L 336.0105 189.2902 L 335.5899 189.1218 L 335.1689 188.9543 L 334.7475 188.7877 L 334.3259 188.6219 L 333.9039 188.4569 L 333.4817 188.2926 L 333.0592 188.1291 L 332.6364 187.9662 L 332.2133 187.8040 L 331.7901 187.6424 L 331.3666 187.4813 L 330.9429 187.3209 L 330.5189 187.1610 L 330.0948 187.0016 L 329.6705 186.8427 L 329.2461 186.6842 L 328.8214 186.5263 L 328.3966 186.3687 L 327.9717 186.2116 L 327.5466 186.0548 L 327.1213 185.8985 L 326.6959 185.7425 L 326.2705 185.5868 L 325.8448 185.4315 L 325.4191 185.2765 L 324.9933 185.1217 L 324.5673 184.9673 L 324.1413 184.8131 L 323.7151 184.6593 L 323.2889 184.5056 L 322.8626 184.3522 L 322.4362 184.1990 L 322.0097 184.0460 L 321.5832 183.8933 L 321.1566 183.7407 L 320.7299 183.5883 L 320.3031 183.4361 L 319.8763 183.2841 L 319.4495 183.1322 L 319.0225 182.9805 L 318.5956 182.8289 L 318.1686 182.6775 L 317.7415 182.5262 L 317.3144 182.3750 L 316.8872 182.2239 L 316.4601 182.0730 L 316.0328 181.9221 L 315.6056 181.7713 L 315.1783 181.6206 L 314.7510 181.4700 L 314.3236 181.3195 L 313.8963 181.1690 L 313.4689 181.0186 L 313.0415 180.8683 L 312.6141 180.7180 L 312.1866 180.5678 L 311.7591 180.4176 L 311.3317 180.2675 L 310.9042 180.1174 L 310.4767 179.9673 L 310.0492 179.8173 L 309.6217 179.6673 L 309.1941 179.5173 L 308.7666 179.3673 L 308.3391 179.2173 L 307.9115 179.0673 L 307.4840 178.9174 L 307.0564 178.7674 L 306.6289 178.6174 L 306.2014 178.4675 L 305.7738 178.3175 L 305.3463 178.1675 L 304.9188 178.0175 L 304.4913 177.8675 L 304.0638 177.7174 L 303.6363 177.5674 L 303.2088 177.4173 L 302.7813 177.2671 L 302.3538 177.1170 L 301.9264 176.9668 L 301.4989 176.8166 L 301.0715 176.6663 L 300.6441 176.5160 L 300.2167 176.3656 L 299.7893 176.2152 L 299.3619 176.0648 L 298.9346 175.9143 L 298.5072 175.7637 L 298.0799 175.6131 L 297.6526 175.4624 L 297.2254 175.3117 L 296.7981 175.1609 L 296.3709 175.0100 L 295.9437 174.8591 L 295.5165 174.7081 L 295.0894 174.5571 L 294.6622 174.4059 L 294.2351 174.2547 L 293.8081 174.1035 L 293.3810 173.9521 L 292.9540 173.8007 L 292.5270 173.6492 L 292.1000 173.4976 L 291.6731 173.3460 L 291.2462 173.1942 L 290.8193 173.0424 L 290.3925 172.8905 L 289.9656 172.7385 L 289.5388 172.5864 L 289.1121 172.4342 L 288.6854 172.2819 L 288.2587 172.1296 L 287.8320 171.9771 L 287.4054 171.8245 L 286.9788 171.6719 L 286.5523 171.5192 L 286.1257 171.3663 L 285.6993 171.2134 L 285.2728 171.0603 L 284.8464 170.9072 L 284.4200 170.7540 L 283.9937 170.6006 L 283.5674 170.4472 L 283.1411 170.2936 L 282.7149 170.1400 L 282.2887 169.9862 L 281.8626 169.8323 L 281.4365 169.6783 L 281.0104 169.5242 L 280.5844 169.3700 L 280.1584 169.2157 L 279.7324 169.0613 L 279.3065 168.9068 L 278.8807 168.7521 L 278.4548 168.5973 L 278.0291 168.4425 L 277.6033 168.2875 L 277.1776 168.1324 L 276.7520 167.9771 L 276.3264 167.8218 L 275.9008 167.6663 L 275.4753 167.5107 L 275.0498 167.3550 L 274.6243 167.1992 L 274.1990 167.0433 L 273.7736 166.8872 L 273.3483 166.7310 L 272.9230 166.5747 L 272.4978 166.4182 L 272.0727 166.2617 L 271.6475 166.1050 L 271.2225 165.9482 L 270.7974 165.7913 L 270.3725 165.6342 L 269.9475 165.4770 L 269.5226 165.3197 L 269.0978 165.1622 L 268.6730 165.0047 L 268.2483 164.8470 L 267.8236 164.6891 L 267.3989 164.5312 L 266.9743 164.3731 L 266.5498 164.2149 L 266.1253 164.0565 L 265.7008 163.8980 L 265.2764 163.7394 L 264.8520 163.5807 L 264.4277 163.4218 L 264.0035 163.2628 L 263.5793 163.1036 L 263.1551 162.9443 L 262.7310 162.7849 L 262.3070 162.6254 L 261.8830 162.4657 L 261.4590 162.3059 L 261.0351 162.1459 L 260.6113 161.9858 L 260.1875 161.8256 L 259.7637 161.6652 L 259.3400 161.5047 L 258.9164 161.3441 L 258.4928 161.1833 L 258.0692 161.0224 L 257.6458 160.8614 L 257.2223 160.7002 L 256.7989 160.5388 L 256.3756 160.3774 L 255.9523 160.2158 L 255.5291 160.0540 L 255.1060 159.8921 L 254.6828 159.7301 L 254.2598 159.5679 L 253.8368 159.4056 L 253.4138 159.2432 L 252.9909 159.0806 L 252.5681 158.9179 L 252.1453 158.7550 L 251.7226 158.5920 L 251.2999 158.4288 L 250.8773 158.2655 L 250.4547 158.1021 L 250.0322 157.9385 L 249.6097 157.7748 L 249.1873 157.6109 L 248.7650 157.4469 L 248.3427 157.2827 L 247.9204 157.1184 L 247.4982 156.9540 L 247.0761 156.7894 L 246.6540 156.6247 L 246.2320 156.4598 L 245.8101 156.2948 L 245.3882 156.1296 L 244.9663 155.9643 L 244.5445 155.7989 L 244.1228 155.6333 L 243.7011 155.4675 L 243.2795 155.3017 L 242.8580 155.1356 L 242.4365 154.9695 L 242.0150 154.8031 L 241.5936 154.6367 L 241.1723 154.4701 L 240.7510 154.3033 L 240.3298 154.1364 L 239.9087 153.9693 L 239.4876 153.8022 L 239.0665 153.6348 L 238.6455 153.4673 L 238.2246 153.2997 L 237.8038 153.1319 L 237.3830 152.9640 L 236.9622 152.7959 L 236.5415 152.6277 L 236.1209 152.4593 L 235.7003 152.2908 L 235.2798 152.1221 L 234.8593 151.9533 L 234.4390 151.7844 L 234.0186 151.6153 L 233.5983 151.4460 L 233.1781 151.2766 L 232.7580 151.1071 L 232.3379 150.9374 L 231.9178 150.7675 L 231.4978 150.5976 L 231.0779 150.4274 L 230.6581 150.2571 L 230.2383 150.0867 L 229.8185 149.9161 L 229.3989 149.7454 L 228.9792 149.5745 L 228.5597 149.4035 L 228.1402 149.2323 L 227.7207 149.0610 L 227.3014 148.8896 L 226.8820 148.7179 L 226.4628 148.5462 L 226.0436 148.3743 L 225.6244 148.2022 L 225.2054 148.0300 L 224.7864 147.8577 L 224.3674 147.6852 L 223.9485 147.5125 L 223.5297 147.3397 L 223.1109 147.1668 L 222.6922 146.9937 L 222.2735 146.8205 L 221.8550 146.6471 L 221.4364 146.4736 L 221.0180 146.2999 L 220.5996 146.1260 L 220.1812 145.9521 L 219.7629 145.7779 L 219.3447 145.6037 L 218.9266 145.4293 L 218.5085 145.2547 L 218.0904 145.0800 L 217.6725 144.9051 L 217.2545 144.7301 L 216.8367 144.5550 L 216.4189 144.3797 L 216.0012 144.2042 L 215.5835 144.0286 L 215.1659 143.8529 L 214.7484 143.6770 L 214.3309 143.5009 L 213.9135 143.3248 L 213.4961 143.1484 L 213.0788 142.9720 L 212.6616 142.7953 L 212.2444 142.6186 L 211.8273 142.4416 L 211.4103 142.2646 L 210.9933 142.0874 L 210.5764 141.9100 L 210.1595 141.7325 L 209.7427 141.5549 L 209.3260 141.3771 L 208.9093 141.1991 L 208.4927 141.0210 L 208.0761 140.8428 L 207.6597 140.6644 L 207.2432 140.4859 L 206.8269 140.3073 L 206.4106 140.1284 L 205.9943 139.9495 L 205.5782 139.7704 L 205.1621 139.5911 L 204.7460 139.4117 L 204.3300 139.2322 L 203.9141 139.0525 L 203.4982 138.8727 L 203.0824 138.6927 L 202.6667 138.5126 L 202.2510 138.3324 L 201.8354 138.1520 L 201.4199 137.9714 L 201.0044 137.7907 L 200.5889 137.6099 L 200.1736 137.4289 L 199.7583 137.2478 L 199.3430 137.0666 L 198.9279 136.8852 L 198.5127 136.7036 L 198.0977 136.5219 L 197.6827 136.3401 L 197.2678 136.1582 L 196.8529 135.9760 L 196.4381 135.7938 L 196.0234 135.6114 L 195.6087 135.4289 L 195.1941 135.2462 L 194.7795 135.0634 L 194.3650 134.8804 L 193.9506 134.6973 L 193.5362 134.5141 L 193.1219 134.3307 L 192.7076 134.1472 L 192.2935 133.9636 L 191.8793 133.7798 L 191.4653 133.5959 L 191.0513 133.4118 L 190.6373 133.2276 L 190.2234 133.0432 L 189.8096 132.8588 L 189.3959 132.6742 L 188.9822 132.4894 L 188.5685 132.3045 L 188.1550 132.1195 L 187.7415 131.9343 L 187.3280 131.7490 L 186.9146 131.5636 L 186.5013 131.3780 L 186.0880 131.1923 L 185.6748 131.0065 L 185.2617 130.8205 L 184.8486 130.6344 L 184.4355 130.4482 L 184.0226 130.2618 L 183.6097 130.0753 L 183.1968 129.8886 L 182.7840 129.7019 L 182.3713 129.5150 L 181.9586 129.3279 L 181.5460 129.1408 L 181.1335 128.9535 L 180.7210 128.7661 L 180.3085 128.5785 L 179.8962 128.3908 L 179.4838 128.2030 L 179.0716 128.0151 L 178.6594 127.8270 L 178.2472 127.6388 L 177.8352 127.4505 L 177.4231 127.2620 L 177.0112 127.0735 L 176.5993 126.8848 L 176.1874 126.6959 L 175.7756 126.5070 L 175.3639 126.3179 L 174.9522 126.1287 L 174.5406 125.9394 L 174.1290 125.7499 L 173.7175 125.5604 L 173.3060 125.3707 L 172.8946 125.1809 L 172.4833 124.9909 L 172.0720 124.8009 L 171.6608 124.6107 L 171.2496 124.4204 L 170.8385 124.2300 L 170.4274 124.0395 L 170.0164 123.8488 L 169.6054 123.6581 L 169.1945 123.4672 L 168.7837 123.2762 L 168.3729 123.0851 L 167.9621 122.8939 L 167.5514 122.7025 L 167.1408 122.5111 L 166.7302 122.3195 L 166.3196 122.1279 L 165.9092 121.9361 L 165.4987 121.7442 L 165.0883 121.5522 L 164.6780 121.3601 L 164.2677 121.1679 L 163.8575 120.9756 L 163.4473 120.7832 L 163.0372 120.5906 L 162.6271 120.3980 L 162.2170 120.2053 L 161.8070 120.0124 L 161.3971 119.8195 L 160.9872 119.6265 L 160.5774 119.4333 L 160.1676 119.2401 L 159.7578 119.0468 L 159.3481 118.8534 L 158.9384 118.6598 L 158.5288 118.4662 L 158.1192 118.2725 L 157.7097 118.0787 L 157.3002 117.8848 L 156.8907 117.6909 L 156.4813 117.4968 L 156.0719 117.3026 L 155.6626 117.1084 L 155.2533 116.9141 L 154.8441 116.7197 L 154.4349 116.5252 L 154.0257 116.3306 L 153.6166 116.1360 L 153.2075 115.9412 L 152.7984 115.7464 L 152.3894 115.5516 L 151.9804 115.3566 L 151.5714 115.1616 L 151.1625 114.9665 L 150.7536 114.7713 L 150.3448 114.5761 L 149.9360 114.3808 L 149.5272 114.1854 L 149.1184 113.9900 L 148.7097 113.7945 L 148.3010 113.5990 L 147.8923 113.4034 L 147.4836 113.2077 L 147.0750 113.0120 L 146.6664 112.8163 L 146.2578 112.6205 L 145.8493 112.4246 L 145.4407 112.2287 L 145.0322 112.0328 L 144.6237 111.8368 L 144.2152 111.6408 L 143.8068 111.4447 L 143.3983 111.2486 L 142.9899 111.0525 L 142.5815 110.8564 L 142.1731 110.6602 L 141.7647 110.4640 L 141.3563 110.2678 L 140.9479 110.0715 L 140.5395 109.8753 L 140.1312 109.6790 L 139.7228 109.4828 L 139.3145 109.2865 L 138.9061 109.0902 L 138.4978 108.8939 L 138.0894 108.6977 L 137.6810 108.5014 L 137.2727 108.3051 L 136.8643 108.1089 L 136.4559 107.9127 L 136.0475 107.7165 L 135.6391 107.5203 L 135.2307 107.3242 L 134.8223 107.1281 L 134.4138 106.9320 L 134.0053 106.7360 L 133.5969 106.5400 L 133.1883 106.3441 L 132.7798 106.1482 L 132.3712 105.9524 L 131.9626 105.7567 L 131.5539 105.5610 L 131.1452 105.3654 L 130.7365 105.1699 L 130.3277 104.9745 L 129.9189 104.7792 L 129.5101 104.5840 L 129.1011 104.3889 L 128.6922 104.1939 L 128.2831 103.9990 L 127.8740 103.8043 L 127.4649 103.6097 L 127.0557 103.4152 L 126.6464 103.2210 L 126.2370 103.0268 L 125.8275 102.8329 L 125.4180 102.6391 L 125.0084 102.4455 L 124.5986 102.2521 L 124.1888 102.0589 L 123.7789 101.8659 L 123.3688 101.6732 L 122.9587 101.4807 L 122.5484 101.2884 L 122.1380 101.0964 L 121.7275 100.9047 L 121.3169 100.7133 L 120.9061 100.5222 L 120.4951 100.3314 L 120.0840 100.1409 L 119.6728 99.9508 L 119.2614 99.7610 L 118.8498 99.5716 L 118.4380 99.3826 L 118.0260 99.1941 L 117.6138 99.0060 L 117.2015 98.8183 L 116.7889 98.6311 L 116.3760 98.4444 L 115.9630 98.2583 L 115.5496 98.0727 L 115.1361 97.8877 L 114.7222 97.7032 L 114.3081 97.5194 L 113.8937 97.3363 L 113.4789 97.1539 L 113.0639 96.9722 L 112.6485 96.7913 L 112.2328 96.6112 L 111.8167 96.4319 L 111.4002 96.2536 L 110.9833 96.0762 L 110.5660 95.8997 L 110.1482 95.7243 L 109.7300 95.5501 L 109.3113 95.3770 L 108.8921 95.2051 L 108.4723 95.0345 L 108.0520 94.8653 L 107.6312 94.6976 L 107.2097 94.5314 L 106.7875 94.3668 L 106.3647 94.2040 L 105.9412 94.0431 L 105.5169 93.8842 L 105.0918 93.7274 L 104.6659 93.5728 L 104.2391 93.4207 L 103.8114 93.2712 L 103.3827 93.1246 L 102.9530 92.9809 L 102.5222 92.8406 L 102.0903 92.7039 L 101.6571 92.5710 L 101.2227 92.4424 L 100.7869 92.3184 L 100.3497 92.1995 L 99.9110 92.0863 L 99.4708 91.9793 L 99.0289 91.8793 L 98.5853 91.7871 L 98.1400 91.7037 L 97.6929 91.6302 L 97.2441 91.5682 L 96.7937 91.5193 L 96.3419 91.4856 L 95.8891 91.4697 L 95.4361 91.4748 L 94.9841 91.5048 L 94.5351 91.5648 L 94.0924 91.6604 L 93.6610 91.7982 L 93.2484 91.9847 L 92.8646 92.2246 L 92.5206 92.5189 L 92.2261 92.8626 L 91.9858 93.2462 L 91.7990 93.6587 L 91.6610 94.0900 L 91.5652 94.5327 L 91.5051 94.9817 L 91.4749 95.4337 L 91.4696 95.8867 L 91.4854 96.3394 L 91.5190 96.7912 L 91.5679 97.2416 L 91.6299 97.6904 L 91.7033 98.1375 L 91.7866 98.5829 L 91.8788 99.0265 L 91.9788 99.4684 L 92.0857 99.9086 L 92.1989 100.3473 L 92.3177 100.7845 L 92.4417 101.2203 L 92.5703 101.6548 L 92.7031 102.0879 L 92.8399 102.5199 L 92.9802 102.9507 L 93.1238 103.3804 L 93.2704 103.8091 L 93.4199 104.2368 L 93.5720 104.6636 L 93.7265 105.0895 L 93.8833 105.5146 L 94.0422 105.9389 L 94.2032 106.3624 L 94.3659 106.7852 L 94.5305 107.2074 L 94.6967 107.6289 L 94.8644 108.0497 L 95.0336 108.4700 L 95.2041 108.8898 L 95.3760 109.3090 L 95.5491 109.7277 L 95.7234 110.1459 L 95.8988 110.5637 L 96.0752 110.9810 L 96.2526 111.3979 L 96.4310 111.8144 L 96.6102 112.2305 L 96.7903 112.6462 L 96.9712 113.0616 L 97.1529 113.4767 L 97.3353 113.8914 L 97.5184 114.3058 L 97.7022 114.7200 L 97.8866 115.1338 L 98.0717 115.5474 L 98.2573 115.9607 L 98.4434 116.3738 L 98.6301 116.7866 L 98.8173 117.1992 L 99.0049 117.6116 L 99.1931 118.0238 L 99.3816 118.4357 L 99.5706 118.8475 L 99.7600 119.2591 L 99.9497 119.6706 L 100.1398 120.0818 L 100.3303 120.4929 L 100.5211 120.9038 L 100.7122 121.3146 L 100.9037 121.7253 L 101.0954 122.1358 L 101.2874 122.5462 L 101.4796 122.9565 L 101.6721 123.3666 L 101.8649 123.7766 L 102.0578 124.1866 L 102.2510 124.5964 L 102.4444 125.0061 L 102.6380 125.4158 L 102.8318 125.8253 L 103.0258 126.2348 L 103.2199 126.6441 L 103.4142 127.0534 L 103.6086 127.4627 L 103.8032 127.8718 L 103.9980 128.2809 L 104.1928 128.6899 L 104.3878 129.0989 L 104.5829 129.5078 L 104.7781 129.9167 L 104.9734 130.3255 L 105.1688 130.7343 L 105.3643 131.1430 L 105.5599 131.5517 L 105.7556 131.9604 L 105.9513 132.3690 L 106.1471 132.7775 L 106.3430 133.1861 L 106.5389 133.5946 L 106.7349 134.0031 L 106.9309 134.4116 L 107.1270 134.8201 L 107.3231 135.2285 L 107.5192 135.6369 L 107.7154 136.0453 L 107.9116 136.4537 L 108.1078 136.8621 L 108.3041 137.2705 L 108.5003 137.6788 L 108.6966 138.0872 L 108.8929 138.4955 L 109.0891 138.9039 L 109.2854 139.3122 L 109.4817 139.7206 L 109.6780 140.1290 L 109.8742 140.5373 L 110.0705 140.9457 L 110.2667 141.3541 L 110.4629 141.7624 L 110.6591 142.1708 L 110.8553 142.5792 L 111.0514 142.9877 L 111.2476 143.3961 L 111.4437 143.8045 L 111.6397 144.2130 L 111.8357 144.6215 L 112.0317 145.0300 L 112.2276 145.4385 L 112.4235 145.8470 L 112.6194 146.2556 L 112.8152 146.6642 L 113.0110 147.0728 L 113.2067 147.4814 L 113.4023 147.8900 L 113.5979 148.2987 L 113.7935 148.7074 L 113.9889 149.1162 L 114.1844 149.5249 L 114.3797 149.9337 L 114.5750 150.3426 L 114.7703 150.7514 L 114.9654 151.1603 L 115.1605 151.5692 L 115.3555 151.9782 L 115.5505 152.3872 L 115.7454 152.7962 L 115.9402 153.2052 L 116.1349 153.6143 L 116.3295 154.0235 L 116.5241 154.4326 L 116.7186 154.8418 L 116.9130 155.2511 L 117.1073 155.6604 L 117.3016 156.0697 L 117.4957 156.4791 L 117.6898 156.8885 L 117.8838 157.2979 L 118.0777 157.7074 L 118.2715 158.1170 L 118.4652 158.5266 L 118.6588 158.9362 L 118.8523 159.3458 L 119.0457 159.7556 L 119.2391 160.1653 L 119.4323 160.5751 L 119.6254 160.9850 L 119.8185 161.3949 L 120.0114 161.8048 L 120.2042 162.2148 L 120.3970 162.6248 L 120.5896 163.0349 L 120.7821 163.4451 L 120.9745 163.8553 L 121.1669 164.2655 L 121.3591 164.6758 L 121.5512 165.0861 L 121.7432 165.4965 L 121.9350 165.9069 L 122.1268 166.3174 L 122.3185 166.7279 L 122.5101 167.1385 L 122.7015 167.5492 L 122.8928 167.9599 L 123.0840 168.3706 L 123.2752 168.7814 L 123.4661 169.1923 L 123.6570 169.6032 L 123.8478 170.0141 L 124.0384 170.4252 L 124.2290 170.8362 L 124.4194 171.2473 L 124.6097 171.6585 L 124.7998 172.0698 L 124.9899 172.4810 L 125.1798 172.8924 L 125.3696 173.3038 L 125.5593 173.7152 L 125.7489 174.1268 L 125.9383 174.5383 L 126.1277 174.9499 L 126.3169 175.3616 L 126.5059 175.7734 L 126.6949 176.1852 L 126.8837 176.5970 L 127.0724 177.0089 L 127.2610 177.4209 L 127.4495 177.8329 L 127.6378 178.2450 L 127.8260 178.6571 L 128.0140 179.0693 L 128.2020 179.4816 L 128.3898 179.8939 L 128.5775 180.3063 L 128.7650 180.7187 L 128.9525 181.1312 L 129.1398 181.5438 L 129.3269 181.9564 L 129.5140 182.3690 L 129.7009 182.7818 L 129.8876 183.1946 L 130.0743 183.6074 L 130.2608 184.0203 L 130.4471 184.4333 L 130.6334 184.8463 L 130.8195 185.2594 L 131.0055 185.6725 L 131.1913 186.0858 L 131.3770 186.4990 L 131.5626 186.9124 L 131.7480 187.3257 L 131.9333 187.7392 L 132.1185 188.1527 L 132.3035 188.5663 L 132.4884 188.9799 L 132.6731 189.3936 L 132.8578 189.8074 L 133.0422 190.2212 L 133.2266 190.6351 L 133.4108 191.0490 L 133.5949 191.4630 L 133.7788 191.8771 L 133.9626 192.2912 L 134.1462 192.7054 L 134.3297 193.1196 L 134.5131 193.5339 L 134.6963 193.9483 L 134.8794 194.3627 L 135.0624 194.7772 L 135.2452 195.1918 L 135.4279 195.6064 L 135.6104 196.0211 L 135.7928 196.4358 L 135.9751 196.8506 L 136.1572 197.2655 L 136.3391 197.6804 L 136.5210 198.0954 L 136.7026 198.5105 L 136.8842 198.9256 L 137.0656 199.3408 L 137.2468 199.7560 L 137.4280 200.1713 L 137.6089 200.5867 L 137.7898 201.0021 L 137.9704 201.4176 L 138.1510 201.8331 L 138.3314 202.2488 L 138.5116 202.6644 L 138.6918 203.0802 L 138.8717 203.4960 L 139.0516 203.9118 L 139.2312 204.3278 L 139.4108 204.7437 L 139.5902 205.1598 L 139.7694 205.5759 L 139.9485 205.9921 L 140.1275 206.4083 L 140.3063 206.8246 L 140.4849 207.2410 L 140.6635 207.6574 L 140.8418 208.0739 L 141.0201 208.4904 L 141.1982 208.9070 L 141.3761 209.3237 L 141.5539 209.7404 L 141.7315 210.1572 L 141.9090 210.5741 L 142.0864 210.9910 L 142.2636 211.4080 L 142.4407 211.8250 L 142.6176 212.2421 L 142.7944 212.6593 L 142.9710 213.0765 L 143.1475 213.4938 L 143.3238 213.9112 L 143.5000 214.3286 L 143.6760 214.7461 L 143.8519 215.1636 L 144.0277 215.5812 L 144.2033 215.9989 L 144.3787 216.4166 L 144.5540 216.8344 L 144.7292 217.2523 L 144.9042 217.6702 L 145.0790 218.0882 L 145.2537 218.5062 L 145.4283 218.9243 L 145.6027 219.3424 L 145.7770 219.7607 L 145.9511 220.1789 L 146.1251 220.5973 L 146.2989 221.0157 L 146.4726 221.4342 L 146.6461 221.8527 L 146.8195 222.2713 L 146.9928 222.6899 L 147.1659 223.1086 L 147.3388 223.5274 L 147.5116 223.9462 L 147.6842 224.3651 L 147.8567 224.7841 L 148.0291 225.2031 L 148.2013 225.6222 L 148.3733 226.0413 L 148.5453 226.4605 L 148.7170 226.8798 L 148.8886 227.2991 L 149.0601 227.7184 L 149.2314 228.1379 L 149.4026 228.5574 L 149.5736 228.9769 L 149.7445 229.3966 L 149.9152 229.8162 L 150.0858 230.2360 L 150.2562 230.6558 L 150.4265 231.0756 L 150.5966 231.4956 L 150.7666 231.9155 L 150.9365 232.3356 L 151.1061 232.7557 L 151.2757 233.1758 L 151.4451 233.5960 L 151.6143 234.0163 L 151.7834 234.4367 L 151.9524 234.8571 L 152.1212 235.2775 L 152.2899 235.6980 L 152.4584 236.1186 L 152.6268 236.5392 L 152.7950 236.9599 L 152.9631 237.3807 L 153.1310 237.8015 L 153.2988 238.2223 L 153.4664 238.6433 L 153.6339 239.0642 L 153.8012 239.4853 L 153.9684 239.9064 L 154.1355 240.3275 L 154.3024 240.7487 L 154.4692 241.1700 L 154.6358 241.5913 L 154.8022 242.0127 L 154.9686 242.4342 L 155.1347 242.8557 L 155.3008 243.2772 L 155.4666 243.6988 L 155.6324 244.1205 L 155.7980 244.5422 L 155.9634 244.9640 L 156.1287 245.3859 L 156.2939 245.8078 L 156.4589 246.2297 L 156.6238 246.6517 L 156.7885 247.0738 L 156.9531 247.4959 L 157.1175 247.9181 L 157.2818 248.3404 L 157.4460 248.7627 L 157.6100 249.1850 L 157.7739 249.6074 L 157.9376 250.0299 L 158.1012 250.4524 L 158.2646 250.8750 L 158.4279 251.2976 L 158.5911 251.7203 L 158.7541 252.1430 L 158.9170 252.5658 L 159.0797 252.9886 L 159.2423 253.4115 L 159.4047 253.8345 L 159.5670 254.2575 L 159.7292 254.6805 L 159.8912 255.1037 L 160.0531 255.5268 L 160.2149 255.9500 L 160.3765 256.3733 L 160.5380 256.7966 L 160.6993 257.2200 L 160.8605 257.6435 L 161.0215 258.0669 L 161.1824 258.4905 L 161.3432 258.9141 L 161.5039 259.3377 L 161.6644 259.7614 L 161.8247 260.1852 L 161.9850 260.6089 L 162.1450 261.0328 L 162.3050 261.4567 L 162.4648 261.8807 L 162.6245 262.3047 L 162.7841 262.7287 L 162.9435 263.1528 L 163.1028 263.5770 L 163.2619 264.0012 L 163.4209 264.4254 L 163.5798 264.8497 L 163.7385 265.2741 L 163.8972 265.6985 L 164.0556 266.1229 L 164.2140 266.5474 L 164.3722 266.9720 L 164.5303 267.3966 L 164.6883 267.8212 L 164.8461 268.2459 L 165.0038 268.6707 L 165.1614 269.0955 L 165.3188 269.5203 L 165.4761 269.9452 L 165.6333 270.3701 L 165.7904 270.7951 L 165.9473 271.2202 L 166.1041 271.6452 L 166.2608 272.0703 L 166.4174 272.4955 L 166.5738 272.9207 L 166.7301 273.3460 L 166.8863 273.7713 L 167.0424 274.1966 L 167.1984 274.6220 L 167.3542 275.0475 L 167.5099 275.4729 L 167.6655 275.8985 L 167.8209 276.3240 L 167.9763 276.7496 L 168.1315 277.1753 L 168.2866 277.6010 L 168.4416 278.0267 L 168.5965 278.4525 L 168.7513 278.8783 L 168.9059 279.3042 L 169.0605 279.7301 L 169.2149 280.1561 L 169.3692 280.5820 L 169.5234 281.0081 L 169.6775 281.4341 L 169.8315 281.8603 L 169.9853 282.2864 L 170.1391 282.7126 L 170.2928 283.1388 L 170.4463 283.5651 L 170.5998 283.9914 L 170.7531 284.4177 L 170.9064 284.8441 L 171.0595 285.2705 L 171.2125 285.6969 L 171.3655 286.1234 L 171.5183 286.5499 L 171.6711 286.9765 L 171.8237 287.4031 L 171.9763 287.8297 L 172.1287 288.2564 L 172.2811 288.6830 L 172.4334 289.1098 L 172.5855 289.5365 L 172.7376 289.9633 L 172.8896 290.3901 L 173.0416 290.8170 L 173.1934 291.2439 L 173.3451 291.6708 L 173.4968 292.0977 L 173.6484 292.5247 L 173.7999 292.9517 L 173.9513 293.3787 L 174.1026 293.8057 L 174.2539 294.2328 L 174.4051 294.6599 L 174.5562 295.0870 L 174.7073 295.5142 L 174.8583 295.9414 L 175.0092 296.3686 L 175.1601 296.7958 L 175.3109 297.2230 L 175.4616 297.6503 L 175.6123 298.0776 L 175.7629 298.5049 L 175.9134 298.9322 L 176.0639 299.3596 L 176.2144 299.7870 L 176.3648 300.2143 L 176.5152 300.6417 L 176.6655 301.0692 L 176.8157 301.4966 L 176.9660 301.9240 L 177.1162 302.3515 L 177.2663 302.7790 L 177.4165 303.2064 L 177.5665 303.6339 L 177.7166 304.0614 L 177.8667 304.4889 L 178.0167 304.9165 L 178.1667 305.3440 L 178.3167 305.7715 L 178.4667 306.1990 L 178.6166 306.6266 L 178.7666 307.0541 L 178.9166 307.4817 L 179.0665 307.9092 L 179.2165 308.3367 L 179.3665 308.7643 L 179.5164 309.1918 L 179.6664 309.6193 L 179.8165 310.0468 L 179.9665 310.4743 L 180.1166 310.9019 L 180.2667 311.3293 L 180.4168 311.7568 L 180.5670 312.1843 L 180.7172 312.6117 L 180.8675 313.0392 L 181.0178 313.4666 L 181.1682 313.8940 L 181.3187 314.3213 L 181.4692 314.7487 L 181.6198 315.1760 L 181.7705 315.6033 L 181.9213 316.0305 L 182.0721 316.4577 L 182.2231 316.8849 L 182.3742 317.3121 L 182.5254 317.7392 L 182.6767 318.1662 L 182.8281 318.5932 L 182.9797 319.0202 L 183.1314 319.4471 L 183.2833 319.8740 L 183.4353 320.3008 L 183.5875 320.7275 L 183.7399 321.1542 L 183.8925 321.5809 L 184.0452 322.0074 L 184.1982 322.4339 L 184.3514 322.8603 L 184.5048 323.2866 L 184.6584 323.7128 L 184.8123 324.1390 L 184.9665 324.5650 L 185.1209 324.9909 L 185.2756 325.4168 L 185.4306 325.8425 L 185.5860 326.2681 L 185.7416 326.6936 L 185.8976 327.1190 L 186.0540 327.5442 L 186.2107 327.9693 L 186.3679 328.3943 L 186.5254 328.8191 L 186.6834 329.2437 L 186.8418 329.6682 L 187.0007 330.0925 L 187.1601 330.5166 L 187.3200 330.9405 L 187.4805 331.3643 L 187.6415 331.7878 L 187.8031 332.2110 L 187.9653 332.6341 L 188.1282 333.0569 L 188.2917 333.4794 L 188.4560 333.9016 L 188.6210 334.3236 L 188.7868 334.7452 L 188.9534 335.1666 L 189.1209 335.5876 L 189.2893 336.0082 L 189.4586 336.4284 L 189.6289 336.8483 L 189.8003 337.2677 L 189.9728 337.6866 L 190.1465 338.1051 L 190.3213 338.5231 L 190.4975 338.9405 L 190.6751 339.3573 L 190.8541 339.7736 L 191.0346 340.1891 L 191.2167 340.6040 L 191.4006 341.0181 L 191.5863 341.4313 L 191.7739 341.8437 L 191.9636 342.2552 L 192.1555 342.6656 L 192.3497 343.0750 L 192.5464 343.4831 L 192.7458 343.8899 L 192.9481 344.2954 L 193.1535 344.6992 L 193.3622 345.1013 L 193.5745 345.5016 L 193.7908 345.8997 L 194.0112 346.2955 L 194.2363 346.6887 L 194.4664 347.0790 L 194.7021 347.4660 L 194.9438 347.8492 L 195.1923 348.2281 L 195.4481 348.6020 L 195.7123 348.9700 L 195.9858 349.3313 L 196.2696 349.6844 L 196.5652 350.0277 L 196.8741 350.3592 L 197.1980 350.6759 L 197.5388 350.9743 L 197.8986 351.2495 L 198.2792 351.4950 L 198.6816 351.7028 L 199.1052 351.8628 L 199.5463 351.9647 L 199.9975 352.0000 L 200.4488 351.9654 L 200.8901 351.8642 L 201.3138 351.7048 L 201.7165 351.4975 L 202.0973 351.2523 L 202.4574 350.9774 L 202.7984 350.6793 L 203.1225 350.3627 L 203.4315 350.0314 L 203.7272 349.6882 L 204.0112 349.3352 L 204.2847 348.9740 L 204.5490 348.6060 L 204.8050 348.2322 L 205.0535 347.8533 L 205.2953 347.4702 L 205.5310 347.0833 L 205.7612 346.6930 L 205.9863 346.2998 L 206.2068 345.9041 L 206.4231 345.5059 L 206.6355 345.1057 L 206.8442 344.7036 L 207.0497 344.2998 L 207.2520 343.8944 L 207.4514 343.4876 L 207.6482 343.0794 L 207.8424 342.6701 L 208.0343 342.2597 L 208.2240 341.8482 L 208.4117 341.4358 L 208.5974 341.0226 L 208.7813 340.6085 L 208.9634 340.1936 L 209.1440 339.7781 L 209.3230 339.3619 L 209.5005 338.9450 L 209.6767 338.5276 L 209.8516 338.1097 L 210.0253 337.6912 L 210.1978 337.2723 L 210.3692 336.8528 L 210.5395 336.4330 L 210.7089 336.0128 L 210.8773 335.5922 L 211.0448 335.1712 L 211.2114 334.7498 L 211.3772 334.3282 L 211.5422 333.9062 L 211.7065 333.4840 L 211.8700 333.0615 L 212.0329 332.6387 L 212.1951 332.2156 L 212.3568 331.7924 L 212.5178 331.3689 L 212.6782 330.9452 L 212.8381 330.5212 L 212.9975 330.0971 L 213.1564 329.6728 L 213.3149 329.2484 L 213.4729 328.8237 L 213.6304 328.3989 L 213.7876 327.9740 L 213.9443 327.5489 L 214.1007 327.1236 L 214.2567 326.6983 L 214.4123 326.2728 L 214.5677 325.8472 L 214.7227 325.4214 L 214.8774 324.9956 L 215.0318 324.5696 L 215.1860 324.1436 L 215.3399 323.7175 L 215.4936 323.2912 L 215.6470 322.8649 L 215.8001 322.4385 L 215.9531 322.0120 L 216.1059 321.5855 L 216.2584 321.1589 L 216.4108 320.7322 L 216.5630 320.3055 L 216.7151 319.8786 L 216.8669 319.4518 L 217.0186 319.0249 L 217.1702 318.5979 L 217.3217 318.1709 L 217.4730 317.7438 L 217.6242 317.3167 L 217.7752 316.8896 L 217.9262 316.4624 L 218.0771 316.0352 L 218.2279 315.6079 L 218.3786 315.1806 L 218.5292 314.7533 L 218.6797 314.3260 L 218.8301 313.8986 L 218.9805 313.4712 L 219.1309 313.0438 L 219.2811 312.6164 L 219.4314 312.1889 L 219.5815 311.7615 L 219.7317 311.3340 L 219.8818 310.9065 L 220.0319 310.4790 L 220.1819 310.0515 L 220.3319 309.6240 L 220.4819 309.1965 L 220.6319 308.7689 L 220.7819 308.3414 L 220.9318 307.9139 L 221.0818 307.4863 L 221.2318 307.0588 L 221.3817 306.6312 L 221.5317 306.2037 L 221.6817 305.7762 L 221.8317 305.3486 L 221.9817 304.9211 L 222.1317 304.4936 L 222.2817 304.0661 L 222.4318 303.6386 L 222.5819 303.2111 L 222.7320 302.7836 L 222.8822 302.3561 L 223.0324 301.9287 L 223.1826 301.5012 L 223.3329 301.0738 L 223.4832 300.6464 L 223.6336 300.2190 L 223.7840 299.7916 L 223.9344 299.3642 L 224.0849 298.9369 L 224.2355 298.5096 L 224.3861 298.0823 L 224.5368 297.6550 L 224.6875 297.2277 L 224.8383 296.8005 L 224.9891 296.3732 L 225.1401 295.9460 L 225.2910 295.5189 L 225.4421 295.0917 L 225.5932 294.6646 L 225.7444 294.2375 L 225.8957 293.8104 L 226.0470 293.3833 L 226.1985 292.9563 L 226.3500 292.5293 L 226.5015 292.1024 L 226.6532 291.6754 L 226.8050 291.2485 L 226.9568 290.8216 L 227.1087 290.3948 L 227.2607 289.9680 L 227.4128 289.5412 L 227.5650 289.1144 L 227.7172 288.6877 L 227.8696 288.2610 L 228.0221 287.8344 L 228.1746 287.4077 L 228.3273 286.9811 L 228.4800 286.5546 L 228.6328 286.1281 L 228.7858 285.7016 L 228.9388 285.2751 L 229.0920 284.8487 L 229.2452 284.4224 L 229.3985 283.9960 L 229.5520 283.5697 L 229.7055 283.1435 L 229.8592 282.7172 L 230.0130 282.2910 L 230.1668 281.8649 L 230.3208 281.4388 L 230.4749 281.0127 L 230.6291 280.5867 L 230.7834 280.1607 L 230.9378 279.7348 L 231.0924 279.3089 L 231.2470 278.8830 L 231.4018 278.4572 L 231.5567 278.0314 L 231.7117 277.6056 L 231.8668 277.1799 L 232.0220 276.7543 L 232.1774 276.3287 L 232.3328 275.9031 L 232.4884 275.4776 L 232.6441 275.0521 L 232.7999 274.6267 L 232.9559 274.2013 L 233.1120 273.7759 L 233.2681 273.3506 L 233.4245 272.9254 L 233.5809 272.5002 L 233.7375 272.0750 L 233.8941 271.6499 L 234.0509 271.2248 L 234.2079 270.7998 L 234.3649 270.3748 L 234.5221 269.9498 L 234.6795 269.5250 L 234.8369 269.1001 L 234.9945 268.6753 L 235.1522 268.2506 L 235.3100 267.8259 L 235.4680 267.4012 L 235.6260 266.9766 L 235.7843 266.5521 L 235.9426 266.1276 L 236.1011 265.7031 L 236.2597 265.2787 L 236.4185 264.8544 L 236.5773 264.4301 L 236.7364 264.0058 L 236.8955 263.5816 L 237.0548 263.1574 L 237.2142 262.7333 L 237.3737 262.3093 L 237.5334 261.8853 L 237.6932 261.4613 L 237.8532 261.0374 L 238.0133 260.6136 L 238.1735 260.1898 L 238.3339 259.7660 L 238.4944 259.3423 L 238.6550 258.9187 L 238.8158 258.4951 L 238.9767 258.0716 L 239.1378 257.6481 L 239.2990 257.2246 L 239.4603 256.8013 L 239.6217 256.3779 L 239.7834 255.9547 L 239.9451 255.5314 L 240.1070 255.1083 L 240.2690 254.6852 L 240.4312 254.2621 L 240.5935 253.8391 L 240.7559 253.4161 L 240.9185 252.9932 L 241.0812 252.5704 L 241.2441 252.1476 L 241.4071 251.7249 L 241.5703 251.3022 L 241.7336 250.8796 L 241.8970 250.4570 L 242.0606 250.0345 L 242.2243 249.6120 L 242.3882 249.1896 L 242.5522 248.7673 L 242.7164 248.3450 L 242.8807 247.9227 L 243.0451 247.5005 L 243.2097 247.0784 L 243.3744 246.6564 L 243.5393 246.2343 L 243.7043 245.8124 L 243.8695 245.3905 L 244.0348 244.9686 L 244.2002 244.5468 L 244.3658 244.1251 L 244.5315 243.7034 L 244.6974 243.2818 L 244.8635 242.8603 L 245.0296 242.4388 L 245.1959 242.0173 L 245.3624 241.5959 L 245.5290 241.1746 L 245.6958 240.7533 L 245.8627 240.3321 L 246.0297 239.9110 L 246.1969 239.4899 L 246.3643 239.0688 L 246.5318 238.6478 L 246.6994 238.2269 L 246.8672 237.8061 L 247.0351 237.3852 L 247.2032 236.9645 L 247.3714 236.5438 L 247.5398 236.1232 L 247.7083 235.7026 L 247.8769 235.2821 L 248.0457 234.8616 L 248.2147 234.4412 L 248.3838 234.0209 L 248.5531 233.6006 L 248.7225 233.1804 L 248.8920 232.7603 L 249.0617 232.3402 L 249.2315 231.9201 L 249.4015 231.5001 L 249.5716 231.0802 L 249.7419 230.6604 L 249.9124 230.2406 L 250.0829 229.8208 L 250.2537 229.4011 L 250.4245 228.9815 L 250.5956 228.5620 L 250.7667 228.1425 L 250.9380 227.7230 L 251.1095 227.3036 L 251.2811 226.8843 L 251.4529 226.4651 L 251.6248 226.0459 L 251.7968 225.6267 L 251.9690 225.2077 L 252.1414 224.7886 L 252.3139 224.3697 L 252.4865 223.9508 L 252.6593 223.5320 L 252.8323 223.1132 L 253.0053 222.6945 L 253.1786 222.2758 L 253.3520 221.8572 L 253.5255 221.4387 L 253.6992 221.0202 L 253.8730 220.6018 L 254.0470 220.1835 L 254.2211 219.7652 L 254.3954 219.3470 L 254.5698 218.9288 L 254.7443 218.5107 L 254.9191 218.0927 L 255.0939 217.6747 L 255.2689 217.2568 L 255.4441 216.8390 L 255.6194 216.4212 L 255.7948 216.0035 L 255.9704 215.5858 L 256.1462 215.1682 L 256.3221 214.7506 L 256.4981 214.3332 L 256.6743 213.9157 L 256.8506 213.4984 L 257.0271 213.0811 L 257.2037 212.6639 L 257.3805 212.2467 L 257.5574 211.8296 L 257.7344 211.4125 L 257.9117 210.9956 L 258.0890 210.5786 L 258.2665 210.1618 L 258.4442 209.7450 L 258.6219 209.3282 L 258.7999 208.9116 L 258.9780 208.4950 L 259.1562 208.0784 L 259.3346 207.6619 L 259.5131 207.2455 L 259.6918 206.8291 L 259.8706 206.4128 L 260.0495 205.9966 L 260.2286 205.5804 L 260.4079 205.1643 L 260.5873 204.7483 L 260.7668 204.3323 L 260.9465 203.9164 L 261.1263 203.5005 L 261.3063 203.0847 L 261.4864 202.6690 L 261.6666 202.2533 L 261.8470 201.8377 L 262.0276 201.4221 L 262.2083 201.0066 L 262.3891 200.5912 L 262.5701 200.1758 L 262.7512 199.7605 L 262.9324 199.3453 L 263.1138 198.9301 L 263.2954 198.5150 L 263.4771 198.1000 L 263.6589 197.6850 L 263.8408 197.2700 L 264.0230 196.8552 L 264.2052 196.4404 L 264.3876 196.0256 L 264.5701 195.6109 L 264.7528 195.1963 L 264.9356 194.7818 L 265.1186 194.3673 L 265.3017 193.9528 L 265.4849 193.5385 L 265.6683 193.1242 L 265.8518 192.7099 L 266.0354 192.2957 L 266.2192 191.8816 L 266.4031 191.4675 L 266.5872 191.0535 L 266.7714 190.6396 L 266.9557 190.2257 L 267.1402 189.8119 L 267.3248 189.3981 L 267.5096 188.9844 L 267.6945 188.5708 L 267.8795 188.1572 L 268.0647 187.7437 L 268.2500 187.3303 L 268.4354 186.9169 L 268.6210 186.5035 L 268.8067 186.0903 L 268.9925 185.6771 L 269.1785 185.2639 L 269.3646 184.8508 L 269.5508 184.4378 L 269.7372 184.0248 L 269.9237 183.6119 L 270.1103 183.1991 L 270.2971 182.7863 L 270.4840 182.3735 L 270.6710 181.9609 L 270.8582 181.5483 L 271.0455 181.1357 L 271.2329 180.7232 L 271.4205 180.3108 L 271.6081 179.8984 L 271.7960 179.4861 L 271.9839 179.0738 L 272.1720 178.6616 L 272.3602 178.2495 L 272.5485 177.8374 L 272.7369 177.4254 L 272.9255 177.0134 L 273.1142 176.6015 L 273.3030 176.1896 L 273.4920 175.7779 L 273.6811 175.3661 L 273.8703 174.9544 L 274.0596 174.5428 L 274.2490 174.1312 L 274.4386 173.7197 L 274.6283 173.3083 L 274.8181 172.8969 L 275.0080 172.4855 L 275.1981 172.0742 L 275.3883 171.6630 L 275.5786 171.2518 L 275.7690 170.8407 L 275.9595 170.4296 L 276.1501 170.0186 L 276.3409 169.6077 L 276.5318 169.1968 L 276.7228 168.7859 L 276.9139 168.3751 L 277.1051 167.9644 L 277.2964 167.5537 L 277.4879 167.1430 L 277.6794 166.7324 L 277.8711 166.3219 L 278.0629 165.9114 L 278.2547 165.5010 L 278.4467 165.0906 L 278.6388 164.6802 L 278.8310 164.2700 L 279.0234 163.8597 L 279.2158 163.4495 L 279.4083 163.0394 L 279.6009 162.6293 L 279.7937 162.2193 L 279.9865 161.8093 L 280.1794 161.3993 L 280.3725 160.9894 L 280.5656 160.5796 L 280.7588 160.1698 L 280.9522 159.7600 L 281.1456 159.3503 L 281.3391 158.9406 L 281.5327 158.5310 L 281.7264 158.1214 L 281.9202 157.7119 L 282.1141 157.3024 L 282.3081 156.8930 L 282.5021 156.4835 L 282.6963 156.0742 L 282.8905 155.6648 L 283.0849 155.2556 L 283.2793 154.8463 L 283.4738 154.4371 L 283.6683 154.0279 L 283.8630 153.6188 L 284.0577 153.2097 L 284.2525 152.8006 L 284.4474 152.3916 L 284.6423 151.9826 L 284.8373 151.5737 L 285.0324 151.1648 L 285.2276 150.7559 L 285.4228 150.3470 L 285.6181 149.9382 L 285.8135 149.5294 L 286.0089 149.1206 L 286.2044 148.7119 L 286.3999 148.3032 L 286.5955 147.8945 L 286.7912 147.4858 L 286.9869 147.0772 L 287.1827 146.6686 L 287.3785 146.2600 L 287.5743 145.8515 L 287.7702 145.4429 L 287.9661 145.0344 L 288.1621 144.6259 L 288.3581 144.2175 L 288.5542 143.8090 L 288.7503 143.4005 L 288.9464 142.9921 L 289.1426 142.5837 L 289.3387 142.1753 L 289.5349 141.7669 L 289.7311 141.3585 L 289.9274 140.9501 L 290.1236 140.5418 L 290.3199 140.1334 L 290.5162 139.7251 L 290.7124 139.3167 L 290.9087 138.9083 L 291.1050 138.5000 L 291.3013 138.0916 L 291.4975 137.6833 L 291.6938 137.2749 L 291.8900 136.8665 L 292.0862 136.4582 L 292.2824 136.0498 L 292.4786 135.6414 L 292.6748 135.2329 L 292.8709 134.8245 L 293.0669 134.4161 L 293.2630 134.0076 L 293.4589 133.5991 L 293.6549 133.1906 L 293.8507 132.7820 L 294.0465 132.3734 L 294.2423 131.9648 L 294.4379 131.5562 L 294.6335 131.1475 L 294.8290 130.7387 L 295.0244 130.3300 L 295.2197 129.9212 L 295.4150 129.5123 L 295.6101 129.1034 L 295.8050 128.6944 L 295.9999 128.2854 L 296.1946 127.8763 L 296.3892 127.4671 L 296.5837 127.0579 L 296.7780 126.6486 L 296.9721 126.2392 L 297.1661 125.8298 L 297.3599 125.4202 L 297.5535 125.0106 L 297.7469 124.6009 L 297.9401 124.1910 L 298.1330 123.7811 L 298.3258 123.3711 L 298.5183 122.9609 L 298.7105 122.5507 L 298.9025 122.1403 L 299.0942 121.7298 L 299.2857 121.3191 L 299.4768 120.9083 L 299.6676 120.4974 L 299.8581 120.0863 L 300.0482 119.6750 L 300.2380 119.2636 L 300.4273 118.8520 L 300.6163 118.4402 L 300.8049 118.0283 L 300.9930 117.6161 L 301.1807 117.2037 L 301.3679 116.7911 L 301.5545 116.3783 L 301.7407 115.9652 L 301.9263 115.5519 L 302.1113 115.1383 L 302.2958 114.7245 L 302.4795 114.3104 L 302.6627 113.8959 L 302.8451 113.4812 L 303.0268 113.0662 L 303.2077 112.6508 L 303.3878 112.2350 L 303.5671 111.8189 L 303.7454 111.4024 L 303.9229 110.9855 L 304.0993 110.5682 L 304.2747 110.1505 L 304.4490 109.7323 L 304.6221 109.3136 L 304.7940 108.8944 L 304.9646 108.4746 L 305.1338 108.0543 L 305.3015 107.6335 L 305.4677 107.2120 L 305.6323 106.7898 L 305.7951 106.3670 L 305.9560 105.9435 L 306.1150 105.5192 L 306.2718 105.0941 L 306.4263 104.6682 L 306.5785 104.2415 L 306.7280 103.8138 L 306.8746 103.3851 L 307.0183 102.9554 L 307.1586 102.5246 L 307.2954 102.0927 L 307.4283 101.6595 L 307.5569 101.2251 L 307.6809 100.7893 L 307.7998 100.3521 L 307.9131 99.9134 L 308.0201 99.4732 L 308.1202 99.0313 L 308.2124 98.5877 L 308.2959 98.1424 L 308.3694 97.6953 L 308.4315 97.2465 L 308.4805 96.7961 L 308.5143 96.3444 L 308.5303 95.8916 L 308.5253 95.4386 L 308.4954 94.9866 L 308.4356 94.5376 L 308.3403 94.0948 L 308.2027 93.6633 L 308.0165 93.2506 L 307.7768 92.8666 L 307.4828 92.5224 L 307.1394 92.2276 L 306.7559 91.9870 L 306.3436 91.7999 L 305.9124 91.6616 L 305.4697 91.5656 L 305.0208 91.5053 L 304.5688 91.4749 L 304.1158 91.4696 L 303.6630 91.4853 L 303.2112 91.5188 L 302.7608 91.5676 L 302.3120 91.6295 L 301.8649 91.7028 L 301.4196 91.7861 L 300.9759 91.8783 L 300.5340 91.9782 L 300.0938 92.0851 L 299.6550 92.1983 L 299.2178 92.3171 L 298.7820 92.4410 L 298.3476 92.5696 L 297.9144 92.7024 L 297.4825 92.8391 L 297.0516 92.9794 L 296.6219 93.1230 L 296.1932 93.2696 L 295.7655 93.4191 L 295.3387 93.5711 L 294.9128 93.7257 L 294.4877 93.8824 L 294.0634 94.0414 L 293.6399 94.2023 L 293.2171 94.3650 L 292.7949 94.5296 L 292.3734 94.6957 L 291.9525 94.8635 L 291.5322 95.0327 L 291.1125 95.2032 L 290.6933 95.3751 L 290.2746 95.5482 L 289.8563 95.7224 L 289.4386 95.8978 L 289.0213 96.0742 L 288.6044 96.2516 L 288.1879 96.4300 L 287.7718 96.6092 L 287.3560 96.7893 L 286.9406 96.9702 L 286.5256 97.1519 L 286.1108 97.3343 L 285.6964 97.5174 L 285.2823 97.7012 L 284.8684 97.8856 L 284.4549 98.0707 L 284.0415 98.2563 L 283.6285 98.4424 L 283.2156 98.6291 L 282.8030 98.8163 L 282.3907 99.0039 L 281.9785 99.1920 L 281.5665 99.3806 L 281.1547 99.5696 L 280.7431 99.7589 L 280.3317 99.9487 L 279.9204 100.1388 L 279.5093 100.3293 L 279.0984 100.5201 L 278.6876 100.7112 L 278.2769 100.9026 L 277.8664 101.0943 L 277.4560 101.2863 L 277.0458 101.4786 L 276.6356 101.6711 L 276.2256 101.8638 L 275.8157 102.0568 L 275.4058 102.2500 L 274.9961 102.4434 L 274.5865 102.6370 L 274.1769 102.8307 L 273.7675 103.0247 L 273.3581 103.2188 L 272.9488 103.4131 L 272.5396 103.6076 L 272.1304 103.8022 L 271.7213 103.9969 L 271.3123 104.1918 L 270.9033 104.3867 L 270.4944 104.5818 L 270.0855 104.7771 L 269.6767 104.9724 L 269.2679 105.1678 L 268.8592 105.3633 L 268.4505 105.5589 L 268.0419 105.7545 L 267.6333 105.9503 L 267.2247 106.1461 L 266.8161 106.3419 L 266.4076 106.5378 L 265.9991 106.7338 L 265.5906 106.9298 L 265.1822 107.1259 L 264.7737 107.3220 L 264.3653 107.5182 L 263.9569 107.7143 L 263.5485 107.9105 L 263.1401 108.1068 L 262.7318 108.3030 L 262.3234 108.4993 L 261.9150 108.6955 L 261.5067 108.8918 L 261.0983 109.0881 L 260.6900 109.2843 L 260.2816 109.4806 L 259.8733 109.6769 L 259.4649 109.8732 L 259.0565 110.0694 L 258.6482 110.2656 L 258.2398 110.4619 L 257.8314 110.6581 L 257.4230 110.8542 L 257.0146 111.0504 L 256.6061 111.2465 L 256.1977 111.4426 L 255.7892 111.6386 L 255.3807 111.8347 L 254.9722 112.0306 L 254.5637 112.2266 L 254.1552 112.4225 L 253.7466 112.6183 L 253.3381 112.8141 L 252.9295 113.0099 L 252.5208 113.2056 L 252.1122 113.4013 L 251.7035 113.5969 L 251.2948 113.7924 L 250.8861 113.9879 L 250.4773 114.1833 L 250.0685 114.3787 L 249.6597 114.5740 L 249.2508 114.7692 L 248.8419 114.9644 L 248.4330 115.1595 L 248.0241 115.3545 L 247.6151 115.5494 L 247.2060 115.7443 L 246.7970 115.9391 L 246.3879 116.1338 L 245.9788 116.3285 L 245.5696 116.5231 L 245.1604 116.7175 L 244.7511 116.9120 L 244.3418 117.1063 L 243.9325 117.3005 L 243.5231 117.4947 L 243.1137 117.6887 L 242.7043 117.8827 L 242.2948 118.0766 L 241.8853 118.2704 L 241.4757 118.4641 L 241.0660 118.6577 L 240.6564 118.8512 L 240.2467 119.0447 L 239.8369 119.2380 L 239.4271 119.4312 L 239.0173 119.6244 L 238.6074 119.8174 L 238.1974 120.0103 L 237.7874 120.2032 L 237.3774 120.3959 L 236.9673 120.5885 L 236.5572 120.7811 L 236.1470 120.9735 L 235.7367 121.1658 L 235.3265 121.3580 L 234.9161 121.5501 L 234.5057 121.7421 L 234.0953 121.9340 L 233.6848 122.1258 L 233.2743 122.3174 L 232.8637 122.5090 L 232.4530 122.7005 L 232.0424 122.8918 L 231.6316 123.0830 L 231.2208 123.2741 L 230.8100 123.4651 L 230.3991 123.6560 L 229.9881 123.8467 L 229.5771 124.0374 L 229.1660 124.2279 L 228.7549 124.4183 L 228.3437 124.6086 L 227.9325 124.7988 L 227.5212 124.9888 L 227.1098 125.1788 L 226.6984 125.3686 L 226.2870 125.5583 L 225.8755 125.7479 L 225.4639 125.9373 L 225.0523 126.1266 L 224.6406 126.3158 L 224.2289 126.5049 L 223.8171 126.6939 L 223.4052 126.8827 L 222.9933 127.0714 L 222.5814 127.2600 L 222.1693 127.4484 L 221.7572 127.6368 L 221.3451 127.8250 L 220.9329 128.0130 L 220.5207 128.2010 L 220.1083 128.3888 L 219.6960 128.5765 L 219.2835 128.7640 L 218.8710 128.9514 L 218.4585 129.1387 L 218.0459 129.3259 L 217.6332 129.5129 L 217.2205 129.6998 L 216.8077 129.8866 L 216.3948 130.0732 L 215.9819 130.2598 L 215.5690 130.4461 L 215.1559 130.6324 L 214.7428 130.8185 L 214.3297 131.0045 L 213.9165 131.1903 L 213.5032 131.3760 L 213.0899 131.5616 L 212.6765 131.7470 L 212.2630 131.9323 L 211.8495 132.1175 L 211.4360 132.3025 L 211.0223 132.4874 L 210.6086 132.6721 L 210.1949 132.8568 L 209.7811 133.0412 L 209.3672 133.2256 L 208.9532 133.4098 L 208.5392 133.5939 L 208.1252 133.7778 L 207.7110 133.9616 L 207.2969 134.1452 L 206.8826 134.3287 L 206.4683 134.5121 L 206.0539 134.6953 L 205.6395 134.8784 L 205.2250 135.0614 L 204.8105 135.2442 L 204.3958 135.4269 L 203.9812 135.6094 L 203.5664 135.7918 L 203.1516 135.9741 L 202.7367 136.1562 L 202.3218 136.3381 L 201.9068 136.5200 L 201.4918 136.7017 L 201.0767 136.8832 L 200.6615 137.0646 L 200.2462 137.2459 L 199.8309 137.4270 L 199.4156 137.6079 L 199.0002 137.7888 L 198.5847 137.9695 L 198.1691 138.1500 L 197.7535 138.3304 L 197.3378 138.5107 L 196.9221 138.6908 L 196.5063 138.8707 L 196.0904 139.0506 L 195.6745 139.2303 L 195.2585 139.4098 L 194.8425 139.5892 L 194.4264 139.7684 L 194.0102 139.9475 L 193.5940 140.1265 L 193.1777 140.3053 L 192.7613 140.4840 L 192.3449 140.6625 L 191.9284 140.8409 L 191.5118 141.0191 L 191.0952 141.1972 L 190.6786 141.3751 L 190.2618 141.5529 L 189.8450 141.7306 L 189.4282 141.9081 L 189.0113 142.0854 L 188.5943 142.2626 L 188.1772 142.4397 L 187.7601 142.6166 L 187.3429 142.7934 L 186.9257 142.9700 L 186.5084 143.1465 L 186.0911 143.3228 L 185.6737 143.4990 L 185.2562 143.6751 L 184.8386 143.8510 L 184.4210 144.0267 L 184.0034 144.2023 L 183.5856 144.3777 L 183.1679 144.5531 L 182.7500 144.7282 L 182.3321 144.9032 L 181.9141 145.0781 L 181.4961 145.2528 L 181.0780 145.4274 L 180.6598 145.6018 L 180.2416 145.7760 L 179.8233 145.9502 L 179.4050 146.1242 L 178.9866 146.2980 L 178.5681 146.4717 L 178.1496 146.6452 L 177.7310 146.8186 L 177.3124 146.9918 L 176.8937 147.1649 L 176.4749 147.3379 L 176.0560 147.5106 L 175.6372 147.6833 L 175.2182 147.8558 L 174.7992 148.0281 L 174.3801 148.2004 L 173.9610 148.3724 L 173.5418 148.5443 L 173.1225 148.7161 L 172.7032 148.8877 L 172.2838 149.0592 L 171.8644 149.2305 L 171.4449 149.4016 L 171.0253 149.5727 L 170.6057 149.7435 L 170.1860 149.9143 L 169.7663 150.0848 L 169.3465 150.2553 L 168.9266 150.4256 L 168.5067 150.5957 L 168.0867 150.7657 L 167.6667 150.9355 L 167.2466 151.1052 L 166.8265 151.2748 L 166.4062 151.4442 L 165.9860 151.6134 L 165.5656 151.7825 L 165.1452 151.9515 L 164.7248 152.1203 L 164.3043 152.2890 L 163.8837 152.4575 L 163.4631 152.6258 L 163.0424 152.7941 L 162.6216 152.9621 L 162.2008 153.1301 L 161.7800 153.2979 L 161.3590 153.4655 L 160.9381 153.6330 L 160.5170 153.8003 L 160.0959 153.9675 L 159.6748 154.1346 L 159.2535 154.3015 L 158.8323 154.4682 L 158.4109 154.6349 L 157.9896 154.8013 L 157.5681 154.9676 L 157.1466 155.1338 L 156.7251 155.2999 L 156.3034 155.4657 L 155.8818 155.6315 L 155.4600 155.7971 L 155.0383 155.9625 L 154.6164 156.1278 L 154.1945 156.2930 L 153.7726 156.4580 L 153.3505 156.6229 L 152.9285 156.7876 L 152.5064 156.9522 L 152.0842 157.1167 L 151.6619 157.2809 L 151.2396 157.4451 L 150.8173 157.6091 L 150.3949 157.7730 L 149.9724 157.9367 L 149.5499 158.1003 L 149.1273 158.2637 L 148.7047 158.4270 L 148.2820 158.5902 L 147.8593 158.7532 L 147.4365 158.9161 L 147.0137 159.0788 L 146.5908 159.2414 L 146.1678 159.4039 L 145.7448 159.5662 L 145.3218 159.7283 L 144.8986 159.8904 L 144.4755 160.0522 L 144.0523 160.2140 L 143.6290 160.3756 L 143.2057 160.5371 L 142.7823 160.6984 L 142.3588 160.8596 L 141.9354 161.0206 L 141.5118 161.1816 L 141.0882 161.3423 L 140.6646 161.5030 L 140.2409 161.6635 L 139.8172 161.8238 L 139.3934 161.9841 L 138.9695 162.1442 L 138.5456 162.3041 L 138.1217 162.4639 L 137.6976 162.6236 L 137.2736 162.7832 L 136.8495 162.9426 L 136.4253 163.1019 L 136.0011 163.2610 L 135.5769 163.4200 L 135.1526 163.5789 L 134.7282 163.7377 L 134.3038 163.8963 L 133.8794 164.0548 L 133.4549 164.2131 L 133.0303 164.3714 L 132.6057 164.5294 L 132.1811 164.6874 L 131.7564 164.8452 L 131.3316 165.0029 L 130.9068 165.1605 L 130.4820 165.3180 L 130.0571 165.4753 L 129.6322 165.6325 L 129.2072 165.7895 L 128.7822 165.9465 L 128.3571 166.1033 L 127.9320 166.2600 L 127.5068 166.4165 L 127.0816 166.5730 L 126.6563 166.7293 L 126.2310 166.8855 L 125.8057 167.0416 L 125.3803 167.1975 L 124.9548 167.3533 L 124.5294 167.5090 L 124.1038 167.6646 L 123.6783 167.8201 L 123.2527 167.9754 L 122.8270 168.1307 L 122.4013 168.2858 L 121.9756 168.4408 L 121.5498 168.5957 L 121.1240 168.7504 L 120.6981 168.9051 L 120.2722 169.0596 L 119.8463 169.2140 L 119.4203 169.3684 L 118.9942 169.5226 L 118.5682 169.6767 L 118.1421 169.8306 L 117.7159 169.9845 L 117.2897 170.1383 L 116.8635 170.2919 L 116.4372 170.4455 L 116.0109 170.5989 L 115.5846 170.7523 L 115.1582 170.9055 L 114.7318 171.0587 L 114.3054 171.2117 L 113.8789 171.3647 L 113.4524 171.5175 L 113.0258 171.6702 L 112.5992 171.8229 L 112.1726 171.9754 L 111.7460 172.1279 L 111.3193 172.2803 L 110.8926 172.4325 L 110.4658 172.5847 L 110.0390 172.7368 L 109.6122 172.8888 L 109.1853 173.0407 L 108.7585 173.1926 L 108.3316 173.3443 L 107.9046 173.4960 L 107.4777 173.6475 L 107.0507 173.7991 L 106.6236 173.9505 L 106.1966 174.1018 L 105.7695 174.2531 L 105.3424 174.4043 L 104.9153 174.5554 L 104.4881 174.7065 L 104.0609 174.8575 L 103.6337 175.0084 L 103.2065 175.1592 L 102.7793 175.3100 L 102.3520 175.4608 L 101.9247 175.6114 L 101.4974 175.7621 L 101.0701 175.9126 L 100.6427 176.0631 L 100.2154 176.2136 L 99.7880 176.3640 L 99.3606 176.5143 L 98.9332 176.6647 L 98.5057 176.8149 L 98.0783 176.9652 L 97.6508 177.1153 L 97.2234 177.2655 L 96.7959 177.4156 L 96.3684 177.5657 L 95.9409 177.7158 L 95.5134 177.8658 L 95.0859 178.0159 L 94.6583 178.1659 L 94.2308 178.3159 L 93.8033 178.4658 L 93.3757 178.6158 L 92.9482 178.7658 L 92.5207 178.9157 L 92.0931 179.0657 L 91.6656 179.2157 L 91.2381 179.3656 L 90.8105 179.5156 L 90.3830 179.6656 L 89.9555 179.8156 L 89.5280 179.9657 L 89.1005 180.1158 L 88.6730 180.2659 L 88.2455 180.4160 L 87.8180 180.5662 L 87.3906 180.7164 L 86.9632 180.8667 L 86.5358 181.0170 L 86.1084 181.1674 L 85.6810 181.3178 L 85.2537 181.4684 L 84.8264 181.6190 L 84.3991 181.7697 L 83.9718 181.9204 L 83.5446 182.0713 L 83.1174 182.2223 L 82.6903 182.3733 L 82.2632 182.5245 L 81.8361 182.6759 L 81.4091 182.8273 L 80.9821 182.9789 L 80.5552 183.1306 L 80.1283 183.2825 L 79.7015 183.4345 L 79.2748 183.5867 L 78.8481 183.7391 L 78.4215 183.8916 L 77.9949 184.0444 L 77.5684 184.1973 L 77.1420 184.3505 L 76.7157 184.5039 L 76.2895 184.6576 L 75.8634 184.8115 L 75.4373 184.9656 L 75.0114 185.1201 L 74.5855 185.2748 L 74.1598 185.4298 L 73.7342 185.5851 L 73.3087 185.7408 L 72.8833 185.8968 L 72.4581 186.0531 L 72.0330 186.2099 L 71.6080 186.3670 L 71.1832 186.5245 L 70.7586 186.6825 L 70.3341 186.8409 L 69.9098 186.9998 L 69.4857 187.1592 L 69.0618 187.3191 L 68.6380 187.4796 L 68.2145 187.6406 L 67.7913 187.8022 L 67.3682 187.9644 L 66.9454 188.1273 L 66.5229 188.2908 L 66.1007 188.4551 L 65.6787 188.6201 L 65.2570 188.7859 L 64.8357 188.9525 L 64.4147 189.1200 L 63.9941 189.2884 L 63.5739 189.4577 L 63.1540 189.6280 L 62.7346 189.7994 L 62.3156 189.9719 L 61.8972 190.1455 L 61.4792 190.3204 L 61.0618 190.4966 L 60.6449 190.6741 L 60.2287 190.8531 L 59.8131 191.0336 L 59.3983 191.2157 L 58.9842 191.3996 L 58.5709 191.5853 L 58.1585 191.7729 L 57.7470 191.9625 L 57.3366 192.1544 L 56.9272 192.3486 L 56.5191 192.5453 L 56.1123 192.7447 L 55.7068 192.9470 L 55.3030 193.1524 L 54.9008 193.3611 L 54.5006 193.5734 L 54.1024 193.7896 L 53.7066 194.0100 L 53.3134 194.2351 L 52.9231 194.4652 L 52.5361 194.7008 L 52.1529 194.9425 L 51.7740 195.1909 L 51.4001 195.4467 L 51.0319 195.7109 L 50.6707 195.9843 L 50.3175 196.2680 L 49.9741 196.5636 L 49.6426 196.8724 L 49.3258 197.1962 L 49.0273 197.5369 L 48.7519 197.8966 L 48.5062 198.2771 L 48.2982 198.6794 L 48.1379 199.1028 L 48.0357 199.5438 L 48.0000 199.9951 L 48.0342 200.4464 L 48.1351 200.8877 L 48.2942 201.3116 L 48.5012 201.7144 L 48.7462 202.0953 L 49.0210 202.4554 L 49.3190 202.7966 L 49.6355 203.1207 L 49.9667 203.4298 L 50.3099 203.7256 L 50.6629 204.0097 L 51.0240 204.2833 L 51.3920 204.5476 L 51.7658 204.8036 L 52.1446 205.0522 L 52.5277 205.2940 L 52.9146 205.5297 L 53.3048 205.7599 L 53.6980 205.9851 L 54.0938 206.2056 L 54.4919 206.4219 L 54.8921 206.6343 L 55.2942 206.8431 L 55.6980 207.0485 L 56.1034 207.2509 L 56.5102 207.4503 L 56.9183 207.6471 L 57.3276 207.8414 L 57.7381 208.0333 L 58.1495 208.2230 L 58.5619 208.4107 L 58.9752 208.5964 L 59.3892 208.7803 L 59.8041 208.9624 L 60.2196 209.1430 L 60.6358 209.3220 L 61.0527 209.4996 L 61.4701 209.6758 L 61.8880 209.8507 L 62.3065 210.0243 L 62.7255 210.1969 L 63.1449 210.3683 L 63.5647 210.5386 L 63.9849 210.7080 L 64.4055 210.8764 L 64.8265 211.0438 L 65.2479 211.2105 L 65.6695 211.3763 L 66.0915 211.5413 L 66.5137 211.7056 L 66.9362 211.8691 L 67.3590 212.0320 L 67.7820 212.1943 L 68.2053 212.3559 L 68.6288 212.5169 L 69.0525 212.6774 L 69.4764 212.8373 L 69.9005 212.9967 L 70.3248 213.1556 L 70.7493 213.3140 L 71.1739 213.4720 L 71.5987 213.6296 L 72.0237 213.7867 L 72.4488 213.9434 L 72.8740 214.0998 L 73.2994 214.2558 L 73.7249 214.4115 L 74.1505 214.5668 L 74.5762 214.7218 L 75.0021 214.8766 L 75.4280 215.0310 L 75.8541 215.1852 L 76.2802 215.3391 L 76.7064 215.4927 L 77.1328 215.6461 L 77.5591 215.7993 L 77.9856 215.9523 L 78.4122 216.1050 L 78.8388 216.2576 L 79.2655 216.4100 L 79.6922 216.5622 L 80.1190 216.7142 L 80.5459 216.8661 L 80.9728 217.0178 L 81.3998 217.1694 L 81.8268 217.3208 L 82.2538 217.4722 L 82.6809 217.6233 L 83.1081 217.7744 L 83.5353 217.9254 L 83.9625 218.0763 L 84.3897 218.2270 L 84.8170 218.3777 L 85.2443 218.5283 L 85.6717 218.6789 L 86.0990 218.8293 L 86.5264 218.9797 L 86.9538 219.1300 L 87.3813 219.2803 L 87.8087 219.4305 L 88.2362 219.5807 L 88.6637 219.7309 L 89.0911 219.8810 L 89.5187 220.0310 L 89.9462 220.1811 L 90.3737 220.3311 L 90.8012 220.4811 L 91.2287 220.6311 L 91.6563 220.7811 L 92.0838 220.9310 L 92.5113 221.0810 L 92.9389 221.2309 L 93.3664 221.3809 L 93.7940 221.5309 L 94.2215 221.6809 L 94.6490 221.8308 L 95.0765 221.9808 L 95.5041 222.1309 L 95.9316 222.2809 L 96.3591 222.4310 L 96.7866 222.5811 L 97.2140 222.7312 L 97.6415 222.8814 L 98.0690 223.0316 L 98.4964 223.1818 L 98.9238 223.3321 L 99.3513 223.4824 L 99.7787 223.6327 L 100.2060 223.7831 L 100.6334 223.9336 L 101.0608 224.0841 L 101.4881 224.2347 L 101.9154 224.3853 L 102.3427 224.5359 L 102.7700 224.6867 L 103.1972 224.8375 L 103.6244 224.9883 L 104.0516 225.1392 L 104.4788 225.2902 L 104.9060 225.4413 L 105.3331 225.5924 L 105.7602 225.7436 L 106.1873 225.8949 L 106.6143 226.0462 L 107.0413 226.1976 L 107.4683 226.3491 L 107.8953 226.5007 L 108.3223 226.6524 L 108.7492 226.8041 L 109.1760 226.9560 L 109.6029 227.1079 L 110.0297 227.2599 L 110.4565 227.4120 L 110.8832 227.5641 L 111.3100 227.7164 L 111.7367 227.8688 L 112.1633 228.0212 L 112.5899 228.1738 L 113.0165 228.3264 L 113.4431 228.4792 L 113.8696 228.6320 L 114.2961 228.7849 L 114.7225 228.9380 L 115.1489 229.0911 L 115.5753 229.2444 L 116.0017 229.3977 L 116.4280 229.5512 L 116.8542 229.7047 L 117.2804 229.8584 L 117.7066 230.0121 L 118.1328 230.1660 L 118.5589 230.3200 L 118.9849 230.4741 L 119.4110 230.6283 L 119.8370 230.7826 L 120.2629 230.9370 L 120.6888 231.0915 L 121.1147 231.2462 L 121.5405 231.4010 L 121.9663 231.5558 L 122.3920 231.7108 L 122.8177 231.8659 L 123.2434 232.0212 L 123.6690 232.1765 L 124.0946 232.3320 L 124.5201 232.4876 L 124.9456 232.6433 L 125.3710 232.7991 L 125.7964 232.9550 L 126.2217 233.1111 L 126.6471 233.2673 L 127.0723 233.4236 L 127.4975 233.5800 L 127.9227 233.7366 L 128.3478 233.8933 L 128.7729 234.0501 L 129.1979 234.2070 L 129.6229 234.3641 L 130.0478 234.5213 L 130.4727 234.6786 L 130.8976 234.8360 L 131.3224 234.9936 L 131.7471 235.1513 L 132.1718 235.3091 L 132.5964 235.4671 L 133.0210 235.6252 L 133.4456 235.7834 L 133.8701 235.9418 L 134.2946 236.1002 L 134.7190 236.2589 L 135.1433 236.4176 L 135.5676 236.5765 L 135.9919 236.7355 L 136.4161 236.8946 L 136.8402 237.0539 L 137.2643 237.2133 L 137.6884 237.3729 L 138.1124 237.5326 L 138.5364 237.6924 L 138.9603 237.8523 L 139.3841 238.0124 L 139.8079 238.1726 L 140.2317 238.3330 L 140.6554 238.4935 L 141.0790 238.6541 L 141.5026 238.8149 L 141.9261 238.9758 L 142.3496 239.1369 L 142.7730 239.2981 L 143.1964 239.4594 L 143.6198 239.6209 L 144.0430 239.7825 L 144.4663 239.9442 L 144.8894 240.1061 L 145.3125 240.2681 L 145.7356 240.4303 L 146.1586 240.5926 L 146.5816 240.7550 L 147.0045 240.9176 L 147.4273 241.0804 L 147.8501 241.2432 L 148.2728 241.4062 L 148.6955 241.5694 L 149.1181 241.7327 L 149.5407 241.8961 L 149.9632 242.0597 L 150.3857 242.2234 L 150.8081 242.3873 L 151.2304 242.5513 L 151.6527 242.7155 L 152.0750 242.8798 L 152.4971 243.0442 L 152.9193 243.2088 L 153.3413 243.3735 L 153.7634 243.5384 L 154.1853 243.7034 L 154.6072 243.8686 L 155.0291 244.0339 L 155.4508 244.1993 L 155.8726 244.3649 L 156.2942 244.5306 L 156.7159 244.6965 L 157.1374 244.8625 L 157.5589 245.0287 L 157.9804 245.1950 L 158.4018 245.3615 L 158.8231 245.5281 L 159.2444 245.6949 L 159.6656 245.8618 L 160.0867 246.0288 L 160.5078 246.1960 L 160.9289 246.3634 L 161.3499 246.5308 L 161.7708 246.6985 L 162.1916 246.8663 L 162.6125 247.0342 L 163.0332 247.2023 L 163.4539 247.3705 L 163.8745 247.5388 L 164.2951 247.7074 L 164.7156 247.8760 L 165.1361 248.0448 L 165.5565 248.2138 L 165.9768 248.3829 L 166.3971 248.5521 L 166.8173 248.7215 L 167.2374 248.8911 L 167.6575 249.0608 L 168.0776 249.2306 L 168.4976 249.4006 L 168.9175 249.5707 L 169.3373 249.7410 L 169.7571 249.9114 L 170.1769 250.0820 L 170.5966 250.2527 L 171.0162 250.4236 L 171.4357 250.5946 L 171.8552 250.7658 L 172.2747 250.9371 L 172.6941 251.1086 L 173.1134 251.2802 L 173.5326 251.4519 L 173.9518 251.6238 L 174.3710 251.7959 L 174.7901 251.9681 L 175.2091 252.1404 L 175.6280 252.3129 L 176.0469 252.4856 L 176.4657 252.6584 L 176.8845 252.8313 L 177.3032 253.0044 L 177.7219 253.1776 L 178.1405 253.3510 L 178.5590 253.5245 L 178.9775 253.6982 L 179.3959 253.8720 L 179.8142 254.0460 L 180.2325 254.2201 L 180.6507 254.3944 L 181.0689 254.5688 L 181.4870 254.7434 L 181.9050 254.9181 L 182.3230 255.0930 L 182.7409 255.2680 L 183.1587 255.4431 L 183.5765 255.6184 L 183.9943 255.7939 L 184.4119 255.9695 L 184.8295 256.1452 L 185.2471 256.3211 L 185.6646 256.4971 L 186.0820 256.6733 L 186.4993 256.8496 L 186.9166 257.0261 L 187.3339 257.2027 L 187.7510 257.3795 L 188.1681 257.5564 L 188.5852 257.7335 L 189.0022 257.9107 L 189.4191 258.0880 L 189.8359 258.2655 L 190.2527 258.4432 L 190.6695 258.6210 L 191.0861 258.7989 L 191.5028 258.9770 L 191.9193 259.1552 L 192.3358 259.3336 L 192.7522 259.5121 L 193.1686 259.6908 L 193.5849 259.8696 L 194.0011 260.0486 L 194.4173 260.2277 L 194.8334 260.4069 L 195.2494 260.5863 L 195.6654 260.7658 L 196.0814 260.9455 L 196.4972 261.1253 L 196.9130 261.3053 L 197.3288 261.4854 L 197.7444 261.6657 L 198.1601 261.8461 L 198.5756 262.0266 L 198.9911 262.2073 L 199.4065 262.3881 L 199.8219 262.5691 L 200.2372 262.7502 L 200.6524 262.9314 L 201.0676 263.1128 L 201.4827 263.2944 L 201.8978 263.4761 L 202.3128 263.6579 L 202.7277 263.8399 L 203.1426 264.0220 L 203.5574 264.2042 L 203.9721 264.3866 L 204.3868 264.5691 L 204.8014 264.7518 L 205.2160 264.9346 L 205.6305 265.1176 L 206.0449 265.3007 L 206.4593 265.4839 L 206.8736 265.6673 L 207.2878 265.8508 L 207.7020 266.0344 L 208.1161 266.2182 L 208.5302 266.4021 L 208.9442 266.5862 L 209.3582 266.7704 L 209.7720 266.9547 L 210.1859 267.1392 L 210.5996 267.3238 L 211.0133 267.5086 L 211.4269 267.6935 L 211.8405 267.8785 L 212.2540 268.0637 L 212.6675 268.2489 L 213.0809 268.4344 L 213.4942 268.6199 L 213.9075 268.8057 L 214.3207 268.9915 L 214.7338 269.1775 L 215.1469 269.3636 L 215.5600 269.5498 L 215.9729 269.7362 L 216.3858 269.9227 L 216.7987 270.1093 L 217.2115 270.2961 L 217.6242 270.4830 L 218.0369 270.6700 L 218.4495 270.8572 L 218.8620 271.0445 L 219.2745 271.2319 L 219.6870 271.4194 L 220.0993 271.6071 L 220.5117 271.7949 L 220.9239 271.9829 L 221.3361 272.1709 L 221.7483 272.3591 L 222.1603 272.5475 L 222.5724 272.7359 L 222.9843 272.9245 L 223.3962 273.1132 L 223.8081 273.3020 L 224.2199 273.4910 L 224.6316 273.6800 L 225.0433 273.8692 L 225.4549 274.0586 L 225.8665 274.2480 L 226.2780 274.4376 L 226.6895 274.6273 L 227.1009 274.8171 L 227.5122 275.0070 L 227.9235 275.1971 L 228.3347 275.3872 L 228.7459 275.5775 L 229.1570 275.7679 L 229.5681 275.9584 L 229.9791 276.1491 L 230.3901 276.3398 L 230.8010 276.5307 L 231.2119 276.7217 L 231.6227 276.9128 L 232.0334 277.1040 L 232.4441 277.2954 L 232.8547 277.4868 L 233.2653 277.6784 L 233.6759 277.8700 L 234.0864 278.0618 L 234.4968 278.2537 L 234.9072 278.4457 L 235.3175 278.6378 L 235.7278 278.8300 L 236.1380 279.0223 L 236.5482 279.2147 L 236.9584 279.4073 L 237.3684 279.5999 L 237.7785 279.7926 L 238.1885 279.9854 L 238.5984 280.1784 L 239.0083 280.3714 L 239.4182 280.5645 L 239.8280 280.7578 L 240.2377 280.9511 L 240.6474 281.1445 L 241.0571 281.3380 L 241.4667 281.5317 L 241.8763 281.7254 L 242.2859 281.9192 L 242.6954 282.1130 L 243.1048 282.3070 L 243.5142 282.5011 L 243.9236 282.6952 L 244.3329 282.8895 L 244.7422 283.0838 L 245.1514 283.2782 L 245.5607 283.4727 L 245.9698 283.6673 L 246.3790 283.8619 L 246.7881 284.0566 L 247.1971 284.2514 L 247.6061 284.4463 L 248.0151 284.6413 L 248.4241 284.8363 L 248.8330 285.0314 L 249.2419 285.2265 L 249.6508 285.4218 L 250.0596 285.6171 L 250.4684 285.8124 L 250.8771 286.0078 L 251.2859 286.2033 L 251.6946 286.3989 L 252.1033 286.5945 L 252.5119 286.7901 L 252.9205 286.9858 L 253.3291 287.1816 L 253.7377 287.3774 L 254.1463 287.5732 L 254.5548 287.7691 L 254.9633 287.9651 L 255.3718 288.1611 L 255.7803 288.3571 L 256.1888 288.5531 L 256.5972 288.7492 L 257.0057 288.9453 L 257.4141 289.1415 L 257.8225 289.3377 L 258.2309 289.5339 L 258.6392 289.7301 L 259.0476 289.9263 L 259.4560 290.1226 L 259.8644 290.3188 L 260.2727 290.5151 L 260.6811 290.7114 L 261.0894 290.9076 L 261.4978 291.1039 L 261.9061 291.3002 L 262.3145 291.4965 L 262.7229 291.6927 L 263.1312 291.8890 L 263.5396 292.0852 L 263.9480 292.2814 L 264.3564 292.4776 L 264.7648 292.6737 L 265.1733 292.8698 L 265.5817 293.0659 L 265.9902 293.2619 L 266.3987 293.4579 L 266.8072 293.6538 L 267.2158 293.8497 L 267.6243 294.0455 L 268.0330 294.2412 L 268.4416 294.4369 L 268.8503 294.6325 L 269.2590 294.8280 L 269.6678 295.0234 L 270.0766 295.2187 L 270.4855 295.4139 L 270.8944 295.6090 L 271.3034 295.8040 L 271.7124 295.9988 L 272.1215 296.1936 L 272.5306 296.3882 L 272.9399 296.5826 L 273.3492 296.7769 L 273.7585 296.9711 L 274.1680 297.1650 L 274.5775 297.3588 L 274.9872 297.5524 L 275.3969 297.7458 L 275.8067 297.9390 L 276.2166 298.1320 L 276.6267 298.3247 L 277.0368 298.5172 L 277.4471 298.7095 L 277.8575 298.9015 L 278.2680 299.0932 L 278.6786 299.2846 L 279.0894 299.4758 L 279.5004 299.6666 L 279.9115 299.8570 L 280.3227 300.0472 L 280.7341 300.2369 L 281.1457 300.4263 L 281.5575 300.6153 L 281.9695 300.8038 L 282.3817 300.9920 L 282.7940 301.1796 L 283.2066 301.3668 L 283.6195 301.5535 L 284.0325 301.7397 L 284.4458 301.9253 L 284.8594 302.1103 L 285.2733 302.2948 L 285.6874 302.4785 L 286.1018 302.6617 L 286.5165 302.8441 L 286.9316 303.0258 L 287.3470 303.2067 L 287.7627 303.3868 L 288.1788 303.5661 L 288.5953 303.7445 L 289.0122 303.9219 L 289.4295 304.0983 L 289.8472 304.2737 L 290.2654 304.4480 L 290.6841 304.6211 L 291.1033 304.7930 L 291.5231 304.9636 L 291.9434 305.1329 L 292.3642 305.3006 L 292.7857 305.4668 L 293.2079 305.6314 L 293.6307 305.7942 L 294.0542 305.9551 L 294.4785 306.1141 L 294.9035 306.2709 L 295.3294 306.4255 L 295.7562 306.5776 L 296.1839 306.7271 L 296.6126 306.8738 L 297.0423 307.0175 L 297.4731 307.1579 L 297.9050 307.2946 L 298.3381 307.4276 L 298.7725 307.5562 L 299.2083 307.6803 L 299.6455 307.7992 L 300.0842 307.9125 L 300.5244 308.0195 L 300.9663 308.1196 L 301.4099 308.2119 L 301.8552 308.2955 L 302.3022 308.3690 L 302.7510 308.4312 L 303.2014 308.4803 L 303.6532 308.5142 L 304.1059 308.5303 L 304.5589 308.5254 L 305.0110 308.4956 L 305.4600 308.4360 L 305.9028 308.3409 L 306.3344 308.2036 L 306.7472 308.0176 L 307.1314 307.7783 L 307.4759 307.4846 L 307.7710 307.1414 L 308.0118 306.7581 L 308.1992 306.3459 L 308.3377 305.9148 L 308.4340 305.4722 L 308.4944 305.0232 L 308.5250 304.5713 L 308.5304 304.1183 L 308.5149 303.6655 L 308.4814 303.2137 L 308.4327 302.7632 L 308.3709 302.3144 L 308.2976 301.8673 L 308.2143 301.4220 L 308.1223 300.9784 L 308.0224 300.5364 L 307.9155 300.0962 L 307.8024 299.6574 L 307.6836 299.2202 L 307.5597 298.7844 L 307.4311 298.3499 L 307.2983 297.9168 L 307.1616 297.4848 L 307.0214 297.0540 L 306.8778 296.6243 L 306.7312 296.1956 L 306.5817 295.7678 L 306.4297 295.3411 L 306.2752 294.9151 L 306.1184 294.4900 L 305.9595 294.0658 L 305.7986 293.6422 L 305.6358 293.2194 L 305.4713 292.7972 L 305.3052 292.3757 L 305.1374 291.9548 L 304.9683 291.5345 L 304.7977 291.1148 L 304.6259 290.6956 L 304.4528 290.2768 L 304.2785 289.8586 L 304.1031 289.4409 L 303.9267 289.0235 L 303.7493 288.6066 L 303.5710 288.1901 L 303.3917 287.7740 L 303.2116 287.3583 L 303.0307 286.9429 L 302.8491 286.5278 L 302.6667 286.1131 L 302.4835 285.6987 L 302.2998 285.2845 L 302.1154 284.8707 L 301.9303 284.4571 L 301.7447 284.0438 L 301.5586 283.6307 L 301.3719 283.2179 L 301.1848 282.8053 L 300.9971 282.3929 L 300.8090 281.9807 L 300.6204 281.5687 L 300.4315 281.1570 L 300.2421 280.7454 L 300.0523 280.3339 L 299.8622 279.9227 L 299.6718 279.5116 L 299.4810 279.1006 L 299.2898 278.6898 L 299.0984 278.2792 L 298.9067 277.8687 L 298.7147 277.4583 L 298.5225 277.0480 L 298.3300 276.6379 L 298.1372 276.2278 L 297.9443 275.8179 L 297.7511 275.4081 L 297.5577 274.9983 L 297.3641 274.5887 L 297.1703 274.1792 L 296.9763 273.7697 L 296.7822 273.3603 L 296.5879 272.9510 L 296.3935 272.5418 L 296.1989 272.1326 L 296.0042 271.7235 L 295.8093 271.3145 L 295.6143 270.9055 L 295.4192 270.4966 L 295.2240 270.0877 L 295.0287 269.6789 L 294.8333 269.2702 L 294.6378 268.8614 L 294.4422 268.4527 L 294.2465 268.0441 L 294.0508 267.6355 L 293.8550 267.2269 L 293.6591 266.8183 L 293.4632 266.4098 L 293.2672 266.0013 L 293.0712 265.5928 L 292.8751 265.1844 L 292.6790 264.7760 L 292.4829 264.3675 L 292.2867 263.9591 L 292.0905 263.5507 L 291.8943 263.1424 L 291.6981 262.7340 L 291.5018 262.3256 L 291.3055 261.9173 L 291.1093 261.5089 L 290.9130 261.1006 L 290.7167 260.6922 L 290.5204 260.2838 L 290.3242 259.8755 L 290.1279 259.4671 L 289.9317 259.0588 L 289.7354 258.6504 L 289.5392 258.2420 L 289.3430 257.8336 L 289.1468 257.4252 L 288.9507 257.0168 L 288.7546 256.6084 L 288.5585 256.1999 L 288.3624 255.7914 L 288.1664 255.3830 L 287.9704 254.9745 L 287.7745 254.5660 L 287.5786 254.1574 L 287.3827 253.7489 L 287.1869 253.3403 L 286.9912 252.9317 L 286.7955 252.5231 L 286.5998 252.1144 L 286.4042 251.7057 L 286.2087 251.2970 L 286.0132 250.8883 L 285.8178 250.4795 L 285.6224 250.0707 L 285.4271 249.6619 L 285.2319 249.2530 L 285.0367 248.8442 L 284.8416 248.4352 L 284.6466 248.0263 L 284.4516 247.6173 L 284.2567 247.2083 L 284.0619 246.7992 L 283.8672 246.3901 L 283.6726 245.9810 L 283.4780 245.5718 L 283.2835 245.1626 L 283.0891 244.7534 L 282.8948 244.3441 L 282.7005 243.9347 L 282.5064 243.5254 L 282.3123 243.1160 L 282.1183 242.7065 L 281.9244 242.2970 L 281.7306 241.8875 L 281.5369 241.4779 L 281.3433 241.0683 L 281.1498 240.6586 L 280.9564 240.2489 L 280.7630 239.8391 L 280.5698 239.4293 L 280.3767 239.0195 L 280.1836 238.6096 L 279.9907 238.1996 L 279.7979 237.7897 L 279.6051 237.3796 L 279.4125 236.9695 L 279.2200 236.5594 L 279.0276 236.1492 L 278.8352 235.7390 L 278.6430 235.3287 L 278.4509 234.9184 L 278.2589 234.5080 L 278.0670 234.0975 L 277.8753 233.6871 L 277.6836 233.2765 L 277.4920 232.8659 L 277.3006 232.4553 L 277.1092 232.0446 L 276.9180 231.6338 L 276.7269 231.2230 L 276.5359 230.8122 L 276.3450 230.4013 L 276.1543 229.9903 L 275.9636 229.5793 L 275.7731 229.1682 L 275.5827 228.7571 L 275.3924 228.3459 L 275.2022 227.9347 L 275.0122 227.5234 L 274.8222 227.1121 L 274.6324 226.7007 L 274.4427 226.2892 L 274.2532 225.8777 L 274.0637 225.4662 L 273.8744 225.0545 L 273.6852 224.6429 L 273.4961 224.2311 L 273.3072 223.8193 L 273.1183 223.4075 L 272.9296 222.9956 L 272.7410 222.5836 L 272.5526 222.1716 L 272.3643 221.7595 L 272.1761 221.3474 L 271.9880 220.9352 L 271.8001 220.5229 L 271.6122 220.1106 L 271.4246 219.6982 L 271.2370 219.2858 L 271.0496 218.8733 L 270.8623 218.4607 L 270.6751 218.0481 L 270.4881 217.6355 L 270.3012 217.2227 L 270.1144 216.8099 L 269.9278 216.3971 L 269.7413 215.9842 L 269.5549 215.5712 L 269.3686 215.1582 L 269.1825 214.7451 L 268.9966 214.3319 L 268.8107 213.9187 L 268.6250 213.5055 L 268.4394 213.0921 L 268.2540 212.6788 L 268.0687 212.2653 L 267.8835 211.8518 L 267.6985 211.4382 L 267.5136 211.0246 L 267.3289 210.6109 L 267.1442 210.1971 L 266.9598 209.7833 L 266.7754 209.3694 L 266.5912 208.9555 L 266.4071 208.5415 L 266.2232 208.1274 L 266.0394 207.7133 L 265.8558 207.2991 L 265.6723 206.8849 L 265.4889 206.4706 L 265.3056 206.0562 L 265.1226 205.6418 L 264.9396 205.2273 L 264.7568 204.8127 L 264.5741 204.3981 L 264.3916 203.9834 L 264.2092 203.5687 L 264.0269 203.1539 L 263.8448 202.7390 L 263.6628 202.3241 L 263.4810 201.9091 L 263.2993 201.4940 L 263.1178 201.0789 L 262.9364 200.6637 L 262.7551 200.2485 L 262.5740 199.8332 L 262.3930 199.4178 L 262.2122 199.0024 L 262.0315 198.5869 L 261.8510 198.1714 L 261.6706 197.7558 L 261.4903 197.3401 L 261.3102 196.9244 L 261.1302 196.5086 L 260.9504 196.0927 L 260.7707 195.6768 L 260.5912 195.2608 L 260.4118 194.8447 L 260.2325 194.4286 L 260.0534 194.0125 L 259.8745 193.5962 L 259.6957 193.1799 L 259.5170 192.7636 L 259.3385 192.3471 L 259.1601 191.9307 L 258.9819 191.5141 L 258.8038 191.0975 L 258.6258 190.6808 L 258.4480 190.2641 L 258.2704 189.8473 L 258.0929 189.4304 L 257.9155 189.0135 L 257.7383 188.5965 L 257.5612 188.1795 L 257.3843 187.7624 L 257.2076 187.3452 L 257.0309 186.9280 L 256.8544 186.5107 L 256.6781 186.0933 L 256.5019 185.6759 L 256.3259 185.2585 L 256.1500 184.8409 L 255.9742 184.4233 L 255.7987 184.0056 L 255.6232 183.5879 L 255.4479 183.1701 L 255.2727 182.7523 L 255.0977 182.3344 L 254.9229 181.9164 L 254.7482 181.4984 L 254.5736 181.0803 L 254.3992 180.6621 L 254.2249 180.2439 L 254.0508 179.8256 L 253.8768 179.4073 L 253.7030 178.9889 L 253.5293 178.5704 L 253.3557 178.1519 L 253.1824 177.7333 L 253.0091 177.3146 L 252.8360 176.8959 L 252.6631 176.4772 L 252.4903 176.0583 L 252.3176 175.6394 L 252.1451 175.2205 L 251.9728 174.8015 L 251.8006 174.3824 L 251.6285 173.9633 L 251.4566 173.5441 L 251.2849 173.1248 L 251.1132 172.7055 L 250.9418 172.2861 L 250.7705 171.8667 L 250.5993 171.4472 L 250.4283 171.0276 L 250.2574 170.6080 L 250.0867 170.1883 L 249.9161 169.7686 L 249.7456 169.3488 L 249.5754 168.9289 L 249.4052 168.5090 L 249.2352 168.0890 L 249.0654 167.6690 L 248.8957 167.2489 L 248.7261 166.8287 L 248.5567 166.4085 L 248.3875 165.9883 L 248.2184 165.5679 L 248.0494 165.1475 L 247.8806 164.7271 L 247.7120 164.3066 L 247.5434 163.8860 L 247.3751 163.4654 L 247.2068 163.0447 L 247.0388 162.6239 L 246.8708 162.2031 L 246.7030 161.7823 L 246.5354 161.3613 L 246.3679 160.9403 L 246.2006 160.5193 L 246.0334 160.0982 L 245.8663 159.6771 L 245.6994 159.2558 L 245.5327 158.8346 L 245.3660 158.4132 L 245.1996 157.9919 L 245.0333 157.5704 L 244.8671 157.1489 L 244.7010 156.7274 L 244.5352 156.3057 L 244.3694 155.8841 L 244.2038 155.4623 L 244.0384 155.0406 L 243.8731 154.6187 L 243.7079 154.1968 L 243.5429 153.7749 L 243.3780 153.3528 L 243.2133 152.9308 L 243.0487 152.5087 L 242.8842 152.0865 L 242.7199 151.6642 L 242.5558 151.2419 L 242.3918 150.8196 L 242.2279 150.3972 L 242.0642 149.9747 L 241.9006 149.5522 L 241.7371 149.1296 L 241.5738 148.7070 L 241.4107 148.2843 L 241.2477 147.8616 L 241.0848 147.4388 L 240.9221 147.0160 L 240.7595 146.5931 L 240.5970 146.1701 L 240.4347 145.7471 L 240.2725 145.3241 L 240.1105 144.9010 L 239.9486 144.4778 L 239.7869 144.0546 L 239.6253 143.6313 L 239.4638 143.2080 L 239.3025 142.7846 L 239.1413 142.3612 L 238.9802 141.9377 L 238.8193 141.5141 L 238.6585 141.0905 L 238.4979 140.6669 L 238.3374 140.2432 L 238.1770 139.8195 L 238.0168 139.3957 L 237.8567 138.9718 L 237.6967 138.5479 L 237.5369 138.1240 L 237.3772 137.7000 L 237.2177 137.2759 L 237.0583 136.8518 L 236.8990 136.4276 L 236.7398 136.0034 L 236.5808 135.5792 L 236.4219 135.1549 L 236.2632 134.7305 L 236.1046 134.3061 L 235.9461 133.8817 L 235.7877 133.4572 L 235.6295 133.0326 L 235.4714 132.6080 L 235.3134 132.1834 L 235.1556 131.7587 L 234.9979 131.3339 L 234.8403 130.9091 L 234.6829 130.4843 L 234.5256 130.0594 L 234.3684 129.6345 L 234.2113 129.2095 L 234.0544 128.7845 L 233.8976 128.3594 L 233.7409 127.9343 L 233.5843 127.5091 L 233.4279 127.0839 L 233.2716 126.6586 L 233.1154 126.2333 L 232.9593 125.8080 L 232.8033 125.3826 L 232.6475 124.9572 L 232.4918 124.5317 L 232.3362 124.1062 L 232.1808 123.6806 L 232.0254 123.2550 L 231.8702 122.8293 L 231.7151 122.4036 L 231.5601 121.9779 L 231.4052 121.5521 L 231.2504 121.1263 L 231.0958 120.7004 L 230.9412 120.2745 L 230.7868 119.8486 L 230.6325 119.4226 L 230.4783 118.9966 L 230.3242 118.5705 L 230.1702 118.1444 L 230.0163 117.7182 L 229.8626 117.2921 L 229.7089 116.8658 L 229.5553 116.4396 L 229.4019 116.0133 L 229.2485 115.5869 L 229.0953 115.1606 L 228.9422 114.7342 L 228.7891 114.3077 L 228.6362 113.8812 L 228.4833 113.4547 L 228.3306 113.0282 L 228.1779 112.6016 L 228.0254 112.1749 L 227.8729 111.7483 L 227.7206 111.3216 L 227.5683 110.8949 L 227.4161 110.4681 L 227.2640 110.0413 L 227.1120 109.6145 L 226.9601 109.1877 L 226.8083 108.7608 L 226.6565 108.3339 L 226.5049 107.9069 L 226.3533 107.4800 L 226.2018 107.0530 L 226.0503 106.6260 L 225.8990 106.1989 L 225.7477 105.7718 L 225.5965 105.3447 L 225.4454 104.9176 L 225.2943 104.4905 L 225.1433 104.0633 L 224.9924 103.6361 L 224.8416 103.2089 L 224.6908 102.7816 L 224.5400 102.3543 L 224.3894 101.9270 L 224.2388 101.4997 L 224.0882 101.0724 L 223.9377 100.6451 L 223.7872 100.2177 L 223.6368 99.7903 L 223.4865 99.3629 L 223.3362 98.9355 L 223.1859 98.5081 L 223.0357 98.0806 L 222.8855 97.6532 L 222.7353 97.2257 L 222.5852 96.7982 L 222.4351 96.3707 L 222.2850 95.9432 L 222.1350 95.5157 L 221.9849 95.0882 L 221.8349 94.6607 L 221.6849 94.2331 L 221.5350 93.8056 L 221.3850 93.3781 L 221.2350 92.9505 L 221.0851 92.5230 L 220.9351 92.0955 L 220.7851 91.6679 L 220.6352 91.2404 L 220.4852 90.8129 L 220.3352 90.3853 L 220.1852 89.9578 L 220.0351 89.5303 L 219.8851 89.1028 L 219.7350 88.6753 L 219.5848 88.2478 L 219.4346 87.8204 L 219.2844 87.3929 L 219.1341 86.9655 L 218.9838 86.5381 L 218.8334 86.1107 L 218.6830 85.6833 L 218.5324 85.2560 L 218.3818 84.8287 L 218.2312 84.4014 L 218.0804 83.9741 L 217.9295 83.5469 L 217.7785 83.1197 L 217.6275 82.6926 L 217.4763 82.2655 L 217.3250 81.8384 L 217.1735 81.4114 L 217.0220 80.9844 L 216.8702 80.5575 L 216.7184 80.1307 L 216.5663 79.7038 L 216.4141 79.2771 L 216.2618 78.8504 L 216.1092 78.4238 L 215.9564 77.9972 L 215.8035 77.5708 L 215.6503 77.1444 L 215.4969 76.7181 L 215.3433 76.2918 L 215.1894 75.8657 L 215.0352 75.4396 L 214.8808 75.0137 L 214.7261 74.5879 L 214.5711 74.1621 L 214.4157 73.7365 L 214.2601 73.3110 L 214.1041 72.8856 L 213.9477 72.4604 L 213.7910 72.0353 L 213.6338 71.6103 L 213.4763 71.1855 L 213.3183 70.7609 L 213.1599 70.3364 L 213.0010 69.9121 L 212.8416 69.4880 L 212.6817 69.0641 L 212.5213 68.6404 L 212.3603 68.2168 L 212.1987 67.7936 L 212.0365 67.3705 L 211.8736 66.9477 L 211.7100 66.5252 L 211.5458 66.1030 L 211.3808 65.6810 L 211.2150 65.2593 L 211.0484 64.8380 L 210.8809 64.4170 L 210.7126 63.9964 L 210.5432 63.5761 L 210.3729 63.1563 L 210.2015 62.7369 L 210.0291 62.3179 L 209.8554 61.8994 L 209.6806 61.4815 L 209.5044 61.0640 L 209.3269 60.6472 L 209.1479 60.2310 L 208.9674 59.8154 L 208.7852 59.4005 L 208.6014 58.9864 L 208.4157 58.5732 L 208.2281 58.1607 L 208.0385 57.7493 L 207.8466 57.3388 L 207.6524 56.9295 L 207.4557 56.5213 L 207.2564 56.1145 L 207.0541 55.7091 L 206.8488 55.3052 L 206.6401 54.9030 L 206.4278 54.5028 L 206.2116 54.1046 L 205.9912 53.7088 L 205.7661 53.3155 L 205.5361 52.9252 L 205.3005 52.5382 L 205.0588 52.1550 L 204.8105 51.7760 L 204.5547 51.4021 L 204.2906 51.0339 L 204.0173 50.6726 L 203.7335 50.3194 L 203.4381 49.9760 L 203.1293 49.6444 L 202.8056 49.3275 L 202.4650 49.0288 L 202.1054 48.7534 L 201.7250 48.5074 L 201.3229 48.2993 L 200.8995 48.1387 L 200.4586 48.0361 L 200.0074 48.0000 L 199.5560 48.0338 L 199.1147 48.1343 L 198.6907 48.2932 L 198.2878 48.5000 L 197.9067 48.7448 L 197.5465 49.0194 L 197.2052 49.3174 L 196.8810 49.6338 L 196.5718 49.9649 L 196.2759 50.3080 L 195.9918 50.6609 L 195.7182 51.0220 L 195.4538 51.3899 L 195.1978 51.7637 L 194.9492 52.1425 L 194.7073 52.5256 L 194.4715 52.9125 L 194.2413 53.3027 L 194.0161 53.6959 L 193.7955 54.0916 L 193.5792 54.4897 L 193.3668 54.8899 L 193.1580 55.2920 L 192.9526 55.6958 L 192.7502 56.1012 L 192.5507 56.5080 L 192.3539 56.9161 L 192.1597 57.3254 L 191.9677 57.7358 L 191.7780 58.1473 L 191.5904 58.5597 L 191.4046 58.9729 L 191.2207 59.3870 L 191.0385 59.8018 L 190.8580 60.2174 L 190.6790 60.6336 L 190.5014 61.0504 L 190.3252 61.4678 L 190.1503 61.8858 L 189.9766 62.3042 L 189.8041 62.7232 L 189.6327 63.1426 L 189.4623 63.5624 L 189.2930 63.9826 L 189.1246 64.4033 L 188.9571 64.8242 L 188.7904 65.2456 L 188.6246 65.6672 L 188.4596 66.0892 L 188.2953 66.5114 L 188.1317 66.9339 L 187.9689 67.3567 L 187.8066 67.7797 L 187.6450 68.2030 L 187.4840 68.6265 L 187.3235 69.0502 L 187.1636 69.4741 L 187.0042 69.8982 L 186.8453 70.3225 L 186.6868 70.7470 L 186.5288 71.1716 L 186.3713 71.5964 L 186.2142 72.0214 L 186.0574 72.4465 L 185.9010 72.8717 L 185.7450 73.2971 L 185.5894 73.7226 L 185.4340 74.1482 L 185.2790 74.5739 L 185.1243 74.9998 L 184.9698 75.4257 L 184.8157 75.8517 L 184.6618 76.2779 L 184.5081 76.7041 L 184.3547 77.1304 L 184.2015 77.5568 L 184.0485 77.9833 L 183.8958 78.4098 L 183.7432 78.8365 L 183.5908 79.2631 L 183.4386 79.6899 L 183.2866 80.1167 L 183.1347 80.5436 L 182.9830 80.9705 L 182.8314 81.3974 L 182.6800 81.8245 L 182.5287 82.2515 L 182.3775 82.6786 L 182.2264 83.1058 L 182.0754 83.5329 L 181.9245 83.9602 L 181.7738 84.3874 L 181.6231 84.8147 L 181.4725 85.2420 L 181.3219 85.6694 L 181.1715 86.0967 L 181.0211 86.5241 L 180.8708 86.9515 L 180.7205 87.3789 L 180.5703 87.8064 L 180.4201 88.2339 L 180.2699 88.6613 L 180.1198 89.0888 L 179.9698 89.5163 L 179.8197 89.9438 L 179.6697 90.3713 L 179.5197 90.7989 L 179.3697 91.2264 L 179.2197 91.6539 L 179.0698 92.0815 L 178.9198 92.5090 L 178.7699 92.9366 L 178.6199 93.3641 L 178.4699 93.7916 L 178.3200 94.2192 L 178.1700 94.6467 L 178.0200 95.0742 L 177.8699 95.5017 L 177.7199 95.9292 L 177.5698 96.3567 L 177.4197 96.7842 L 177.2696 97.2117 L 177.1194 97.6392 L 176.9692 98.0666 L 176.8190 98.4941 L 176.6687 98.9215 L 176.5184 99.3489 L 176.3681 99.7763 L 176.2177 100.2037 L 176.0672 100.6311 L 175.9167 101.0584 L 175.7662 101.4858 L 175.6155 101.9131 L 175.4649 102.3404 L 175.3141 102.7676 L 175.1634 103.1949 L 175.0125 103.6221 L 174.8616 104.0493 L 174.7106 104.4765 L 174.5595 104.9036 L 174.4084 105.3308 L 174.2572 105.7579 L 174.1059 106.1849 L 173.9546 106.6120 L 173.8032 107.0390 L 173.6517 107.4660 L 173.5001 107.8930 L 173.3484 108.3199 L 173.1967 108.7468 L 173.0449 109.1737 L 172.8929 109.6006 L 172.7409 110.0274 L 172.5889 110.4542 L 172.4367 110.8809 L 172.2844 111.3076 L 172.1320 111.7343 L 171.9796 112.1610 L 171.8270 112.5876 L 171.6744 113.0142 L 171.5217 113.4408 L 171.3688 113.8673 L 171.2159 114.2938 L 171.0628 114.7202 L 170.9097 115.1466 L 170.7565 115.5730 L 170.6031 115.9993 L 170.4497 116.4256 L 170.2961 116.8519 L 170.1425 117.2781 L 169.9887 117.7043 L 169.8348 118.1304 L 169.6809 118.5566 L 169.5268 118.9826 L 169.3726 119.4087 L 169.2182 119.8346 L 169.0638 120.2606 L 168.9093 120.6865 L 168.7546 121.1124 L 168.5999 121.5382 L 168.4450 121.9640 L 168.2900 122.3897 L 168.1349 122.8154 L 167.9797 123.2411 L 167.8243 123.6667 L 167.6689 124.0922 L 167.5133 124.5178 L 167.3576 124.9433 L 167.2018 125.3687 L 167.0458 125.7941 L 166.8897 126.2194 L 166.7336 126.6447 L 166.5772 127.0700 L 166.4208 127.4952 L 166.2642 127.9204 L 166.1076 128.3455 L 165.9508 128.7706 L 165.7938 129.1956 L 165.6368 129.6206 L 165.4796 130.0455 L 165.3223 130.4704 L 165.1648 130.8952 L 165.0072 131.3200 L 164.8495 131.7448 L 164.6917 132.1695 L 164.5338 132.5941 L 164.3757 133.0187 L 164.2174 133.4433 L 164.0591 133.8678 L 163.9006 134.2922 L 163.7420 134.7166 L 163.5833 135.1410 L 163.4244 135.5653 L 163.2654 135.9896 L 163.1062 136.4138 L 162.9469 136.8379 L 162.7875 137.2620 L 162.6280 137.6861 L 162.4683 138.1101 L 162.3085 138.5340 L 162.1485 138.9579 L 161.9884 139.3818 L 161.8282 139.8056 L 161.6679 140.2293 L 161.5074 140.6530 L 161.3467 141.0767 L 161.1859 141.5003 L 161.0250 141.9238 L 160.8640 142.3473 L 160.7028 142.7707 L 160.5415 143.1941 L 160.3800 143.6174 L 160.2184 144.0407 L 160.0567 144.4639 L 159.8948 144.8871 L 159.7327 145.3102 L 159.5706 145.7333 L 159.4083 146.1563 L 159.2458 146.5792 L 159.0832 147.0021 L 158.9205 147.4250 L 158.7576 147.8478 L 158.5946 148.2705 L 158.4315 148.6932 L 158.2682 149.1158 L 158.1048 149.5384 L 157.9412 149.9609 L 157.7775 150.3834 L 157.6136 150.8058 L 157.4496 151.2281 L 157.2854 151.6504 L 157.1211 152.0727 L 156.9567 152.4948 L 156.7921 152.9170 L 156.6274 153.3390 L 156.4625 153.7611 L 156.2975 154.1830 L 156.1323 154.6049 L 155.9670 155.0268 L 155.8016 155.4485 L 155.6360 155.8703 L 155.4703 156.2920 L 155.3044 156.7136 L 155.1384 157.1351 L 154.9722 157.5566 L 154.8059 157.9781 L 154.6394 158.3995 L 154.4728 158.8208 L 154.3060 159.2421 L 154.1391 159.6633 L 153.9721 160.0844 L 153.8049 160.5055 L 153.6375 160.9266 L 153.4701 161.3476 L 153.3024 161.7685 L 153.1346 162.1894 L 152.9667 162.6102 L 152.7987 163.0309 L 152.6304 163.4516 L 152.4621 163.8722 L 152.2936 164.2928 L 152.1249 164.7133 L 151.9561 165.1338 L 151.7871 165.5542 L 151.6180 165.9745 L 151.4488 166.3948 L 151.2794 166.8150 L 151.1098 167.2352 L 150.9402 167.6553 L 150.7703 168.0753 L 150.6003 168.4953 L 150.4302 168.9152 L 150.2599 169.3351 L 150.0895 169.7549 L 149.9189 170.1746 L 149.7482 170.5943 L 149.5773 171.0139 L 149.4063 171.4335 L 149.2351 171.8530 L 149.0638 172.2724 L 148.8924 172.6918 L 148.7208 173.1111 L 148.5490 173.5304 L 148.3771 173.9496 L 148.2050 174.3687 L 148.0328 174.7878 L 147.8605 175.2068 L 147.6880 175.6257 L 147.5154 176.0446 L 147.3426 176.4635 L 147.1696 176.8822 L 146.9965 177.3009 L 146.8233 177.7196 L 146.6499 178.1382 L 146.4764 178.5567 L 146.3027 178.9752 L 146.1289 179.3936 L 145.9549 179.8119 L 145.7808 180.2302 L 145.6065 180.6484 L 145.4321 181.0666 L 145.2576 181.4847 L 145.0828 181.9027 L 144.9080 182.3207 L 144.7330 182.7386 L 144.5578 183.1565 L 144.3825 183.5743 L 144.2071 183.9920 L 144.0315 184.4096 L 143.8557 184.8273 L 143.6799 185.2448 L 143.5038 185.6623 L 143.3276 186.0797 L 143.1513 186.4971 L 142.9748 186.9143 L 142.7982 187.3316 L 142.6215 187.7487 L 142.4445 188.1659 L 142.2675 188.5829 L 142.0903 188.9999 L 141.9129 189.4168 L 141.7354 189.8337 L 141.5578 190.2505 L 141.3800 190.6672 L 141.2020 191.0839 L 141.0240 191.5005 L 140.8457 191.9170 L 140.6674 192.3335 L 140.4888 192.7499 L 140.3102 193.1663 L 140.1314 193.5826 L 139.9524 193.9988 L 139.7733 194.4150 L 139.5941 194.8311 L 139.4147 195.2472 L 139.2351 195.6632 L 139.0555 196.0791 L 138.8756 196.4950 L 138.6957 196.9108 L 138.5156 197.3265 L 138.3353 197.7422 L 138.1549 198.1578 L 137.9744 198.5733 L 137.7937 198.9888 L 137.6129 199.4043 L 137.4319 199.8196 L 137.2508 200.2349 L 137.0695 200.6502 L 136.8881 201.0653 L 136.7066 201.4805 L 136.5249 201.8955 L 136.3431 202.3105 L 136.1611 202.7254 L 135.9790 203.1403 L 135.7968 203.5551 L 135.6144 203.9698 L 135.4319 204.3845 L 135.2492 204.7992 L 135.0664 205.2137 L 134.8834 205.6282 L 134.7003 206.0426 L 134.5171 206.4570 L 134.3337 206.8713 L 134.1502 207.2856 L 133.9666 207.6998 L 133.7828 208.1139 L 133.5989 208.5280 L 133.4148 208.9420 L 133.2306 209.3559 L 133.0463 209.7698 L 132.8618 210.1836 L 132.6772 210.5974 L 132.4924 211.0110 L 132.3075 211.4247 L 132.1225 211.8383 L 131.9373 212.2518 L 131.7521 212.6652 L 131.5666 213.0786 L 131.3811 213.4920 L 131.1954 213.9052 L 131.0095 214.3184 L 130.8235 214.7316 L 130.6374 215.1447 L 130.4512 215.5577 L 130.2648 215.9707 L 130.0783 216.3836 L 129.8917 216.7964 L 129.7049 217.2092 L 129.5180 217.6220 L 129.3310 218.0346 L 129.1438 218.4472 L 128.9565 218.8598 L 128.7691 219.2723 L 128.5816 219.6847 L 128.3939 220.0971 L 128.2061 220.5094 L 128.0181 220.9217 L 127.8301 221.3339 L 127.6419 221.7460 L 127.4536 222.1581 L 127.2651 222.5701 L 127.0765 222.9821 L 126.8878 223.3940 L 126.6990 223.8059 L 126.5101 224.2176 L 126.3210 224.6294 L 126.1318 225.0411 L 125.9425 225.4527 L 125.7530 225.8643 L 125.5635 226.2758 L 125.3738 226.6872 L 125.1840 227.0986 L 124.9940 227.5100 L 124.8040 227.9213 L 124.6138 228.3325 L 124.4235 228.7437 L 124.2331 229.1548 L 124.0426 229.5659 L 123.8519 229.9769 L 123.6612 230.3878 L 123.4703 230.7988 L 123.2793 231.2096 L 123.0882 231.6204 L 122.8970 232.0312 L 122.7057 232.4419 L 122.5142 232.8525 L 122.3227 233.2631 L 122.1310 233.6736 L 121.9392 234.0841 L 121.7473 234.4946 L 121.5554 234.9049 L 121.3633 235.3153 L 121.1710 235.7256 L 120.9787 236.1358 L 120.7863 236.5460 L 120.5938 236.9561 L 120.4012 237.3662 L 120.2084 237.7762 L 120.0156 238.1862 L 119.8227 238.5962 L 119.6296 239.0061 L 119.4365 239.4159 L 119.2433 239.8257 L 119.0499 240.2355 L 118.8565 240.6452 L 118.6630 241.0549 L 118.4694 241.4645 L 118.2757 241.8741 L 118.0819 242.2836 L 117.8880 242.6931 L 117.6940 243.1026 L 117.5000 243.5120 L 117.3058 243.9214 L 117.1116 244.3307 L 116.9173 244.7400 L 116.7228 245.1492 L 116.5284 245.5584 L 116.3338 245.9676 L 116.1391 246.3767 L 115.9444 246.7858 L 115.7496 247.1949 L 115.5547 247.6039 L 115.3598 248.0129 L 115.1648 248.4219 L 114.9697 248.8308 L 114.7745 249.2397 L 114.5793 249.6485 L 114.3840 250.0574 L 114.1886 250.4661 L 113.9932 250.8749 L 113.7977 251.2836 L 113.6022 251.6924 L 113.4066 252.1010 L 113.2109 252.5097 L 113.0152 252.9183 L 112.8195 253.3269 L 112.6237 253.7355 L 112.4278 254.1441 L 112.2319 254.5526 L 112.0360 254.9611 L 111.8400 255.3696 L 111.6440 255.7781 L 111.4479 256.1865 L 111.2518 256.5950 L 111.0557 257.0034 L 110.8596 257.4118 L 110.6634 257.8202 L 110.4672 258.2286 L 110.2710 258.6370 L 110.0748 259.0454 L 109.8785 259.4538 L 109.6822 259.8621 L 109.4860 260.2705 L 109.2897 260.6788 L 109.0934 261.0872 L 108.8971 261.4955 L 108.7009 261.9039 L 108.5046 262.3123 L 108.3083 262.7206 L 108.1121 263.1290 L 107.9159 263.5374 L 107.7197 263.9458 L 107.5235 264.3542 L 107.3274 264.7626 L 107.1313 265.1710 L 106.9352 265.5795 L 106.7392 265.9880 L 106.5432 266.3965 L 106.3473 266.8050 L 106.1514 267.2135 L 105.9556 267.6221 L 105.7599 268.0307 L 105.5642 268.4394 L 105.3686 268.8481 L 105.1731 269.2568 L 104.9777 269.6656 L 104.7824 270.0744 L 104.5872 270.4832 L 104.3921 270.8922 L 104.1971 271.3011 L 104.0022 271.7102 L 103.8075 272.1193 L 103.6129 272.5284 L 103.4184 272.9376 L 103.2241 273.3469 L 103.0300 273.7563 L 102.8360 274.1658 L 102.6422 274.5753 L 102.4486 274.9849 L 102.2552 275.3947 L 102.0620 275.8045 L 101.8691 276.2144 L 101.6763 276.6244 L 101.4838 277.0346 L 101.2915 277.4448 L 101.0996 277.8552 L 100.9078 278.2657 L 100.7164 278.6764 L 100.5253 279.0872 L 100.3345 279.4981 L 100.1440 279.9092 L 99.9539 280.3205 L 99.7641 280.7319 L 99.5747 281.1435 L 99.3857 281.5553 L 99.1972 281.9672 L 99.0090 282.3794 L 98.8214 282.7918 L 98.6342 283.2044 L 98.4475 283.6172 L 98.2613 284.0303 L 98.0757 284.4436 L 97.8907 284.8572 L 97.7062 285.2710 L 97.5224 285.6851 L 97.3393 286.0995 L 97.1569 286.5143 L 96.9752 286.9293 L 96.7942 287.3447 L 96.6141 287.7604 L 96.4349 288.1765 L 96.2565 288.5930 L 96.0790 289.0099 L 95.9026 289.4272 L 95.7272 289.8450 L 95.5529 290.2632 L 95.3798 290.6819 L 95.2079 291.1011 L 95.0373 291.5208 L 94.8681 291.9411 L 94.7003 292.3619 L 94.5341 292.7834 L 94.3695 293.2056 L 94.2067 293.6284 L 94.0457 294.0519 L 93.8867 294.4762 L 93.7299 294.9012 L 93.5753 295.3271 L 93.4232 295.7539 L 93.2737 296.1816 L 93.1269 296.6102 L 92.9833 297.0399 L 92.8429 297.4707 L 92.7061 297.9026 L 92.5731 298.3358 L 92.4445 298.7702 L 92.3204 299.2059 L 92.2014 299.6431 L 92.0881 300.0818 L 91.9810 300.5220 L 91.8809 300.9639 L 91.7885 301.4074 L 91.7050 301.8527 L 91.6314 302.2998 L 91.5691 302.7485 L 91.5199 303.1989 L 91.4860 303.6507 L 91.4698 304.1035 L 91.4745 304.5565 L 91.5041 305.0085 L 91.5635 305.4576 L 91.6585 305.9004 L 91.7955 306.3321 L 91.9812 306.7450 L 92.2203 307.1294 L 92.5137 307.4741 L 92.8566 307.7695 L 93.2397 308.0107 L 93.6518 308.1983 L 94.0828 308.3371 L 94.5254 308.4335 L 94.9743 308.4942 L 95.4263 308.5249 L 95.8793 308.5305 L 96.3320 308.5150 L 96.7838 308.4816 L 97.2343 308.4330 L 97.6831 308.3712 L 98.1302 308.2980 L 98.5756 308.2148 L 99.0192 308.1228 L 99.4611 308.0229 L 99.9014 307.9161 L 100.3402 307.8030 L 100.7774 307.6842 L 101.2132 307.5604 L 101.6477 307.4318 L 102.0809 307.2991 L 102.5128 307.1624 L 102.9437 307.0221 L 103.3734 306.8786 L 103.8021 306.7320 L 104.2298 306.5826 L 104.6566 306.4305 L 105.0825 306.2760 L 105.5076 306.1193 L 105.9319 305.9604 L 106.3555 305.7995 L 106.7783 305.6367 L 107.2005 305.4722 L 107.6220 305.3061 L 108.0429 305.1384 L 108.4632 304.9692 L 108.8829 304.7986 L 109.3021 304.6268 L 109.7209 304.4537 L 110.1391 304.2795 L 110.5569 304.1041 L 110.9742 303.9277 L 111.3911 303.7503 L 111.8076 303.5720 L 112.2237 303.3927 L 112.6394 303.2126 L 113.0548 303.0317 L 113.4699 302.8501 L 113.8846 302.6677 L 114.2991 302.4845 L 114.7132 302.3008 L 115.1270 302.1164 L 115.5406 301.9314 L 115.9539 301.7458 L 116.3670 301.5596 L 116.7799 301.3729 L 117.1925 301.1858 L 117.6048 300.9981 L 118.0170 300.8100 L 118.4290 300.6215 L 118.8408 300.4325 L 119.2524 300.2431 L 119.6638 300.0534 L 120.0751 299.8633 L 120.4862 299.6728 L 120.8971 299.4820 L 121.3079 299.2909 L 121.7186 299.0995 L 122.1291 298.9078 L 122.5395 298.7158 L 122.9498 298.5235 L 123.3599 298.3310 L 123.7699 298.1383 L 124.1799 297.9453 L 124.5897 297.7521 L 124.9994 297.5587 L 125.4091 297.3651 L 125.8186 297.1714 L 126.2281 296.9774 L 126.6374 296.7833 L 127.0467 296.5890 L 127.4560 296.3945 L 127.8651 296.1999 L 128.2742 296.0052 L 128.6833 295.8104 L 129.0922 295.6154 L 129.5011 295.4203 L 129.9100 295.2251 L 130.3188 295.0298 L 130.7276 294.8344 L 131.1363 294.6389 L 131.5450 294.4433 L 131.9537 294.2476 L 132.3623 294.0519 L 132.7709 293.8561 L 133.1794 293.6602 L 133.5879 293.4643 L 133.9964 293.2683 L 134.4049 293.0723 L 134.8134 292.8762 L 135.2218 292.6801 L 135.6302 292.4840 L 136.0386 292.2878 L 136.4470 292.0916 L 136.8554 291.8954 L 137.2638 291.6991 L 137.6721 291.5029 L 138.0805 291.3066 L 138.4889 291.1103 L 138.8972 290.9141 L 139.3056 290.7178 L 139.7139 290.5215 L 140.1223 290.3252 L 140.5306 290.1290 L 140.9390 289.9327 L 141.3474 289.7365 L 141.7558 289.5403 L 142.1642 289.3441 L 142.5726 289.1479 L 142.9810 288.9518 L 143.3894 288.7556 L 143.7979 288.5595 L 144.2063 288.3635 L 144.6148 288.1675 L 145.0233 287.9715 L 145.4318 287.7755 L 145.8403 287.5796 L 146.2489 287.3838 L 146.6575 287.1880 L 147.0661 286.9922 L 147.4747 286.7965 L 147.8834 286.6009 L 148.2920 286.4053 L 148.7007 286.2097 L 149.1095 286.0142 L 149.5182 285.8188 L 149.9270 285.6235 L 150.3359 285.4282 L 150.7447 285.2329 L 151.1536 285.0378 L 151.5625 284.8427 L 151.9715 284.6476 L 152.3805 284.4527 L 152.7895 284.2578 L 153.1986 284.0630 L 153.6076 283.8683 L 154.0168 283.6736 L 154.4259 283.4791 L 154.8352 283.2846 L 155.2444 283.0902 L 155.6537 282.8958 L 156.0630 282.7016 L 156.4724 282.5074 L 156.8818 282.3134 L 157.2912 282.1194 L 157.7007 281.9255 L 158.1103 281.7317 L 158.5199 281.5380 L 158.9295 281.3444 L 159.3391 281.1509 L 159.7489 280.9574 L 160.1586 280.7641 L 160.5684 280.5709 L 160.9783 280.3777 L 161.3882 280.1847 L 161.7981 279.9918 L 162.2081 279.7989 L 162.6181 279.6062 L 163.0282 279.4136 L 163.4384 279.2210 L 163.8485 279.0286 L 164.2588 278.8363 L 164.6691 278.6441 L 165.0794 278.4520 L 165.4898 278.2600 L 165.9002 278.0681 L 166.3107 277.8763 L 166.7212 277.6846 L 167.1318 277.4931 L 167.5425 277.3016 L 167.9532 277.1103 L 168.3639 276.9191 L 168.7747 276.7280 L 169.1856 276.5370 L 169.5965 276.3461 L 170.0074 276.1553 L 170.4184 275.9647 L 170.8295 275.7742 L 171.2406 275.5837 L 171.6518 275.3934 L 172.0630 275.2033 L 172.4743 275.0132 L 172.8857 274.8233 L 173.2971 274.6335 L 173.7085 274.4438 L 174.1200 274.2542 L 174.5316 274.0648 L 174.9432 273.8754 L 175.3549 273.6862 L 175.7666 273.4971 L 176.1784 273.3082 L 176.5903 273.1194 L 177.0022 272.9307 L 177.4141 272.7421 L 177.8262 272.5536 L 178.2383 272.3653 L 178.6504 272.1771 L 179.0626 271.9890 L 179.4748 271.8011 L 179.8872 271.6133 L 180.2995 271.4256 L 180.7120 271.2380 L 181.1245 271.0506 L 181.5370 270.8633 L 181.9496 270.6761 L 182.3623 270.4891 L 182.7750 270.3022 L 183.1878 270.1154 L 183.6007 269.9288 L 184.0136 269.7423 L 184.4265 269.5559 L 184.8396 269.3697 L 185.2526 269.1835 L 185.6658 268.9976 L 186.0790 268.8117 L 186.4923 268.6260 L 186.9056 268.4404 L 187.3190 268.2550 L 187.7324 268.0697 L 188.1460 267.8845 L 188.5595 267.6995 L 188.9732 267.5146 L 189.3869 267.3299 L 189.8006 267.1452 L 190.2144 266.9608 L 190.6283 266.7764 L 191.0422 266.5922 L 191.4562 266.4081 L 191.8703 266.2242 L 192.2844 266.0404 L 192.6986 265.8568 L 193.1129 265.6733 L 193.5272 265.4899 L 193.9415 265.3066 L 194.3560 265.1235 L 194.7705 264.9406 L 195.1850 264.7578 L 195.5996 264.5751 L 196.0143 264.3926 L 196.4291 264.2102 L 196.8439 264.0279 L 197.2587 263.8458 L 197.6737 263.6638 L 198.0886 263.4820 L 198.5037 263.3003 L 198.9188 263.1188 L 199.3340 262.9374 L 199.7492 262.7561 L 200.1645 262.5750 L 200.5799 262.3940 L 200.9953 262.2132 L 201.4108 262.0325 L 201.8263 261.8520 L 202.2420 261.6716 L 202.6576 261.4913 L 203.0734 261.3112 L 203.4892 261.1312 L 203.9050 260.9514 L 204.3210 260.7717 L 204.7369 260.5922 L 205.1530 260.4128 L 205.5691 260.2335 L 205.9853 260.0544 L 206.4015 259.8755 L 206.8178 259.6966 L 207.2342 259.5180 L 207.6506 259.3394 L 208.0671 259.1611 L 208.4836 258.9828 L 208.9002 258.8047 L 209.3169 258.6268 L 209.7336 258.4490 L 210.1504 258.2714 L 210.5673 258.0938 L 210.9842 257.9165 L 211.4012 257.7393 L 211.8182 257.5622 L 212.2353 257.3853 L 212.6525 257.2085 L 213.0697 257.0319 L 213.4870 256.8554 L 213.9044 256.6791 L 214.3218 256.5029 L 214.7393 256.3268 L 215.1568 256.1510 L 215.5744 255.9752 L 215.9921 255.7996 L 216.4098 255.6242 L 216.8276 255.4489 L 217.2454 255.2737 L 217.6633 255.0987 L 218.0813 254.9238 L 218.4993 254.7491 L 218.9174 254.5745 L 219.3356 254.4001 L 219.7538 254.2258 L 220.1721 254.0517 L 220.5904 253.8777 L 221.0088 253.7039 L 221.4273 253.5302 L 221.8458 253.3567 L 222.2644 253.1833 L 222.6831 253.0101 L 223.1018 252.8370 L 223.5205 252.6640 L 223.9394 252.4912 L 224.3583 252.3186 L 224.7772 252.1461 L 225.1962 251.9737 L 225.6153 251.8015 L 226.0344 251.6295 L 226.4536 251.4575 L 226.8729 251.2858 L 227.2922 251.1142 L 227.7116 250.9427 L 228.1310 250.7714 L 228.5505 250.6002 L 228.9701 250.4292 L 229.3897 250.2583 L 229.8094 250.0876 L 230.2291 249.9170 L 230.6489 249.7466 L 231.0688 249.5763 L 231.4887 249.4061 L 231.9087 249.2362 L 232.3287 249.0663 L 232.7488 248.8966 L 233.1690 248.7271 L 233.5892 248.5577 L 234.0094 248.3884 L 234.4298 248.2193 L 234.8502 248.0503 L 235.2706 247.8815 L 235.6911 247.7129 L 236.1117 247.5444 L 236.5323 247.3760 L 236.9530 247.2078 L 237.3738 247.0397 L 237.7946 246.8717 L 238.2154 246.7040 L 238.6364 246.5363 L 239.0573 246.3688 L 239.4784 246.2015 L 239.8995 246.0343 L 240.3206 245.8672 L 240.7419 245.7003 L 241.1631 245.5336 L 241.5844 245.3670 L 242.0058 245.2005 L 242.4273 245.0342 L 242.8488 244.8680 L 243.2703 244.7019 L 243.6920 244.5361 L 244.1136 244.3703 L 244.5354 244.2047 L 244.9571 244.0393 L 245.3790 243.8740 L 245.8009 243.7088 L 246.2228 243.5438 L 246.6448 243.3789 L 247.0669 243.2142 L 247.4890 243.0496 L 247.9112 242.8851 L 248.3335 242.7208 L 248.7557 242.5567 L 249.1781 242.3927 L 249.6005 242.2288 L 250.0230 242.0651 L 250.4455 241.9015 L 250.8680 241.7380 L 251.2907 241.5747 L 251.7133 241.4116 L 252.1361 241.2486 L 252.5589 241.0857 L 252.9817 240.9230 L 253.4046 240.7604 L 253.8276 240.5979 L 254.2506 240.4356 L 254.6736 240.2734 L 255.0967 240.1114 L 255.5199 239.9495 L 255.9431 239.7878 L 256.3664 239.6262 L 256.7897 239.4647 L 257.2131 239.3033 L 257.6365 239.1422 L 258.0600 238.9811 L 258.4836 238.8202 L 258.9071 238.6594 L 259.3308 238.4988 L 259.7545 238.3383 L 260.1782 238.1779 L 260.6020 238.0177 L 261.0259 237.8576 L 261.4498 237.6976 L 261.8737 237.5378 L 262.2977 237.3781 L 262.7218 237.2185 L 263.1459 237.0591 L 263.5700 236.8998 L 263.9942 236.7407 L 264.4185 236.5817 L 264.8428 236.4228 L 265.2671 236.2640 L 265.6916 236.1054 L 266.1160 235.9469 L 266.5405 235.7886 L 266.9651 235.6304 L 267.3897 235.4723 L 267.8143 235.3143 L 268.2390 235.1565 L 268.6637 234.9988 L 269.0885 234.8412 L 269.5134 234.6837 L 269.9383 234.5264 L 270.3632 234.3692 L 270.7882 234.2122 L 271.2132 234.0552 L 271.6383 233.8984 L 272.0634 233.7417 L 272.4886 233.5852 L 272.9138 233.4287 L 273.3390 233.2724 L 273.7643 233.1162 L 274.1897 232.9601 L 274.6151 232.8042 L 275.0405 232.6484 L 275.4660 232.4927 L 275.8915 232.3371 L 276.3171 232.1816 L 276.7427 232.0262 L 277.1683 231.8710 L 277.5940 231.7159 L 278.0198 231.5609 L 278.4456 231.4060 L 278.8714 231.2513 L 279.2972 231.0966 L 279.7231 230.9421 L 280.1491 230.7876 L 280.5751 230.6333 L 281.0011 230.4791 L 281.4272 230.3250 L 281.8533 230.1710 L 282.2794 230.0172 L 282.7056 229.8634 L 283.1318 229.7097 L 283.5581 229.5562 L 283.9844 229.4027 L 284.4107 229.2494 L 284.8371 229.0961 L 285.2635 228.9430 L 285.6900 228.7899 L 286.1164 228.6370 L 286.5430 228.4842 L 286.9695 228.3314 L 287.3961 228.1788 L 287.8227 228.0262 L 288.2494 227.8738 L 288.6761 227.7214 L 289.1028 227.5691 L 289.5295 227.4169 L 289.9563 227.2648 L 290.3831 227.1128 L 290.8100 226.9609 L 291.2369 226.8091 L 291.6638 226.6573 L 292.0907 226.5057 L 292.5177 226.3541 L 292.9447 226.2026 L 293.3717 226.0512 L 293.7987 225.8998 L 294.2258 225.7485 L 294.6529 225.5973 L 295.0801 225.4462 L 295.5072 225.2952 L 295.9344 225.1442 L 296.3616 224.9932 L 296.7888 224.8424 L 297.2161 224.6916 L 297.6433 224.5409 L 298.0706 224.3902 L 298.4979 224.2396 L 298.9253 224.0890 L 299.3526 223.9385 L 299.7800 223.7881 L 300.2073 223.6377 L 300.6347 223.4873 L 301.0622 223.3370 L 301.4896 223.1867 L 301.9170 223.0365 L 302.3445 222.8863 L 302.7720 222.7361 L 303.1994 222.5860 L 303.6269 222.4359 L 304.0544 222.2858 L 304.4819 222.1358 L 304.9095 221.9858 L 305.3370 221.8358 L 305.7645 221.6858 L 306.1920 221.5358 L 306.6196 221.3858 L 307.0471 221.2359 L 307.4747 221.0859 L 307.9022 220.9359 L 308.3297 220.7860 L 308.7573 220.6360 L 309.1848 220.4860 L 309.6123 220.3360 L 310.0398 220.1860 L 310.4674 220.0359 L 310.8949 219.8859 L 311.3223 219.7358 L 311.7498 219.5856 L 312.1773 219.4355 L 312.6047 219.2852 L 313.0322 219.1350 L 313.4596 218.9846 L 313.8870 218.8342 L 314.3143 218.6838 L 314.7417 218.5333 L 315.1690 218.3827 L 315.5963 218.2320 L 316.0235 218.0812 L 316.4507 217.9303 L 316.8779 217.7794 L 317.3051 217.6283 L 317.7322 217.4771 L 318.1592 217.3258 L 318.5863 217.1744 L 319.0132 217.0228 L 319.4401 216.8711 L 319.8670 216.7192 L 320.2938 216.5672 L 320.7206 216.4150 L 321.1473 216.2626 L 321.5739 216.1100 L 322.0004 215.9573 L 322.4269 215.8043 L 322.8533 215.6511 L 323.2796 215.4977 L 323.7058 215.3441 L 324.1320 215.1902 L 324.5580 215.0361 L 324.9840 214.8816 L 325.4098 214.7269 L 325.8356 214.5719 L 326.2612 214.4166 L 326.6867 214.2609 L 327.1120 214.1049 L 327.5373 213.9486 L 327.9624 213.7918 L 328.3873 213.6347 L 328.8122 213.4772 L 329.2368 213.3192 L 329.6613 213.1608 L 330.0856 213.0019 L 330.5097 212.8425 L 330.9336 212.6826 L 331.3573 212.5222 L 331.7808 212.3612 L 332.2041 212.1996 L 332.6272 212.0373 L 333.0499 211.8745 L 333.4725 211.7109 L 333.8947 211.5467 L 334.3167 211.3817 L 334.7384 211.2159 L 335.1597 211.0493 L 335.5807 210.8818 L 336.0013 210.7135 L 336.4216 210.5442 L 336.8414 210.3738 L 337.2608 210.2025 L 337.6798 210.0300 L 338.0983 209.8564 L 338.5162 209.6815 L 338.9337 209.5054 L 339.3505 209.3278 L 339.7668 209.1489 L 340.1823 208.9684 L 340.5972 208.7862 L 341.0113 208.6024 L 341.4246 208.4168 L 341.8370 208.2292 L 342.2485 208.0395 L 342.6589 207.8477 L 343.0683 207.6535 L 343.4764 207.4568 L 343.8833 207.2575 L 344.2887 207.0552 L 344.6926 206.8499 L 345.0948 206.6412 L 345.4950 206.4289 L 345.8932 206.2128 L 346.2891 205.9924 L 346.6823 205.7674 L 347.0727 205.5374 L 347.4597 205.3018 L 347.8430 205.0602 L 348.2219 204.8118 L 348.5959 204.5561 L 348.9641 204.2921 L 349.3254 204.0188 L 349.6787 203.7351 L 350.0222 203.4397 L 350.3538 203.1311 L 350.6709 202.8074 L 350.9696 202.4669 L 351.2452 202.1074 L 351.4913 201.7272 L 351.6997 201.3251 L 351.8606 200.9019 L 351.9635 200.4610" 
        fill="none" 
        stroke="#1976D2" 
        stroke-width="0.8"
        stroke-linecap="round"
        stroke-linejoin="round"/>
</svg>