<?xml version="1.0" encoding="UTF-8"?>
<svg xmlns="http://www.w3.org/2000/svg" 
     width="400.0" height="400.0" 
     viewBox="0 0 400.0 400.0">
  <rect width="100%" height="100%" fill="#ffffff"/>
  <path d="M 199.9769 333.1718 L 200.3231 332.1759 L 200.6693 331.1800 L 201.0155 330.1841 L 201.3616 329.1882 L 201.7078 328.1924 L 202.0540 327.1965 L 202.4001 326.2006 L 202.7463 325.2047 L 203.0925 324.2088 L 203.4387 323.2129 L 203.7848 322.2170 L 204.1310 321.2211 L 204.4772 320.2252 L 204.8234 319.2293 L 205.1695 318.2334 L 205.5157 317.2375 L 205.8619 316.2416 L 206.2081 315.2457 L 206.5542 314.2498 L 206.9004 313.2539 L 207.2466 312.2580 L 207.5928 311.2621 L 207.9389 310.2662 L 208.2851 309.2703 L 208.6313 308.2744 L 208.9774 307.2785 L 209.3236 306.2826 L 209.6698 305.2867 L 210.0160 304.2908 L 210.3621 303.2949 L 210.7083 302.2990 L 211.0545 301.3031 L 211.4007 300.3072 L 211.7468 299.3113 L 212.0930 298.3154 L 212.4392 297.3195 L 212.7854 296.3236 L 213.1315 295.3277 L 213.4777 294.3318 L 213.8239 293.3360 L 214.1700 292.3401 L 214.5162 291.3442 L 214.8624 290.3483 L 215.2086 289.3524 L 215.5547 288.3565 L 215.9009 287.3606 L 216.2471 286.3647 L 216.5933 285.3688 L 216.9394 284.3729 L 217.2856 283.3770 L 217.6318 282.3811 L 217.9780 281.3852 L 218.3241 280.3893 L 218.6703 279.3934 L 219.0165 278.3975 L 219.3627 277.4016 L 219.7088 276.4057 L 220.0550 275.4098 L 220.4012 274.4139 L 220.7473 273.4180 L 221.0935 272.4221 L 221.4397 271.4262 L 221.7859 270.4303 L 222.1320 269.4344 L 222.4782 268.4385 L 222.8244 267.4426 L 223.1706 266.4467 L 223.5167 265.4508 L 223.8629 264.4549 L 224.2091 263.4590 L 224.5553 262.4631 L 224.9014 261.4672 L 225.2476 260.4713 L 225.5938 259.4755 L 225.9399 258.4796 L 226.2861 257.4837 L 226.6323 256.4878 L 226.9785 255.4919 L 227.3246 254.4960 L 227.6708 253.5001 L 228.0170 252.5042 L 228.3632 251.5083 L 228.7093 250.5124 L 229.0555 249.5165 L 229.4017 248.5206 L 229.7479 247.5247 L 230.0940 246.5288 L 230.4402 245.5329 L 230.7864 244.5370 L 231.1326 243.5411 L 231.4787 242.5452 L 231.8249 241.5493 L 232.1711 240.5534 L 232.5172 239.5575 L 232.8634 238.5616 L 233.2096 237.5657 L 233.5558 236.5698 L 233.9019 235.5739 L 234.2481 234.5780 L 234.5943 233.5821 L 235.6413 233.5509 L 236.6955 233.5294 L 237.7496 233.5079 L 238.8037 233.4865 L 239.8578 233.4650 L 240.9120 233.4435 L 241.9661 233.4220 L 243.0202 233.4005 L 244.0744 233.3790 L 245.1285 233.3576 L 246.1826 233.3361 L 247.2367 233.3146 L 248.2909 233.2931 L 249.3450 233.2716 L 250.3991 233.2502 L 251.4533 233.2287 L 252.5074 233.2072 L 253.5615 233.1857 L 254.6156 233.1642 L 255.6698 233.1428 L 256.7239 233.1213 L 257.7780 233.0998 L 258.8322 233.0783 L 259.8863 233.0568 L 260.9404 233.0353 L 261.9945 233.0139 L 263.0487 232.9924 L 264.1028 232.9709 L 265.1569 232.9494 L 266.2110 232.9279 L 267.2652 232.9065 L 268.3193 232.8850 L 269.3734 232.8635 L 270.4276 232.8420 L 271.4817 232.8205 L 272.5358 232.7990 L 273.5899 232.7776 L 274.6441 232.7561 L 275.6982 232.7346 L 276.7523 232.7131 L 277.8065 232.6916 L 278.8606 232.6702 L 279.9147 232.6487 L 280.9688 232.6272 L 282.0230 232.6057 L 283.0771 232.5842 L 284.1312 232.5628 L 285.1853 232.5413 L 286.2395 232.5198 L 287.2936 232.4983 L 288.3477 232.4768 L 289.4019 232.4553 L 290.4560 232.4339 L 291.5101 232.4124 L 292.5642 232.3909 L 293.6184 232.3694 L 294.6725 232.3479 L 295.7266 232.3265 L 296.7808 232.3050 L 297.8349 232.2835 L 298.8890 232.2620 L 299.9431 232.2405 L 300.9973 232.2190 L 302.0514 232.1976 L 303.1055 232.1761 L 304.1597 232.1546 L 305.2138 232.1331 L 306.2679 232.1116 L 307.3220 232.0902 L 308.3762 232.0687 L 309.4303 232.0472 L 310.4844 232.0257 L 311.5385 232.0042 L 312.5927 231.9828 L 313.6468 231.9613 L 314.7009 231.9398 L 315.7551 231.9183 L 316.8092 231.8968 L 317.8633 231.8753 L 318.9174 231.8539 L 319.9716 231.8324 L 321.0257 231.8109 L 322.0798 231.7894 L 323.1340 231.7679 L 324.1881 231.7465 L 325.2422 231.7250 L 326.2963 231.7035 L 327.3505 231.6820 L 328.4046 231.6605 L 329.4587 231.6390 L 330.5128 231.6176 L 331.5670 231.5961 L 332.6211 231.5746 L 333.6752 231.5531 L 334.7294 231.5316 L 335.7835 231.5102 L 336.8376 231.4887 L 337.8917 231.4672 L 338.9459 231.4457 L 340.0000 231.4242 L 339.1977 230.7996 L 338.3575 230.1626 L 337.5173 229.5256 L 336.6772 228.8886 L 335.8370 228.2516 L 334.9968 227.6147 L 334.1566 226.9777 L 333.3164 226.3407 L 332.4763 225.7037 L 331.6361 225.0667 L 330.7959 224.4298 L 329.9557 223.7928 L 329.1155 223.1558 L 328.2754 222.5188 L 327.4352 221.8818 L 326.5950 221.2449 L 325.7548 220.6079 L 324.9146 219.9709 L 324.0745 219.3339 L 323.2343 218.6969 L 322.3941 218.0600 L 321.5539 217.4230 L 320.7137 216.7860 L 319.8735 216.1490 L 319.0334 215.5121 L 318.1932 214.8751 L 317.3530 214.2381 L 316.5128 213.6011 L 315.6726 212.9641 L 314.8325 212.3272 L 313.9923 211.6902 L 313.1521 211.0532 L 312.3119 210.4162 L 311.4717 209.7792 L 310.6316 209.1423 L 309.7914 208.5053 L 308.9512 207.8683 L 308.1110 207.2313 L 307.2708 206.5943 L 306.4307 205.9574 L 305.5905 205.3204 L 304.7503 204.6834 L 303.9101 204.0464 L 303.0699 203.4094 L 302.2297 202.7725 L 301.3896 202.1355 L 300.5494 201.4985 L 299.7092 200.8615 L 298.8690 200.2245 L 298.0288 199.5876 L 297.1887 198.9506 L 296.3485 198.3136 L 295.5083 197.6766 L 294.6681 197.0396 L 293.8279 196.4027 L 292.9878 195.7657 L 292.1476 195.1287 L 291.3074 194.4917 L 290.4672 193.8547 L 289.6270 193.2178 L 288.7869 192.5808 L 287.9467 191.9438 L 287.1065 191.3068 L 286.2663 190.6698 L 285.4261 190.0329 L 284.5860 189.3959 L 283.7458 188.7589 L 282.9056 188.1219 L 282.0654 187.4849 L 281.2252 186.8480 L 280.3850 186.2110 L 279.5449 185.5740 L 278.7047 184.9370 L 277.8645 184.3000 L 277.0243 183.6631 L 276.1841 183.0261 L 275.3440 182.3891 L 274.5038 181.7521 L 273.6636 181.1151 L 272.8234 180.4782 L 271.9832 179.8412 L 271.1431 179.2042 L 270.3029 178.5672 L 269.4627 177.9302 L 268.6225 177.2933 L 267.7823 176.6563 L 266.9422 176.0193 L 266.1020 175.3823 L 265.2618 174.7453 L 264.4216 174.1084 L 263.5814 173.4714 L 262.7412 172.8344 L 261.9011 172.1974 L 261.0609 171.5604 L 260.2207 170.9235 L 259.3805 170.2865 L 258.5403 169.6495 L 257.7002 169.0125 L 256.8600 168.3755 L 256.0198 167.7386 L 256.2907 166.7406 L 256.5961 165.7314 L 256.9014 164.7222 L 257.2067 163.7130 L 257.5120 162.7039 L 257.8173 161.6947 L 258.1226 160.6855 L 258.4279 159.6763 L 258.7333 158.6672 L 259.0386 157.6580 L 259.3439 156.6488 L 259.6492 155.6397 L 259.9545 154.6305 L 260.2598 153.6213 L 260.5651 152.6121 L 260.8704 151.6030 L 261.1758 150.5938 L 261.4811 149.5846 L 261.7864 148.5754 L 262.0917 147.5663 L 262.3970 146.5571 L 262.7023 145.5479 L 263.0076 144.5387 L 263.3130 143.5296 L 263.6183 142.5204 L 263.9236 141.5112 L 264.2289 140.5021 L 264.5342 139.4929 L 264.8395 138.4837 L 265.1448 137.4745 L 265.4501 136.4654 L 265.7555 135.4562 L 266.0608 134.4470 L 266.3661 133.4378 L 266.6714 132.4287 L 266.9767 131.4195 L 267.2820 130.4103 L 267.5873 129.4011 L 267.8927 128.3920 L 268.1980 127.3828 L 268.5033 126.3736 L 268.8086 125.3645 L 269.1139 124.3553 L 269.4192 123.3461 L 269.7245 122.3369 L 270.0298 121.3278 L 270.3352 120.3186 L 270.6405 119.3094 L 270.9458 118.3002 L 271.2511 117.2911 L 271.5564 116.2819 L 271.8617 115.2727 L 272.1670 114.2635 L 272.4724 113.2544 L 272.7777 112.2452 L 273.0830 111.2360 L 273.3883 110.2269 L 273.6936 109.2177 L 273.9989 108.2085 L 274.3042 107.1993 L 274.6095 106.1902 L 274.9149 105.1810 L 275.2202 104.1718 L 275.5255 103.1626 L 275.8308 102.1535 L 276.1361 101.1443 L 276.4414 100.1351 L 276.7467 99.1259 L 277.0521 98.1168 L 277.3574 97.1076 L 277.6627 96.0984 L 277.9680 95.0893 L 278.2733 94.0801 L 278.5786 93.0709 L 278.8839 92.0617 L 279.1892 91.0526 L 279.4946 90.0434 L 279.7999 89.0342 L 280.1052 88.0250 L 280.4105 87.0159 L 280.7158 86.0067 L 281.0211 84.9975 L 281.3264 83.9883 L 281.6318 82.9792 L 281.9371 81.9700 L 282.2424 80.9608 L 282.5477 79.9517 L 282.8530 78.9425 L 283.1583 77.9333 L 283.4636 76.9241 L 283.7689 75.9150 L 284.0743 74.9058 L 284.3796 73.8966 L 284.6849 72.8874 L 284.9902 71.8783 L 285.2955 70.8691 L 285.6008 69.8599 L 285.9061 68.8507 L 286.2115 67.8416 L 286.5168 66.8324 L 285.6982 67.3702 L 284.8327 67.9724 L 283.9673 68.5746 L 283.1019 69.1768 L 282.2364 69.7790 L 281.3710 70.3813 L 280.5056 70.9835 L 279.6401 71.5857 L 278.7747 72.1879 L 277.9093 72.7902 L 277.0438 73.3924 L 276.1784 73.9946 L 275.3130 74.5968 L 274.4475 75.1990 L 273.5821 75.8013 L 272.7167 76.4035 L 271.8512 77.0057 L 270.9858 77.6079 L 270.1204 78.2102 L 269.2549 78.8124 L 268.3895 79.4146 L 267.5241 80.0168 L 266.6586 80.6190 L 265.7932 81.2213 L 264.9278 81.8235 L 264.0623 82.4257 L 263.1969 83.0279 L 262.3314 83.6302 L 261.4660 84.2324 L 260.6006 84.8346 L 259.7351 85.4368 L 258.8697 86.0390 L 258.0043 86.6413 L 257.1388 87.2435 L 256.2734 87.8457 L 255.4080 88.4479 L 254.5425 89.0501 L 253.6771 89.6524 L 252.8117 90.2546 L 251.9462 90.8568 L 251.0808 91.4590 L 250.2154 92.0613 L 249.3499 92.6635 L 248.4845 93.2657 L 247.6191 93.8679 L 246.7536 94.4701 L 245.8882 95.0724 L 245.0228 95.6746 L 244.1573 96.2768 L 243.2919 96.8790 L 242.4265 97.4813 L 241.5610 98.0835 L 240.6956 98.6857 L 239.8302 99.2879 L 238.9647 99.8901 L 238.0993 100.4924 L 237.2339 101.0946 L 236.3684 101.6968 L 235.5030 102.2990 L 234.6376 102.9013 L 233.7721 103.5035 L 232.9067 104.1057 L 232.0413 104.7079 L 231.1758 105.3101 L 230.3104 105.9124 L 229.4450 106.5146 L 228.5795 107.1168 L 227.7141 107.7190 L 226.8487 108.3213 L 225.9832 108.9235 L 225.1178 109.5257 L 224.2524 110.1279 L 223.3869 110.7301 L 222.5215 111.3324 L 221.6561 111.9346 L 220.7906 112.5368 L 219.9252 113.1390 L 219.0598 113.7412 L 218.1943 114.3435 L 217.3289 114.9457 L 216.4635 115.5479 L 215.5980 116.1501 L 214.7326 116.7524 L 213.8672 117.3546 L 213.0017 117.9568 L 212.1363 118.5590 L 211.2708 119.1612 L 210.4054 119.7635 L 209.5400 120.3657 L 208.6745 120.9679 L 207.8091 121.5701 L 206.9437 122.1724 L 206.0782 122.7746 L 205.2128 123.3768 L 204.3474 123.9790 L 203.4819 124.5812 L 202.6165 125.1835 L 201.7511 125.7857 L 200.8856 126.3879 L 200.0202 126.9901 L 199.1548 126.4481 L 198.2893 125.8459 L 197.4239 125.2437 L 196.5585 124.6415 L 195.6930 124.0392 L 194.8276 123.4370 L 193.9622 122.8348 L 193.0967 122.2326 L 192.2313 121.6304 L 191.3659 121.0281 L 190.5004 120.4259 L 189.6350 119.8237 L 188.7696 119.2215 L 187.9041 118.6193 L 187.0387 118.0170 L 186.1733 117.4148 L 185.3078 116.8126 L 184.4424 116.2104 L 183.5770 115.6081 L 182.7115 115.0059 L 181.8461 114.4037 L 180.9807 113.8015 L 180.1152 113.1993 L 179.2498 112.5970 L 178.3844 111.9948 L 177.5189 111.3926 L 176.6535 110.7904 L 175.7881 110.1881 L 174.9226 109.5859 L 174.0572 108.9837 L 173.1918 108.3815 L 172.3263 107.7793 L 171.4609 107.1770 L 170.5955 106.5748 L 169.7300 105.9726 L 168.8646 105.3704 L 167.9992 104.7681 L 167.1337 104.1659 L 166.2683 103.5637 L 165.4029 102.9615 L 164.5374 102.3593 L 163.6720 101.7570 L 162.8065 101.1548 L 161.9411 100.5526 L 161.0757 99.9504 L 160.2102 99.3481 L 159.3448 98.7459 L 158.4794 98.1437 L 157.6139 97.5415 L 156.7485 96.9393 L 155.8831 96.3370 L 155.0176 95.7348 L 154.1522 95.1326 L 153.2868 94.5304 L 152.4213 93.9282 L 151.5559 93.3259 L 150.6905 92.7237 L 149.8250 92.1215 L 148.9596 91.5193 L 148.0942 90.9170 L 147.2287 90.3148 L 146.3633 89.7126 L 145.4979 89.1104 L 144.6324 88.5082 L 143.7670 87.9059 L 142.9016 87.3037 L 142.0361 86.7015 L 141.1707 86.0993 L 140.3053 85.4970 L 139.4398 84.8948 L 138.5744 84.2926 L 137.7090 83.6904 L 136.8435 83.0882 L 135.9781 82.4859 L 135.1127 81.8837 L 134.2472 81.2815 L 133.3818 80.6793 L 132.5164 80.0770 L 131.6509 79.4748 L 130.7855 78.8726 L 129.9201 78.2704 L 129.0546 77.6682 L 128.1892 77.0659 L 127.3238 76.4637 L 126.4583 75.8615 L 125.5929 75.2593 L 124.7275 74.6570 L 123.8620 74.0548 L 122.9966 73.4526 L 122.1312 72.8504 L 121.2657 72.2482 L 120.4003 71.6459 L 119.5349 71.0437 L 118.6694 70.4415 L 117.8040 69.8393 L 116.9386 69.2371 L 116.0731 68.6348 L 115.2077 68.0326 L 114.3423 67.4304 L 113.4768 66.8282 L 113.7119 67.7406 L 114.0172 68.7498 L 114.3225 69.7590 L 114.6278 70.7682 L 114.9331 71.7773 L 115.2384 72.7865 L 115.5438 73.7957 L 115.8491 74.8049 L 116.1544 75.8140 L 116.4597 76.8232 L 116.7650 77.8324 L 117.0703 78.8416 L 117.3756 79.8507 L 117.6810 80.8599 L 117.9863 81.8691 L 118.2916 82.8782 L 118.5969 83.8874 L 118.9022 84.8966 L 119.2075 85.9058 L 119.5128 86.9149 L 119.8181 87.9241 L 120.1235 88.9333 L 120.4288 89.9425 L 120.7341 90.9516 L 121.0394 91.9608 L 121.3447 92.9700 L 121.6500 93.9792 L 121.9553 94.9883 L 122.2607 95.9975 L 122.5660 97.0067 L 122.8713 98.0158 L 123.1766 99.0250 L 123.4819 100.0342 L 123.7872 101.0434 L 124.0925 102.0525 L 124.3978 103.0617 L 124.7032 104.0709 L 125.0085 105.0801 L 125.3138 106.0892 L 125.6191 107.0984 L 125.9244 108.1076 L 126.2297 109.1168 L 126.5350 110.1259 L 126.8404 111.1351 L 127.1457 112.1443 L 127.4510 113.1534 L 127.7563 114.1626 L 128.0616 115.1718 L 128.3669 116.1810 L 128.6722 117.1901 L 128.9775 118.1993 L 129.2829 119.2085 L 129.5882 120.2177 L 129.8935 121.2268 L 130.1988 122.2360 L 130.5041 123.2452 L 130.8094 124.2544 L 131.1147 125.2635 L 131.4201 126.2727 L 131.7254 127.2819 L 132.0307 128.2910 L 132.3360 129.3002 L 132.6413 130.3094 L 132.9466 131.3186 L 133.2519 132.3277 L 133.5572 133.3369 L 133.8626 134.3461 L 134.1679 135.3553 L 134.4732 136.3644 L 134.7785 137.3736 L 135.0838 138.3828 L 135.3891 139.3920 L 135.6944 140.4011 L 135.9998 141.4103 L 136.3051 142.4195 L 136.6104 143.4286 L 136.9157 144.4378 L 137.2210 145.4470 L 137.5263 146.4562 L 137.8316 147.4653 L 138.1369 148.4745 L 138.4423 149.4837 L 138.7476 150.4929 L 139.0529 151.5020 L 139.3582 152.5112 L 139.6635 153.5204 L 139.9688 154.5296 L 140.2741 155.5387 L 140.5794 156.5479 L 140.8848 157.5571 L 141.1901 158.5662 L 141.4954 159.5754 L 141.8007 160.5846 L 142.1060 161.5938 L 142.4113 162.6029 L 142.7166 163.6121 L 143.0220 164.6213 L 143.3273 165.6305 L 143.6326 166.6396 L 143.9379 167.6488 L 143.1779 168.3118 L 142.3377 168.9488 L 141.4975 169.5858 L 140.6574 170.2228 L 139.8172 170.8598 L 138.9770 171.4967 L 138.1368 172.1337 L 137.2966 172.7707 L 136.4565 173.4077 L 135.6163 174.0447 L 134.7761 174.6816 L 133.9359 175.3186 L 133.0957 175.9556 L 132.2556 176.5926 L 131.4154 177.2296 L 130.5752 177.8665 L 129.7350 178.5035 L 128.8948 179.1405 L 128.0547 179.7775 L 127.2145 180.4145 L 126.3743 181.0514 L 125.5341 181.6884 L 124.6939 182.3254 L 123.8537 182.9624 L 123.0136 183.5994 L 122.1734 184.2363 L 121.3332 184.8733 L 120.4930 185.5103 L 119.6528 186.1473 L 118.8127 186.7843 L 117.9725 187.4212 L 117.1323 188.0582 L 116.2921 188.6952 L 115.4519 189.3322 L 114.6118 189.9692 L 113.7716 190.6061 L 112.9314 191.2431 L 112.0912 191.8801 L 111.2510 192.5171 L 110.4109 193.1541 L 109.5707 193.7910 L 108.7305 194.4280 L 107.8903 195.0650 L 107.0501 195.7020 L 106.2099 196.3390 L 105.3698 196.9759 L 104.5296 197.6129 L 103.6894 198.2499 L 102.8492 198.8869 L 102.0090 199.5239 L 101.1689 200.1608 L 100.3287 200.7978 L 99.4885 201.4348 L 98.6483 202.0718 L 97.8081 202.7088 L 96.9680 203.3457 L 96.1278 203.9827 L 95.2876 204.6197 L 94.4474 205.2567 L 93.6072 205.8936 L 92.7671 206.5306 L 91.9269 207.1676 L 91.0867 207.8046 L 90.2465 208.4416 L 89.4063 209.0785 L 88.5662 209.7155 L 87.7260 210.3525 L 86.8858 210.9895 L 86.0456 211.6265 L 85.2054 212.2634 L 84.3652 212.9004 L 83.5251 213.5374 L 82.6849 214.1744 L 81.8447 214.8114 L 81.0045 215.4483 L 80.1643 216.0853 L 79.3242 216.7223 L 78.4840 217.3593 L 77.6438 217.9963 L 76.8036 218.6332 L 75.9634 219.2702 L 75.1233 219.9072 L 74.2831 220.5442 L 73.4429 221.1812 L 72.6027 221.8181 L 71.7625 222.4551 L 70.9224 223.0921 L 70.0822 223.7291 L 69.2420 224.3661 L 68.4018 225.0030 L 67.5616 225.6400 L 66.7214 226.2770 L 65.8813 226.9140 L 65.0411 227.5510 L 64.2009 228.1879 L 63.3607 228.8249 L 62.5205 229.4619 L 61.6804 230.0989 L 60.8402 230.7359 L 60.0000 231.3728 L 60.9026 231.4436 L 61.9567 231.4650 L 63.0108 231.4865 L 64.0650 231.5080 L 65.1191 231.5295 L 66.1732 231.5510 L 67.2273 231.5725 L 68.2815 231.5939 L 69.3356 231.6154 L 70.3897 231.6369 L 71.4438 231.6584 L 72.4980 231.6799 L 73.5521 231.7013 L 74.6062 231.7228 L 75.6604 231.7443 L 76.7145 231.7658 L 77.7686 231.7873 L 78.8227 231.8088 L 79.8769 231.8302 L 80.9310 231.8517 L 81.9851 231.8732 L 83.0393 231.8947 L 84.0934 231.9162 L 85.1475 231.9376 L 86.2016 231.9591 L 87.2558 231.9806 L 88.3099 232.0021 L 89.3640 232.0236 L 90.4181 232.0450 L 91.4723 232.0665 L 92.5264 232.0880 L 93.5805 232.1095 L 94.6347 232.1310 L 95.6888 232.1525 L 96.7429 232.1739 L 97.7970 232.1954 L 98.8512 232.2169 L 99.9053 232.2384 L 100.9594 232.2599 L 102.0136 232.2813 L 103.0677 232.3028 L 104.1218 232.3243 L 105.1759 232.3458 L 106.2301 232.3673 L 107.2842 232.3888 L 108.3383 232.4102 L 109.3925 232.4317 L 110.4466 232.4532 L 111.5007 232.4747 L 112.5548 232.4962 L 113.6090 232.5176 L 114.6631 232.5391 L 115.7172 232.5606 L 116.7713 232.5821 L 117.8255 232.6036 L 118.8796 232.6250 L 119.9337 232.6465 L 120.9879 232.6680 L 122.0420 232.6895 L 123.0961 232.7110 L 124.1502 232.7325 L 125.2044 232.7539 L 126.2585 232.7754 L 127.3126 232.7969 L 128.3668 232.8184 L 129.4209 232.8399 L 130.4750 232.8613 L 131.5291 232.8828 L 132.5833 232.9043 L 133.6374 232.9258 L 134.6915 232.9473 L 135.7457 232.9688 L 136.7998 232.9902 L 137.8539 233.0117 L 138.9080 233.0332 L 139.9622 233.0547 L 141.0163 233.0762 L 142.0704 233.0976 L 143.1245 233.1191 L 144.1787 233.1406 L 145.2328 233.1621 L 146.2869 233.1836 L 147.3411 233.2050 L 148.3952 233.2265 L 149.4493 233.2480 L 150.5034 233.2695 L 151.5576 233.2910 L 152.6117 233.3125 L 153.6658 233.3339 L 154.7200 233.3554 L 155.7741 233.3769 L 156.8282 233.3984 L 157.8823 233.4199 L 158.9365 233.4413 L 159.9906 233.4628 L 161.0447 233.4843 L 162.0988 233.5058 L 163.1530 233.5273 L 164.2071 233.5488 L 165.2612 233.5702 L 165.6711 234.4784 L 166.0173 235.4743 L 166.3635 236.4702 L 166.7096 237.4661 L 167.0558 238.4620 L 167.4020 239.4579 L 167.7482 240.4538 L 168.0943 241.4497 L 168.4405 242.4456 L 168.7867 243.4415 L 169.1329 244.4374 L 169.4790 245.4333 L 169.8252 246.4292 L 170.1714 247.4251 L 170.5176 248.4210 L 170.8637 249.4169 L 171.2099 250.4128 L 171.5561 251.4087 L 171.9023 252.4046 L 172.2484 253.4005 L 172.5946 254.3964 L 172.9408 255.3923 L 173.2869 256.3882 L 173.6331 257.3841 L 173.9793 258.3800 L 174.3255 259.3759 L 174.6716 260.3717 L 175.0178 261.3676 L 175.3640 262.3635 L 175.7102 263.3594 L 176.0563 264.3553 L 176.4025 265.3512 L 176.7487 266.3471 L 177.0949 267.3430 L 177.4410 268.3389 L 177.7872 269.3348 L 178.1334 270.3307 L 178.4795 271.3266 L 178.8257 272.3225 L 179.1719 273.3184 L 179.5181 274.3143 L 179.8642 275.3102 L 180.2104 276.3061 L 180.5566 277.3020 L 180.9028 278.2979 L 181.2489 279.2938 L 181.5951 280.2897 L 181.9413 281.2856 L 182.2875 282.2815 L 182.6336 283.2774 L 182.9798 284.2733 L 183.3260 285.2692 L 183.6722 286.2651 L 184.0183 287.2610 L 184.3645 288.2569 L 184.7107 289.2528 L 185.0568 290.2487 L 185.4030 291.2446 L 185.7492 292.2405 L 186.0954 293.2364 L 186.4415 294.2323 L 186.7877 295.2281 L 187.1339 296.2240 L 187.4801 297.2199 L 187.8262 298.2158 L 188.1724 299.2117 L 188.5186 300.2076 L 188.8648 301.2035 L 189.2109 302.1994 L 189.5571 303.1953 L 189.9033 304.1912 L 190.2495 305.1871 L 190.5956 306.1830 L 190.9418 307.1789 L 191.2880 308.1748 L 191.6341 309.1707 L 191.9803 310.1666 L 192.3265 311.1625 L 192.6727 312.1584 L 193.0188 313.1543 L 193.3650 314.1502 L 193.7112 315.1461 L 194.0574 316.1420 L 194.4035 317.1379 L 194.7497 318.1338 L 195.0959 319.1297 L 195.4421 320.1256 L 195.7882 321.1215 L 196.1344 322.1174 L 196.4806 323.1133 L 196.8267 324.1092 L 197.1729 325.1051 L 197.5191 326.1010 L 197.8653 327.0969 L 198.2114 328.0928 L 198.5576 329.0886 L 198.9038 330.0845 L 199.2500 331.0804 L 199.5961 332.0763" 
        fill="none" 
        stroke="#FFC107" 
        stroke-width="1.5"
        stroke-linecap="round"
        stroke-linejoin="round"/>
</svg>